<?xml version="1.0" encoding="UTF-8" standalone="no"?>
<svg
   xml:lang="en"
   height="165.36473pt"
   width="216.27725pt"
   viewBox="-112.6 -136.4 216.27725 165.36472"
   version="1.1"
   id="svg36"
   sodipodi:docname="bakåt_ers.svg"
   inkscape:version="1.4 (unknown)"
   xmlns:inkscape="http://www.inkscape.org/namespaces/inkscape"
   xmlns:sodipodi="http://sodipodi.sourceforge.net/DTD/sodipodi-0.dtd"
   xmlns="http://www.w3.org/2000/svg"
   xmlns:svg="http://www.w3.org/2000/svg"
   xmlns:ns8="http://www.iki.fi/pav/software/textext/">
  <sodipodi:namedview
     id="namedview36"
     pagecolor="#ffffff"
     bordercolor="#000000"
     borderopacity="0.25"
     inkscape:showpageshadow="2"
     inkscape:pageopacity="0.0"
     inkscape:pagecheckerboard="0"
     inkscape:deskcolor="#d1d1d1"
     inkscape:document-units="pt"
     inkscape:zoom="2.4417476"
     inkscape:cx="16.996024"
     inkscape:cy="125.72962"
     inkscape:window-width="2560"
     inkscape:window-height="1403"
     inkscape:window-x="0"
     inkscape:window-y="0"
     inkscape:window-maximized="1"
     inkscape:current-layer="svg36" />
  <defs
     id="defs36" />
  <path
     d="m 13.269649,-3.2754686 h -50.625 m -6.75,0 h -50.625"
     style="fill:none;stroke:#000000;stroke-width:2;stroke-linecap:round;stroke-linejoin:round"
     id="path1" />
  <path
     d="M -37.355351,10.224532 V -16.775469"
     style="fill:none;stroke:#000000;stroke-width:2;stroke-linecap:round;stroke-linejoin:round"
     id="path2" />
  <path
     d="M -44.105351,3.474532 V -10.025469"
     style="fill:none;stroke:#000000;stroke-width:2;stroke-linecap:round;stroke-linejoin:round"
     id="path3" />
  <path
     d="m -94.730351,-3.2754686 v -26.9999994 -27"
     style="fill:none;stroke:#000000;stroke-width:2;stroke-linecap:round;stroke-linejoin:round"
     id="path4" />
  <path
     d="m -94.730351,-57.275468 h 36 v -9 h 36 v 18 h -36 v -9 m 36,0 h 36"
     style="fill:none;stroke:#000000;stroke-width:2;stroke-linecap:round;stroke-linejoin:round"
     id="path5" />
  <path
     d="m -94.730351,-57.275468 v -27 -27.000012"
     style="fill:none;stroke:#000000;stroke-width:2;stroke-linecap:round;stroke-linejoin:round"
     id="path6" />
  <path
     d="m -94.730351,-111.27548 h 36 v -9 h 36 v 18.00001 h -36 v -9.00001 m 36,0 h 36"
     style="fill:none;stroke:#000000;stroke-width:2;stroke-linecap:round;stroke-linejoin:round"
     id="path7" />
  <path
     d="m 13.269649,-111.27548 v 54.000012 53.9999994"
     style="fill:none;stroke:#000000;stroke-width:2;stroke-linecap:round;stroke-linejoin:round"
     id="path8" />
  <g
     id="g26"
     transform="matrix(1.0088396,0,0,1.0088396,14.790748,-1.2881301)"
     style="stroke-width:0.991238">
    <g
       id="g25"
       style="stroke-width:0.991238">
      <g
         id="g24"
         style="stroke-width:0.991238">
        <path
           d="m -78.954,-131.8 c 0,0.476 -0.224,1.442 -0.77,1.988 -0.364,0.364 -1.106,0.812 -2.366,0.812 h -1.568 l 0.91,-3.654 c 0.084,-0.336 0.126,-0.476 0.392,-0.518 0.126,-0.014 0.574,-0.014 0.854,-0.014 0.994,0 2.548,0 2.548,1.386 z m 1.526,6.44 c 0,-0.168 -0.168,-0.168 -0.168,-0.168 -0.126,0 -0.154,0.098 -0.182,0.196 -0.35,1.036 -0.952,1.274 -1.274,1.274 -0.462,0 -0.56,-0.308 -0.56,-0.854 0,-0.434 0.084,-1.148 0.14,-1.596 0.028,-0.196 0.056,-0.462 0.056,-0.658 0,-1.078 -0.938,-1.512 -1.316,-1.652 1.414,-0.308 3.08,-1.288 3.08,-2.702 0,-1.204 -1.26,-2.1 -3.094,-2.1 h -3.99 c -0.28,0 -0.406,0 -0.406,0.28 0,0.154 0.126,0.154 0.392,0.154 0,0 0.294,0 0.532,0.028 0.252,0.028 0.378,0.042 0.378,0.224 0,0.056 -0.014,0.098 -0.056,0.266 l -1.876,7.518 c -0.14,0.546 -0.168,0.658 -1.274,0.658 -0.252,0 -0.378,0 -0.378,0.28 0,0.154 0.196,0.154 0.196,0.154 0,0 1.764,-0.042 1.764,-0.042 0,0 1.778,0 1.778,0 0.112,0 0.28,0 0.28,-0.28 0,-0.154 -0.126,-0.154 -0.392,-0.154 -0.518,0 -0.91,0 -0.91,-0.252 0,-0.084 0.028,-0.154 0.042,-0.238 l 0.924,-3.71 h 1.666 c 1.274,0 1.526,0.784 1.526,1.274 0,0.21 -0.112,0.644 -0.196,0.966 -0.098,0.392 -0.224,0.91 -0.224,1.19 0,1.512 1.68,1.512 1.862,1.512 1.19,0 1.68,-1.414 1.68,-1.61 z"
           fill="#000000"
           id="path18"
           style="stroke-width:0.991238" />
        <path
           d="m -72.737,-120.6 v -0.353 h -0.372 c -0.98,0 -0.98,-0.127 -0.98,-0.451 v -5.429 c 0,-0.264 -0.02,-0.274 -0.294,-0.274 -0.627,0.617 -1.519,0.627 -1.921,0.627 v 0.353 c 0.235,0 0.882,0 1.421,-0.275 v 4.998 c 0,0.324 0,0.451 -0.98,0.451 h -0.372 v 0.353 c 0,0 1.744,-0.039 1.744,-0.039 0,0 1.754,0 1.754,0 z"
           fill="#000000"
           id="path19"
           style="stroke-width:0.991238" />
        <path
           d="m -56.504,-128.916 c 0,-0.154 -0.126,-0.28 -0.28,-0.28 h -8.764 c -0.154,0 -0.28,0.126 -0.28,0.28 0,0.154 0.126,0.28 0.28,0.28 h 8.764 c 0.154,0 0.28,-0.126 0.28,-0.28 z m 0,2.716 c 0,-0.154 -0.126,-0.28 -0.28,-0.28 h -8.764 c -0.154,0 -0.28,0.126 -0.28,0.28 0,0.154 0.126,0.28 0.28,0.28 h 8.764 c 0.154,0 0.28,-0.126 0.28,-0.28 z"
           fill="#000000"
           id="path20"
           style="stroke-width:0.991238" />
        <path
           d="m -44.67,-124.058 v -0.434 h -0.448 c -1.26,0 -1.302,-0.154 -1.302,-0.672 v -7.854 c 0,-0.336 0,-0.364 -0.322,-0.364 -0.868,0.896 -2.1,0.896 -2.548,0.896 v 0.434 c 0.28,0 1.106,0 1.834,-0.364 v 7.252 c 0,0.504 -0.042,0.672 -1.302,0.672 h -0.448 v 0.434 c 0.49,-0.042 1.708,-0.042 2.268,-0.042 0.56,0 1.778,0 2.268,0 z"
           fill="#000000"
           id="path21"
           style="stroke-width:0.991238" />
        <path
           d="m -37.096,-128.538 c 0,-1.12 -0.07,-2.24 -0.56,-3.276 -0.644,-1.344 -1.792,-1.568 -2.38,-1.568 -0.84,0 -1.862,0.364 -2.436,1.666 -0.448,0.966 -0.518,2.058 -0.518,3.178 0,1.05 0.056,2.31 0.63,3.374 0.602,1.134 1.624,1.414 2.31,1.414 0.756,0 1.82,-0.294 2.436,-1.624 0.448,-0.966 0.518,-2.058 0.518,-3.164 z m -1.162,-0.168 c 0,1.05 0,2.002 -0.154,2.898 -0.21,1.33 -1.008,1.75 -1.638,1.75 -0.546,0 -1.372,-0.35 -1.624,-1.694 -0.154,-0.84 -0.154,-2.128 -0.154,-2.954 0,-0.896 0,-1.82 0.112,-2.576 0.266,-1.666 1.316,-1.792 1.666,-1.792 0.462,0 1.386,0.252 1.652,1.638 0.14,0.784 0.14,1.848 0.14,2.73 z"
           fill="#000000"
           id="path22"
           style="stroke-width:0.991238" />
        <path
           d="m -30.096,-128.538 c 0,-1.12 -0.07,-2.24 -0.56,-3.276 -0.644,-1.344 -1.792,-1.568 -2.38,-1.568 -0.84,0 -1.862,0.364 -2.436,1.666 -0.448,0.966 -0.518,2.058 -0.518,3.178 0,1.05 0.056,2.31 0.63,3.374 0.602,1.134 1.624,1.414 2.31,1.414 0.756,0 1.82,-0.294 2.436,-1.624 0.448,-0.966 0.518,-2.058 0.518,-3.164 z m -1.162,-0.168 c 0,1.05 0,2.002 -0.154,2.898 -0.21,1.33 -1.008,1.75 -1.638,1.75 -0.546,0 -1.372,-0.35 -1.624,-1.694 -0.154,-0.84 -0.154,-2.128 -0.154,-2.954 0,-0.896 0,-1.82 0.112,-2.576 0.266,-1.666 1.316,-1.792 1.666,-1.792 0.462,0 1.386,0.252 1.652,1.638 0.14,0.784 0.14,1.848 0.14,2.73 z"
           fill="#000000"
           id="path23"
           style="stroke-width:0.991238" />
        <path
           d="m -20.058,-126.326 h -0.35 c -0.07,0.364 -0.126,0.686 -0.252,1.022 -0.07,0.224 -0.112,0.336 -0.924,0.336 h -1.12 c 0.182,-0.784 0.616,-1.456 1.246,-2.38 0.658,-0.994 1.232,-1.96 1.232,-3.066 0,-1.946 -1.89,-3.514 -4.256,-3.514 -2.408,0 -4.27,1.596 -4.27,3.514 0,1.106 0.574,2.072 1.232,3.066 0.616,0.924 1.064,1.596 1.246,2.38 h -1.12 c -0.812,0 -0.854,-0.112 -0.924,-0.322 -0.112,-0.322 -0.182,-0.686 -0.252,-1.036 h -0.35 l 0.462,2.268 h 2.24 c 0.308,0 0.35,0 0.35,-0.294 0,-0.98 -0.434,-2.212 -0.756,-3.108 -0.294,-0.812 -0.686,-1.918 -0.686,-2.968 0,-2.24 1.54,-3.192 2.814,-3.192 1.344,0 2.828,1.008 2.828,3.192 0,1.05 -0.378,2.114 -0.784,3.262 -0.21,0.588 -0.658,1.848 -0.658,2.814 0,0.294 0.042,0.294 0.364,0.294 h 2.226 z"
           fill="#000000"
           id="path24"
           style="stroke-width:0.991238" />
      </g>
    </g>
  </g>
  <path
     d="m -4.7303508,-57.275468 v 0"
     style="fill:none;stroke:#000000;stroke-width:2;stroke-linecap:round;stroke-linejoin:round"
     id="path26" />
  <path
     d="m -13.530351,-57.275468 8.8000002,-5.4 v 10.8 z"
     style="fill:#000000;stroke:#000000;stroke-linecap:butt;stroke-linejoin:miter"
     id="path177" />
  <path
     d="m -94.748011,-16.091042 -5.399999,-8.799995 h 10.799999 z"
     style="fill:#000000;stroke:#000000;stroke-linecap:butt;stroke-linejoin:miter"
     id="path27"
     inkscape:transform-center-x="-7.9860833"
     inkscape:transform-center-y="2.5364171" />
  <path
     d="m -4.7303508,-111.27548 v 0"
     style="fill:none;stroke:#000000;stroke-width:2;stroke-linecap:round;stroke-linejoin:round"
     id="path31" />
  <path
     d="m -13.530351,-111.27548 8.8000002,-5.4 v 10.80001 z"
     style="fill:#000000;stroke:#000000;stroke-linecap:butt;stroke-linejoin:miter"
     id="path32" />
  <g
     ns8:version="1.11.0"
     ns8:texconverter="typst"
     ns8:pdfconverter="inkscape"
     ns8:text="$I_2 = 100 &quot;mA&quot;$"
     ns8:preamble="/home/sermuns/.config/inkscape/extensions/textext/default_preamble_typst.typ"
     ns8:scale="1.919335896030805"
     ns8:alignment="middle center"
     transform="matrix(1.416079,0,0,1.416079,-84.366091,-163.4003)"
     ns8:jacobian_sqrt="1.91934"
     id="g209"
     style="stroke-width:1.35539">
    <g
       id="g203"
       style="stroke-width:1.35539">
      <g
         transform="translate(70.8661,70.8661)"
         id="g202"
         style="stroke-width:1.35539">
        <g
           class="typst-group"
           id="g201"
           style="stroke-width:1.35539">
          <g
             id="g200"
             style="stroke-width:1.35539">
            <g
               transform="translate(0,7.513)"
               id="g180"
               style="stroke-width:1.35539">
              <g
                 class="typst-text"
                 transform="scale(1,-1)"
                 id="g179"
                 style="stroke-width:1.35539">
                <g
                   id="g178"
                   style="stroke-width:1.35539">
                  <path
                     d="m 5.467,7.337 c 0,0.121 -0.066,0.176 -0.209,0.176 L 3.839,7.48 2.398,7.513 C 2.222,7.524 2.134,7.436 2.134,7.249 2.134,7.139 2.2549999,7.084 2.486,7.084 2.9589999,7.084 3.19,7.029 3.19,6.93 3.19,6.875 3.179,6.82 3.168,6.765 L 1.705,0.902 C 1.65,0.65999997 1.54,0.517 1.375,0.462 1.298,0.44 1.1,0.429 0.759,0.429 0.484,0.429 0.374,0.41799998 0.374,0.16499999 0.374,0.055 0.44,0 0.583,0 L 1.9909999,0.033 3.443,0 c 0.176,-0.011 0.264,0.077 0.264,0.253 0,0.176 -0.132,0.176 -0.374,0.176 -0.429,0 -0.6930001,-0.022 -0.6930001,0.154 0,0.055 0.011,0.132 0.044,0.242 L 4.136,6.6219997 C 4.191,6.853 4.301,6.996 4.466,7.051 c 0.077,0.022 0.275,0.033 0.616,0.033 0.264,0 0.385,0.011 0.385,0.253 z"
                     id="path178"
                     style="stroke-width:1.35539" />
                </g>
              </g>
            </g>
            <g
               transform="translate(4.84,10.23)"
               id="g183"
               style="stroke-width:1.35539">
              <g
                 class="typst-text"
                 transform="scale(1,-1)"
                 id="g182"
                 style="stroke-width:1.35539">
                <g
                   id="g181"
                   style="stroke-width:1.35539">
                  <path
                     d="m 0.9163,3.2648 c 0.2463999,0 0.4312,0.1848 0.4312,0.4312 0,0.2772 -0.1463,0.4235 -0.4312,0.4312 0.1694,0.3619 0.5544,0.6545 1.0549,0.6545 0.6776,0 1.1242,-0.5082 1.1242,-1.1858 C 3.0954,3.2263 2.9645,2.8720999 2.695,2.5256 2.5641,2.3485 2.464,2.2253 2.3947,2.156 L 0.5698,0.3465 C 0.4697,0.2541 0.4851,0.231 0.4851,0 H 3.6575 L 3.8962,1.4476 H 3.5728 C 3.5189,1.0395 3.4573,0.80079997 3.388,0.7469 3.3495,0.7238 3.1108,0.7084 2.6565,0.7084 H 1.3475 C 1.8634,1.1626999 2.3408,1.5708 2.7951,1.9327 3.1416,2.2022 3.388,2.4409 3.542,2.6488 3.773,2.9491 3.8885,3.2648 3.8885,3.5959 3.8885,4.0733 3.7037,4.4506 3.3264,4.7278 2.9953,4.9818997 2.5795,5.1128 2.0867,5.1128 1.6632,5.1128 1.3013,4.9896 0.9856,4.7432 0.6545,4.4737 0.4851,4.1349 0.4851,3.7191 c 0,-0.2618 0.1925,-0.4543 0.4312,-0.4543 z"
                     id="path180"
                     style="stroke-width:1.35539" />
                </g>
              </g>
            </g>
            <g
               transform="translate(12.8929,7.513)"
               id="g186"
               style="stroke-width:1.35539">
              <g
                 class="typst-text"
                 transform="scale(1,-1)"
                 id="g185"
                 style="stroke-width:1.35539">
                <g
                   id="g184"
                   style="stroke-width:1.35539">
                  <path
                     d="M 7.678,4.037 H 0.88 C 0.704,4.037 0.616,3.949 0.616,3.784 0.616,3.619 0.704,3.531 0.88,3.531 h 6.798 c 0.176,0 0.264,0.088 0.264,0.253 0,0.132 -0.121,0.253 -0.264,0.253 z m 0,-2.068 H 0.88 C 0.704,1.969 0.616,1.881 0.616,1.716 0.616,1.551 0.704,1.4629999 0.88,1.4629999 h 6.798 c 0.176,0 0.264,0.088 0.264,0.2530001 0,0.143 -0.121,0.253 -0.264,0.253 z"
                     id="path183"
                     style="stroke-width:1.35539" />
                </g>
              </g>
            </g>
            <g
               transform="translate(24.5064,7.513)"
               id="g189"
               style="stroke-width:1.35539">
              <g
                 class="typst-text"
                 transform="scale(1,-1)"
                 id="g188"
                 style="stroke-width:1.35539">
                <g
                   id="g187"
                   style="stroke-width:1.35539">
                  <path
                     d="M 2.9589999,7.3259997 C 2.508,6.864 1.848,6.633 0.979,6.633 V 6.204 c 0.572,0 1.045,0.088 1.408,0.264 V 0.902 C 2.387,0.704 2.343,0.572 2.244,0.517 2.145,0.462 1.87,0.429 1.43,0.429 H 1.045 V 0 C 1.3199999,0.022 1.914,0.033 2.827,0.033 3.74,0.033 4.334,0.022 4.609,0 V 0.429 H 4.224 C 3.773,0.429 3.498,0.462 3.41,0.517 3.322,0.572 3.267,0.704 3.267,0.902 v 6.094 c 0,0.2639998 -0.022,0.3299997 -0.3080001,0.3299997 z"
                     id="path186"
                     style="stroke-width:1.35539" />
                </g>
              </g>
            </g>
            <g
               transform="translate(30.0064,7.513)"
               id="g192"
               style="stroke-width:1.35539">
              <g
                 class="typst-text"
                 transform="scale(1,-1)"
                 id="g191"
                 style="stroke-width:1.35539">
                <g
                   id="g190"
                   style="stroke-width:1.35539">
                  <path
                     d="M 2.739,-0.242 C 4.29,-0.242 5.06,1.012 5.06,3.52 5.06,5.203 4.708,6.325 4.015,6.875 3.6299999,7.172 3.201,7.3259997 2.75,7.3259997 1.199,7.3259997 0.429,6.061 0.429,3.52 c 0,-2.024 0.539,-3.762 2.31,-3.762 z M 3.971,5.764 C 4.048,5.379 4.081,4.675 4.081,3.652 4.081,2.6399999 4.037,1.892 3.96,1.408 3.817,0.528 3.41,0.088 2.739,0.088 2.486,0.088 2.233,0.187 2.002,0.374 1.705,0.627 1.529,1.144 1.452,1.936 1.419,2.211 1.408,2.783 1.408,3.652 c 0,0.957 0.033,1.6279997 0.088,1.991 0.099,0.605 0.297,0.99 0.605,1.155 0.242,0.132 0.451,0.198 0.638,0.198 0.715,0 1.111,-0.583 1.232,-1.232 z"
                     id="path189"
                     style="stroke-width:1.35539" />
                </g>
              </g>
            </g>
            <g
               transform="translate(35.5064,7.513)"
               id="g195"
               style="stroke-width:1.35539">
              <g
                 class="typst-text"
                 transform="scale(1,-1)"
                 id="g194"
                 style="stroke-width:1.35539">
                <g
                   id="g193"
                   style="stroke-width:1.35539">
                  <path
                     d="M 2.739,-0.242 C 4.29,-0.242 5.06,1.012 5.06,3.52 5.06,5.203 4.708,6.325 4.015,6.875 3.6299999,7.172 3.201,7.3259997 2.75,7.3259997 1.199,7.3259997 0.429,6.061 0.429,3.52 c 0,-2.024 0.539,-3.762 2.31,-3.762 z M 3.971,5.764 C 4.048,5.379 4.081,4.675 4.081,3.652 4.081,2.6399999 4.037,1.892 3.96,1.408 3.817,0.528 3.41,0.088 2.739,0.088 2.486,0.088 2.233,0.187 2.002,0.374 1.705,0.627 1.529,1.144 1.452,1.936 1.419,2.211 1.408,2.783 1.408,3.652 c 0,0.957 0.033,1.6279997 0.088,1.991 0.099,0.605 0.297,0.99 0.605,1.155 0.242,0.132 0.451,0.198 0.638,0.198 0.715,0 1.111,-0.583 1.232,-1.232 z"
                     id="path192"
                     style="stroke-width:1.35539" />
                </g>
              </g>
            </g>
            <g
               transform="translate(44.6584,7.513)"
               id="g199"
               style="stroke-width:1.35539">
              <g
                 class="typst-text"
                 transform="scale(1,-1)"
                 id="g198"
                 style="stroke-width:1.35539">
                <g
                   id="g196"
                   style="stroke-width:1.35539">
                  <path
                     d="M 3.465,4.5429997 C 3.971,4.5429997 4.224,4.158 4.224,3.377 V 0.869 C 4.224,0.65999997 4.191,0.528 4.114,0.484 4.037,0.44 3.784,0.418 3.377,0.418 V 0 L 4.653,0.033 5.9179997,0 V 0.41799998 C 5.511,0.41799998 5.269,0.44 5.192,0.484 5.115,0.528 5.071,0.65999997 5.071,0.869 v 1.98 c 0,0.88 0.572,1.6939997 1.419,1.6939997 C 7.007,4.5429997 7.2599998,4.158 7.2599998,3.377 V 0.869 c 0,-0.20900003 -0.044,-0.341 -0.1209998,-0.385 C 7.062,0.44 6.809,0.418 6.402,0.418 V 0 L 7.678,0.033 8.943,0 v 0.41799998 c -0.352,0 -0.583,0.011 -0.693,0.044 C 8.14,0.495 8.096,0.572 8.096,0.704 V 2.761 C 8.096,3.2779999 8.074,3.641 8.041,3.85 7.9309998,4.521 7.436,4.862 6.567,4.862 5.874,4.862 5.357,4.5429997 5.005,3.894 4.851,4.5429997 4.367,4.862 3.542,4.862 2.849,4.862 2.321,4.532 1.969,3.872 v 0.99 L 0.352,4.741 V 4.323 C 0.748,4.323 0.99,4.29 1.078,4.224 1.166,4.158 1.199,4.015 1.199,3.762 V 0.869 C 1.199,0.65999997 1.155,0.528 1.078,0.484 1.001,0.44 0.759,0.418 0.352,0.418 V 0 L 1.628,0.033 2.893,0 v 0.41799998 c -0.407,0 -0.66,0.022 -0.737,0.066 C 2.079,0.528 2.035,0.65999997 2.035,0.869 v 1.98 c 0,0.891 0.583,1.6939997 1.43,1.6939997 z"
                     id="path195"
                     style="stroke-width:1.35539" />
                </g>
                <g
                   transform="translate(9.163)"
                   id="g197"
                   style="stroke-width:1.35539">
                  <path
                     d="M 6.413,0.033 7.887,0 V 0.429 H 7.645 C 7.37,0.429 7.183,0.44 7.106,0.462 6.941,0.517 6.831,0.638 6.765,0.825 L 4.411,7.634 C 4.367,7.777 4.29,7.876 4.125,7.876 3.9819999,7.876 3.883,7.799 3.828,7.634 L 1.573,1.122 C 1.419,0.671 1.012,0.429 0.352,0.41799998 V 0 L 1.507,0.033 2.794,0 v 0.429 c -0.5390001,0 -0.814,0.165 -0.814,0.506 0,0.077 0.011,0.121 0.022,0.143 L 2.497,2.475 H 5.115 L 5.676,0.847 C 5.698,0.781 5.709,0.737 5.709,0.704 5.709,0.517 5.412,0.429 4.807,0.429 V 0 C 5.269,0.033 5.808,0.044 6.413,0.033 Z M 3.795,6.259 4.961,2.904 H 2.6399999 Z"
                     id="path196"
                     style="stroke-width:1.35539" />
                </g>
              </g>
            </g>
          </g>
        </g>
      </g>
    </g>
    <defs
       id="defs209">
      <symbol
         id="symbol203"
         overflow="visible">
        <path
           d="m 5.467,7.337 c 0,0.121 -0.066,0.176 -0.209,0.176 L 3.839,7.48 2.398,7.513 C 2.222,7.524 2.134,7.436 2.134,7.249 2.134,7.139 2.2549999,7.084 2.486,7.084 2.9589999,7.084 3.19,7.029 3.19,6.93 3.19,6.875 3.179,6.82 3.168,6.765 L 1.705,0.902 C 1.65,0.65999997 1.54,0.517 1.375,0.462 1.298,0.44 1.1,0.429 0.759,0.429 0.484,0.429 0.374,0.41799998 0.374,0.16499999 0.374,0.055 0.44,0 0.583,0 L 1.9909999,0.033 3.443,0 c 0.176,-0.011 0.264,0.077 0.264,0.253 0,0.176 -0.132,0.176 -0.374,0.176 -0.429,0 -0.6930001,-0.022 -0.6930001,0.154 0,0.055 0.011,0.132 0.044,0.242 L 4.136,6.6219997 C 4.191,6.853 4.301,6.996 4.466,7.051 c 0.077,0.022 0.275,0.033 0.616,0.033 0.264,0 0.385,0.011 0.385,0.253 z"
           id="path203" />
      </symbol>
      <symbol
         id="symbol204"
         overflow="visible">
        <path
           d="m 0.9163,3.2648 c 0.2463999,0 0.4312,0.1848 0.4312,0.4312 0,0.2772 -0.1463,0.4235 -0.4312,0.4312 0.1694,0.3619 0.5544,0.6545 1.0549,0.6545 0.6776,0 1.1242,-0.5082 1.1242,-1.1858 C 3.0954,3.2263 2.9645,2.8720999 2.695,2.5256 2.5641,2.3485 2.464,2.2253 2.3947,2.156 L 0.5698,0.3465 C 0.4697,0.2541 0.4851,0.231 0.4851,0 H 3.6575 L 3.8962,1.4476 H 3.5728 C 3.5189,1.0395 3.4573,0.80079997 3.388,0.7469 3.3495,0.7238 3.1108,0.7084 2.6565,0.7084 H 1.3475 C 1.8634,1.1626999 2.3408,1.5708 2.7951,1.9327 3.1416,2.2022 3.388,2.4409 3.542,2.6488 3.773,2.9491 3.8885,3.2648 3.8885,3.5959 3.8885,4.0733 3.7037,4.4506 3.3264,4.7278 2.9953,4.9818997 2.5795,5.1128 2.0867,5.1128 1.6632,5.1128 1.3013,4.9896 0.9856,4.7432 0.6545,4.4737 0.4851,4.1349 0.4851,3.7191 c 0,-0.2618 0.1925,-0.4543 0.4312,-0.4543 z"
           id="path204" />
      </symbol>
      <symbol
         id="symbol205"
         overflow="visible">
        <path
           d="M 7.678,4.037 H 0.88 C 0.704,4.037 0.616,3.949 0.616,3.784 0.616,3.619 0.704,3.531 0.88,3.531 h 6.798 c 0.176,0 0.264,0.088 0.264,0.253 0,0.132 -0.121,0.253 -0.264,0.253 z m 0,-2.068 H 0.88 C 0.704,1.969 0.616,1.881 0.616,1.716 0.616,1.551 0.704,1.4629999 0.88,1.4629999 h 6.798 c 0.176,0 0.264,0.088 0.264,0.2530001 0,0.143 -0.121,0.253 -0.264,0.253 z"
           id="path205" />
      </symbol>
      <symbol
         id="symbol206"
         overflow="visible">
        <path
           d="M 2.9589999,7.3259997 C 2.508,6.864 1.848,6.633 0.979,6.633 V 6.204 c 0.572,0 1.045,0.088 1.408,0.264 V 0.902 C 2.387,0.704 2.343,0.572 2.244,0.517 2.145,0.462 1.87,0.429 1.43,0.429 H 1.045 V 0 C 1.3199999,0.022 1.914,0.033 2.827,0.033 3.74,0.033 4.334,0.022 4.609,0 V 0.429 H 4.224 C 3.773,0.429 3.498,0.462 3.41,0.517 3.322,0.572 3.267,0.704 3.267,0.902 v 6.094 c 0,0.2639998 -0.022,0.3299997 -0.3080001,0.3299997 z"
           id="path206" />
      </symbol>
      <symbol
         id="symbol207"
         overflow="visible">
        <path
           d="M 2.739,-0.242 C 4.29,-0.242 5.06,1.012 5.06,3.52 5.06,5.203 4.708,6.325 4.015,6.875 3.6299999,7.172 3.201,7.3259997 2.75,7.3259997 1.199,7.3259997 0.429,6.061 0.429,3.52 c 0,-2.024 0.539,-3.762 2.31,-3.762 z M 3.971,5.764 C 4.048,5.379 4.081,4.675 4.081,3.652 4.081,2.6399999 4.037,1.892 3.96,1.408 3.817,0.528 3.41,0.088 2.739,0.088 2.486,0.088 2.233,0.187 2.002,0.374 1.705,0.627 1.529,1.144 1.452,1.936 1.419,2.211 1.408,2.783 1.408,3.652 c 0,0.957 0.033,1.6279997 0.088,1.991 0.099,0.605 0.297,0.99 0.605,1.155 0.242,0.132 0.451,0.198 0.638,0.198 0.715,0 1.111,-0.583 1.232,-1.232 z"
           id="path207" />
      </symbol>
      <symbol
         id="symbol208"
         overflow="visible">
        <path
           d="M 3.465,4.5429997 C 3.971,4.5429997 4.224,4.158 4.224,3.377 V 0.869 C 4.224,0.65999997 4.191,0.528 4.114,0.484 4.037,0.44 3.784,0.418 3.377,0.418 V 0 L 4.653,0.033 5.9179997,0 V 0.41799998 C 5.511,0.41799998 5.269,0.44 5.192,0.484 5.115,0.528 5.071,0.65999997 5.071,0.869 v 1.98 c 0,0.88 0.572,1.6939997 1.419,1.6939997 C 7.007,4.5429997 7.2599998,4.158 7.2599998,3.377 V 0.869 c 0,-0.20900003 -0.044,-0.341 -0.1209998,-0.385 C 7.062,0.44 6.809,0.418 6.402,0.418 V 0 L 7.678,0.033 8.943,0 v 0.41799998 c -0.352,0 -0.583,0.011 -0.693,0.044 C 8.14,0.495 8.096,0.572 8.096,0.704 V 2.761 C 8.096,3.2779999 8.074,3.641 8.041,3.85 7.9309998,4.521 7.436,4.862 6.567,4.862 5.874,4.862 5.357,4.5429997 5.005,3.894 4.851,4.5429997 4.367,4.862 3.542,4.862 2.849,4.862 2.321,4.532 1.969,3.872 v 0.99 L 0.352,4.741 V 4.323 C 0.748,4.323 0.99,4.29 1.078,4.224 1.166,4.158 1.199,4.015 1.199,3.762 V 0.869 C 1.199,0.65999997 1.155,0.528 1.078,0.484 1.001,0.44 0.759,0.418 0.352,0.418 V 0 L 1.628,0.033 2.893,0 v 0.41799998 c -0.407,0 -0.66,0.022 -0.737,0.066 C 2.079,0.528 2.035,0.65999997 2.035,0.869 v 1.98 c 0,0.891 0.583,1.6939997 1.43,1.6939997 z"
           id="path208" />
      </symbol>
      <symbol
         id="symbol209"
         overflow="visible">
        <path
           d="M 6.413,0.033 7.887,0 V 0.429 H 7.645 C 7.37,0.429 7.183,0.44 7.106,0.462 6.941,0.517 6.831,0.638 6.765,0.825 L 4.411,7.634 C 4.367,7.777 4.29,7.876 4.125,7.876 3.9819999,7.876 3.883,7.799 3.828,7.634 L 1.573,1.122 C 1.419,0.671 1.012,0.429 0.352,0.41799998 V 0 L 1.507,0.033 2.794,0 v 0.429 c -0.5390001,0 -0.814,0.165 -0.814,0.506 0,0.077 0.011,0.121 0.022,0.143 L 2.497,2.475 H 5.115 L 5.676,0.847 C 5.698,0.781 5.709,0.737 5.709,0.704 5.709,0.517 5.412,0.429 4.807,0.429 V 0 C 5.269,0.033 5.808,0.044 6.413,0.033 Z M 3.795,6.259 4.961,2.904 H 2.6399999 Z"
           id="path209" />
      </symbol>
    </defs>
  </g>
  <g
     ns8:version="1.11.0"
     ns8:texconverter="typst"
     ns8:pdfconverter="inkscape"
     ns8:text="$I_1 = 300 &quot;mA&quot;$"
     ns8:preamble="/home/sermuns/.config/inkscape/extensions/textext/default_preamble_typst.typ"
     ns8:scale="1.919335896030805"
     ns8:alignment="middle center"
     transform="matrix(1.416079,0,0,1.416079,-84.058721,-218.68604)"
     ns8:jacobian_sqrt="1.91934"
     id="g164"
     style="stroke-width:1.35539">
    <g
       id="g158"
       style="stroke-width:1.35539">
      <g
         transform="translate(70.8661,70.8661)"
         id="g157"
         style="stroke-width:1.35539">
        <g
           class="typst-group"
           id="g156"
           style="stroke-width:1.35539">
          <g
             id="g155"
             style="stroke-width:1.35539">
            <g
               transform="translate(0,7.513)"
               id="g135"
               style="stroke-width:1.35539">
              <g
                 class="typst-text"
                 transform="scale(1,-1)"
                 id="g134"
                 style="stroke-width:1.35539">
                <g
                   id="g133"
                   style="stroke-width:1.35539">
                  <path
                     d="m 5.467,7.337 c 0,0.121 -0.066,0.176 -0.209,0.176 L 3.839,7.48 2.398,7.513 C 2.222,7.524 2.134,7.436 2.134,7.249 2.134,7.139 2.2549999,7.084 2.486,7.084 2.9589999,7.084 3.19,7.029 3.19,6.93 3.19,6.875 3.179,6.82 3.168,6.765 L 1.705,0.902 C 1.65,0.65999997 1.54,0.517 1.375,0.462 1.298,0.44 1.1,0.429 0.759,0.429 0.484,0.429 0.374,0.41799998 0.374,0.16499999 0.374,0.055 0.44,0 0.583,0 L 1.9909999,0.033 3.443,0 c 0.176,-0.011 0.264,0.077 0.264,0.253 0,0.176 -0.132,0.176 -0.374,0.176 -0.429,0 -0.6930001,-0.022 -0.6930001,0.154 0,0.055 0.011,0.132 0.044,0.242 L 4.136,6.6219997 C 4.191,6.853 4.301,6.996 4.466,7.051 c 0.077,0.022 0.275,0.033 0.616,0.033 0.264,0 0.385,0.011 0.385,0.253 z"
                     id="path133"
                     style="stroke-width:1.35539" />
                </g>
              </g>
            </g>
            <g
               transform="translate(4.84,10.23)"
               id="g138"
               style="stroke-width:1.35539">
              <g
                 class="typst-text"
                 transform="scale(1,-1)"
                 id="g137"
                 style="stroke-width:1.35539">
                <g
                   id="g136"
                   style="stroke-width:1.35539">
                  <path
                     d="M 2.3331,5.1128 C 2.002,4.7894 1.5092,4.6277 0.8393,4.6277 V 4.2889 c 0.4543,0 0.8161999,0.0693 1.0934,0.2002 V 0.6545 C 1.9327,0.55439997 1.925,0.4928 1.9018999,0.462 1.8634,0.3773 1.6324,0.3311 1.2089,0.3311 H 0.8932 V 0 L 2.2638,0.0308 3.6421,0 V 0.3311 H 3.3264 C 2.9029,0.3311 2.6719,0.3773 2.6257,0.462 2.6103,0.4928 2.6026,0.5544 2.6026,0.6545 v 4.2119 c 0,0.2079 -0.0308,0.2464 -0.2695,0.2464 z"
                     id="path135"
                     style="stroke-width:1.35539" />
                </g>
              </g>
            </g>
            <g
               transform="translate(12.8929,7.513)"
               id="g141"
               style="stroke-width:1.35539">
              <g
                 class="typst-text"
                 transform="scale(1,-1)"
                 id="g140"
                 style="stroke-width:1.35539">
                <g
                   id="g139"
                   style="stroke-width:1.35539">
                  <path
                     d="M 7.678,4.037 H 0.88 C 0.704,4.037 0.616,3.949 0.616,3.784 0.616,3.619 0.704,3.531 0.88,3.531 h 6.798 c 0.176,0 0.264,0.088 0.264,0.253 0,0.132 -0.121,0.253 -0.264,0.253 z m 0,-2.068 H 0.88 C 0.704,1.969 0.616,1.881 0.616,1.716 0.616,1.551 0.704,1.4629999 0.88,1.4629999 h 6.798 c 0.176,0 0.264,0.088 0.264,0.2530001 0,0.143 -0.121,0.253 -0.264,0.253 z"
                     id="path138"
                     style="stroke-width:1.35539" />
                </g>
              </g>
            </g>
            <g
               transform="translate(24.5064,7.513)"
               id="g144"
               style="stroke-width:1.35539">
              <g
                 class="typst-text"
                 transform="scale(1,-1)"
                 id="g143"
                 style="stroke-width:1.35539">
                <g
                   id="g142"
                   style="stroke-width:1.35539">
                  <path
                     d="M 3.333,3.883 C 4.059,4.158 4.741,4.851 4.741,5.786 4.741,6.259 4.5099998,6.644 4.059,6.941 3.6629999,7.194 3.212,7.3259997 2.706,7.3259997 2.211,7.3259997 1.782,7.194 1.397,6.941 0.968,6.6549997 0.748,6.281 0.748,5.808 c 0,-0.363 0.242,-0.616 0.594,-0.616 0.352,0 0.594,0.253 0.594,0.605 0,0.363 -0.209,0.561 -0.627,0.583 0.286,0.385 0.737,0.583 1.353,0.583 0.66,0 0.99,-0.385 0.99,-1.166 C 3.652,5.335 3.564,4.95 3.399,4.631 3.102,4.103 2.695,4.004 2.013,4.004 1.881,3.9819999 1.8149999,3.927 1.8149999,3.828 1.8149999,3.6629999 1.892,3.6629999 2.112,3.6629999 H 2.585 C 3.41,3.6629999 3.828,3.08 3.828,1.903 3.828,0.968 3.487,0.154 2.651,0.154 1.936,0.154 1.408,0.396 1.089,0.88 1.474,0.869 1.76,1.155 1.76,1.529 c 0,0.374 -0.275,0.649 -0.649,0.649 -0.429,0 -0.649,-0.22 -0.649,-0.671 0,-0.539 0.242,-0.968 0.726,-1.309 0.429,-0.297 0.935,-0.44 1.496,-0.44 0.6269999,0 1.166,0.209 1.639,0.616 0.473,0.407 0.704,0.913 0.704,1.529 0,1.034 -0.814,1.749 -1.694,1.98 z"
                     id="path141"
                     style="stroke-width:1.35539" />
                </g>
              </g>
            </g>
            <g
               transform="translate(30.0064,7.513)"
               id="g147"
               style="stroke-width:1.35539">
              <g
                 class="typst-text"
                 transform="scale(1,-1)"
                 id="g146"
                 style="stroke-width:1.35539">
                <g
                   id="g145"
                   style="stroke-width:1.35539">
                  <path
                     d="M 2.739,-0.242 C 4.29,-0.242 5.06,1.012 5.06,3.52 5.06,5.203 4.708,6.325 4.015,6.875 3.6299999,7.172 3.201,7.3259997 2.75,7.3259997 1.199,7.3259997 0.429,6.061 0.429,3.52 c 0,-2.024 0.539,-3.762 2.31,-3.762 z M 3.971,5.764 C 4.048,5.379 4.081,4.675 4.081,3.652 4.081,2.6399999 4.037,1.892 3.96,1.408 3.817,0.528 3.41,0.088 2.739,0.088 2.486,0.088 2.233,0.187 2.002,0.374 1.705,0.627 1.529,1.144 1.452,1.936 1.419,2.211 1.408,2.783 1.408,3.652 c 0,0.957 0.033,1.6279997 0.088,1.991 0.099,0.605 0.297,0.99 0.605,1.155 0.242,0.132 0.451,0.198 0.638,0.198 0.715,0 1.111,-0.583 1.232,-1.232 z"
                     id="path144"
                     style="stroke-width:1.35539" />
                </g>
              </g>
            </g>
            <g
               transform="translate(35.5064,7.513)"
               id="g150"
               style="stroke-width:1.35539">
              <g
                 class="typst-text"
                 transform="scale(1,-1)"
                 id="g149"
                 style="stroke-width:1.35539">
                <g
                   id="g148"
                   style="stroke-width:1.35539">
                  <path
                     d="M 2.739,-0.242 C 4.29,-0.242 5.06,1.012 5.06,3.52 5.06,5.203 4.708,6.325 4.015,6.875 3.6299999,7.172 3.201,7.3259997 2.75,7.3259997 1.199,7.3259997 0.429,6.061 0.429,3.52 c 0,-2.024 0.539,-3.762 2.31,-3.762 z M 3.971,5.764 C 4.048,5.379 4.081,4.675 4.081,3.652 4.081,2.6399999 4.037,1.892 3.96,1.408 3.817,0.528 3.41,0.088 2.739,0.088 2.486,0.088 2.233,0.187 2.002,0.374 1.705,0.627 1.529,1.144 1.452,1.936 1.419,2.211 1.408,2.783 1.408,3.652 c 0,0.957 0.033,1.6279997 0.088,1.991 0.099,0.605 0.297,0.99 0.605,1.155 0.242,0.132 0.451,0.198 0.638,0.198 0.715,0 1.111,-0.583 1.232,-1.232 z"
                     id="path147"
                     style="stroke-width:1.35539" />
                </g>
              </g>
            </g>
            <g
               transform="translate(44.6584,7.513)"
               id="g154"
               style="stroke-width:1.35539">
              <g
                 class="typst-text"
                 transform="scale(1,-1)"
                 id="g153"
                 style="stroke-width:1.35539">
                <g
                   id="g151"
                   style="stroke-width:1.35539">
                  <path
                     d="M 3.465,4.5429997 C 3.971,4.5429997 4.224,4.158 4.224,3.377 V 0.869 C 4.224,0.65999997 4.191,0.528 4.114,0.484 4.037,0.44 3.784,0.418 3.377,0.418 V 0 L 4.653,0.033 5.9179997,0 V 0.41799998 C 5.511,0.41799998 5.269,0.44 5.192,0.484 5.115,0.528 5.071,0.65999997 5.071,0.869 v 1.98 c 0,0.88 0.572,1.6939997 1.419,1.6939997 C 7.007,4.5429997 7.2599998,4.158 7.2599998,3.377 V 0.869 c 0,-0.20900003 -0.044,-0.341 -0.1209998,-0.385 C 7.062,0.44 6.809,0.418 6.402,0.418 V 0 L 7.678,0.033 8.943,0 v 0.41799998 c -0.352,0 -0.583,0.011 -0.693,0.044 C 8.14,0.495 8.096,0.572 8.096,0.704 V 2.761 C 8.096,3.2779999 8.074,3.641 8.041,3.85 7.9309998,4.521 7.436,4.862 6.567,4.862 5.874,4.862 5.357,4.5429997 5.005,3.894 4.851,4.5429997 4.367,4.862 3.542,4.862 2.849,4.862 2.321,4.532 1.969,3.872 v 0.99 L 0.352,4.741 V 4.323 C 0.748,4.323 0.99,4.29 1.078,4.224 1.166,4.158 1.199,4.015 1.199,3.762 V 0.869 C 1.199,0.65999997 1.155,0.528 1.078,0.484 1.001,0.44 0.759,0.418 0.352,0.418 V 0 L 1.628,0.033 2.893,0 v 0.41799998 c -0.407,0 -0.66,0.022 -0.737,0.066 C 2.079,0.528 2.035,0.65999997 2.035,0.869 v 1.98 c 0,0.891 0.583,1.6939997 1.43,1.6939997 z"
                     id="path150"
                     style="stroke-width:1.35539" />
                </g>
                <g
                   transform="translate(9.163)"
                   id="g152"
                   style="stroke-width:1.35539">
                  <path
                     d="M 6.413,0.033 7.887,0 V 0.429 H 7.645 C 7.37,0.429 7.183,0.44 7.106,0.462 6.941,0.517 6.831,0.638 6.765,0.825 L 4.411,7.634 C 4.367,7.777 4.29,7.876 4.125,7.876 3.9819999,7.876 3.883,7.799 3.828,7.634 L 1.573,1.122 C 1.419,0.671 1.012,0.429 0.352,0.41799998 V 0 L 1.507,0.033 2.794,0 v 0.429 c -0.5390001,0 -0.814,0.165 -0.814,0.506 0,0.077 0.011,0.121 0.022,0.143 L 2.497,2.475 H 5.115 L 5.676,0.847 C 5.698,0.781 5.709,0.737 5.709,0.704 5.709,0.517 5.412,0.429 4.807,0.429 V 0 C 5.269,0.033 5.808,0.044 6.413,0.033 Z M 3.795,6.259 4.961,2.904 H 2.6399999 Z"
                     id="path151"
                     style="stroke-width:1.35539" />
                </g>
              </g>
            </g>
          </g>
        </g>
      </g>
    </g>
    <defs
       id="defs164">
      <symbol
         id="symbol158"
         overflow="visible">
        <path
           d="m 5.467,7.337 c 0,0.121 -0.066,0.176 -0.209,0.176 L 3.839,7.48 2.398,7.513 C 2.222,7.524 2.134,7.436 2.134,7.249 2.134,7.139 2.2549999,7.084 2.486,7.084 2.9589999,7.084 3.19,7.029 3.19,6.93 3.19,6.875 3.179,6.82 3.168,6.765 L 1.705,0.902 C 1.65,0.65999997 1.54,0.517 1.375,0.462 1.298,0.44 1.1,0.429 0.759,0.429 0.484,0.429 0.374,0.41799998 0.374,0.16499999 0.374,0.055 0.44,0 0.583,0 L 1.9909999,0.033 3.443,0 c 0.176,-0.011 0.264,0.077 0.264,0.253 0,0.176 -0.132,0.176 -0.374,0.176 -0.429,0 -0.6930001,-0.022 -0.6930001,0.154 0,0.055 0.011,0.132 0.044,0.242 L 4.136,6.6219997 C 4.191,6.853 4.301,6.996 4.466,7.051 c 0.077,0.022 0.275,0.033 0.616,0.033 0.264,0 0.385,0.011 0.385,0.253 z"
           id="path158" />
      </symbol>
      <symbol
         id="symbol159"
         overflow="visible">
        <path
           d="M 2.3331,5.1128 C 2.002,4.7894 1.5092,4.6277 0.8393,4.6277 V 4.2889 c 0.4543,0 0.8161999,0.0693 1.0934,0.2002 V 0.6545 C 1.9327,0.55439997 1.925,0.4928 1.9018999,0.462 1.8634,0.3773 1.6324,0.3311 1.2089,0.3311 H 0.8932 V 0 L 2.2638,0.0308 3.6421,0 V 0.3311 H 3.3264 C 2.9029,0.3311 2.6719,0.3773 2.6257,0.462 2.6103,0.4928 2.6026,0.5544 2.6026,0.6545 v 4.2119 c 0,0.2079 -0.0308,0.2464 -0.2695,0.2464 z"
           id="path159" />
      </symbol>
      <symbol
         id="symbol160"
         overflow="visible">
        <path
           d="M 7.678,4.037 H 0.88 C 0.704,4.037 0.616,3.949 0.616,3.784 0.616,3.619 0.704,3.531 0.88,3.531 h 6.798 c 0.176,0 0.264,0.088 0.264,0.253 0,0.132 -0.121,0.253 -0.264,0.253 z m 0,-2.068 H 0.88 C 0.704,1.969 0.616,1.881 0.616,1.716 0.616,1.551 0.704,1.4629999 0.88,1.4629999 h 6.798 c 0.176,0 0.264,0.088 0.264,0.2530001 0,0.143 -0.121,0.253 -0.264,0.253 z"
           id="path160" />
      </symbol>
      <symbol
         id="symbol161"
         overflow="visible">
        <path
           d="M 3.333,3.883 C 4.059,4.158 4.741,4.851 4.741,5.786 4.741,6.259 4.5099998,6.644 4.059,6.941 3.6629999,7.194 3.212,7.3259997 2.706,7.3259997 2.211,7.3259997 1.782,7.194 1.397,6.941 0.968,6.6549997 0.748,6.281 0.748,5.808 c 0,-0.363 0.242,-0.616 0.594,-0.616 0.352,0 0.594,0.253 0.594,0.605 0,0.363 -0.209,0.561 -0.627,0.583 0.286,0.385 0.737,0.583 1.353,0.583 0.66,0 0.99,-0.385 0.99,-1.166 C 3.652,5.335 3.564,4.95 3.399,4.631 3.102,4.103 2.695,4.004 2.013,4.004 1.881,3.9819999 1.8149999,3.927 1.8149999,3.828 1.8149999,3.6629999 1.892,3.6629999 2.112,3.6629999 H 2.585 C 3.41,3.6629999 3.828,3.08 3.828,1.903 3.828,0.968 3.487,0.154 2.651,0.154 1.936,0.154 1.408,0.396 1.089,0.88 1.474,0.869 1.76,1.155 1.76,1.529 c 0,0.374 -0.275,0.649 -0.649,0.649 -0.429,0 -0.649,-0.22 -0.649,-0.671 0,-0.539 0.242,-0.968 0.726,-1.309 0.429,-0.297 0.935,-0.44 1.496,-0.44 0.6269999,0 1.166,0.209 1.639,0.616 0.473,0.407 0.704,0.913 0.704,1.529 0,1.034 -0.814,1.749 -1.694,1.98 z"
           id="path161" />
      </symbol>
      <symbol
         id="symbol162"
         overflow="visible">
        <path
           d="M 2.739,-0.242 C 4.29,-0.242 5.06,1.012 5.06,3.52 5.06,5.203 4.708,6.325 4.015,6.875 3.6299999,7.172 3.201,7.3259997 2.75,7.3259997 1.199,7.3259997 0.429,6.061 0.429,3.52 c 0,-2.024 0.539,-3.762 2.31,-3.762 z M 3.971,5.764 C 4.048,5.379 4.081,4.675 4.081,3.652 4.081,2.6399999 4.037,1.892 3.96,1.408 3.817,0.528 3.41,0.088 2.739,0.088 2.486,0.088 2.233,0.187 2.002,0.374 1.705,0.627 1.529,1.144 1.452,1.936 1.419,2.211 1.408,2.783 1.408,3.652 c 0,0.957 0.033,1.6279997 0.088,1.991 0.099,0.605 0.297,0.99 0.605,1.155 0.242,0.132 0.451,0.198 0.638,0.198 0.715,0 1.111,-0.583 1.232,-1.232 z"
           id="path162" />
      </symbol>
      <symbol
         id="symbol163"
         overflow="visible">
        <path
           d="M 3.465,4.5429997 C 3.971,4.5429997 4.224,4.158 4.224,3.377 V 0.869 C 4.224,0.65999997 4.191,0.528 4.114,0.484 4.037,0.44 3.784,0.418 3.377,0.418 V 0 L 4.653,0.033 5.9179997,0 V 0.41799998 C 5.511,0.41799998 5.269,0.44 5.192,0.484 5.115,0.528 5.071,0.65999997 5.071,0.869 v 1.98 c 0,0.88 0.572,1.6939997 1.419,1.6939997 C 7.007,4.5429997 7.2599998,4.158 7.2599998,3.377 V 0.869 c 0,-0.20900003 -0.044,-0.341 -0.1209998,-0.385 C 7.062,0.44 6.809,0.418 6.402,0.418 V 0 L 7.678,0.033 8.943,0 v 0.41799998 c -0.352,0 -0.583,0.011 -0.693,0.044 C 8.14,0.495 8.096,0.572 8.096,0.704 V 2.761 C 8.096,3.2779999 8.074,3.641 8.041,3.85 7.9309998,4.521 7.436,4.862 6.567,4.862 5.874,4.862 5.357,4.5429997 5.005,3.894 4.851,4.5429997 4.367,4.862 3.542,4.862 2.849,4.862 2.321,4.532 1.969,3.872 v 0.99 L 0.352,4.741 V 4.323 C 0.748,4.323 0.99,4.29 1.078,4.224 1.166,4.158 1.199,4.015 1.199,3.762 V 0.869 C 1.199,0.65999997 1.155,0.528 1.078,0.484 1.001,0.44 0.759,0.418 0.352,0.418 V 0 L 1.628,0.033 2.893,0 v 0.41799998 c -0.407,0 -0.66,0.022 -0.737,0.066 C 2.079,0.528 2.035,0.65999997 2.035,0.869 v 1.98 c 0,0.891 0.583,1.6939997 1.43,1.6939997 z"
           id="path163" />
      </symbol>
      <symbol
         id="symbol164"
         overflow="visible">
        <path
           d="M 6.413,0.033 7.887,0 V 0.429 H 7.645 C 7.37,0.429 7.183,0.44 7.106,0.462 6.941,0.517 6.831,0.638 6.765,0.825 L 4.411,7.634 C 4.367,7.777 4.29,7.876 4.125,7.876 3.9819999,7.876 3.883,7.799 3.828,7.634 L 1.573,1.122 C 1.419,0.671 1.012,0.429 0.352,0.41799998 V 0 L 1.507,0.033 2.794,0 v 0.429 c -0.5390001,0 -0.814,0.165 -0.814,0.506 0,0.077 0.011,0.121 0.022,0.143 L 2.497,2.475 H 5.115 L 5.676,0.847 C 5.698,0.781 5.709,0.737 5.709,0.704 5.709,0.517 5.412,0.429 4.807,0.429 V 0 C 5.269,0.033 5.808,0.044 6.413,0.033 Z M 3.795,6.259 4.961,2.904 H 2.6399999 Z"
           id="path164" />
      </symbol>
    </defs>
  </g>
  <g
     ns8:version="1.11.0"
     ns8:texconverter="typst"
     ns8:pdfconverter="inkscape"
     ns8:text="$R_2$"
     ns8:preamble="/home/sermuns/.config/inkscape/extensions/textext/default_preamble_typst.typ"
     ns8:scale="1.919335896030805"
     ns8:alignment="middle center"
     transform="matrix(1.2943066,0,0,1.2943066,-142.03487,-176.00977)"
     ns8:jacobian_sqrt="1.91934"
     id="g68"
     style="stroke-width:1.48291">
    <g
       id="g171"
       style="stroke-width:1.48291">
      <g
         transform="translate(70.8661,78.3791)"
         id="g167"
         style="stroke-width:1.48291">
        <g
           class="typst-text"
           transform="scale(1,-1)"
           id="g166"
           style="stroke-width:1.48291">
          <g
             id="g165"
             style="stroke-width:1.48291">
            <path
               d="m 8.129,5.841 c 0,0.561 -0.286,0.99 -0.847,1.298 C 6.831,7.392 6.292,7.513 5.687,7.513 H 2.585 C 2.332,7.513 2.222,7.502 2.222,7.249 2.222,7.172 2.255,7.117 2.321,7.106 2.431,7.095 2.519,7.084 2.574,7.084 2.904,7.073 3.091,7.051 3.146,7.04 3.201,7.029 3.234,6.996 3.234,6.941 3.234,6.919 3.223,6.853 3.19,6.743 L 1.738,0.902 C 1.683,0.65999997 1.573,0.506 1.408,0.451 1.331,0.429 1.133,0.418 0.792,0.418 0.55,0.418 0.451,0.407 0.451,0.16500001 0.451,0.044 0.517,-0.011 0.649,0 L 2.013,0.033 3.399,0 c 0.176,-0.011 0.2639999,0.088 0.2639999,0.253 0,0.11 -0.1209999,0.16499998 -0.352,0.16499998 C 2.871,0.41799998 2.651,0.473 2.651,0.572 c 0,0 0.011,0.022 0.033,0.176 L 3.388,3.597 H 4.653 C 5.412,3.597 5.797,3.2779999 5.797,2.651 5.797,2.552 5.742,2.31 5.643,1.914 5.522,1.452 5.467,1.144 5.467,0.979 c 0,-0.836 0.649,-1.221 1.485,-1.221 0.3079998,0 0.605,0.143 0.902,0.418 0.297,0.275 0.451,0.572 0.451,0.88 0,0.11 -0.055,0.165 -0.176,0.165 C 8.052,1.221 7.986,1.166 7.953,1.045 7.832,0.704 7.678,0.451 7.502,0.308 7.3259997,0.16499999 7.161,0.088 6.996,0.088 c -0.253,0 -0.385,0.209 -0.385,0.616 0,0.264 0.033,0.671 0.11,1.232 0.033,0.231 0.044,0.396 0.044,0.517 0,0.583 -0.308,1.012 -0.924,1.276 1.034,0.2529999 2.288,0.99 2.288,2.112 z M 6.699,6.776 C 6.919,6.633 7.029,6.391 7.029,6.05 7.029,5.83 6.985,5.577 6.886,5.2799997 6.5889997,4.378 5.841,3.927 4.642,3.927 H 3.476 L 4.169,6.71 c 0.055,0.231 0.143,0.352 0.264,0.363 0.055,0.011 0.275,0.011 0.66,0.011 0.715,0 1.133,-0.022 1.606,-0.308 z"
               id="path165"
               style="stroke-width:1.48291" />
          </g>
        </g>
      </g>
      <g
         transform="translate(79.2151,81.0961)"
         id="g170"
         style="stroke-width:1.48291">
        <g
           class="typst-text"
           transform="scale(1,-1)"
           id="g169"
           style="stroke-width:1.48291">
          <g
             id="g168"
             style="stroke-width:1.48291">
            <path
               d="m 0.9163,3.2648 c 0.2463999,0 0.4312,0.1848 0.4312,0.4312 0,0.2772 -0.1463,0.4235 -0.4312,0.4312 0.1694,0.3619 0.5544,0.6545 1.0549,0.6545 0.6776,0 1.1242,-0.5082 1.1242,-1.1858 C 3.0954,3.2263 2.9645,2.8720999 2.695,2.5256 2.5641,2.3485 2.464,2.2253 2.3947,2.156 L 0.5698,0.3465 C 0.4697,0.2541 0.4851,0.231 0.4851,0 H 3.6575 L 3.8962,1.4476 H 3.5728 C 3.5189,1.0395 3.4573,0.80079997 3.388,0.7469 3.3495,0.7238 3.1108,0.7084 2.6565,0.7084 H 1.3475 C 1.8634,1.1626999 2.3408,1.5708 2.7951,1.9327 3.1416,2.2022 3.388,2.4409 3.542,2.6488 3.773,2.9491 3.8885,3.2648 3.8885,3.5959 3.8885,4.0733 3.7037,4.4506 3.3264,4.7278 2.9953,4.9818997 2.5795,5.1128 2.0867,5.1128 1.6632,5.1128 1.3013,4.9896 0.9856,4.7432 0.6545,4.4737 0.4851,4.1349 0.4851,3.7191 c 0,-0.2618 0.1925,-0.4543 0.4312,-0.4543 z"
               id="path167"
               style="stroke-width:1.48291" />
          </g>
        </g>
      </g>
    </g>
    <defs
       id="id-f8a141c0-2f65-4fd5-a057-acbd4b51a69c">
      <symbol
         id="id-1f79cd72-c853-4877-afb2-4953b70617fa"
         overflow="visible">
        <path
           d="m 8.129,5.841 c 0,0.561 -0.286,0.99 -0.847,1.298 C 6.831,7.392 6.292,7.513 5.687,7.513 H 2.585 C 2.332,7.513 2.222,7.502 2.222,7.249 2.222,7.172 2.255,7.117 2.321,7.106 2.431,7.095 2.519,7.084 2.574,7.084 2.904,7.073 3.091,7.051 3.146,7.04 3.201,7.029 3.234,6.996 3.234,6.941 3.234,6.919 3.223,6.853 3.19,6.743 L 1.738,0.902 C 1.683,0.65999997 1.573,0.506 1.408,0.451 1.331,0.429 1.133,0.418 0.792,0.418 0.55,0.418 0.451,0.407 0.451,0.16500001 0.451,0.044 0.517,-0.011 0.649,0 L 2.013,0.033 3.399,0 c 0.176,-0.011 0.2639999,0.088 0.2639999,0.253 0,0.11 -0.1209999,0.16499998 -0.352,0.16499998 C 2.871,0.41799998 2.651,0.473 2.651,0.572 c 0,0 0.011,0.022 0.033,0.176 L 3.388,3.597 H 4.653 C 5.412,3.597 5.797,3.2779999 5.797,2.651 5.797,2.552 5.742,2.31 5.643,1.914 5.522,1.452 5.467,1.144 5.467,0.979 c 0,-0.836 0.649,-1.221 1.485,-1.221 0.3079998,0 0.605,0.143 0.902,0.418 0.297,0.275 0.451,0.572 0.451,0.88 0,0.11 -0.055,0.165 -0.176,0.165 C 8.052,1.221 7.986,1.166 7.953,1.045 7.832,0.704 7.678,0.451 7.502,0.308 7.3259997,0.16499999 7.161,0.088 6.996,0.088 c -0.253,0 -0.385,0.209 -0.385,0.616 0,0.264 0.033,0.671 0.11,1.232 0.033,0.231 0.044,0.396 0.044,0.517 0,0.583 -0.308,1.012 -0.924,1.276 1.034,0.2529999 2.288,0.99 2.288,2.112 z M 6.699,6.776 C 6.919,6.633 7.029,6.391 7.029,6.05 7.029,5.83 6.985,5.577 6.886,5.2799997 6.5889997,4.378 5.841,3.927 4.642,3.927 H 3.476 L 4.169,6.71 c 0.055,0.231 0.143,0.352 0.264,0.363 0.055,0.011 0.275,0.011 0.66,0.011 0.715,0 1.133,-0.022 1.606,-0.308 z"
           id="path171" />
      </symbol>
      <symbol
         id="id-997fddcb-262f-4509-9ce9-0e8945b9f79b"
         overflow="visible">
        <path
           d="m 0.9163,3.2648 c 0.2463999,0 0.4312,0.1848 0.4312,0.4312 0,0.2772 -0.1463,0.4235 -0.4312,0.4312 0.1694,0.3619 0.5544,0.6545 1.0549,0.6545 0.6776,0 1.1242,-0.5082 1.1242,-1.1858 C 3.0954,3.2263 2.9645,2.8720999 2.695,2.5256 2.5641,2.3485 2.464,2.2253 2.3947,2.156 L 0.5698,0.3465 C 0.4697,0.2541 0.4851,0.231 0.4851,0 H 3.6575 L 3.8962,1.4476 H 3.5728 C 3.5189,1.0395 3.4573,0.80079997 3.388,0.7469 3.3495,0.7238 3.1108,0.7084 2.6565,0.7084 H 1.3475 C 1.8634,1.1626999 2.3408,1.5708 2.7951,1.9327 3.1416,2.2022 3.388,2.4409 3.542,2.6488 3.773,2.9491 3.8885,3.2648 3.8885,3.5959 3.8885,4.0733 3.7037,4.4506 3.3264,4.7278 2.9953,4.9818997 2.5795,5.1128 2.0867,5.1128 1.6632,5.1128 1.3013,4.9896 0.9856,4.7432 0.6545,4.4737 0.4851,4.1349 0.4851,3.7191 c 0,-0.2618 0.1925,-0.4543 0.4312,-0.4543 z"
           id="path172" />
      </symbol>
    </defs>
  </g>
  <g
     ns8:version="1.11.0"
     ns8:texconverter="typst"
     ns8:pdfconverter="inkscape"
     ns8:text="$U$"
     ns8:preamble="/home/sermuns/.config/inkscape/extensions/textext/default_preamble_typst.typ"
     ns8:scale="1.919335896030805"
     ns8:alignment="middle center"
     ns8:inkscapeversion="1.4"
     transform="matrix(1.6079659,0,0,1.6079659,-162.29332,-97.455318)"
     ns8:jacobian_sqrt="1.91934"
     id="g177"
     style="stroke-width:1.19364">
    <g
       id="g176"
       style="stroke-width:1.19364">
      <g
         transform="translate(70.8661,78.3791)"
         id="g175"
         style="stroke-width:1.19364">
        <g
           class="typst-text"
           transform="scale(1,-1)"
           id="g174"
           style="stroke-width:1.19364">
          <g
             id="g173"
             style="stroke-width:1.19364">
            <path
               d="M 7.062,7.48 C 6.853,7.48 6.149,7.513 5.94,7.513 5.775,7.513 5.698,7.425 5.698,7.249 5.698,7.15 5.775,7.095 5.929,7.084 6.402,7.084 6.633,6.941 6.633,6.6549997 6.633,6.5889997 6.6219997,6.512 6.6,6.435 L 5.621,2.552 C 5.456,1.925 5.137,1.386 4.664,0.924 4.147,0.429 3.575,0.187 2.9589999,0.187 c -0.8139999,0 -1.287,0.55 -1.287,1.364 L 1.683,1.65 c 0,0.209 0.033,0.451 0.11,0.737 L 2.849,6.6219997 C 2.904,6.853 3.003,6.996 3.146,7.051 c 0.066,0.022 0.253,0.033 0.572,0.033 0.286,0 0.407,0 0.407,0.264 0,0.11 -0.066,0.165 -0.187,0.165 L 2.541,7.48 1.144,7.513 C 0.968,7.513 0.891,7.414 0.891,7.249 0.891,7.172 0.924,7.117 0.979,7.106 1.089,7.095 1.177,7.084 1.232,7.084 1.573,7.073 1.771,7.051 1.826,7.04 1.881,7.029 1.903,6.996 1.903,6.941 1.903,6.919 1.892,6.842 1.859,6.721 L 0.814,2.53 C 0.759,2.321 0.737,2.112 0.737,1.892 c 0,-1.265 0.913,-2.134 2.178,-2.134 0.7149999,0 1.375,0.275 1.98,0.836 0.583,0.528 0.9569998,1.144 1.133,1.859 L 6.996,6.314 C 7.139,6.875 7.447,7.073 8.129,7.084 8.283,7.095 8.36,7.183 8.36,7.348 V 7.392 C 8.327,7.469 8.272,7.513 8.173,7.513 7.9639997,7.513 7.271,7.48 7.062,7.48 Z"
               id="path173"
               style="stroke-width:1.19364" />
          </g>
        </g>
      </g>
    </g>
    <defs
       id="id-4f3c1640-1ecf-43ae-9530-ad5a81304c7e">
      <symbol
         id="id-51205541-995d-41df-86d9-3ac255010adc"
         overflow="visible">
        <path
           d="M 7.062,7.48 C 6.853,7.48 6.149,7.513 5.94,7.513 5.775,7.513 5.698,7.425 5.698,7.249 5.698,7.15 5.775,7.095 5.929,7.084 6.402,7.084 6.633,6.941 6.633,6.6549997 6.633,6.5889997 6.6219997,6.512 6.6,6.435 L 5.621,2.552 C 5.456,1.925 5.137,1.386 4.664,0.924 4.147,0.429 3.575,0.187 2.9589999,0.187 c -0.8139999,0 -1.287,0.55 -1.287,1.364 L 1.683,1.65 c 0,0.209 0.033,0.451 0.11,0.737 L 2.849,6.6219997 C 2.904,6.853 3.003,6.996 3.146,7.051 c 0.066,0.022 0.253,0.033 0.572,0.033 0.286,0 0.407,0 0.407,0.264 0,0.11 -0.066,0.165 -0.187,0.165 L 2.541,7.48 1.144,7.513 C 0.968,7.513 0.891,7.414 0.891,7.249 0.891,7.172 0.924,7.117 0.979,7.106 1.089,7.095 1.177,7.084 1.232,7.084 1.573,7.073 1.771,7.051 1.826,7.04 1.881,7.029 1.903,6.996 1.903,6.941 1.903,6.919 1.892,6.842 1.859,6.721 L 0.814,2.53 C 0.759,2.321 0.737,2.112 0.737,1.892 c 0,-1.265 0.913,-2.134 2.178,-2.134 0.7149999,0 1.375,0.275 1.98,0.836 0.583,0.528 0.9569998,1.144 1.133,1.859 L 6.996,6.314 C 7.139,6.875 7.447,7.073 8.129,7.084 8.283,7.095 8.36,7.183 8.36,7.348 V 7.392 C 8.327,7.469 8.272,7.513 8.173,7.513 7.9639997,7.513 7.271,7.48 7.062,7.48 Z"
           id="path176" />
      </symbol>
    </defs>
  </g>
  <g
     ns8:version="1.11.0"
     ns8:texconverter="typst"
     ns8:pdfconverter="inkscape"
     ns8:text="$I$"
     ns8:preamble="/home/sermuns/.config/inkscape/extensions/textext/default_preamble_typst.typ"
     ns8:scale="1.4160759721130212"
     ns8:alignment="middle center"
     ns8:inkscapeversion="1.4"
     transform="matrix(1.41608,0,0,1.41608,-213.48168,-127.9463)"
     ns8:jacobian_sqrt="1.41608"
     style="stroke-width:0"
     id="g100">
    <g
       style="stroke-width:0"
       id="g213">
      <g
         transform="translate(70.8661,78.3791)"
         style="stroke-width:0"
         id="g212">
        <g
           class="typst-text"
           transform="scale(1,-1)"
           style="stroke-width:0"
           id="g211">
          <g
             style="stroke-width:0"
             id="g210">
            <path
               d="m 5.467,7.337 c 0,0.121 -0.066,0.176 -0.209,0.176 L 3.839,7.48 2.398,7.513 C 2.222,7.524 2.134,7.436 2.134,7.249 2.134,7.139 2.2549999,7.084 2.486,7.084 2.9589999,7.084 3.19,7.029 3.19,6.93 3.19,6.875 3.179,6.82 3.168,6.765 L 1.705,0.902 C 1.65,0.65999997 1.54,0.517 1.375,0.462 1.298,0.44 1.1,0.429 0.759,0.429 0.484,0.429 0.374,0.41799998 0.374,0.16499999 0.374,0.055 0.44,0 0.583,0 L 1.9909999,0.033 3.443,0 c 0.176,-0.011 0.264,0.077 0.264,0.253 0,0.176 -0.132,0.176 -0.374,0.176 -0.429,0 -0.6930001,-0.022 -0.6930001,0.154 0,0.055 0.011,0.132 0.044,0.242 L 4.136,6.6219997 C 4.191,6.853 4.301,6.996 4.466,7.051 c 0.077,0.022 0.275,0.033 0.616,0.033 0.264,0 0.385,0.011 0.385,0.253 z"
               style="stroke-width:0"
               id="path210" />
          </g>
        </g>
      </g>
    </g>
    <defs
       id="id-43a71b44-f7d3-4515-84d8-e3a21e717d9f"
       style="stroke-width:0">
      <symbol
         id="id-857494e1-5480-411b-90bb-fbd377d7bafc"
         overflow="visible"
         style="stroke-width:0">
        <path
           d="m 5.467,7.337 c 0,0.121 -0.066,0.176 -0.209,0.176 L 3.839,7.48 2.398,7.513 C 2.222,7.524 2.134,7.436 2.134,7.249 2.134,7.139 2.2549999,7.084 2.486,7.084 2.9589999,7.084 3.19,7.029 3.19,6.93 3.19,6.875 3.179,6.82 3.168,6.765 L 1.705,0.902 C 1.65,0.65999997 1.54,0.517 1.375,0.462 1.298,0.44 1.1,0.429 0.759,0.429 0.484,0.429 0.374,0.41799998 0.374,0.16499999 0.374,0.055 0.44,0 0.583,0 L 1.9909999,0.033 3.443,0 c 0.176,-0.011 0.264,0.077 0.264,0.253 0,0.176 -0.132,0.176 -0.374,0.176 -0.429,0 -0.6930001,-0.022 -0.6930001,0.154 0,0.055 0.011,0.132 0.044,0.242 L 4.136,6.6219997 C 4.191,6.853 4.301,6.996 4.466,7.051 c 0.077,0.022 0.275,0.033 0.616,0.033 0.264,0 0.385,0.011 0.385,0.253 z"
           style="stroke-width:0"
           id="path213" />
      </symbol>
    </defs>
  </g>
</svg>
