<?xml version="1.0" encoding="UTF-8" standalone="no"?>
<svg
   xml:lang="en"
   height="167.1815pt"
   width="191.41pt"
   viewBox="-166.6 -136.4 191.41001 167.1815"
   version="1.1"
   id="svg23"
   sodipodi:docname="kombkrets.svg"
   inkscape:version="1.4 (unknown)"
   xmlns:inkscape="http://www.inkscape.org/namespaces/inkscape"
   xmlns:sodipodi="http://sodipodi.sourceforge.net/DTD/sodipodi-0.dtd"
   xmlns="http://www.w3.org/2000/svg"
   xmlns:svg="http://www.w3.org/2000/svg"
   xmlns:ns2="http://www.iki.fi/pav/software/textext/">
  <sodipodi:namedview
     id="namedview23"
     pagecolor="#ffffff"
     bordercolor="#000000"
     borderopacity="0.25"
     inkscape:showpageshadow="2"
     inkscape:pageopacity="0.0"
     inkscape:pagecheckerboard="0"
     inkscape:deskcolor="#d1d1d1"
     inkscape:document-units="pt"
     inkscape:zoom="2.4694582"
     inkscape:cx="134.23997"
     inkscape:cy="63.171752"
     inkscape:window-width="2560"
     inkscape:window-height="1403"
     inkscape:window-x="0"
     inkscape:window-y="0"
     inkscape:window-maximized="1"
     inkscape:current-layer="svg23" />
  <defs
     id="defs23" />
  <path
     d="m -3.6,-2.78 h -77.625 m -6.75,0 H -165.6"
     style="fill:none;stroke:#000000;stroke-width:2;stroke-linecap:round;stroke-linejoin:round"
     id="path1" />
  <path
     d="m -81.225,10.72 v -27"
     style="fill:none;stroke:#000000;stroke-width:2;stroke-linecap:round;stroke-linejoin:round"
     id="path2" />
  <path
     d="M -87.975,3.97 V -9.53"
     style="fill:none;stroke:#000000;stroke-width:2;stroke-linecap:round;stroke-linejoin:round"
     id="path3" />
  <path
     d="m -165.6,-2.78 v -27 -27"
     style="fill:none;stroke:#000000;stroke-width:2;stroke-linecap:round;stroke-linejoin:round"
     id="path4" />
  <path
     d="m -165.6,-56.78 h 63 v -9 h 36 v 18 h -36 v -9 m 36,0 h 63"
     style="fill:none;stroke:#000000;stroke-width:2;stroke-linecap:round;stroke-linejoin:round"
     id="path5" />
  <path
     d="m -165.6,-56.78 v -27 -27"
     style="fill:none;stroke:#000000;stroke-width:2;stroke-linecap:round;stroke-linejoin:round"
     id="path6" />
  <path
     d="m -165.6,-110.78 h 22.5 v -9 h 36 v 18 h -36 v -9 m 36,0 h 22.5"
     style="fill:none;stroke:#000000;stroke-width:2;stroke-linecap:round;stroke-linejoin:round"
     id="path7" />
  <path
     d="m -84.6,-110.78 h 22.5 v -9 h 36 v 18 h -36 v -9 m 36,0 h 22.5"
     style="fill:none;stroke:#000000;stroke-width:2;stroke-linecap:round;stroke-linejoin:round"
     id="path8" />
  <path
     d="m -3.6,-110.78 v 27 27"
     style="fill:none;stroke:#000000;stroke-width:2;stroke-linecap:round;stroke-linejoin:round"
     id="path9" />
  <path
     d="m -3.6,-56.78 v 9 h 9 v 36 h -18 v -36 h 9 m 0,36 v 9"
     style="fill:none;stroke:#000000;stroke-width:2;stroke-linecap:round;stroke-linejoin:round"
     id="path10" />
  <g
     id="g14"
     transform="translate(-3.6,-2.78)">
    <g
       id="g13">
      <g
         id="g12">
        <path
           d="m -79.77,-77.996 c 0,0.476 -0.224,1.442 -0.77,1.988 -0.364,0.364 -1.106,0.812 -2.366,0.812 h -1.568 l 0.91,-3.654 c 0.084,-0.336 0.126,-0.476 0.392,-0.518 0.126,-0.014 0.574,-0.014 0.854,-0.014 0.994,0 2.548,0 2.548,1.386 z m 1.526,6.44 c 0,-0.168 -0.168,-0.168 -0.168,-0.168 -0.126,0 -0.154,0.098 -0.182,0.196 -0.35,1.036 -0.952,1.274 -1.274,1.274 -0.462,0 -0.56,-0.308 -0.56,-0.854 0,-0.434 0.084,-1.148 0.14,-1.596 0.028,-0.196 0.056,-0.462 0.056,-0.658 0,-1.078 -0.938,-1.512 -1.316,-1.652 1.414,-0.308 3.08,-1.288 3.08,-2.702 0,-1.204 -1.26,-2.1 -3.094,-2.1 h -3.99 c -0.28,0 -0.406,0 -0.406,0.28 0,0.154 0.126,0.154 0.392,0.154 0,0 0.294,0 0.532,0.028 0.252,0.028 0.378,0.042 0.378,0.224 0,0.056 -0.014,0.098 -0.056,0.266 l -1.876,7.518 c -0.14,0.546 -0.168,0.658 -1.274,0.658 -0.252,0 -0.378,0 -0.378,0.28 0,0.154 0.196,0.154 0.196,0.154 0,0 1.764,-0.042 1.764,-0.042 0,0 1.778,0 1.778,0 0.112,0 0.28,0 0.28,-0.28 0,-0.154 -0.126,-0.154 -0.392,-0.154 -0.518,0 -0.91,0 -0.91,-0.252 0,-0.084 0.028,-0.154 0.042,-0.238 l 0.924,-3.71 h 1.666 c 1.274,0 1.526,0.784 1.526,1.274 0,0.21 -0.112,0.644 -0.196,0.966 -0.098,0.392 -0.224,0.91 -0.224,1.19 0,1.512 1.68,1.512 1.862,1.512 1.19,0 1.68,-1.414 1.68,-1.61 z"
           fill="#000000"
           id="path11" />
        <path
           d="m -73.151,-68.491 c 0,-0.765 -0.627,-1.529 -1.705,-1.755 1.029,-0.372 1.401,-1.107 1.401,-1.705 0,-0.774 -0.891,-1.352 -1.979,-1.352 -1.088,0 -1.921,0.529 -1.921,1.313 0,0.333 0.216,0.519 0.51,0.519 0.303,0 0.499,-0.225 0.499,-0.499 0,-0.285 -0.196,-0.49 -0.499,-0.51 0.343,-0.431 1.019,-0.539 1.381,-0.539 0.441,0 1.059,0.216 1.059,1.068 0,0.412 -0.137,0.863 -0.392,1.166 -0.324,0.373 -0.598,0.392 -1.088,0.422 -0.245,0.019 -0.265,0.019 -0.314,0.029 0,0 -0.098,0.02 -0.098,0.128 0,0.137 0.089,0.137 0.255,0.137 h 0.529 c 0.765,0 1.314,0.529 1.314,1.578 0,1.215 -0.706,1.577 -1.274,1.577 -0.392,0 -1.255,-0.107 -1.666,-0.686 0.46,-0.019 0.568,-0.343 0.568,-0.548 0,-0.314 -0.235,-0.539 -0.539,-0.539 -0.274,0 -0.549,0.166 -0.549,0.568 0,0.921 1.019,1.519 2.205,1.519 1.362,0 2.303,-0.911 2.303,-1.891 z"
           fill="#000000"
           id="path12" />
      </g>
    </g>
  </g>
  <g
     id="g17"
     transform="translate(-3.6,-2.78)">
    <g
       id="g16">
      <g
         id="g15">
        <path
           d="m -120.27,-131.8 c 0,0.476 -0.224,1.442 -0.77,1.988 -0.364,0.364 -1.106,0.812 -2.366,0.812 h -1.568 l 0.91,-3.654 c 0.084,-0.336 0.126,-0.476 0.392,-0.518 0.126,-0.014 0.574,-0.014 0.854,-0.014 0.994,0 2.548,0 2.548,1.386 z m 1.526,6.44 c 0,-0.168 -0.168,-0.168 -0.168,-0.168 -0.126,0 -0.154,0.098 -0.182,0.196 -0.35,1.036 -0.952,1.274 -1.274,1.274 -0.462,0 -0.56,-0.308 -0.56,-0.854 0,-0.434 0.084,-1.148 0.14,-1.596 0.028,-0.196 0.056,-0.462 0.056,-0.658 0,-1.078 -0.938,-1.512 -1.316,-1.652 1.414,-0.308 3.08,-1.288 3.08,-2.702 0,-1.204 -1.26,-2.1 -3.094,-2.1 h -3.99 c -0.28,0 -0.406,0 -0.406,0.28 0,0.154 0.126,0.154 0.392,0.154 0,0 0.294,0 0.532,0.028 0.252,0.028 0.378,0.042 0.378,0.224 0,0.056 -0.014,0.098 -0.056,0.266 l -1.876,7.518 c -0.14,0.546 -0.168,0.658 -1.274,0.658 -0.252,0 -0.378,0 -0.378,0.28 0,0.154 0.196,0.154 0.196,0.154 0,0 1.764,-0.042 1.764,-0.042 0,0 1.778,0 1.778,0 0.112,0 0.28,0 0.28,-0.28 0,-0.154 -0.126,-0.154 -0.392,-0.154 -0.518,0 -0.91,0 -0.91,-0.252 0,-0.084 0.028,-0.154 0.042,-0.238 l 0.924,-3.71 h 1.666 c 1.274,0 1.526,0.784 1.526,1.274 0,0.21 -0.112,0.644 -0.196,0.966 -0.098,0.392 -0.224,0.91 -0.224,1.19 0,1.512 1.68,1.512 1.862,1.512 1.19,0 1.68,-1.414 1.68,-1.61 z"
           fill="#000000"
           id="path14" />
        <path
           d="m -114.053,-120.6 v -0.353 h -0.372 c -0.98,0 -0.98,-0.127 -0.98,-0.451 v -5.429 c 0,-0.264 -0.02,-0.274 -0.294,-0.274 -0.627,0.617 -1.519,0.627 -1.921,0.627 v 0.353 c 0.235,0 0.882,0 1.421,-0.275 v 4.998 c 0,0.324 0,0.451 -0.98,0.451 h -0.372 v 0.353 c 0,0 1.744,-0.039 1.744,-0.039 0,0 1.754,0 1.754,0 z"
           fill="#000000"
           id="path15" />
      </g>
    </g>
  </g>
  <g
     id="g20"
     transform="translate(-3.6,-2.78)">
    <g
       id="g19">
      <g
         id="g18">
        <path
           d="m -39.27,-131.8 c 0,0.476 -0.224,1.442 -0.77,1.988 -0.364,0.364 -1.106,0.812 -2.366,0.812 h -1.568 l 0.91,-3.654 c 0.084,-0.336 0.126,-0.476 0.392,-0.518 0.126,-0.014 0.574,-0.014 0.854,-0.014 0.994,0 2.548,0 2.548,1.386 z m 1.526,6.44 c 0,-0.168 -0.168,-0.168 -0.168,-0.168 -0.126,0 -0.154,0.098 -0.182,0.196 -0.35,1.036 -0.952,1.274 -1.274,1.274 -0.462,0 -0.56,-0.308 -0.56,-0.854 0,-0.434 0.084,-1.148 0.14,-1.596 0.028,-0.196 0.056,-0.462 0.056,-0.658 0,-1.078 -0.938,-1.512 -1.316,-1.652 1.414,-0.308 3.08,-1.288 3.08,-2.702 0,-1.204 -1.26,-2.1 -3.094,-2.1 h -3.99 c -0.28,0 -0.406,0 -0.406,0.28 0,0.154 0.126,0.154 0.392,0.154 0,0 0.294,0 0.532,0.028 0.252,0.028 0.378,0.042 0.378,0.224 0,0.056 -0.014,0.098 -0.056,0.266 l -1.876,7.518 c -0.14,0.546 -0.168,0.658 -1.274,0.658 -0.252,0 -0.378,0 -0.378,0.28 0,0.154 0.196,0.154 0.196,0.154 0,0 1.764,-0.042 1.764,-0.042 0,0 1.778,0 1.778,0 0.112,0 0.28,0 0.28,-0.28 0,-0.154 -0.126,-0.154 -0.392,-0.154 -0.518,0 -0.91,0 -0.91,-0.252 0,-0.084 0.028,-0.154 0.042,-0.238 l 0.924,-3.71 h 1.666 c 1.274,0 1.526,0.784 1.526,1.274 0,0.21 -0.112,0.644 -0.196,0.966 -0.098,0.392 -0.224,0.91 -0.224,1.19 0,1.512 1.68,1.512 1.862,1.512 1.19,0 1.68,-1.414 1.68,-1.61 z"
           fill="#000000"
           id="path17" />
        <path
           d="m -32.739,-122.384 h -0.333 c -0.03,0.216 -0.128,0.794 -0.255,0.892 -0.078,0.059 -0.833,0.059 -0.97,0.059 H -36.1 c 1.028,-0.911 1.372,-1.186 1.959,-1.646 0.726,-0.579 1.402,-1.186 1.402,-2.117 0,-1.186 -1.039,-1.911 -2.293,-1.911 -1.216,0 -2.039,0.852 -2.039,1.754 0,0.5 0.422,0.549 0.52,0.549 0.235,0 0.519,-0.167 0.519,-0.52 0,-0.176 -0.068,-0.519 -0.578,-0.519 0.304,-0.696 0.97,-0.911 1.431,-0.911 0.98,0 1.489,0.764 1.489,1.558 0,0.852 -0.607,1.529 -0.921,1.881 l -2.362,2.333 c -0.098,0.088 -0.098,0.108 -0.098,0.382 h 4.038 z"
           fill="#000000"
           id="path18" />
      </g>
    </g>
  </g>
  <g
     id="g23"
     transform="translate(-3.6,-2.78)">
    <g
       id="g22">
      <g
         id="g21">
        <path
           d="m 21.644,-31.69 c 0,0.476 -0.224,1.442 -0.77,1.988 -0.364,0.364 -1.106,0.812 -2.366,0.812 H 16.94 l 0.91,-3.654 c 0.084,-0.336 0.126,-0.476 0.392,-0.518 0.126,-0.014 0.574,-0.014 0.854,-0.014 0.994,0 2.548,0 2.548,1.386 z m 1.526,6.44 c 0,-0.168 -0.168,-0.168 -0.168,-0.168 -0.126,0 -0.154,0.098 -0.182,0.196 -0.35,1.036 -0.952,1.274 -1.274,1.274 -0.462,0 -0.56,-0.308 -0.56,-0.854 0,-0.434 0.084,-1.148 0.14,-1.596 0.028,-0.196 0.056,-0.462 0.056,-0.658 0,-1.078 -0.938,-1.512 -1.316,-1.652 1.414,-0.308 3.08,-1.288 3.08,-2.702 0,-1.204 -1.26,-2.1 -3.094,-2.1 h -3.99 c -0.28,0 -0.406,0 -0.406,0.28 0,0.154 0.126,0.154 0.392,0.154 0,0 0.294,0 0.532,0.028 0.252,0.028 0.378,0.042 0.378,0.224 0,0.056 -0.014,0.098 -0.056,0.266 l -1.876,7.518 c -0.14,0.546 -0.168,0.658 -1.274,0.658 -0.252,0 -0.378,0 -0.378,0.28 0,0.154 0.196,0.154 0.196,0.154 0,0 1.764,-0.042 1.764,-0.042 0,0 1.778,0 1.778,0 0.112,0 0.28,0 0.28,-0.28 0,-0.154 -0.126,-0.154 -0.392,-0.154 -0.518,0 -0.91,0 -0.91,-0.252 0,-0.084 0.028,-0.154 0.042,-0.238 l 0.924,-3.71 h 1.666 c 1.274,0 1.526,0.784 1.526,1.274 0,0.21 -0.112,0.644 -0.196,0.966 -0.098,0.392 -0.224,0.91 -0.224,1.19 0,1.512 1.68,1.512 1.862,1.512 1.19,0 1.68,-1.414 1.68,-1.61 z"
           fill="#000000"
           id="path20" />
        <path
           d="m 28.41,-22.097 v -0.353 h -1.088 v -4.371 c 0,-0.206 0,-0.274 -0.215,-0.274 -0.118,0 -0.157,0 -0.255,0.137 l -3.244,4.508 v 0.353 h 2.881 v 0.803 c 0,0.334 0,0.451 -0.793,0.451 h -0.265 v 0.353 c 0,0 1.47,-0.039 1.47,-0.039 0,0 1.48,0 1.48,0 v -0.353 h -0.265 c -0.794,0 -0.794,-0.118 -0.794,-0.451 v -0.803 z m -1.852,-0.392 h -2.587 l 2.587,-3.587 z"
           fill="#000000"
           id="path21" />
      </g>
    </g>
  </g>
  <g
     ns2:version="1.11.0"
     ns2:texconverter="typst"
     ns2:pdfconverter="inkscape"
     ns2:text="$3 &quot;V&quot;$"
     ns2:preamble="/home/sermuns/.config/inkscape/extensions/textext/default_preamble_typst.typ"
     ns2:scale="1.919335896030805"
     ns2:alignment="middle center"
     ns2:inkscapeversion="1.4"
     transform="matrix(1.91934 0 0 1.91934 -233.788 -120.119)"
     ns2:jacobian_sqrt="1.91934"
     id="g43">
    <g
       id="g42">
      <g
         transform="translate(70.8661, 78.3791)"
         id="g38">
        <g
           class="typst-text"
           transform="scale(1, -1)"
           id="g37">
          <g
             id="g36">
            <path
               d="M 3.333 3.883 C 4.059 4.158 4.741 4.851 4.741 5.786 C 4.741 6.259 4.5099998 6.644 4.059 6.941 C 3.6629999 7.194 3.212 7.3259997 2.706 7.3259997 C 2.211 7.3259997 1.782 7.194 1.397 6.941 C 0.968 6.6549997 0.748 6.281 0.748 5.808 C 0.748 5.445 0.99 5.192 1.342 5.192 C 1.694 5.192 1.936 5.445 1.936 5.797 C 1.936 6.16 1.727 6.358 1.309 6.38 C 1.595 6.765 2.046 6.963 2.662 6.963 C 3.322 6.963 3.652 6.578 3.652 5.797 C 3.652 5.335 3.564 4.95 3.399 4.631 C 3.102 4.103 2.695 4.004 2.013 4.004 C 1.881 3.9819999 1.8149999 3.927 1.8149999 3.828 C 1.8149999 3.6629999 1.892 3.6629999 2.112 3.6629999 L 2.585 3.6629999 C 3.41 3.6629999 3.828 3.08 3.828 1.903 C 3.828 0.968 3.487 0.154 2.651 0.154 C 1.936 0.154 1.408 0.396 1.089 0.88 C 1.474 0.869 1.76 1.155 1.76 1.529 C 1.76 1.903 1.485 2.178 1.111 2.178 C 0.682 2.178 0.462 1.958 0.462 1.507 C 0.462 0.968 0.704 0.539 1.188 0.198 C 1.617 -0.099 2.123 -0.242 2.684 -0.242 C 3.3109999 -0.242 3.85 -0.033 4.323 0.374 C 4.796 0.781 5.027 1.287 5.027 1.903 C 5.027 2.937 4.213 3.652 3.333 3.883 Z "
               id="path36" />
          </g>
        </g>
      </g>
      <g
         transform="translate(76.3661, 78.3791)"
         id="g41">
        <g
           class="typst-text"
           transform="scale(1, -1)"
           id="g40">
          <g
             id="g39">
            <path
               d="M 7.381 7.48 C 7.172 7.48 6.512 7.513 6.303 7.513 C 6.138 7.513 6.05 7.425 6.05 7.2599998 C 6.05 7.15 6.127 7.095 6.27 7.084 C 6.578 7.073 6.732 6.963 6.732 6.776 C 6.732 6.677 6.677 6.545 6.578 6.38 L 3.3 1.177 L 2.574 6.809 C 2.574 6.996 2.805 7.084 3.2779999 7.084 C 3.498 7.084 3.597 7.161 3.597 7.348 C 3.597 7.458 3.531 7.513 3.399 7.513 C 3.157 7.513 2.299 7.48 2.057 7.48 C 1.837 7.48 1.089 7.513 0.869 7.513 C 0.704 7.513 0.616 7.425 0.616 7.2599998 C 0.616 7.139 0.726 7.084 0.935 7.084 C 1.122 7.084 1.254 7.062 1.342 7.04 C 1.518 6.985 1.507 6.963 1.54 6.754 L 2.398 0.044 C 2.431 -0.143 2.519 -0.242 2.662 -0.242 C 2.805 -0.242 2.915 -0.16499999 3.003 -0.022 L 6.919 6.204 C 7.172 6.6 7.414 6.853 7.656 6.952 C 7.821 7.029 8.03 7.073 8.272 7.084 C 8.393 7.095 8.448 7.172 8.459 7.337 C 8.47 7.458 8.404 7.513 8.272 7.513 C 8.107 7.513 7.546 7.48 7.381 7.48 Z "
               id="path38" />
          </g>
        </g>
      </g>
    </g>
    <defs
       id="id-89da70e3-df0c-435c-8410-a9776cf37d69">
      <symbol
         id="id-d8d1bc36-a080-4337-a91f-615d9f76d9fe"
         overflow="visible">
        <path
           d="M 3.333 3.883 C 4.059 4.158 4.741 4.851 4.741 5.786 C 4.741 6.259 4.5099998 6.644 4.059 6.941 C 3.6629999 7.194 3.212 7.3259997 2.706 7.3259997 C 2.211 7.3259997 1.782 7.194 1.397 6.941 C 0.968 6.6549997 0.748 6.281 0.748 5.808 C 0.748 5.445 0.99 5.192 1.342 5.192 C 1.694 5.192 1.936 5.445 1.936 5.797 C 1.936 6.16 1.727 6.358 1.309 6.38 C 1.595 6.765 2.046 6.963 2.662 6.963 C 3.322 6.963 3.652 6.578 3.652 5.797 C 3.652 5.335 3.564 4.95 3.399 4.631 C 3.102 4.103 2.695 4.004 2.013 4.004 C 1.881 3.9819999 1.8149999 3.927 1.8149999 3.828 C 1.8149999 3.6629999 1.892 3.6629999 2.112 3.6629999 L 2.585 3.6629999 C 3.41 3.6629999 3.828 3.08 3.828 1.903 C 3.828 0.968 3.487 0.154 2.651 0.154 C 1.936 0.154 1.408 0.396 1.089 0.88 C 1.474 0.869 1.76 1.155 1.76 1.529 C 1.76 1.903 1.485 2.178 1.111 2.178 C 0.682 2.178 0.462 1.958 0.462 1.507 C 0.462 0.968 0.704 0.539 1.188 0.198 C 1.617 -0.099 2.123 -0.242 2.684 -0.242 C 3.3109999 -0.242 3.85 -0.033 4.323 0.374 C 4.796 0.781 5.027 1.287 5.027 1.903 C 5.027 2.937 4.213 3.652 3.333 3.883 Z "
           id="path42" />
      </symbol>
      <symbol
         id="id-e668e190-1082-4235-a919-646ab11068ad"
         overflow="visible">
        <path
           d="M 7.381 7.48 C 7.172 7.48 6.512 7.513 6.303 7.513 C 6.138 7.513 6.05 7.425 6.05 7.2599998 C 6.05 7.15 6.127 7.095 6.27 7.084 C 6.578 7.073 6.732 6.963 6.732 6.776 C 6.732 6.677 6.677 6.545 6.578 6.38 L 3.3 1.177 L 2.574 6.809 C 2.574 6.996 2.805 7.084 3.2779999 7.084 C 3.498 7.084 3.597 7.161 3.597 7.348 C 3.597 7.458 3.531 7.513 3.399 7.513 C 3.157 7.513 2.299 7.48 2.057 7.48 C 1.837 7.48 1.089 7.513 0.869 7.513 C 0.704 7.513 0.616 7.425 0.616 7.2599998 C 0.616 7.139 0.726 7.084 0.935 7.084 C 1.122 7.084 1.254 7.062 1.342 7.04 C 1.518 6.985 1.507 6.963 1.54 6.754 L 2.398 0.044 C 2.431 -0.143 2.519 -0.242 2.662 -0.242 C 2.805 -0.242 2.915 -0.16499999 3.003 -0.022 L 6.919 6.204 C 7.172 6.6 7.414 6.853 7.656 6.952 C 7.821 7.029 8.03 7.073 8.272 7.084 C 8.393 7.095 8.448 7.172 8.459 7.337 C 8.47 7.458 8.404 7.513 8.272 7.513 C 8.107 7.513 7.546 7.48 7.381 7.48 Z "
           id="path43" />
      </symbol>
    </defs>
  </g>
</svg>
