<svg xmlns="http://www.w3.org/2000/svg" xml:lang="en" height="154.5pt" width="199.508pt" viewBox="-166.60000000000002 -136.4 199.508 154.5"><path d="M 0.0,-0.0 L -77.625,-9.50632077838133e-15 M -84.375,-1.0332957367805792e-14 L -162.0,-1.9839278146187122e-14" style="stroke:black;fill:none;stroke-width:2.0;stroke-linecap:round;stroke-linejoin:round;" /><path d="M -77.625,13.49999999999999 L -77.625,-13.50000000000001" style="stroke:black;fill:none;stroke-width:2.0;stroke-linecap:round;stroke-linejoin:round;" /><path d="M -84.375,6.74999999999999 L -84.375,-6.75000000000001" style="stroke:black;fill:none;stroke-width:2.0;stroke-linecap:round;stroke-linejoin:round;" /><path d="M -162.0,-1.9839278146187122e-14 L -162.0,-27.00000000000002 L -162.0,-54.000000000000014" style="stroke:black;fill:none;stroke-width:2.0;stroke-linecap:round;stroke-linejoin:round;" /><path d="M -162.0,-54.000000000000014 L -99.0,-54.000000000000014 L -99.0,-63.000000000000014 L -63.0,-63.000000000000014 L -63.0,-45.000000000000014 L -99.0,-45.000000000000014 L -99.0,-54.000000000000014 M -63.0,-54.000000000000014 L 0.0,-54.000000000000014" style="stroke:black;fill:none;stroke-width:2.0;stroke-linecap:round;stroke-linejoin:round;" /><path d="M -162.0,-54.000000000000014 L -162.0,-81.00000000000001 L -162.0,-108.00000000000001" style="stroke:black;fill:none;stroke-width:2.0;stroke-linecap:round;stroke-linejoin:round;" /><path d="M -162.0,-108.00000000000001 L -139.5,-108.00000000000001 L -139.5,-117.00000000000001 L -103.5,-117.00000000000001 L -103.5,-99.00000000000001 L -139.5,-99.00000000000001 L -139.5,-108.00000000000001 M -103.5,-108.00000000000001 L -81.0,-108.00000000000001" style="stroke:black;fill:none;stroke-width:2.0;stroke-linecap:round;stroke-linejoin:round;" /><path d="M -81.0,-108.00000000000001 L -58.5,-108.00000000000001 L -58.5,-117.00000000000001 L -22.5,-117.00000000000001 L -22.5,-99.00000000000001 L -58.5,-99.00000000000001 L -58.5,-108.00000000000001 M -22.5,-108.00000000000001 L 0.0,-108.00000000000001" style="stroke:black;fill:none;stroke-width:2.0;stroke-linecap:round;stroke-linejoin:round;" /><path d="M 0.0,-108.00000000000001 L -4.9598195365467806e-15,-81.00000000000001 L -9.919639073093561e-15,-54.000000000000014" style="stroke:black;fill:none;stroke-width:2.0;stroke-linecap:round;stroke-linejoin:round;" /><path d="M -9.919639073093561e-15,-54.000000000000014 L -1.1572912251942487e-14,-45.000000000000014 L 8.999999999999988,-45.000000000000014 L 8.999999999999982,-9.000000000000016 L -9.000000000000018,-9.000000000000016 L -9.000000000000012,-45.000000000000014 L -1.1572912251942487e-14,-45.000000000000014 M -1.8186004967338195e-14,-9.000000000000016 L -1.9839278146187122e-14,-1.5987211554602254e-14" style="stroke:black;fill:none;stroke-width:2.0;stroke-linecap:round;stroke-linejoin:round;" /><g><g><g><path d="M -79.77 -77.996 C -79.77 -77.52 -79.994 -76.554 -80.54 -76.008 C -80.904 -75.644 -81.646 -75.196 -82.906 -75.196 L -84.474 -75.196 L -83.564 -78.85 C -83.48 -79.186 -83.438 -79.326 -83.172 -79.368 C -83.046 -79.382 -82.598 -79.382 -82.318 -79.382 C -81.324 -79.382 -79.77 -79.382 -79.77 -77.996 Z M -78.244 -71.556 C -78.244 -71.724 -78.412 -71.724 -78.412 -71.724 C -78.538 -71.724 -78.566 -71.626 -78.594 -71.528 C -78.944 -70.492 -79.546 -70.254 -79.868 -70.254 C -80.33 -70.254 -80.428 -70.562 -80.428 -71.108 C -80.428 -71.542 -80.344 -72.256 -80.288 -72.704 C -80.26 -72.9 -80.232 -73.166 -80.232 -73.362 C -80.232 -74.44 -81.17 -74.874 -81.548 -75.014 C -80.134 -75.322 -78.468 -76.302 -78.468 -77.716 C -78.468 -78.92 -79.728 -79.816 -81.562 -79.816 L -85.552 -79.816 C -85.832 -79.816 -85.958 -79.816 -85.958 -79.536 C -85.958 -79.382 -85.832 -79.382 -85.566 -79.382 C -85.566 -79.382 -85.272 -79.382 -85.034 -79.354 C -84.782 -79.326 -84.656 -79.312 -84.656 -79.13 C -84.656 -79.074 -84.67 -79.032 -84.712 -78.864 L -86.588 -71.346 C -86.728 -70.8 -86.756 -70.688 -87.862 -70.688 C -88.114 -70.688 -88.24 -70.688 -88.24 -70.408 C -88.24 -70.254 -88.044 -70.254 -88.044 -70.254 C -88.044 -70.254 -86.28 -70.296 -86.28 -70.296 C -86.28 -70.296 -84.502 -70.296 -84.502 -70.296 C -84.39 -70.296 -84.222 -70.296 -84.222 -70.576 C -84.222 -70.73 -84.348 -70.73 -84.614 -70.73 C -85.132 -70.73 -85.524 -70.73 -85.524 -70.982 C -85.524 -71.066 -85.496 -71.136 -85.482 -71.22 L -84.558 -74.93 L -82.892 -74.93 C -81.618 -74.93 -81.366 -74.146 -81.366 -73.656 C -81.366 -73.446 -81.478 -73.012 -81.562 -72.69 C -81.66 -72.298 -81.786 -71.78 -81.786 -71.5 C -81.786 -69.988 -80.106 -69.988 -79.924 -69.988 C -78.734 -69.988 -78.244 -71.402 -78.244 -71.598 Z " fill="black" /><path d="M -73.151 -68.491 C -73.151 -69.256 -73.778 -70.02 -74.856 -70.246 C -73.827 -70.618 -73.455 -71.353 -73.455 -71.951 C -73.455 -72.725 -74.346 -73.303 -75.434 -73.303 C -76.522 -73.303 -77.355 -72.774 -77.355 -71.99 C -77.355 -71.657 -77.139 -71.471 -76.845 -71.471 C -76.542 -71.471 -76.346 -71.696 -76.346 -71.97 C -76.346 -72.255 -76.542 -72.46 -76.845 -72.48 C -76.502 -72.911 -75.826 -73.019 -75.464 -73.019 C -75.023 -73.019 -74.405 -72.803 -74.405 -71.951 C -74.405 -71.539 -74.542 -71.088 -74.797 -70.785 C -75.121 -70.412 -75.395 -70.393 -75.885 -70.363 C -76.13 -70.344 -76.15 -70.344 -76.199 -70.334 C -76.199 -70.334 -76.297 -70.314 -76.297 -70.206 C -76.297 -70.069 -76.208 -70.069 -76.042 -70.069 L -75.513 -70.069 C -74.748 -70.069 -74.199 -69.54 -74.199 -68.491 C -74.199 -67.276 -74.905 -66.914 -75.473 -66.914 C -75.865 -66.914 -76.728 -67.021 -77.139 -67.6 C -76.679 -67.619 -76.571 -67.943 -76.571 -68.148 C -76.571 -68.462 -76.806 -68.687 -77.11 -68.687 C -77.384 -68.687 -77.659 -68.521 -77.659 -68.119 C -77.659 -67.198 -76.64 -66.6 -75.454 -66.6 C -74.092 -66.6 -73.151 -67.511 -73.151 -68.491 Z " fill="black" /></g></g></g><g><g><g><path d="M -120.27 -131.8 C -120.27 -131.324 -120.494 -130.358 -121.04 -129.812 C -121.404 -129.448 -122.146 -129 -123.406 -129 L -124.974 -129 L -124.064 -132.654 C -123.98 -132.99 -123.938 -133.13 -123.672 -133.172 C -123.546 -133.186 -123.098 -133.186 -122.818 -133.186 C -121.824 -133.186 -120.27 -133.186 -120.27 -131.8 Z M -118.744 -125.36 C -118.744 -125.528 -118.912 -125.528 -118.912 -125.528 C -119.038 -125.528 -119.066 -125.43 -119.094 -125.332 C -119.444 -124.296 -120.046 -124.058 -120.368 -124.058 C -120.83 -124.058 -120.928 -124.366 -120.928 -124.912 C -120.928 -125.346 -120.844 -126.06 -120.788 -126.508 C -120.76 -126.704 -120.732 -126.97 -120.732 -127.166 C -120.732 -128.244 -121.67 -128.678 -122.048 -128.818 C -120.634 -129.126 -118.968 -130.106 -118.968 -131.52 C -118.968 -132.724 -120.228 -133.62 -122.062 -133.62 L -126.052 -133.62 C -126.332 -133.62 -126.458 -133.62 -126.458 -133.34 C -126.458 -133.186 -126.332 -133.186 -126.066 -133.186 C -126.066 -133.186 -125.772 -133.186 -125.534 -133.158 C -125.282 -133.13 -125.156 -133.116 -125.156 -132.934 C -125.156 -132.878 -125.17 -132.836 -125.212 -132.668 L -127.088 -125.15 C -127.228 -124.604 -127.256 -124.492 -128.362 -124.492 C -128.614 -124.492 -128.74 -124.492 -128.74 -124.212 C -128.74 -124.058 -128.544 -124.058 -128.544 -124.058 C -128.544 -124.058 -126.78 -124.1 -126.78 -124.1 C -126.78 -124.1 -125.002 -124.1 -125.002 -124.1 C -124.89 -124.1 -124.722 -124.1 -124.722 -124.38 C -124.722 -124.534 -124.848 -124.534 -125.114 -124.534 C -125.632 -124.534 -126.024 -124.534 -126.024 -124.786 C -126.024 -124.87 -125.996 -124.94 -125.982 -125.024 L -125.058 -128.734 L -123.392 -128.734 C -122.118 -128.734 -121.866 -127.95 -121.866 -127.46 C -121.866 -127.25 -121.978 -126.816 -122.062 -126.494 C -122.16 -126.102 -122.286 -125.584 -122.286 -125.304 C -122.286 -123.792 -120.606 -123.792 -120.424 -123.792 C -119.234 -123.792 -118.744 -125.206 -118.744 -125.402 Z " fill="black" /><path d="M -114.053 -120.6 L -114.053 -120.953 L -114.425 -120.953 C -115.405 -120.953 -115.405 -121.08 -115.405 -121.404 L -115.405 -126.833 C -115.405 -127.097 -115.425 -127.107 -115.699 -127.107 C -116.326 -126.49 -117.218 -126.48 -117.62 -126.48 L -117.62 -126.127 C -117.385 -126.127 -116.738 -126.127 -116.199 -126.402 L -116.199 -121.404 C -116.199 -121.08 -116.199 -120.953 -117.179 -120.953 L -117.551 -120.953 L -117.551 -120.6 C -117.551 -120.6 -115.807 -120.639 -115.807 -120.639 C -115.807 -120.639 -114.053 -120.639 -114.053 -120.639 Z " fill="black" /></g></g></g><g><g><g><path d="M -39.27 -131.8 C -39.27 -131.324 -39.494 -130.358 -40.04 -129.812 C -40.404 -129.448 -41.146 -129 -42.406 -129 L -43.974 -129 L -43.064 -132.654 C -42.98 -132.99 -42.938 -133.13 -42.672 -133.172 C -42.546 -133.186 -42.098 -133.186 -41.818 -133.186 C -40.824 -133.186 -39.27 -133.186 -39.27 -131.8 Z M -37.744 -125.36 C -37.744 -125.528 -37.912 -125.528 -37.912 -125.528 C -38.038 -125.528 -38.066 -125.43 -38.094 -125.332 C -38.444 -124.296 -39.046 -124.058 -39.368 -124.058 C -39.83 -124.058 -39.928 -124.366 -39.928 -124.912 C -39.928 -125.346 -39.844 -126.06 -39.788 -126.508 C -39.76 -126.704 -39.732 -126.97 -39.732 -127.166 C -39.732 -128.244 -40.67 -128.678 -41.048 -128.818 C -39.634 -129.126 -37.968 -130.106 -37.968 -131.52 C -37.968 -132.724 -39.228 -133.62 -41.062 -133.62 L -45.052 -133.62 C -45.332 -133.62 -45.458 -133.62 -45.458 -133.34 C -45.458 -133.186 -45.332 -133.186 -45.066 -133.186 C -45.066 -133.186 -44.772 -133.186 -44.534 -133.158 C -44.282 -133.13 -44.156 -133.116 -44.156 -132.934 C -44.156 -132.878 -44.17 -132.836 -44.212 -132.668 L -46.088 -125.15 C -46.228 -124.604 -46.256 -124.492 -47.362 -124.492 C -47.614 -124.492 -47.74 -124.492 -47.74 -124.212 C -47.74 -124.058 -47.544 -124.058 -47.544 -124.058 C -47.544 -124.058 -45.78 -124.1 -45.78 -124.1 C -45.78 -124.1 -44.002 -124.1 -44.002 -124.1 C -43.89 -124.1 -43.722 -124.1 -43.722 -124.38 C -43.722 -124.534 -43.848 -124.534 -44.114 -124.534 C -44.632 -124.534 -45.024 -124.534 -45.024 -124.786 C -45.024 -124.87 -44.996 -124.94 -44.982 -125.024 L -44.058 -128.734 L -42.392 -128.734 C -41.118 -128.734 -40.866 -127.95 -40.866 -127.46 C -40.866 -127.25 -40.978 -126.816 -41.062 -126.494 C -41.16 -126.102 -41.286 -125.584 -41.286 -125.304 C -41.286 -123.792 -39.606 -123.792 -39.424 -123.792 C -38.234 -123.792 -37.744 -125.206 -37.744 -125.402 Z " fill="black" /><path d="M -32.739 -122.384 L -33.072 -122.384 C -33.102 -122.168 -33.2 -121.59 -33.327 -121.492 C -33.405 -121.433 -34.16 -121.433 -34.297 -121.433 L -36.1 -121.433 C -35.072 -122.344 -34.728 -122.619 -34.141 -123.079 C -33.415 -123.658 -32.739 -124.265 -32.739 -125.196 C -32.739 -126.382 -33.778 -127.107 -35.032 -127.107 C -36.248 -127.107 -37.071 -126.255 -37.071 -125.353 C -37.071 -124.853 -36.649 -124.804 -36.551 -124.804 C -36.316 -124.804 -36.032 -124.971 -36.032 -125.324 C -36.032 -125.5 -36.1 -125.843 -36.61 -125.843 C -36.306 -126.539 -35.64 -126.754 -35.179 -126.754 C -34.199 -126.754 -33.69 -125.99 -33.69 -125.196 C -33.69 -124.344 -34.297 -123.667 -34.611 -123.315 L -36.973 -120.982 C -37.071 -120.894 -37.071 -120.874 -37.071 -120.6 L -33.033 -120.6 Z " fill="black" /></g></g></g><g><g><g><path d="M 21.644 -31.69 C 21.644 -31.214 21.42 -30.248 20.874 -29.702 C 20.51 -29.338 19.768 -28.89 18.508 -28.89 L 16.94 -28.89 L 17.85 -32.544 C 17.934 -32.88 17.976 -33.02 18.242 -33.062 C 18.368 -33.076 18.816 -33.076 19.096 -33.076 C 20.09 -33.076 21.644 -33.076 21.644 -31.69 Z M 23.17 -25.25 C 23.17 -25.418 23.002 -25.418 23.002 -25.418 C 22.876 -25.418 22.848 -25.32 22.82 -25.222 C 22.47 -24.186 21.868 -23.948 21.546 -23.948 C 21.084 -23.948 20.986 -24.256 20.986 -24.802 C 20.986 -25.236 21.07 -25.95 21.126 -26.398 C 21.154 -26.594 21.182 -26.86 21.182 -27.056 C 21.182 -28.134 20.244 -28.568 19.866 -28.708 C 21.28 -29.016 22.946 -29.996 22.946 -31.41 C 22.946 -32.614 21.686 -33.51 19.852 -33.51 L 15.862 -33.51 C 15.582 -33.51 15.456 -33.51 15.456 -33.23 C 15.456 -33.076 15.582 -33.076 15.848 -33.076 C 15.848 -33.076 16.142 -33.076 16.38 -33.048 C 16.632 -33.02 16.758 -33.006 16.758 -32.824 C 16.758 -32.768 16.744 -32.726 16.702 -32.558 L 14.826 -25.04 C 14.686 -24.494 14.658 -24.382 13.552 -24.382 C 13.3 -24.382 13.174 -24.382 13.174 -24.102 C 13.174 -23.948 13.37 -23.948 13.37 -23.948 C 13.37 -23.948 15.134 -23.99 15.134 -23.99 C 15.134 -23.99 16.912 -23.99 16.912 -23.99 C 17.024 -23.99 17.192 -23.99 17.192 -24.27 C 17.192 -24.424 17.066 -24.424 16.8 -24.424 C 16.282 -24.424 15.89 -24.424 15.89 -24.676 C 15.89 -24.76 15.918 -24.83 15.932 -24.914 L 16.856 -28.624 L 18.522 -28.624 C 19.796 -28.624 20.048 -27.84 20.048 -27.35 C 20.048 -27.14 19.936 -26.706 19.852 -26.384 C 19.754 -25.992 19.628 -25.474 19.628 -25.194 C 19.628 -23.682 21.308 -23.682 21.49 -23.682 C 22.68 -23.682 23.17 -25.096 23.17 -25.292 Z " fill="black" /><path d="M 28.41 -22.097 L 28.41 -22.45 L 27.322 -22.45 L 27.322 -26.821 C 27.322 -27.027 27.322 -27.095 27.107 -27.095 C 26.989 -27.095 26.95 -27.095 26.852 -26.958 L 23.608 -22.45 L 23.608 -22.097 L 26.489 -22.097 L 26.489 -21.294 C 26.489 -20.96 26.489 -20.843 25.696 -20.843 L 25.431 -20.843 L 25.431 -20.49 C 25.431 -20.49 26.901 -20.529 26.901 -20.529 C 26.901 -20.529 28.381 -20.529 28.381 -20.529 L 28.381 -20.882 L 28.116 -20.882 C 27.322 -20.882 27.322 -21 27.322 -21.333 L 27.322 -22.136 Z M 26.558 -22.489 L 23.971 -22.489 L 26.558 -26.076 Z " fill="black" /></g></g></g></svg>