<svg xmlns="http://www.w3.org/2000/svg" xml:lang="en" height="85.20000000000002pt" width="84.79999999999998pt" viewBox="-4.600000000000008 -71.60000000000001 84.79999999999998 85.20000000000002"><path d="M 0.0,-0.0 L 19.799999999999994,-0.0 L 19.799999999999994,-9.0 L 55.8,-9.0 L 55.8,9.0 L 19.799999999999994,9.0 L 19.799999999999994,-0.0 M 55.8,-0.0 L 75.6,-0.0" style="stroke:black;fill:none;stroke-width:2.0;stroke-linecap:round;stroke-linejoin:round;" /><path d="M 75.6,-0.0 L 75.6,-21.6 L 75.6,-43.2" style="stroke:black;fill:none;stroke-width:2.0;stroke-linecap:round;stroke-linejoin:round;" /><path d="M 75.6,-43.2 L 55.8,-43.2 L 55.8,-34.2 L 19.799999999999994,-34.20000000000002 L 19.799999999999994,-52.20000000000002 L 55.8,-52.2 L 55.8,-43.2 M 19.799999999999994,-43.20000000000002 L 0.0,-43.20000000000002" style="stroke:black;fill:none;stroke-width:2.0;stroke-linecap:round;stroke-linejoin:round;" /><path d="M 0.0,-43.20000000000002 L -3.967855629237425e-15,-21.600000000000012 L -7.93571125847485e-15,-7.993605777301127e-15" style="stroke:black;fill:none;stroke-width:2.0;stroke-linecap:round;stroke-linejoin:round;" /><g><g><g><path d="M 39.03 -23.8 C 39.03 -23.324 38.806 -22.358 38.26 -21.812 C 37.896 -21.448 37.154 -21 35.894 -21 L 34.326 -21 L 35.236 -24.654 C 35.32 -24.99 35.362 -25.13 35.628 -25.172 C 35.754 -25.186 36.202 -25.186 36.482 -25.186 C 37.476 -25.186 39.03 -25.186 39.03 -23.8 Z M 40.556 -17.36 C 40.556 -17.528 40.388 -17.528 40.388 -17.528 C 40.262 -17.528 40.234 -17.43 40.206 -17.332 C 39.856 -16.296 39.254 -16.058 38.932 -16.058 C 38.47 -16.058 38.372 -16.366 38.372 -16.912 C 38.372 -17.346 38.456 -18.06 38.512 -18.508 C 38.54 -18.704 38.568 -18.97 38.568 -19.166 C 38.568 -20.244 37.63 -20.678 37.252 -20.818 C 38.666 -21.126 40.332 -22.106 40.332 -23.52 C 40.332 -24.724 39.072 -25.62 37.238 -25.62 L 33.248 -25.62 C 32.968 -25.62 32.842 -25.62 32.842 -25.34 C 32.842 -25.186 32.968 -25.186 33.234 -25.186 C 33.234 -25.186 33.528 -25.186 33.766 -25.158 C 34.018 -25.13 34.144 -25.116 34.144 -24.934 C 34.144 -24.878 34.13 -24.836 34.088 -24.668 L 32.212 -17.15 C 32.072 -16.604 32.044 -16.492 30.938 -16.492 C 30.686 -16.492 30.56 -16.492 30.56 -16.212 C 30.56 -16.058 30.756 -16.058 30.756 -16.058 C 30.756 -16.058 32.52 -16.1 32.52 -16.1 C 32.52 -16.1 34.298 -16.1 34.298 -16.1 C 34.41 -16.1 34.578 -16.1 34.578 -16.38 C 34.578 -16.534 34.452 -16.534 34.186 -16.534 C 33.668 -16.534 33.276 -16.534 33.276 -16.786 C 33.276 -16.87 33.304 -16.94 33.318 -17.024 L 34.242 -20.734 L 35.908 -20.734 C 37.182 -20.734 37.434 -19.95 37.434 -19.46 C 37.434 -19.25 37.322 -18.816 37.238 -18.494 C 37.14 -18.102 37.014 -17.584 37.014 -17.304 C 37.014 -15.792 38.694 -15.792 38.876 -15.792 C 40.066 -15.792 40.556 -17.206 40.556 -17.402 Z " fill="black" /><path d="M 45.561 -14.384 L 45.228 -14.384 C 45.198 -14.168 45.1 -13.59 44.973 -13.492 C 44.895 -13.433 44.14 -13.433 44.003 -13.433 L 42.2 -13.433 C 43.228 -14.344 43.572 -14.619 44.159 -15.079 C 44.885 -15.658 45.561 -16.265 45.561 -17.196 C 45.561 -18.382 44.522 -19.107 43.268 -19.107 C 42.052 -19.107 41.229 -18.255 41.229 -17.353 C 41.229 -16.853 41.651 -16.804 41.749 -16.804 C 41.984 -16.804 42.268 -16.971 42.268 -17.324 C 42.268 -17.5 42.2 -17.843 41.69 -17.843 C 41.994 -18.539 42.66 -18.754 43.121 -18.754 C 44.101 -18.754 44.61 -17.99 44.61 -17.196 C 44.61 -16.344 44.003 -15.667 43.689 -15.315 L 41.327 -12.982 C 41.229 -12.894 41.229 -12.874 41.229 -12.6 L 45.267 -12.6 Z " fill="black" /></g></g></g><g><g><g><path d="M 39.03 -67 C 39.03 -66.524 38.806 -65.558 38.26 -65.012 C 37.896 -64.648 37.154 -64.2 35.894 -64.2 L 34.326 -64.2 L 35.236 -67.854 C 35.32 -68.19 35.362 -68.33 35.628 -68.372 C 35.754 -68.386 36.202 -68.386 36.482 -68.386 C 37.476 -68.386 39.03 -68.386 39.03 -67 Z M 40.556 -60.56 C 40.556 -60.728 40.388 -60.728 40.388 -60.728 C 40.262 -60.728 40.234 -60.63 40.206 -60.532 C 39.856 -59.496 39.254 -59.258 38.932 -59.258 C 38.47 -59.258 38.372 -59.566 38.372 -60.112 C 38.372 -60.546 38.456 -61.26 38.512 -61.708 C 38.54 -61.904 38.568 -62.17 38.568 -62.366 C 38.568 -63.444 37.63 -63.878 37.252 -64.018 C 38.666 -64.326 40.332 -65.306 40.332 -66.72 C 40.332 -67.924 39.072 -68.82 37.238 -68.82 L 33.248 -68.82 C 32.968 -68.82 32.842 -68.82 32.842 -68.54 C 32.842 -68.386 32.968 -68.386 33.234 -68.386 C 33.234 -68.386 33.528 -68.386 33.766 -68.358 C 34.018 -68.33 34.144 -68.316 34.144 -68.134 C 34.144 -68.078 34.13 -68.036 34.088 -67.868 L 32.212 -60.35 C 32.072 -59.804 32.044 -59.692 30.938 -59.692 C 30.686 -59.692 30.56 -59.692 30.56 -59.412 C 30.56 -59.258 30.756 -59.258 30.756 -59.258 C 30.756 -59.258 32.52 -59.3 32.52 -59.3 C 32.52 -59.3 34.298 -59.3 34.298 -59.3 C 34.41 -59.3 34.578 -59.3 34.578 -59.58 C 34.578 -59.734 34.452 -59.734 34.186 -59.734 C 33.668 -59.734 33.276 -59.734 33.276 -59.986 C 33.276 -60.07 33.304 -60.14 33.318 -60.224 L 34.242 -63.934 L 35.908 -63.934 C 37.182 -63.934 37.434 -63.15 37.434 -62.66 C 37.434 -62.45 37.322 -62.016 37.238 -61.694 C 37.14 -61.302 37.014 -60.784 37.014 -60.504 C 37.014 -58.992 38.694 -58.992 38.876 -58.992 C 40.066 -58.992 40.556 -60.406 40.556 -60.602 Z " fill="black" /><path d="M 45.247 -55.8 L 45.247 -56.153 L 44.875 -56.153 C 43.895 -56.153 43.895 -56.28 43.895 -56.604 L 43.895 -62.033 C 43.895 -62.297 43.875 -62.307 43.601 -62.307 C 42.974 -61.69 42.082 -61.68 41.68 -61.68 L 41.68 -61.327 C 41.915 -61.327 42.562 -61.327 43.101 -61.602 L 43.101 -56.604 C 43.101 -56.28 43.101 -56.153 42.121 -56.153 L 41.749 -56.153 L 41.749 -55.8 C 41.749 -55.8 43.493 -55.839 43.493 -55.839 C 43.493 -55.839 45.247 -55.839 45.247 -55.839 Z " fill="black" /></g></g></g></svg>