<svg xmlns="http://www.w3.org/2000/svg" xml:lang="en" height="41.99999999999999pt" width="160.4pt" viewBox="-4.6 -28.4 160.4 41.99999999999999"><path d="M 0.0,-0.0 L 19.799999999999994,-0.0 L 19.799999999999994,-9.0 L 55.8,-9.0 L 55.8,9.0 L 19.799999999999994,9.0 L 19.799999999999994,-0.0 M 55.8,-0.0 L 75.6,-0.0" style="stroke:black;fill:none;stroke-width:2.0;stroke-linecap:round;stroke-linejoin:round;" /><path d="M 75.6,-0.0 L 95.39999999999998,-0.0 L 95.39999999999998,-9.0 L 131.39999999999998,-9.0 L 131.39999999999998,9.0 L 95.39999999999998,9.0 L 95.39999999999998,-0.0 M 131.39999999999998,-0.0 L 151.2,-0.0" style="stroke:black;fill:none;stroke-width:2.0;stroke-linecap:round;stroke-linejoin:round;" /><g><g><g><path d="M 39.03 -23.8 C 39.03 -23.324 38.806 -22.358 38.26 -21.812 C 37.896 -21.448 37.154 -21 35.894 -21 L 34.326 -21 L 35.236 -24.654 C 35.32 -24.99 35.362 -25.13 35.628 -25.172 C 35.754 -25.186 36.202 -25.186 36.482 -25.186 C 37.476 -25.186 39.03 -25.186 39.03 -23.8 Z M 40.556 -17.36 C 40.556 -17.528 40.388 -17.528 40.388 -17.528 C 40.262 -17.528 40.234 -17.43 40.206 -17.332 C 39.856 -16.296 39.254 -16.058 38.932 -16.058 C 38.47 -16.058 38.372 -16.366 38.372 -16.912 C 38.372 -17.346 38.456 -18.06 38.512 -18.508 C 38.54 -18.704 38.568 -18.97 38.568 -19.166 C 38.568 -20.244 37.63 -20.678 37.252 -20.818 C 38.666 -21.126 40.332 -22.106 40.332 -23.52 C 40.332 -24.724 39.072 -25.62 37.238 -25.62 L 33.248 -25.62 C 32.968 -25.62 32.842 -25.62 32.842 -25.34 C 32.842 -25.186 32.968 -25.186 33.234 -25.186 C 33.234 -25.186 33.528 -25.186 33.766 -25.158 C 34.018 -25.13 34.144 -25.116 34.144 -24.934 C 34.144 -24.878 34.13 -24.836 34.088 -24.668 L 32.212 -17.15 C 32.072 -16.604 32.044 -16.492 30.938 -16.492 C 30.686 -16.492 30.56 -16.492 30.56 -16.212 C 30.56 -16.058 30.756 -16.058 30.756 -16.058 C 30.756 -16.058 32.52 -16.1 32.52 -16.1 C 32.52 -16.1 34.298 -16.1 34.298 -16.1 C 34.41 -16.1 34.578 -16.1 34.578 -16.38 C 34.578 -16.534 34.452 -16.534 34.186 -16.534 C 33.668 -16.534 33.276 -16.534 33.276 -16.786 C 33.276 -16.87 33.304 -16.94 33.318 -17.024 L 34.242 -20.734 L 35.908 -20.734 C 37.182 -20.734 37.434 -19.95 37.434 -19.46 C 37.434 -19.25 37.322 -18.816 37.238 -18.494 C 37.14 -18.102 37.014 -17.584 37.014 -17.304 C 37.014 -15.792 38.694 -15.792 38.876 -15.792 C 40.066 -15.792 40.556 -17.206 40.556 -17.402 Z " fill="black" /><path d="M 45.247 -12.6 L 45.247 -12.953 L 44.875 -12.953 C 43.895 -12.953 43.895 -13.08 43.895 -13.404 L 43.895 -18.833 C 43.895 -19.097 43.875 -19.107 43.601 -19.107 C 42.974 -18.49 42.082 -18.48 41.68 -18.48 L 41.68 -18.127 C 41.915 -18.127 42.562 -18.127 43.101 -18.402 L 43.101 -13.404 C 43.101 -13.08 43.101 -12.953 42.121 -12.953 L 41.749 -12.953 L 41.749 -12.6 C 41.749 -12.6 43.493 -12.639 43.493 -12.639 C 43.493 -12.639 45.247 -12.639 45.247 -12.639 Z " fill="black" /></g></g></g><g><g><g><path d="M 114.63 -23.8 C 114.63 -23.324 114.406 -22.358 113.86 -21.812 C 113.496 -21.448 112.754 -21 111.494 -21 L 109.926 -21 L 110.836 -24.654 C 110.92 -24.99 110.962 -25.13 111.228 -25.172 C 111.354 -25.186 111.802 -25.186 112.082 -25.186 C 113.076 -25.186 114.63 -25.186 114.63 -23.8 Z M 116.156 -17.36 C 116.156 -17.528 115.988 -17.528 115.988 -17.528 C 115.862 -17.528 115.834 -17.43 115.806 -17.332 C 115.456 -16.296 114.854 -16.058 114.532 -16.058 C 114.07 -16.058 113.972 -16.366 113.972 -16.912 C 113.972 -17.346 114.056 -18.06 114.112 -18.508 C 114.14 -18.704 114.168 -18.97 114.168 -19.166 C 114.168 -20.244 113.23 -20.678 112.852 -20.818 C 114.266 -21.126 115.932 -22.106 115.932 -23.52 C 115.932 -24.724 114.672 -25.62 112.838 -25.62 L 108.848 -25.62 C 108.568 -25.62 108.442 -25.62 108.442 -25.34 C 108.442 -25.186 108.568 -25.186 108.834 -25.186 C 108.834 -25.186 109.128 -25.186 109.366 -25.158 C 109.618 -25.13 109.744 -25.116 109.744 -24.934 C 109.744 -24.878 109.73 -24.836 109.688 -24.668 L 107.812 -17.15 C 107.672 -16.604 107.644 -16.492 106.538 -16.492 C 106.286 -16.492 106.16 -16.492 106.16 -16.212 C 106.16 -16.058 106.356 -16.058 106.356 -16.058 C 106.356 -16.058 108.12 -16.1 108.12 -16.1 C 108.12 -16.1 109.898 -16.1 109.898 -16.1 C 110.01 -16.1 110.178 -16.1 110.178 -16.38 C 110.178 -16.534 110.052 -16.534 109.786 -16.534 C 109.268 -16.534 108.876 -16.534 108.876 -16.786 C 108.876 -16.87 108.904 -16.94 108.918 -17.024 L 109.842 -20.734 L 111.508 -20.734 C 112.782 -20.734 113.034 -19.95 113.034 -19.46 C 113.034 -19.25 112.922 -18.816 112.838 -18.494 C 112.74 -18.102 112.614 -17.584 112.614 -17.304 C 112.614 -15.792 114.294 -15.792 114.476 -15.792 C 115.666 -15.792 116.156 -17.206 116.156 -17.402 Z " fill="black" /><path d="M 121.161 -14.384 L 120.828 -14.384 C 120.798 -14.168 120.7 -13.59 120.573 -13.492 C 120.494 -13.433 119.74 -13.433 119.603 -13.433 L 117.799 -13.433 C 118.828 -14.344 119.171 -14.619 119.759 -15.079 C 120.485 -15.658 121.161 -16.265 121.161 -17.196 C 121.161 -18.382 120.122 -19.107 118.868 -19.107 C 117.652 -19.107 116.829 -18.255 116.829 -17.353 C 116.829 -16.853 117.251 -16.804 117.349 -16.804 C 117.584 -16.804 117.868 -16.971 117.868 -17.324 C 117.868 -17.5 117.799 -17.843 117.29 -17.843 C 117.594 -18.539 118.26 -18.754 118.721 -18.754 C 119.701 -18.754 120.21 -17.99 120.21 -17.196 C 120.21 -16.344 119.603 -15.667 119.289 -15.315 L 116.927 -12.982 C 116.829 -12.894 116.829 -12.874 116.829 -12.6 L 120.867 -12.6 Z " fill="black" /></g></g></g></svg>