<?xml version="1.0" encoding="UTF-8" standalone="no"?>
<svg
   xml:lang="en"
   height="144.95694pt"
   width="270.21588pt"
   viewBox="-225.304 -82.4 270.21588 144.95695"
   version="1.1"
   id="svg23"
   sodipodi:docname="ström.svg"
   inkscape:version="1.4 (unknown)"
   xmlns:inkscape="http://www.inkscape.org/namespaces/inkscape"
   xmlns:sodipodi="http://sodipodi.sourceforge.net/DTD/sodipodi-0.dtd"
   xmlns="http://www.w3.org/2000/svg"
   xmlns:svg="http://www.w3.org/2000/svg"
   xmlns:ns5="http://www.iki.fi/pav/software/textext/">
  <sodipodi:namedview
     id="namedview23"
     pagecolor="#ffffff"
     bordercolor="#000000"
     borderopacity="0.25"
     inkscape:showpageshadow="2"
     inkscape:pageopacity="0.0"
     inkscape:pagecheckerboard="0"
     inkscape:deskcolor="#d1d1d1"
     inkscape:document-units="pt"
     inkscape:zoom="1.4849238"
     inkscape:cx="76.4349"
     inkscape:cy="165.66507"
     inkscape:window-width="2560"
     inkscape:window-height="1403"
     inkscape:window-x="0"
     inkscape:window-y="0"
     inkscape:window-maximized="1"
     inkscape:current-layer="svg23" />
  <defs
     id="defs23" />
  <path
     d="M 17.185983,14.168259 H -87.43902 m -6.75,0 h -104.625"
     style="fill:none;stroke:#000000;stroke-width:2;stroke-linecap:round;stroke-linejoin:round"
     id="path1" />
  <path
     d="M -87.43902,27.668259 V 0.66825849"
     style="fill:none;stroke:#000000;stroke-width:2;stroke-linecap:round;stroke-linejoin:round"
     id="path2" />
  <path
     d="M -94.18902,20.918259 V 7.4182587"
     style="fill:none;stroke:#000000;stroke-width:2;stroke-linecap:round;stroke-linejoin:round"
     id="path3" />
  <path
     d="m -198.81402,14.168259 v -27 -27"
     style="fill:none;stroke:#000000;stroke-width:2;stroke-linecap:round;stroke-linejoin:round"
     id="path4" />
  <path
     d="m -198.81402,-39.831741 h 90 v -9 h 36.000004 v 18 h -36.000004 v -9 m 36.000004,0 h 89.999999"
     style="fill:none;stroke:#000000;stroke-width:2;stroke-linecap:round;stroke-linejoin:round"
     id="path5" />
  <path
     d="m 17.185983,-39.831741 v 27 27"
     style="fill:none;stroke:#000000;stroke-width:2;stroke-linecap:round;stroke-linejoin:round"
     id="path6" />
  <circle
     cx="-198.81403"
     cy="-39.831741"
     r="2.7"
     style="fill:#000000;stroke:#000000;stroke-width:2"
     id="circle17" />
  <circle
     cx="17.185984"
     cy="-39.831741"
     r="2.7"
     style="fill:#000000;stroke:#000000;stroke-width:2"
     id="circle20" />
  <g
     ns5:version="1.11.0"
     ns5:texconverter="typst"
     ns5:pdfconverter="inkscape"
     ns5:text="$R = 520 ohm$"
     ns5:preamble="/home/sermuns/.config/inkscape/extensions/textext/default_preamble_typst.typ"
     ns5:scale="1.919335896030805"
     ns5:alignment="middle center"
     transform="matrix(1.91933,0,0,1.91933,-272.3061,-203.80882)"
     ns5:jacobian_sqrt="1.91933"
     style="stroke-width:0"
     id="g69">
    <g
       style="stroke-width:0"
       id="g64">
      <g
         transform="translate(70.8661,70.8661)"
         style="stroke-width:0"
         id="g63">
        <g
           class="typst-group"
           style="stroke-width:0"
           id="g62">
          <g
             style="stroke-width:0"
             id="g61">
            <g
               transform="translate(0,7.513)"
               style="stroke-width:0"
               id="g45">
              <g
                 class="typst-text"
                 transform="scale(1,-1)"
                 style="stroke-width:0"
                 id="g44">
                <g
                   style="stroke-width:0"
                   id="g43">
                  <path
                     d="m 8.129,5.841 c 0,0.561 -0.286,0.99 -0.847,1.298 C 6.831,7.392 6.292,7.513 5.687,7.513 H 2.585 C 2.332,7.513 2.222,7.502 2.222,7.249 2.222,7.172 2.255,7.117 2.321,7.106 2.431,7.095 2.519,7.084 2.574,7.084 2.904,7.073 3.091,7.051 3.146,7.04 3.201,7.029 3.234,6.996 3.234,6.941 3.234,6.919 3.223,6.853 3.19,6.743 L 1.738,0.902 C 1.683,0.65999997 1.573,0.506 1.408,0.451 1.331,0.429 1.133,0.418 0.792,0.418 0.55,0.418 0.451,0.407 0.451,0.16500001 0.451,0.044 0.517,-0.011 0.649,0 L 2.013,0.033 3.399,0 c 0.176,-0.011 0.2639999,0.088 0.2639999,0.253 0,0.11 -0.1209999,0.16499998 -0.352,0.16499998 C 2.871,0.41799998 2.651,0.473 2.651,0.572 c 0,0 0.011,0.022 0.033,0.176 L 3.388,3.597 H 4.653 C 5.412,3.597 5.797,3.2779999 5.797,2.651 5.797,2.552 5.742,2.31 5.643,1.914 5.522,1.452 5.467,1.144 5.467,0.979 c 0,-0.836 0.649,-1.221 1.485,-1.221 0.3079998,0 0.605,0.143 0.902,0.418 0.297,0.275 0.451,0.572 0.451,0.88 0,0.11 -0.055,0.165 -0.176,0.165 C 8.052,1.221 7.986,1.166 7.953,1.045 7.832,0.704 7.678,0.451 7.502,0.308 7.3259997,0.16499999 7.161,0.088 6.996,0.088 c -0.253,0 -0.385,0.209 -0.385,0.616 0,0.264 0.033,0.671 0.11,1.232 0.033,0.231 0.044,0.396 0.044,0.517 0,0.583 -0.308,1.012 -0.924,1.276 1.034,0.2529999 2.288,0.99 2.288,2.112 z M 6.699,6.776 C 6.919,6.633 7.029,6.391 7.029,6.05 7.029,5.83 6.985,5.577 6.886,5.2799997 6.5889997,4.378 5.841,3.927 4.642,3.927 H 3.476 L 4.169,6.71 c 0.055,0.231 0.143,0.352 0.264,0.363 0.055,0.011 0.275,0.011 0.66,0.011 0.715,0 1.133,-0.022 1.606,-0.308 z"
                     style="stroke-width:0"
                     id="path43" />
                </g>
              </g>
            </g>
            <g
               transform="translate(11.6686,7.513)"
               style="stroke-width:0"
               id="g48">
              <g
                 class="typst-text"
                 transform="scale(1,-1)"
                 style="stroke-width:0"
                 id="g47">
                <g
                   style="stroke-width:0"
                   id="g46">
                  <path
                     d="M 7.678,4.037 H 0.88 C 0.704,4.037 0.616,3.949 0.616,3.784 0.616,3.619 0.704,3.531 0.88,3.531 h 6.798 c 0.176,0 0.264,0.088 0.264,0.253 0,0.132 -0.121,0.253 -0.264,0.253 z m 0,-2.068 H 0.88 C 0.704,1.969 0.616,1.881 0.616,1.716 0.616,1.551 0.704,1.4629999 0.88,1.4629999 h 6.798 c 0.176,0 0.264,0.088 0.264,0.2530001 0,0.143 -0.121,0.253 -0.264,0.253 z"
                     style="stroke-width:0"
                     id="path45" />
                </g>
              </g>
            </g>
            <g
               transform="translate(23.2821,7.513)"
               style="stroke-width:0"
               id="g51">
              <g
                 class="typst-text"
                 transform="scale(1,-1)"
                 style="stroke-width:0"
                 id="g50">
                <g
                   style="stroke-width:0"
                   id="g49">
                  <path
                     d="m 1.298,3.465 c 0.055,0 0.121,0.044 0.176,0.121 0.33,0.495 0.7809999,0.737 1.353,0.737 0.385,0 0.682,-0.22 0.88,-0.671 C 3.828,3.355 3.894,2.904 3.894,2.299 3.894,1.606 3.806,1.122 3.641,0.83599997 3.366,0.385 2.992,0.154 2.519,0.154 c -0.737,0 -1.32,0.528 -1.518,1.1 0.033,-0.011 0.055,0 0.099,0 0.33,0 0.605,0.253 0.605,0.583 0,0.341 -0.275,0.572 -0.605,0.572 -0.385,0 -0.55,-0.209 -0.55,-0.616 0,-1.1 0.891,-2.035 1.991,-2.035 0.671,0 1.243,0.242 1.705,0.726 C 4.708,0.968 4.939,1.551 4.939,2.222 4.939,2.86 4.752,3.41 4.378,3.883 3.971,4.4 3.465,4.653 2.849,4.653 2.332,4.653 1.881,4.488 1.518,4.158 v 1.958 c 0.2969999,-0.088 0.583,-0.132 0.88,-0.132 0.506,0 0.9459999,0.121 1.32,0.374 0.341,0.209 0.572,0.418 0.704,0.616 0.066,0.088 0.099,0.154 0.099,0.187 0,0.11 -0.055,0.1649997 -0.165,0.1649997 C 3.751,7.095 3.234,6.974 2.816,6.974 2.321,6.974 1.848,7.073 1.397,7.282 1.342,7.304 1.298,7.315 1.254,7.315 1.155,7.315 1.1,7.216 1.1,7.007 V 3.795 c 0,-0.231 0,-0.33 0.198,-0.33 z"
                     style="stroke-width:0"
                     id="path48" />
                </g>
              </g>
            </g>
            <g
               transform="translate(28.7821,7.513)"
               style="stroke-width:0"
               id="g54">
              <g
                 class="typst-text"
                 transform="scale(1,-1)"
                 style="stroke-width:0"
                 id="g53">
                <g
                   style="stroke-width:0"
                   id="g52">
                  <path
                     d="M 2.6069999,7.3259997 C 2.046,7.3259997 1.573,7.128 1.166,6.732 0.759,6.336 0.55,5.874 0.55,5.313 0.55,4.939 0.825,4.664 1.166,4.664 1.496,4.664 1.771,4.95 1.771,5.2799997 1.771,5.643 1.507,5.896 1.155,5.896 1.122,5.896 1.1,5.896 1.078,5.885 1.287,6.424 1.771,6.897 2.464,6.897 3.366,6.897 3.872,6.116 3.872,5.17 3.872,4.433 3.498,3.641 2.75,2.805 L 0.682,0.473 C 0.539,0.308 0.55,0.319 0.55,0 H 4.631 L 4.95,1.98 H 4.587 C 4.499,1.419 4.422,1.1 4.356,1.001 4.301,0.946 3.971,0.924 3.366,0.924 H 1.529 l 1.067,1.045 c 0.7479999,0.704 1.694,1.463 2.013,2.046 0.22,0.385 0.33,0.77 0.33,1.155 0,1.298 -1.012,2.1559997 -2.3320001,2.1559997 z"
                     style="stroke-width:0"
                     id="path51" />
                </g>
              </g>
            </g>
            <g
               transform="translate(34.2821,7.513)"
               style="stroke-width:0"
               id="g57">
              <g
                 class="typst-text"
                 transform="scale(1,-1)"
                 style="stroke-width:0"
                 id="g56">
                <g
                   style="stroke-width:0"
                   id="g55">
                  <path
                     d="M 2.739,-0.242 C 4.29,-0.242 5.06,1.012 5.06,3.52 5.06,5.203 4.708,6.325 4.015,6.875 3.6299999,7.172 3.201,7.3259997 2.75,7.3259997 1.199,7.3259997 0.429,6.061 0.429,3.52 c 0,-2.024 0.539,-3.762 2.31,-3.762 z M 3.971,5.764 C 4.048,5.379 4.081,4.675 4.081,3.652 4.081,2.6399999 4.037,1.892 3.96,1.408 3.817,0.528 3.41,0.088 2.739,0.088 2.486,0.088 2.233,0.187 2.002,0.374 1.705,0.627 1.529,1.144 1.452,1.936 1.419,2.211 1.408,2.783 1.408,3.652 c 0,0.957 0.033,1.6279997 0.088,1.991 0.099,0.605 0.297,0.99 0.605,1.155 0.242,0.132 0.451,0.198 0.638,0.198 0.715,0 1.111,-0.583 1.232,-1.232 z"
                     style="stroke-width:0"
                     id="path54" />
                </g>
              </g>
            </g>
            <g
               transform="translate(39.7821,7.513)"
               style="stroke-width:0"
               id="g60">
              <g
                 class="typst-text"
                 transform="scale(1,-1)"
                 style="stroke-width:0"
                 id="g59">
                <g
                   style="stroke-width:0"
                   id="g58">
                  <path
                     d="M 2.937,0.275 C 2.937,0.803 2.739,1.617 2.354,2.706 1.9909999,3.685 1.8149999,4.444 1.8149999,4.994 1.8149999,6.336 2.651,7.425 3.96,7.425 5.269,7.425 6.116,6.336 6.116,4.994 6.116,4.455 5.907,3.608 5.5,2.475 5.159,1.507 4.994,0.77 4.994,0.275 4.994,0.011 5.038,0 5.313,0 H 7.084 L 7.458,1.848 H 7.095 C 7.029,1.496 6.963,1.221 6.897,1.023 6.853,0.902 6.754,0.83599997 6.611,0.803 6.578,0.792 6.446,0.792 6.215,0.792 H 5.401 C 5.511,1.21 5.83,1.804 6.358,2.574 6.996,3.531 7.315,4.334 7.315,4.983 7.315,5.808 6.952,6.49 6.237,7.029 5.588,7.513 4.829,7.755 3.971,7.755 3.102,7.755 2.343,7.513 1.694,7.029 0.979,6.501 0.616,5.819 0.616,4.983 0.616,4.345 0.935,3.542 1.573,2.574 1.9909999,1.958 2.354,1.419 2.53,0.792 H 1.716 C 1.342,0.792 1.122,0.847 1.067,0.946 0.957,1.298 0.88,1.595 0.83599997,1.848 H 0.473 L 0.847,0 h 1.782 c 0.253,0 0.308,0.022 0.308,0.275 z"
                     style="stroke-width:0"
                     id="path57" />
                </g>
              </g>
            </g>
          </g>
        </g>
      </g>
    </g>
    <defs
       id="id-b8175770-3305-4d14-b8cb-171b1afdf257"
       style="stroke-width:0">
      <symbol
         id="id-288ff025-9c53-4df4-9c26-d1245e6060cc"
         overflow="visible"
         style="stroke-width:0">
        <path
           d="m 8.129,5.841 c 0,0.561 -0.286,0.99 -0.847,1.298 C 6.831,7.392 6.292,7.513 5.687,7.513 H 2.585 C 2.332,7.513 2.222,7.502 2.222,7.249 2.222,7.172 2.255,7.117 2.321,7.106 2.431,7.095 2.519,7.084 2.574,7.084 2.904,7.073 3.091,7.051 3.146,7.04 3.201,7.029 3.234,6.996 3.234,6.941 3.234,6.919 3.223,6.853 3.19,6.743 L 1.738,0.902 C 1.683,0.65999997 1.573,0.506 1.408,0.451 1.331,0.429 1.133,0.418 0.792,0.418 0.55,0.418 0.451,0.407 0.451,0.16500001 0.451,0.044 0.517,-0.011 0.649,0 L 2.013,0.033 3.399,0 c 0.176,-0.011 0.2639999,0.088 0.2639999,0.253 0,0.11 -0.1209999,0.16499998 -0.352,0.16499998 C 2.871,0.41799998 2.651,0.473 2.651,0.572 c 0,0 0.011,0.022 0.033,0.176 L 3.388,3.597 H 4.653 C 5.412,3.597 5.797,3.2779999 5.797,2.651 5.797,2.552 5.742,2.31 5.643,1.914 5.522,1.452 5.467,1.144 5.467,0.979 c 0,-0.836 0.649,-1.221 1.485,-1.221 0.3079998,0 0.605,0.143 0.902,0.418 0.297,0.275 0.451,0.572 0.451,0.88 0,0.11 -0.055,0.165 -0.176,0.165 C 8.052,1.221 7.986,1.166 7.953,1.045 7.832,0.704 7.678,0.451 7.502,0.308 7.3259997,0.16499999 7.161,0.088 6.996,0.088 c -0.253,0 -0.385,0.209 -0.385,0.616 0,0.264 0.033,0.671 0.11,1.232 0.033,0.231 0.044,0.396 0.044,0.517 0,0.583 -0.308,1.012 -0.924,1.276 1.034,0.2529999 2.288,0.99 2.288,2.112 z M 6.699,6.776 C 6.919,6.633 7.029,6.391 7.029,6.05 7.029,5.83 6.985,5.577 6.886,5.2799997 6.5889997,4.378 5.841,3.927 4.642,3.927 H 3.476 L 4.169,6.71 c 0.055,0.231 0.143,0.352 0.264,0.363 0.055,0.011 0.275,0.011 0.66,0.011 0.715,0 1.133,-0.022 1.606,-0.308 z"
           style="stroke-width:0"
           id="path64" />
      </symbol>
      <symbol
         id="id-ec0c5774-1acd-40d7-acbb-82cc7a354e69"
         overflow="visible"
         style="stroke-width:0">
        <path
           d="M 7.678,4.037 H 0.88 C 0.704,4.037 0.616,3.949 0.616,3.784 0.616,3.619 0.704,3.531 0.88,3.531 h 6.798 c 0.176,0 0.264,0.088 0.264,0.253 0,0.132 -0.121,0.253 -0.264,0.253 z m 0,-2.068 H 0.88 C 0.704,1.969 0.616,1.881 0.616,1.716 0.616,1.551 0.704,1.4629999 0.88,1.4629999 h 6.798 c 0.176,0 0.264,0.088 0.264,0.2530001 0,0.143 -0.121,0.253 -0.264,0.253 z"
           style="stroke-width:0"
           id="path65" />
      </symbol>
      <symbol
         id="id-aea06e83-659b-4266-9075-4083284a7a7a"
         overflow="visible"
         style="stroke-width:0">
        <path
           d="m 1.298,3.465 c 0.055,0 0.121,0.044 0.176,0.121 0.33,0.495 0.7809999,0.737 1.353,0.737 0.385,0 0.682,-0.22 0.88,-0.671 C 3.828,3.355 3.894,2.904 3.894,2.299 3.894,1.606 3.806,1.122 3.641,0.83599997 3.366,0.385 2.992,0.154 2.519,0.154 c -0.737,0 -1.32,0.528 -1.518,1.1 0.033,-0.011 0.055,0 0.099,0 0.33,0 0.605,0.253 0.605,0.583 0,0.341 -0.275,0.572 -0.605,0.572 -0.385,0 -0.55,-0.209 -0.55,-0.616 0,-1.1 0.891,-2.035 1.991,-2.035 0.671,0 1.243,0.242 1.705,0.726 C 4.708,0.968 4.939,1.551 4.939,2.222 4.939,2.86 4.752,3.41 4.378,3.883 3.971,4.4 3.465,4.653 2.849,4.653 2.332,4.653 1.881,4.488 1.518,4.158 v 1.958 c 0.2969999,-0.088 0.583,-0.132 0.88,-0.132 0.506,0 0.9459999,0.121 1.32,0.374 0.341,0.209 0.572,0.418 0.704,0.616 0.066,0.088 0.099,0.154 0.099,0.187 0,0.11 -0.055,0.1649997 -0.165,0.1649997 C 3.751,7.095 3.234,6.974 2.816,6.974 2.321,6.974 1.848,7.073 1.397,7.282 1.342,7.304 1.298,7.315 1.254,7.315 1.155,7.315 1.1,7.216 1.1,7.007 V 3.795 c 0,-0.231 0,-0.33 0.198,-0.33 z"
           style="stroke-width:0"
           id="path66" />
      </symbol>
      <symbol
         id="id-22bf2ee3-878d-4e4f-8e8e-42aa550a484f"
         overflow="visible"
         style="stroke-width:0">
        <path
           d="M 2.6069999,7.3259997 C 2.046,7.3259997 1.573,7.128 1.166,6.732 0.759,6.336 0.55,5.874 0.55,5.313 0.55,4.939 0.825,4.664 1.166,4.664 1.496,4.664 1.771,4.95 1.771,5.2799997 1.771,5.643 1.507,5.896 1.155,5.896 1.122,5.896 1.1,5.896 1.078,5.885 1.287,6.424 1.771,6.897 2.464,6.897 3.366,6.897 3.872,6.116 3.872,5.17 3.872,4.433 3.498,3.641 2.75,2.805 L 0.682,0.473 C 0.539,0.308 0.55,0.319 0.55,0 H 4.631 L 4.95,1.98 H 4.587 C 4.499,1.419 4.422,1.1 4.356,1.001 4.301,0.946 3.971,0.924 3.366,0.924 H 1.529 l 1.067,1.045 c 0.7479999,0.704 1.694,1.463 2.013,2.046 0.22,0.385 0.33,0.77 0.33,1.155 0,1.298 -1.012,2.1559997 -2.3320001,2.1559997 z"
           style="stroke-width:0"
           id="path67" />
      </symbol>
      <symbol
         id="id-a2651663-d8ca-495a-a573-1acd817c22b4"
         overflow="visible"
         style="stroke-width:0">
        <path
           d="M 2.739,-0.242 C 4.29,-0.242 5.06,1.012 5.06,3.52 5.06,5.203 4.708,6.325 4.015,6.875 3.6299999,7.172 3.201,7.3259997 2.75,7.3259997 1.199,7.3259997 0.429,6.061 0.429,3.52 c 0,-2.024 0.539,-3.762 2.31,-3.762 z M 3.971,5.764 C 4.048,5.379 4.081,4.675 4.081,3.652 4.081,2.6399999 4.037,1.892 3.96,1.408 3.817,0.528 3.41,0.088 2.739,0.088 2.486,0.088 2.233,0.187 2.002,0.374 1.705,0.627 1.529,1.144 1.452,1.936 1.419,2.211 1.408,2.783 1.408,3.652 c 0,0.957 0.033,1.6279997 0.088,1.991 0.099,0.605 0.297,0.99 0.605,1.155 0.242,0.132 0.451,0.198 0.638,0.198 0.715,0 1.111,-0.583 1.232,-1.232 z"
           style="stroke-width:0"
           id="path68" />
      </symbol>
      <symbol
         id="id-57aaf458-2fb2-4e02-ad65-ced0db64c697"
         overflow="visible"
         style="stroke-width:0">
        <path
           d="M 2.937,0.275 C 2.937,0.803 2.739,1.617 2.354,2.706 1.9909999,3.685 1.8149999,4.444 1.8149999,4.994 1.8149999,6.336 2.651,7.425 3.96,7.425 5.269,7.425 6.116,6.336 6.116,4.994 6.116,4.455 5.907,3.608 5.5,2.475 5.159,1.507 4.994,0.77 4.994,0.275 4.994,0.011 5.038,0 5.313,0 H 7.084 L 7.458,1.848 H 7.095 C 7.029,1.496 6.963,1.221 6.897,1.023 6.853,0.902 6.754,0.83599997 6.611,0.803 6.578,0.792 6.446,0.792 6.215,0.792 H 5.401 C 5.511,1.21 5.83,1.804 6.358,2.574 6.996,3.531 7.315,4.334 7.315,4.983 7.315,5.808 6.952,6.49 6.237,7.029 5.588,7.513 4.829,7.755 3.971,7.755 3.102,7.755 2.343,7.513 1.694,7.029 0.979,6.501 0.616,5.819 0.616,4.983 0.616,4.345 0.935,3.542 1.573,2.574 1.9909999,1.958 2.354,1.419 2.53,0.792 H 1.716 C 1.342,0.792 1.122,0.847 1.067,0.946 0.957,1.298 0.88,1.595 0.83599997,1.848 H 0.473 L 0.847,0 h 1.782 c 0.253,0 0.308,0.022 0.308,0.275 z"
           style="stroke-width:0"
           id="path69" />
      </symbol>
    </defs>
  </g>
  <g
     ns5:version="1.11.0"
     ns5:texconverter="typst"
     ns5:pdfconverter="inkscape"
     ns5:text="$ 8 &quot;V&quot; $"
     ns5:preamble="/home/sermuns/.config/inkscape/extensions/textext/default_preamble_typst.typ"
     ns5:scale="1.919335896030805"
     ns5:alignment="middle center"
     transform="matrix(1.91934,0,0,1.91934,-660.67488,-101.51065)"
     ns5:jacobian_sqrt="1.91934"
     id="g77">
    <g
       id="g76">
      <g
         transform="translate(290.504,78.3791)"
         id="g72">
        <g
           class="typst-text"
           transform="scale(1,-1)"
           id="g71">
          <g
             id="g70">
            <path
               d="M 2.75,7.3259997 C 2.211,7.3259997 1.738,7.15 1.342,6.798 0.946,6.446 0.748,6.006 0.748,5.467 0.748,5.016 0.913,4.609 1.243,4.246 1.3199999,4.158 1.562,3.971 1.969,3.685 0.968,3.168 0.462,2.497 0.462,1.683 0.462,1.1 0.704,0.627 1.177,0.264 c 0.44,-0.341 0.957,-0.506 1.562,-0.506 0.616,0 1.155,0.198 1.606,0.594 0.451,0.396 0.682,0.913 0.682,1.518 0,0.506 -0.176,0.957 -0.539,1.364 C 4.356,3.377 4.015,3.6299999 3.476,3.971 4.323,4.422 4.741,4.994 4.741,5.665 4.741,6.666 3.784,7.3259997 2.75,7.3259997 Z M 4.169,5.665 C 4.169,5.093 3.828,4.598 3.146,4.191 L 1.837,5.049 c -0.341,0.22 -0.5170001,0.506 -0.5170001,0.847 0,0.6599998 0.7150001,1.067 1.4190001,1.067 0.759,0 1.43,-0.539 1.43,-1.298 z M 2.75,0.154 c -0.902,0 -1.661,0.649 -1.661,1.529 0,0.737 0.407,1.331 1.221,1.782 L 3.608,2.6399999 C 4.136,2.299 4.4,1.914 4.4,1.474 4.4,0.682 3.575,0.154 2.75,0.154 Z"
               id="path70" />
          </g>
        </g>
      </g>
      <g
         transform="translate(296.004,78.3791)"
         id="g75">
        <g
           class="typst-text"
           transform="scale(1,-1)"
           id="g74">
          <g
             id="g73">
            <path
               d="M 7.381,7.48 C 7.172,7.48 6.512,7.513 6.303,7.513 6.138,7.513 6.05,7.425 6.05,7.2599998 6.05,7.15 6.127,7.095 6.27,7.084 6.578,7.073 6.732,6.963 6.732,6.776 6.732,6.677 6.677,6.545 6.578,6.38 L 3.3,1.177 2.574,6.809 c 0,0.187 0.231,0.275 0.7039999,0.275 C 3.498,7.084 3.597,7.161 3.597,7.348 3.597,7.458 3.531,7.513 3.399,7.513 3.157,7.513 2.299,7.48 2.057,7.48 1.837,7.48 1.089,7.513 0.869,7.513 0.704,7.513 0.616,7.425 0.616,7.2599998 0.616,7.139 0.726,7.084 0.935,7.084 1.122,7.084 1.254,7.062 1.342,7.04 1.518,6.985 1.507,6.963 1.54,6.754 l 0.858,-6.71 c 0.033,-0.187 0.121,-0.286 0.264,-0.286 0.143,0 0.253,0.077 0.341,0.22 L 6.919,6.204 C 7.172,6.6 7.414,6.853 7.656,6.952 7.821,7.029 8.03,7.073 8.272,7.084 8.393,7.095 8.448,7.172 8.459,7.337 8.47,7.458 8.404,7.513 8.272,7.513 8.107,7.513 7.546,7.48 7.381,7.48 Z"
               id="path72" />
          </g>
        </g>
      </g>
    </g>
    <defs
       id="id-b69d436a-3524-412e-a9d6-45cc7739c795">
      <symbol
         id="id-ab87b31c-82d3-4241-9531-e5e4de1934f6"
         overflow="visible">
        <path
           d="M 2.75,7.3259997 C 2.211,7.3259997 1.738,7.15 1.342,6.798 0.946,6.446 0.748,6.006 0.748,5.467 0.748,5.016 0.913,4.609 1.243,4.246 1.3199999,4.158 1.562,3.971 1.969,3.685 0.968,3.168 0.462,2.497 0.462,1.683 0.462,1.1 0.704,0.627 1.177,0.264 c 0.44,-0.341 0.957,-0.506 1.562,-0.506 0.616,0 1.155,0.198 1.606,0.594 0.451,0.396 0.682,0.913 0.682,1.518 0,0.506 -0.176,0.957 -0.539,1.364 C 4.356,3.377 4.015,3.6299999 3.476,3.971 4.323,4.422 4.741,4.994 4.741,5.665 4.741,6.666 3.784,7.3259997 2.75,7.3259997 Z M 4.169,5.665 C 4.169,5.093 3.828,4.598 3.146,4.191 L 1.837,5.049 c -0.341,0.22 -0.5170001,0.506 -0.5170001,0.847 0,0.6599998 0.7150001,1.067 1.4190001,1.067 0.759,0 1.43,-0.539 1.43,-1.298 z M 2.75,0.154 c -0.902,0 -1.661,0.649 -1.661,1.529 0,0.737 0.407,1.331 1.221,1.782 L 3.608,2.6399999 C 4.136,2.299 4.4,1.914 4.4,1.474 4.4,0.682 3.575,0.154 2.75,0.154 Z"
           id="path76" />
      </symbol>
      <symbol
         id="id-abe662e0-4841-4708-8304-3f343ceb42ab"
         overflow="visible">
        <path
           d="M 7.381,7.48 C 7.172,7.48 6.512,7.513 6.303,7.513 6.138,7.513 6.05,7.425 6.05,7.2599998 6.05,7.15 6.127,7.095 6.27,7.084 6.578,7.073 6.732,6.963 6.732,6.776 6.732,6.677 6.677,6.545 6.578,6.38 L 3.3,1.177 2.574,6.809 c 0,0.187 0.231,0.275 0.7039999,0.275 C 3.498,7.084 3.597,7.161 3.597,7.348 3.597,7.458 3.531,7.513 3.399,7.513 3.157,7.513 2.299,7.48 2.057,7.48 1.837,7.48 1.089,7.513 0.869,7.513 0.704,7.513 0.616,7.425 0.616,7.2599998 0.616,7.139 0.726,7.084 0.935,7.084 1.122,7.084 1.254,7.062 1.342,7.04 1.518,6.985 1.507,6.963 1.54,6.754 l 0.858,-6.71 c 0.033,-0.187 0.121,-0.286 0.264,-0.286 0.143,0 0.253,0.077 0.341,0.22 L 6.919,6.204 C 7.172,6.6 7.414,6.853 7.656,6.952 7.821,7.029 8.03,7.073 8.272,7.084 8.393,7.095 8.448,7.172 8.459,7.337 8.47,7.458 8.404,7.513 8.272,7.513 8.107,7.513 7.546,7.48 7.381,7.48 Z"
           id="path77" />
      </symbol>
    </defs>
  </g>
  <g
     ns5:version="1.11.0"
     ns5:texconverter="typst"
     ns5:pdfconverter="inkscape"
     ns5:text="$A$"
     ns5:preamble="/home/sermuns/.config/inkscape/extensions/textext/default_preamble_typst.typ"
     ns5:scale="1.919335896030805"
     ns5:alignment="middle center"
     transform="matrix(1.91934,0,0,1.91934,-347.91695,-198.18347)"
     ns5:jacobian_sqrt="1.91934"
     id="g87">
    <g
       id="g86">
      <g
         transform="translate(70.8661,78.3791)"
         id="g85">
        <g
           class="typst-text"
           transform="scale(1,-1)"
           id="g84">
          <g
             id="g83">
            <path
               d="M 1.507,0.033 C 1.705,0.033 2.387,0 2.596,0 2.761,0 2.838,0.088 2.838,0.253 2.838,0.352 2.772,0.41799998 2.629,0.429 2.31,0.44 2.156,0.55 2.156,0.759 c 0,0.099 0.099,0.319 0.308,0.649 0.297,0.495 0.506,0.858 0.649,1.1 H 5.786 C 5.786,2.431 5.797,2.277 5.83,2.035 5.907,1.232 5.9509997,0.792 5.9509997,0.737 5.9509997,0.528 5.709,0.429 5.2139997,0.429 5.005,0.429 4.906,0.341 4.906,0.16499999 4.906,0.055 4.972,0 5.104,0 5.368,0 6.204,0.033 6.468,0.033 6.6879997,0.033 7.469,0 7.689,0 c 0.165,0 0.2419998,0.088 0.2419998,0.264 0,0.11 -0.099,0.165 -0.2969998,0.165 -0.3080003,0 -0.495,0.022 -0.55,0.055 C 7.029,0.517 6.985,0.616 6.974,0.781 L 6.314,7.579 C 6.281,7.788 6.292,7.876 6.061,7.876 5.929,7.876 5.819,7.81 5.742,7.667 L 1.958,1.3199999 C 1.628,0.77 1.188,0.473 0.649,0.429 0.473,0.41799998 0.385,0.32999998 0.385,0.16499999 0.385,0.055 0.451,0 0.572,0 0.748,0 1.331,0.033 1.507,0.033 Z m 3.905,6.314 0.33,-3.41 H 3.377 Z"
               id="path82" />
          </g>
        </g>
      </g>
    </g>
    <defs
       id="defs86">
      <symbol
         id="symbol86"
         overflow="visible">
        <path
           d="M 1.507,0.033 C 1.705,0.033 2.387,0 2.596,0 2.761,0 2.838,0.088 2.838,0.253 2.838,0.352 2.772,0.41799998 2.629,0.429 2.31,0.44 2.156,0.55 2.156,0.759 c 0,0.099 0.099,0.319 0.308,0.649 0.297,0.495 0.506,0.858 0.649,1.1 H 5.786 C 5.786,2.431 5.797,2.277 5.83,2.035 5.907,1.232 5.9509997,0.792 5.9509997,0.737 5.9509997,0.528 5.709,0.429 5.2139997,0.429 5.005,0.429 4.906,0.341 4.906,0.16499999 4.906,0.055 4.972,0 5.104,0 5.368,0 6.204,0.033 6.468,0.033 6.6879997,0.033 7.469,0 7.689,0 c 0.165,0 0.2419998,0.088 0.2419998,0.264 0,0.11 -0.099,0.165 -0.2969998,0.165 -0.3080003,0 -0.495,0.022 -0.55,0.055 C 7.029,0.517 6.985,0.616 6.974,0.781 L 6.314,7.579 C 6.281,7.788 6.292,7.876 6.061,7.876 5.929,7.876 5.819,7.81 5.742,7.667 L 1.958,1.3199999 C 1.628,0.77 1.188,0.473 0.649,0.429 0.473,0.41799998 0.385,0.32999998 0.385,0.16499999 0.385,0.055 0.451,0 0.572,0 0.748,0 1.331,0.033 1.507,0.033 Z m 3.905,6.314 0.33,-3.41 H 3.377 Z"
           id="path86" />
      </symbol>
    </defs>
  </g>
  <g
     ns5:version="1.11.0"
     ns5:texconverter="typst"
     ns5:pdfconverter="inkscape"
     ns5:text="$B$"
     ns5:preamble="/home/sermuns/.config/inkscape/extensions/textext/default_preamble_typst.typ"
     ns5:scale="1.919335896030805"
     ns5:alignment="middle center"
     transform="matrix(1.91934,0,0,1.91934,-120.57002,-198.02687)"
     ns5:jacobian_sqrt="1.91934"
     id="g82">
    <g
       id="g91">
      <g
         transform="translate(70.8661,78.3791)"
         id="g90">
        <g
           class="typst-text"
           transform="scale(1,-1)"
           id="g89">
          <g
             id="g88">
            <path
               d="m 8.316,5.973 c 0,1.001 -0.9900003,1.54 -2.068,1.54 H 2.596 C 2.343,7.513 2.233,7.502 2.233,7.249 2.233,7.073 2.453,7.084 2.585,7.084 2.915,7.073 3.113,7.051 3.168,7.04 3.223,7.029 3.245,6.996 3.245,6.941 3.245,6.919 3.234,6.853 3.201,6.743 L 1.749,0.902 C 1.694,0.65999997 1.584,0.517 1.419,0.462 1.342,0.44 1.144,0.429 0.803,0.429 0.572,0.429 0.462,0.341 0.462,0.16499999 0.462,0.055 0.572,0 0.803,0 H 4.686 C 5.401,0 6.061,0.22 6.6879997,0.649 7.381,1.122 7.733,1.705 7.733,2.387 7.733,3.256 7.018,3.784 6.237,3.938 7.205,4.169 8.316,4.906 8.316,5.973 Z M 6.094,7.084 C 6.853,7.084 7.238,6.732 7.238,6.017 7.238,5.456 7.018,4.994 6.5559998,4.62 6.094,4.246 5.577,4.07 5.016,4.07 H 3.487 l 0.66,2.64 c 0.088,0.374 0.088,0.374 0.55,0.374 z M 6.402,3.289 C 6.5559998,3.036 6.633,2.783 6.633,2.508 6.633,1.936 6.413,1.441 5.962,1.034 5.511,0.627 5.005,0.429 4.422,0.429 H 2.937 c -0.11,0 -0.187,0 -0.231,0.011 -0.066,0 -0.099,0.022 -0.099,0.055 0,0.011 0,0.044 0.011,0.088 0.3409999,1.397 0.605,2.453 0.781,3.157 h 2.024 c 0.473,0 0.792,-0.154 0.979,-0.451 z"
               id="path87" />
          </g>
        </g>
      </g>
    </g>
    <defs
       id="id-7f8429c7-f25e-4f42-8c90-975cabf7f460">
      <symbol
         id="id-c982f6a2-9c2a-4b5b-a7b8-326a07918223"
         overflow="visible">
        <path
           d="m 8.316,5.973 c 0,1.001 -0.9900003,1.54 -2.068,1.54 H 2.596 C 2.343,7.513 2.233,7.502 2.233,7.249 2.233,7.073 2.453,7.084 2.585,7.084 2.915,7.073 3.113,7.051 3.168,7.04 3.223,7.029 3.245,6.996 3.245,6.941 3.245,6.919 3.234,6.853 3.201,6.743 L 1.749,0.902 C 1.694,0.65999997 1.584,0.517 1.419,0.462 1.342,0.44 1.144,0.429 0.803,0.429 0.572,0.429 0.462,0.341 0.462,0.16499999 0.462,0.055 0.572,0 0.803,0 H 4.686 C 5.401,0 6.061,0.22 6.6879997,0.649 7.381,1.122 7.733,1.705 7.733,2.387 7.733,3.256 7.018,3.784 6.237,3.938 7.205,4.169 8.316,4.906 8.316,5.973 Z M 6.094,7.084 C 6.853,7.084 7.238,6.732 7.238,6.017 7.238,5.456 7.018,4.994 6.5559998,4.62 6.094,4.246 5.577,4.07 5.016,4.07 H 3.487 l 0.66,2.64 c 0.088,0.374 0.088,0.374 0.55,0.374 z M 6.402,3.289 C 6.5559998,3.036 6.633,2.783 6.633,2.508 6.633,1.936 6.413,1.441 5.962,1.034 5.511,0.627 5.005,0.429 4.422,0.429 H 2.937 c -0.11,0 -0.187,0 -0.231,0.011 -0.066,0 -0.099,0.022 -0.099,0.055 0,0.011 0,0.044 0.011,0.088 0.3409999,1.397 0.605,2.453 0.781,3.157 h 2.024 c 0.473,0 0.792,-0.154 0.979,-0.451 z"
           id="path91" />
      </symbol>
    </defs>
  </g>
</svg>
