<svg xmlns="http://www.w3.org/2000/svg" xml:lang="en" height="115.29999999999998pt" width="234.608pt" viewBox="-225.304 -82.4 234.608 115.29999999999998"><path d="M 0.0,-0.0 L -104.625,-1.2812867136079182e-14 M -111.375,-1.3639503725503646e-14 L -216.0,-2.6452370861582827e-14" style="stroke:black;fill:none;stroke-width:2.0;stroke-linecap:round;stroke-linejoin:round;" /><path d="M -104.625,13.499999999999988 L -104.625,-13.500000000000012" style="stroke:black;fill:none;stroke-width:2.0;stroke-linecap:round;stroke-linejoin:round;" /><path d="M -111.375,6.749999999999986 L -111.375,-6.750000000000014" style="stroke:black;fill:none;stroke-width:2.0;stroke-linecap:round;stroke-linejoin:round;" /><path d="M -216.0,-2.6452370861582827e-14 L -216.0,-27.00000000000003 L -216.0,-54.00000000000002" style="stroke:black;fill:none;stroke-width:2.0;stroke-linecap:round;stroke-linejoin:round;" /><path d="M -216.0,-54.00000000000002 L -126.0,-54.00000000000002 L -126.0,-63.00000000000002 L -90.0,-63.00000000000002 L -90.0,-45.00000000000002 L -126.0,-45.00000000000002 L -126.0,-54.00000000000002 M -90.0,-54.00000000000002 L 0.0,-54.00000000000002" style="stroke:black;fill:none;stroke-width:2.0;stroke-linecap:round;stroke-linejoin:round;" /><path d="M 0.0,-54.00000000000002 L -4.9598195365467806e-15,-27.000000000000025 L -9.919639073093561e-15,-2.398081733190338e-14" style="stroke:black;fill:none;stroke-width:2.0;stroke-linecap:round;stroke-linejoin:round;" /><g><g><g transform="translate(-120.25 26.662)" fill="black"><path d="M 5.866 0 L 5.866 -0.434 L 5.418 -0.434 C 4.158 -0.434 4.116 -0.588 4.116 -1.106 L 4.116 -8.96 C 4.116 -9.296 4.116 -9.324 3.794 -9.324 C 2.926 -8.428 1.694 -8.428 1.246 -8.428 L 1.246 -7.994 C 1.526 -7.994 2.352 -7.994 3.08 -8.358 L 3.08 -1.106 C 3.08 -0.602 3.038 -0.434 1.778 -0.434 L 1.33 -0.434 L 1.33 0 C 1.82 -0.042 3.038 -0.042 3.598 -0.042 C 4.158 -0.042 5.376 -0.042 5.866 -0.042 Z " /><path d="M 13.286 -2.436 L 12.936 -2.436 C 12.866 -2.016 12.768 -1.4 12.628 -1.19 C 12.53 -1.078 11.606 -1.078 11.298 -1.078 L 8.778 -1.078 L 10.262 -2.52 C 12.446 -4.452 13.286 -5.208 13.286 -6.608 C 13.286 -8.204 12.026 -9.324 10.318 -9.324 C 8.736 -9.324 7.7 -8.036 7.7 -6.79 C 7.7 -6.006 8.4 -6.006 8.442 -6.006 C 8.68 -6.006 9.17 -6.174 9.17 -6.748 C 9.17 -7.112 8.918 -7.476 8.428 -7.476 C 8.316 -7.476 8.288 -7.476 8.246 -7.462 C 8.568 -8.372 9.324 -8.89 10.136 -8.89 C 11.41 -8.89 12.012 -7.756 12.012 -6.608 C 12.012 -5.488 11.312 -4.382 10.542 -3.514 L 7.854 -0.518 C 7.7 -0.364 7.7 -0.336 7.7 0 L 12.894 0 Z " /><path d="M 24.22 -9.128 L 24.22 -9.562 C 23.786 -9.534 23.226 -9.52 22.862 -9.52 C 22.862 -9.52 21.266 -9.562 21.266 -9.562 L 21.266 -9.128 C 21.994 -9.114 22.288 -8.75 22.288 -8.428 C 22.288 -8.316 22.246 -8.232 22.218 -8.148 L 19.656 -1.4 L 16.982 -8.47 C 16.898 -8.666 16.898 -8.722 16.898 -8.722 C 16.898 -9.128 17.696 -9.128 18.046 -9.128 L 18.046 -9.562 C 17.542 -9.52 16.576 -9.52 16.044 -9.52 C 16.044 -9.52 14.266 -9.562 14.266 -9.562 L 14.266 -9.128 C 15.176 -9.128 15.442 -9.128 15.638 -8.596 L 18.886 0 C 18.984 0.266 19.054 0.308 19.236 0.308 C 19.474 0.308 19.502 0.238 19.572 0.042 L 22.694 -8.19 C 22.89 -8.708 23.268 -9.114 24.22 -9.128 Z " /></g></g></g><g><g><g><path d="M -126.813 -74.608 C -126.813 -74.132 -127.037 -73.166 -127.583 -72.62 C -127.947 -72.256 -128.689 -71.808 -129.949 -71.808 L -131.517 -71.808 L -130.607 -75.462 C -130.523 -75.798 -130.481 -75.938 -130.215 -75.98 C -130.089 -75.994 -129.641 -75.994 -129.361 -75.994 C -128.367 -75.994 -126.813 -75.994 -126.813 -74.608 Z M -125.287 -68.168 C -125.287 -68.336 -125.455 -68.336 -125.455 -68.336 C -125.581 -68.336 -125.609 -68.238 -125.637 -68.14 C -125.987 -67.104 -126.589 -66.866 -126.911 -66.866 C -127.373 -66.866 -127.471 -67.174 -127.471 -67.72 C -127.471 -68.154 -127.387 -68.868 -127.331 -69.316 C -127.303 -69.512 -127.275 -69.778 -127.275 -69.974 C -127.275 -71.052 -128.213 -71.486 -128.591 -71.626 C -127.177 -71.934 -125.511 -72.914 -125.511 -74.328 C -125.511 -75.532 -126.771 -76.428 -128.605 -76.428 L -132.595 -76.428 C -132.875 -76.428 -133.001 -76.428 -133.001 -76.148 C -133.001 -75.994 -132.875 -75.994 -132.609 -75.994 C -132.609 -75.994 -132.315 -75.994 -132.077 -75.966 C -131.825 -75.938 -131.699 -75.924 -131.699 -75.742 C -131.699 -75.686 -131.713 -75.644 -131.755 -75.476 L -133.631 -67.958 C -133.771 -67.412 -133.799 -67.3 -134.905 -67.3 C -135.157 -67.3 -135.283 -67.3 -135.283 -67.02 C -135.283 -66.866 -135.087 -66.866 -135.087 -66.866 C -135.087 -66.866 -133.323 -66.908 -133.323 -66.908 C -133.323 -66.908 -131.545 -66.908 -131.545 -66.908 C -131.433 -66.908 -131.265 -66.908 -131.265 -67.188 C -131.265 -67.342 -131.391 -67.342 -131.657 -67.342 C -132.175 -67.342 -132.567 -67.342 -132.567 -67.594 C -132.567 -67.678 -132.539 -67.748 -132.525 -67.832 L -131.601 -71.542 L -129.935 -71.542 C -128.661 -71.542 -128.409 -70.758 -128.409 -70.268 C -128.409 -70.058 -128.521 -69.624 -128.605 -69.302 C -128.703 -68.91 -128.829 -68.392 -128.829 -68.112 C -128.829 -66.6 -127.149 -66.6 -126.967 -66.6 C -125.777 -66.6 -125.287 -68.014 -125.287 -68.21 Z " fill="black" /><path d="M -109.939 -71.724 C -109.939 -71.878 -110.065 -72.004 -110.219 -72.004 L -118.983 -72.004 C -119.137 -72.004 -119.263 -71.878 -119.263 -71.724 C -119.263 -71.57 -119.137 -71.444 -118.983 -71.444 L -110.219 -71.444 C -110.065 -71.444 -109.939 -71.57 -109.939 -71.724 Z M -109.939 -69.008 C -109.939 -69.162 -110.065 -69.288 -110.219 -69.288 L -118.983 -69.288 C -119.137 -69.288 -119.263 -69.162 -119.263 -69.008 C -119.263 -68.854 -119.137 -68.728 -118.983 -68.728 L -110.219 -68.728 C -110.065 -68.728 -109.939 -68.854 -109.939 -69.008 Z " fill="black" /><path d="M -98.105 -66.866 L -98.105 -67.3 L -98.553 -67.3 C -99.813 -67.3 -99.855 -67.454 -99.855 -67.972 L -99.855 -75.826 C -99.855 -76.162 -99.855 -76.19 -100.177 -76.19 C -101.045 -75.294 -102.277 -75.294 -102.725 -75.294 L -102.725 -74.86 C -102.445 -74.86 -101.619 -74.86 -100.891 -75.224 L -100.891 -67.972 C -100.891 -67.468 -100.933 -67.3 -102.193 -67.3 L -102.641 -67.3 L -102.641 -66.866 C -102.151 -66.908 -100.933 -66.908 -100.373 -66.908 C -99.813 -66.908 -98.595 -66.908 -98.105 -66.908 Z " fill="black" /><path d="M -89.859 -72.172 C -89.859 -72.592 -90.181 -73.054 -90.811 -73.054 C -91.203 -73.054 -91.847 -72.942 -92.855 -71.822 C -93.331 -71.29 -93.877 -70.73 -94.409 -70.52 L -92.953 -76.428 C -92.953 -76.428 -92.953 -76.582 -93.135 -76.582 C -93.457 -76.582 -94.479 -76.47 -94.843 -76.442 C -94.955 -76.428 -95.109 -76.414 -95.109 -76.162 C -95.109 -75.994 -94.983 -75.994 -94.773 -75.994 C -94.101 -75.994 -94.073 -75.896 -94.073 -75.756 L -94.115 -75.476 L -96.145 -67.412 C -96.201 -67.216 -96.201 -67.188 -96.201 -67.104 C -96.201 -66.782 -95.921 -66.712 -95.795 -66.712 C -95.613 -66.712 -95.403 -66.838 -95.319 -67.006 C -95.249 -67.132 -94.619 -69.722 -94.535 -70.072 C -94.059 -70.03 -92.911 -69.806 -92.911 -68.882 C -92.911 -68.784 -92.911 -68.728 -92.953 -68.588 C -92.981 -68.42 -93.009 -68.252 -93.009 -68.098 C -93.009 -67.272 -92.449 -66.712 -91.721 -66.712 C -91.301 -66.712 -90.923 -66.936 -90.615 -67.454 C -90.265 -68.07 -90.111 -68.868 -90.111 -68.868 C -90.111 -69.008 -90.237 -69.008 -90.279 -69.008 C -90.419 -69.008 -90.433 -68.952 -90.475 -68.756 C -90.755 -67.734 -91.077 -67.02 -91.693 -67.02 C -91.959 -67.02 -92.141 -67.174 -92.141 -67.678 C -92.141 -67.916 -92.085 -68.238 -92.029 -68.462 C -91.973 -68.7 -91.973 -68.756 -91.973 -68.896 C -91.973 -69.806 -92.855 -70.212 -94.045 -70.366 C -93.611 -70.618 -93.163 -71.066 -92.841 -71.402 C -92.169 -72.144 -91.525 -72.746 -90.839 -72.746 C -90.755 -72.746 -90.741 -72.746 -90.713 -72.732 C -90.545 -72.704 -90.531 -72.704 -90.419 -72.62 C -90.391 -72.606 -90.391 -72.592 -90.363 -72.564 C -91.035 -72.522 -91.161 -71.976 -91.161 -71.808 C -91.161 -71.584 -91.007 -71.318 -90.629 -71.318 C -90.265 -71.318 -89.859 -71.626 -89.859 -72.172 Z " fill="black" /><path d="M -80.199 -69.134 L -80.549 -69.134 C -80.619 -68.77 -80.675 -68.448 -80.801 -68.112 C -80.871 -67.888 -80.913 -67.776 -81.725 -67.776 L -82.845 -67.776 C -82.663 -68.56 -82.229 -69.232 -81.599 -70.156 C -80.941 -71.15 -80.367 -72.116 -80.367 -73.222 C -80.367 -75.168 -82.257 -76.736 -84.623 -76.736 C -87.031 -76.736 -88.893 -75.14 -88.893 -73.222 C -88.893 -72.116 -88.319 -71.15 -87.661 -70.156 C -87.045 -69.232 -86.597 -68.56 -86.415 -67.776 L -87.535 -67.776 C -88.347 -67.776 -88.389 -67.888 -88.459 -68.098 C -88.571 -68.42 -88.641 -68.784 -88.711 -69.134 L -89.061 -69.134 L -88.599 -66.866 L -86.359 -66.866 C -86.051 -66.866 -86.009 -66.866 -86.009 -67.16 C -86.009 -68.14 -86.443 -69.372 -86.765 -70.268 C -87.059 -71.08 -87.451 -72.186 -87.451 -73.236 C -87.451 -75.476 -85.911 -76.428 -84.637 -76.428 C -83.293 -76.428 -81.809 -75.42 -81.809 -73.236 C -81.809 -72.186 -82.187 -71.122 -82.593 -69.974 C -82.803 -69.386 -83.251 -68.126 -83.251 -67.16 C -83.251 -66.866 -83.209 -66.866 -82.887 -66.866 L -80.661 -66.866 Z " fill="black" /></g></g></g><circle cx="-216.0" cy="-54.00000000000002" r="2.6999999999999997" style="stroke:black;fill:black;stroke-width:2.0;" /><g><g><g><path d="M -210.911 -60.58 C -210.911 -60.734 -211.051 -60.734 -211.233 -60.734 C -212.101 -60.734 -212.101 -60.832 -212.143 -61.238 L -212.997 -69.988 C -213.025 -70.268 -213.025 -70.324 -213.263 -70.324 C -213.487 -70.324 -213.543 -70.226 -213.627 -70.086 L -218.499 -61.91 C -219.059 -60.972 -219.605 -60.776 -220.221 -60.734 C -220.389 -60.72 -220.515 -60.72 -220.515 -60.454 C -220.515 -60.37 -220.445 -60.3 -220.333 -60.3 C -219.955 -60.3 -219.521 -60.342 -219.129 -60.342 C -218.667 -60.342 -218.177 -60.3 -217.729 -60.3 C -217.645 -60.3 -217.463 -60.3 -217.463 -60.566 C -217.463 -60.72 -217.589 -60.734 -217.687 -60.734 C -218.009 -60.762 -218.345 -60.874 -218.345 -61.224 C -218.345 -61.392 -218.261 -61.546 -218.149 -61.742 C -218.051 -61.91 -218.037 -61.91 -217.085 -63.534 L -213.571 -63.534 C -213.543 -63.24 -213.347 -61.336 -213.347 -61.196 C -213.347 -60.776 -214.075 -60.734 -214.355 -60.734 C -214.551 -60.734 -214.691 -60.734 -214.691 -60.454 C -214.691 -60.3 -214.495 -60.3 -214.495 -60.3 C -213.921 -60.3 -213.319 -60.342 -212.745 -60.342 C -212.395 -60.342 -211.513 -60.342 -211.163 -60.342 C -211.079 -60.342 -210.911 -60.342 -210.911 -60.622 Z M -213.613 -64.01 L -216.819 -64.01 L -214.061 -68.63 Z " fill="black" /></g></g></g><circle cx="0.0" cy="-54.00000000000002" r="2.6999999999999997" style="stroke:black;fill:black;stroke-width:2.0;" /><g><g><g><path d="M 5.565 -67.93 C 5.565 -68.966 4.641 -69.862 2.961 -69.862 L -1.743 -69.862 C -2.009 -69.862 -2.149 -69.862 -2.149 -69.582 C -2.149 -69.428 -2.023 -69.428 -1.757 -69.428 C -1.757 -69.428 -1.463 -69.428 -1.225 -69.4 C -0.973 -69.372 -0.847 -69.358 -0.847 -69.176 C -0.847 -69.12 -0.861 -69.078 -0.903 -68.91 L -2.779 -61.392 C -2.919 -60.846 -2.947 -60.734 -4.053 -60.734 C -4.291 -60.734 -4.431 -60.734 -4.431 -60.454 C -4.431 -60.3 -4.305 -60.3 -4.053 -60.3 L 0.945 -60.3 C 3.157 -60.3 4.809 -61.952 4.809 -63.324 C 4.809 -64.332 3.997 -65.144 2.639 -65.298 C 4.095 -65.564 5.565 -66.6 5.565 -67.93 Z M 4.291 -67.986 C 4.291 -66.754 3.087 -65.424 1.379 -65.424 L -0.665 -65.424 L 0.203 -68.896 C 0.329 -69.386 0.357 -69.428 0.959 -69.428 L 2.765 -69.428 C 3.997 -69.428 4.291 -68.602 4.291 -67.986 Z M 3.507 -63.478 C 3.507 -62.092 2.261 -60.734 0.609 -60.734 L -1.295 -60.734 C -1.491 -60.734 -1.519 -60.734 -1.603 -60.748 C -1.743 -60.762 -1.785 -60.776 -1.785 -60.888 C -1.785 -60.93 -1.785 -60.958 -1.715 -61.21 L -0.749 -65.116 L 1.897 -65.116 C 3.241 -65.116 3.507 -64.08 3.507 -63.478 Z " fill="black" /></g></g></g></svg>