<svg xmlns="http://www.w3.org/2000/svg" xml:lang="en" height="208.49999999999994pt" width="117.2pt" viewBox="-112.6 -190.39999999999998 117.2 208.49999999999994"><path d="M 0.0,-0.0 L -50.625,-6.1997744206834756e-15 M -57.375,-7.0264110101079386e-15 L -108.0,-1.3226185430791413e-14" style="stroke:black;fill:none;stroke-width:2.0;stroke-linecap:round;stroke-linejoin:round;" /><path d="M -50.625,13.499999999999995 L -50.625,-13.500000000000005" style="stroke:black;fill:none;stroke-width:2.0;stroke-linecap:round;stroke-linejoin:round;" /><path d="M -57.375,6.749999999999993 L -57.375,-6.750000000000007" style="stroke:black;fill:none;stroke-width:2.0;stroke-linecap:round;stroke-linejoin:round;" /><path d="M -108.0,-1.3226185430791413e-14 L -108.0,-27.00000000000001 L -108.0,-54.000000000000014" style="stroke:black;fill:none;stroke-width:2.0;stroke-linecap:round;stroke-linejoin:round;" /><path d="M -108.0,-54.000000000000014 L -72.0,-54.000000000000014 L -72.0,-63.000000000000014 L -36.0,-63.000000000000014 L -36.0,-45.000000000000014 L -72.0,-45.000000000000014 L -72.0,-54.000000000000014 M -36.0,-54.000000000000014 L 0.0,-54.000000000000014" style="stroke:black;fill:none;stroke-width:2.0;stroke-linecap:round;stroke-linejoin:round;" /><path d="M -108.0,-54.000000000000014 L -108.0,-81.00000000000001 L -108.0,-108.00000000000001" style="stroke:black;fill:none;stroke-width:2.0;stroke-linecap:round;stroke-linejoin:round;" /><path d="M -108.0,-108.00000000000001 L -72.0,-108.00000000000001 L -72.0,-117.00000000000001 L -36.0,-117.00000000000001 L -36.0,-99.00000000000001 L -72.0,-99.00000000000001 L -72.0,-108.00000000000001 M -36.0,-108.00000000000001 L 0.0,-108.00000000000001" style="stroke:black;fill:none;stroke-width:2.0;stroke-linecap:round;stroke-linejoin:round;" /><path d="M -108.0,-108.00000000000001 L -108.0,-135.00000000000003 L -108.0,-162.0" style="stroke:black;fill:none;stroke-width:2.0;stroke-linecap:round;stroke-linejoin:round;" /><path d="M -108.0,-162.0 L -72.0,-162.0 L -72.0,-171.0 L -36.0,-171.0 L -36.0,-153.0 L -72.0,-153.0 L -72.0,-162.0 M -36.0,-162.0 L 0.0,-162.0" style="stroke:black;fill:none;stroke-width:2.0;stroke-linecap:round;stroke-linejoin:round;" /><path d="M 0.0,-162.0 L -1.487945860964034e-14,-81.0 L -2.975891721928068e-14,-0.0" style="stroke:black;fill:none;stroke-width:2.0;stroke-linecap:round;stroke-linejoin:round;" /><g><g><g><path d="M -78.954 -77.996 C -78.954 -77.52 -79.178 -76.554 -79.724 -76.008 C -80.088 -75.644 -80.83 -75.196 -82.09 -75.196 L -83.658 -75.196 L -82.748 -78.85 C -82.664 -79.186 -82.622 -79.326 -82.356 -79.368 C -82.23 -79.382 -81.782 -79.382 -81.502 -79.382 C -80.508 -79.382 -78.954 -79.382 -78.954 -77.996 Z M -77.428 -71.556 C -77.428 -71.724 -77.596 -71.724 -77.596 -71.724 C -77.722 -71.724 -77.75 -71.626 -77.778 -71.528 C -78.128 -70.492 -78.73 -70.254 -79.052 -70.254 C -79.514 -70.254 -79.612 -70.562 -79.612 -71.108 C -79.612 -71.542 -79.528 -72.256 -79.472 -72.704 C -79.444 -72.9 -79.416 -73.166 -79.416 -73.362 C -79.416 -74.44 -80.354 -74.874 -80.732 -75.014 C -79.318 -75.322 -77.652 -76.302 -77.652 -77.716 C -77.652 -78.92 -78.912 -79.816 -80.746 -79.816 L -84.736 -79.816 C -85.016 -79.816 -85.142 -79.816 -85.142 -79.536 C -85.142 -79.382 -85.016 -79.382 -84.75 -79.382 C -84.75 -79.382 -84.456 -79.382 -84.218 -79.354 C -83.966 -79.326 -83.84 -79.312 -83.84 -79.13 C -83.84 -79.074 -83.854 -79.032 -83.896 -78.864 L -85.772 -71.346 C -85.912 -70.8 -85.94 -70.688 -87.046 -70.688 C -87.298 -70.688 -87.424 -70.688 -87.424 -70.408 C -87.424 -70.254 -87.228 -70.254 -87.228 -70.254 C -87.228 -70.254 -85.464 -70.296 -85.464 -70.296 C -85.464 -70.296 -83.686 -70.296 -83.686 -70.296 C -83.574 -70.296 -83.406 -70.296 -83.406 -70.576 C -83.406 -70.73 -83.532 -70.73 -83.798 -70.73 C -84.316 -70.73 -84.708 -70.73 -84.708 -70.982 C -84.708 -71.066 -84.68 -71.136 -84.666 -71.22 L -83.742 -74.93 L -82.076 -74.93 C -80.802 -74.93 -80.55 -74.146 -80.55 -73.656 C -80.55 -73.446 -80.662 -73.012 -80.746 -72.69 C -80.844 -72.298 -80.97 -71.78 -80.97 -71.5 C -80.97 -69.988 -79.29 -69.988 -79.108 -69.988 C -77.918 -69.988 -77.428 -71.402 -77.428 -71.598 Z " fill="black" /><path d="M -72.335 -68.491 C -72.335 -69.256 -72.962 -70.02 -74.04 -70.246 C -73.011 -70.618 -72.639 -71.353 -72.639 -71.951 C -72.639 -72.725 -73.53 -73.303 -74.618 -73.303 C -75.706 -73.303 -76.539 -72.774 -76.539 -71.99 C -76.539 -71.657 -76.323 -71.471 -76.029 -71.471 C -75.726 -71.471 -75.53 -71.696 -75.53 -71.97 C -75.53 -72.255 -75.726 -72.46 -76.029 -72.48 C -75.686 -72.911 -75.01 -73.019 -74.648 -73.019 C -74.207 -73.019 -73.589 -72.803 -73.589 -71.951 C -73.589 -71.539 -73.726 -71.088 -73.981 -70.785 C -74.305 -70.412 -74.579 -70.393 -75.069 -70.363 C -75.314 -70.344 -75.334 -70.344 -75.383 -70.334 C -75.383 -70.334 -75.481 -70.314 -75.481 -70.206 C -75.481 -70.069 -75.392 -70.069 -75.226 -70.069 L -74.697 -70.069 C -73.932 -70.069 -73.383 -69.54 -73.383 -68.491 C -73.383 -67.276 -74.089 -66.914 -74.657 -66.914 C -75.049 -66.914 -75.912 -67.021 -76.323 -67.6 C -75.863 -67.619 -75.755 -67.943 -75.755 -68.148 C -75.755 -68.462 -75.99 -68.687 -76.294 -68.687 C -76.568 -68.687 -76.843 -68.521 -76.843 -68.119 C -76.843 -67.198 -75.824 -66.6 -74.638 -66.6 C -73.276 -66.6 -72.335 -67.511 -72.335 -68.491 Z " fill="black" /><path d="M -56.504 -75.112 C -56.504 -75.266 -56.63 -75.392 -56.784 -75.392 L -65.548 -75.392 C -65.702 -75.392 -65.828 -75.266 -65.828 -75.112 C -65.828 -74.958 -65.702 -74.832 -65.548 -74.832 L -56.784 -74.832 C -56.63 -74.832 -56.504 -74.958 -56.504 -75.112 Z M -56.504 -72.396 C -56.504 -72.55 -56.63 -72.676 -56.784 -72.676 L -65.548 -72.676 C -65.702 -72.676 -65.828 -72.55 -65.828 -72.396 C -65.828 -72.242 -65.702 -72.116 -65.548 -72.116 L -56.784 -72.116 C -56.63 -72.116 -56.504 -72.242 -56.504 -72.396 Z " fill="black" /><path d="M -44.138 -73.11 C -44.138 -74.888 -45.384 -76.232 -46.938 -76.232 C -47.89 -76.232 -48.408 -75.518 -48.688 -74.846 L -48.688 -75.182 C -48.688 -78.724 -46.952 -79.228 -46.238 -79.228 C -45.902 -79.228 -45.314 -79.144 -45.006 -78.668 C -45.216 -78.668 -45.776 -78.668 -45.776 -78.038 C -45.776 -77.604 -45.44 -77.394 -45.132 -77.394 C -44.908 -77.394 -44.488 -77.52 -44.488 -78.066 C -44.488 -78.906 -45.104 -79.578 -46.266 -79.578 C -48.058 -79.578 -49.948 -77.772 -49.948 -74.678 C -49.948 -70.94 -48.324 -69.946 -47.022 -69.946 C -45.468 -69.946 -44.138 -71.262 -44.138 -73.11 Z M -45.398 -73.124 C -45.398 -72.452 -45.398 -71.752 -45.636 -71.248 C -46.056 -70.408 -46.7 -70.338 -47.022 -70.338 C -47.904 -70.338 -48.324 -71.178 -48.408 -71.388 C -48.66 -72.046 -48.66 -73.166 -48.66 -73.418 C -48.66 -74.51 -48.212 -75.91 -46.952 -75.91 C -46.728 -75.91 -46.084 -75.91 -45.65 -75.042 C -45.398 -74.524 -45.398 -73.81 -45.398 -73.124 Z " fill="black" /><path d="M -37.096 -74.734 C -37.096 -75.854 -37.166 -76.974 -37.656 -78.01 C -38.3 -79.354 -39.448 -79.578 -40.036 -79.578 C -40.876 -79.578 -41.898 -79.214 -42.472 -77.912 C -42.92 -76.946 -42.99 -75.854 -42.99 -74.734 C -42.99 -73.684 -42.934 -72.424 -42.36 -71.36 C -41.758 -70.226 -40.736 -69.946 -40.05 -69.946 C -39.294 -69.946 -38.23 -70.24 -37.614 -71.57 C -37.166 -72.536 -37.096 -73.628 -37.096 -74.734 Z M -38.258 -74.902 C -38.258 -73.852 -38.258 -72.9 -38.412 -72.004 C -38.622 -70.674 -39.42 -70.254 -40.05 -70.254 C -40.596 -70.254 -41.422 -70.604 -41.674 -71.948 C -41.828 -72.788 -41.828 -74.076 -41.828 -74.902 C -41.828 -75.798 -41.828 -76.722 -41.716 -77.478 C -41.45 -79.144 -40.4 -79.27 -40.05 -79.27 C -39.588 -79.27 -38.664 -79.018 -38.398 -77.632 C -38.258 -76.848 -38.258 -75.784 -38.258 -74.902 Z " fill="black" /><path d="M -30.096 -74.734 C -30.096 -75.854 -30.166 -76.974 -30.656 -78.01 C -31.3 -79.354 -32.448 -79.578 -33.036 -79.578 C -33.876 -79.578 -34.898 -79.214 -35.472 -77.912 C -35.92 -76.946 -35.99 -75.854 -35.99 -74.734 C -35.99 -73.684 -35.934 -72.424 -35.36 -71.36 C -34.758 -70.226 -33.736 -69.946 -33.05 -69.946 C -32.294 -69.946 -31.23 -70.24 -30.614 -71.57 C -30.166 -72.536 -30.096 -73.628 -30.096 -74.734 Z M -31.258 -74.902 C -31.258 -73.852 -31.258 -72.9 -31.412 -72.004 C -31.622 -70.674 -32.42 -70.254 -33.05 -70.254 C -33.596 -70.254 -34.422 -70.604 -34.674 -71.948 C -34.828 -72.788 -34.828 -74.076 -34.828 -74.902 C -34.828 -75.798 -34.828 -76.722 -34.716 -77.478 C -34.45 -79.144 -33.4 -79.27 -33.05 -79.27 C -32.588 -79.27 -31.664 -79.018 -31.398 -77.632 C -31.258 -76.848 -31.258 -75.784 -31.258 -74.902 Z " fill="black" /><path d="M -20.058 -72.522 L -20.408 -72.522 C -20.478 -72.158 -20.534 -71.836 -20.66 -71.5 C -20.73 -71.276 -20.772 -71.164 -21.584 -71.164 L -22.704 -71.164 C -22.522 -71.948 -22.088 -72.62 -21.458 -73.544 C -20.8 -74.538 -20.226 -75.504 -20.226 -76.61 C -20.226 -78.556 -22.116 -80.124 -24.482 -80.124 C -26.89 -80.124 -28.752 -78.528 -28.752 -76.61 C -28.752 -75.504 -28.178 -74.538 -27.52 -73.544 C -26.904 -72.62 -26.456 -71.948 -26.274 -71.164 L -27.394 -71.164 C -28.206 -71.164 -28.248 -71.276 -28.318 -71.486 C -28.43 -71.808 -28.5 -72.172 -28.57 -72.522 L -28.92 -72.522 L -28.458 -70.254 L -26.218 -70.254 C -25.91 -70.254 -25.868 -70.254 -25.868 -70.548 C -25.868 -71.528 -26.302 -72.76 -26.624 -73.656 C -26.918 -74.468 -27.31 -75.574 -27.31 -76.624 C -27.31 -78.864 -25.77 -79.816 -24.496 -79.816 C -23.152 -79.816 -21.668 -78.808 -21.668 -76.624 C -21.668 -75.574 -22.046 -74.51 -22.452 -73.362 C -22.662 -72.774 -23.11 -71.514 -23.11 -70.548 C -23.11 -70.254 -23.068 -70.254 -22.746 -70.254 L -20.52 -70.254 Z " fill="black" /></g></g></g><g><g><g><path d="M -78.954 -131.8 C -78.954 -131.324 -79.178 -130.358 -79.724 -129.812 C -80.088 -129.448 -80.83 -129 -82.09 -129 L -83.658 -129 L -82.748 -132.654 C -82.664 -132.99 -82.622 -133.13 -82.356 -133.172 C -82.23 -133.186 -81.782 -133.186 -81.502 -133.186 C -80.508 -133.186 -78.954 -133.186 -78.954 -131.8 Z M -77.428 -125.36 C -77.428 -125.528 -77.596 -125.528 -77.596 -125.528 C -77.722 -125.528 -77.75 -125.43 -77.778 -125.332 C -78.128 -124.296 -78.73 -124.058 -79.052 -124.058 C -79.514 -124.058 -79.612 -124.366 -79.612 -124.912 C -79.612 -125.346 -79.528 -126.06 -79.472 -126.508 C -79.444 -126.704 -79.416 -126.97 -79.416 -127.166 C -79.416 -128.244 -80.354 -128.678 -80.732 -128.818 C -79.318 -129.126 -77.652 -130.106 -77.652 -131.52 C -77.652 -132.724 -78.912 -133.62 -80.746 -133.62 L -84.736 -133.62 C -85.016 -133.62 -85.142 -133.62 -85.142 -133.34 C -85.142 -133.186 -85.016 -133.186 -84.75 -133.186 C -84.75 -133.186 -84.456 -133.186 -84.218 -133.158 C -83.966 -133.13 -83.84 -133.116 -83.84 -132.934 C -83.84 -132.878 -83.854 -132.836 -83.896 -132.668 L -85.772 -125.15 C -85.912 -124.604 -85.94 -124.492 -87.046 -124.492 C -87.298 -124.492 -87.424 -124.492 -87.424 -124.212 C -87.424 -124.058 -87.228 -124.058 -87.228 -124.058 C -87.228 -124.058 -85.464 -124.1 -85.464 -124.1 C -85.464 -124.1 -83.686 -124.1 -83.686 -124.1 C -83.574 -124.1 -83.406 -124.1 -83.406 -124.38 C -83.406 -124.534 -83.532 -124.534 -83.798 -124.534 C -84.316 -124.534 -84.708 -124.534 -84.708 -124.786 C -84.708 -124.87 -84.68 -124.94 -84.666 -125.024 L -83.742 -128.734 L -82.076 -128.734 C -80.802 -128.734 -80.55 -127.95 -80.55 -127.46 C -80.55 -127.25 -80.662 -126.816 -80.746 -126.494 C -80.844 -126.102 -80.97 -125.584 -80.97 -125.304 C -80.97 -123.792 -79.29 -123.792 -79.108 -123.792 C -77.918 -123.792 -77.428 -125.206 -77.428 -125.402 Z " fill="black" /><path d="M -72.423 -122.384 L -72.756 -122.384 C -72.786 -122.168 -72.884 -121.59 -73.011 -121.492 C -73.089 -121.433 -73.844 -121.433 -73.981 -121.433 L -75.784 -121.433 C -74.755 -122.344 -74.412 -122.619 -73.824 -123.079 C -73.099 -123.658 -72.423 -124.265 -72.423 -125.196 C -72.423 -126.382 -73.462 -127.107 -74.716 -127.107 C -75.931 -127.107 -76.755 -126.255 -76.755 -125.353 C -76.755 -124.853 -76.333 -124.804 -76.235 -124.804 C -76 -124.804 -75.716 -124.971 -75.716 -125.324 C -75.716 -125.5 -75.784 -125.843 -76.294 -125.843 C -75.99 -126.539 -75.324 -126.754 -74.863 -126.754 C -73.883 -126.754 -73.374 -125.99 -73.374 -125.196 C -73.374 -124.344 -73.981 -123.667 -74.295 -123.315 L -76.657 -120.982 C -76.755 -120.894 -76.755 -120.874 -76.755 -120.6 L -72.717 -120.6 Z " fill="black" /><path d="M -56.504 -128.916 C -56.504 -129.07 -56.63 -129.196 -56.784 -129.196 L -65.548 -129.196 C -65.702 -129.196 -65.828 -129.07 -65.828 -128.916 C -65.828 -128.762 -65.702 -128.636 -65.548 -128.636 L -56.784 -128.636 C -56.63 -128.636 -56.504 -128.762 -56.504 -128.916 Z M -56.504 -126.2 C -56.504 -126.354 -56.63 -126.48 -56.784 -126.48 L -65.548 -126.48 C -65.702 -126.48 -65.828 -126.354 -65.828 -126.2 C -65.828 -126.046 -65.702 -125.92 -65.548 -125.92 L -56.784 -125.92 C -56.63 -125.92 -56.504 -126.046 -56.504 -126.2 Z " fill="black" /><path d="M -44.25 -126.494 L -44.6 -126.494 C -44.67 -126.074 -44.768 -125.458 -44.908 -125.248 C -45.006 -125.136 -45.93 -125.136 -46.238 -125.136 L -48.758 -125.136 L -47.274 -126.578 C -45.09 -128.51 -44.25 -129.266 -44.25 -130.666 C -44.25 -132.262 -45.51 -133.382 -47.218 -133.382 C -48.8 -133.382 -49.836 -132.094 -49.836 -130.848 C -49.836 -130.064 -49.136 -130.064 -49.094 -130.064 C -48.856 -130.064 -48.366 -130.232 -48.366 -130.806 C -48.366 -131.17 -48.618 -131.534 -49.108 -131.534 C -49.22 -131.534 -49.248 -131.534 -49.29 -131.52 C -48.968 -132.43 -48.212 -132.948 -47.4 -132.948 C -46.126 -132.948 -45.524 -131.814 -45.524 -130.666 C -45.524 -129.546 -46.224 -128.44 -46.994 -127.572 L -49.682 -124.576 C -49.836 -124.422 -49.836 -124.394 -49.836 -124.058 L -44.642 -124.058 Z " fill="black" /><path d="M -37.096 -128.538 C -37.096 -129.658 -37.166 -130.778 -37.656 -131.814 C -38.3 -133.158 -39.448 -133.382 -40.036 -133.382 C -40.876 -133.382 -41.898 -133.018 -42.472 -131.716 C -42.92 -130.75 -42.99 -129.658 -42.99 -128.538 C -42.99 -127.488 -42.934 -126.228 -42.36 -125.164 C -41.758 -124.03 -40.736 -123.75 -40.05 -123.75 C -39.294 -123.75 -38.23 -124.044 -37.614 -125.374 C -37.166 -126.34 -37.096 -127.432 -37.096 -128.538 Z M -38.258 -128.706 C -38.258 -127.656 -38.258 -126.704 -38.412 -125.808 C -38.622 -124.478 -39.42 -124.058 -40.05 -124.058 C -40.596 -124.058 -41.422 -124.408 -41.674 -125.752 C -41.828 -126.592 -41.828 -127.88 -41.828 -128.706 C -41.828 -129.602 -41.828 -130.526 -41.716 -131.282 C -41.45 -132.948 -40.4 -133.074 -40.05 -133.074 C -39.588 -133.074 -38.664 -132.822 -38.398 -131.436 C -38.258 -130.652 -38.258 -129.588 -38.258 -128.706 Z " fill="black" /><path d="M -30.096 -128.538 C -30.096 -129.658 -30.166 -130.778 -30.656 -131.814 C -31.3 -133.158 -32.448 -133.382 -33.036 -133.382 C -33.876 -133.382 -34.898 -133.018 -35.472 -131.716 C -35.92 -130.75 -35.99 -129.658 -35.99 -128.538 C -35.99 -127.488 -35.934 -126.228 -35.36 -125.164 C -34.758 -124.03 -33.736 -123.75 -33.05 -123.75 C -32.294 -123.75 -31.23 -124.044 -30.614 -125.374 C -30.166 -126.34 -30.096 -127.432 -30.096 -128.538 Z M -31.258 -128.706 C -31.258 -127.656 -31.258 -126.704 -31.412 -125.808 C -31.622 -124.478 -32.42 -124.058 -33.05 -124.058 C -33.596 -124.058 -34.422 -124.408 -34.674 -125.752 C -34.828 -126.592 -34.828 -127.88 -34.828 -128.706 C -34.828 -129.602 -34.828 -130.526 -34.716 -131.282 C -34.45 -132.948 -33.4 -133.074 -33.05 -133.074 C -32.588 -133.074 -31.664 -132.822 -31.398 -131.436 C -31.258 -130.652 -31.258 -129.588 -31.258 -128.706 Z " fill="black" /><path d="M -20.058 -126.326 L -20.408 -126.326 C -20.478 -125.962 -20.534 -125.64 -20.66 -125.304 C -20.73 -125.08 -20.772 -124.968 -21.584 -124.968 L -22.704 -124.968 C -22.522 -125.752 -22.088 -126.424 -21.458 -127.348 C -20.8 -128.342 -20.226 -129.308 -20.226 -130.414 C -20.226 -132.36 -22.116 -133.928 -24.482 -133.928 C -26.89 -133.928 -28.752 -132.332 -28.752 -130.414 C -28.752 -129.308 -28.178 -128.342 -27.52 -127.348 C -26.904 -126.424 -26.456 -125.752 -26.274 -124.968 L -27.394 -124.968 C -28.206 -124.968 -28.248 -125.08 -28.318 -125.29 C -28.43 -125.612 -28.5 -125.976 -28.57 -126.326 L -28.92 -126.326 L -28.458 -124.058 L -26.218 -124.058 C -25.91 -124.058 -25.868 -124.058 -25.868 -124.352 C -25.868 -125.332 -26.302 -126.564 -26.624 -127.46 C -26.918 -128.272 -27.31 -129.378 -27.31 -130.428 C -27.31 -132.668 -25.77 -133.62 -24.496 -133.62 C -23.152 -133.62 -21.668 -132.612 -21.668 -130.428 C -21.668 -129.378 -22.046 -128.314 -22.452 -127.166 C -22.662 -126.578 -23.11 -125.318 -23.11 -124.352 C -23.11 -124.058 -23.068 -124.058 -22.746 -124.058 L -20.52 -124.058 Z " fill="black" /></g></g></g><g><g><g><path d="M -78.954 -185.8 C -78.954 -185.324 -79.178 -184.358 -79.724 -183.812 C -80.088 -183.448 -80.83 -183 -82.09 -183 L -83.658 -183 L -82.748 -186.654 C -82.664 -186.99 -82.622 -187.13 -82.356 -187.172 C -82.23 -187.186 -81.782 -187.186 -81.502 -187.186 C -80.508 -187.186 -78.954 -187.186 -78.954 -185.8 Z M -77.428 -179.36 C -77.428 -179.528 -77.596 -179.528 -77.596 -179.528 C -77.722 -179.528 -77.75 -179.43 -77.778 -179.332 C -78.128 -178.296 -78.73 -178.058 -79.052 -178.058 C -79.514 -178.058 -79.612 -178.366 -79.612 -178.912 C -79.612 -179.346 -79.528 -180.06 -79.472 -180.508 C -79.444 -180.704 -79.416 -180.97 -79.416 -181.166 C -79.416 -182.244 -80.354 -182.678 -80.732 -182.818 C -79.318 -183.126 -77.652 -184.106 -77.652 -185.52 C -77.652 -186.724 -78.912 -187.62 -80.746 -187.62 L -84.736 -187.62 C -85.016 -187.62 -85.142 -187.62 -85.142 -187.34 C -85.142 -187.186 -85.016 -187.186 -84.75 -187.186 C -84.75 -187.186 -84.456 -187.186 -84.218 -187.158 C -83.966 -187.13 -83.84 -187.116 -83.84 -186.934 C -83.84 -186.878 -83.854 -186.836 -83.896 -186.668 L -85.772 -179.15 C -85.912 -178.604 -85.94 -178.492 -87.046 -178.492 C -87.298 -178.492 -87.424 -178.492 -87.424 -178.212 C -87.424 -178.058 -87.228 -178.058 -87.228 -178.058 C -87.228 -178.058 -85.464 -178.1 -85.464 -178.1 C -85.464 -178.1 -83.686 -178.1 -83.686 -178.1 C -83.574 -178.1 -83.406 -178.1 -83.406 -178.38 C -83.406 -178.534 -83.532 -178.534 -83.798 -178.534 C -84.316 -178.534 -84.708 -178.534 -84.708 -178.786 C -84.708 -178.87 -84.68 -178.94 -84.666 -179.024 L -83.742 -182.734 L -82.076 -182.734 C -80.802 -182.734 -80.55 -181.95 -80.55 -181.46 C -80.55 -181.25 -80.662 -180.816 -80.746 -180.494 C -80.844 -180.102 -80.97 -179.584 -80.97 -179.304 C -80.97 -177.792 -79.29 -177.792 -79.108 -177.792 C -77.918 -177.792 -77.428 -179.206 -77.428 -179.402 Z " fill="black" /><path d="M -72.737 -174.6 L -72.737 -174.953 L -73.109 -174.953 C -74.089 -174.953 -74.089 -175.08 -74.089 -175.404 L -74.089 -180.833 C -74.089 -181.097 -74.109 -181.107 -74.383 -181.107 C -75.01 -180.49 -75.902 -180.48 -76.304 -180.48 L -76.304 -180.127 C -76.069 -180.127 -75.422 -180.127 -74.883 -180.402 L -74.883 -175.404 C -74.883 -175.08 -74.883 -174.953 -75.863 -174.953 L -76.235 -174.953 L -76.235 -174.6 C -76.235 -174.6 -74.491 -174.639 -74.491 -174.639 C -74.491 -174.639 -72.737 -174.639 -72.737 -174.639 Z " fill="black" /><path d="M -56.504 -182.916 C -56.504 -183.07 -56.63 -183.196 -56.784 -183.196 L -65.548 -183.196 C -65.702 -183.196 -65.828 -183.07 -65.828 -182.916 C -65.828 -182.762 -65.702 -182.636 -65.548 -182.636 L -56.784 -182.636 C -56.63 -182.636 -56.504 -182.762 -56.504 -182.916 Z M -56.504 -180.2 C -56.504 -180.354 -56.63 -180.48 -56.784 -180.48 L -65.548 -180.48 C -65.702 -180.48 -65.828 -180.354 -65.828 -180.2 C -65.828 -180.046 -65.702 -179.92 -65.548 -179.92 L -56.784 -179.92 C -56.63 -179.92 -56.504 -180.046 -56.504 -180.2 Z " fill="black" /><path d="M -44.67 -178.058 L -44.67 -178.492 L -45.118 -178.492 C -46.378 -178.492 -46.42 -178.646 -46.42 -179.164 L -46.42 -187.018 C -46.42 -187.354 -46.42 -187.382 -46.742 -187.382 C -47.61 -186.486 -48.842 -186.486 -49.29 -186.486 L -49.29 -186.052 C -49.01 -186.052 -48.184 -186.052 -47.456 -186.416 L -47.456 -179.164 C -47.456 -178.66 -47.498 -178.492 -48.758 -178.492 L -49.206 -178.492 L -49.206 -178.058 C -48.716 -178.1 -47.498 -178.1 -46.938 -178.1 C -46.378 -178.1 -45.16 -178.1 -44.67 -178.1 Z " fill="black" /><path d="M -37.096 -182.538 C -37.096 -183.658 -37.166 -184.778 -37.656 -185.814 C -38.3 -187.158 -39.448 -187.382 -40.036 -187.382 C -40.876 -187.382 -41.898 -187.018 -42.472 -185.716 C -42.92 -184.75 -42.99 -183.658 -42.99 -182.538 C -42.99 -181.488 -42.934 -180.228 -42.36 -179.164 C -41.758 -178.03 -40.736 -177.75 -40.05 -177.75 C -39.294 -177.75 -38.23 -178.044 -37.614 -179.374 C -37.166 -180.34 -37.096 -181.432 -37.096 -182.538 Z M -38.258 -182.706 C -38.258 -181.656 -38.258 -180.704 -38.412 -179.808 C -38.622 -178.478 -39.42 -178.058 -40.05 -178.058 C -40.596 -178.058 -41.422 -178.408 -41.674 -179.752 C -41.828 -180.592 -41.828 -181.88 -41.828 -182.706 C -41.828 -183.602 -41.828 -184.526 -41.716 -185.282 C -41.45 -186.948 -40.4 -187.074 -40.05 -187.074 C -39.588 -187.074 -38.664 -186.822 -38.398 -185.436 C -38.258 -184.652 -38.258 -183.588 -38.258 -182.706 Z " fill="black" /><path d="M -30.096 -182.538 C -30.096 -183.658 -30.166 -184.778 -30.656 -185.814 C -31.3 -187.158 -32.448 -187.382 -33.036 -187.382 C -33.876 -187.382 -34.898 -187.018 -35.472 -185.716 C -35.92 -184.75 -35.99 -183.658 -35.99 -182.538 C -35.99 -181.488 -35.934 -180.228 -35.36 -179.164 C -34.758 -178.03 -33.736 -177.75 -33.05 -177.75 C -32.294 -177.75 -31.23 -178.044 -30.614 -179.374 C -30.166 -180.34 -30.096 -181.432 -30.096 -182.538 Z M -31.258 -182.706 C -31.258 -181.656 -31.258 -180.704 -31.412 -179.808 C -31.622 -178.478 -32.42 -178.058 -33.05 -178.058 C -33.596 -178.058 -34.422 -178.408 -34.674 -179.752 C -34.828 -180.592 -34.828 -181.88 -34.828 -182.706 C -34.828 -183.602 -34.828 -184.526 -34.716 -185.282 C -34.45 -186.948 -33.4 -187.074 -33.05 -187.074 C -32.588 -187.074 -31.664 -186.822 -31.398 -185.436 C -31.258 -184.652 -31.258 -183.588 -31.258 -182.706 Z " fill="black" /><path d="M -20.058 -180.326 L -20.408 -180.326 C -20.478 -179.962 -20.534 -179.64 -20.66 -179.304 C -20.73 -179.08 -20.772 -178.968 -21.584 -178.968 L -22.704 -178.968 C -22.522 -179.752 -22.088 -180.424 -21.458 -181.348 C -20.8 -182.342 -20.226 -183.308 -20.226 -184.414 C -20.226 -186.36 -22.116 -187.928 -24.482 -187.928 C -26.89 -187.928 -28.752 -186.332 -28.752 -184.414 C -28.752 -183.308 -28.178 -182.342 -27.52 -181.348 C -26.904 -180.424 -26.456 -179.752 -26.274 -178.968 L -27.394 -178.968 C -28.206 -178.968 -28.248 -179.08 -28.318 -179.29 C -28.43 -179.612 -28.5 -179.976 -28.57 -180.326 L -28.92 -180.326 L -28.458 -178.058 L -26.218 -178.058 C -25.91 -178.058 -25.868 -178.058 -25.868 -178.352 C -25.868 -179.332 -26.302 -180.564 -26.624 -181.46 C -26.918 -182.272 -27.31 -183.378 -27.31 -184.428 C -27.31 -186.668 -25.77 -187.62 -24.496 -187.62 C -23.152 -187.62 -21.668 -186.612 -21.668 -184.428 C -21.668 -183.378 -22.046 -182.314 -22.452 -181.166 C -22.662 -180.578 -23.11 -179.318 -23.11 -178.352 C -23.11 -178.058 -23.068 -178.058 -22.746 -178.058 L -20.52 -178.058 Z " fill="black" /></g></g></g></svg>