<?xml version="1.0" encoding="utf-8" standalone="no"?>
<!DOCTYPE svg PUBLIC "-//W3C//DTD SVG 1.1//EN"
  "http://www.w3.org/Graphics/SVG/1.1/DTD/svg11.dtd">
<svg xmlns:xlink="http://www.w3.org/1999/xlink" width="228.06pt" height="148.86pt" viewBox="0 0 228.06 148.86" xmlns="http://www.w3.org/2000/svg" version="1.1">
 <metadata>
  <rdf:RDF xmlns:dc="http://purl.org/dc/elements/1.1/" xmlns:cc="http://creativecommons.org/ns#" xmlns:rdf="http://www.w3.org/1999/02/22-rdf-syntax-ns#">
   <cc:Work>
    <dc:type rdf:resource="http://purl.org/dc/dcmitype/StillImage"/>
    <dc:date>2024-11-17T15:22:09.803535</dc:date>
    <dc:format>image/svg+xml</dc:format>
    <dc:creator>
     <cc:Agent>
      <dc:title>Matplotlib v3.9.2, https://matplotlib.org/</dc:title>
     </cc:Agent>
    </dc:creator>
   </cc:Work>
  </rdf:RDF>
 </metadata>
 <defs>
  <style type="text/css">*{stroke-linejoin: round; stroke-linecap: butt}</style>
 </defs>
 <g id="figure_1">
  <g id="patch_1">
   <path d="M 0 148.86 
L 228.06 148.86 
L 228.06 0 
L 0 0 
L 0 148.86 
z
" style="fill: none"/>
  </g>
  <g id="axes_1">
   <g id="patch_2">
    <path d="M 61.38 40.68 
C 66.153656 40.68 70.732438 38.783406 74.107922 35.407922 
C 77.483406 32.032438 79.38 27.453656 79.38 22.68 
C 79.38 17.906344 77.483406 13.327562 74.107922 9.952078 
C 70.732438 6.576594 66.153656 4.68 61.38 4.68 
C 56.606344 4.68 52.027562 6.576594 48.652078 9.952078 
C 45.276594 13.327562 43.38 17.906344 43.38 22.68 
C 43.38 27.453656 45.276594 32.032438 48.652078 35.407922 
C 52.027562 38.783406 56.606344 40.68 61.38 40.68 
L 61.38 40.68 
z
" clip-path="url(#pd23a7a9741)" style="fill: none; stroke: #000000; stroke-width: 2; stroke-linejoin: miter"/>
   </g>
   <g id="line2d_1">
    <path d="M 223.38 130.68 
L 118.755 130.68 
M 112.005 130.68 
L 7.38 130.68 
" clip-path="url(#pd23a7a9741)" style="fill: none; stroke: #000000; stroke-width: 2; stroke-linecap: round"/>
   </g>
   <g id="line2d_2">
    <path d="M 118.755 144.18 
L 118.755 117.18 
" clip-path="url(#pd23a7a9741)" style="fill: none; stroke: #000000; stroke-width: 2; stroke-linecap: round"/>
   </g>
   <g id="line2d_3">
    <path d="M 112.005 137.43 
L 112.005 123.93 
" clip-path="url(#pd23a7a9741)" style="fill: none; stroke: #000000; stroke-width: 2; stroke-linecap: round"/>
   </g>
   <g id="line2d_4">
    <path d="M 7.38 130.68 
L 7.38 103.68 
L 7.38 76.68 
" clip-path="url(#pd23a7a9741)" style="fill: none; stroke: #000000; stroke-width: 2; stroke-linecap: round"/>
   </g>
   <g id="line2d_5">
    <path d="M 7.38 76.68 
L 7.38 49.68 
L 7.38 22.68 
" clip-path="url(#pd23a7a9741)" style="fill: none; stroke: #000000; stroke-width: 2; stroke-linecap: round"/>
   </g>
   <g id="line2d_6">
    <path d="M 7.38 22.68 
L 43.38 22.68 
L 43.38 22.68 
M 79.38 22.68 
L 79.38 22.68 
L 115.38 22.68 
" clip-path="url(#pd23a7a9741)" style="fill: none; stroke: #000000; stroke-width: 2; stroke-linecap: round"/>
   </g>
   <g id="line2d_7">
    <path d="M 115.38 22.68 
L 115.38 49.68 
L 115.38 76.68 
" clip-path="url(#pd23a7a9741)" style="fill: none; stroke: #000000; stroke-width: 2; stroke-linecap: round"/>
   </g>
   <g id="line2d_8">
    <path d="M 7.38 76.68 
L 43.38 76.68 
L 43.38 67.68 
L 79.38 67.68 
L 79.38 85.68 
L 43.38 85.68 
L 43.38 76.68 
M 79.38 76.68 
L 115.38 76.68 
" clip-path="url(#pd23a7a9741)" style="fill: none; stroke: #000000; stroke-width: 2; stroke-linecap: round"/>
   </g>
   <g id="line2d_9">
    <path d="M 115.38 76.68 
L 151.38 76.68 
L 151.38 67.68 
L 187.38 67.68 
L 187.38 85.68 
L 151.38 85.68 
L 151.38 76.68 
M 187.38 76.68 
L 223.38 76.68 
" clip-path="url(#pd23a7a9741)" style="fill: none; stroke: #000000; stroke-width: 2; stroke-linecap: round"/>
   </g>
   <g id="line2d_10">
    <path d="M 223.38 76.68 
L 223.38 103.68 
L 223.38 130.68 
" clip-path="url(#pd23a7a9741)" style="fill: none; stroke: #000000; stroke-width: 2; stroke-linecap: round"/>
   </g>
   <g id="patch_3">
    <path d="M 7.38 79.38 
C 8.096048 79.38 8.782866 79.095511 9.289188 78.589188 
C 9.795511 78.082866 10.08 77.396048 10.08 76.68 
C 10.08 75.963952 9.795511 75.277134 9.289188 74.770812 
C 8.782866 74.264489 8.096048 73.98 7.38 73.98 
C 6.663952 73.98 5.977134 74.264489 5.470812 74.770812 
C 4.964489 75.277134 4.68 75.963952 4.68 76.68 
C 4.68 77.396048 4.964489 78.082866 5.470812 78.589188 
C 5.977134 79.095511 6.663952 79.38 7.38 79.38 
z
" clip-path="url(#pd23a7a9741)" style="stroke: #000000; stroke-width: 2; stroke-linejoin: miter"/>
   </g>
   <g id="text_1">
    <!-- V -->
    <g transform="translate(56.13 26.18) scale(0.14 -0.14)">
     <defs>
      <path id="NewCMMath-Book-56" d="M 3981 3718 
C 4083 3981 4314 4115 4672 4122 
L 4672 4371 
C 4397 4352 4186 4346 4032 4352 
L 3283 4371 
L 3283 4128 
C 3597 4122 3750 4019 3750 3834 
C 3750 3808 3738 3770 3718 3718 
L 2586 730 
L 1395 3859 
C 1376 3923 1363 3962 1363 3968 
C 1363 4070 1536 4122 1882 4122 
L 1882 4371 
C 1613 4352 1306 4346 954 4352 
L 122 4371 
L 122 4122 
C 358 4122 512 4109 582 4090 
C 653 4070 704 4006 742 3898 
L 2214 13 
C 2253 -90 2310 -141 2394 -141 
C 2477 -141 2534 -96 2566 -6 
L 3981 3718 
z
" transform="scale(0.015625)"/>
     </defs>
     <use xlink:href="#NewCMMath-Book-56"/>
    </g>
   </g>
   <g id="patch_4">
    <path d="M 115.38 79.38 
C 116.096048 79.38 116.782866 79.095511 117.289188 78.589188 
C 117.795511 78.082866 118.08 77.396048 118.08 76.68 
C 118.08 75.963952 117.795511 75.277134 117.289188 74.770812 
C 116.782866 74.264489 116.096048 73.98 115.38 73.98 
C 114.663952 73.98 113.977134 74.264489 113.470812 74.770812 
C 112.964489 75.277134 112.68 75.963952 112.68 76.68 
C 112.68 77.396048 112.964489 78.082866 113.470812 78.589188 
C 113.977134 79.095511 114.663952 79.38 115.38 79.38 
z
" clip-path="url(#pd23a7a9741)" style="stroke: #000000; stroke-width: 2; stroke-linejoin: miter"/>
   </g>
  </g>
 </g>
 <defs>
  <clipPath id="pd23a7a9741">
   <rect x="0" y="-0" width="228.06" height="148.86"/>
  </clipPath>
 </defs>
</svg>
