<?xml version="1.0" encoding="utf-8" standalone="no"?>
<!DOCTYPE svg PUBLIC "-//W3C//DTD SVG 1.1//EN"
  "http://www.w3.org/Graphics/SVG/1.1/DTD/svg11.dtd">
<svg xmlns:xlink="http://www.w3.org/1999/xlink" width="95.76pt" height="44.46pt" viewBox="0 0 95.76 44.46" xmlns="http://www.w3.org/2000/svg" version="1.1">
 <metadata>
  <rdf:RDF xmlns:dc="http://purl.org/dc/elements/1.1/" xmlns:cc="http://creativecommons.org/ns#" xmlns:rdf="http://www.w3.org/1999/02/22-rdf-syntax-ns#">
   <cc:Work>
    <dc:type rdf:resource="http://purl.org/dc/dcmitype/StillImage"/>
    <dc:date>2024-11-03T15:05:39.815690</dc:date>
    <dc:format>image/svg+xml</dc:format>
    <dc:creator>
     <cc:Agent>
      <dc:title>Matplotlib v3.9.2, https://matplotlib.org/</dc:title>
     </cc:Agent>
    </dc:creator>
   </cc:Work>
  </rdf:RDF>
 </metadata>
 <defs>
  <style type="text/css">*{stroke-linejoin: round; stroke-linecap: butt}</style>
 </defs>
 <g id="figure_1">
  <g id="patch_1">
   <path d="M 0 44.46 
L 95.76 44.46 
L 95.76 0 
L 0 0 
L 0 44.46 
z
" style="fill: none"/>
  </g>
  <g id="axes_1">
   <g id="line2d_1">
    <path d="M 4.68 7.38 
L 31.68 7.38 
L 58.68 7.38 
" clip-path="url(#p191e21f9fc)" style="fill: none; stroke: #000000; stroke-width: 2; stroke-linecap: round"/>
   </g>
   <g id="line2d_2">
    <path d="M 58.68 7.38 
L 74.88 7.38 
L 91.08 7.38 
" clip-path="url(#p191e21f9fc)" style="fill: none; stroke: #000000; stroke-width: 2; stroke-linecap: round"/>
   </g>
   <g id="line2d_3">
    <path d="M 58.68 7.38 
L 58.68 23.58 
L 58.68 39.78 
" clip-path="url(#p191e21f9fc)" style="fill: none; stroke: #000000; stroke-width: 2; stroke-linecap: round"/>
   </g>
   <g id="patch_2">
    <path d="M 58.68 10.08 
C 59.396048 10.08 60.082866 9.795511 60.589188 9.289188 
C 61.095511 8.782866 61.38 8.096048 61.38 7.38 
C 61.38 6.663952 61.095511 5.977134 60.589188 5.470812 
C 60.082866 4.964489 59.396048 4.68 58.68 4.68 
C 57.963952 4.68 57.277134 4.964489 56.770812 5.470812 
C 56.264489 5.977134 55.98 6.663952 55.98 7.38 
C 55.98 8.096048 56.264489 8.782866 56.770812 9.289188 
C 57.277134 9.795511 57.963952 10.08 58.68 10.08 
z
" clip-path="url(#p191e21f9fc)" style="stroke: #000000; stroke-width: 2; stroke-linejoin: miter"/>
   </g>
  </g>
 </g>
 <defs>
  <clipPath id="p191e21f9fc">
   <rect x="0" y="-0" width="95.76" height="44.46"/>
  </clipPath>
 </defs>
</svg>
