<?xml version="1.0" encoding="UTF-8" standalone="no"?>
<!-- Created with Digital by H.Neemann -->
<!-- created: Sun Oct 20 18:44:08 CEST 2024 -->

<svg
   xmlns:svg="http://www.w3.org/2000/svg"
   xmlns="http://www.w3.org/2000/svg"
   width="51.9mm"
   height="26.1mm"
   viewBox="207 343 346 174">
<g stroke-linecap="square">
<path d="M 240,400 L 280,400" stroke="#000000" stroke-width="2.8" fill="none"/>
<path d="M 340,480 L 380,480 L 380,460 L 400,460" stroke="#000000" stroke-width="2.8" fill="none"/>
<path d="M 240,500 L 280,500" stroke="#000000" stroke-width="2.8" fill="none"/>
<path d="M 240,360 L 280,360" stroke="#000000" stroke-width="2.8" fill="none"/>
<path d="M 480,440 L 520,440" stroke="#000000" stroke-width="2.8" fill="none"/>
<path d="M 240,460 L 280,460" stroke="#000000" stroke-width="2.8" fill="none"/>
<path d="M 360,380 L 380,380 L 380,420 L 400,420" stroke="#000000" stroke-width="2.8" fill="none"/>
<g>
</g>
<g>
<path d="M 209,345 L 239,345 L 239,375 L 209,375 Z" stroke="#000000" stroke-width="2.8" fill="none"/>
<circle cx="224.0" cy="360.0" r="9.0" stroke="#000000" stroke-width="2.8" fill="none" />
</g>
<g>
<path d="M 209,385 L 239,385 L 239,415 L 209,415 Z" stroke="#000000" stroke-width="2.8" fill="none"/>
<circle cx="224.0" cy="400.0" r="9.0" stroke="#000000" stroke-width="2.8" fill="none" />
</g>
<g>
<path d="M 209,445 L 239,445 L 239,475 L 209,475 Z" stroke="#000000" stroke-width="2.8" fill="none"/>
<circle cx="224.0" cy="460.0" r="9.0" stroke="#000000" stroke-width="2.8" fill="none" />
</g>
<g>
<circle cx="536.0" cy="440.0" r="9.0" stroke="#000000" stroke-width="2.8" fill="none" />
<circle cx="536.0" cy="440.0" r="15.0" stroke="#000000" stroke-width="2.8" fill="none" />
</g>
<g>
<path d="M 281,350 L 339,350 L 339,410 L 281,410 Z" stroke="#000000" stroke-width="2.8" fill="none"/>
<circle cx="350.0" cy="380.0" r="9.0" stroke="#000000" stroke-width="2.8" fill="none" />
<text text-anchor="middle" x="310.0" y="372.0" fill="#000000" style="font-size:24px">&amp;</text>
</g>
<g>
<path d="M 209,485 L 239,485 L 239,515 L 209,515 Z" stroke="#000000" stroke-width="2.8" fill="none"/>
<circle cx="224.0" cy="500.0" r="9.0" stroke="#000000" stroke-width="2.8" fill="none" />
</g>
<g>
<path d="M 281,450 L 339,450 L 339,510 L 281,510 Z" stroke="#000000" stroke-width="2.8" fill="none"/>
<text text-anchor="middle" x="310.0" y="472.0" fill="#000000" style="font-size:24px">&amp;</text>
</g>
<g>
<path d="M 401,410 L 459,410 L 459,470 L 401,470 Z" stroke="#000000" stroke-width="2.8" fill="none"/>
<circle cx="470.0" cy="440.0" r="9.0" stroke="#000000" stroke-width="2.8" fill="none" />
<text text-anchor="middle" x="430.0" y="432.0" fill="#000000" style="font-size:24px">&amp;</text>
</g>
</g>
</svg>