<?xml version="1.0" encoding="UTF-8" standalone="no"?>
<!-- Created with Inkscape (http://www.inkscape.org/) -->

<svg
   width="35.201214mm"
   height="12.367395mm"
   viewBox="0 0 35.201214 12.367396"
   version="1.1"
   id="svg1"
   inkscape:version="1.3.2 (091e20ef0f, 2023-11-25)"
   sodipodi:docname="hex-ex2.svg"
   inkscape:export-filename="binar-ex1-export.svg"
   inkscape:export-xdpi="1000"
   inkscape:export-ydpi="1000"
   xmlns:inkscape="http://www.inkscape.org/namespaces/inkscape"
   xmlns:sodipodi="http://sodipodi.sourceforge.net/DTD/sodipodi-0.dtd"
   xmlns="http://www.w3.org/2000/svg"
   xmlns:svg="http://www.w3.org/2000/svg"
   xmlns:ns3="http://www.iki.fi/pav/software/textext/">
  <sodipodi:namedview
     id="namedview1"
     pagecolor="#ffffff"
     bordercolor="#000000"
     borderopacity="0.25"
     inkscape:showpageshadow="2"
     inkscape:pageopacity="0.0"
     inkscape:pagecheckerboard="0"
     inkscape:deskcolor="#d1d1d1"
     inkscape:document-units="mm"
     inkscape:zoom="4.8688381"
     inkscape:cx="51.552341"
     inkscape:cy="24.543843"
     inkscape:window-width="1920"
     inkscape:window-height="1043"
     inkscape:window-x="0"
     inkscape:window-y="0"
     inkscape:window-maximized="1"
     inkscape:current-layer="svg1" />
  <defs
     id="defs1">
    <rect
       x="195.31625"
       y="305.09875"
       width="243.10994"
       height="136.99475"
       id="rect1" />
  </defs>
  <path
     d="M 12.656047,5.2012322 V 4.6159741 h 2.785532 v 0.5852581 z m 5.008035,0 V 4.6159741 h 2.785533 v 0.5852581 z m 5.008036,0 V 4.6159741 h 2.785532 v 0.5852581 z m 5.267326,0.4000498 0.348192,-0.9038163 q -0.170392,-0.029633 -0.288925,-0.1629832 -0.111125,-0.13335 -0.111125,-0.3111499 0,-0.1926166 0.140758,-0.3333748 0.140759,-0.1407583 0.333375,-0.1407583 0.200025,0 0.340783,0.1407583 0.140759,0.1407582 0.140759,0.3333748 0,0.0889 -0.03704,0.1852083 L 28.346903,5.601282 Z M 31.273198,5.2012322 V 4.6159741 h 2.785532 v 0.5852581 z"
     id="text4"
     style="font-size:7.40833px;font-family:'Atkinson Hyperlegible';-inkscape-font-specification:'Atkinson Hyperlegible';stroke-width:2"
     aria-label="_ _ _ , _ " />
  <path
     d="M 22.97594,3.770486 V 0 h 2.449687 V 0.4571996 H 23.506518 V 1.603021 h 1.919109 V 2.0602207 H 23.506518 V 3.770486 Z"
     id="text6"
     style="font-size:5.64444px;font-family:'Atkinson Hyperlegible';-inkscape-font-specification:'Atkinson Hyperlegible';stroke-width:2"
     aria-label="F" />
  <path
     d="M 19.043138,3.770486 V 0.9256882 h -1.00471 V 0.5475107 q 0.270933,0 0.502355,-0.039511 0.237066,-0.039511 0.406399,-0.1580443 0.174978,-0.1185333 0.254,-0.3499553 h 0.316089 v 3.770486 z"
     id="text5"
     style="font-size:5.64444px;font-family:'Atkinson Hyperlegible';-inkscape-font-specification:'Atkinson Hyperlegible';stroke-width:2"
     aria-label="1" />
  <path
     d="M 13.309657,8.7094022 V 8.4977357 q 0.333022,-0.2455331 0.567266,-0.4515552 0.237066,-0.2060221 0.361244,-0.3838219 0.127,-0.1806221 0.127,-0.3471331 0,-0.1467554 -0.09313,-0.2370665 -0.09313,-0.090311 -0.259644,-0.090311 -0.132645,0 -0.248356,0.073378 -0.112889,0.070555 -0.146755,0.2427109 l -0.237067,-0.067733 q 0.0508,-0.2060221 0.220133,-0.3245554 0.169334,-0.1213554 0.417689,-0.1213554 0.174978,0 0.307622,0.059267 0.135467,0.056444 0.211666,0.166511 0.07902,0.1100666 0.07902,0.2681109 0,0.1636888 -0.07902,0.3217331 -0.07902,0.1552221 -0.21731,0.3047998 -0.138289,0.1467554 -0.316089,0.2935108 -0.1778,0.1439333 -0.375355,0.2878665 h 1.038577 v 0.2173109 z m 6.025449,0 V 7.2870033 H 18.83275 V 7.0979146 q 0.135467,0 0.251178,-0.019756 0.118533,-0.019756 0.2032,-0.079022 0.08749,-0.059267 0.127,-0.1749777 h 0.158044 v 1.885243 z m 4.588938,0.033867 q -0.364067,0 -0.555978,-0.2511776 -0.189088,-0.2539998 -0.189088,-0.7281328 0,-0.4713107 0.189088,-0.7224883 0.191911,-0.2511776 0.555978,-0.2511776 0.364066,0 0.553155,0.2511776 0.191911,0.2511776 0.191911,0.7224883 0,0.474133 -0.191911,0.7281328 -0.189089,0.2511776 -0.553155,0.2511776 z M 24.36431,8.1731804 q 0.04798,-0.1693332 0.04798,-0.4092219 0,-0.3697108 -0.121356,-0.5672662 -0.118533,-0.1975554 -0.366888,-0.1975554 -0.183444,0 -0.301978,0.1128888 z m -0.440266,0.3612442 q 0.194733,0 0.313266,-0.1269999 L 23.492244,7.3378033 q -0.02822,0.087489 -0.04233,0.1947332 -0.01411,0.1072443 -0.01411,0.231422 0,0.3697108 0.118533,0.5700885 0.121355,0.2003776 0.369711,0.2003776 z M 32.057701,8.1223805 V 7.8937806 h 0.824088 v 0.2285999 z m 1.419576,0.5870217 V 7.2870033 H 32.974921 V 7.0979146 q 0.135467,0 0.251178,-0.019756 0.118533,-0.019756 0.2032,-0.079022 0.08749,-0.059267 0.127,-0.1749777 h 0.158044 v 1.885243 z"
     id="text9"
     style="font-size:2.82222px;font-family:'Atkinson Hyperlegible';-inkscape-font-specification:'Atkinson Hyperlegible';fill:#404040;stroke-width:1.241"
     aria-label="2     1    0         -1 " />
  <g
     id="text3"
     style="font-size:2.82222px;font-family:'Atkinson Hyperlegible';-inkscape-font-specification:'Atkinson Hyperlegible';text-align:end;text-anchor:end;fill:#404040;stroke-width:1.241"
     aria-label="162 161  160      16-1"
     transform="translate(5.0514318e-8,-1.0424889)">
    <path
       d="m 13.341408,13.376014 v -1.422399 h -0.502356 v -0.189089 q 0.135467,0 0.251178,-0.01975 0.118533,-0.01976 0.2032,-0.07902 0.08749,-0.05927 0.127,-0.174977 h 0.158044 v 1.885243 z m 1.368777,0.03387 q -0.352777,0 -0.519288,-0.237066 -0.166511,-0.237067 -0.166511,-0.671688 0,-0.200378 0.03669,-0.386645 0.03951,-0.186266 0.124178,-0.333022 0.08749,-0.149577 0.228599,-0.237066 0.141111,-0.08749 0.347133,-0.08749 0.208845,0 0.338667,0.08749 0.129822,0.08749 0.191911,0.214489 l -0.239889,0.07056 q -0.04233,-0.08184 -0.124178,-0.127 -0.08184,-0.04798 -0.194733,-0.04798 -0.220133,0 -0.338666,0.200377 -0.115711,0.200378 -0.124178,0.527755 0.06491,-0.110066 0.186267,-0.186266 0.121355,-0.0762 0.310444,-0.0762 0.174978,0 0.310444,0.08184 0.138289,0.08185 0.217311,0.225778 0.07902,0.143933 0.07902,0.333022 0,0.174977 -0.08184,0.324555 -0.08184,0.146756 -0.231422,0.237067 -0.146756,0.08749 -0.349956,0.08749 z m 0,-0.200377 q 0.186267,0 0.296334,-0.121356 0.112888,-0.124177 0.112888,-0.318911 0,-0.194733 -0.112888,-0.316088 -0.110067,-0.124178 -0.296334,-0.124178 -0.189088,0 -0.301977,0.124178 -0.110067,0.121355 -0.110067,0.316088 0,0.194734 0.110067,0.318911 0.112889,0.121356 0.301977,0.121356 z"
       id="path1" />
    <path
       style="font-size:1.83444px;baseline-shift:super"
       d="m 15.60511,12.247126 v -0.137583 q 0.216465,-0.159597 0.368723,-0.293511 0.154094,-0.133915 0.234809,-0.249485 0.08255,-0.117404 0.08255,-0.225636 0,-0.09539 -0.06054,-0.154093 -0.06054,-0.0587 -0.168768,-0.0587 -0.08622,0 -0.161431,0.04769 -0.07338,0.04586 -0.09539,0.157762 l -0.154094,-0.04403 q 0.03302,-0.133915 0.143087,-0.210961 0.110067,-0.07888 0.271497,-0.07888 0.113736,0 0.199955,0.03852 0.08805,0.03669 0.137583,0.108232 0.05136,0.07154 0.05136,0.174272 0,0.106398 -0.05136,0.209127 -0.05136,0.100894 -0.141252,0.198119 -0.08989,0.09539 -0.205458,0.190782 -0.11557,0.09356 -0.243981,0.187114 h 0.675075 v 0.141252 z"
       id="path2" />
    <path
       d="m 17.96096,13.376014 v -1.422399 h -0.502355 v -0.189089 q 0.135467,0 0.251178,-0.01975 0.118533,-0.01976 0.203199,-0.07902 0.08749,-0.05927 0.127,-0.174977 h 0.158045 v 1.885243 z m 1.368778,0.03387 q -0.352778,0 -0.519289,-0.237066 -0.166511,-0.237067 -0.166511,-0.671688 0,-0.200378 0.03669,-0.386645 0.03951,-0.186266 0.124178,-0.333022 0.08749,-0.149577 0.2286,-0.237066 0.141111,-0.08749 0.347133,-0.08749 0.208844,0 0.338666,0.08749 0.129822,0.08749 0.191911,0.214489 l -0.239889,0.07056 q -0.04233,-0.08184 -0.124177,-0.127 -0.08185,-0.04798 -0.194733,-0.04798 -0.220134,0 -0.338667,0.200377 -0.115711,0.200378 -0.124177,0.527755 0.06491,-0.110066 0.186266,-0.186266 0.121356,-0.0762 0.310444,-0.0762 0.174978,0 0.310444,0.08184 0.138289,0.08185 0.217311,0.225778 0.07902,0.143933 0.07902,0.333022 0,0.174977 -0.08185,0.324555 -0.08184,0.146756 -0.231422,0.237067 -0.146755,0.08749 -0.349955,0.08749 z m 0,-0.200377 q 0.186266,0 0.296333,-0.121356 0.112889,-0.124177 0.112889,-0.318911 0,-0.194733 -0.112889,-0.316088 -0.110067,-0.124178 -0.296333,-0.124178 -0.189089,0 -0.301978,0.124178 -0.110066,0.121355 -0.110066,0.316088 0,0.194734 0.110066,0.318911 0.112889,0.121356 0.301978,0.121356 z"
       id="path3" />
    <path
       style="font-size:1.83444px;baseline-shift:super"
       d="m 20.565869,12.247126 v -0.92456 h -0.326531 v -0.122907 q 0.08805,0 0.163266,-0.01284 0.07705,-0.01284 0.13208,-0.05137 0.05687,-0.03852 0.08255,-0.113735 h 0.102729 v 1.225408 z"
       id="path4" />
    <path
       d="m 23.101074,13.376014 v -1.422399 h -0.502355 v -0.189089 q 0.135466,0 0.251177,-0.01975 0.118534,-0.01976 0.2032,-0.07902 0.08749,-0.05927 0.127,-0.174977 h 0.158045 v 1.885243 z m 1.368778,0.03387 q -0.352777,0 -0.519288,-0.237066 -0.166511,-0.237067 -0.166511,-0.671688 0,-0.200378 0.03669,-0.386645 0.03951,-0.186266 0.124177,-0.333022 0.08749,-0.149577 0.2286,-0.237066 0.141111,-0.08749 0.347133,-0.08749 0.208844,0 0.338667,0.08749 0.129822,0.08749 0.191911,0.214489 l -0.239889,0.07056 q -0.04233,-0.08184 -0.124178,-0.127 -0.08184,-0.04798 -0.194733,-0.04798 -0.220133,0 -0.338666,0.200377 -0.115712,0.200378 -0.124178,0.527755 0.06491,-0.110066 0.186266,-0.186266 0.121356,-0.0762 0.310445,-0.0762 0.174977,0 0.310444,0.08184 0.138289,0.08185 0.217311,0.225778 0.07902,0.143933 0.07902,0.333022 0,0.174977 -0.08184,0.324555 -0.08185,0.146756 -0.231423,0.237067 -0.146755,0.08749 -0.349955,0.08749 z m 0,-0.200377 q 0.186267,0 0.296333,-0.121356 0.112889,-0.124177 0.112889,-0.318911 0,-0.194733 -0.112889,-0.316088 -0.110066,-0.124178 -0.296333,-0.124178 -0.189089,0 -0.301977,0.124178 -0.110067,0.121355 -0.110067,0.316088 0,0.194734 0.110067,0.318911 0.112888,0.121356 0.301977,0.121356 z"
       id="path5" />
    <path
       style="font-size:1.83444px;baseline-shift:super"
       d="m 25.896765,12.269139 q -0.236643,0 -0.361385,-0.163265 -0.122908,-0.1651 -0.122908,-0.473287 0,-0.306352 0.122908,-0.469617 0.124742,-0.163265 0.361385,-0.163265 0.236643,0 0.359551,0.163265 0.124742,0.163265 0.124742,0.469617 0,0.308187 -0.124742,0.473287 -0.122908,0.163265 -0.359551,0.163265 z m 0.286173,-0.370557 q 0.03119,-0.110067 0.03119,-0.265995 0,-0.240312 -0.07888,-0.368723 -0.07705,-0.128411 -0.238478,-0.128411 -0.119239,0 -0.196285,0.07338 z m -0.286173,0.234808 q 0.126577,0 0.203623,-0.08255 l -0.484293,-0.695254 q -0.01834,0.05687 -0.02752,0.126577 -0.0092,0.06971 -0.0092,0.150424 0,0.240312 0.07705,0.370558 0.07888,0.130245 0.240312,0.130245 z"
       id="path6" />
    <path
       d="M 31.853355,13.376014 V 11.953615 H 31.351 v -0.189089 q 0.135467,0 0.251178,-0.01975 0.118533,-0.01976 0.203199,-0.07902 0.08749,-0.05927 0.127,-0.174977 h 0.158045 v 1.885243 z m 1.368779,0.03387 q -0.352777,0 -0.519288,-0.237066 -0.166511,-0.237067 -0.166511,-0.671688 0,-0.200378 0.03669,-0.386645 0.03951,-0.186266 0.124177,-0.333022 0.08749,-0.149577 0.2286,-0.237066 0.141111,-0.08749 0.347133,-0.08749 0.208845,0 0.338667,0.08749 0.129822,0.08749 0.191911,0.214489 l -0.239889,0.07056 q -0.04233,-0.08184 -0.124178,-0.127 -0.08184,-0.04798 -0.194733,-0.04798 -0.220133,0 -0.338666,0.200377 -0.115711,0.200378 -0.124178,0.527755 0.06491,-0.110066 0.186267,-0.186266 0.121355,-0.0762 0.310444,-0.0762 0.174977,0 0.310444,0.08184 0.138289,0.08185 0.217311,0.225778 0.07902,0.143933 0.07902,0.333022 0,0.174977 -0.08184,0.324555 -0.08185,0.146756 -0.231422,0.237067 -0.146756,0.08749 -0.349956,0.08749 z m 0,-0.200377 q 0.186267,0 0.296333,-0.121356 0.112889,-0.124177 0.112889,-0.318911 0,-0.194733 -0.112889,-0.316088 -0.110066,-0.124178 -0.296333,-0.124178 -0.189088,0 -0.301977,0.124178 -0.110067,0.121355 -0.110067,0.316088 0,0.194734 0.110067,0.318911 0.112889,0.121356 0.301977,0.121356 z"
       id="path7" />
    <path
       style="font-size:1.83444px;baseline-shift:super"
       d="m 34.124395,11.865562 v -0.14859 h 0.535658 v 0.14859 z m 0.922725,0.381564 v -0.92456 h -0.326531 v -0.122907 q 0.08805,0 0.163265,-0.01284 0.07705,-0.01284 0.13208,-0.05137 0.05687,-0.03852 0.08255,-0.113735 h 0.102729 v 1.225408 z"
       id="path8" />
  </g>
  <path
     d="M 0,8.9715211 V 7.1173222 h 0.17215542 l 0.0649111,0.2201332 q 0.064911,-0.1100666 0.17779983,-0.1749776 0.11288881,-0.067733 0.27657757,-0.067733 0.16086655,0 0.29633311,0.087489 0.13828887,0.084667 0.22013317,0.2483554 0.084667,0.1608665 0.084667,0.3922886 0,0.2285998 -0.084667,0.3922886 -0.081844,0.1636887 -0.22013317,0.2511775 -0.13546656,0.084667 -0.29633311,0.084667 -0.16368876,0 -0.27657757,-0.064911 -0.1128888,-0.067734 -0.17779986,-0.180623 V 8.9715211 Z M 0.62935508,8.3478102 q 0.18062208,0 0.28786645,-0.1382888 0.11006667,-0.1382888 0.11006667,-0.3866441 0,-0.2511776 -0.11006667,-0.3866442 -0.10724437,-0.1382888 -0.28786645,-0.1382888 -0.18062209,0 -0.29068867,0.1382888 -0.10724436,0.1354666 -0.10724436,0.3866442 0,0.2483553 0.10724436,0.3866441 0.11006658,0.1382888 0.29068867,0.1382888 z M 2.178754,8.55101 q -0.1213555,0 -0.2398887,-0.042333 Q 1.820332,8.4663434 1.7215543,8.3788546 1.6255988,8.2885436 1.5663322,8.1502548 1.5070656,8.011966 1.5070656,7.8228773 q 0,-0.1890888 0.059267,-0.3273776 0.059267,-0.1382888 0.1552221,-0.2257776 0.098778,-0.090311 0.217311,-0.1326443 0.1185332,-0.042333 0.2398887,-0.042333 0.1213554,0 0.2398887,0.042333 0.1213554,0.042333 0.2173109,0.1326443 0.098778,0.087489 0.1552221,0.2257776 0.059267,0.1382888 0.059267,0.3273776 0,0.1890887 -0.059267,0.3273775 Q 2.7347321,8.2885436 2.635954,8.3788546 2.539999,8.4663436 2.4186431,8.5086767 2.3001098,8.5510097 2.178754,8.55101 Z m 0,-0.2088442 q 0.1015999,0 0.1975554,-0.053622 0.095956,-0.056444 0.1580443,-0.1693332 0.062089,-0.1157111 0.062089,-0.2963331 0,-0.1806221 -0.062089,-0.2935109 Q 2.4722647,7.4136555 2.3763094,7.3600334 2.2803534,7.3035894 2.178754,7.3035894 q -0.098778,0 -0.1975554,0.056444 -0.095956,0.053622 -0.1580444,0.1693332 -0.062089,0.1128888 -0.062089,0.2935109 0,0.180622 0.062089,0.2963331 0.062089,0.1128888 0.1580444,0.1693332 0.098778,0.053622 0.1975554,0.053622 z M 3.6321974,8.55101 Q 3.510842,8.55101 3.3923087,8.514321 3.2765977,8.4748101 3.1834645,8.3986102 3.0931534,8.319588 3.0451757,8.2010548 l 0.2285998,-0.084667 q 0.031044,0.1241777 0.1354666,0.1806221 0.1072443,0.053622 0.2229553,0.053622 0.084667,0 0.1580444,-0.0254 0.0762,-0.0254 0.1241777,-0.073378 0.047978,-0.047978 0.047978,-0.1100666 0,-0.115711 -0.093133,-0.1636887 -0.090311,-0.047978 -0.2173109,-0.073378 L 3.4572198,7.8652106 Q 3.3556199,7.8426328 3.2681311,7.8031217 3.1806422,7.7607884 3.1270201,7.6845885 q -0.053622,-0.0762 -0.053622,-0.2031999 0,-0.1269999 0.079022,-0.2116665 0.079022,-0.087489 0.2003777,-0.1326443 0.1241776,-0.045155 0.2596442,-0.045155 0.166511,0 0.3132664,0.070555 0.1495777,0.067733 0.2116665,0.2144887 L 3.9144195,7.4588109 Q 3.8777306,7.3741443 3.7845973,7.3346332 3.6942863,7.2922999 3.5955086,7.2922999 q -0.1072444,0 -0.1947332,0.047978 -0.087489,0.047978 -0.087489,0.1382888 0,0.090311 0.073378,0.1326444 0.0762,0.039511 0.1862665,0.062089 l 0.1834443,0.036689 q 0.1128888,0.022578 0.2144888,0.064911 0.1015999,0.042333 0.1665109,0.1269999 0.064911,0.081844 0.064911,0.2314221 0,0.1326443 -0.081844,0.2257776 -0.081844,0.093133 -0.2116665,0.1439332 -0.1298221,0.047978 -0.276578,0.047977 z m 1.095023,-1.6989765 q -0.070556,0 -0.1241776,-0.0508 -0.0508,-0.053622 -0.0508,-0.1269999 0,-0.073378 0.0508,-0.1241777 0.053622,-0.0508 0.1241776,-0.0508 0.073378,0 0.1241777,0.0508 0.053622,0.0508 0.053622,0.1241777 0,0.073378 -0.053622,0.1269999 -0.0508,0.0508 -0.1241777,0.0508 z M 4.6086872,8.5171434 V 7.306411 H 4.413954 V 7.1173222 h 0.4317997 v 1.3998212 z m 1.0865544,0 q -0.1326443,0 -0.206022,-0.0254 -0.070556,-0.028222 -0.098778,-0.1044221 -0.0254,-0.0762 -0.0254,-0.2201332 V 7.306411 H 5.1279754 V 7.1173222 H 5.3650419 V 6.7645447 H 5.6021084 V 7.1173222 H 5.8730415 V 7.306411 H 5.6021084 v 0.821266 q 0,0.1072444 0.019755,0.1439333 0.022578,0.036689 0.1241777,0.036689 H 5.8730415 V 8.5171434 Z M 6.4261951,6.8520335 q -0.070556,0 -0.1241777,-0.0508 -0.0508,-0.053622 -0.0508,-0.1269999 0,-0.073378 0.0508,-0.1241777 0.053622,-0.0508 0.1241777,-0.0508 0.073378,0 0.1241776,0.0508 0.053622,0.0508 0.053622,0.1241777 0,0.073378 -0.053622,0.1269999 -0.0508,0.0508 -0.1241776,0.0508 z M 6.3076618,8.5171434 V 7.306411 H 6.1129286 V 7.1173222 h 0.4317997 v 1.3998212 z m 1.2417766,0.033867 q -0.1213555,0 -0.2398887,-0.042333 Q 7.1910164,8.4663434 7.0922387,8.3788546 6.9962832,8.2885436 6.9370166,8.1502548 6.87775,8.011966 6.87775,7.8228773 q 0,-0.1890888 0.059267,-0.3273776 0.059267,-0.1382888 0.1552221,-0.2257776 0.098778,-0.090311 0.217311,-0.1326443 0.1185332,-0.042333 0.2398887,-0.042333 0.1213554,0 0.2398887,0.042333 0.1213554,0.042333 0.2173109,0.1326443 0.098778,0.087489 0.1552221,0.2257776 0.059267,0.1382888 0.059267,0.3273776 0,0.1890887 -0.059267,0.3273775 -0.056444,0.1382888 -0.1552221,0.2285998 -0.095955,0.087489 -0.2173109,0.1298221 -0.1185333,0.042333 -0.2398891,0.042334 z m 0,-0.2088442 q 0.1015999,0 0.1975554,-0.053622 0.095955,-0.056444 0.1580443,-0.1693332 0.062089,-0.1157111 0.062089,-0.2963331 0,-0.1806221 -0.062089,-0.2935109 -0.062089,-0.1157111 -0.1580443,-0.1693332 -0.095955,-0.056444 -0.1975554,-0.056444 -0.098778,0 -0.1975554,0.056444 -0.095955,0.053622 -0.1580444,0.1693332 -0.062089,0.1128888 -0.062089,0.2935109 0,0.180622 0.062089,0.2963331 0.062089,0.1128888 0.1580444,0.1693332 0.098778,0.053622 0.1975554,0.053622 z M 8.5259266,8.5171434 V 7.1173222 h 0.1749777 l 0.062089,0.2116665 q 0.059267,-0.098778 0.166511,-0.1665109 0.1072444,-0.067733 0.2850442,-0.067733 0.2539998,0 0.358422,0.1495776 0.1044221,0.1467555 0.1044221,0.3866442 V 8.5171434 H 9.4403259 V 7.7015218 q 0,-0.1072444 -0.019756,-0.1975554 -0.019756,-0.093133 -0.087489,-0.1495777 -0.064911,-0.056444 -0.2003776,-0.056444 -0.1721555,0 -0.2709332,0.1185333 -0.098778,0.115711 -0.098778,0.3414886 V 8.5171434 Z M 10.157168,7.4588109 q -0.07338,0 -0.127,-0.053622 -0.053622,-0.053622 -0.053622,-0.1298221 0,-0.073378 0.053622,-0.1269999 0.05362,-0.053622 0.127,-0.053622 0.0762,0 0.129822,0.053622 0.05362,0.053622 0.05362,0.1269999 0,0.0762 -0.05362,0.1298221 -0.05362,0.053622 -0.129822,0.053622 z m 0,1.0921991 q -0.07338,0 -0.127,-0.053622 -0.053622,-0.053622 -0.053622,-0.1269999 0,-0.0762 0.053622,-0.1298222 0.05362,-0.053622 0.127,-0.053622 0.0762,0 0.129822,0.053622 0.05362,0.053622 0.05362,0.1298222 0,0.073378 -0.05362,0.1269999 -0.05362,0.053622 -0.129822,0.053622 z"
     id="text2"
     style="font-size:2.82222px;font-family:'Atkinson Hyperlegible';-inkscape-font-specification:'Atkinson Hyperlegible';text-align:end;text-anchor:end;fill:#030303;stroke-width:1.241"
     aria-label="position:" />
  <path
     d="M 0,8.9715211 V 7.1173222 h 0.17215542 l 0.0649111,0.2201332 q 0.064911,-0.1100666 0.17779983,-0.1749776 0.11288881,-0.067733 0.27657757,-0.067733 0.16086655,0 0.29633311,0.087489 0.13828887,0.084667 0.22013317,0.2483554 0.084667,0.1608665 0.084667,0.3922886 0,0.2285998 -0.084667,0.3922886 -0.081844,0.1636887 -0.22013317,0.2511775 -0.13546656,0.084667 -0.29633311,0.084667 -0.16368876,0 -0.27657757,-0.064911 -0.1128888,-0.067734 -0.17779986,-0.180623 V 8.9715211 Z M 0.62935508,8.3478102 q 0.18062208,0 0.28786645,-0.1382888 0.11006667,-0.1382888 0.11006667,-0.3866441 0,-0.2511776 -0.11006667,-0.3866442 -0.10724437,-0.1382888 -0.28786645,-0.1382888 -0.18062209,0 -0.29068867,0.1382888 -0.10724436,0.1354666 -0.10724436,0.3866442 0,0.2483553 0.10724436,0.3866441 0.11006658,0.1382888 0.29068867,0.1382888 z M 2.178754,8.55101 q -0.1213555,0 -0.2398887,-0.042333 Q 1.820332,8.4663434 1.7215543,8.3788546 1.6255988,8.2885436 1.5663322,8.1502548 1.5070656,8.011966 1.5070656,7.8228773 q 0,-0.1890888 0.059267,-0.3273776 0.059267,-0.1382888 0.1552221,-0.2257776 0.098778,-0.090311 0.217311,-0.1326443 0.1185332,-0.042333 0.2398887,-0.042333 0.1213554,0 0.2398887,0.042333 0.1213554,0.042333 0.2173109,0.1326443 0.098778,0.087489 0.1552221,0.2257776 0.059267,0.1382888 0.059267,0.3273776 0,0.1890887 -0.059267,0.3273775 Q 2.7347321,8.2885436 2.635954,8.3788546 2.539999,8.4663436 2.4186431,8.5086767 2.3001098,8.5510097 2.178754,8.55101 Z m 0,-0.2088442 q 0.1015999,0 0.1975554,-0.053622 0.095956,-0.056444 0.1580443,-0.1693332 0.062089,-0.1157111 0.062089,-0.2963331 0,-0.1806221 -0.062089,-0.2935109 Q 2.4722647,7.4136555 2.3763094,7.3600334 2.2803534,7.3035894 2.178754,7.3035894 q -0.098778,0 -0.1975554,0.056444 -0.095956,0.053622 -0.1580444,0.1693332 -0.062089,0.1128888 -0.062089,0.2935109 0,0.180622 0.062089,0.2963331 0.062089,0.1128888 0.1580444,0.1693332 0.098778,0.053622 0.1975554,0.053622 z M 3.6321974,8.55101 Q 3.510842,8.55101 3.3923087,8.514321 3.2765977,8.4748101 3.1834645,8.3986102 3.0931534,8.319588 3.0451757,8.2010548 l 0.2285998,-0.084667 q 0.031044,0.1241777 0.1354666,0.1806221 0.1072443,0.053622 0.2229553,0.053622 0.084667,0 0.1580444,-0.0254 0.0762,-0.0254 0.1241777,-0.073378 0.047978,-0.047978 0.047978,-0.1100666 0,-0.115711 -0.093133,-0.1636887 -0.090311,-0.047978 -0.2173109,-0.073378 L 3.4572198,7.8652106 Q 3.3556199,7.8426328 3.2681311,7.8031217 3.1806422,7.7607884 3.1270201,7.6845885 q -0.053622,-0.0762 -0.053622,-0.2031999 0,-0.1269999 0.079022,-0.2116665 0.079022,-0.087489 0.2003777,-0.1326443 0.1241776,-0.045155 0.2596442,-0.045155 0.166511,0 0.3132664,0.070555 0.1495777,0.067733 0.2116665,0.2144887 L 3.9144195,7.4588109 Q 3.8777306,7.3741443 3.7845973,7.3346332 3.6942863,7.2922999 3.5955086,7.2922999 q -0.1072444,0 -0.1947332,0.047978 -0.087489,0.047978 -0.087489,0.1382888 0,0.090311 0.073378,0.1326444 0.0762,0.039511 0.1862665,0.062089 l 0.1834443,0.036689 q 0.1128888,0.022578 0.2144888,0.064911 0.1015999,0.042333 0.1665109,0.1269999 0.064911,0.081844 0.064911,0.2314221 0,0.1326443 -0.081844,0.2257776 -0.081844,0.093133 -0.2116665,0.1439332 -0.1298221,0.047978 -0.276578,0.047977 z m 1.095023,-1.6989765 q -0.070556,0 -0.1241776,-0.0508 -0.0508,-0.053622 -0.0508,-0.1269999 0,-0.073378 0.0508,-0.1241777 0.053622,-0.0508 0.1241776,-0.0508 0.073378,0 0.1241777,0.0508 0.053622,0.0508 0.053622,0.1241777 0,0.073378 -0.053622,0.1269999 -0.0508,0.0508 -0.1241777,0.0508 z M 4.6086872,8.5171434 V 7.306411 H 4.413954 V 7.1173222 h 0.4317997 v 1.3998212 z m 1.0865544,0 q -0.1326443,0 -0.206022,-0.0254 -0.070556,-0.028222 -0.098778,-0.1044221 -0.0254,-0.0762 -0.0254,-0.2201332 V 7.306411 H 5.1279754 V 7.1173222 H 5.3650419 V 6.7645447 H 5.6021084 V 7.1173222 H 5.8730415 V 7.306411 H 5.6021084 v 0.821266 q 0,0.1072444 0.019755,0.1439333 0.022578,0.036689 0.1241777,0.036689 H 5.8730415 V 8.5171434 Z M 6.4261951,6.8520335 q -0.070556,0 -0.1241777,-0.0508 -0.0508,-0.053622 -0.0508,-0.1269999 0,-0.073378 0.0508,-0.1241777 0.053622,-0.0508 0.1241777,-0.0508 0.073378,0 0.1241776,0.0508 0.053622,0.0508 0.053622,0.1241777 0,0.073378 -0.053622,0.1269999 -0.0508,0.0508 -0.1241776,0.0508 z M 6.3076618,8.5171434 V 7.306411 H 6.1129286 V 7.1173222 h 0.4317997 v 1.3998212 z m 1.2417766,0.033867 q -0.1213555,0 -0.2398887,-0.042333 Q 7.1910164,8.4663434 7.0922387,8.3788546 6.9962832,8.2885436 6.9370166,8.1502548 6.87775,8.011966 6.87775,7.8228773 q 0,-0.1890888 0.059267,-0.3273776 0.059267,-0.1382888 0.1552221,-0.2257776 0.098778,-0.090311 0.217311,-0.1326443 0.1185332,-0.042333 0.2398887,-0.042333 0.1213554,0 0.2398887,0.042333 0.1213554,0.042333 0.2173109,0.1326443 0.098778,0.087489 0.1552221,0.2257776 0.059267,0.1382888 0.059267,0.3273776 0,0.1890887 -0.059267,0.3273775 -0.056444,0.1382888 -0.1552221,0.2285998 -0.095955,0.087489 -0.2173109,0.1298221 -0.1185333,0.042333 -0.2398891,0.042334 z m 0,-0.2088442 q 0.1015999,0 0.1975554,-0.053622 0.095955,-0.056444 0.1580443,-0.1693332 0.062089,-0.1157111 0.062089,-0.2963331 0,-0.1806221 -0.062089,-0.2935109 -0.062089,-0.1157111 -0.1580443,-0.1693332 -0.095955,-0.056444 -0.1975554,-0.056444 -0.098778,0 -0.1975554,0.056444 -0.095955,0.053622 -0.1580444,0.1693332 -0.062089,0.1128888 -0.062089,0.2935109 0,0.180622 0.062089,0.2963331 0.062089,0.1128888 0.1580444,0.1693332 0.098778,0.053622 0.1975554,0.053622 z M 8.5259266,8.5171434 V 7.1173222 h 0.1749777 l 0.062089,0.2116665 q 0.059267,-0.098778 0.166511,-0.1665109 0.1072444,-0.067733 0.2850442,-0.067733 0.2539998,0 0.358422,0.1495776 0.1044221,0.1467555 0.1044221,0.3866442 V 8.5171434 H 9.4403259 V 7.7015218 q 0,-0.1072444 -0.019756,-0.1975554 -0.019756,-0.093133 -0.087489,-0.1495777 -0.064911,-0.056444 -0.2003776,-0.056444 -0.1721555,0 -0.2709332,0.1185333 -0.098778,0.115711 -0.098778,0.3414886 V 8.5171434 Z M 10.157168,7.4588109 q -0.07338,0 -0.127,-0.053622 -0.053622,-0.053622 -0.053622,-0.1298221 0,-0.073378 0.053622,-0.1269999 0.05362,-0.053622 0.127,-0.053622 0.0762,0 0.129822,0.053622 0.05362,0.053622 0.05362,0.1269999 0,0.0762 -0.05362,0.1298221 -0.05362,0.053622 -0.129822,0.053622 z m 0,1.0921991 q -0.07338,0 -0.127,-0.053622 -0.053622,-0.053622 -0.053622,-0.1269999 0,-0.0762 0.053622,-0.1298222 0.05362,-0.053622 0.127,-0.053622 0.0762,0 0.129822,0.053622 0.05362,0.053622 0.05362,0.1298222 0,0.073378 -0.05362,0.1269999 -0.05362,0.053622 -0.129822,0.053622 z"
     id="text10"
     style="font-size:2.82222px;font-family:'Atkinson Hyperlegible';-inkscape-font-specification:'Atkinson Hyperlegible';text-align:end;text-anchor:end;fill:#030303;stroke-width:1.241"
     aria-label="position:" />
  <path
     style="font-size:2.82222px;font-family:'Atkinson Hyperlegible';-inkscape-font-specification:'Atkinson Hyperlegible';text-align:end;text-anchor:end;fill:#030303;stroke-width:1.241"
     d="M 3.6209047,12.141267 3.1213718,10.741446 h 0.256822 l 0.3668886,1.089377 0.3640664,-1.089377 h 0.256822 l -0.4995329,1.399821 z m 1.2812904,0.03387 q -0.1326443,0 -0.2427109,-0.04798 -0.1100666,-0.04798 -0.1749777,-0.138289 -0.064911,-0.09031 -0.064911,-0.217311 0,-0.166511 0.115711,-0.262466 0.1185333,-0.09596 0.3301998,-0.146756 0.2144887,-0.05362 0.4995329,-0.08467 0.00564,-0.1778 -0.070555,-0.273756 -0.0762,-0.09596 -0.2455331,-0.09596 -0.1269999,0 -0.2088443,0.05927 -0.079022,0.05645 -0.1015999,0.158045 L 4.509907,11.057534 q 0.056444,-0.160866 0.2003777,-0.248355 0.1467554,-0.09031 0.3358441,-0.09031 0.2906887,0 0.4233331,0.138289 0.1354665,0.135466 0.1354665,0.428977 v 0.327378 q 0,0.174977 0.014111,0.301977 0.014111,0.127 0.033867,0.225778 h -0.217311 l -0.056444,-0.191911 q -0.062089,0.104422 -0.1777998,0.166511 -0.1157111,0.05927 -0.2991554,0.05927 z m 0.0508,-0.189089 q 0.1100666,0 0.2088443,-0.03951 0.098778,-0.03951 0.1608665,-0.132645 0.062089,-0.09596 0.062089,-0.259644 v -0.08749 q -0.2144888,0.02258 -0.3725331,0.05645 -0.1580443,0.03104 -0.2455331,0.09031 -0.084667,0.05644 -0.084667,0.1524 0,0.09878 0.070556,0.160866 0.073378,0.05927 0.2003776,0.05927 z M 4.7554397,10.476157 q -0.062089,0 -0.1072444,-0.04516 -0.045155,-0.04516 -0.045155,-0.107245 0,-0.06209 0.045155,-0.104422 0.045155,-0.04516 0.1072444,-0.04516 0.064911,0 0.1072443,0.04516 0.045156,0.04233 0.045156,0.104422 0,0.06209 -0.045156,0.107245 -0.042333,0.04516 -0.1072443,0.04516 z m 0.5954884,0 q -0.062089,0 -0.1072443,-0.04516 -0.042333,-0.04516 -0.042333,-0.107245 0,-0.06209 0.042333,-0.104422 0.045155,-0.04516 0.1072443,-0.04516 0.064911,0 0.1072444,0.04516 0.045156,0.04233 0.045156,0.104422 0,0.06209 -0.045156,0.107245 -0.042333,0.04516 -0.1072444,0.04516 z m 0.6434689,1.66511 v -1.399821 h 0.1721555 l 0.0762,0.259644 q 0.073378,-0.127 0.1975554,-0.2032 0.1269999,-0.07902 0.3019776,-0.07902 v 0.245533 q -0.019756,0 -0.042333,0 -0.019756,0 -0.039511,0.0028 -0.2398887,0.01976 -0.3358442,0.166511 -0.093133,0.146756 -0.093133,0.4064 v 0.601133 z m 1.470377,0.03387 q -0.1580443,0 -0.2963331,-0.08467 -0.1382888,-0.08749 -0.2229554,-0.248355 -0.081844,-0.163689 -0.081844,-0.395111 0,-0.231422 0.081844,-0.392289 0.084667,-0.163689 0.2229554,-0.248355 0.1382888,-0.08749 0.2963331,-0.08749 0.166511,0 0.2793998,0.06773 0.1128888,0.06491 0.1749777,0.174978 V 10.25602 h 0.2370664 v 1.357488 q 0,0.07056 0.00564,0.208844 0.00564,0.135467 0.042333,0.318911 H 7.9812403 l -0.062089,-0.211667 q -0.062089,0.112889 -0.1749777,0.180622 -0.1128888,0.06491 -0.2793998,0.06491 z m 0.062089,-0.2032 q 0.1806221,0 0.2878664,-0.138289 0.1100666,-0.138289 0.1100666,-0.386644 0,-0.251178 -0.1100666,-0.386644 -0.1072443,-0.138289 -0.2878664,-0.138289 -0.1806221,0 -0.2906887,0.138289 -0.1072444,0.135466 -0.1072444,0.386644 0,0.248355 0.1072444,0.386644 0.1100666,0.138289 0.2906887,0.138289 z m 1.6143078,0.2032 q -0.2201331,0 -0.372533,-0.09596 -0.1523999,-0.09878 -0.2342443,-0.262466 -0.079022,-0.166511 -0.079022,-0.372533 0,-0.222956 0.090311,-0.383822 0.090311,-0.163689 0.2427109,-0.251178 0.1552221,-0.09031 0.3471331,-0.09031 0.166511,0 0.2935109,0.06773 0.1269999,0.06491 0.2088443,0.1778 0.084667,0.110067 0.1213554,0.251178 0.039511,0.141111 0.028222,0.290688 h -1.078088 q 0.00564,0.174978 0.0762,0.276578 0.073378,0.1016 0.1721554,0.143933 0.098778,0.03951 0.1834443,0.03951 0.1185333,0 0.1975555,-0.03669 0.081844,-0.03951 0.1298221,-0.1016 l 0.2285998,0.06773 q -0.0762,0.121355 -0.2173109,0.200377 -0.141111,0.07902 -0.3386665,0.07902 z M 8.7121933,11.317179 h 0.8240883 q 0,-0.09878 -0.0508,-0.189089 -0.047978,-0.09031 -0.1382888,-0.146756 -0.087489,-0.05927 -0.2116665,-0.05927 -0.1044221,0 -0.1975554,0.03951 -0.093133,0.03951 -0.1552221,0.127 -0.059267,0.08749 -0.070556,0.2286 z m 1.4449757,-0.234245 q -0.07338,0 -0.127,-0.05362 -0.053622,-0.05362 -0.053622,-0.129822 0,-0.07338 0.053622,-0.127 0.05362,-0.05362 0.127,-0.05362 0.0762,0 0.129822,0.05362 0.05362,0.05362 0.05362,0.127 0,0.0762 -0.05362,0.129822 -0.05362,0.05362 -0.129822,0.05362 z m 0,1.0922 q -0.07338,0 -0.127,-0.05362 -0.053622,-0.05362 -0.053622,-0.127 0,-0.0762 0.053622,-0.129822 0.05362,-0.05362 0.127,-0.05362 0.0762,0 0.129822,0.05362 0.05362,0.05362 0.05362,0.129822 0,0.07338 -0.05362,0.127 -0.05362,0.05362 -0.129822,0.05362 z"
     id="text1"
     aria-label="värde:" />
  <g
     transform="matrix(0.352778,0,0,0.352778,5.1533784,1.7683092)"
     ns3:version="1.10.2"
     ns3:texconverter="lualatex"
     ns3:pdfconverter="inkscape"
     ns3:text="$16^2$"
     ns3:preamble="/home/sermuns/.config/inkscape/extensions/textext/default_packages.tex"
     ns3:scale="1.0"
     ns3:alignment="middle center"
     ns3:stroke-to-path="0"
     ns3:inkscapeversion="1.3.2"
     id="g4496"
     ns3:jacobian_sqrt="0.352778">
    <defs
       id="id-93ce4fb3-4b70-4c34-afec-7bcea7b6f092">
      <g
         id="id-05dcb5d2-16c4-4bf5-80e6-35f0e3c92252">
        <g
           id="id-6b208606-d23e-40de-8303-73e277b71f15">
          <path
             d="m 2.9375,-6.375 c 0,-0.25 0,-0.265625 -0.234375,-0.265625 C 2.078125,-6 1.203125,-6 0.890625,-6 v 0.3125 c 0.203125,0 0.78125,0 1.296875,-0.265625 v 5.171875 c 0,0.359375 -0.03125,0.46875 -0.921875,0.46875 h -0.3125 V 0 c 0.34375,-0.03125 1.203125,-0.03125 1.609375,-0.03125 0.390625,0 1.265625,0 1.609375,0.03125 v -0.3125 h -0.3125 c -0.90625,0 -0.921875,-0.109375 -0.921875,-0.46875 z m 0,0"
             id="id-de0d6f95-7f50-40e8-8517-2c4735429c3d" />
        </g>
        <g
           id="id-6e751aaf-7b8e-4d90-96fa-3ec0eb18eac6">
          <path
             d="m 1.3125,-3.265625 v -0.25 c 0,-2.515625 1.234375,-2.875 1.75,-2.875 0.234375,0 0.65625,0.0625 0.875,0.40625 -0.15625,0 -0.546875,0 -0.546875,0.4375 0,0.3125 0.234375,0.46875 0.453125,0.46875 0.15625,0 0.46875,-0.09375 0.46875,-0.484375 0,-0.59375 -0.4375,-1.078125 -1.265625,-1.078125 -1.28125,0 -2.625,1.28125 -2.625,3.484375 0,2.671875 1.15625,3.375 2.078125,3.375 1.109375,0 2.0625,-0.9375 2.0625,-2.25 0,-1.265625 -0.890625,-2.21875 -2,-2.21875 -0.671875,0 -1.046875,0.5 -1.25,0.984375 z M 2.5,-0.0625 c -0.625,0 -0.921875,-0.59375 -0.984375,-0.75 -0.1875,-0.46875 -0.1875,-1.265625 -0.1875,-1.4375 0,-0.78125 0.328125,-1.78125 1.21875,-1.78125 0.171875,0 0.625,0 0.9375,0.625 0.171875,0.359375 0.171875,0.875 0.171875,1.359375 0,0.484375 0,0.984375 -0.171875,1.34375 C 3.1875,-0.109375 2.734375,-0.0625 2.5,-0.0625 Z m 0,0"
             id="id-99bf82c3-5c7b-4428-a5d3-fbbffdf8beca" />
        </g>
        <g
           id="id-fb759eb1-f60b-4f19-9718-e65c7196eaa0">
          <path
             d="M 3.515625,-1.265625 H 3.28125 c -0.015625,0.15625 -0.09375,0.5625 -0.1875,0.625 C 3.046875,-0.59375 2.515625,-0.59375 2.40625,-0.59375 H 1.125 c 0.734375,-0.640625 0.984375,-0.84375 1.390625,-1.171875 0.515625,-0.40625 1,-0.84375 1,-1.5 0,-0.84375 -0.734375,-1.359375 -1.625,-1.359375 -0.859375,0 -1.453125,0.609375 -1.453125,1.25 0,0.34375 0.296875,0.390625 0.375,0.390625 0.15625,0 0.359375,-0.125 0.359375,-0.375 0,-0.125 -0.046875,-0.375 -0.40625,-0.375 C 0.984375,-4.21875 1.453125,-4.375 1.78125,-4.375 c 0.703125,0 1.0625,0.546875 1.0625,1.109375 0,0.609375 -0.4375,1.078125 -0.65625,1.328125 L 0.515625,-0.265625 C 0.4375,-0.203125 0.4375,-0.1875 0.4375,0 h 2.875 z m 0,0"
             id="id-edb0b46a-5ddf-4517-8439-7e65bad7855b" />
        </g>
      </g>
    </defs>
  </g>
</svg>
