<svg xmlns="http://www.w3.org/2000/svg" viewBox="0 0 373.23 119.26"><defs><style>.cls-1{fill:#fff;}</style></defs><g id="Layer_2" data-name="Layer 2"><g id="Layer_1-2" data-name="Layer 1"><path class="cls-1" d="M0,67.46c2.1-.28,4.2-.66,6.31-.84,6.23-.52,12.45-.65,18.59.86,4.71,1.16,8.76,3.37,10.72,8.12a20.82,20.82,0,0,1,.12,15.87,12.77,12.77,0,0,1-6.17,6.68L28,98.94,38.7,118.37a1.74,1.74,0,0,1-.48.17c-3.42,0-6.84,0-10.26,0a1.77,1.77,0,0,1-1.17-.91q-3.94-7.86-7.8-15.77a1.54,1.54,0,0,0-1.74-1c-2.08.11-4.17,0-6.35,0v17.68c-1,0-1.92,0-2.83,0L0,118.43Zm10.94,7.88v17a26.57,26.57,0,0,0,9.77-.17c2.83-.7,4.77-2.35,5.14-5.36A23.82,23.82,0,0,0,26,81.84c-.3-3.52-1.88-5.49-4.86-6.28A24.64,24.64,0,0,0,10.94,75.34Z"/><path class="cls-1" d="M343.54,119H331v-8.59c-2,.4-3.92.62-5.73,1.17-10.42,3.18-20.85,3-31.32.31-.42-.11-.84-.18-1.32-.29v7.14H277.88c-1.27-26.4-2.53-52.73-3.81-79.2l-1.19.51c-10.95,5-21.85,4.51-32.66-.39a25.79,25.79,0,0,1-8.79-6.85,15.91,15.91,0,0,1-2.37-4.15c-.49-1.13-.16-1.36,1.08-1.31,5.82.23,11.65.54,17.48.6a46.87,46.87,0,0,0,7-.81,4,4,0,0,0,1.67-.65,2,2,0,0,0,.89-1.24,1.65,1.65,0,0,0-.88-1.27,18.49,18.49,0,0,0-4.33-.87c-6.19-.26-12.38-.4-18.57-.59-1.53,0-3.06-.12-4.58-.2-1.05-.06-1.56-.56-1.57-1.7,0-6.22,2.76-10.95,7.63-14.58A30.34,30.34,0,0,1,249.5.39a37.52,37.52,0,0,1,23.05,3.9c5.06,2.72,9.1,6.46,11.41,11.85a22,22,0,0,1,1.32,8.76,224.61,224.61,0,0,0,2.19,32.36c.49,3.24,1.19,6.46,1.77,9.55,3.33-.37,6.43-.94,9.54-1,12.93-.3,24.76,3.15,35,11.16A34.44,34.44,0,0,1,344,91.06a55.91,55.91,0,0,0,10,15.12c3.46,3.92,7.25,7.47,12,9.82a50.63,50.63,0,0,0,6.1,2.15c.33.12.68.18,1.1.29-1.66,1.14-8.75.85-15.25-.52a43.11,43.11,0,0,1-14.44-5.77ZM272.48,13a3.51,3.51,0,0,0-7-.07,3.51,3.51,0,1,0,7,.07Z"/><path class="cls-1" d="M.68.79C5.35.54,10,.25,14.57.05a45.5,45.5,0,0,1,15,1.72,19.23,19.23,0,0,1,13.8,13.9,50.8,50.8,0,0,1,.36,26.25C41.61,50.7,35.85,55.8,27.15,57.8c-6.95,1.6-14,1.38-21,.85-1.8-.14-3.59-.36-5.46-.55ZM12.45,10V49c2.78.11,5.47.38,8.14.29C27.1,49,30.7,46,32,39.59a51.63,51.63,0,0,0-.07-20.72c-1-4.94-3.91-8.18-9.13-9A38.24,38.24,0,0,0,12.45,10Z"/><path class="cls-1" d="M81.85,62.34H92.36V84.46A4.63,4.63,0,0,0,93,84c4-4.54,11.9-4.35,15.67-2.31a10.2,10.2,0,0,1,4.85,5.19,29.25,29.25,0,0,1-.32,23.55c-2.31,5.14-6.8,7.66-12.24,8.52-5.68.9-11.21-.22-16.7-1.53-2.44-.58-2.43-.61-2.43-3.18V62.34ZM105.1,100c-.2-2.49-.28-4.59-.56-6.65-.23-1.72-.69-3.42-2.24-4.51a6.16,6.16,0,0,0-9,2.62,8,8,0,0,0-.71,2.78c-.14,5.54-.2,11.08-.23,16.63a1,1,0,0,0,.67.75,30.71,30.71,0,0,0,4.77.47c3.82-.07,5.8-1.68,6.56-5.43C104.78,104.37,104.88,102,105.1,100Z"/><path class="cls-1" d="M90.79,16.37c-7,19.59-14,39-21.05,58.61l-7.35-1.32-2.85-.54c-1.34-.27-1.42-.41-1-1.75.88-2.58,1.79-5.16,2.68-7.74.68-2,1.87-4,1.86-5.93s-1.24-3.85-2-5.76Q54.88,35.13,48.59,18.31a18,18,0,0,1-.51-2.1H51.3c2.69,0,5.39,0,8.09,0,.65,0,1,.15,1.2.83q4.11,14.12,8.26,28.2c.08.29.21.56.45,1.17a5.43,5.43,0,0,0,.51-1c2.09-9.6,5.61-18.77,8.35-28.17.16-.56.28-1,1.07-1,3.58,0,7.17,0,10.75,0A8.16,8.16,0,0,1,90.79,16.37Z"/><path class="cls-1" d="M130.88,57.94H119.09V56.45c0-8.65,0-17.3,0-26a10,10,0,0,0-.33-2.61,3.57,3.57,0,0,0-3.86-2.6,18.31,18.31,0,0,0-7.63,2.44,1.78,1.78,0,0,0-.58,1.38c0,9,0,18.11,0,27.16v1.56H95V16.29h9.77c.25,1.43.5,2.9.78,4.54,1.78-.94,3.41-1.8,5-2.67a20.15,20.15,0,0,1,11.33-2.67c5,.41,8.19,3.49,8.75,8.52a33,33,0,0,1,.21,3.73q0,14.31,0,28.61Z"/><path class="cls-1" d="M176.37,37.18a37,37,0,0,1-1.68,10c-2.32,6.75-7.14,10.38-14.09,11.34a27,27,0,0,1-9.48-.31c-6.83-1.48-11.11-5.73-12.86-12.42a33.62,33.62,0,0,1,.11-17.64c2.07-7.47,7.33-11.83,15-12.58a28.12,28.12,0,0,1,9.59.54c6.94,1.74,10.84,6.42,12.34,13.21C175.89,31.89,176,34.55,176.37,37.18Zm-11.86-.07c-.16-2-.26-4.21-.51-6.37-.41-3.56-2.15-5.7-5.28-6.15-5.91-.86-8.56,1-9.31,6.14A41.58,41.58,0,0,0,149.5,44c.67,3.85,2.29,5.46,6.14,5.77,5.17.41,7.67-1.49,8.37-6.46C164.29,41.27,164.34,39.25,164.51,37.11Z"/><path class="cls-1" d="M119.75,99.65a33.51,33.51,0,0,1,1.48-8.92c2.09-6.06,6.43-9.33,12.68-10.21a24.35,24.35,0,0,1,8.76.32c5.6,1.25,9.41,4.59,11.07,10.12a29.48,29.48,0,0,1,0,17.47c-2,6.57-6.95,10.35-13.93,10.66a30.69,30.69,0,0,1-8-.56c-6.45-1.45-9.9-5.94-11.2-12.19C120.13,104.15,120,101.88,119.75,99.65Zm24.86.38c-.24-2.37-.35-4.42-.66-6.44-.5-3.31-2.16-5-5.47-5.24-4.69-.39-6.67,1.19-7.39,4.75a33.34,33.34,0,0,0,.09,13.64c.44,2.05,1.56,3.68,3.76,4.07A16.15,16.15,0,0,0,139,111a4.91,4.91,0,0,0,4.73-4.25C144.18,104.44,144.35,102.07,144.61,100Z"/><path class="cls-1" d="M76.21,100.38a69.6,69.6,0,0,1-1.53,8.19,13.84,13.84,0,0,1-11.27,10.17,23.93,23.93,0,0,1-10.65-.17,14.05,14.05,0,0,1-10.64-10.43A29.46,29.46,0,0,1,42.26,91c1.92-6.21,6.33-9.58,12.68-10.49a23.63,23.63,0,0,1,8.75.31C70.31,82.36,74,86.73,75.33,93.21,75.78,95.36,75.88,97.58,76.21,100.38Zm-24.75-.73c.15,1.93.24,3.9.49,5.85.46,3.58,2,5.25,5.41,5.57,4.82.44,7-1.28,7.69-5.47A36,36,0,0,0,65,93.35c-.58-3.16-2.16-4.7-5.34-5-4.87-.46-7.09,1.3-7.71,5.83C51.68,96,51.61,97.8,51.46,99.65Z"/><path class="cls-1" d="M261.28,81.51v7.76c-2.53-.39-5-.93-7.44-1.1a19.79,19.79,0,0,0-5.59.38c-1.73.37-2.39,1.6-2.39,3.32A2.9,2.9,0,0,0,248.21,95c2,.61,4.13,1,6.2,1.5,5.1,1.25,8,4.15,8.62,8.6,1,6.88-2.69,12.16-9.47,13.6-5.19,1.11-10.33.45-15.44-.6-2.41-.49-2.4-.53-2.4-3v-5.17a47.88,47.88,0,0,0,5.47,1.17,61.93,61.93,0,0,0,8.5.37,3.41,3.41,0,0,0,.92-6.65,38.19,38.19,0,0,0-6.19-1.47c-6.21-1-8.48-5.57-8.51-10.69,0-3,.49-5.78,2.51-8.11,2.39-2.76,5.56-3.87,9.06-4.2C252.14,79.84,256.7,80.64,261.28,81.51Z"/><path class="cls-1" d="M182.51,80.9v8.87h-8a2.1,2.1,0,0,0-.2.52c0,5.52-.07,11,.09,16.54.09,3.16,1.89,4.53,5,4.23,1-.11,2.07-.31,3.15-.47v7.74c-4.11.91-8.21,1.23-12.27,0-4.22-1.32-6.48-4.8-6.51-9.92,0-5.71,0-11.43,0-17.14V89.81h-6V81h6.5c.5-3.58,1-7.07,1.5-10.69l8.35-1V80.9Z"/><path class="cls-1" d="M230.9,89.48c-2.68-.2-5.2-.51-7.72-.53-4.66,0-7.06,2-7.84,6.64a23.47,23.47,0,0,0,.2,9.11c.85,3.89,3.17,5.81,7.29,5.84,2.35,0,4.71-.32,7.07-.5l1-.11c0,2.56,0,5,0,7.54a1.06,1.06,0,0,1-.66.75c-5.84,1.38-11.65,1.55-17.27-.89-4.4-1.91-6.77-5.55-7.81-10.09a32.79,32.79,0,0,1,0-15.07c1.62-6.81,6.29-10.79,13.4-11.65a35,35,0,0,1,11,.46,7.54,7.54,0,0,1,.82.2c.15,0,.29.1.46.16Z"/><path class="cls-1" d="M187.77,81h10.46v37.47H187.77Z"/><path class="cls-1" d="M193,75.23c-4.6,0-6.48-2.45-5.69-7.31.38-2.35,1.41-3.54,3.77-3.9a15.82,15.82,0,0,1,4.18,0,3.62,3.62,0,0,1,3.33,3,12.32,12.32,0,0,1,0,4.84C198,74.41,196.25,75.25,193,75.23Z"/></g></g></svg>