<?xml version="1.0" encoding="UTF-8" standalone="no"?>
<!-- Created with Digital by H.Neemann -->
<!-- created: Thu Oct 17 09:15:31 CEST 2024 -->

<svg
   xmlns:svg="http://www.w3.org/2000/svg"
   xmlns="http://www.w3.org/2000/svg"
   width="33.9mm"
   height="17.1mm"
   viewBox="707 443 226 114">
<g stroke-linecap="square">
<path d="M 860,500 L 900,500" stroke="#000000" stroke-width="2.8" fill="none"/>
<path d="M 740,540 L 780,540 L 780,520 L 800,520" stroke="#000000" stroke-width="2.8" fill="none"/>
<path d="M 740,460 L 780,460 L 780,480 L 800,480" stroke="#000000" stroke-width="2.8" fill="none"/>
<g>
</g>
<g>
<path d="M 801,470 L 859,470 L 859,530 L 801,530 Z" stroke="#000000" stroke-width="2.8" fill="none"/>
<text text-anchor="middle" x="830.0" y="492.0" fill="#000000" style="font-size:24px">&amp;</text>
</g>
<g>
<circle cx="916.0" cy="500.0" r="9.0" stroke="#000000" stroke-width="2.8" fill="none" />
<circle cx="916.0" cy="500.0" r="15.0" stroke="#000000" stroke-width="2.8" fill="none" />
</g>
<g>
<path d="M 709,445 L 739,445 L 739,475 L 709,475 Z" stroke="#000000" stroke-width="2.8" fill="none"/>
<circle cx="724.0" cy="460.0" r="9.0" stroke="#000000" stroke-width="2.8" fill="none" />
</g>
<g>
<path d="M 709,525 L 739,525 L 739,555 L 709,555 Z" stroke="#000000" stroke-width="2.8" fill="none"/>
<circle cx="724.0" cy="540.0" r="9.0" stroke="#000000" stroke-width="2.8" fill="none" />
</g>
</g>
</svg>