<?xml version="1.0" encoding="UTF-8" standalone="no"?>
<!-- Created with Inkscape (http://www.inkscape.org/) -->

<svg
   width="506.25409mm"
   height="225.83669mm"
   viewBox="0 0 506.25408 225.83668"
   version="1.1"
   id="svg1"
   inkscape:version="1.4 (unknown)"
   sodipodi:docname="brant.svg"
   xml:space="preserve"
   xmlns:inkscape="http://www.inkscape.org/namespaces/inkscape"
   xmlns:sodipodi="http://sodipodi.sourceforge.net/DTD/sodipodi-0.dtd"
   xmlns="http://www.w3.org/2000/svg"
   xmlns:svg="http://www.w3.org/2000/svg"><sodipodi:namedview
     id="namedview1"
     pagecolor="#505050"
     bordercolor="#eeeeee"
     borderopacity="1"
     inkscape:showpageshadow="0"
     inkscape:pageopacity="0"
     inkscape:pagecheckerboard="0"
     inkscape:deskcolor="#505050"
     inkscape:document-units="mm"
     showborder="true"
     inkscape:zoom="0.36286468"
     inkscape:cx="1362.767"
     inkscape:cy="909.42993"
     inkscape:window-width="2560"
     inkscape:window-height="1371"
     inkscape:window-x="0"
     inkscape:window-y="32"
     inkscape:window-maximized="1"
     inkscape:current-layer="g36" /><defs
     id="defs1"><inkscape:path-effect
       effect="skeletal"
       id="path-effect29"
       is_visible="true"
       lpeversion="1"
       pattern="M 0,18.867925 C 0,8.4528305 8.4528305,0 18.867925,0 29.28302,0 37.735851,8.4528305 37.735851,18.867925 c 0,10.415095 -8.452831,18.867926 -18.867926,18.867926 C 8.4528305,37.735851 0,29.28302 0,18.867925 Z"
       copytype="single_stretched"
       prop_scale="1"
       scale_y_rel="false"
       spacing="0"
       normal_offset="0"
       tang_offset="0"
       prop_units="false"
       vertical_pattern="false"
       hide_knot="false"
       fuse_tolerance="0" /><inkscape:path-effect
       effect="skeletal"
       id="path-effect27"
       is_visible="true"
       lpeversion="1"
       pattern="M 0,18.867925 C 0,8.4528305 8.4528305,0 18.867925,0 29.28302,0 37.735851,8.4528305 37.735851,18.867925 c 0,10.415095 -8.452831,18.867926 -18.867926,18.867926 C 8.4528305,37.735851 0,29.28302 0,18.867925 Z"
       copytype="single_stretched"
       prop_scale="1"
       scale_y_rel="false"
       spacing="0"
       normal_offset="0"
       tang_offset="0"
       prop_units="false"
       vertical_pattern="false"
       hide_knot="false"
       fuse_tolerance="0" /><inkscape:path-effect
       effect="skeletal"
       id="path-effect25"
       is_visible="true"
       lpeversion="1"
       pattern="M 0,18.867925 C 0,8.4528305 8.4528305,0 18.867925,0 29.28302,0 37.735851,8.4528305 37.735851,18.867925 c 0,10.415095 -8.452831,18.867926 -18.867926,18.867926 C 8.4528305,37.735851 0,29.28302 0,18.867925 Z"
       copytype="single_stretched"
       prop_scale="1"
       scale_y_rel="false"
       spacing="0"
       normal_offset="0"
       tang_offset="0"
       prop_units="false"
       vertical_pattern="false"
       hide_knot="false"
       fuse_tolerance="0" /><inkscape:path-effect
       effect="skeletal"
       id="path-effect23"
       is_visible="true"
       lpeversion="1"
       pattern="M 0,18.867925 C 0,8.4528305 8.4528305,0 18.867925,0 29.28302,0 37.735851,8.4528305 37.735851,18.867925 c 0,10.415095 -8.452831,18.867926 -18.867926,18.867926 C 8.4528305,37.735851 0,29.28302 0,18.867925 Z"
       copytype="single_stretched"
       prop_scale="1"
       scale_y_rel="false"
       spacing="0"
       normal_offset="0"
       tang_offset="0"
       prop_units="false"
       vertical_pattern="false"
       hide_knot="false"
       fuse_tolerance="0" /><rect
       x="130.03435"
       y="222.84697"
       width="82.068893"
       height="25.062149"
       id="rect11" /><inkscape:path-effect
       effect="skeletal"
       id="path-effect10"
       is_visible="true"
       lpeversion="1"
       pattern="M 0,18.867925 C 0,8.4528305 8.4528305,0 18.867925,0 29.28302,0 37.735851,8.4528305 37.735851,18.867925 c 0,10.415095 -8.452831,18.867926 -18.867926,18.867926 C 8.4528305,37.735851 0,29.28302 0,18.867925 Z"
       copytype="single_stretched"
       prop_scale="1"
       scale_y_rel="false"
       spacing="0"
       normal_offset="0"
       tang_offset="0"
       prop_units="false"
       vertical_pattern="false"
       hide_knot="false"
       fuse_tolerance="0" /><inkscape:path-effect
       effect="skeletal"
       id="path-effect8"
       is_visible="true"
       lpeversion="1"
       pattern="M 0,18.867925 C 0,8.4528305 8.4528305,0 18.867925,0 29.28302,0 37.735851,8.4528305 37.735851,18.867925 c 0,10.415095 -8.452831,18.867926 -18.867926,18.867926 C 8.4528305,37.735851 0,29.28302 0,18.867925 Z"
       copytype="single_stretched"
       prop_scale="1"
       scale_y_rel="false"
       spacing="0"
       normal_offset="0"
       tang_offset="0"
       prop_units="false"
       vertical_pattern="false"
       hide_knot="false"
       fuse_tolerance="0" /><inkscape:path-effect
       effect="skeletal"
       id="path-effect7"
       is_visible="true"
       lpeversion="1"
       pattern="M 0,18.867925 C 0,8.4528305 8.4528305,0 18.867925,0 29.28302,0 37.735851,8.4528305 37.735851,18.867925 c 0,10.415095 -8.452831,18.867926 -18.867926,18.867926 C 8.4528305,37.735851 0,29.28302 0,18.867925 Z"
       copytype="single_stretched"
       prop_scale="1"
       scale_y_rel="false"
       spacing="0"
       normal_offset="0"
       tang_offset="0"
       prop_units="false"
       vertical_pattern="false"
       hide_knot="false"
       fuse_tolerance="0" /><inkscape:path-effect
       effect="spiro"
       id="path-effect6"
       is_visible="true"
       lpeversion="1" /><inkscape:path-effect
       effect="skeletal"
       id="path-effect8-1"
       is_visible="true"
       lpeversion="1"
       pattern="M 0,18.867925 C 0,8.4528305 8.4528305,0 18.867925,0 29.28302,0 37.735851,8.4528305 37.735851,18.867925 c 0,10.415095 -8.452831,18.867926 -18.867926,18.867926 C 8.4528305,37.735851 0,29.28302 0,18.867925 Z"
       copytype="single_stretched"
       prop_scale="1"
       scale_y_rel="false"
       spacing="0"
       normal_offset="0"
       tang_offset="0"
       prop_units="false"
       vertical_pattern="false"
       hide_knot="false"
       fuse_tolerance="0" /><inkscape:path-effect
       effect="skeletal"
       id="path-effect10-3"
       is_visible="true"
       lpeversion="1"
       pattern="M 0,18.867925 C 0,8.4528305 8.4528305,0 18.867925,0 29.28302,0 37.735851,8.4528305 37.735851,18.867925 c 0,10.415095 -8.452831,18.867926 -18.867926,18.867926 C 8.4528305,37.735851 0,29.28302 0,18.867925 Z"
       copytype="single_stretched"
       prop_scale="1"
       scale_y_rel="false"
       spacing="0"
       normal_offset="0"
       tang_offset="0"
       prop_units="false"
       vertical_pattern="false"
       hide_knot="false"
       fuse_tolerance="0" /><inkscape:path-effect
       effect="skeletal"
       id="path-effect10-8"
       is_visible="true"
       lpeversion="1"
       pattern="M 0,18.867925 C 0,8.4528305 8.4528305,0 18.867925,0 29.28302,0 37.735851,8.4528305 37.735851,18.867925 c 0,10.415095 -8.452831,18.867926 -18.867926,18.867926 C 8.4528305,37.735851 0,29.28302 0,18.867925 Z"
       copytype="single_stretched"
       prop_scale="1"
       scale_y_rel="false"
       spacing="0"
       normal_offset="0"
       tang_offset="0"
       prop_units="false"
       vertical_pattern="false"
       hide_knot="false"
       fuse_tolerance="0" /><inkscape:path-effect
       effect="skeletal"
       id="path-effect10-3-2"
       is_visible="true"
       lpeversion="1"
       pattern="M 0,18.867925 C 0,8.4528305 8.4528305,0 18.867925,0 29.28302,0 37.735851,8.4528305 37.735851,18.867925 c 0,10.415095 -8.452831,18.867926 -18.867926,18.867926 C 8.4528305,37.735851 0,29.28302 0,18.867925 Z"
       copytype="single_stretched"
       prop_scale="1"
       scale_y_rel="false"
       spacing="0"
       normal_offset="0"
       tang_offset="0"
       prop_units="false"
       vertical_pattern="false"
       hide_knot="false"
       fuse_tolerance="0" /><inkscape:path-effect
       effect="skeletal"
       id="path-effect8-6"
       is_visible="true"
       lpeversion="1"
       pattern="M 0,18.867925 C 0,8.4528305 8.4528305,0 18.867925,0 29.28302,0 37.735851,8.4528305 37.735851,18.867925 c 0,10.415095 -8.452831,18.867926 -18.867926,18.867926 C 8.4528305,37.735851 0,29.28302 0,18.867925 Z"
       copytype="single_stretched"
       prop_scale="1"
       scale_y_rel="false"
       spacing="0"
       normal_offset="0"
       tang_offset="0"
       prop_units="false"
       vertical_pattern="false"
       hide_knot="false"
       fuse_tolerance="0" /><inkscape:path-effect
       effect="skeletal"
       id="path-effect8-1-5"
       is_visible="true"
       lpeversion="1"
       pattern="M 0,18.867925 C 0,8.4528305 8.4528305,0 18.867925,0 29.28302,0 37.735851,8.4528305 37.735851,18.867925 c 0,10.415095 -8.452831,18.867926 -18.867926,18.867926 C 8.4528305,37.735851 0,29.28302 0,18.867925 Z"
       copytype="single_stretched"
       prop_scale="1"
       scale_y_rel="false"
       spacing="0"
       normal_offset="0"
       tang_offset="0"
       prop_units="false"
       vertical_pattern="false"
       hide_knot="false"
       fuse_tolerance="0" /></defs><g
     inkscape:label="pelle"
     id="g22"
     transform="matrix(0.22065763,-0.11742568,0.12429682,0.23356935,52.39948,89.177756)"
     style="stroke-width:3.88853;stroke-dasharray:none"><path
       style="fill:#999999;fill-opacity:1;stroke:#000000;stroke-width:3.72897;stroke-dasharray:none;stroke-opacity:1"
       d="m 561.25982,596.09455 c 5.79841,7.23531 -10.08676,27.93971 -33.37315,46.92171 0,0 0,0 0,0 -0.28585,5.95669 -0.72078,12.09057 -1.33028,18.31162 -3.96721,40.49229 -15.26625,74.54686 -26.11979,73.17301 -5.20912,-0.65937 -8.62654,-10.32243 -9.66907,-26.30227 -1.04607,-16.03418 0.32206,-37.78242 3.93564,-61.57925 1.06964,-7.04396 2.26953,-13.82608 3.54496,-20.20329 0,0 10e-6,-10e-6 10e-6,-10e-6 32.03705,-25.33472 57.20365,-37.56884 63.01168,-30.32152 z"
       id="path19"
       transform="matrix(-0.95627919,-0.16681966,-0.21493421,1.0996364,1434.0586,82.168409)"
       inkscape:original-d="m 561.25982,596.09455 -48.19242,38.62162 -12.6308,99.78469"
       inkscape:path-effect="#path-effect23"
       inkscape:transform-center-x="-11.141504"
       inkscape:transform-center-y="12.634672"
       sodipodi:nodetypes="ccc" /><path
       style="fill:#999999;fill-opacity:1;stroke:#000000;stroke-width:3.72897;stroke-dasharray:none;stroke-opacity:1"
       d="m 537.35781,593.54557 c 8.79425,-2.70284 23.35294,21.13501 35.90613,58.09909 0,0 0,0 0,0 -0.85366,5.74434 -1.89115,11.74333 -3.11414,17.89866 -9.07592,45.67939 -24.20288,79.52812 -34.601,77.33544 -10.41873,-2.19704 -10.88729,-37.65703 -1.97335,-77.39094 1.24934,-5.5689 2.62178,-10.99818 4.08345,-16.2336 0,0 0,-1e-5 0,-1e-5 -8.21043,-30.4321 -9.04968,-57.01983 -0.30109,-59.70864 z"
       id="path20"
       transform="matrix(0.95627918,0.16681968,-0.21493418,1.0996364,357.80992,-105.57951)"
       sodipodi:nodetypes="ccc"
       inkscape:original-d="m 537.35781,593.54557 18.10361,58.90387 -19.91262,94.4293"
       inkscape:path-effect="#path-effect25"
       inkscape:transform-center-x="-0.42341941"
       inkscape:transform-center-y="19.467339" /><path
       style="fill:#999999;fill-opacity:1;stroke:#000000;stroke-width:6.48017;stroke-dasharray:none;stroke-opacity:1"
       d="m 648.79824,427.93757 c -4.12929,3.95199 -18.08679,-3.22137 -36.79577,-17.76369 0,-10e-6 -10e-6,-10e-6 -10e-6,-10e-6 -13.97714,-10.96091 -31.46834,-26.80865 -48.36491,-45.64846 0,0 0,0 0,0 -1.36252,-1.52047 -2.71833,-3.05948 -4.06817,-4.61677 -6.3487,-7.32439 -12.2305,-14.66748 -17.57319,-21.67908 -8.53541,-11.19521 -15.95293,-21.93266 -21.96793,-31.56007 -14.2729,-23.04516 -20.9645,-40.00371 -16.16632,-43.90803 -1e-5,0 0,0 0,0 0.005,-0.004 0.0139,-0.0113 0.009,-0.007 -0.005,0.004 0.005,-0.004 0.009,-0.007 0,0 1e-5,0 1e-5,0 4.82514,-3.86887 20.05528,6.17969 39.60516,24.81252 8.231,7.78332 17.18249,16.98553 26.56514,27.25966 5.9738,6.54212 11.88958,13.28686 18.03276,20.37407 0.19492,0.22487 3.64288,4.21124 3.83779,4.4361 0,0 10e-6,10e-6 10e-6,10e-6 16.31327,18.89855 30.16026,35.67299 40.78824,50.8153 0,0 1e-5,10e-6 1e-5,10e-6 13.66728,19.28543 20.21746,33.54189 16.08869,37.49338 z"
       id="path21"
       sodipodi:nodetypes="czc"
       transform="matrix(0,-0.60006674,-0.60006674,0,1040.5105,930.49054)"
       inkscape:original-d="m 648.79825,427.93758 c 0,0 -46.81053,-48.35856 -71.01883,-75.86044 -24.2083,-27.50188 -73.90824,-89.32316 -73.90824,-89.32316"
       inkscape:path-effect="#path-effect27" /><ellipse
       style="fill:#999999;fill-opacity:1;stroke:#000000;stroke-width:3.88955;stroke-dasharray:none;stroke-opacity:1"
       id="ellipse21"
       transform="matrix(-0.95927189,-0.28248442,-0.31333362,0.94964311,0,0)"
       ry="115.33391"
       rx="68.743912"
       cy="325.64978"
       cx="-935.85846"
       inkscape:transform-center-x="11.786215"
       inkscape:transform-center-y="-28.23379" /><ellipse
       style="fill:#999999;fill-opacity:1;stroke:#000000;stroke-width:3.88955;stroke-dasharray:none;stroke-opacity:1"
       id="ellipse22"
       cx="-937.70996"
       cy="-187.24915"
       transform="matrix(-0.95927189,-0.28248442,0.31333362,-0.94964311,0,0)"
       inkscape:transform-center-x="26.698574"
       inkscape:transform-center-y="-61.469309"
       rx="61.716873"
       ry="62.342644" /><path
       style="fill:#999999;fill-opacity:1;stroke:#000000;stroke-width:6.48017;stroke-dasharray:none;stroke-opacity:1"
       d="m 609.76613,437.48778 c -0.039,0.0923 -0.082,0.18174 -0.13,0.26987 -0.0465,0.0854 -0.0972,0.16879 -0.1522,0.2502 0,0 0,0 0,0 -0.10978,0.16248 -0.23611,0.3163 -0.37944,0.46271 0,0 0,0 0,0 l 0,0 c -0.28578,0.29106 -0.63659,0.54765 -1.05278,0.77378 0,0 0,0 0,0 l 0,0 c -0.82166,0.44642 -1.8896,0.76113 -3.19255,0.94685 l 0,0 c -2.52876,0.36035 -5.92629,0.21601 -10.06594,-0.4784 l 0,0 c -7.57762,-1.2682 -17.93548,-4.45978 -29.58409,-10.17984 l 0,0 c -9.90886,-4.82542 -21.47003,-11.9195 -32.39571,-22.21524 -9.09077,-8.25869 -17.97984,-19.99212 -22.70914,-35.87765 -0.73658,-2.68559 -1.45125,-5.40221 -2.14249,-8.14815 -7.97099,-31.66437 -11.20114,-60.78897 -11.2609,-82.83184 0.54338,-23.66071 3.60994,-38.49328 8.98505,-39.08016 0,0 10e-6,0 10e-6,0 -10e-6,0 1e-5,0 1e-5,0 0,0 0,0 0,0 0,0 10e-6,0 10e-6,0 0,0 10e-6,0 10e-6,0 0,0 2e-5,0 2e-5,0 0.018,-0.002 0.0364,-0.004 0.0184,-0.002 -0.018,0.002 4.2e-4,-4e-5 0.0184,-0.002 0,0 2e-5,0 2e-5,0 0,0 10e-6,0 10e-6,0 0,0 1e-5,0 1e-5,0 0,0 0,0 0,0 0,0 2e-5,-10e-6 2e-5,-10e-6 -1e-5,0 0,0 0,0 5.37381,-0.5206 11.99775,13.25381 18.19312,35.36518 6.08196,19.74034 13.26509,48.15371 20.64156,77.36988 -0.0279,-0.11046 1.98003,7.84743 1.95214,7.73697 1.25053,6.76817 6.50297,14.12876 11.92876,21.1395 6.84353,8.39622 15.39855,16.18523 22.57188,22.60797 l 0,0 c 8.80853,7.84026 15.91006,13.76604 21.31034,19.14504 l 0,0 c 2.80026,2.78813 4.92995,5.24691 6.22793,7.33952 l 0,0 c 0.66932,1.07893 1.11909,2.07179 1.33153,2.96398 l 0,0 c 0,0 0,0 0,0 0.10769,0.45218 0.15352,0.8831 0.13673,1.2868 l 0,0 c 0,0 0,0 0,0 -0.008,0.20349 -0.0328,0.40152 -0.0737,0.5925 0,0 0,0 0,0 -0.0205,0.0959 -0.0453,0.19033 -0.0742,0.28308 -0.0299,0.0957 -0.0639,0.18896 -0.10286,0.28125 z"
       id="path22"
       sodipodi:nodetypes="csc"
       transform="matrix(0.37285447,-0.4811586,-0.47423692,-0.35374907,746.74241,964.27692)"
       inkscape:transform-center-x="2.0232889"
       inkscape:transform-center-y="-29.517509"
       inkscape:original-d="m 609.76614,437.48778 c 0,0 -70.56427,-29.4929 -81.45917,-70.84368 C 510.43972,298.83029 505.70439,241.378 505.70439,241.378"
       inkscape:path-effect="#path-effect29" /></g><g
     inkscape:label="pelle"
     id="layer1-2"
     transform="matrix(0.24186039,-0.06310414,0.06679667,0.25601278,-60.03345,50.973453)"
     style="stroke-width:3.88853;stroke-dasharray:none"><path
       style="fill:#999999;fill-opacity:1;stroke:#000000;stroke-width:3.72897;stroke-dasharray:none;stroke-opacity:1"
       d="m 561.25982,596.09455 c 1.21872,5.1059 -4.38146,11.06068 -13.09532,15.37505 -9.10059,4.50585 -20.82614,7.12922 -35.66607,8.76537 -4e-5,-5.1e-4 0.0233,0.35488 0.0233,0.35437 0.97878,15.02892 0.43606,27.14499 -2.42497,36.97827 -2.73995,9.41712 -7.64496,16.02481 -12.90624,15.7147 -5.30992,-0.31298 -9.2942,-7.66996 -10.75205,-20.83288 -1.47776,-13.34265 -0.28751,-31.21299 2.77301,-51.2099 7e-5,-4.6e-4 0.0716,-0.46626 0.0717,-0.46672 19.09917,-6.48237 36.40124,-10.75218 49.72343,-11.61605 13.14181,-0.85218 21.02316,1.78446 22.2532,6.93779 z"
       id="path10"
       transform="matrix(-0.95627919,-0.16681966,-0.21493421,1.0996364,1434.0586,82.168409)"
       inkscape:original-d="m 561.25982,596.09455 -60.36901,14.40934 -3.70028,62.77841"
       inkscape:path-effect="#path-effect10"
       inkscape:transform-center-x="-11.141504"
       inkscape:transform-center-y="12.634672"
       sodipodi:nodetypes="ccc" /><path
       style="fill:#999999;fill-opacity:1;stroke:#000000;stroke-width:3.72897;stroke-dasharray:none;stroke-opacity:1"
       d="m 537.35781,593.54557 c 8.27475,-5.50949 32.53958,17.94957 57.82221,55.45843 0,0 0,10e-6 0,10e-6 0.27059,3.30142 0.50814,6.67471 0.7087,10.10516 2.87396,49.15678 -3.07966,87.60839 -13.74851,88.08338 -10.69816,0.4763 -19.90158,-35.38554 -21.1334,-77.78904 -0.0898,-3.09161 -0.1388,-6.15418 -0.14987,-9.17912 0,0 0,0 0,0 -20.48779,-31.21329 -31.76426,-61.17574 -23.49913,-66.67882 z"
       id="path10-6"
       transform="matrix(0.95627918,0.16681968,-0.21493418,1.0996364,357.80992,-105.57951)"
       sodipodi:nodetypes="ccc"
       inkscape:original-d="m 537.35781,593.54557 40.66067,61.06863 4.12173,92.57832"
       inkscape:path-effect="#path-effect10-3"
       inkscape:transform-center-x="-0.42341941"
       inkscape:transform-center-y="19.467339" /><path
       style="fill:#999999;fill-opacity:1;stroke:#000000;stroke-width:6.48017;stroke-dasharray:none;stroke-opacity:1"
       d="m 648.79825,427.93757 c -0.0883,0.009 -0.17613,0.0143 -0.26494,0.0156 -0.0855,0.001 -0.17136,-0.001 -0.25739,-0.008 -0.17138,-0.0124 -0.34436,-0.0393 -0.51778,-0.0805 0,0 0,0 0,0 l 0,0 c -0.3444,-0.0814 -0.69498,-0.21889 -1.04774,-0.41077 0,0 0,-10e-6 0,-10e-6 h 0 c -0.69653,-0.37887 -1.41448,-0.97089 -2.14703,-1.76133 l 0,0 c -1.42346,-1.53583 -2.92946,-3.83189 -4.52122,-6.7743 l 0,0 c -3.00917,-5.56143 -6.21348,-13.14874 -10.15408,-22.45644 l 0,0 c -3.28905,-7.74418 -7.35071,-17.40662 -12.01949,-26.29736 l 0,0 c 0,0 -10e-6,-10e-6 -10e-6,-10e-6 v 0 c -3.9436,-7.29329 -8.23058,-14.81975 -13.38288,-19.83273 l 0,0 c -5.75409,-6.58744 -9.47518,-13.33274 -11.82096,-19.38821 -1.97292,-4.68599 -3.62547,-9.40468 -5.03441,-14.1294 -0.93242,-3.12674 -1.74145,-6.2 -2.45565,-9.19417 -4.60096,-19.10599 -6.49991,-37.55312 -7.19653,-53.16867 l 0,0 c -0.87348,-18.98888 0.009,-35.23661 1.82329,-46.83955 l 0,0 c 0.98545,-6.30855 2.25514,-11.32198 3.7356,-14.81496 l 0,0 c 0.76045,-1.79413 1.57359,-3.18454 2.43439,-4.14195 l 0,0 c 0.4353,-0.48414 0.8811,-0.85694 1.33844,-1.11477 l 1e-5,0 c 0,0 0,0 0,0 0.54586,-0.1436 0.86088,-0.24779 1.05828,-0.31692 0,0 0,0 0,0 l 0,0 c 0.1779,-0.038 0.26779,-0.0647 0.31315,-0.082 0.0227,-0.009 0.0342,-0.0149 0.04,-0.0191 0.003,-0.006 0.009,-0.006 0.006,-0.006 -0.003,1.4e-4 0.003,-1.3e-4 0.006,-2.7e-4 0.006,0.01 0.0184,0.0149 0.0417,0.0215 0.0467,0.0132 0.13857,0.0318 0.31914,0.0539 l 0,0 c 0,0 0,0 0,0 0.20381,0.051 0.52469,0.12466 1.08249,0.21736 0,0 10e-6,0 10e-6,0 l 0,0 c 0.47815,0.21176 0.95827,0.53635 1.43791,0.96918 l 0,0 c 0.94813,0.85557 1.90164,2.13611 2.85494,3.80608 l 0,0 c 1.85514,3.24966 3.72427,7.98667 5.60236,13.9497 l 0,0 c 3.52167,11.18145 6.94533,26.19214 10.77308,44.1496 l 0,0 c 3.0357,14.18658 6.57724,32.13531 10.82962,48.11979 0.69825,2.59924 1.40651,5.17455 2.14382,7.67643 1.1166,3.78895 2.27577,7.32767 3.57832,10.63884 1.98474,4.5168 3.15258,7.77407 4.61492,9.38429 l 0,0 c 8.58003,10.60104 13.54622,21.74075 16.58319,31.39406 0,0 0,10e-6 0,10e-6 l 0,0 c 3.95305,12.07797 5.87738,23.40874 6.71278,32.79219 l 0,0 c 0.98757,10.9107 0.61728,19.95825 -0.49623,26.3351 l 0,0 c -0.60251,3.4538 -1.42467,6.17367 -2.4204,8.08446 l 0,0 c -0.51213,0.98269 -1.06535,1.74903 -1.66055,2.29063 v 0 c 0,0 0,0 0,0 -0.30131,0.27417 -0.61053,0.48994 -0.93072,0.6467 l 0,0 c 0,0 0,0 0,0 -0.16093,0.0786 -0.3236,0.14209 -0.48898,0.19064 -0.0829,0.0243 -0.16625,0.0448 -0.25019,0.0616 -0.0871,0.0173 -0.17418,0.0305 -0.26245,0.0398 z"
       id="path7-3"
       sodipodi:nodetypes="czc"
       transform="matrix(0,-0.60006674,-0.60006674,0,1040.5105,930.49054)"
       inkscape:original-d="m 648.79825,427.93758 c 0,0 -6.34121,-62.21845 -30.54951,-89.72033 -24.2083,-27.50188 -29.52151,-151.10114 -29.52151,-151.10114"
       inkscape:path-effect="#path-effect8-1" /><ellipse
       style="fill:#999999;fill-opacity:1;stroke:#000000;stroke-width:3.88955;stroke-dasharray:none;stroke-opacity:1"
       id="path2"
       transform="matrix(-0.95927189,-0.28248442,-0.31333362,0.94964311,0,0)"
       ry="115.33391"
       rx="68.743912"
       cy="325.64978"
       cx="-935.85846"
       inkscape:transform-center-x="11.786215"
       inkscape:transform-center-y="-28.23379" /><ellipse
       style="fill:#999999;fill-opacity:1;stroke:#000000;stroke-width:3.88955;stroke-dasharray:none;stroke-opacity:1"
       id="path3"
       cx="-937.70996"
       cy="-187.24915"
       transform="matrix(-0.95927189,-0.28248442,0.31333362,-0.94964311,0,0)"
       inkscape:transform-center-x="26.698574"
       inkscape:transform-center-y="-61.469309"
       rx="61.716873"
       ry="62.342644" /><path
       style="fill:#999999;fill-opacity:1;stroke:#000000;stroke-width:6.48017;stroke-dasharray:none;stroke-opacity:1"
       d="m 609.76614,437.48777 c -0.0832,0.0191 -0.16671,0.0339 -0.25154,0.0449 -0.0818,0.0105 -0.16441,0.0172 -0.24772,0.0202 -0.16621,0.006 -0.33538,-0.003 -0.50737,-0.0273 0,0 0,0 0,0 l 0,0 c -0.34238,-0.0478 -0.69621,-0.1544 -1.06075,-0.31844 0,0 0,0 0,0 h 0 c -0.72204,-0.32492 -1.48687,-0.87513 -2.29018,-1.63956 l 0,0 c -1.57202,-1.49592 -3.29309,-3.81276 -5.1341,-6.86698 l 0,0 c -3.48414,-5.78013 -7.39613,-14.19551 -11.5617,-24.69117 l 0,0 c -6.96963,-17.566 -14.15515,-39.73376 -21.91918,-65.73356 -3.33576,-11.75569 -4.93225,-24.00571 -4.97878,-36.49429 -0.0321,-8.61476 0.67426,-16.92744 1.8485,-24.77313 3.06575,-21.43954 9.19006,-40.52875 15.70672,-56.02679 7.27148,-17.34771 15.25886,-30.93968 21.9857,-39.86258 7.44978,-9.37194 13.06182,-13.87675 16.08442,-12.39463 0,0 10e-6,1e-5 10e-6,1e-5 0,0 1e-5,0 1e-5,0 0.0165,0.008 0.0293,0.0145 0.0128,0.006 -0.0165,-0.008 -0.004,-0.002 0.0128,0.006 0,0 1e-5,1e-5 1e-5,1e-5 0,0 10e-6,0 10e-6,0 3.00222,1.51315 3.05752,8.81192 0.76403,20.0816 -1.91472,10.8164 -5.31787,24.65663 -9.00939,41.69808 -3.25318,15.03384 -6.87886,32.86824 -8.58336,50.94909 -0.58082,6.70649 -1.00038,13.5688 -1.03068,20.31146 -0.0441,9.81592 0.73843,18.81156 2.69497,27.14306 6.08107,26.47771 9.82603,50.83873 11.46296,69.13679 l 0,0 c 1.01252,11.29647 1.24305,20.61402 0.66978,27.35181 l 0,0 c -0.30313,3.56285 -0.83076,6.40599 -1.5884,8.44356 l 0,0 c -0.38712,1.04112 -0.83399,1.87162 -1.34172,2.48013 l 0,0 c 0,0 0,10e-6 0,10e-6 -0.25634,0.30721 -0.52802,0.55777 -0.81536,0.75026 l 0,0 c 0,0 0,10e-6 0,10e-6 -0.14433,0.0967 -0.29255,0.17867 -0.44474,0.24585 -0.0763,0.0337 -0.15352,0.0636 -0.23176,0.0898 -0.0811,0.0271 -0.16273,0.0501 -0.24596,0.0692 z"
       id="path7"
       sodipodi:nodetypes="csc"
       transform="matrix(0.37285447,-0.4811586,-0.47423692,-0.35374907,746.74241,964.27692)"
       inkscape:transform-center-x="2.0232889"
       inkscape:transform-center-y="-29.517509"
       inkscape:original-d="m 609.76614,437.48778 c 0,0 -14.32377,-62.53892 -25.21867,-103.8897 -17.86725,-67.81381 32.9055,-164.86736 32.9055,-164.86736"
       inkscape:path-effect="#path-effect8" /></g><path
     style="display:inline;fill:#904b00;fill-opacity:1;stroke:#000000;stroke-width:1;stroke-linecap:round;stroke-linejoin:round;stroke-dasharray:none;stroke-opacity:1"
     d="M 221.09481,88.963653 V 225.33668 h -47.69193"
     id="path18" /><path
     style="display:inline;fill:#904b00;fill-opacity:1;stroke:#000000;stroke-width:1;stroke-linecap:round;stroke-linejoin:round;stroke-dasharray:none;stroke-opacity:1"
     d="M 221.09481,88.963653 173.40288,225.33668 Z"
     id="path4"
     sodipodi:nodetypes="ccc" /><path
     style="display:inline;fill:#904b00;fill-opacity:1;stroke:#000000;stroke-width:1;stroke-linecap:round;stroke-linejoin:round;stroke-dasharray:none;stroke-opacity:1"
     d="M 505.7541,82.7766 V 225.33668 H 255.95168"
     id="path29" /><path
     style="display:inline;fill:#904b00;fill-opacity:1;stroke:#000000;stroke-width:1;stroke-linecap:round;stroke-linejoin:round;stroke-dasharray:none;stroke-opacity:1"
     d="M 505.7541,82.7766 255.95168,225.33668 Z"
     id="path30"
     sodipodi:nodetypes="ccc" /><text
     xml:space="preserve"
     style="font-style:normal;font-variant:normal;font-weight:normal;font-stretch:normal;font-size:16.9333px;font-family:'Atkinson Hyperlegible';-inkscape-font-specification:'Atkinson Hyperlegible';text-align:start;letter-spacing:-0.661458px;writing-mode:lr-tb;direction:ltr;text-anchor:start;fill:#ffffff;fill-opacity:1;stroke:#000000;stroke-width:1;stroke-linecap:round;stroke-linejoin:round;stroke-dasharray:none;stroke-opacity:1"
     x="367.83426"
     y="30.186623"
     id="text33"><tspan
       sodipodi:role="line"
       id="tspan33"
       style="font-style:normal;font-variant:normal;font-weight:normal;font-stretch:normal;font-family:'Atkinson Hyperlegible';-inkscape-font-specification:'Atkinson Hyperlegible';stroke-width:1"
       x="367.83426"
       y="30.186623" /></text><g
     id="g40"
     transform="translate(268.32579,91.283798)"><rect
       style="fill:#ffffff;fill-opacity:1;stroke:#000000;stroke-width:1;stroke-linecap:round;stroke-linejoin:round;stroke-dasharray:none;stroke-opacity:1"
       id="rect36"
       width="149.86424"
       height="75.627075"
       x="58.469513"
       y="-90.783798"
       ry="19.252371" /><circle
       style="fill:#ffffff;fill-opacity:1;stroke:#000000;stroke-width:1;stroke-linecap:round;stroke-linejoin:round;stroke-dasharray:none;stroke-opacity:1"
       id="circle36"
       cx="39.184685"
       cy="-30.161896"
       r="3.6091158" /><circle
       style="fill:#ffffff;fill-opacity:1;stroke:#000000;stroke-width:1;stroke-linecap:round;stroke-linejoin:round;stroke-dasharray:none;stroke-opacity:1"
       id="circle37"
       cx="33.255428"
       cy="-23.717049"
       r="2.5779397" /><circle
       style="fill:#ffffff;fill-opacity:1;stroke:#000000;stroke-width:1;stroke-linecap:round;stroke-linejoin:round;stroke-dasharray:none;stroke-opacity:1"
       id="circle38"
       cx="48.980858"
       cy="-40.989243"
       r="5.9292617" /><text
       xml:space="preserve"
       style="font-style:normal;font-variant:normal;font-weight:normal;font-stretch:normal;font-size:16.9333px;font-family:'Atkinson Hyperlegible';-inkscape-font-specification:'Atkinson Hyperlegible';text-align:start;letter-spacing:-0.661458px;writing-mode:lr-tb;direction:ltr;text-anchor:start;fill:#000000;fill-opacity:1;stroke:none;stroke-width:1;stroke-linecap:round;stroke-linejoin:round;stroke-dasharray:none;stroke-opacity:1"
       x="79.114532"
       y="-57.076591"
       id="text40"><tspan
         sodipodi:role="line"
         style="fill:#000000;fill-opacity:1;stroke:none;stroke-width:1"
         x="79.114532"
         y="-57.076591"
         id="tspan40">Inte så jobbigt,</tspan><tspan
         sodipodi:role="line"
         style="fill:#000000;fill-opacity:1;stroke:none;stroke-width:1"
         x="79.114532"
         y="-35.909966"
         id="tspan44">men tar lite tid...</tspan></text></g><g
     id="g36"
     transform="translate(-88.59388,80.711101)"><rect
       style="fill:#ffffff;fill-opacity:1;stroke:#000000;stroke-width:1;stroke-linecap:round;stroke-linejoin:round;stroke-dasharray:none;stroke-opacity:1"
       id="rect30"
       width="124.34394"
       height="75.627075"
       x="89.09388"
       y="-79.117371"
       ry="19.252371" /><circle
       style="fill:#ffffff;fill-opacity:1;stroke:#000000;stroke-width:1;stroke-linecap:round;stroke-linejoin:round;stroke-dasharray:none;stroke-opacity:1"
       id="path31"
       cx="234.23271"
       cy="-0.26668301"
       r="3.6091158" /><circle
       style="fill:#ffffff;fill-opacity:1;stroke:#000000;stroke-width:1;stroke-linecap:round;stroke-linejoin:round;stroke-dasharray:none;stroke-opacity:1"
       id="path32"
       cx="242.15733"
       cy="6.9073153"
       r="2.5779397" /><circle
       style="fill:#ffffff;fill-opacity:1;stroke:#000000;stroke-width:1;stroke-linecap:round;stroke-linejoin:round;stroke-dasharray:none;stroke-opacity:1"
       id="path33"
       cx="222.15434"
       cy="-7.4482722"
       r="5.9292617" /><text
       xml:space="preserve"
       style="font-style:normal;font-variant:normal;font-weight:normal;font-stretch:normal;font-size:16.9333px;font-family:'Atkinson Hyperlegible';-inkscape-font-specification:'Atkinson Hyperlegible';text-align:start;letter-spacing:-0.661458px;writing-mode:lr-tb;direction:ltr;text-anchor:start;fill:#000000;fill-opacity:1;stroke:none;stroke-width:1;stroke-linecap:round;stroke-linejoin:round;stroke-dasharray:none;stroke-opacity:1"
       x="104.08859"
       y="-57.517475"
       id="text34"><tspan
         sodipodi:role="line"
         style="fill:#000000;fill-opacity:1;stroke:none;stroke-width:1"
         x="104.08859"
         y="-57.517475"
         id="tspan35">Detta går fort!</tspan><tspan
         sodipodi:role="line"
         style="fill:#000000;fill-opacity:1;stroke:none;stroke-width:1"
         x="104.08859"
         y="-36.350849"
         id="tspan42">Dock väldigt</tspan><tspan
         sodipodi:role="line"
         style="fill:#000000;fill-opacity:1;stroke:none;stroke-width:1"
         x="104.08859"
         y="-15.184225"
         id="tspan43">tungt...</tspan></text></g></svg>
