<?xml version="1.0" encoding="UTF-8" standalone="no"?>
<!-- Created with Inkscape (http://www.inkscape.org/) -->

<svg
   width="183.77722mm"
   height="192.16278mm"
   viewBox="0 0 183.77722 192.16278"
   version="1.1"
   id="svg1"
   inkscape:version="1.4 (unknown)"
   sodipodi:docname="gyllene_cykel.svg"
   xml:space="preserve"
   xmlns:inkscape="http://www.inkscape.org/namespaces/inkscape"
   xmlns:sodipodi="http://sodipodi.sourceforge.net/DTD/sodipodi-0.dtd"
   xmlns="http://www.w3.org/2000/svg"
   xmlns:svg="http://www.w3.org/2000/svg"><sodipodi:namedview
     id="namedview1"
     pagecolor="#505050"
     bordercolor="#eeeeee"
     borderopacity="1"
     inkscape:showpageshadow="0"
     inkscape:pageopacity="0"
     inkscape:pagecheckerboard="0"
     inkscape:deskcolor="#505050"
     inkscape:document-units="mm"
     showborder="false"
     inkscape:zoom="0.72572936"
     inkscape:cx="-159.15024"
     inkscape:cy="312.78878"
     inkscape:window-width="2560"
     inkscape:window-height="1371"
     inkscape:window-x="0"
     inkscape:window-y="32"
     inkscape:window-maximized="1"
     inkscape:current-layer="svg1" /><defs
     id="defs1"><rect
       x="130.03435"
       y="222.84697"
       width="82.068893"
       height="25.062149"
       id="rect11" /><inkscape:path-effect
       effect="skeletal"
       id="path-effect10"
       is_visible="true"
       lpeversion="1"
       pattern="M 0,18.867925 C 0,8.4528305 8.4528305,0 18.867925,0 29.28302,0 37.735851,8.4528305 37.735851,18.867925 c 0,10.415095 -8.452831,18.867926 -18.867926,18.867926 C 8.4528305,37.735851 0,29.28302 0,18.867925 Z"
       copytype="single_stretched"
       prop_scale="1"
       scale_y_rel="false"
       spacing="0"
       normal_offset="0"
       tang_offset="0"
       prop_units="false"
       vertical_pattern="false"
       hide_knot="false"
       fuse_tolerance="0" /><inkscape:path-effect
       effect="skeletal"
       id="path-effect8"
       is_visible="true"
       lpeversion="1"
       pattern="M 0,18.867925 C 0,8.4528305 8.4528305,0 18.867925,0 29.28302,0 37.735851,8.4528305 37.735851,18.867925 c 0,10.415095 -8.452831,18.867926 -18.867926,18.867926 C 8.4528305,37.735851 0,29.28302 0,18.867925 Z"
       copytype="single_stretched"
       prop_scale="1"
       scale_y_rel="false"
       spacing="0"
       normal_offset="0"
       tang_offset="0"
       prop_units="false"
       vertical_pattern="false"
       hide_knot="false"
       fuse_tolerance="0" /><inkscape:path-effect
       effect="skeletal"
       id="path-effect7"
       is_visible="true"
       lpeversion="1"
       pattern="M 0,18.867925 C 0,8.4528305 8.4528305,0 18.867925,0 29.28302,0 37.735851,8.4528305 37.735851,18.867925 c 0,10.415095 -8.452831,18.867926 -18.867926,18.867926 C 8.4528305,37.735851 0,29.28302 0,18.867925 Z"
       copytype="single_stretched"
       prop_scale="1"
       scale_y_rel="false"
       spacing="0"
       normal_offset="0"
       tang_offset="0"
       prop_units="false"
       vertical_pattern="false"
       hide_knot="false"
       fuse_tolerance="0" /><inkscape:path-effect
       effect="spiro"
       id="path-effect6"
       is_visible="true"
       lpeversion="1" /><inkscape:path-effect
       effect="skeletal"
       id="path-effect8-1"
       is_visible="true"
       lpeversion="1"
       pattern="M 0,18.867925 C 0,8.4528305 8.4528305,0 18.867925,0 29.28302,0 37.735851,8.4528305 37.735851,18.867925 c 0,10.415095 -8.452831,18.867926 -18.867926,18.867926 C 8.4528305,37.735851 0,29.28302 0,18.867925 Z"
       copytype="single_stretched"
       prop_scale="1"
       scale_y_rel="false"
       spacing="0"
       normal_offset="0"
       tang_offset="0"
       prop_units="false"
       vertical_pattern="false"
       hide_knot="false"
       fuse_tolerance="0" /><inkscape:path-effect
       effect="skeletal"
       id="path-effect10-3"
       is_visible="true"
       lpeversion="1"
       pattern="M 0,18.867925 C 0,8.4528305 8.4528305,0 18.867925,0 29.28302,0 37.735851,8.4528305 37.735851,18.867925 c 0,10.415095 -8.452831,18.867926 -18.867926,18.867926 C 8.4528305,37.735851 0,29.28302 0,18.867925 Z"
       copytype="single_stretched"
       prop_scale="1"
       scale_y_rel="false"
       spacing="0"
       normal_offset="0"
       tang_offset="0"
       prop_units="false"
       vertical_pattern="false"
       hide_knot="false"
       fuse_tolerance="0" /><inkscape:path-effect
       effect="skeletal"
       id="path-effect10-8"
       is_visible="true"
       lpeversion="1"
       pattern="M 0,18.867925 C 0,8.4528305 8.4528305,0 18.867925,0 29.28302,0 37.735851,8.4528305 37.735851,18.867925 c 0,10.415095 -8.452831,18.867926 -18.867926,18.867926 C 8.4528305,37.735851 0,29.28302 0,18.867925 Z"
       copytype="single_stretched"
       prop_scale="1"
       scale_y_rel="false"
       spacing="0"
       normal_offset="0"
       tang_offset="0"
       prop_units="false"
       vertical_pattern="false"
       hide_knot="false"
       fuse_tolerance="0" /><inkscape:path-effect
       effect="skeletal"
       id="path-effect10-3-2"
       is_visible="true"
       lpeversion="1"
       pattern="M 0,18.867925 C 0,8.4528305 8.4528305,0 18.867925,0 29.28302,0 37.735851,8.4528305 37.735851,18.867925 c 0,10.415095 -8.452831,18.867926 -18.867926,18.867926 C 8.4528305,37.735851 0,29.28302 0,18.867925 Z"
       copytype="single_stretched"
       prop_scale="1"
       scale_y_rel="false"
       spacing="0"
       normal_offset="0"
       tang_offset="0"
       prop_units="false"
       vertical_pattern="false"
       hide_knot="false"
       fuse_tolerance="0" /><inkscape:path-effect
       effect="skeletal"
       id="path-effect8-6"
       is_visible="true"
       lpeversion="1"
       pattern="M 0,18.867925 C 0,8.4528305 8.4528305,0 18.867925,0 29.28302,0 37.735851,8.4528305 37.735851,18.867925 c 0,10.415095 -8.452831,18.867926 -18.867926,18.867926 C 8.4528305,37.735851 0,29.28302 0,18.867925 Z"
       copytype="single_stretched"
       prop_scale="1"
       scale_y_rel="false"
       spacing="0"
       normal_offset="0"
       tang_offset="0"
       prop_units="false"
       vertical_pattern="false"
       hide_knot="false"
       fuse_tolerance="0" /><inkscape:path-effect
       effect="skeletal"
       id="path-effect8-1-5"
       is_visible="true"
       lpeversion="1"
       pattern="M 0,18.867925 C 0,8.4528305 8.4528305,0 18.867925,0 29.28302,0 37.735851,8.4528305 37.735851,18.867925 c 0,10.415095 -8.452831,18.867926 -18.867926,18.867926 C 8.4528305,37.735851 0,29.28302 0,18.867925 Z"
       copytype="single_stretched"
       prop_scale="1"
       scale_y_rel="false"
       spacing="0"
       normal_offset="0"
       tang_offset="0"
       prop_units="false"
       vertical_pattern="false"
       hide_knot="false"
       fuse_tolerance="0" /></defs><path
     style="fill:#999999;fill-opacity:1;stroke:#000000;stroke-width:1.97324;stroke-dasharray:none;stroke-opacity:1"
     d="m 561.25982,596.09455 c 6.5,6.88823 -9.32397,30.20727 -33.04401,52.52035 0,0 0,0 0,0 0.42206,5.79649 0.73999,11.76209 0.92359,17.82374 0.67139,22.16625 -0.59898,41.47212 -3.60602,56.11046 -2.96053,14.41193 -7.61254,23.93629 -12.83738,23.93629 -5.25434,0 -9.84734,-9.6653 -12.83738,-26.26526 -3.00325,-16.67331 -4.2812,-39.60202 -3.60602,-65.02438 0.18364,-6.91463 0.50149,-13.61258 0.92359,-19.96821 0,0 10e-6,-10e-6 10e-6,-10e-6 31.85453,-30.13352 57.58577,-46.01893 64.08362,-39.13298 z"
     id="path10"
     transform="matrix(-0.1800406,0.16330432,0.19877371,0.21914509,18.73954,-153.36486)"
     inkscape:original-d="M 561.25982,596.09455 512.696,641.92122 v 104.56416"
     inkscape:path-effect="#path-effect10" /><g
     style="fill:none;stroke-width:1.16583"
     id="g1"
     transform="matrix(0.63608598,-0.71309794,0.71309794,0.63608598,-49.215466,64.114164)"><path
       fill-rule="evenodd"
       clip-rule="evenodd"
       d="m 114.15,147.72 c -26.81,0 -31.1,-30.59 -15.51,-42.62 -0.92,-1.87 -1.88,-3.85 -2.88,-5.8795 L 77.07,127.73 34.55,127.24 31.86,123.36 42,108.89 c -1.8278,-0.609 -3.7434,-0.913 -5.67,-0.9 -21.17,0 -22.19,32 0.36,32 6.27,0 10.63,-3 13.08,-7.11 l 8.44,0.33 c -3,8.08 -10.07,14.47 -21.25,14.47 -33.37999,0 -31.85999,-47.42 -0.53,-47.42 3.4924,-0.049 6.9565,0.632 10.17,2 l 7.75,-11.0795 -3.27,-6.11 -9.45,1.32 c -3.43,-4.6 2.33,-11.72 9,-10.86 3,0.39 16,1.55 16,1.55 l 0.43,5.77 -9.06,1.3 1.91,3.72 30.09,-0.43 c -2.51,-5.16 -4.79,-9.83 -6.28,-12.91 -3.24,-6.67 6.29,-8.07 10.1,-4.23 l -2,6.64 c 0,0 14.41,29.3895 18.73,37.5995 1,1.81 4.49,5.9 7.71,7.39 l -2.57,4.75 C 109.21,124.73 106,120 103,114 c -0.26,-0.52 -0.54,-1.08 -0.83,-1.68 -9,8.7 -5.61,27.59 11.67,27.59 20.5,0 20.63,-31.88 -0.36,-31.88 h -0.57 l -2.76,-7.58 c 1.135,-0.137 2.277,-0.207 3.42,-0.21 31.26,0.06 31.06,47.48 0.58,47.48 z M 47.48,112.28 40.12,122 52,121.9 c -0.3872,-3.622 -1.9788,-7.009 -4.52,-9.62 z M 58.1,98.2805 52.25,106 c 4.4114,4.162 7.0838,9.839 7.48,15.89 l 11,-0.08 z m 5.38,-3.45 12.18,23.7295 16,-24.4595 z"
       fill="#000000"
       id="path1"
       style="stroke-width:1.16583" /></g><g
     inkscape:label="pelle"
     id="layer1-2"
     transform="matrix(0.18514205,-0.16793154,0.17775801,0.19597558,-218.44289,70.967194)"
     style="stroke-width:2.05768;stroke-dasharray:none"><path
       style="fill:#999999;fill-opacity:1;stroke:#000000;stroke-width:1.97324;stroke-dasharray:none;stroke-opacity:1"
       d="m 537.35781,593.54557 c 8.45628,-3.45948 24.6108,18.80403 40.36923,55.1139 0,0 10e-6,0 10e-6,10e-6 -1.18454,6.42885 -2.60524,13.20065 -4.25912,20.16718 -5.4552,22.97867 -12.31142,43.32128 -19.21354,57.52849 -6.89082,14.18395 -13.6289,21.82359 -18.70559,20.5236 -10.4411,-2.67365 -8.90898,-38.48484 2.0179,-77.90932 1.70868,-6.165 3.55817,-12.16369 5.49395,-17.92035 0,0 0,0 0,0 -10.74148,-28.35542 -14.12041,-54.05986 -5.70284,-57.50351 z"
       id="path10-6"
       transform="matrix(0.97244576,0,0,1.1182265,211.36199,-25.748793)"
       sodipodi:nodetypes="ccc"
       inkscape:original-d="m 537.35781,593.54557 23.03604,56.30871 -24.84505,97.02446"
       inkscape:path-effect="#path-effect10-3" /><path
       style="fill:#999999;fill-opacity:1;stroke:#000000;stroke-width:3.42909;stroke-dasharray:none;stroke-opacity:1"
       d="m 648.79824,427.93757 c -4.12929,3.95199 -18.08679,-3.22137 -36.79577,-17.76369 0,-10e-6 -10e-6,-10e-6 -10e-6,-10e-6 -13.97714,-10.96091 -31.46834,-26.80865 -48.36491,-45.64846 0,0 0,0 0,0 -1.36252,-1.52047 -2.71833,-3.05948 -4.06817,-4.61677 -6.3487,-7.32439 -12.2305,-14.66748 -17.57319,-21.67908 -8.53541,-11.19521 -15.95293,-21.93266 -21.96793,-31.56007 -14.2729,-23.04516 -20.9645,-40.00371 -16.16632,-43.90803 -1e-5,0 0,0 0,0 0.005,-0.004 0.0139,-0.0113 0.009,-0.007 -0.005,0.004 0.005,-0.004 0.009,-0.007 0,0 1e-5,0 1e-5,0 4.82514,-3.86887 20.05528,6.17969 39.60516,24.81252 8.231,7.78332 17.18249,16.98553 26.56514,27.25966 5.9738,6.54212 11.88958,13.28686 18.03276,20.37407 0.19492,0.22487 3.64288,4.21124 3.83779,4.4361 0,0 10e-6,10e-6 10e-6,10e-6 16.31327,18.89855 30.16026,35.67299 40.78824,50.8153 0,0 1e-5,10e-6 1e-5,10e-6 13.66728,19.28543 20.21746,33.54189 16.08869,37.49338 z"
       id="path7-3"
       sodipodi:nodetypes="czc"
       transform="matrix(0,-0.60006674,-0.60006674,0,1040.5105,930.49054)"
       inkscape:original-d="m 648.79825,427.93758 c 0,0 -46.81053,-48.35856 -71.01883,-75.86044 -24.2083,-27.50188 -73.90824,-89.32316 -73.90824,-89.32316"
       inkscape:path-effect="#path-effect8-1" /><ellipse
       style="fill:#999999;fill-opacity:1;stroke:#000000;stroke-width:2.05821;stroke-dasharray:none;stroke-opacity:1"
       id="path2"
       transform="matrix(-0.95927189,-0.28248442,-0.31333362,0.94964311,0,0)"
       ry="115.33391"
       rx="68.743912"
       cy="325.64978"
       cx="-935.85846"
       inkscape:transform-center-x="11.786215"
       inkscape:transform-center-y="-28.23379" /><ellipse
       style="fill:#999999;fill-opacity:1;stroke:#000000;stroke-width:2.05821;stroke-dasharray:none;stroke-opacity:1"
       id="path3"
       cx="-937.70996"
       cy="-187.24915"
       transform="matrix(-0.95927189,-0.28248442,0.31333362,-0.94964311,0,0)"
       inkscape:transform-center-x="26.698574"
       inkscape:transform-center-y="-61.469309"
       rx="61.716873"
       ry="62.342644" /><path
       style="fill:#999999;fill-opacity:1;stroke:#000000;stroke-width:3.42909;stroke-dasharray:none;stroke-opacity:1"
       d="m 609.76614,437.48777 c -0.0807,0.0353 -0.16351,0.0656 -0.24833,0.0909 -0.0827,0.0246 -0.16728,0.0445 -0.25382,0.0596 0,0 0,0 0,0 -0.17258,0.0301 -0.35271,0.0414 -0.54042,0.034 0,0 -10e-6,0 -10e-6,0 l 0,0 c -0.37336,-0.0148 -0.77603,-0.1037 -1.2075,-0.26475 l 0,0 c -0.85256,-0.31823 -1.8153,-0.91855 -2.88054,-1.78824 l 0,0 c -2.07272,-1.69226 -4.52809,-4.40263 -7.29891,-8.04099 l 0,0 c -5.14106,-6.75056 -11.40894,-16.75721 -18.21804,-29.35935 l 0,0 c -5.82664,-10.78108 -12.2383,-23.81011 -18.45423,-38.31462 l 0,0 0,-1e-5 0,0 c -4.69313,-10.91016 -9.68035,-23.49621 -13.66303,-37.07255 l 0,0 c -2.79378,-9.56271 -5.15421,-19.30125 -7.28622,-29.33707 -0.90131,-4.23648 -1.75906,-8.51329 -2.57727,-12.83307 -1.31885,-6.96295 -2.49757,-13.84026 -3.55946,-20.57787 -3.97719,-25.2404 -6.44144,-49.12652 -7.79611,-69.76771 -2.49636,-48.0543 -0.47673,-80.32388 6.21373,-81.11213 0.008,-9.1e-4 0.0172,-0.002 0.009,-0.001 -0.008,9.1e-4 0.001,-1.4e-4 0.009,-0.001 6.69421,-0.72976 16.42136,30.16275 25.49438,77.02877 4.25629,20.4735 8.37701,42.65158 12.99279,67.52712 1.20671,6.50619 2.45022,13.21388 3.71284,19.88262 0.7879,4.16148 1.57366,8.25745 2.36831,12.3205 1.90153,9.70507 3.72562,18.70852 5.78018,27.55401 l 0,0 c 2.69601,11.74659 6.40532,24.14124 9.61272,35.08752 10e-6,0 10e-6,0 10e-6,10e-6 l 0,0 c 4.44269,15.12621 8.17618,27.62192 11.51354,39.82388 l 0,0 c 3.73159,13.64264 6.40688,24.9163 7.66998,33.28713 l 0,0 c 0.67664,4.48434 0.94245,8.10986 0.74899,10.76318 l 0,0 c -0.0994,1.36406 -0.32093,2.47271 -0.66969,3.30992 l 0,0 c -0.17653,0.42378 -0.38613,0.77841 -0.62899,1.06157 l 0,0 c 0,0 0,0 0,0 -0.12214,0.14247 -0.25286,0.26695 -0.3921,0.37309 0,0 0,0 0,0 -0.0698,0.0532 -0.14186,0.10188 -0.21604,0.14588 -0.0761,0.0451 -0.15452,0.0854 -0.23524,0.12076 z"
       id="path7"
       sodipodi:nodetypes="csc"
       transform="matrix(0.37285447,-0.4811586,-0.47423692,-0.35374907,746.74241,964.27692)"
       inkscape:transform-center-x="2.0232889"
       inkscape:transform-center-y="-29.517509"
       inkscape:original-d="m 609.76614,437.48778 c 0,0 -34.18911,-77.96372 -45.08401,-119.3145 -17.86725,-67.81381 -32.67691,-208.97043 -32.67691,-208.97043"
       inkscape:path-effect="#path-effect8" /></g><path
     style="fill:#ff8500;stroke:#3c3c3c;stroke-width:5;stroke-linecap:round;stroke-linejoin:round;stroke-dasharray:none;stroke-opacity:1"
     d="M 30.067997,189.66279 181.27722,21.990294"
     id="path4"
     sodipodi:nodetypes="cc" /></svg>
