<?xml version="1.0" encoding="UTF-8" standalone="no"?>
<!-- Created with Inkscape (http://www.inkscape.org/) -->

<svg
   width="74.239426mm"
   height="135.4664mm"
   viewBox="0 0 74.239425 135.4664"
   version="1.1"
   id="svg1"
   inkscape:version="1.4 (unknown)"
   sodipodi:docname="gyllene_stege.svg"
   xml:space="preserve"
   xmlns:inkscape="http://www.inkscape.org/namespaces/inkscape"
   xmlns:sodipodi="http://sodipodi.sourceforge.net/DTD/sodipodi-0.dtd"
   xmlns="http://www.w3.org/2000/svg"
   xmlns:svg="http://www.w3.org/2000/svg"><sodipodi:namedview
     id="namedview1"
     pagecolor="#505050"
     bordercolor="#eeeeee"
     borderopacity="1"
     inkscape:showpageshadow="0"
     inkscape:pageopacity="0"
     inkscape:pagecheckerboard="0"
     inkscape:deskcolor="#505050"
     inkscape:document-units="mm"
     showborder="false"
     inkscape:zoom="1.0263363"
     inkscape:cx="44.332447"
     inkscape:cy="314.71166"
     inkscape:window-width="2560"
     inkscape:window-height="1371"
     inkscape:window-x="0"
     inkscape:window-y="32"
     inkscape:window-maximized="1"
     inkscape:current-layer="svg1" /><defs
     id="defs1"><rect
       x="130.03435"
       y="222.84697"
       width="82.068893"
       height="25.062149"
       id="rect11" /><inkscape:path-effect
       effect="skeletal"
       id="path-effect10"
       is_visible="true"
       lpeversion="1"
       pattern="M 0,18.867925 C 0,8.4528305 8.4528305,0 18.867925,0 29.28302,0 37.735851,8.4528305 37.735851,18.867925 c 0,10.415095 -8.452831,18.867926 -18.867926,18.867926 C 8.4528305,37.735851 0,29.28302 0,18.867925 Z"
       copytype="single_stretched"
       prop_scale="1"
       scale_y_rel="false"
       spacing="0"
       normal_offset="0"
       tang_offset="0"
       prop_units="false"
       vertical_pattern="false"
       hide_knot="false"
       fuse_tolerance="0" /><inkscape:path-effect
       effect="skeletal"
       id="path-effect8"
       is_visible="true"
       lpeversion="1"
       pattern="M 0,18.867925 C 0,8.4528305 8.4528305,0 18.867925,0 29.28302,0 37.735851,8.4528305 37.735851,18.867925 c 0,10.415095 -8.452831,18.867926 -18.867926,18.867926 C 8.4528305,37.735851 0,29.28302 0,18.867925 Z"
       copytype="single_stretched"
       prop_scale="1"
       scale_y_rel="false"
       spacing="0"
       normal_offset="0"
       tang_offset="0"
       prop_units="false"
       vertical_pattern="false"
       hide_knot="false"
       fuse_tolerance="0" /><inkscape:path-effect
       effect="skeletal"
       id="path-effect7"
       is_visible="true"
       lpeversion="1"
       pattern="M 0,18.867925 C 0,8.4528305 8.4528305,0 18.867925,0 29.28302,0 37.735851,8.4528305 37.735851,18.867925 c 0,10.415095 -8.452831,18.867926 -18.867926,18.867926 C 8.4528305,37.735851 0,29.28302 0,18.867925 Z"
       copytype="single_stretched"
       prop_scale="1"
       scale_y_rel="false"
       spacing="0"
       normal_offset="0"
       tang_offset="0"
       prop_units="false"
       vertical_pattern="false"
       hide_knot="false"
       fuse_tolerance="0" /><inkscape:path-effect
       effect="spiro"
       id="path-effect6"
       is_visible="true"
       lpeversion="1" /><inkscape:path-effect
       effect="skeletal"
       id="path-effect8-1"
       is_visible="true"
       lpeversion="1"
       pattern="M 0,18.867925 C 0,8.4528305 8.4528305,0 18.867925,0 29.28302,0 37.735851,8.4528305 37.735851,18.867925 c 0,10.415095 -8.452831,18.867926 -18.867926,18.867926 C 8.4528305,37.735851 0,29.28302 0,18.867925 Z"
       copytype="single_stretched"
       prop_scale="1"
       scale_y_rel="false"
       spacing="0"
       normal_offset="0"
       tang_offset="0"
       prop_units="false"
       vertical_pattern="false"
       hide_knot="false"
       fuse_tolerance="0" /><inkscape:path-effect
       effect="skeletal"
       id="path-effect10-3"
       is_visible="true"
       lpeversion="1"
       pattern="M 0,18.867925 C 0,8.4528305 8.4528305,0 18.867925,0 29.28302,0 37.735851,8.4528305 37.735851,18.867925 c 0,10.415095 -8.452831,18.867926 -18.867926,18.867926 C 8.4528305,37.735851 0,29.28302 0,18.867925 Z"
       copytype="single_stretched"
       prop_scale="1"
       scale_y_rel="false"
       spacing="0"
       normal_offset="0"
       tang_offset="0"
       prop_units="false"
       vertical_pattern="false"
       hide_knot="false"
       fuse_tolerance="0" /><inkscape:path-effect
       effect="skeletal"
       id="path-effect10-8"
       is_visible="true"
       lpeversion="1"
       pattern="M 0,18.867925 C 0,8.4528305 8.4528305,0 18.867925,0 29.28302,0 37.735851,8.4528305 37.735851,18.867925 c 0,10.415095 -8.452831,18.867926 -18.867926,18.867926 C 8.4528305,37.735851 0,29.28302 0,18.867925 Z"
       copytype="single_stretched"
       prop_scale="1"
       scale_y_rel="false"
       spacing="0"
       normal_offset="0"
       tang_offset="0"
       prop_units="false"
       vertical_pattern="false"
       hide_knot="false"
       fuse_tolerance="0" /><inkscape:path-effect
       effect="skeletal"
       id="path-effect10-3-2"
       is_visible="true"
       lpeversion="1"
       pattern="M 0,18.867925 C 0,8.4528305 8.4528305,0 18.867925,0 29.28302,0 37.735851,8.4528305 37.735851,18.867925 c 0,10.415095 -8.452831,18.867926 -18.867926,18.867926 C 8.4528305,37.735851 0,29.28302 0,18.867925 Z"
       copytype="single_stretched"
       prop_scale="1"
       scale_y_rel="false"
       spacing="0"
       normal_offset="0"
       tang_offset="0"
       prop_units="false"
       vertical_pattern="false"
       hide_knot="false"
       fuse_tolerance="0" /><inkscape:path-effect
       effect="skeletal"
       id="path-effect8-6"
       is_visible="true"
       lpeversion="1"
       pattern="M 0,18.867925 C 0,8.4528305 8.4528305,0 18.867925,0 29.28302,0 37.735851,8.4528305 37.735851,18.867925 c 0,10.415095 -8.452831,18.867926 -18.867926,18.867926 C 8.4528305,37.735851 0,29.28302 0,18.867925 Z"
       copytype="single_stretched"
       prop_scale="1"
       scale_y_rel="false"
       spacing="0"
       normal_offset="0"
       tang_offset="0"
       prop_units="false"
       vertical_pattern="false"
       hide_knot="false"
       fuse_tolerance="0" /><inkscape:path-effect
       effect="skeletal"
       id="path-effect8-1-5"
       is_visible="true"
       lpeversion="1"
       pattern="M 0,18.867925 C 0,8.4528305 8.4528305,0 18.867925,0 29.28302,0 37.735851,8.4528305 37.735851,18.867925 c 0,10.415095 -8.452831,18.867926 -18.867926,18.867926 C 8.4528305,37.735851 0,29.28302 0,18.867925 Z"
       copytype="single_stretched"
       prop_scale="1"
       scale_y_rel="false"
       spacing="0"
       normal_offset="0"
       tang_offset="0"
       prop_units="false"
       vertical_pattern="false"
       hide_knot="false"
       fuse_tolerance="0" /></defs><g
     id="g4"
     transform="matrix(0.20100276,0,0,0.26458333,-4.5651126,0)"
     style="stroke-width:1.14731"><g
       id="g2"
       style="stroke-width:1.14731">
	<rect
   x="128.29201"
   y="9.2629995"
   style="fill:#f95428;stroke-width:1.14731"
   width="40.376999"
   height="494.09799"
   id="rect1" />
	<rect
   x="342.125"
   y="9.2629995"
   style="fill:#f95428;stroke-width:1.14731"
   width="40.376999"
   height="494.09799"
   id="rect2" />
</g><path
       d="m 383.104,318.982 c 4.945,0 8.951,-4.008 8.951,-8.952 V 8.951 C 392.055,4.007 388.048,0 383.104,0 h -40.377 c -4.945,0 -8.952,4.008 -8.952,8.951 V 33.878 H 220.198 c -4.944,0 -8.951,4.008 -8.951,8.951 0,4.943 4.008,8.951 8.951,8.951 h 113.578 v 67.365 H 178.225 V 51.781 h 15.715 c 4.944,0 8.951,-4.008 8.951,-8.951 0,-4.943 -4.008,-8.951 -8.951,-8.951 H 178.225 V 8.951 C 178.225,4.007 174.217,0 169.274,0 h -40.378 c -4.944,0 -8.951,4.008 -8.951,8.951 v 494.097 c 0,4.944 4.008,8.951 8.951,8.951 h 40.378 c 4.944,0 8.951,-4.008 8.951,-8.951 v -24.927 h 102.843 c 4.945,0 8.952,-4.008 8.952,-8.952 0,-4.944 -4.007,-8.951 -8.952,-8.951 H 178.225 v -67.365 h 155.552 v 67.365 h -26.45 c -4.945,0 -8.952,4.008 -8.952,8.951 0,4.943 4.007,8.952 8.952,8.952 h 26.45 v 24.927 c 0,4.944 4.007,8.951 8.951,8.951 h 40.377 c 4.945,0 8.952,-4.008 8.952,-8.951 V 338.675 c 0,-4.944 -4.007,-8.952 -8.952,-8.952 -4.945,0 -8.951,4.008 -8.951,8.952 V 494.098 H 351.68 V 17.903 h 22.474 v 292.128 c -0.002,4.943 4.006,8.951 8.95,8.951 z M 178.225,222.318 h 155.552 v 67.365 H 178.225 Z m 155.55,-85.268 v 67.365 H 178.225 V 137.05 Z M 160.322,494.097 H 137.847 V 17.903 h 22.475 z m 17.903,-119.145 v -67.365 h 155.552 v 67.365 z"
       id="path2-2"
       style="stroke-width:1.14731" /></g><g
     inkscape:label="pelle"
     id="layer1-2"
     transform="matrix(0.22065763,-0.11742568,0.12429682,0.23356935,-224.77225,12.474857)"
     style="stroke-width:2.05768;stroke-dasharray:none"><path
       style="fill:#999999;fill-opacity:1;stroke:#000000;stroke-width:1.97324;stroke-dasharray:none;stroke-opacity:1"
       d="m 561.25982,596.09455 c 6.5,6.88823 -9.32397,30.20727 -33.04401,52.52035 0,0 0,0 0,0 0.42206,5.79649 0.73999,11.76209 0.92359,17.82374 0.67139,22.16625 -0.59898,41.47212 -3.60602,56.11046 -2.96053,14.41193 -7.61254,23.93629 -12.83738,23.93629 -5.25434,0 -9.84734,-9.6653 -12.83738,-26.26526 -3.00325,-16.67331 -4.2812,-39.60202 -3.60602,-65.02438 0.18364,-6.91463 0.50149,-13.61258 0.92359,-19.96821 0,0 10e-6,-10e-6 10e-6,-10e-6 31.85453,-30.13352 57.58577,-46.01893 64.08362,-39.13298 z"
       id="path10"
       transform="matrix(-0.95627919,-0.16681966,-0.21493421,1.0996364,1434.0586,82.168409)"
       inkscape:original-d="M 561.25982,596.09455 512.696,641.92122 v 104.56416"
       inkscape:path-effect="#path-effect10"
       inkscape:transform-center-x="-11.141504"
       inkscape:transform-center-y="12.634672" /><path
       style="fill:#999999;fill-opacity:1;stroke:#000000;stroke-width:1.97324;stroke-dasharray:none;stroke-opacity:1"
       d="m 537.35781,593.54557 c 8.45628,-3.45948 24.6108,18.80403 40.36923,55.1139 0,0 10e-6,0 10e-6,10e-6 -1.18454,6.42885 -2.60524,13.20065 -4.25912,20.16718 -5.4552,22.97867 -12.31142,43.32128 -19.21354,57.52849 -6.89082,14.18395 -13.6289,21.82359 -18.70559,20.5236 -10.4411,-2.67365 -8.90898,-38.48484 2.0179,-77.90932 1.70868,-6.165 3.55817,-12.16369 5.49395,-17.92035 0,0 0,0 0,0 -10.74148,-28.35542 -14.12041,-54.05986 -5.70284,-57.50351 z"
       id="path10-6"
       transform="matrix(0.95627918,0.16681968,-0.21493418,1.0996364,357.80992,-105.57951)"
       sodipodi:nodetypes="ccc"
       inkscape:original-d="m 537.35781,593.54557 23.03604,56.30871 -24.84505,97.02446"
       inkscape:path-effect="#path-effect10-3"
       inkscape:transform-center-x="-0.42341941"
       inkscape:transform-center-y="19.467339" /><path
       style="fill:#999999;fill-opacity:1;stroke:#000000;stroke-width:3.42909;stroke-dasharray:none;stroke-opacity:1"
       d="m 648.79824,427.93757 c -4.12929,3.95199 -18.08679,-3.22137 -36.79577,-17.76369 0,-10e-6 -10e-6,-10e-6 -10e-6,-10e-6 -13.97714,-10.96091 -31.46834,-26.80865 -48.36491,-45.64846 0,0 0,0 0,0 -1.36252,-1.52047 -2.71833,-3.05948 -4.06817,-4.61677 -6.3487,-7.32439 -12.2305,-14.66748 -17.57319,-21.67908 -8.53541,-11.19521 -15.95293,-21.93266 -21.96793,-31.56007 -14.2729,-23.04516 -20.9645,-40.00371 -16.16632,-43.90803 -1e-5,0 0,0 0,0 0.005,-0.004 0.0139,-0.0113 0.009,-0.007 -0.005,0.004 0.005,-0.004 0.009,-0.007 0,0 1e-5,0 1e-5,0 4.82514,-3.86887 20.05528,6.17969 39.60516,24.81252 8.231,7.78332 17.18249,16.98553 26.56514,27.25966 5.9738,6.54212 11.88958,13.28686 18.03276,20.37407 0.19492,0.22487 3.64288,4.21124 3.83779,4.4361 0,0 10e-6,10e-6 10e-6,10e-6 16.31327,18.89855 30.16026,35.67299 40.78824,50.8153 0,0 1e-5,10e-6 1e-5,10e-6 13.66728,19.28543 20.21746,33.54189 16.08869,37.49338 z"
       id="path7-3"
       sodipodi:nodetypes="czc"
       transform="matrix(0,-0.60006674,-0.60006674,0,1040.5105,930.49054)"
       inkscape:original-d="m 648.79825,427.93758 c 0,0 -46.81053,-48.35856 -71.01883,-75.86044 -24.2083,-27.50188 -73.90824,-89.32316 -73.90824,-89.32316"
       inkscape:path-effect="#path-effect8-1" /><ellipse
       style="fill:#999999;fill-opacity:1;stroke:#000000;stroke-width:2.05821;stroke-dasharray:none;stroke-opacity:1"
       id="path2"
       transform="matrix(-0.95927189,-0.28248442,-0.31333362,0.94964311,0,0)"
       ry="115.33391"
       rx="68.743912"
       cy="325.64978"
       cx="-935.85846"
       inkscape:transform-center-x="11.786215"
       inkscape:transform-center-y="-28.23379" /><ellipse
       style="fill:#999999;fill-opacity:1;stroke:#000000;stroke-width:2.05821;stroke-dasharray:none;stroke-opacity:1"
       id="path3"
       cx="-937.70996"
       cy="-187.24915"
       transform="matrix(-0.95927189,-0.28248442,0.31333362,-0.94964311,0,0)"
       inkscape:transform-center-x="26.698574"
       inkscape:transform-center-y="-61.469309"
       rx="61.716873"
       ry="62.342644" /><path
       style="fill:#999999;fill-opacity:1;stroke:#000000;stroke-width:3.42909;stroke-dasharray:none;stroke-opacity:1"
       d="m 609.76614,437.48777 c -0.0807,0.0353 -0.16351,0.0656 -0.24833,0.0909 -0.0827,0.0246 -0.16728,0.0445 -0.25382,0.0596 0,0 0,0 0,0 -0.17258,0.0301 -0.35271,0.0414 -0.54042,0.034 0,0 -10e-6,0 -10e-6,0 l 0,0 c -0.37336,-0.0148 -0.77603,-0.1037 -1.2075,-0.26475 l 0,0 c -0.85256,-0.31823 -1.8153,-0.91855 -2.88054,-1.78824 l 0,0 c -2.07272,-1.69226 -4.52809,-4.40263 -7.29891,-8.04099 l 0,0 c -5.14106,-6.75056 -11.40894,-16.75721 -18.21804,-29.35935 l 0,0 c -5.82664,-10.78108 -12.2383,-23.81011 -18.45423,-38.31462 l 0,0 0,-1e-5 0,0 c -4.69313,-10.91016 -9.68035,-23.49621 -13.66303,-37.07255 l 0,0 c -2.79378,-9.56271 -5.15421,-19.30125 -7.28622,-29.33707 -0.90131,-4.23648 -1.75906,-8.51329 -2.57727,-12.83307 -1.31885,-6.96295 -2.49757,-13.84026 -3.55946,-20.57787 -3.97719,-25.2404 -6.44144,-49.12652 -7.79611,-69.76771 -2.49636,-48.0543 -0.47673,-80.32388 6.21373,-81.11213 0.008,-9.1e-4 0.0172,-0.002 0.009,-0.001 -0.008,9.1e-4 0.001,-1.4e-4 0.009,-0.001 6.69421,-0.72976 16.42136,30.16275 25.49438,77.02877 4.25629,20.4735 8.37701,42.65158 12.99279,67.52712 1.20671,6.50619 2.45022,13.21388 3.71284,19.88262 0.7879,4.16148 1.57366,8.25745 2.36831,12.3205 1.90153,9.70507 3.72562,18.70852 5.78018,27.55401 l 0,0 c 2.69601,11.74659 6.40532,24.14124 9.61272,35.08752 10e-6,0 10e-6,0 10e-6,10e-6 l 0,0 c 4.44269,15.12621 8.17618,27.62192 11.51354,39.82388 l 0,0 c 3.73159,13.64264 6.40688,24.9163 7.66998,33.28713 l 0,0 c 0.67664,4.48434 0.94245,8.10986 0.74899,10.76318 l 0,0 c -0.0994,1.36406 -0.32093,2.47271 -0.66969,3.30992 l 0,0 c -0.17653,0.42378 -0.38613,0.77841 -0.62899,1.06157 l 0,0 c 0,0 0,0 0,0 -0.12214,0.14247 -0.25286,0.26695 -0.3921,0.37309 0,0 0,0 0,0 -0.0698,0.0532 -0.14186,0.10188 -0.21604,0.14588 -0.0761,0.0451 -0.15452,0.0854 -0.23524,0.12076 z"
       id="path7"
       sodipodi:nodetypes="csc"
       transform="matrix(0.37285447,-0.4811586,-0.47423692,-0.35374907,746.74241,964.27692)"
       inkscape:transform-center-x="2.0232889"
       inkscape:transform-center-y="-29.517509"
       inkscape:original-d="m 609.76614,437.48778 c 0,0 -34.18911,-77.96372 -45.08401,-119.3145 -17.86725,-67.81381 -32.67691,-208.97043 -32.67691,-208.97043"
       inkscape:path-effect="#path-effect8" /></g></svg>
