<?xml version="1.0" encoding="UTF-8" standalone="no"?>
<!-- Created with Inkscape (http://www.inkscape.org/) -->

<svg
   width="36.075089mm"
   height="13.376014mm"
   viewBox="0 0 36.075089 13.376014"
   version="1.1"
   id="svg1"
   inkscape:version="1.3.2 (091e20ef0f, 2023-11-25)"
   sodipodi:docname="hex-ex3.svg"
   inkscape:export-filename="binar-ex1-export.svg"
   inkscape:export-xdpi="1000"
   inkscape:export-ydpi="1000"
   xmlns:inkscape="http://www.inkscape.org/namespaces/inkscape"
   xmlns:sodipodi="http://sodipodi.sourceforge.net/DTD/sodipodi-0.dtd"
   xmlns="http://www.w3.org/2000/svg"
   xmlns:svg="http://www.w3.org/2000/svg"
   xmlns:ns3="http://www.iki.fi/pav/software/textext/">
  <sodipodi:namedview
     id="namedview1"
     pagecolor="#ffffff"
     bordercolor="#000000"
     borderopacity="0.25"
     inkscape:showpageshadow="2"
     inkscape:pageopacity="0.0"
     inkscape:pagecheckerboard="0"
     inkscape:deskcolor="#d1d1d1"
     inkscape:document-units="mm"
     inkscape:zoom="4.8688381"
     inkscape:cx="85.030554"
     inkscape:cy="29.883927"
     inkscape:window-width="960"
     inkscape:window-height="1043"
     inkscape:window-x="20"
     inkscape:window-y="20"
     inkscape:window-maximized="0"
     inkscape:current-layer="svg1" />
  <defs
     id="defs1">
    <rect
       x="195.31625"
       y="305.09875"
       width="243.10994"
       height="136.99475"
       id="rect1" />
  </defs>
  <text
     xml:space="preserve"
     style="font-style:normal;font-variant:normal;font-weight:normal;font-stretch:normal;font-size:7.40833px;font-family:'Atkinson Hyperlegible';-inkscape-font-specification:'Atkinson Hyperlegible';opacity:1;fill:#000000;fill-opacity:1;stroke:none;stroke-width:2"
     x="12.581964"
     y="5.658463"
     id="text4"><tspan
       sodipodi:role="line"
       id="tspan4"
       style="fill:#000000;fill-opacity:1;stroke-width:2"
       x="12.581964"
       y="5.658463">_ _ _ , _ </tspan></text>
  <text
     xml:space="preserve"
     style="font-style:normal;font-variant:normal;font-weight:normal;font-stretch:normal;font-size:5.64444px;font-family:'Atkinson Hyperlegible';-inkscape-font-specification:'Atkinson Hyperlegible';opacity:1;fill:#000000;fill-opacity:1;stroke:none;stroke-width:2"
     x="22.546963"
     y="4.8129749"
     id="text6"><tspan
       sodipodi:role="line"
       id="tspan6"
       style="font-size:5.64444px;fill:#000000;fill-opacity:1;stroke-width:2"
       x="22.546963"
       y="4.8129749">A</tspan></text>
  <text
     xml:space="preserve"
     style="font-style:normal;font-variant:normal;font-weight:normal;font-stretch:normal;font-size:5.64444px;font-family:'Atkinson Hyperlegible';-inkscape-font-specification:'Atkinson Hyperlegible';opacity:1;fill:#000000;fill-opacity:1;stroke:none;stroke-width:2"
     x="17.496323"
     y="4.8129749"
     id="text5"><tspan
       sodipodi:role="line"
       id="tspan5"
       style="font-size:5.64444px;fill:#000000;fill-opacity:1;stroke-width:2"
       x="17.496323"
       y="4.8129749">2</tspan></text>
  <text
     xml:space="preserve"
     style="font-style:normal;font-variant:normal;font-weight:normal;font-stretch:normal;font-size:2.82222px;font-family:'Atkinson Hyperlegible';-inkscape-font-specification:'Atkinson Hyperlegible';opacity:1;fill:#404040;fill-opacity:1;stroke:none;stroke-width:1.241"
     x="13.213701"
     y="9.7518911"
     id="text9"><tspan
       sodipodi:role="line"
       id="tspan9"
       style="font-size:2.82222px;fill:#404040;fill-opacity:1;stroke-width:1.241"
       x="13.213701"
       y="9.7518911">2     1    0         -1 </tspan></text>
  <text
     xml:space="preserve"
     style="font-style:normal;font-variant:normal;font-weight:normal;font-stretch:normal;font-size:2.82222px;font-family:'Atkinson Hyperlegible';-inkscape-font-specification:'Atkinson Hyperlegible';text-align:end;text-anchor:end;opacity:1;fill:#404040;fill-opacity:1;stroke:none;stroke-width:1.241"
     x="35.380989"
     y="13.376014"
     id="text3"><tspan
       sodipodi:role="line"
       id="tspan3"
       style="font-size:2.82222px;text-align:end;text-anchor:end;fill:#404040;fill-opacity:1;stroke-width:1.241"
       x="35.380989"
       y="13.376014">16<tspan
   style="font-size:65%;text-align:end;baseline-shift:super;text-anchor:end"
   id="tspan17">2</tspan> 16<tspan
   style="font-size:65%;text-align:end;baseline-shift:super;text-anchor:end"
   id="tspan18">1</tspan>  16<tspan
   style="font-size:65%;text-align:end;baseline-shift:super;text-anchor:end"
   id="tspan19">0</tspan>      16<tspan
   style="font-size:65%;text-align:end;baseline-shift:super;text-anchor:end"
   id="tspan16">-1</tspan></tspan></text>
  <text
     xml:space="preserve"
     style="font-style:normal;font-variant:normal;font-weight:normal;font-stretch:normal;font-size:2.82222px;font-family:'Atkinson Hyperlegible';-inkscape-font-specification:'Atkinson Hyperlegible';text-align:end;text-anchor:end;opacity:1;fill:#030303;fill-opacity:1;stroke:none;stroke-width:1.241"
     x="10.447857"
     y="9.5596323"
     id="text2"><tspan
       sodipodi:role="line"
       id="tspan2"
       style="font-size:2.82222px;text-align:end;text-anchor:end;fill:#030303;fill-opacity:1;stroke-width:1.241"
       x="10.447857"
       y="9.5596323">position:</tspan></text>
  <text
     xml:space="preserve"
     style="font-style:normal;font-variant:normal;font-weight:normal;font-stretch:normal;font-size:2.82222px;font-family:'Atkinson Hyperlegible';-inkscape-font-specification:'Atkinson Hyperlegible';text-align:end;text-anchor:end;opacity:1;fill:#030303;fill-opacity:1;stroke:none;stroke-width:1.241"
     x="10.447857"
     y="9.5596323"
     id="text10"><tspan
       sodipodi:role="line"
       id="tspan10"
       style="font-size:2.82222px;text-align:end;text-anchor:end;fill:#030303;fill-opacity:1;stroke-width:1.241"
       x="10.447857"
       y="9.5596323">position:</tspan></text>
  <text
     xml:space="preserve"
     style="font-style:normal;font-variant:normal;font-weight:normal;font-stretch:normal;font-size:2.82222px;font-family:'Atkinson Hyperlegible';-inkscape-font-specification:'Atkinson Hyperlegible';opacity:1;fill:#030303;fill-opacity:1;stroke:none;stroke-width:1.241"
     x="10.447857"
     y="13.183756"
     id="text1"><tspan
       sodipodi:role="line"
       id="tspan1"
       style="font-size:2.82222px;text-align:end;text-anchor:end;fill:#030303;fill-opacity:1;stroke-width:1.241"
       x="10.447857"
       y="13.183756">värde:</tspan></text>
  <g
     transform="matrix(0.352778,0,0,0.352778,5.1533783,2.8107981)"
     ns3:version="1.10.2"
     ns3:texconverter="lualatex"
     ns3:pdfconverter="inkscape"
     ns3:text="$16^2$"
     ns3:preamble="/home/sermuns/.config/inkscape/extensions/textext/default_packages.tex"
     ns3:scale="1.0"
     ns3:alignment="middle center"
     ns3:stroke-to-path="0"
     ns3:inkscapeversion="1.3.2"
     id="g4496"
     ns3:jacobian_sqrt="0.352778">
    <defs
       id="id-93ce4fb3-4b70-4c34-afec-7bcea7b6f092">
      <g
         id="id-05dcb5d2-16c4-4bf5-80e6-35f0e3c92252">
        <g
           id="id-6b208606-d23e-40de-8303-73e277b71f15">
          <path
             d="m 2.9375,-6.375 c 0,-0.25 0,-0.265625 -0.234375,-0.265625 C 2.078125,-6 1.203125,-6 0.890625,-6 v 0.3125 c 0.203125,0 0.78125,0 1.296875,-0.265625 v 5.171875 c 0,0.359375 -0.03125,0.46875 -0.921875,0.46875 h -0.3125 V 0 c 0.34375,-0.03125 1.203125,-0.03125 1.609375,-0.03125 0.390625,0 1.265625,0 1.609375,0.03125 v -0.3125 h -0.3125 c -0.90625,0 -0.921875,-0.109375 -0.921875,-0.46875 z m 0,0"
             id="id-de0d6f95-7f50-40e8-8517-2c4735429c3d" />
        </g>
        <g
           id="id-6e751aaf-7b8e-4d90-96fa-3ec0eb18eac6">
          <path
             d="m 1.3125,-3.265625 v -0.25 c 0,-2.515625 1.234375,-2.875 1.75,-2.875 0.234375,0 0.65625,0.0625 0.875,0.40625 -0.15625,0 -0.546875,0 -0.546875,0.4375 0,0.3125 0.234375,0.46875 0.453125,0.46875 0.15625,0 0.46875,-0.09375 0.46875,-0.484375 0,-0.59375 -0.4375,-1.078125 -1.265625,-1.078125 -1.28125,0 -2.625,1.28125 -2.625,3.484375 0,2.671875 1.15625,3.375 2.078125,3.375 1.109375,0 2.0625,-0.9375 2.0625,-2.25 0,-1.265625 -0.890625,-2.21875 -2,-2.21875 -0.671875,0 -1.046875,0.5 -1.25,0.984375 z M 2.5,-0.0625 c -0.625,0 -0.921875,-0.59375 -0.984375,-0.75 -0.1875,-0.46875 -0.1875,-1.265625 -0.1875,-1.4375 0,-0.78125 0.328125,-1.78125 1.21875,-1.78125 0.171875,0 0.625,0 0.9375,0.625 0.171875,0.359375 0.171875,0.875 0.171875,1.359375 0,0.484375 0,0.984375 -0.171875,1.34375 C 3.1875,-0.109375 2.734375,-0.0625 2.5,-0.0625 Z m 0,0"
             id="id-99bf82c3-5c7b-4428-a5d3-fbbffdf8beca" />
        </g>
        <g
           id="id-fb759eb1-f60b-4f19-9718-e65c7196eaa0">
          <path
             d="M 3.515625,-1.265625 H 3.28125 c -0.015625,0.15625 -0.09375,0.5625 -0.1875,0.625 C 3.046875,-0.59375 2.515625,-0.59375 2.40625,-0.59375 H 1.125 c 0.734375,-0.640625 0.984375,-0.84375 1.390625,-1.171875 0.515625,-0.40625 1,-0.84375 1,-1.5 0,-0.84375 -0.734375,-1.359375 -1.625,-1.359375 -0.859375,0 -1.453125,0.609375 -1.453125,1.25 0,0.34375 0.296875,0.390625 0.375,0.390625 0.15625,0 0.359375,-0.125 0.359375,-0.375 0,-0.125 -0.046875,-0.375 -0.40625,-0.375 C 0.984375,-4.21875 1.453125,-4.375 1.78125,-4.375 c 0.703125,0 1.0625,0.546875 1.0625,1.109375 0,0.609375 -0.4375,1.078125 -0.65625,1.328125 L 0.515625,-0.265625 C 0.4375,-0.203125 0.4375,-0.1875 0.4375,0 h 2.875 z m 0,0"
             id="id-edb0b46a-5ddf-4517-8439-7e65bad7855b" />
        </g>
      </g>
    </defs>
  </g>
</svg>
