<?xml version="1.0" encoding="UTF-8" standalone="no"?>
<!-- Created with Inkscape (http://www.inkscape.org/) -->

<svg
   width="210mm"
   height="297mm"
   viewBox="0 0 210 297"
   version="1.1"
   id="svg1"
   inkscape:version="1.3.2 (091e20e, 2023-11-25, custom)"
   sodipodi:docname="byggarbete.svg"
   xml:space="preserve"
   xmlns:inkscape="http://www.inkscape.org/namespaces/inkscape"
   xmlns:sodipodi="http://sodipodi.sourceforge.net/DTD/sodipodi-0.dtd"
   xmlns="http://www.w3.org/2000/svg"
   xmlns:svg="http://www.w3.org/2000/svg"><sodipodi:namedview
     id="namedview1"
     pagecolor="#505050"
     bordercolor="#eeeeee"
     borderopacity="1"
     inkscape:showpageshadow="0"
     inkscape:pageopacity="0"
     inkscape:pagecheckerboard="0"
     inkscape:deskcolor="#505050"
     inkscape:document-units="mm"
     showborder="false"
     inkscape:zoom="1.4627806"
     inkscape:cx="534.25648"
     inkscape:cy="37.257809"
     inkscape:window-width="1920"
     inkscape:window-height="1017"
     inkscape:window-x="-8"
     inkscape:window-y="-8"
     inkscape:window-maximized="1"
     inkscape:current-layer="layer1" /><defs
     id="defs1"><marker
       style="overflow:visible"
       id="marker5"
       refX="0"
       refY="0"
       orient="auto"
       inkscape:stockid="Diamond"
       markerWidth="1"
       markerHeight="1"
       viewBox="0 0 1 1"
       inkscape:isstock="true"
       inkscape:collect="always"
       preserveAspectRatio="xMidYMid"><path
         transform="scale(0.45)"
         style="fill:context-stroke;fill-rule:evenodd;stroke:none"
         d="M 0,-7.0710768 -7.0710894,0 0,7.0710589 7.0710462,0 Z"
         id="path5" /></marker><marker
       style="overflow:visible"
       id="Diamond"
       refX="0"
       refY="0"
       orient="auto"
       inkscape:stockid="Diamond"
       markerWidth="1"
       markerHeight="1"
       viewBox="0 0 1 1"
       inkscape:isstock="true"
       inkscape:collect="always"
       preserveAspectRatio="xMidYMid"><path
         transform="scale(0.45)"
         style="fill:context-stroke;fill-rule:evenodd;stroke:none"
         d="M 0,-7.0710768 -7.0710894,0 0,7.0710589 7.0710462,0 Z"
         id="path19" /></marker><marker
       style="overflow:visible"
       id="Stop"
       refX="0"
       refY="0"
       orient="auto"
       inkscape:stockid="Stop"
       markerWidth="1"
       markerHeight="1"
       viewBox="0 0 1 1"
       inkscape:isstock="true"
       inkscape:collect="always"
       preserveAspectRatio="xMidYMid"><path
         style="fill:none;stroke:context-stroke;stroke-width:1"
         d="M 0,4 V -4"
         id="path23" /></marker><marker
       style="overflow:visible"
       id="Stop-0"
       refX="0"
       refY="0"
       orient="auto"
       inkscape:stockid="Stop"
       markerWidth="1"
       markerHeight="1"
       viewBox="0 0 1 1"
       inkscape:isstock="true"
       inkscape:collect="always"
       preserveAspectRatio="xMidYMid"><path
         style="fill:none;stroke:context-stroke;stroke-width:1"
         d="M 0,4 V -4"
         id="path23-8" /></marker><inkscape:path-effect
       effect="skeletal"
       id="path-effect10"
       is_visible="true"
       lpeversion="1"
       pattern="M 0,18.867925 C 0,8.4528305 8.4528305,0 18.867925,0 29.28302,0 37.735851,8.4528305 37.735851,18.867925 c 0,10.415095 -8.452831,18.867926 -18.867926,18.867926 C 8.4528305,37.735851 0,29.28302 0,18.867925 Z"
       copytype="single_stretched"
       prop_scale="1"
       scale_y_rel="false"
       spacing="0"
       normal_offset="0"
       tang_offset="0"
       prop_units="false"
       vertical_pattern="false"
       hide_knot="false"
       fuse_tolerance="0" /><inkscape:path-effect
       effect="skeletal"
       id="path-effect8"
       is_visible="true"
       lpeversion="1"
       pattern="M 0,18.867925 C 0,8.4528305 8.4528305,0 18.867925,0 29.28302,0 37.735851,8.4528305 37.735851,18.867925 c 0,10.415095 -8.452831,18.867926 -18.867926,18.867926 C 8.4528305,37.735851 0,29.28302 0,18.867925 Z"
       copytype="single_stretched"
       prop_scale="1"
       scale_y_rel="false"
       spacing="0"
       normal_offset="0"
       tang_offset="0"
       prop_units="false"
       vertical_pattern="false"
       hide_knot="false"
       fuse_tolerance="0" /><inkscape:path-effect
       effect="skeletal"
       id="path-effect7"
       is_visible="true"
       lpeversion="1"
       pattern="M 0,18.867925 C 0,8.4528305 8.4528305,0 18.867925,0 29.28302,0 37.735851,8.4528305 37.735851,18.867925 c 0,10.415095 -8.452831,18.867926 -18.867926,18.867926 C 8.4528305,37.735851 0,29.28302 0,18.867925 Z"
       copytype="single_stretched"
       prop_scale="1"
       scale_y_rel="false"
       spacing="0"
       normal_offset="0"
       tang_offset="0"
       prop_units="false"
       vertical_pattern="false"
       hide_knot="false"
       fuse_tolerance="0" /><inkscape:path-effect
       effect="spiro"
       id="path-effect6"
       is_visible="true"
       lpeversion="1" /><inkscape:path-effect
       effect="skeletal"
       id="path-effect8-1"
       is_visible="true"
       lpeversion="1"
       pattern="M 0,18.867925 C 0,8.4528305 8.4528305,0 18.867925,0 29.28302,0 37.735851,8.4528305 37.735851,18.867925 c 0,10.415095 -8.452831,18.867926 -18.867926,18.867926 C 8.4528305,37.735851 0,29.28302 0,18.867925 Z"
       copytype="single_stretched"
       prop_scale="1"
       scale_y_rel="false"
       spacing="0"
       normal_offset="0"
       tang_offset="0"
       prop_units="false"
       vertical_pattern="false"
       hide_knot="false"
       fuse_tolerance="0" /><inkscape:path-effect
       effect="skeletal"
       id="path-effect10-3"
       is_visible="true"
       lpeversion="1"
       pattern="M 0,18.867925 C 0,8.4528305 8.4528305,0 18.867925,0 29.28302,0 37.735851,8.4528305 37.735851,18.867925 c 0,10.415095 -8.452831,18.867926 -18.867926,18.867926 C 8.4528305,37.735851 0,29.28302 0,18.867925 Z"
       copytype="single_stretched"
       prop_scale="1"
       scale_y_rel="false"
       spacing="0"
       normal_offset="0"
       tang_offset="0"
       prop_units="false"
       vertical_pattern="false"
       hide_knot="false"
       fuse_tolerance="0" /><inkscape:path-effect
       effect="skeletal"
       id="path-effect10-8"
       is_visible="true"
       lpeversion="1"
       pattern="M 0,18.867925 C 0,8.4528305 8.4528305,0 18.867925,0 29.28302,0 37.735851,8.4528305 37.735851,18.867925 c 0,10.415095 -8.452831,18.867926 -18.867926,18.867926 C 8.4528305,37.735851 0,29.28302 0,18.867925 Z"
       copytype="single_stretched"
       prop_scale="1"
       scale_y_rel="false"
       spacing="0"
       normal_offset="0"
       tang_offset="0"
       prop_units="false"
       vertical_pattern="false"
       hide_knot="false"
       fuse_tolerance="0" /><inkscape:path-effect
       effect="skeletal"
       id="path-effect10-3-2"
       is_visible="true"
       lpeversion="1"
       pattern="M 0,18.867925 C 0,8.4528305 8.4528305,0 18.867925,0 29.28302,0 37.735851,8.4528305 37.735851,18.867925 c 0,10.415095 -8.452831,18.867926 -18.867926,18.867926 C 8.4528305,37.735851 0,29.28302 0,18.867925 Z"
       copytype="single_stretched"
       prop_scale="1"
       scale_y_rel="false"
       spacing="0"
       normal_offset="0"
       tang_offset="0"
       prop_units="false"
       vertical_pattern="false"
       hide_knot="false"
       fuse_tolerance="0" /><inkscape:path-effect
       effect="skeletal"
       id="path-effect8-6"
       is_visible="true"
       lpeversion="1"
       pattern="M 0,18.867925 C 0,8.4528305 8.4528305,0 18.867925,0 29.28302,0 37.735851,8.4528305 37.735851,18.867925 c 0,10.415095 -8.452831,18.867926 -18.867926,18.867926 C 8.4528305,37.735851 0,29.28302 0,18.867925 Z"
       copytype="single_stretched"
       prop_scale="1"
       scale_y_rel="false"
       spacing="0"
       normal_offset="0"
       tang_offset="0"
       prop_units="false"
       vertical_pattern="false"
       hide_knot="false"
       fuse_tolerance="0" /><inkscape:path-effect
       effect="skeletal"
       id="path-effect8-1-5"
       is_visible="true"
       lpeversion="1"
       pattern="M 0,18.867925 C 0,8.4528305 8.4528305,0 18.867925,0 29.28302,0 37.735851,8.4528305 37.735851,18.867925 c 0,10.415095 -8.452831,18.867926 -18.867926,18.867926 C 8.4528305,37.735851 0,29.28302 0,18.867925 Z"
       copytype="single_stretched"
       prop_scale="1"
       scale_y_rel="false"
       spacing="0"
       normal_offset="0"
       tang_offset="0"
       prop_units="false"
       vertical_pattern="false"
       hide_knot="false"
       fuse_tolerance="0" /></defs><g
     inkscape:label="Layer 1"
     inkscape:groupmode="layer"
     id="layer1"><path
       style="fill:#c0c0c0;fill-opacity:1;stroke:none;stroke-width:1.06725;stroke-linecap:square;stroke-miterlimit:3.3;stroke-dasharray:none;stroke-dashoffset:0"
       id="path6"
       sodipodi:type="arc"
       sodipodi:cx="-190.95604"
       sodipodi:cy="3.5641398e-07"
       sodipodi:rx="13.192715"
       sodipodi:ry="12.736246"
       sodipodi:start="0"
       sodipodi:end="0.44529228"
       sodipodi:arc-type="slice"
       d="M -177.76332,3.5641398e-7 A 13.192715,12.736246 0 0 1 -179.04981,5.4857776 L -190.95604,3.5641398e-7 Z"
       transform="scale(-1)" /><rect
       style="fill:#ffffff;fill-opacity:1;stroke:#000000;stroke-width:0.114507;stroke-linecap:square;stroke-miterlimit:3.6"
       id="rect1"
       width="111.29604"
       height="1.7829474"
       x="79.690628"
       y="-0.031798188"
       rx="0"
       ry="0.056902587" /><rect
       style="fill:#ffffff;fill-opacity:1;stroke:#000000;stroke-width:0.0925381;stroke-linecap:square;stroke-miterlimit:3.6"
       id="rect1-3"
       width="74.551262"
       height="1.7383926"
       x="-70.280396"
       y="-79.641586"
       rx="0"
       ry="0.055480618"
       transform="rotate(90)" /><path
       style="fill:#f8f8f8;fill-opacity:1;stroke:#050505;stroke-width:0.466022;stroke-linecap:square;stroke-miterlimit:3.6;stroke-dasharray:0.932042, 1.86407;stroke-dashoffset:0;stroke-opacity:1;marker-start:url(#Stop-0);marker-end:url(#Stop-0)"
       d="M 80.060968,8.7899483 H 190.43117"
       id="path4-2-2"
       sodipodi:nodetypes="cc" /><text
       xml:space="preserve"
       style="font-size:4.23333px;font-family:'Open Sans';-inkscape-font-specification:'Open Sans';font-variant-caps:small-caps;fill:#000000;fill-opacity:1;stroke:#050505;stroke-width:0.490337;stroke-linecap:square;stroke-miterlimit:3.6;stroke-dasharray:0.980678, 1.96135;stroke-dashoffset:0;stroke-opacity:1"
       x="185.62872"
       y="6.7153802"
       id="text4"
       transform="scale(0.97557864,1.0250327)"><tspan
         sodipodi:role="line"
         id="tspan4"
         style="font-size:4.23333px;fill:#000000;fill-opacity:1;stroke:none;stroke-width:0.490337"
         x="185.62872"
         y="6.7153802">5 m</tspan></text><text
       xml:space="preserve"
       style="font-size:4.23333px;font-family:'Open Sans';-inkscape-font-specification:'Open Sans';font-variant-caps:small-caps;fill:#000000;fill-opacity:1;stroke:#050505;stroke-width:0.493204;stroke-linecap:square;stroke-miterlimit:3.6;stroke-dasharray:0.986411, 1.97282;stroke-dashoffset:0;stroke-opacity:1"
       x="173.03981"
       y="-2.3561378"
       id="text4-1"
       transform="scale(0.98128485,1.0190721)"><tspan
         sodipodi:role="line"
         style="font-size:4.23333px;fill:#000000;fill-opacity:1;stroke:none;stroke-width:0.493204"
         x="173.03981"
         y="-2.3561378"
         id="tspan6">30°</tspan></text><text
       xml:space="preserve"
       style="font-size:4.23333333px;font-family:'Open Sans';-inkscape-font-specification:'Open Sans';font-variant-caps:small-caps;fill:#000000;fill-opacity:1;stroke:#050505;stroke-width:0.316255;stroke-linecap:square;stroke-miterlimit:3.6;stroke-dasharray:0.632512, 1.26503;stroke-dashoffset:0;stroke-opacity:1"
       x="137.87773"
       y="15.520267"
       id="text23"
       transform="scale(0.98128484,1.0190721)"><tspan
         sodipodi:role="line"
         id="tspan23"
         style="fill:#000000;fill-opacity:1;stroke:none;stroke-width:0.316255;font-size:4.23333333px"
         x="137.87773"
         y="15.520267">3 m</tspan></text><g
       inkscape:label="pelle"
       id="layer1-2"
       transform="matrix(0.04935909,0,0,0.05125981,108.59966,-34.525608)"
       style="stroke-width:2;stroke-dasharray:none"><path
         style="fill:#999999;fill-opacity:1;stroke:#000000;stroke-width:1.91793;stroke-dasharray:none;stroke-opacity:1"
         d="m 561.25982,596.09455 c 6.5,6.88823 -9.32397,30.20727 -33.04401,52.52035 0,0 0,0 0,0 0.42206,5.79649 0.73999,11.76209 0.92359,17.82374 0.67139,22.16625 -0.59898,41.47212 -3.60602,56.11046 -2.96053,14.41193 -7.61254,23.93629 -12.83738,23.93629 -5.25434,0 -9.84734,-9.6653 -12.83738,-26.26526 -3.00325,-16.67331 -4.2812,-39.60202 -3.60602,-65.02438 0.18364,-6.91463 0.50149,-13.61258 0.92359,-19.96821 0,0 10e-6,-10e-6 10e-6,-10e-6 31.85453,-30.13352 57.58577,-46.01893 64.08362,-39.13298 z"
         id="path10"
         inkscape:path-effect="#path-effect10"
         inkscape:original-d="M 561.25982,596.09455 512.696,641.92122 v 104.56416"
         transform="matrix(-0.97244576,0,0,1.1182265,1305.8054,-25.748793)" /><path
         style="fill:#999999;fill-opacity:1;stroke:#000000;stroke-width:1.91793;stroke-dasharray:none;stroke-opacity:1"
         d="m 561.25982,596.09455 c 6.5,6.88823 -9.32397,30.20727 -33.04401,52.52035 0,0 0,0 0,0 0.42206,5.79649 0.73999,11.76209 0.92359,17.82374 0.67139,22.16625 -0.59898,41.47212 -3.60602,56.11046 -2.96053,14.41193 -7.61254,23.93629 -12.83738,23.93629 -5.25434,0 -9.84734,-9.6653 -12.83738,-26.26526 -3.00325,-16.67331 -4.2812,-39.60202 -3.60602,-65.02438 0.18364,-6.91463 0.50149,-13.61258 0.92359,-19.96821 0,0 10e-6,-10e-6 10e-6,-10e-6 31.85453,-30.13352 57.58577,-46.01893 64.08362,-39.13298 z"
         id="path10-6"
         inkscape:path-effect="#path-effect10-3"
         inkscape:original-d="M 561.25982,596.09455 512.696,641.92122 v 104.56416"
         transform="matrix(0.97244576,0,0,1.1182265,211.36199,-25.748793)" /><path
         style="fill:#999999;fill-opacity:1;stroke:#000000;stroke-width:3.33296;stroke-dasharray:none;stroke-opacity:1"
         d="m 563.61459,424.40274 c -1.68447,-3.3979 7.15397,-11.72344 23.68441,-23.21992 14.45971,-10.39312 34.68066,-23.55946 57.85517,-39.42116 9.82677,-6.72441 20.43827,-14.11438 30.85506,-21.91319 8.8085,-6.60982 17.77677,-13.63181 25.92878,-21.16187 4.07379,-3.85137 7.9632,-7.60923 11.18154,-11.35129 1.80394,-2.0975 3.38753,-4.17785 4.70468,-6.28342 1.37952,-2.24738 2.432,-4.02378 2.82464,-5.41781 l 0,0 c 0.24068,-1.08495 0.50187,-1.62041 0.419,-1.41122 l 0,0 c -4.0672,-38.05036 -6.69748,-72.34314 -7.71678,-99.97411 l 0,0 c -0.69653,-18.88798 -0.63914,-34.51504 0.20645,-45.78311 l 0,0 c 0.45668,-6.08558 1.14323,-10.8991 2.0648,-14.26694 l 0,0 c 0.47421,-1.733 1.01066,-3.08323 1.61003,-4.02702 l 0,0 c 0.30348,-0.47785 0.62309,-0.85152 0.95891,-1.11792 l 10e-6,0 c 0,0 0,-1e-5 0,-1e-5 0.16891,-0.13399 0.34193,-0.24085 0.51907,-0.32019 0,0 0,0 0,0 0,0 0,0 0,0 0.27391,-0.0629 0.41176,-0.10177 0.48105,-0.12498 0.0687,-0.023 0.0697,-0.0306 0.0697,-0.031 0,0 0,0 0,0 0,0 0,0 0,0 0,0 0,0 0,0 0,-1e-5 0,-1e-5 0,-1e-5 0,0 0,0 0,1e-5 0,0 0,0 0,0 0,0 0,0 0,0 0,0 0,0 0,0 9e-5,3.6e-4 0.003,0.007 0.0752,0.0129 0.0729,0.005 0.21603,0.009 0.49701,0.003 0,0 0,0 0,0 0,0 0,0 0,0 0.19122,0.0333 0.38522,0.0943 0.58192,0.1826 0,0 0,0 0,0 l 0,0 c 0.39107,0.17557 0.79281,0.4591 1.20455,0.84761 l 0,0 c 0.81321,0.76732 1.66541,1.94411 2.55141,3.5073 l 0,0 c 1.72183,3.03786 3.57127,7.53497 5.51012,13.32208 l 0,0 c 3.58957,10.71423 7.48622,25.85218 11.44491,44.33609 l 0,0 c 5.75469,26.86806 11.71255,61.09642 16.93158,98.9046 l 0,0 c 0.67505,6.39942 0.0349,12.21926 -1.62068,17.1749 l 0,0 c -1.81977,5.65417 -4.24137,10.51154 -6.92328,14.57574 -2.39059,3.65629 -4.95123,7.06606 -7.62895,10.25901 -4.79357,5.71593 -9.8612,10.61621 -14.77881,14.87726 -9.9717,8.82209 -20.31584,16.36111 -30.21831,22.92354 -11.79788,7.83858 -23.50578,14.68149 -34.49189,20.60979 -25.63892,13.83689 -48.93947,23.663 -65.8252,29.43 -19.28948,6.25982 -31.27127,8.25776 -32.95616,4.85903 z"
         id="path7"
         inkscape:path-effect="#path-effect8"
         inkscape:original-d="m 563.61459,424.40274 c 0,0 181.74878,-85.07389 175.94828,-132.44458 C 733.76238,244.58747 719.26115,128.5776 719.26115,128.5776"
         sodipodi:nodetypes="csc"
         transform="matrix(-0.60006674,0,0,-0.60006674,1098.936,738.46756)" /><path
         style="fill:#999999;fill-opacity:1;stroke:#000000;stroke-width:3.33296;stroke-dasharray:none;stroke-opacity:1"
         d="m 563.61459,424.40274 c -1.68447,-3.3979 7.15397,-11.72344 23.68441,-23.21992 14.45971,-10.39312 34.68066,-23.55946 57.85517,-39.42116 9.82677,-6.72441 20.43827,-14.11438 30.85506,-21.91319 8.8085,-6.60982 17.77677,-13.63181 25.92878,-21.16187 4.07379,-3.85137 7.9632,-7.60923 11.18154,-11.35129 1.80394,-2.0975 3.38753,-4.17785 4.70468,-6.28342 1.37952,-2.24738 2.432,-4.02378 2.82464,-5.41781 l 0,0 c 0.24068,-1.08495 0.50187,-1.62041 0.419,-1.41122 l 0,0 c -4.0672,-38.05036 -6.69748,-72.34314 -7.71678,-99.97411 l 0,0 c -0.69653,-18.88798 -0.63914,-34.51504 0.20645,-45.78311 l 0,0 c 0.45668,-6.08558 1.14323,-10.8991 2.0648,-14.26694 l 0,0 c 0.47421,-1.733 1.01066,-3.08323 1.61003,-4.02702 l 0,0 c 0.30348,-0.47785 0.62309,-0.85152 0.95891,-1.11792 l 10e-6,0 c 0,0 0,-1e-5 0,-1e-5 0.16891,-0.13399 0.34193,-0.24085 0.51907,-0.32019 0,0 0,0 0,0 0,0 0,0 0,0 0.27391,-0.0629 0.41176,-0.10177 0.48105,-0.12498 0.0687,-0.023 0.0697,-0.0306 0.0697,-0.031 0,0 0,0 0,0 0,0 0,0 0,0 0,0 0,0 0,0 0,-1e-5 0,-1e-5 0,-1e-5 0,0 0,0 0,1e-5 0,0 0,0 0,0 0,0 0,0 0,0 0,0 0,0 0,0 9e-5,3.6e-4 0.003,0.007 0.0752,0.0129 0.0729,0.005 0.21603,0.009 0.49701,0.003 0,0 0,0 0,0 0,0 0,0 0,0 0.19122,0.0333 0.38522,0.0943 0.58192,0.1826 0,0 0,0 0,0 l 0,0 c 0.39107,0.17557 0.79281,0.4591 1.20455,0.84761 l 0,0 c 0.81321,0.76732 1.66541,1.94411 2.55141,3.5073 l 0,0 c 1.72183,3.03786 3.57127,7.53497 5.51012,13.32208 l 0,0 c 3.58957,10.71423 7.48622,25.85218 11.44491,44.33609 l 0,0 c 5.75469,26.86806 11.71255,61.09642 16.93158,98.9046 l 0,0 c 0.67505,6.39942 0.0349,12.21926 -1.62068,17.1749 l 0,0 c -1.81977,5.65417 -4.24137,10.51154 -6.92328,14.57574 -2.39059,3.65629 -4.95123,7.06606 -7.62895,10.25901 -4.79357,5.71593 -9.8612,10.61621 -14.77881,14.87726 -9.9717,8.82209 -20.31584,16.36111 -30.21831,22.92354 -11.79788,7.83858 -23.50578,14.68149 -34.49189,20.60979 -25.63892,13.83689 -48.93947,23.663 -65.8252,29.43 -19.28948,6.25982 -31.27127,8.25776 -32.95616,4.85903 z"
         id="path7-3"
         inkscape:path-effect="#path-effect8-1"
         inkscape:original-d="m 563.61459,424.40274 c 0,0 181.74878,-85.07389 175.94828,-132.44458 C 733.76238,244.58747 719.26115,128.5776 719.26115,128.5776"
         sodipodi:nodetypes="csc"
         transform="matrix(0.60006674,0,0,-0.60006674,420.11385,738.44499)" /><ellipse
         style="fill:#999999;fill-opacity:1;stroke:#000000;stroke-width:2;stroke-dasharray:none;stroke-opacity:1"
         id="path2"
         cx="-759.52496"
         cy="567.03754"
         rx="69.073502"
         ry="114.72363"
         transform="scale(-1,1)" /><circle
         style="fill:#999999;fill-opacity:1;stroke:#000000;stroke-width:2;stroke-dasharray:none;stroke-opacity:1"
         id="path3-3"
         cx="-761.38531"
         cy="-429.36923"
         r="62.012772"
         transform="scale(-1)" /></g><path
       style="fill:#f8f8f8;fill-opacity:1;stroke:#050505;stroke-width:0.466022;stroke-linecap:square;stroke-miterlimit:3.6;stroke-dasharray:0.932042, 1.86408;stroke-dashoffset:0;stroke-opacity:1;marker-start:url(#Stop);marker-end:url(#Stop)"
       d="M 80.452208,17.74863 H 145.76884"
       id="path4-2"
       sodipodi:nodetypes="cc" /><path
       style="fill:#ffffff;fill-opacity:1;stroke:#000000;stroke-width:0.372818;stroke-linecap:square;stroke-miterlimit:3.3;stroke-dasharray:none;stroke-dashoffset:0;marker-start:url(#Diamond);marker-end:url(#marker5)"
       d="M 190.95604,0 79.634442,-52.179592"
       id="path4" /></g></svg>
