<?xml version="1.0" encoding="UTF-8" standalone="no"?>
<!-- Created with Inkscape (http://www.inkscape.org/) -->

<svg
   width="210mm"
   height="297mm"
   viewBox="0 0 210 297"
   version="1.1"
   id="svg1"
   inkscape:version="1.3.2 (091e20e, 2023-11-25, custom)"
   sodipodi:docname="hävarm_bil_facit.svg"
   xml:space="preserve"
   xmlns:inkscape="http://www.inkscape.org/namespaces/inkscape"
   xmlns:sodipodi="http://sodipodi.sourceforge.net/DTD/sodipodi-0.dtd"
   xmlns="http://www.w3.org/2000/svg"
   xmlns:svg="http://www.w3.org/2000/svg"><sodipodi:namedview
     id="namedview1"
     pagecolor="#505050"
     bordercolor="#eeeeee"
     borderopacity="1"
     inkscape:showpageshadow="0"
     inkscape:pageopacity="0"
     inkscape:pagecheckerboard="0"
     inkscape:deskcolor="#505050"
     inkscape:document-units="mm"
     showborder="false"
     inkscape:zoom="0.72572935"
     inkscape:cx="-32.381218"
     inkscape:cy="586.99569"
     inkscape:window-width="1920"
     inkscape:window-height="1017"
     inkscape:window-x="-8"
     inkscape:window-y="-8"
     inkscape:window-maximized="1"
     inkscape:current-layer="svg1" /><defs
     id="defs1"><marker
       style="overflow:visible"
       id="Triangle"
       refX="0"
       refY="0"
       orient="auto-start-reverse"
       inkscape:stockid="Triangle arrow"
       markerWidth="1"
       markerHeight="1"
       viewBox="0 0 1 1"
       inkscape:isstock="true"
       inkscape:collect="always"
       preserveAspectRatio="xMidYMid"><path
         transform="scale(0.5)"
         style="fill:context-stroke;fill-rule:evenodd;stroke:context-stroke;stroke-width:1pt"
         d="M 5.77,0 -2.88,5 V -5 Z"
         id="path135" /></marker><linearGradient
       id="swatch489"
       inkscape:swatch="solid"><stop
         style="stop-color:#4b4b4b;stop-opacity:1;"
         offset="0"
         id="stop489" /></linearGradient><rect
       x="130.03435"
       y="222.84697"
       width="82.06889"
       height="25.062149"
       id="rect11" /><inkscape:path-effect
       effect="skeletal"
       id="path-effect10"
       is_visible="true"
       lpeversion="1"
       pattern="M 0,18.867925 C 0,8.4528305 8.4528305,0 18.867925,0 29.28302,0 37.735851,8.4528305 37.735851,18.867925 c 0,10.415095 -8.452831,18.867926 -18.867926,18.867926 C 8.4528305,37.735851 0,29.28302 0,18.867925 Z"
       copytype="single_stretched"
       prop_scale="1"
       scale_y_rel="false"
       spacing="0"
       normal_offset="0"
       tang_offset="0"
       prop_units="false"
       vertical_pattern="false"
       hide_knot="false"
       fuse_tolerance="0" /><inkscape:path-effect
       effect="skeletal"
       id="path-effect8"
       is_visible="true"
       lpeversion="1"
       pattern="M 0,18.867925 C 0,8.4528305 8.4528305,0 18.867925,0 29.28302,0 37.735851,8.4528305 37.735851,18.867925 c 0,10.415095 -8.452831,18.867926 -18.867926,18.867926 C 8.4528305,37.735851 0,29.28302 0,18.867925 Z"
       copytype="single_stretched"
       prop_scale="1"
       scale_y_rel="false"
       spacing="0"
       normal_offset="0"
       tang_offset="0"
       prop_units="false"
       vertical_pattern="false"
       hide_knot="false"
       fuse_tolerance="0" /><inkscape:path-effect
       effect="skeletal"
       id="path-effect7"
       is_visible="true"
       lpeversion="1"
       pattern="M 0,18.867925 C 0,8.4528305 8.4528305,0 18.867925,0 29.28302,0 37.735851,8.4528305 37.735851,18.867925 c 0,10.415095 -8.452831,18.867926 -18.867926,18.867926 C 8.4528305,37.735851 0,29.28302 0,18.867925 Z"
       copytype="single_stretched"
       prop_scale="1"
       scale_y_rel="false"
       spacing="0"
       normal_offset="0"
       tang_offset="0"
       prop_units="false"
       vertical_pattern="false"
       hide_knot="false"
       fuse_tolerance="0" /><inkscape:path-effect
       effect="spiro"
       id="path-effect6"
       is_visible="true"
       lpeversion="1" /><inkscape:path-effect
       effect="skeletal"
       id="path-effect8-1"
       is_visible="true"
       lpeversion="1"
       pattern="M 0,18.867925 C 0,8.4528305 8.4528305,0 18.867925,0 29.28302,0 37.735851,8.4528305 37.735851,18.867925 c 0,10.415095 -8.452831,18.867926 -18.867926,18.867926 C 8.4528305,37.735851 0,29.28302 0,18.867925 Z"
       copytype="single_stretched"
       prop_scale="1"
       scale_y_rel="false"
       spacing="0"
       normal_offset="0"
       tang_offset="0"
       prop_units="false"
       vertical_pattern="false"
       hide_knot="false"
       fuse_tolerance="0" /><inkscape:path-effect
       effect="skeletal"
       id="path-effect10-3"
       is_visible="true"
       lpeversion="1"
       pattern="M 0,18.867925 C 0,8.4528305 8.4528305,0 18.867925,0 29.28302,0 37.735851,8.4528305 37.735851,18.867925 c 0,10.415095 -8.452831,18.867926 -18.867926,18.867926 C 8.4528305,37.735851 0,29.28302 0,18.867925 Z"
       copytype="single_stretched"
       prop_scale="1"
       scale_y_rel="false"
       spacing="0"
       normal_offset="0"
       tang_offset="0"
       prop_units="false"
       vertical_pattern="false"
       hide_knot="false"
       fuse_tolerance="0" /><inkscape:path-effect
       effect="skeletal"
       id="path-effect10-8"
       is_visible="true"
       lpeversion="1"
       pattern="M 0,18.867925 C 0,8.4528305 8.4528305,0 18.867925,0 29.28302,0 37.735851,8.4528305 37.735851,18.867925 c 0,10.415095 -8.452831,18.867926 -18.867926,18.867926 C 8.4528305,37.735851 0,29.28302 0,18.867925 Z"
       copytype="single_stretched"
       prop_scale="1"
       scale_y_rel="false"
       spacing="0"
       normal_offset="0"
       tang_offset="0"
       prop_units="false"
       vertical_pattern="false"
       hide_knot="false"
       fuse_tolerance="0" /><inkscape:path-effect
       effect="skeletal"
       id="path-effect10-3-2"
       is_visible="true"
       lpeversion="1"
       pattern="M 0,18.867925 C 0,8.4528305 8.4528305,0 18.867925,0 29.28302,0 37.735851,8.4528305 37.735851,18.867925 c 0,10.415095 -8.452831,18.867926 -18.867926,18.867926 C 8.4528305,37.735851 0,29.28302 0,18.867925 Z"
       copytype="single_stretched"
       prop_scale="1"
       scale_y_rel="false"
       spacing="0"
       normal_offset="0"
       tang_offset="0"
       prop_units="false"
       vertical_pattern="false"
       hide_knot="false"
       fuse_tolerance="0" /><inkscape:path-effect
       effect="skeletal"
       id="path-effect8-6"
       is_visible="true"
       lpeversion="1"
       pattern="M 0,18.867925 C 0,8.4528305 8.4528305,0 18.867925,0 29.28302,0 37.735851,8.4528305 37.735851,18.867925 c 0,10.415095 -8.452831,18.867926 -18.867926,18.867926 C 8.4528305,37.735851 0,29.28302 0,18.867925 Z"
       copytype="single_stretched"
       prop_scale="1"
       scale_y_rel="false"
       spacing="0"
       normal_offset="0"
       tang_offset="0"
       prop_units="false"
       vertical_pattern="false"
       hide_knot="false"
       fuse_tolerance="0" /><inkscape:path-effect
       effect="skeletal"
       id="path-effect8-1-5"
       is_visible="true"
       lpeversion="1"
       pattern="M 0,18.867925 C 0,8.4528305 8.4528305,0 18.867925,0 29.28302,0 37.735851,8.4528305 37.735851,18.867925 c 0,10.415095 -8.452831,18.867926 -18.867926,18.867926 C 8.4528305,37.735851 0,29.28302 0,18.867925 Z"
       copytype="single_stretched"
       prop_scale="1"
       scale_y_rel="false"
       spacing="0"
       normal_offset="0"
       tang_offset="0"
       prop_units="false"
       vertical_pattern="false"
       hide_knot="false"
       fuse_tolerance="0" /><rect
       x="130.03435"
       y="222.84697"
       width="82.06889"
       height="25.062149"
       id="rect11-0" /><inkscape:path-effect
       effect="skeletal"
       id="path-effect10-7"
       is_visible="true"
       lpeversion="1"
       pattern="M 0,18.867925 C 0,8.4528305 8.4528305,0 18.867925,0 29.28302,0 37.735851,8.4528305 37.735851,18.867925 c 0,10.415095 -8.452831,18.867926 -18.867926,18.867926 C 8.4528305,37.735851 0,29.28302 0,18.867925 Z"
       copytype="single_stretched"
       prop_scale="1"
       scale_y_rel="false"
       spacing="0"
       normal_offset="0"
       tang_offset="0"
       prop_units="false"
       vertical_pattern="false"
       hide_knot="false"
       fuse_tolerance="0" /><inkscape:path-effect
       effect="skeletal"
       id="path-effect8-7"
       is_visible="true"
       lpeversion="1"
       pattern="M 0,18.867925 C 0,8.4528305 8.4528305,0 18.867925,0 29.28302,0 37.735851,8.4528305 37.735851,18.867925 c 0,10.415095 -8.452831,18.867926 -18.867926,18.867926 C 8.4528305,37.735851 0,29.28302 0,18.867925 Z"
       copytype="single_stretched"
       prop_scale="1"
       scale_y_rel="false"
       spacing="0"
       normal_offset="0"
       tang_offset="0"
       prop_units="false"
       vertical_pattern="false"
       hide_knot="false"
       fuse_tolerance="0" /><inkscape:path-effect
       effect="skeletal"
       id="path-effect7-2"
       is_visible="true"
       lpeversion="1"
       pattern="M 0,18.867925 C 0,8.4528305 8.4528305,0 18.867925,0 29.28302,0 37.735851,8.4528305 37.735851,18.867925 c 0,10.415095 -8.452831,18.867926 -18.867926,18.867926 C 8.4528305,37.735851 0,29.28302 0,18.867925 Z"
       copytype="single_stretched"
       prop_scale="1"
       scale_y_rel="false"
       spacing="0"
       normal_offset="0"
       tang_offset="0"
       prop_units="false"
       vertical_pattern="false"
       hide_knot="false"
       fuse_tolerance="0" /><inkscape:path-effect
       effect="spiro"
       id="path-effect6-6"
       is_visible="true"
       lpeversion="1" /><inkscape:path-effect
       effect="skeletal"
       id="path-effect8-1-2"
       is_visible="true"
       lpeversion="1"
       pattern="M 0,18.867925 C 0,8.4528305 8.4528305,0 18.867925,0 29.28302,0 37.735851,8.4528305 37.735851,18.867925 c 0,10.415095 -8.452831,18.867926 -18.867926,18.867926 C 8.4528305,37.735851 0,29.28302 0,18.867925 Z"
       copytype="single_stretched"
       prop_scale="1"
       scale_y_rel="false"
       spacing="0"
       normal_offset="0"
       tang_offset="0"
       prop_units="false"
       vertical_pattern="false"
       hide_knot="false"
       fuse_tolerance="0" /><inkscape:path-effect
       effect="skeletal"
       id="path-effect10-3-9"
       is_visible="true"
       lpeversion="1"
       pattern="M 0,18.867925 C 0,8.4528305 8.4528305,0 18.867925,0 29.28302,0 37.735851,8.4528305 37.735851,18.867925 c 0,10.415095 -8.452831,18.867926 -18.867926,18.867926 C 8.4528305,37.735851 0,29.28302 0,18.867925 Z"
       copytype="single_stretched"
       prop_scale="1"
       scale_y_rel="false"
       spacing="0"
       normal_offset="0"
       tang_offset="0"
       prop_units="false"
       vertical_pattern="false"
       hide_knot="false"
       fuse_tolerance="0" /><inkscape:path-effect
       effect="skeletal"
       id="path-effect10-8-9"
       is_visible="true"
       lpeversion="1"
       pattern="M 0,18.867925 C 0,8.4528305 8.4528305,0 18.867925,0 29.28302,0 37.735851,8.4528305 37.735851,18.867925 c 0,10.415095 -8.452831,18.867926 -18.867926,18.867926 C 8.4528305,37.735851 0,29.28302 0,18.867925 Z"
       copytype="single_stretched"
       prop_scale="1"
       scale_y_rel="false"
       spacing="0"
       normal_offset="0"
       tang_offset="0"
       prop_units="false"
       vertical_pattern="false"
       hide_knot="false"
       fuse_tolerance="0" /><inkscape:path-effect
       effect="skeletal"
       id="path-effect10-3-2-3"
       is_visible="true"
       lpeversion="1"
       pattern="M 0,18.867925 C 0,8.4528305 8.4528305,0 18.867925,0 29.28302,0 37.735851,8.4528305 37.735851,18.867925 c 0,10.415095 -8.452831,18.867926 -18.867926,18.867926 C 8.4528305,37.735851 0,29.28302 0,18.867925 Z"
       copytype="single_stretched"
       prop_scale="1"
       scale_y_rel="false"
       spacing="0"
       normal_offset="0"
       tang_offset="0"
       prop_units="false"
       vertical_pattern="false"
       hide_knot="false"
       fuse_tolerance="0" /><inkscape:path-effect
       effect="skeletal"
       id="path-effect8-6-3"
       is_visible="true"
       lpeversion="1"
       pattern="M 0,18.867925 C 0,8.4528305 8.4528305,0 18.867925,0 29.28302,0 37.735851,8.4528305 37.735851,18.867925 c 0,10.415095 -8.452831,18.867926 -18.867926,18.867926 C 8.4528305,37.735851 0,29.28302 0,18.867925 Z"
       copytype="single_stretched"
       prop_scale="1"
       scale_y_rel="false"
       spacing="0"
       normal_offset="0"
       tang_offset="0"
       prop_units="false"
       vertical_pattern="false"
       hide_knot="false"
       fuse_tolerance="0" /><inkscape:path-effect
       effect="skeletal"
       id="path-effect8-1-5-0"
       is_visible="true"
       lpeversion="1"
       pattern="M 0,18.867925 C 0,8.4528305 8.4528305,0 18.867925,0 29.28302,0 37.735851,8.4528305 37.735851,18.867925 c 0,10.415095 -8.452831,18.867926 -18.867926,18.867926 C 8.4528305,37.735851 0,29.28302 0,18.867925 Z"
       copytype="single_stretched"
       prop_scale="1"
       scale_y_rel="false"
       spacing="0"
       normal_offset="0"
       tang_offset="0"
       prop_units="false"
       vertical_pattern="false"
       hide_knot="false"
       fuse_tolerance="0" /><filter
       style="color-interpolation-filters:sRGB;"
       height="1.2061941"
       width="1.0615764"
       y="-0.10309707"
       x="-0.030788221"
       inkscape:label="Outline"
       id="filter487"><feGaussianBlur
         in="SourceAlpha"
         stdDeviation="0.59"
         result="blur1"
         id="feGaussianBlur483" /><feComposite
         in="blur1"
         in2="SourceGraphic"
         operator="out"
         result="composite1"
         id="feComposite483" /><feColorMatrix
         values="1 0 0 0 0 0 1 0 0 0 0 0 1 0 0 0 0 0 1 -0 "
         result="colormatrix1"
         id="feColorMatrix483" /><feGaussianBlur
         stdDeviation="0.01"
         result="blur2"
         id="feGaussianBlur484" /><feComposite
         in="blur2"
         in2="blur2"
         operator="atop"
         result="composite2"
         id="feComposite484" /><feColorMatrix
         values="1 0 0 0 0 0 1 0 0 0 0 0 1 0 0 0 0 0 100 -0 "
         result="colormatrix2"
         id="feColorMatrix484" /><feGaussianBlur
         stdDeviation="0.389149"
         result="blur3"
         id="feGaussianBlur485" /><feColorMatrix
         values="1 0 0 0 0 0 1 0 0 0 0 0 1 0 0 0 0 0 5 -1 "
         result="colormatrix3"
         id="feColorMatrix485" /><feFlood
         flood-opacity="1"
         flood-color="rgb(0,0,0)"
         result="flood"
         id="feFlood485" /><feComposite
         in="flood"
         in2="colormatrix3"
         k2="1"
         operator="in"
         result="composite3"
         id="feComposite485" /><feComposite
         in="SourceGraphic"
         in2="colormatrix3"
         operator="out"
         result="composite4"
         id="feComposite486" /><feComposite
         in="composite4"
         in2="composite3"
         k2="1"
         k3="1"
         operator="arithmetic"
         result="composite5"
         id="feComposite487" /></filter><marker
       style="overflow:visible"
       id="Stop"
       refX="0"
       refY="0"
       orient="auto"
       inkscape:stockid="Stop"
       markerWidth="1"
       markerHeight="1"
       viewBox="0 0 1 1"
       inkscape:isstock="true"
       inkscape:collect="always"
       preserveAspectRatio="xMidYMid"><path
         style="fill:none;stroke:context-stroke;stroke-width:1"
         d="M 0,4 V -4"
         id="path23" /></marker><marker
       style="overflow:visible"
       id="Triangle-1"
       refX="0"
       refY="0"
       orient="auto-start-reverse"
       inkscape:stockid="Triangle arrow"
       markerWidth="1"
       markerHeight="1"
       viewBox="0 0 1 1"
       inkscape:isstock="true"
       inkscape:collect="always"
       preserveAspectRatio="xMidYMid"><path
         transform="scale(0.5)"
         style="fill:context-stroke;fill-rule:evenodd;stroke:context-stroke;stroke-width:1pt"
         d="M 5.77,0 -2.88,5 V -5 Z"
         id="path135-4" /></marker></defs><path
     style="fill:#626262;fill-opacity:1;stroke:#4b4b4b;stroke-width:3;stroke-linecap:round;stroke-miterlimit:3.3;stroke-dasharray:none;stroke-dashoffset:0;stroke-opacity:1"
     d="M -142.95655,147.35468 H 61.544888"
     id="path488" /><g
     inkscape:label="pelle"
     id="layer1-2-3"
     transform="matrix(0.24995716,0,0,0.26458333,-375.4791,-43.253209)"
     style="stroke-width:2.05768;stroke-dasharray:none"><path
       style="fill:#999999;fill-opacity:1;stroke:#000000;stroke-width:1.97324;stroke-dasharray:none;stroke-opacity:1"
       d="m 561.25982,596.09455 c 6.5,6.88823 -9.32397,30.20727 -33.04401,52.52035 0,0 0,0 0,0 0.42206,5.79649 0.73999,11.76209 0.92359,17.82374 0.67139,22.16625 -0.59898,41.47212 -3.60602,56.11046 -2.96053,14.41193 -7.61254,23.93629 -12.83738,23.93629 -5.25434,0 -9.84734,-9.6653 -12.83738,-26.26526 -3.00325,-16.67331 -4.2812,-39.60202 -3.60602,-65.02438 0.18364,-6.91463 0.50149,-13.61258 0.92359,-19.96821 0,0 10e-6,-10e-6 10e-6,-10e-6 31.85453,-30.13352 57.58577,-46.01893 64.08362,-39.13298 z"
       id="path10-7"
       transform="matrix(-0.97244576,0,0,1.1182265,1305.8054,-25.748793)"
       inkscape:original-d="M 561.25982,596.09455 512.696,641.92122 v 104.56416"
       inkscape:path-effect="#path-effect10-7" /><path
       style="fill:#999999;fill-opacity:1;stroke:#000000;stroke-width:1.97324;stroke-dasharray:none;stroke-opacity:1"
       d="m 537.35781,593.54557 c 8.42719,-1.17235 18.2225,21.03115 24.89101,55.40958 0,0 0,10e-6 0,10e-6 -1.84413,7.79314 -4.13529,16.13525 -6.84829,24.74887 -13.88242,44.07602 -32.64719,76.04612 -42.70453,72.78136 -10.0698,-3.26881 -6.87905,-38.84945 6.24771,-78.01959 2.65044,-7.90889 5.52741,-15.48746 8.51349,-22.5742 0,0 0,0 0,0 -2.10164,-28.17992 1.5395,-51.18288 9.90061,-52.34603 z"
       id="path10-6-3"
       transform="matrix(0.97244576,0,0,1.1182265,211.36199,-25.748793)"
       sodipodi:nodetypes="ccc"
       inkscape:original-d="m 537.35781,593.54557 7.4952,53.87781 -32.15701,99.062"
       inkscape:path-effect="#path-effect10-3-9" /><path
       style="fill:#999999;fill-opacity:1;stroke:#000000;stroke-width:3.42909;stroke-dasharray:none;stroke-opacity:1"
       d="m 563.6146,424.40274 c -0.0464,-0.0966 -0.0876,-0.19542 -0.12374,-0.2964 -0.0353,-0.0985 -0.0658,-0.19916 -0.0916,-0.30179 0,0 0,0 0,0 -0.0514,-0.20448 -0.0843,-0.41777 -0.0986,-0.63844 0,0 0,0 0,0 l 0,0 c -0.029,-0.4383 0.0134,-0.91066 0.12595,-1.4115 l 0,0 c 0.22251,-0.99014 0.71591,-2.10738 1.45957,-3.33538 l 0,0 c 1.44829,-2.39177 3.85271,-5.24414 7.02951,-8.49606 l 0,0 c 6.07573,-6.22095 14.50334,-13.4923 24.67969,-22.55336 l 0,0 c 8.53046,-7.6239 18.77498,-16.81404 27.50632,-26.63263 l 0,0 c 3.81044,-4.28942 7.46529,-8.73382 10.50243,-13.31394 1.18859,-1.81825 2.3087,-3.62768 3.3066,-5.41492 1.27021,-2.27493 2.31873,-4.47133 3.08799,-6.61486 0.87526,-1.99264 1.3359,-4.97537 1.84738,-8.48792 0.54378,-4.29191 0.6996,-8.93467 0.7511,-13.61226 0.13747,-11.11118 -0.64844,-23.27396 -1.14983,-32.89803 -2.66481,-25.62402 -1.52847,-43.13357 4.08644,-44.691 0,0 0,0 0,0 0,0 0,0 0,0 0,0 1e-5,0 1e-5,0 0,0 0,0 0,0 0,0 0,0 0,0 0,0 0,0 0,0 0,0 0,0 0,0 0,0 0,0 0,0 0.0126,-0.003 0.0271,-0.007 0.0145,-0.004 -0.0126,0.003 0.002,-5.1e-4 0.0145,-0.004 0,0 0,-1e-5 0,-1e-5 0,0 0,0 0,0 0,0 10e-6,0 10e-6,0 0,0 0,0 0,0 0,0 0,0 0,0 0,0 0,0 0,0 0,0 0,0 0,0 0,0 10e-6,0 10e-6,0 5.64336,-1.50594 14.60266,13.36986 24.26946,38.5226 3.37368,10.21492 6.62603,22.88839 8.21993,37.06973 0.63742,5.66921 0.96378,11.89539 0.63632,18.55176 -0.18834,5.27894 -1.06784,11.37927 -3.22687,18.02092 -1.51209,4.34541 -3.36165,8.46924 -5.4859,12.35761 -1.6711,3.05889 -3.48158,5.91609 -5.37861,8.57309 -4.77215,6.74572 -10.02117,12.56397 -15.30678,17.56979 l 0,0 c -12.22125,11.57759 -25.13376,20.0292 -36.38781,26.04859 l 0,0 c -13.01218,6.99629 -24.65965,11.2744 -33.29101,13.2528 l 0,0 c -4.65391,1.06795 -8.49742,1.48998 -11.37537,1.29386 l 0,0 c -1.47601,-0.10063 -2.69276,-0.35971 -3.63491,-0.78108 l 0,0 c -0.47626,-0.21302 -0.88015,-0.46466 -1.21144,-0.75857 l 0,0 c 0,0 0,0 0,0 -0.1661,-0.14774 -0.31332,-0.305 -0.44203,-0.47291 0,0 0,0 0,0 -0.0645,-0.0841 -0.12417,-0.17071 -0.17913,-0.25987 -0.0563,-0.0914 -0.10766,-0.18534 -0.15402,-0.28193 z"
       id="path7-3-1"
       sodipodi:nodetypes="csc"
       transform="matrix(0.55231228,-0.29635326,-0.29635326,-0.49293642,639.9163,1024.2782)"
       inkscape:original-d="m 563.61459,424.40274 c 0,0 79.28656,-37.75232 95.11554,-82.77533 10.66081,-30.32298 -12.18188,-105.92712 -12.18188,-105.92712"
       inkscape:path-effect="#path-effect8-1-2"
       inkscape:transform-center-x="-35.443209"
       inkscape:transform-center-y="2.6461661" /><ellipse
       style="fill:#999999;fill-opacity:1;stroke:#000000;stroke-width:2.05891;stroke-dasharray:none;stroke-opacity:1"
       id="path2-4"
       cx="-937.23022"
       cy="-400.33987"
       rx="66.206749"
       ry="119.83399"
       transform="matrix(-0.51525162,-0.85703895,-0.88116653,0.47280603,0,0)"
       inkscape:transform-center-x="-24.884725"
       inkscape:transform-center-y="-14.228991" /><ellipse
       style="fill:#999999;fill-opacity:1;stroke:#000000;stroke-width:2.05891;stroke-dasharray:none;stroke-opacity:1"
       id="path3-0"
       cx="-939.01337"
       cy="544.14056"
       transform="matrix(-0.51525162,-0.85703895,0.88116653,-0.47280603,0,0)"
       inkscape:transform-center-x="-56.787044"
       inkscape:transform-center-y="-31.813628"
       rx="59.43906"
       ry="64.775131" /><path
       style="fill:#999999;fill-opacity:1;stroke:#000000;stroke-width:3.42909;stroke-dasharray:none;stroke-opacity:1"
       d="m 609.76614,437.48777 c -0.0789,0.0331 -0.15978,0.0613 -0.24257,0.0845 -0.0806,0.0226 -0.16309,0.0405 -0.24736,0.0538 0,0 0,0 0,0 -0.16813,0.0265 -0.34326,0.0343 -0.52562,0.0237 0,0 0,0 0,0 l 0,0 c -0.36292,-0.0212 -0.75306,-0.11547 -1.1705,-0.28113 l 0,0 c -0.82544,-0.32759 -1.7532,-0.93457 -2.77636,-1.80976 l 0,0 c -1.99444,-1.70604 -4.34081,-4.42737 -6.96742,-8.08738 l 0,0 C 592.94428,420.65515 587.0228,410.489 580.80316,397.60886 l 0,0 C 575.4074,386.44153 569.5632,372.76315 564.32621,357.42691 l 0,0 c 0,0 -10e-6,-1e-5 -10e-6,-1e-5 -4.14415,-12.03992 -8.27318,-26.1263 -10.60634,-41.49395 l 0,0 c -0.67732,-5.42527 -0.56812,-10.38257 0.0474,-14.73287 l 0,0 c 0.67187,-5.21841 1.77221,-10.10484 3.1162,-14.65883 2.50457,-8.53061 5.71682,-16.62392 9.34127,-24.41274 1.00929,-2.16892 2.03945,-4.29057 3.07945,-6.3643 5.75762,-11.57296 12.07583,-22.37475 18.38545,-32.30579 l 0,0 c 7.26817,-11.45155 14.7254,-22.07895 21.93008,-31.69825 l 0,0 c 16.35361,-21.83611 32.01688,-39.38275 44.11586,-51.04466 l 0,0 c 6.6169,-6.37903 12.27825,-11.10555 16.68842,-13.98982 l 0,0 c 2.26701,-1.48261 4.19824,-2.47623 5.75873,-2.95307 l 0,0 c 0.78928,-0.24117 1.48201,-0.3503 2.07469,-0.32297 l 0,0 c 0,0 0,0 0,0 0.55236,0.2163 0.89066,0.31704 1.1066,0.37589 0,0 0,0 0,0 l 0,1e-5 c 0.17155,0.0801 0.26511,0.11215 0.31583,0.12397 0.0254,0.006 0.0399,0.007 0.0482,0.006 0.008,-0.005 0.0127,-0.001 0.0103,-0.003 -0.002,-0.002 0.002,0.002 0.005,0.004 -0.004,0.015 -1.6e-4,0.029 0.0113,0.0524 0.0228,0.0468 0.075,0.13075 0.1915,0.28 l 0,0 c 10e-6,0 10e-6,0 10e-6,0 0.10653,0.1975 0.28078,0.50195 0.61749,0.9912 0,0 0,0 0,0 l 0,0 c 0.1626,0.56812 0.21885,1.26448 0.17198,2.0827 l 0,0 c -0.0926,1.61657 -0.58554,3.71575 -1.44579,6.25421 l 0,0 c -1.672,4.93399 -4.73743,11.55643 -8.92575,19.57467 l 0,0 c -7.92828,15.17869 -19.13799,34.01124 -32.80349,57.2137 l 0,0 c -5.84455,9.92498 -12.23075,20.81099 -18.44386,31.86965 l 0,0 c -5.43058,9.67513 -10.96974,19.83211 -15.97717,30.13727 -0.90877,1.88688 -1.80512,3.76997 -2.67571,5.64248 -3.13067,6.73359 -5.81397,13.08797 -7.78927,19.33575 -1.03502,3.29405 -1.86726,6.2576 -2.31481,8.97245 l 0,0 c -0.32512,2.31654 -0.5878,4.02892 -0.46476,5.14035 l 0,0 c 1.07353,12.4134 3.70076,25.42049 6.14533,37.13639 0,0 10e-6,1e-5 10e-6,1e-5 l 0,0 c 3.1462,14.94604 6.40776,28.57493 9.06996,40.45514 l 0,0 c 3.05341,13.6179 5.32426,24.74739 6.34387,33.02554 l 0,0 c 0.54169,4.39756 0.72129,7.94436 0.48077,10.52722 l 0,0 c -0.12347,1.32606 -0.35907,2.40143 -0.71201,3.20978 l 0,0 c -0.17855,0.40896 -0.38804,0.75035 -0.6282,1.02165 l 0,0 c 0,0 -10e-6,0 -10e-6,0 -0.12074,0.13654 -0.24959,0.2555 -0.38631,0.35648 0,0 0,0 0,0 -0.0686,0.0507 -0.1392,0.0968 -0.21185,0.13842 -0.0746,0.0427 -0.15132,0.0807 -0.23024,0.11378 z"
       id="path7-6"
       sodipodi:nodetypes="csc"
       transform="matrix(0.6202288,-0.11072535,-0.09050051,-0.56440364,517.41375,867.64031)"
       inkscape:transform-center-x="-35.738252"
       inkscape:transform-center-y="-7.8216462"
       inkscape:original-d="m 609.76614,437.48778 c 0,0 -32.1583,-76.39894 -37.9588,-123.76963 -5.80049,-47.37069 107.931,-189.76549 107.931,-189.76549"
       inkscape:path-effect="#path-effect8-7" /></g><g
     id="g13"
     inkscape:label="bil"
     transform="rotate(4.4718477,633.09621,756.48443)"><rect
       style="fill:#d0d0d0;fill-opacity:1;stroke:#000000;stroke-width:2.01002;stroke-linecap:square;stroke-miterlimit:3.3;stroke-dasharray:none;stroke-dashoffset:0;stroke-opacity:1"
       id="rect13"
       width="36.087284"
       height="48.768978"
       x="-84.536598"
       y="74.340485"
       ry="14.430386" /><rect
       style="fill:#d0d0d0;fill-opacity:1;stroke:#000000;stroke-width:2.01002;stroke-linecap:square;stroke-miterlimit:3.3;stroke-dasharray:none;stroke-dashoffset:0;stroke-opacity:1"
       id="rect13-0"
       width="36.087284"
       height="48.768978"
       x="81.168968"
       y="74.340485"
       ry="14.430386" /><g
       id="g14"
       style="fill:#d0d0d0;fill-opacity:1;stroke:#000000;stroke-opacity:1;filter:url(#filter487)"
       inkscape:label="g14"><rect
         style="fill:#d0d0d0;fill-opacity:1;stroke:none;stroke-width:1.40608;stroke-linecap:square;stroke-miterlimit:3.3;stroke-dasharray:none;stroke-dashoffset:0;stroke-opacity:1"
         id="rect12"
         width="164.90527"
         height="63.961674"
         x="-66.395699"
         y="89.584953"
         ry="6.2154241" /><rect
         style="fill:#d0d0d0;fill-opacity:1;stroke:none;stroke-width:0.79375;stroke-linecap:square;stroke-miterlimit:3.3;stroke-dasharray:none;stroke-dashoffset:0;stroke-opacity:1;filter:url(#filter487)"
         id="rect487"
         width="77.106033"
         height="23.02643"
         x="-22.38121"
         y="143.06703"
         ry="0.54263091"
         transform="matrix(1.6109268,0,0,1.6109268,-9.9946572,-80.66148)" /><rect
         style="fill:#ffffff;fill-opacity:1;stroke:none;stroke-width:1.24928;stroke-linecap:square;stroke-miterlimit:3.3;stroke-dasharray:none;stroke-dashoffset:0;stroke-opacity:1"
         id="rect14"
         width="122.688"
         height="35.84803"
         x="-45.287071"
         y="150.43196"
         ry="0.84477919" /></g><circle
       style="fill:#ffffff;fill-opacity:1;stroke:#000000;stroke-width:0.480502;stroke-linecap:square;stroke-miterlimit:3.3;stroke-dasharray:none;stroke-dashoffset:0;stroke-opacity:1"
       id="path489"
       cx="14.483021"
       cy="65.292961"
       r="13.23776"
       transform="translate(-48.449314,46.559518)" /><circle
       style="fill:#ffffff;fill-opacity:1;stroke:#000000;stroke-width:0.480502;stroke-linecap:square;stroke-miterlimit:3.3;stroke-dasharray:none;stroke-dashoffset:0;stroke-opacity:1"
       id="path489-3"
       cx="115.13526"
       cy="65.292961"
       r="13.23776"
       transform="translate(-48.449314,46.559518)" /></g><path
     style="fill:none;fill-opacity:1;stroke:#000000;stroke-width:0.794;stroke-linecap:square;stroke-miterlimit:3.3;stroke-dasharray:none;stroke-dashoffset:0;stroke-opacity:1"
     d="M -214.06808,170.79231 H 28.532578 l 3.828046,-20.24062 145.001646,0"
     id="path487"
     sodipodi:nodetypes="cccc" /><path
     style="fill:none;stroke:#000000;stroke-width:1.5;stroke-linecap:square;stroke-miterlimit:3.3;stroke-dasharray:6, 6;stroke-dashoffset:0;stroke-opacity:1;marker-start:url(#Stop);marker-mid:url(#Stop);marker-end:url(#Stop)"
     d="m -143.52391,190.63762 175.240047,0.13091 31.459015,0.1289"
     id="path11"
     sodipodi:nodetypes="ccc" /><text
     xml:space="preserve"
     style="font-size:11.2889px;font-family:Sans;-inkscape-font-specification:'Sans, Normal';fill:#000000;fill-opacity:1;stroke:none;stroke-width:0.79375;stroke-linecap:square;stroke-miterlimit:3.3;stroke-dasharray:3.175, 3.175;stroke-dashoffset:0;stroke-opacity:1"
     x="33.764259"
     y="208.93755"
     id="text12"><tspan
       sodipodi:role="line"
       id="tspan12"
       style="font-size:11.2889px;fill:#000000;fill-opacity:1;stroke:none;stroke-width:0.79375"
       x="33.764259"
       y="208.93755">10 cm</tspan></text><text
     xml:space="preserve"
     style="font-size:11.2889px;font-family:Sans;-inkscape-font-specification:'Sans, Normal';fill:#000000;fill-opacity:1;stroke:none;stroke-width:0.79375;stroke-linecap:square;stroke-miterlimit:3.3;stroke-dasharray:3.175, 3.175;stroke-dashoffset:0;stroke-opacity:1"
     x="-79.008324"
     y="208.90932"
     id="text11"><tspan
       sodipodi:role="line"
       id="tspan11"
       style="font-size:11.2889px;fill:#000000;fill-opacity:1;stroke:none;stroke-width:0.79375"
       x="-79.008324"
       y="208.90932">2.9 m</tspan></text><text
     xml:space="preserve"
     style="font-size:11.2889px;font-family:Sans;-inkscape-font-specification:'Sans, Normal';fill:#000000;fill-opacity:1;stroke:none;stroke-width:0.79375;stroke-linecap:square;stroke-miterlimit:3.3;stroke-dasharray:3.175, 3.175;stroke-dashoffset:0;stroke-opacity:1"
     x="-137.16908"
     y="226.33429"
     id="text491"><tspan
       sodipodi:role="line"
       id="tspan491"
       style="font-size:11.2889px;fill:#000000;fill-opacity:1;stroke:none;stroke-width:0.79375"
       x="-137.16908"
       y="226.33429">F</tspan></text><text
     xml:space="preserve"
     style="font-size:11.2889px;font-family:Sans;-inkscape-font-specification:'Sans, Normal';fill:#000000;fill-opacity:1;stroke:none;stroke-width:0.79375;stroke-linecap:square;stroke-miterlimit:3.3;stroke-dasharray:3.175, 3.175;stroke-dashoffset:0;stroke-opacity:1"
     x="72.221458"
     y="281.44608"
     id="text491-8"><tspan
       sodipodi:role="line"
       id="tspan491-8"
       style="font-size:11.2889px;fill:#000000;fill-opacity:1;stroke:none;stroke-width:0.79375"
       x="72.221458"
       y="281.44608">F  bil</tspan></text><text
     xml:space="preserve"
     style="font-size:11.2889px;font-family:Sans;-inkscape-font-specification:'Sans, Normal';fill:#000000;fill-opacity:1;stroke:none;stroke-width:0.79375;stroke-linecap:square;stroke-miterlimit:3.3;stroke-dasharray:3.175, 3.175;stroke-dashoffset:0;stroke-opacity:1"
     x="17.230848"
     y="161.44537"
     id="text11-8"><tspan
       sodipodi:role="line"
       id="tspan11-5"
       style="font-size:11.2889px;fill:#000000;fill-opacity:1;stroke:none;stroke-width:0.79375"
       x="17.230848"
       y="161.44537">K</tspan></text><path
     style="fill:#626262;fill-opacity:1;stroke:#000000;stroke-width:2.31499;stroke-linecap:square;stroke-miterlimit:3.3;stroke-dasharray:none;stroke-dashoffset:0;stroke-opacity:1;marker-end:url(#Triangle)"
     d="m -143.2917,146.97607 0.0985,71.13752"
     id="path490" /><path
     style="fill:#626262;fill-opacity:1;stroke:#000000;stroke-width:2.38421;stroke-linecap:square;stroke-miterlimit:3.3;stroke-dasharray:none;stroke-dashoffset:0;stroke-opacity:1;marker-end:url(#Triangle-1)"
     d="m 63.735139,144.78264 0.05793,128.30981"
     id="path490-6" /><circle
     style="fill:#626262;fill-opacity:1;stroke:#000000;stroke-width:1.00000003;stroke-linecap:square;stroke-miterlimit:3.3;stroke-dasharray:none;stroke-dashoffset:0;stroke-opacity:1"
     id="path491"
     cx="31.716137"
     cy="147.35468"
     r="2.2606273" /></svg>
