<?xml version="1.0" encoding="UTF-8" standalone="no"?>
<!-- Created with Inkscape (http://www.inkscape.org/) -->

<svg
   width="210mm"
   height="297mm"
   viewBox="0 0 210 297"
   version="1.1"
   id="svg1"
   inkscape:version="1.3.2 (091e20e, 2023-11-25, custom)"
   sodipodi:docname="soffa_ramp_facit.svg"
   xml:space="preserve"
   xmlns:inkscape="http://www.inkscape.org/namespaces/inkscape"
   xmlns:sodipodi="http://sodipodi.sourceforge.net/DTD/sodipodi-0.dtd"
   xmlns="http://www.w3.org/2000/svg"
   xmlns:svg="http://www.w3.org/2000/svg"><sodipodi:namedview
     id="namedview1"
     pagecolor="#505050"
     bordercolor="#eeeeee"
     borderopacity="1"
     inkscape:showpageshadow="0"
     inkscape:pageopacity="0"
     inkscape:pagecheckerboard="0"
     inkscape:deskcolor="#505050"
     inkscape:document-units="mm"
     showborder="false"
     inkscape:zoom="0.51717104"
     inkscape:cx="601.34844"
     inkscape:cy="987.1009"
     inkscape:window-width="1920"
     inkscape:window-height="1017"
     inkscape:window-x="-8"
     inkscape:window-y="-8"
     inkscape:window-maximized="1"
     inkscape:current-layer="svg1" /><defs
     id="defs1"><marker
       style="overflow:visible"
       id="marker4"
       refX="0"
       refY="0"
       orient="auto-start-reverse"
       inkscape:stockid="Triangle arrow"
       markerWidth="1"
       markerHeight="1"
       viewBox="0 0 1 1"
       inkscape:isstock="true"
       inkscape:collect="always"
       preserveAspectRatio="xMidYMid"><path
         transform="scale(0.5)"
         style="fill:context-stroke;fill-rule:evenodd;stroke:context-stroke;stroke-width:1pt"
         d="M 5.77,0 -2.88,5 V -5 Z"
         id="path4" /></marker><marker
       style="overflow:visible"
       id="Triangle"
       refX="0"
       refY="0"
       orient="auto-start-reverse"
       inkscape:stockid="Triangle arrow"
       markerWidth="1"
       markerHeight="1"
       viewBox="0 0 1 1"
       inkscape:isstock="true"
       inkscape:collect="always"
       preserveAspectRatio="xMidYMid"><path
         transform="scale(0.5)"
         style="fill:context-stroke;fill-rule:evenodd;stroke:context-stroke;stroke-width:1pt"
         d="M 5.77,0 -2.88,5 V -5 Z"
         id="path135" /></marker><rect
       x="130.03435"
       y="222.84697"
       width="82.06889"
       height="25.062149"
       id="rect11" /><inkscape:path-effect
       effect="skeletal"
       id="path-effect10"
       is_visible="true"
       lpeversion="1"
       pattern="M 0,18.867925 C 0,8.4528305 8.4528305,0 18.867925,0 29.28302,0 37.735851,8.4528305 37.735851,18.867925 c 0,10.415095 -8.452831,18.867926 -18.867926,18.867926 C 8.4528305,37.735851 0,29.28302 0,18.867925 Z"
       copytype="single_stretched"
       prop_scale="1"
       scale_y_rel="false"
       spacing="0"
       normal_offset="0"
       tang_offset="0"
       prop_units="false"
       vertical_pattern="false"
       hide_knot="false"
       fuse_tolerance="0" /><inkscape:path-effect
       effect="skeletal"
       id="path-effect8"
       is_visible="true"
       lpeversion="1"
       pattern="M 0,18.867925 C 0,8.4528305 8.4528305,0 18.867925,0 29.28302,0 37.735851,8.4528305 37.735851,18.867925 c 0,10.415095 -8.452831,18.867926 -18.867926,18.867926 C 8.4528305,37.735851 0,29.28302 0,18.867925 Z"
       copytype="single_stretched"
       prop_scale="1"
       scale_y_rel="false"
       spacing="0"
       normal_offset="0"
       tang_offset="0"
       prop_units="false"
       vertical_pattern="false"
       hide_knot="false"
       fuse_tolerance="0" /><inkscape:path-effect
       effect="skeletal"
       id="path-effect7"
       is_visible="true"
       lpeversion="1"
       pattern="M 0,18.867925 C 0,8.4528305 8.4528305,0 18.867925,0 29.28302,0 37.735851,8.4528305 37.735851,18.867925 c 0,10.415095 -8.452831,18.867926 -18.867926,18.867926 C 8.4528305,37.735851 0,29.28302 0,18.867925 Z"
       copytype="single_stretched"
       prop_scale="1"
       scale_y_rel="false"
       spacing="0"
       normal_offset="0"
       tang_offset="0"
       prop_units="false"
       vertical_pattern="false"
       hide_knot="false"
       fuse_tolerance="0" /><inkscape:path-effect
       effect="spiro"
       id="path-effect6"
       is_visible="true"
       lpeversion="1" /><inkscape:path-effect
       effect="skeletal"
       id="path-effect8-1"
       is_visible="true"
       lpeversion="1"
       pattern="M 0,18.867925 C 0,8.4528305 8.4528305,0 18.867925,0 29.28302,0 37.735851,8.4528305 37.735851,18.867925 c 0,10.415095 -8.452831,18.867926 -18.867926,18.867926 C 8.4528305,37.735851 0,29.28302 0,18.867925 Z"
       copytype="single_stretched"
       prop_scale="1"
       scale_y_rel="false"
       spacing="0"
       normal_offset="0"
       tang_offset="0"
       prop_units="false"
       vertical_pattern="false"
       hide_knot="false"
       fuse_tolerance="0" /><inkscape:path-effect
       effect="skeletal"
       id="path-effect10-3"
       is_visible="true"
       lpeversion="1"
       pattern="M 0,18.867925 C 0,8.4528305 8.4528305,0 18.867925,0 29.28302,0 37.735851,8.4528305 37.735851,18.867925 c 0,10.415095 -8.452831,18.867926 -18.867926,18.867926 C 8.4528305,37.735851 0,29.28302 0,18.867925 Z"
       copytype="single_stretched"
       prop_scale="1"
       scale_y_rel="false"
       spacing="0"
       normal_offset="0"
       tang_offset="0"
       prop_units="false"
       vertical_pattern="false"
       hide_knot="false"
       fuse_tolerance="0" /><inkscape:path-effect
       effect="skeletal"
       id="path-effect10-8"
       is_visible="true"
       lpeversion="1"
       pattern="M 0,18.867925 C 0,8.4528305 8.4528305,0 18.867925,0 29.28302,0 37.735851,8.4528305 37.735851,18.867925 c 0,10.415095 -8.452831,18.867926 -18.867926,18.867926 C 8.4528305,37.735851 0,29.28302 0,18.867925 Z"
       copytype="single_stretched"
       prop_scale="1"
       scale_y_rel="false"
       spacing="0"
       normal_offset="0"
       tang_offset="0"
       prop_units="false"
       vertical_pattern="false"
       hide_knot="false"
       fuse_tolerance="0" /><inkscape:path-effect
       effect="skeletal"
       id="path-effect10-3-2"
       is_visible="true"
       lpeversion="1"
       pattern="M 0,18.867925 C 0,8.4528305 8.4528305,0 18.867925,0 29.28302,0 37.735851,8.4528305 37.735851,18.867925 c 0,10.415095 -8.452831,18.867926 -18.867926,18.867926 C 8.4528305,37.735851 0,29.28302 0,18.867925 Z"
       copytype="single_stretched"
       prop_scale="1"
       scale_y_rel="false"
       spacing="0"
       normal_offset="0"
       tang_offset="0"
       prop_units="false"
       vertical_pattern="false"
       hide_knot="false"
       fuse_tolerance="0" /><inkscape:path-effect
       effect="skeletal"
       id="path-effect8-6"
       is_visible="true"
       lpeversion="1"
       pattern="M 0,18.867925 C 0,8.4528305 8.4528305,0 18.867925,0 29.28302,0 37.735851,8.4528305 37.735851,18.867925 c 0,10.415095 -8.452831,18.867926 -18.867926,18.867926 C 8.4528305,37.735851 0,29.28302 0,18.867925 Z"
       copytype="single_stretched"
       prop_scale="1"
       scale_y_rel="false"
       spacing="0"
       normal_offset="0"
       tang_offset="0"
       prop_units="false"
       vertical_pattern="false"
       hide_knot="false"
       fuse_tolerance="0" /><inkscape:path-effect
       effect="skeletal"
       id="path-effect8-1-5"
       is_visible="true"
       lpeversion="1"
       pattern="M 0,18.867925 C 0,8.4528305 8.4528305,0 18.867925,0 29.28302,0 37.735851,8.4528305 37.735851,18.867925 c 0,10.415095 -8.452831,18.867926 -18.867926,18.867926 C 8.4528305,37.735851 0,29.28302 0,18.867925 Z"
       copytype="single_stretched"
       prop_scale="1"
       scale_y_rel="false"
       spacing="0"
       normal_offset="0"
       tang_offset="0"
       prop_units="false"
       vertical_pattern="false"
       hide_knot="false"
       fuse_tolerance="0" /><marker
       style="overflow:visible"
       id="Triangle-6"
       refX="0"
       refY="0"
       orient="auto-start-reverse"
       inkscape:stockid="Triangle arrow"
       markerWidth="1"
       markerHeight="1"
       viewBox="0 0 1 1"
       inkscape:isstock="true"
       inkscape:collect="always"
       preserveAspectRatio="xMidYMid"><path
         transform="scale(0.5)"
         style="fill:context-stroke;fill-rule:evenodd;stroke:context-stroke;stroke-width:1pt"
         d="M 5.77,0 -2.88,5 V -5 Z"
         id="path135-3" /></marker></defs><g
     inkscape:label="pelle"
     id="layer1-2"
     transform="matrix(0.24995716,0,0,0.26458333,-188.7292,-20.229903)"
     style="stroke-width:2.05768;stroke-dasharray:none"><path
       style="fill:#999999;fill-opacity:1;stroke:#000000;stroke-width:1.97324;stroke-dasharray:none;stroke-opacity:1"
       d="m 561.25982,596.09455 c 6.5,6.88823 -9.32397,30.20727 -33.04401,52.52035 0,0 0,0 0,0 0.42206,5.79649 0.73999,11.76209 0.92359,17.82374 0.67139,22.16625 -0.59898,41.47212 -3.60602,56.11046 -2.96053,14.41193 -7.61254,23.93629 -12.83738,23.93629 -5.25434,0 -9.84734,-9.6653 -12.83738,-26.26526 -3.00325,-16.67331 -4.2812,-39.60202 -3.60602,-65.02438 0.18364,-6.91463 0.50149,-13.61258 0.92359,-19.96821 0,0 10e-6,-10e-6 10e-6,-10e-6 31.85453,-30.13352 57.58577,-46.01893 64.08362,-39.13298 z"
       id="path10"
       transform="matrix(-0.97244576,0,0,1.1182265,1305.8054,-25.748793)"
       inkscape:original-d="M 561.25982,596.09455 512.696,641.92122 v 104.56416"
       inkscape:path-effect="#path-effect10" /><path
       style="fill:#999999;fill-opacity:1;stroke:#000000;stroke-width:1.97324;stroke-dasharray:none;stroke-opacity:1"
       d="m 537.35781,593.54557 c 8.42719,-1.17235 18.2225,21.03115 24.89101,55.40958 0,0 0,10e-6 0,10e-6 -1.84413,7.79314 -4.13529,16.13525 -6.84829,24.74887 -13.88242,44.07602 -32.64719,76.04612 -42.70453,72.78136 -10.0698,-3.26881 -6.87905,-38.84945 6.24771,-78.01959 2.65044,-7.90889 5.52741,-15.48746 8.51349,-22.5742 0,0 0,0 0,0 -2.10164,-28.17992 1.5395,-51.18288 9.90061,-52.34603 z"
       id="path10-6"
       transform="matrix(0.97244576,0,0,1.1182265,211.36199,-25.748793)"
       sodipodi:nodetypes="ccc"
       inkscape:original-d="m 537.35781,593.54557 7.4952,53.87781 -32.15701,99.062"
       inkscape:path-effect="#path-effect10-3" /><path
       style="fill:#999999;fill-opacity:1;stroke:#000000;stroke-width:3.42909;stroke-dasharray:none;stroke-opacity:1"
       d="m 563.6146,424.40274 c -0.0464,-0.0966 -0.0876,-0.19542 -0.12374,-0.2964 -0.0353,-0.0985 -0.0658,-0.19916 -0.0916,-0.30179 0,0 0,0 0,0 -0.0514,-0.20448 -0.0843,-0.41777 -0.0986,-0.63844 0,0 0,0 0,0 l 0,0 c -0.029,-0.4383 0.0134,-0.91066 0.12595,-1.4115 l 0,0 c 0.22251,-0.99014 0.71591,-2.10738 1.45957,-3.33538 l 0,0 c 1.44829,-2.39177 3.85271,-5.24414 7.02951,-8.49606 l 0,0 c 6.07573,-6.22095 14.50334,-13.4923 24.67969,-22.55336 l 0,0 c 8.53046,-7.6239 18.77498,-16.81404 27.50632,-26.63263 l 0,0 c 3.81044,-4.28942 7.46529,-8.73382 10.50243,-13.31394 1.18859,-1.81825 2.3087,-3.62768 3.3066,-5.41492 1.27021,-2.27493 2.31873,-4.47133 3.08799,-6.61486 0.87526,-1.99264 1.3359,-4.97537 1.84738,-8.48792 0.54378,-4.29191 0.6996,-8.93467 0.7511,-13.61226 0.13747,-11.11118 -0.64844,-23.27396 -1.14983,-32.89803 -2.66481,-25.62402 -1.52847,-43.13357 4.08644,-44.691 0,0 0,0 0,0 0,0 0,0 0,0 0,0 1e-5,0 1e-5,0 0,0 0,0 0,0 0,0 0,0 0,0 0,0 0,0 0,0 0,0 0,0 0,0 0,0 0,0 0,0 0.0126,-0.003 0.0271,-0.007 0.0145,-0.004 -0.0126,0.003 0.002,-5.1e-4 0.0145,-0.004 0,0 0,-1e-5 0,-1e-5 0,0 0,0 0,0 0,0 10e-6,0 10e-6,0 0,0 0,0 0,0 0,0 0,0 0,0 0,0 0,0 0,0 0,0 0,0 0,0 0,0 10e-6,0 10e-6,0 5.64336,-1.50594 14.60266,13.36986 24.26946,38.5226 3.37368,10.21492 6.62603,22.88839 8.21993,37.06973 0.63742,5.66921 0.96378,11.89539 0.63632,18.55176 -0.18834,5.27894 -1.06784,11.37927 -3.22687,18.02092 -1.51209,4.34541 -3.36165,8.46924 -5.4859,12.35761 -1.6711,3.05889 -3.48158,5.91609 -5.37861,8.57309 -4.77215,6.74572 -10.02117,12.56397 -15.30678,17.56979 l 0,0 c -12.22125,11.57759 -25.13376,20.0292 -36.38781,26.04859 l 0,0 c -13.01218,6.99629 -24.65965,11.2744 -33.29101,13.2528 l 0,0 c -4.65391,1.06795 -8.49742,1.48998 -11.37537,1.29386 l 0,0 c -1.47601,-0.10063 -2.69276,-0.35971 -3.63491,-0.78108 l 0,0 c -0.47626,-0.21302 -0.88015,-0.46466 -1.21144,-0.75857 l 0,0 c 0,0 0,0 0,0 -0.1661,-0.14774 -0.31332,-0.305 -0.44203,-0.47291 0,0 0,0 0,0 -0.0645,-0.0841 -0.12417,-0.17071 -0.17913,-0.25987 -0.0563,-0.0914 -0.10766,-0.18534 -0.15402,-0.28193 z"
       id="path7-3"
       sodipodi:nodetypes="csc"
       transform="matrix(0.55231228,-0.29635326,-0.29635326,-0.49293642,639.9163,1024.2782)"
       inkscape:original-d="m 563.61459,424.40274 c 0,0 79.28656,-37.75232 95.11554,-82.77533 10.66081,-30.32298 -12.18188,-105.92712 -12.18188,-105.92712"
       inkscape:path-effect="#path-effect8-1"
       inkscape:transform-center-x="-35.443209"
       inkscape:transform-center-y="2.6461661" /><ellipse
       style="fill:#999999;fill-opacity:1;stroke:#000000;stroke-width:2.05891;stroke-dasharray:none;stroke-opacity:1"
       id="path2"
       cx="-937.23022"
       cy="-400.33987"
       rx="66.206749"
       ry="119.83399"
       transform="matrix(-0.51525162,-0.85703895,-0.88116653,0.47280603,0,0)"
       inkscape:transform-center-x="-24.884725"
       inkscape:transform-center-y="-14.228991" /><ellipse
       style="fill:#999999;fill-opacity:1;stroke:#000000;stroke-width:2.05891;stroke-dasharray:none;stroke-opacity:1"
       id="path3"
       cx="-939.01337"
       cy="544.14056"
       transform="matrix(-0.51525162,-0.85703895,0.88116653,-0.47280603,0,0)"
       inkscape:transform-center-x="-56.787044"
       inkscape:transform-center-y="-31.813628"
       rx="59.43906"
       ry="64.775131" /><path
       style="fill:#999999;fill-opacity:1;stroke:#000000;stroke-width:3.42909;stroke-dasharray:none;stroke-opacity:1"
       d="m 609.76614,437.48777 c -0.0789,0.0331 -0.15978,0.0613 -0.24257,0.0845 -0.0806,0.0226 -0.16309,0.0405 -0.24736,0.0538 0,0 0,0 0,0 -0.16813,0.0265 -0.34326,0.0343 -0.52562,0.0237 0,0 0,0 0,0 l 0,0 c -0.36292,-0.0212 -0.75306,-0.11547 -1.1705,-0.28113 l 0,0 c -0.82544,-0.32759 -1.7532,-0.93457 -2.77636,-1.80976 l 0,0 c -1.99444,-1.70604 -4.34081,-4.42737 -6.96742,-8.08738 l 0,0 C 592.94428,420.65515 587.0228,410.489 580.80316,397.60886 l 0,0 C 575.4074,386.44153 569.5632,372.76315 564.32621,357.42691 l 0,0 c 0,0 -10e-6,-1e-5 -10e-6,-1e-5 -4.14415,-12.03992 -8.27318,-26.1263 -10.60634,-41.49395 l 0,0 c -0.67732,-5.42527 -0.56812,-10.38257 0.0474,-14.73287 l 0,0 c 0.67187,-5.21841 1.77221,-10.10484 3.1162,-14.65883 2.50457,-8.53061 5.71682,-16.62392 9.34127,-24.41274 1.00929,-2.16892 2.03945,-4.29057 3.07945,-6.3643 5.75762,-11.57296 12.07583,-22.37475 18.38545,-32.30579 l 0,0 c 7.26817,-11.45155 14.7254,-22.07895 21.93008,-31.69825 l 0,0 c 16.35361,-21.83611 32.01688,-39.38275 44.11586,-51.04466 l 0,0 c 6.6169,-6.37903 12.27825,-11.10555 16.68842,-13.98982 l 0,0 c 2.26701,-1.48261 4.19824,-2.47623 5.75873,-2.95307 l 0,0 c 0.78928,-0.24117 1.48201,-0.3503 2.07469,-0.32297 l 0,0 c 0,0 0,0 0,0 0.55236,0.2163 0.89066,0.31704 1.1066,0.37589 0,0 0,0 0,0 l 0,1e-5 c 0.17155,0.0801 0.26511,0.11215 0.31583,0.12397 0.0254,0.006 0.0399,0.007 0.0482,0.006 0.008,-0.005 0.0127,-0.001 0.0103,-0.003 -0.002,-0.002 0.002,0.002 0.005,0.004 -0.004,0.015 -1.6e-4,0.029 0.0113,0.0524 0.0228,0.0468 0.075,0.13075 0.1915,0.28 l 0,0 c 10e-6,0 10e-6,0 10e-6,0 0.10653,0.1975 0.28078,0.50195 0.61749,0.9912 0,0 0,0 0,0 l 0,0 c 0.1626,0.56812 0.21885,1.26448 0.17198,2.0827 l 0,0 c -0.0926,1.61657 -0.58554,3.71575 -1.44579,6.25421 l 0,0 c -1.672,4.93399 -4.73743,11.55643 -8.92575,19.57467 l 0,0 c -7.92828,15.17869 -19.13799,34.01124 -32.80349,57.2137 l 0,0 c -5.84455,9.92498 -12.23075,20.81099 -18.44386,31.86965 l 0,0 c -5.43058,9.67513 -10.96974,19.83211 -15.97717,30.13727 -0.90877,1.88688 -1.80512,3.76997 -2.67571,5.64248 -3.13067,6.73359 -5.81397,13.08797 -7.78927,19.33575 -1.03502,3.29405 -1.86726,6.2576 -2.31481,8.97245 l 0,0 c -0.32512,2.31654 -0.5878,4.02892 -0.46476,5.14035 l 0,0 c 1.07353,12.4134 3.70076,25.42049 6.14533,37.13639 0,0 10e-6,1e-5 10e-6,1e-5 l 0,0 c 3.1462,14.94604 6.40776,28.57493 9.06996,40.45514 l 0,0 c 3.05341,13.6179 5.32426,24.74739 6.34387,33.02554 l 0,0 c 0.54169,4.39756 0.72129,7.94436 0.48077,10.52722 l 0,0 c -0.12347,1.32606 -0.35907,2.40143 -0.71201,3.20978 l 0,0 c -0.17855,0.40896 -0.38804,0.75035 -0.6282,1.02165 l 0,0 c 0,0 -10e-6,0 -10e-6,0 -0.12074,0.13654 -0.24959,0.2555 -0.38631,0.35648 0,0 0,0 0,0 -0.0686,0.0507 -0.1392,0.0968 -0.21185,0.13842 -0.0746,0.0427 -0.15132,0.0807 -0.23024,0.11378 z"
       id="path7"
       sodipodi:nodetypes="csc"
       transform="matrix(0.6202288,-0.11072535,-0.09050051,-0.56440364,517.41375,867.64031)"
       inkscape:transform-center-x="-35.738252"
       inkscape:transform-center-y="-7.8216462"
       inkscape:original-d="m 609.76614,437.48778 c 0,0 -32.1583,-76.39894 -37.9588,-123.76963 -5.80049,-47.37069 107.931,-189.76549 107.931,-189.76549"
       inkscape:path-effect="#path-effect8" /></g><path
     style="stroke-width:4.11537;stroke-dasharray:none;fill:none;fill-opacity:1;stroke:#000000;stroke-linecap:square;stroke-miterlimit:3.3;stroke-dashoffset:0;stroke-opacity:1"
     d="M 654.1464,813.16713 H 803.92095 L 1484.135,1218.571"
     id="path12"
     sodipodi:nodetypes="ccc"
     transform="matrix(0.24995716,0,0,0.26458333,-180.79165,-20.75907)" /><g
     id="g16"
     inkscape:label="soffa"
     transform="matrix(0.13436548,-0.21077121,0.22310442,0.14222783,-234.37762,297.35264)"
     inkscape:transform-center-x="-105.58379"
     inkscape:transform-center-y="60.669155"
     style="stroke-width:2.0576829;stroke-dasharray:none"><ellipse
       style="fill:#b0b0b0;fill-opacity:1;stroke:#000000;stroke-width:1.98375;stroke-linecap:square;stroke-miterlimit:3.3;stroke-dasharray:none;stroke-dashoffset:0;stroke-opacity:1"
       id="path15"
       cx="1064.1196"
       cy="1073.8241"
       rx="113.48826"
       ry="193.68803" /><ellipse
       style="fill:#cbcbcb;fill-opacity:1;stroke:#000000;stroke-width:2.05768;stroke-linecap:square;stroke-miterlimit:3.3;stroke-dasharray:none;stroke-dashoffset:0;stroke-opacity:1"
       id="path13"
       cx="1022.1505"
       cy="913.17114"
       rx="107.82116"
       ry="47.170437" /><rect
       style="fill:#cbcbcb;fill-opacity:1;stroke:#000000;stroke-width:1.95328;stroke-linecap:square;stroke-miterlimit:3.3;stroke-dasharray:none;stroke-dashoffset:0;stroke-opacity:1"
       id="rect16"
       width="56.099316"
       height="31.049524"
       x="900.77753"
       y="1217.972"
       ry="1.8459265" /><rect
       style="fill:#cbcbcb;fill-opacity:1;stroke:#000000;stroke-width:1.95328;stroke-linecap:square;stroke-miterlimit:3.3;stroke-dasharray:none;stroke-dashoffset:0;stroke-opacity:1"
       id="rect16-0"
       width="56.099316"
       height="31.049524"
       x="896.86127"
       y="898.62665"
       ry="1.8459265" /><ellipse
       style="fill:#cbcbcb;fill-opacity:1;stroke:#000000;stroke-width:2.05768;stroke-linecap:square;stroke-miterlimit:3.3;stroke-dasharray:none;stroke-dashoffset:0;stroke-opacity:1"
       id="path13-3"
       cx="1022.1505"
       cy="1233.4778"
       rx="107.82116"
       ry="47.170437" /><ellipse
       style="fill:#dedede;fill-opacity:1;stroke:#000000;stroke-width:2.14535;stroke-linecap:square;stroke-miterlimit:3.3;stroke-dasharray:none;stroke-dashoffset:0;stroke-opacity:1"
       id="path14"
       cx="946.2384"
       cy="1073.8241"
       rx="54.926765"
       ry="194.15079" /></g><path
     style="fill:#cbcbcb;fill-opacity:1;stroke:#000000;stroke-width:1.05833;stroke-linecap:square;stroke-miterlimit:3.3;stroke-dasharray:none;stroke-dashoffset:0;stroke-opacity:1;marker-start:url(#marker4)"
     d="m 43.177563,170.91039 52.995146,34.17175"
     id="path16" /><path
     style="fill:none;stroke:#000000;stroke-width:1.058;stroke-linecap:square;stroke-miterlimit:3.3;stroke-dasharray:none;marker-end:url(#Triangle)"
     d="m 145.84528,230.57005 35.46769,-50.64457"
     id="path1"
     sodipodi:nodetypes="cc" /><path
     style="fill:none;stroke:#000000;stroke-width:1.058;stroke-linecap:square;stroke-miterlimit:3.3;stroke-dasharray:none;marker-end:url(#Triangle-6)"
     d="m 145.71738,231.09922 -0.73676,80.88591"
     id="path1-2"
     sodipodi:nodetypes="cc" /><text
     xml:space="preserve"
     style="font-size:11.2889px;font-family:'Open Sans';-inkscape-font-specification:'Open Sans';font-variant-caps:small-caps;text-align:start;text-anchor:start;fill:#000000;fill-opacity:1;stroke:none;stroke-width:1.058;stroke-linecap:square;stroke-miterlimit:3.3;stroke-dasharray:none"
     x="187.76118"
     y="180.85815"
     id="text2"><tspan
       sodipodi:role="line"
       id="tspan2"
       style="font-size:11.2889px;fill:#000000;fill-opacity:1;stroke:none;stroke-width:1.058;text-anchor:start;text-align:start"
       x="210.42719"
       y="180.85815">425.22 N</tspan></text><text
     xml:space="preserve"
     style="font-size:11.2889px;font-family:'Open Sans';-inkscape-font-specification:'Open Sans';font-variant-caps:small-caps;text-align:start;text-anchor:start;fill:#000000;fill-opacity:1;stroke:none;stroke-width:1.058;stroke-linecap:square;stroke-miterlimit:3.3;stroke-dasharray:none"
     x="57.04652"
     y="172.88385"
     id="text2-0"><tspan
       sodipodi:role="line"
       id="tspan2-8"
       style="font-size:11.2889px;text-align:start;text-anchor:start;fill:#000000;fill-opacity:1;stroke:none;stroke-width:1.058"
       x="57.04652"
       y="172.88385">245.5 N</tspan></text><text
     xml:space="preserve"
     style="font-size:11.2889px;font-family:'Open Sans';-inkscape-font-specification:'Open Sans';font-variant-caps:small-caps;text-align:start;text-anchor:start;fill:#000000;fill-opacity:1;stroke:none;stroke-width:1.058;stroke-linecap:square;stroke-miterlimit:3.3;stroke-dasharray:none"
     x="151.06801"
     y="320.82974"
     id="text1"><tspan
       sodipodi:role="line"
       id="tspan1"
       style="font-size:11.2889px;text-align:start;text-anchor:start;fill:#000000;fill-opacity:1;stroke:none;stroke-width:1.058"
       x="151.06801"
       y="320.82974">491 N</tspan></text></svg>
