<?xml version="1.0" encoding="UTF-8" standalone="no"?>
<!-- Created with Digital by H.Neemann -->
<!-- created: Sun Oct 13 17:09:06 CEST 2024 -->

<svg
   xmlns:svg="http://www.w3.org/2000/svg"
   xmlns="http://www.w3.org/2000/svg"
   width="63.9mm"
   height="26.85mm"
   viewBox="207 318 426 179">
<g stroke-linecap="square">
<path d="M 240,400 L 380,400" stroke="#0000ff" stroke-width="4.0" fill="none"/>
<path d="M 240,480 L 380,480" stroke="#0000ff" stroke-width="4.0" fill="none"/>
<path d="M 240,340 L 260,340 L 280,340" stroke="#0000ff" stroke-width="4.0" fill="none"/>
<path d="M 340,340 L 360,340 L 360,360 L 380,360" stroke="#0000ff" stroke-width="4.0" fill="none"/>
<path d="M 560,420 L 600,420" stroke="#0000ff" stroke-width="4.0" fill="none"/>
<path d="M 260,340 L 260,440 L 380,440" stroke="#0000ff" stroke-width="4.0" fill="none"/>
<path d="M 440,460 L 480,460 L 480,440 L 500,440" stroke="#0000ff" stroke-width="4.0" fill="none"/>
<path d="M 440,380 L 480,380 L 480,400 L 500,400" stroke="#0000ff" stroke-width="4.0" fill="none"/>
<g>
<circle cx="260.0" cy="340.0" r="4.0" stroke="#0000ff" stroke-width="4.0" fill="#0000ff" />
</g>
<g>
<path d="M 209,325 L 239,325 L 239,355 L 209,355 Z" stroke="#000000" stroke-width="4.0" fill="none"/>
<circle cx="224.0" cy="340.0" r="9.0" stroke="#000000" stroke-width="4.0" fill="none" />
<circle cx="240.0" cy="340.0" r="2.0" stroke="#faa500" stroke-width="4.0" fill="#faa500" />
</g>
<g>
<path d="M 209,385 L 239,385 L 239,415 L 209,415 Z" stroke="#000000" stroke-width="4.0" fill="none"/>
<circle cx="224.0" cy="400.0" r="9.0" stroke="#000000" stroke-width="4.0" fill="none" />
<circle cx="240.0" cy="400.0" r="2.0" stroke="#faa500" stroke-width="4.0" fill="#faa500" />
</g>
<g>
<path d="M 209,465 L 239,465 L 239,495 L 209,495 Z" stroke="#000000" stroke-width="4.0" fill="none"/>
<circle cx="224.0" cy="480.0" r="9.0" stroke="#000000" stroke-width="4.0" fill="none" />
<circle cx="240.0" cy="480.0" r="2.0" stroke="#faa500" stroke-width="4.0" fill="#faa500" />
</g>
<g>
<path d="M 381,350 L 439,350 L 439,410 L 381,410 Z" stroke="#000000" stroke-width="4.0" fill="none"/>
<text text-anchor="middle" x="410.0" y="372.0" fill="#000000" style="font-size:24px">\&amp;</text>
<circle cx="380.0" cy="360.0" r="2.0" stroke="#0000ff" stroke-width="4.0" fill="#0000ff" />
<circle cx="380.0" cy="400.0" r="2.0" stroke="#0000ff" stroke-width="4.0" fill="#0000ff" />
<circle cx="440.0" cy="380.0" r="2.0" stroke="#faa500" stroke-width="4.0" fill="#faa500" />
</g>
<g>
<path d="M 281,320 L 319,320 L 319,360 L 281,360 Z" stroke="#000000" stroke-width="4.0" fill="none"/>
<circle cx="330.0" cy="340.0" r="9.0" stroke="#000000" stroke-width="4.0" fill="none" />
<text text-anchor="middle" x="300.0" y="342.0" fill="#000000" style="font-size:24px">1</text>
<circle cx="280.0" cy="340.0" r="2.0" stroke="#0000ff" stroke-width="4.0" fill="#0000ff" />
<circle cx="340.0" cy="340.0" r="2.0" stroke="#faa500" stroke-width="4.0" fill="#faa500" />
</g>
<g>
<path d="M 381,430 L 439,430 L 439,490 L 381,490 Z" stroke="#000000" stroke-width="4.0" fill="none"/>
<text text-anchor="middle" x="410.0" y="452.0" fill="#000000" style="font-size:24px">\&amp;</text>
<circle cx="380.0" cy="440.0" r="2.0" stroke="#0000ff" stroke-width="4.0" fill="#0000ff" />
<circle cx="380.0" cy="480.0" r="2.0" stroke="#0000ff" stroke-width="4.0" fill="#0000ff" />
<circle cx="440.0" cy="460.0" r="2.0" stroke="#faa500" stroke-width="4.0" fill="#faa500" />
</g>
<g>
<path d="M 501,390 L 559,390 L 559,450 L 501,450 Z" stroke="#000000" stroke-width="4.0" fill="none"/>
<text text-anchor="middle" x="530.0" y="412.0" fill="#000000" style="font-size:24px">$\geq\!\!{}$1</text>
<circle cx="500.0" cy="400.0" r="2.0" stroke="#0000ff" stroke-width="4.0" fill="#0000ff" />
<circle cx="500.0" cy="440.0" r="2.0" stroke="#0000ff" stroke-width="4.0" fill="#0000ff" />
<circle cx="560.0" cy="420.0" r="2.0" stroke="#faa500" stroke-width="4.0" fill="#faa500" />
</g>
<g>
<circle cx="616.0" cy="420.0" r="9.0" stroke="#000000" stroke-width="4.0" fill="none" />
<circle cx="616.0" cy="420.0" r="15.0" stroke="#000000" stroke-width="4.0" fill="none" />
<circle cx="600.0" cy="420.0" r="2.0" stroke="#0000ff" stroke-width="4.0" fill="#0000ff" />
</g>
</g>
</svg>