<?xml version="1.0" encoding="UTF-8" standalone="no"?>
<!-- Created with Inkscape (http://www.inkscape.org/) -->

<svg
   width="249.77763mm"
   height="78.757729mm"
   viewBox="0 0 249.77763 78.757729"
   version="1.1"
   id="svg1"
   inkscape:version="1.4 (unknown)"
   sodipodi:docname="bro.svg"
   xmlns:inkscape="http://www.inkscape.org/namespaces/inkscape"
   xmlns:sodipodi="http://sodipodi.sourceforge.net/DTD/sodipodi-0.dtd"
   xmlns="http://www.w3.org/2000/svg"
   xmlns:svg="http://www.w3.org/2000/svg"
   xmlns:ns4="http://www.iki.fi/pav/software/textext/">
  <sodipodi:namedview
     id="namedview1"
     pagecolor="#505050"
     bordercolor="#eeeeee"
     borderopacity="1"
     inkscape:showpageshadow="0"
     inkscape:pageopacity="0"
     inkscape:pagecheckerboard="0"
     inkscape:deskcolor="#505050"
     inkscape:document-units="mm"
     showborder="false"
     inkscape:zoom="1.0343421"
     inkscape:cx="344.66353"
     inkscape:cy="172.09007"
     inkscape:window-width="2560"
     inkscape:window-height="1403"
     inkscape:window-x="0"
     inkscape:window-y="0"
     inkscape:window-maximized="1"
     inkscape:current-layer="layer1" />
  <defs
     id="defs1">
    <marker
       style="overflow:visible"
       id="Triangle"
       refX="0"
       refY="0"
       orient="auto-start-reverse"
       inkscape:stockid="Triangle arrow"
       markerWidth="1"
       markerHeight="1"
       viewBox="0 0 1 1"
       inkscape:isstock="true"
       inkscape:collect="always"
       preserveAspectRatio="xMidYMid">
      <path
         transform="scale(0.5)"
         style="fill:context-stroke;fill-rule:evenodd;stroke:context-stroke;stroke-width:1pt"
         d="M 5.77,0 -2.88,5 V -5 Z"
         id="path135" />
    </marker>
    <marker
       style="overflow:visible"
       id="Stop"
       refX="0"
       refY="0"
       orient="auto"
       inkscape:stockid="Stop"
       markerWidth="1"
       markerHeight="1"
       viewBox="0 0 1 1"
       inkscape:isstock="true"
       inkscape:collect="always"
       preserveAspectRatio="xMidYMid">
      <path
         style="fill:none;stroke:context-stroke;stroke-width:1"
         d="M 0,4 V -4"
         id="path23" />
    </marker>
    <marker
       style="overflow:visible"
       id="Stop-0"
       refX="0"
       refY="0"
       orient="auto"
       inkscape:stockid="Stop"
       markerWidth="1"
       markerHeight="1"
       viewBox="0 0 1 1"
       inkscape:isstock="true"
       inkscape:collect="always"
       preserveAspectRatio="xMidYMid">
      <path
         style="fill:none;stroke:context-stroke;stroke-width:1"
         d="M 0,4 V -4"
         id="path23-8" />
    </marker>
  </defs>
  <g
     inkscape:label="Layer 1"
     inkscape:groupmode="layer"
     id="layer1"
     transform="translate(-23.6112, -86.3165)">
    <rect
       style="fill:#b8b8b8;fill-opacity:1;stroke:#000000;stroke-width:0.529167;stroke-linecap:square;stroke-miterlimit:3.6"
       id="rect1"
       width="249.24847"
       height="17.002436"
       x="23.875761"
       y="112.50548"
       rx="0"
       ry="0.54263091" />
    <path
       sodipodi:type="star"
       style="fill:#b8b8b8;fill-opacity:1;stroke:#000000;stroke-width:0.529167;stroke-linecap:square;stroke-miterlimit:3.6"
       id="path2"
       inkscape:flatsided="true"
       sodipodi:sides="3"
       sodipodi:cx="95.864792"
       sodipodi:cy="168.57735"
       sodipodi:r1="22.164627"
       sodipodi:r2="11.082314"
       sodipodi:arg1="0.52359878"
       sodipodi:arg2="1.5707963"
       inkscape:rounded="0"
       inkscape:randomized="0"
       d="m 115.05992,179.65966 -38.390258,0 19.19513,-33.24694 z"
       inkscape:transform-center-x="1.0126222e-06"
       inkscape:transform-center-y="-4.0423464"
       transform="matrix(0.72951296,0,0,0.72951296,-12.305412,22.554805)" />
    <path
       sodipodi:type="star"
       style="fill:#b8b8b8;fill-opacity:1;stroke:#000000;stroke-width:0.529167;stroke-linecap:square;stroke-miterlimit:3.6"
       id="path1"
       inkscape:flatsided="true"
       sodipodi:sides="3"
       sodipodi:cx="95.864792"
       sodipodi:cy="168.57735"
       sodipodi:r1="22.164627"
       sodipodi:r2="11.082314"
       sodipodi:arg1="0.52359878"
       sodipodi:arg2="1.5707963"
       inkscape:rounded="0"
       inkscape:randomized="0"
       d="m 115.05992,179.65966 -38.390258,0 19.19513,-33.24694 z"
       inkscape:transform-center-y="-4.0423464"
       transform="matrix(0.72951296,0,0,0.72951296,119.527,23.578)" />
    <path
       style="fill:#f8f8f8;fill-opacity:1;stroke:#050505;stroke-width:1;stroke-linecap:square;stroke-miterlimit:3.6;stroke-dasharray:2.00001, 4;stroke-dashoffset:0;stroke-opacity:1;marker-start:url(#Stop);marker-end:url(#Stop)"
       d="m 148.52059,105.87112 h 39.7624"
       id="path4-2"
       sodipodi:nodetypes="cc" />
    <path
       style="fill:#f8f8f8;fill-opacity:1;stroke:#050505;stroke-width:1;stroke-linecap:square;stroke-miterlimit:3.6;stroke-dasharray:1.99999, 3.99997;stroke-dashoffset:0;stroke-opacity:1;marker-start:url(#Stop-0);marker-end:url(#Stop-0)"
       d="M 58.301179,105.87112 H 148.52059"
       id="path4-2-2"
       sodipodi:nodetypes="cc" />
    <path
       style="fill:#000000;fill-opacity:1;stroke:#000000;stroke-width:1;stroke-linecap:square;stroke-miterlimit:3.6;stroke-dasharray:none;stroke-dashoffset:0;marker-end:url(#Triangle)"
       d="m 148.5,121.00669 v 40.51645"
       id="path3" />
    <g
       transform="matrix(1.36781,0,0,1.36781,55.891804,-10.93019)"
       ns4:version="1.11.0"
       ns4:texconverter="typst"
       ns4:pdfconverter="inkscape"
       ns4:text="$2.5$ m"
       ns4:preamble="/home/sermuns/.config/inkscape/extensions/textext/default_preamble_typst.typ"
       ns4:scale="3.877242618106545"
       ns4:alignment="middle center"
       ns4:inkscapeversion="1.3.2"
       ns4:jacobian_sqrt="1.36781"
       id="g35">
      <g
         id="g32">
        <g
           transform="translate(70.8661,78.3791)"
           id="g22">
          <g
             class="typst-text"
             transform="scale(1,-1)"
             id="g21">
            <g
               id="g20">
              <path
                 d="M 2.6069999,7.3259997 C 2.046,7.3259997 1.573,7.128 1.166,6.732 0.759,6.336 0.55,5.874 0.55,5.313 0.55,4.939 0.825,4.664 1.166,4.664 1.496,4.664 1.771,4.95 1.771,5.2799997 1.771,5.643 1.507,5.896 1.155,5.896 1.122,5.896 1.1,5.896 1.078,5.885 1.287,6.424 1.771,6.897 2.464,6.897 3.366,6.897 3.872,6.116 3.872,5.17 3.872,4.433 3.498,3.641 2.75,2.805 L 0.682,0.473 C 0.539,0.308 0.55,0.319 0.55,0 H 4.631 L 4.95,1.98 H 4.587 C 4.499,1.419 4.422,1.1 4.356,1.001 4.301,0.946 3.971,0.924 3.366,0.924 H 1.529 l 1.067,1.045 c 0.7479999,0.704 1.694,1.463 2.013,2.046 0.22,0.385 0.33,0.77 0.33,1.155 0,1.298 -1.012,2.1559997 -2.3320001,2.1559997 z"
                 id="path20" />
            </g>
          </g>
        </g>
        <g
           transform="translate(76.3661,78.3791)"
           id="g25">
          <g
             class="typst-text"
             transform="scale(1,-1)"
             id="g24">
            <g
               id="g23">
              <path
                 d="M 2.112,0.583 C 2.112,0.902 1.848,1.166 1.529,1.166 1.21,1.166 0.946,0.902 0.946,0.583 0.946,0.264 1.21,0 1.529,0 1.848,0 2.112,0.264 2.112,0.583 Z"
                 id="path22" />
            </g>
          </g>
        </g>
        <g
           transform="translate(79.4241,78.3791)"
           id="g28">
          <g
             class="typst-text"
             transform="scale(1,-1)"
             id="g27">
            <g
               id="g26">
              <path
                 d="m 1.298,3.465 c 0.055,0 0.121,0.044 0.176,0.121 0.33,0.495 0.7809999,0.737 1.353,0.737 0.385,0 0.682,-0.22 0.88,-0.671 C 3.828,3.355 3.894,2.904 3.894,2.299 3.894,1.606 3.806,1.122 3.641,0.83599997 3.366,0.385 2.992,0.154 2.519,0.154 c -0.737,0 -1.32,0.528 -1.518,1.1 0.033,-0.011 0.055,0 0.099,0 0.33,0 0.605,0.253 0.605,0.583 0,0.341 -0.275,0.572 -0.605,0.572 -0.385,0 -0.55,-0.209 -0.55,-0.616 0,-1.1 0.891,-2.035 1.991,-2.035 0.671,0 1.243,0.242 1.705,0.726 C 4.708,0.968 4.939,1.551 4.939,2.222 4.939,2.86 4.752,3.41 4.378,3.883 3.971,4.4 3.465,4.653 2.849,4.653 2.332,4.653 1.881,4.488 1.518,4.158 v 1.958 c 0.2969999,-0.088 0.583,-0.132 0.88,-0.132 0.506,0 0.9459999,0.121 1.32,0.374 0.341,0.209 0.572,0.418 0.704,0.616 0.066,0.088 0.099,0.154 0.099,0.187 0,0.11 -0.055,0.1649997 -0.165,0.1649997 C 3.751,7.095 3.234,6.974 2.816,6.974 2.321,6.974 1.848,7.073 1.397,7.282 1.342,7.304 1.298,7.315 1.254,7.315 1.155,7.315 1.1,7.216 1.1,7.007 V 3.795 c 0,-0.231 0,-0.33 0.198,-0.33 z"
                 id="path25" />
            </g>
          </g>
        </g>
        <g
           transform="translate(84.9241,78.3791)"
           id="g31">
          <g
             class="typst-text"
             transform="scale(1,-1)"
             id="g30">
            <g
               transform="translate(2.75)"
               id="g29">
              <path
                 d="M 1.87,3.938 C 1.859,4.268 1.837,4.664 1.782,4.774 1.76,4.829 1.738,4.862 1.65,4.862 1.342,4.741 1.056,4.642 0.297,4.5429997 0.275,4.4769998 0.297,4.301 0.319,4.235 0.913,4.18 1.034,4.125 1.034,3.487 V 1.342 C 1.034,0.44 0.891,0.385 0.286,0.341 0.22,0.275 0.22,0.044 0.286,-0.022 0.616,-0.011 1.034,0 1.474,0 c 0.44,0 0.7809999,-0.011 1.111,-0.022 0.066,0.066 0.066,0.297 0,0.363 C 2.024,0.396 1.903,0.44 1.903,1.342 v 1.804 c 0,0.231 0.099,0.363 0.187,0.462 C 2.53,4.037 2.937,4.257 3.2779999,4.257 3.696,4.257 4.004,3.993 4.004,3.256 V 1.342 C 4.004,0.44 3.916,0.385 3.322,0.341 3.267,0.275 3.267,0.044 3.322,-0.022 3.597,-0.011 4.004,0 4.444,0 c 0.44,0 0.8029997,-0.011 1.078,-0.022 0.055,0.066 0.055,0.297 0,0.363 C 4.972,0.385 4.873,0.44 4.873,1.342 v 1.749 c 0,0.154 0,0.308 -0.011,0.44 0.528,0.583 1.0229998,0.726 1.452,0.726 0.418,0 0.66,-0.242 0.66,-0.9790001 V 1.342 C 6.974,0.44 6.864,0.385 6.292,0.341 6.237,0.275 6.237,0.044 6.292,-0.022 6.567,-0.011 6.974,0 7.414,0 c 0.44,0 0.825,-0.011 1.133,-0.022 0.055,0.066 0.055,0.297 0,0.363 C 7.942,0.385 7.843,0.44 7.843,1.342 V 3.08 C 7.843,4.059 7.678,4.829 6.71,4.829 6.149,4.829 5.467,4.62 4.895,4.015 4.862,3.9819999 4.796,3.927 4.774,4.026 4.675,4.4769998 4.246,4.829 3.674,4.829 3.036,4.829 2.464,4.455 2.002,3.938 1.947,3.883 1.881,3.806 1.87,3.938 Z"
                 id="path28" />
            </g>
          </g>
        </g>
      </g>
      <defs
         id="defs35">
        <symbol
           id="symbol32"
           overflow="visible">
          <path
             d="M 2.6069999,7.3259997 C 2.046,7.3259997 1.573,7.128 1.166,6.732 0.759,6.336 0.55,5.874 0.55,5.313 0.55,4.939 0.825,4.664 1.166,4.664 1.496,4.664 1.771,4.95 1.771,5.2799997 1.771,5.643 1.507,5.896 1.155,5.896 1.122,5.896 1.1,5.896 1.078,5.885 1.287,6.424 1.771,6.897 2.464,6.897 3.366,6.897 3.872,6.116 3.872,5.17 3.872,4.433 3.498,3.641 2.75,2.805 L 0.682,0.473 C 0.539,0.308 0.55,0.319 0.55,0 H 4.631 L 4.95,1.98 H 4.587 C 4.499,1.419 4.422,1.1 4.356,1.001 4.301,0.946 3.971,0.924 3.366,0.924 H 1.529 l 1.067,1.045 c 0.7479999,0.704 1.694,1.463 2.013,2.046 0.22,0.385 0.33,0.77 0.33,1.155 0,1.298 -1.012,2.1559997 -2.3320001,2.1559997 z"
             id="path32" />
        </symbol>
        <symbol
           id="symbol33"
           overflow="visible">
          <path
             d="M 2.112,0.583 C 2.112,0.902 1.848,1.166 1.529,1.166 1.21,1.166 0.946,0.902 0.946,0.583 0.946,0.264 1.21,0 1.529,0 1.848,0 2.112,0.264 2.112,0.583 Z"
             id="path33" />
        </symbol>
        <symbol
           id="symbol34"
           overflow="visible">
          <path
             d="m 1.298,3.465 c 0.055,0 0.121,0.044 0.176,0.121 0.33,0.495 0.7809999,0.737 1.353,0.737 0.385,0 0.682,-0.22 0.88,-0.671 C 3.828,3.355 3.894,2.904 3.894,2.299 3.894,1.606 3.806,1.122 3.641,0.83599997 3.366,0.385 2.992,0.154 2.519,0.154 c -0.737,0 -1.32,0.528 -1.518,1.1 0.033,-0.011 0.055,0 0.099,0 0.33,0 0.605,0.253 0.605,0.583 0,0.341 -0.275,0.572 -0.605,0.572 -0.385,0 -0.55,-0.209 -0.55,-0.616 0,-1.1 0.891,-2.035 1.991,-2.035 0.671,0 1.243,0.242 1.705,0.726 C 4.708,0.968 4.939,1.551 4.939,2.222 4.939,2.86 4.752,3.41 4.378,3.883 3.971,4.4 3.465,4.653 2.849,4.653 2.332,4.653 1.881,4.488 1.518,4.158 v 1.958 c 0.2969999,-0.088 0.583,-0.132 0.88,-0.132 0.506,0 0.9459999,0.121 1.32,0.374 0.341,0.209 0.572,0.418 0.704,0.616 0.066,0.088 0.099,0.154 0.099,0.187 0,0.11 -0.055,0.1649997 -0.165,0.1649997 C 3.751,7.095 3.234,6.974 2.816,6.974 2.321,6.974 1.848,7.073 1.397,7.282 1.342,7.304 1.298,7.315 1.254,7.315 1.155,7.315 1.1,7.216 1.1,7.007 V 3.795 c 0,-0.231 0,-0.33 0.198,-0.33 z"
             id="path34" />
        </symbol>
        <symbol
           id="symbol35"
           overflow="visible">
          <path
             d="M 1.87,3.938 C 1.859,4.268 1.837,4.664 1.782,4.774 1.76,4.829 1.738,4.862 1.65,4.862 1.342,4.741 1.056,4.642 0.297,4.5429997 0.275,4.4769998 0.297,4.301 0.319,4.235 0.913,4.18 1.034,4.125 1.034,3.487 V 1.342 C 1.034,0.44 0.891,0.385 0.286,0.341 0.22,0.275 0.22,0.044 0.286,-0.022 0.616,-0.011 1.034,0 1.474,0 c 0.44,0 0.7809999,-0.011 1.111,-0.022 0.066,0.066 0.066,0.297 0,0.363 C 2.024,0.396 1.903,0.44 1.903,1.342 v 1.804 c 0,0.231 0.099,0.363 0.187,0.462 C 2.53,4.037 2.937,4.257 3.2779999,4.257 3.696,4.257 4.004,3.993 4.004,3.256 V 1.342 C 4.004,0.44 3.916,0.385 3.322,0.341 3.267,0.275 3.267,0.044 3.322,-0.022 3.597,-0.011 4.004,0 4.444,0 c 0.44,0 0.8029997,-0.011 1.078,-0.022 0.055,0.066 0.055,0.297 0,0.363 C 4.972,0.385 4.873,0.44 4.873,1.342 v 1.749 c 0,0.154 0,0.308 -0.011,0.44 0.528,0.583 1.0229998,0.726 1.452,0.726 0.418,0 0.66,-0.242 0.66,-0.9790001 V 1.342 C 6.974,0.44 6.864,0.385 6.292,0.341 6.237,0.275 6.237,0.044 6.292,-0.022 6.567,-0.011 6.974,0 7.414,0 c 0.44,0 0.825,-0.011 1.133,-0.022 0.055,0.066 0.055,0.297 0,0.363 C 7.942,0.385 7.843,0.44 7.843,1.342 V 3.08 C 7.843,4.059 7.678,4.829 6.71,4.829 6.149,4.829 5.467,4.62 4.895,4.015 4.862,3.9819999 4.796,3.927 4.774,4.026 4.675,4.4769998 4.246,4.829 3.674,4.829 3.036,4.829 2.464,4.455 2.002,3.938 1.947,3.883 1.881,3.806 1.87,3.938 Z"
             id="path35" />
        </symbol>
      </defs>
    </g>
    <g
       transform="matrix(1.36781,0,0,1.36781,-6.4936407,-10.93019)"
       ns4:version="1.11.0"
       ns4:texconverter="typst"
       ns4:pdfconverter="inkscape"
       ns4:text="$6$ m"
       ns4:preamble="/home/sermuns/.config/inkscape/extensions/textext/default_preamble_typst.typ"
       ns4:scale="3.877242618106545"
       ns4:alignment="middle center"
       ns4:inkscapeversion="1.3.2"
       ns4:jacobian_sqrt="1.36781"
       id="g19">
      <g
         id="g42">
        <g
           transform="translate(70.8661,78.3791)"
           id="g38">
          <g
             class="typst-text"
             transform="scale(1,-1)"
             id="g37">
            <g
               id="g36">
              <path
                 d="m 4.213,5.544 c 0.363,0 0.539,0.187 0.539,0.561 0,0.792 -0.594,1.2209997 -1.4080001,1.2209997 C 2.431,7.3259997 1.705,6.897 1.166,6.028 0.693,5.2799997 0.462,4.433 0.462,3.476 0.462,2.079 0.715,1.1 1.232,0.517 1.6719999,0.011 2.178,-0.242 2.761,-0.242 c 0.671,0 1.2209999,0.253 1.65,0.759 C 4.818,1.001 5.027,1.584 5.027,2.2549999 5.027,2.9259999 4.829,3.498 4.433,3.971 4.015,4.4769998 3.476,4.741 2.827,4.741 2.2549999,4.741 1.8149999,4.422 1.518,3.806 v 0.066 c 0,1.243 0.308,2.299 0.968,2.7829997 C 2.772,6.864 3.069,6.963 3.366,6.963 3.762,6.963 4.048,6.853 4.235,6.6219997 3.861,6.6219997 3.674,6.413 3.674,6.083 3.674,5.775 3.905,5.544 4.213,5.544 Z M 3.784,3.74 C 3.905,3.487 3.971,2.992 3.971,2.266 3.971,1.551 3.916,1.078 3.795,0.83599997 3.575,0.385 3.234,0.154 2.761,0.154 2.442,0.154 2.2,0.264 2.024,0.484 1.881,0.65999997 1.782,0.814 1.738,0.935 1.606,1.276 1.54,1.793 1.54,2.497 c 0,0.308 0.044,0.605 0.121,0.891 0.143,0.517 0.55,1.001 1.155,1.001 0.429,0 0.759,-0.22 0.968,-0.649 z"
                 id="path36" />
            </g>
          </g>
        </g>
        <g
           transform="translate(76.3661,78.3791)"
           id="g41">
          <g
             class="typst-text"
             transform="scale(1,-1)"
             id="g40">
            <g
               transform="translate(2.75)"
               id="g39">
              <path
                 d="M 1.87,3.938 C 1.859,4.268 1.837,4.664 1.782,4.774 1.76,4.829 1.738,4.862 1.65,4.862 1.342,4.741 1.056,4.642 0.297,4.5429997 0.275,4.4769998 0.297,4.301 0.319,4.235 0.913,4.18 1.034,4.125 1.034,3.487 V 1.342 C 1.034,0.44 0.891,0.385 0.286,0.341 0.22,0.275 0.22,0.044 0.286,-0.022 0.616,-0.011 1.034,0 1.474,0 c 0.44,0 0.7809999,-0.011 1.111,-0.022 0.066,0.066 0.066,0.297 0,0.363 C 2.024,0.396 1.903,0.44 1.903,1.342 v 1.804 c 0,0.231 0.099,0.363 0.187,0.462 C 2.53,4.037 2.937,4.257 3.2779999,4.257 3.696,4.257 4.004,3.993 4.004,3.256 V 1.342 C 4.004,0.44 3.916,0.385 3.322,0.341 3.267,0.275 3.267,0.044 3.322,-0.022 3.597,-0.011 4.004,0 4.444,0 c 0.44,0 0.8029997,-0.011 1.078,-0.022 0.055,0.066 0.055,0.297 0,0.363 C 4.972,0.385 4.873,0.44 4.873,1.342 v 1.749 c 0,0.154 0,0.308 -0.011,0.44 0.528,0.583 1.0229998,0.726 1.452,0.726 0.418,0 0.66,-0.242 0.66,-0.9790001 V 1.342 C 6.974,0.44 6.864,0.385 6.292,0.341 6.237,0.275 6.237,0.044 6.292,-0.022 6.567,-0.011 6.974,0 7.414,0 c 0.44,0 0.825,-0.011 1.133,-0.022 0.055,0.066 0.055,0.297 0,0.363 C 7.942,0.385 7.843,0.44 7.843,1.342 V 3.08 C 7.843,4.059 7.678,4.829 6.71,4.829 6.149,4.829 5.467,4.62 4.895,4.015 4.862,3.9819999 4.796,3.927 4.774,4.026 4.675,4.4769998 4.246,4.829 3.674,4.829 3.036,4.829 2.464,4.455 2.002,3.938 1.947,3.883 1.881,3.806 1.87,3.938 Z"
                 id="path38" />
            </g>
          </g>
        </g>
      </g>
      <defs
         id="id-bf0a1464-b2c0-45bf-ab56-9e64e5e48e86">
        <symbol
           id="id-6adcc3ae-1a03-4b8b-9af5-619638e65134"
           overflow="visible">
          <path
             d="m 4.213,5.544 c 0.363,0 0.539,0.187 0.539,0.561 0,0.792 -0.594,1.2209997 -1.4080001,1.2209997 C 2.431,7.3259997 1.705,6.897 1.166,6.028 0.693,5.2799997 0.462,4.433 0.462,3.476 0.462,2.079 0.715,1.1 1.232,0.517 1.6719999,0.011 2.178,-0.242 2.761,-0.242 c 0.671,0 1.2209999,0.253 1.65,0.759 C 4.818,1.001 5.027,1.584 5.027,2.2549999 5.027,2.9259999 4.829,3.498 4.433,3.971 4.015,4.4769998 3.476,4.741 2.827,4.741 2.2549999,4.741 1.8149999,4.422 1.518,3.806 v 0.066 c 0,1.243 0.308,2.299 0.968,2.7829997 C 2.772,6.864 3.069,6.963 3.366,6.963 3.762,6.963 4.048,6.853 4.235,6.6219997 3.861,6.6219997 3.674,6.413 3.674,6.083 3.674,5.775 3.905,5.544 4.213,5.544 Z M 3.784,3.74 C 3.905,3.487 3.971,2.992 3.971,2.266 3.971,1.551 3.916,1.078 3.795,0.83599997 3.575,0.385 3.234,0.154 2.761,0.154 2.442,0.154 2.2,0.264 2.024,0.484 1.881,0.65999997 1.782,0.814 1.738,0.935 1.606,1.276 1.54,1.793 1.54,2.497 c 0,0.308 0.044,0.605 0.121,0.891 0.143,0.517 0.55,1.001 1.155,1.001 0.429,0 0.759,-0.22 0.968,-0.649 z"
             id="path42" />
        </symbol>
        <symbol
           id="id-b5574f1c-a285-4d58-9b19-fdc051029719"
           overflow="visible">
          <path
             d="M 1.87,3.938 C 1.859,4.268 1.837,4.664 1.782,4.774 1.76,4.829 1.738,4.862 1.65,4.862 1.342,4.741 1.056,4.642 0.297,4.5429997 0.275,4.4769998 0.297,4.301 0.319,4.235 0.913,4.18 1.034,4.125 1.034,3.487 V 1.342 C 1.034,0.44 0.891,0.385 0.286,0.341 0.22,0.275 0.22,0.044 0.286,-0.022 0.616,-0.011 1.034,0 1.474,0 c 0.44,0 0.7809999,-0.011 1.111,-0.022 0.066,0.066 0.066,0.297 0,0.363 C 2.024,0.396 1.903,0.44 1.903,1.342 v 1.804 c 0,0.231 0.099,0.363 0.187,0.462 C 2.53,4.037 2.937,4.257 3.2779999,4.257 3.696,4.257 4.004,3.993 4.004,3.256 V 1.342 C 4.004,0.44 3.916,0.385 3.322,0.341 3.267,0.275 3.267,0.044 3.322,-0.022 3.597,-0.011 4.004,0 4.444,0 c 0.44,0 0.8029997,-0.011 1.078,-0.022 0.055,0.066 0.055,0.297 0,0.363 C 4.972,0.385 4.873,0.44 4.873,1.342 v 1.749 c 0,0.154 0,0.308 -0.011,0.44 0.528,0.583 1.0229998,0.726 1.452,0.726 0.418,0 0.66,-0.242 0.66,-0.9790001 V 1.342 C 6.974,0.44 6.864,0.385 6.292,0.341 6.237,0.275 6.237,0.044 6.292,-0.022 6.567,-0.011 6.974,0 7.414,0 c 0.44,0 0.825,-0.011 1.133,-0.022 0.055,0.066 0.055,0.297 0,0.363 C 7.942,0.385 7.843,0.44 7.843,1.342 V 3.08 C 7.843,4.059 7.678,4.829 6.71,4.829 6.149,4.829 5.467,4.62 4.895,4.015 4.862,3.9819999 4.796,3.927 4.774,4.026 4.675,4.4769998 4.246,4.829 3.674,4.829 3.036,4.829 2.464,4.455 2.002,3.938 1.947,3.883 1.881,3.806 1.87,3.938 Z"
             id="path43" />
        </symbol>
      </defs>
    </g>
  </g>
</svg>
