<?xml version="1.0" encoding="UTF-8" standalone="no"?>
<!-- Created with Inkscape (http://www.inkscape.org/) -->

<svg
   width="130.17146mm"
   height="89.672096mm"
   viewBox="0 0 130.17146 89.672096"
   version="1.1"
   id="svg1"
   inkscape:version="1.4 (unknown)"
   sodipodi:docname="byggarbete_facit.svg"
   xml:space="preserve"
   xmlns:inkscape="http://www.inkscape.org/namespaces/inkscape"
   xmlns:sodipodi="http://sodipodi.sourceforge.net/DTD/sodipodi-0.dtd"
   xmlns="http://www.w3.org/2000/svg"
   xmlns:svg="http://www.w3.org/2000/svg"
   xmlns:ns6="http://www.iki.fi/pav/software/textext/"><sodipodi:namedview
     id="namedview1"
     pagecolor="#ffffff"
     bordercolor="#eeeeee"
     borderopacity="1"
     inkscape:showpageshadow="0"
     inkscape:pageopacity="0"
     inkscape:pagecheckerboard="0"
     inkscape:deskcolor="#505050"
     inkscape:document-units="mm"
     showborder="true"
     inkscape:zoom="2.0686842"
     inkscape:cx="162.66379"
     inkscape:cy="149.85371"
     inkscape:window-width="2560"
     inkscape:window-height="1403"
     inkscape:window-x="0"
     inkscape:window-y="0"
     inkscape:window-maximized="1"
     inkscape:current-layer="layer1" /><defs
     id="defs1"><marker
       style="overflow:visible"
       id="marker188"
       refX="0"
       refY="0"
       orient="auto"
       inkscape:stockid="Stop"
       markerWidth="1"
       markerHeight="1"
       viewBox="0 0 1 1"
       inkscape:isstock="true"
       inkscape:collect="always"
       preserveAspectRatio="xMidYMid"><path
         style="fill:none;stroke:context-stroke;stroke-width:1"
         d="M 0,4 V -4"
         id="path188" /></marker><marker
       style="overflow:visible"
       id="Stop"
       refX="0"
       refY="0"
       orient="auto"
       inkscape:stockid="Stop"
       markerWidth="1"
       markerHeight="1"
       viewBox="0 0 1 1"
       inkscape:isstock="true"
       inkscape:collect="always"
       preserveAspectRatio="xMidYMid"><path
         style="fill:none;stroke:context-stroke;stroke-width:1"
         d="M 0,4 V -4"
         id="path23" /></marker><marker
       style="overflow:visible"
       id="marker106"
       refX="0"
       refY="0"
       orient="auto-start-reverse"
       inkscape:stockid="Triangle arrow"
       markerWidth="1"
       markerHeight="1"
       viewBox="0 0 1 1"
       inkscape:isstock="true"
       inkscape:collect="always"
       preserveAspectRatio="xMidYMid"><path
         transform="scale(0.5)"
         style="fill:context-stroke;fill-rule:evenodd;stroke:context-stroke;stroke-width:1pt"
         d="M 5.77,0 -2.88,5 V -5 Z"
         id="path106" /></marker><marker
       style="overflow:visible"
       id="Triangle"
       refX="0"
       refY="0"
       orient="auto-start-reverse"
       inkscape:stockid="Triangle arrow"
       markerWidth="1"
       markerHeight="1"
       viewBox="0 0 1 1"
       inkscape:isstock="true"
       inkscape:collect="always"
       preserveAspectRatio="xMidYMid"><path
         transform="scale(0.5)"
         style="fill:context-stroke;fill-rule:evenodd;stroke:context-stroke;stroke-width:1pt"
         d="M 5.77,0 -2.88,5 V -5 Z"
         id="path135" /></marker><marker
       style="overflow:visible"
       id="marker5"
       refX="0"
       refY="0"
       orient="auto"
       inkscape:stockid="Diamond"
       markerWidth="1"
       markerHeight="1"
       viewBox="0 0 1 1"
       inkscape:isstock="true"
       inkscape:collect="always"
       preserveAspectRatio="xMidYMid"><path
         transform="scale(0.45)"
         style="fill:context-stroke;fill-rule:evenodd;stroke:none"
         d="M 0,-7.0710768 -7.0710894,0 0,7.0710589 7.0710462,0 Z"
         id="path5" /></marker><marker
       style="overflow:visible"
       id="Diamond"
       refX="0"
       refY="0"
       orient="auto"
       inkscape:stockid="Diamond"
       markerWidth="1"
       markerHeight="1"
       viewBox="0 0 1 1"
       inkscape:isstock="true"
       inkscape:collect="always"
       preserveAspectRatio="xMidYMid"><path
         transform="scale(0.45)"
         style="fill:context-stroke;fill-rule:evenodd;stroke:none"
         d="M 0,-7.0710768 -7.0710894,0 0,7.0710589 7.0710462,0 Z"
         id="path19" /></marker><inkscape:path-effect
       effect="skeletal"
       id="path-effect10"
       is_visible="true"
       lpeversion="1"
       pattern="M 0,18.867925 C 0,8.4528305 8.4528305,0 18.867925,0 29.28302,0 37.735851,8.4528305 37.735851,18.867925 c 0,10.415095 -8.452831,18.867926 -18.867926,18.867926 C 8.4528305,37.735851 0,29.28302 0,18.867925 Z"
       copytype="single_stretched"
       prop_scale="1"
       scale_y_rel="false"
       spacing="0"
       normal_offset="0"
       tang_offset="0"
       prop_units="false"
       vertical_pattern="false"
       hide_knot="false"
       fuse_tolerance="0" /><inkscape:path-effect
       effect="skeletal"
       id="path-effect8"
       is_visible="true"
       lpeversion="1"
       pattern="M 0,18.867925 C 0,8.4528305 8.4528305,0 18.867925,0 29.28302,0 37.735851,8.4528305 37.735851,18.867925 c 0,10.415095 -8.452831,18.867926 -18.867926,18.867926 C 8.4528305,37.735851 0,29.28302 0,18.867925 Z"
       copytype="single_stretched"
       prop_scale="1"
       scale_y_rel="false"
       spacing="0"
       normal_offset="0"
       tang_offset="0"
       prop_units="false"
       vertical_pattern="false"
       hide_knot="false"
       fuse_tolerance="0" /><inkscape:path-effect
       effect="skeletal"
       id="path-effect7"
       is_visible="true"
       lpeversion="1"
       pattern="M 0,18.867925 C 0,8.4528305 8.4528305,0 18.867925,0 29.28302,0 37.735851,8.4528305 37.735851,18.867925 c 0,10.415095 -8.452831,18.867926 -18.867926,18.867926 C 8.4528305,37.735851 0,29.28302 0,18.867925 Z"
       copytype="single_stretched"
       prop_scale="1"
       scale_y_rel="false"
       spacing="0"
       normal_offset="0"
       tang_offset="0"
       prop_units="false"
       vertical_pattern="false"
       hide_knot="false"
       fuse_tolerance="0" /><inkscape:path-effect
       effect="spiro"
       id="path-effect6"
       is_visible="true"
       lpeversion="1" /><inkscape:path-effect
       effect="skeletal"
       id="path-effect8-1"
       is_visible="true"
       lpeversion="1"
       pattern="M 0,18.867925 C 0,8.4528305 8.4528305,0 18.867925,0 29.28302,0 37.735851,8.4528305 37.735851,18.867925 c 0,10.415095 -8.452831,18.867926 -18.867926,18.867926 C 8.4528305,37.735851 0,29.28302 0,18.867925 Z"
       copytype="single_stretched"
       prop_scale="1"
       scale_y_rel="false"
       spacing="0"
       normal_offset="0"
       tang_offset="0"
       prop_units="false"
       vertical_pattern="false"
       hide_knot="false"
       fuse_tolerance="0" /><inkscape:path-effect
       effect="skeletal"
       id="path-effect10-3"
       is_visible="true"
       lpeversion="1"
       pattern="M 0,18.867925 C 0,8.4528305 8.4528305,0 18.867925,0 29.28302,0 37.735851,8.4528305 37.735851,18.867925 c 0,10.415095 -8.452831,18.867926 -18.867926,18.867926 C 8.4528305,37.735851 0,29.28302 0,18.867925 Z"
       copytype="single_stretched"
       prop_scale="1"
       scale_y_rel="false"
       spacing="0"
       normal_offset="0"
       tang_offset="0"
       prop_units="false"
       vertical_pattern="false"
       hide_knot="false"
       fuse_tolerance="0" /><inkscape:path-effect
       effect="skeletal"
       id="path-effect10-8"
       is_visible="true"
       lpeversion="1"
       pattern="M 0,18.867925 C 0,8.4528305 8.4528305,0 18.867925,0 29.28302,0 37.735851,8.4528305 37.735851,18.867925 c 0,10.415095 -8.452831,18.867926 -18.867926,18.867926 C 8.4528305,37.735851 0,29.28302 0,18.867925 Z"
       copytype="single_stretched"
       prop_scale="1"
       scale_y_rel="false"
       spacing="0"
       normal_offset="0"
       tang_offset="0"
       prop_units="false"
       vertical_pattern="false"
       hide_knot="false"
       fuse_tolerance="0" /><inkscape:path-effect
       effect="skeletal"
       id="path-effect10-3-2"
       is_visible="true"
       lpeversion="1"
       pattern="M 0,18.867925 C 0,8.4528305 8.4528305,0 18.867925,0 29.28302,0 37.735851,8.4528305 37.735851,18.867925 c 0,10.415095 -8.452831,18.867926 -18.867926,18.867926 C 8.4528305,37.735851 0,29.28302 0,18.867925 Z"
       copytype="single_stretched"
       prop_scale="1"
       scale_y_rel="false"
       spacing="0"
       normal_offset="0"
       tang_offset="0"
       prop_units="false"
       vertical_pattern="false"
       hide_knot="false"
       fuse_tolerance="0" /><inkscape:path-effect
       effect="skeletal"
       id="path-effect8-6"
       is_visible="true"
       lpeversion="1"
       pattern="M 0,18.867925 C 0,8.4528305 8.4528305,0 18.867925,0 29.28302,0 37.735851,8.4528305 37.735851,18.867925 c 0,10.415095 -8.452831,18.867926 -18.867926,18.867926 C 8.4528305,37.735851 0,29.28302 0,18.867925 Z"
       copytype="single_stretched"
       prop_scale="1"
       scale_y_rel="false"
       spacing="0"
       normal_offset="0"
       tang_offset="0"
       prop_units="false"
       vertical_pattern="false"
       hide_knot="false"
       fuse_tolerance="0" /><inkscape:path-effect
       effect="skeletal"
       id="path-effect8-1-5"
       is_visible="true"
       lpeversion="1"
       pattern="M 0,18.867925 C 0,8.4528305 8.4528305,0 18.867925,0 29.28302,0 37.735851,8.4528305 37.735851,18.867925 c 0,10.415095 -8.452831,18.867926 -18.867926,18.867926 C 8.4528305,37.735851 0,29.28302 0,18.867925 Z"
       copytype="single_stretched"
       prop_scale="1"
       scale_y_rel="false"
       spacing="0"
       normal_offset="0"
       tang_offset="0"
       prop_units="false"
       vertical_pattern="false"
       hide_knot="false"
       fuse_tolerance="0" /></defs><g
     inkscape:label="Layer 1"
     inkscape:groupmode="layer"
     id="layer1"
     transform="translate(-75.853301,53.69975)"><path
       style="fill:none;fill-opacity:1;stroke:#a2a2a2;stroke-width:0.5;stroke-dasharray:4, 2;stroke-dashoffset:0;stroke-opacity:1;marker-start:url(#Stop);marker-end:url(#marker188)"
       d="M 79.199524,13.292317 H 140.60726"
       id="path205" /><path
       style="fill:none;fill-opacity:1;stroke:#a2a2a2;stroke-width:0.5;stroke-dasharray:4, 1.99999;stroke-dashoffset:0;stroke-opacity:1;marker-start:url(#Stop);marker-end:url(#marker188)"
       d="m 79.22253,22.386212 h 67.05934"
       id="path230" /><path
       style="fill:none;fill-opacity:1;stroke:#a2a2a2;stroke-width:0.5;stroke-dasharray:4.00001, 1.99999;stroke-dashoffset:0;stroke-opacity:1;marker-start:url(#Stop);marker-end:url(#marker188)"
       d="M 79.39102,33.972344 H 191.64555"
       id="path187" /><path
       style="fill:#c0c0c0;fill-opacity:1;stroke:none;stroke-width:1.06725;stroke-linecap:square;stroke-miterlimit:3.3;stroke-dasharray:none;stroke-dashoffset:0"
       id="path6"
       sodipodi:type="arc"
       sodipodi:cx="-190.95604"
       sodipodi:cy="3.5641398e-07"
       sodipodi:rx="13.192715"
       sodipodi:ry="12.736246"
       sodipodi:start="0"
       sodipodi:end="0.44529228"
       sodipodi:arc-type="slice"
       d="M -177.76332,3.5641398e-7 A 13.192715,12.736246 0 0 1 -179.04981,5.4857776 L -190.95604,3.5641398e-7 Z"
       transform="scale(-1)" /><rect
       style="fill:#ffffff;fill-opacity:1;stroke:#000000;stroke-width:0.114507;stroke-linecap:square;stroke-miterlimit:3.6"
       id="rect1"
       width="111.29604"
       height="1.7829474"
       x="79.690628"
       y="-0.031798188"
       rx="0"
       ry="0.056902587" /><rect
       style="fill:#ffffff;fill-opacity:1;stroke:#000000;stroke-width:0.0925381;stroke-linecap:square;stroke-miterlimit:3.6"
       id="rect1-3"
       width="55.462288"
       height="1.7383926"
       x="-53.653481"
       y="-79.641586"
       rx="0"
       ry="0.055480618"
       transform="rotate(90)" /><g
       inkscape:label="pelle"
       id="layer1-2"
       transform="matrix(0.04935909,0,0,0.05125981,108.59966,-34.525608)"
       style="stroke-width:2.00793;stroke-dasharray:none"><path
         style="fill:#999999;fill-opacity:1;stroke:#000000;stroke-width:1.92554;stroke-dasharray:none;stroke-opacity:1"
         d="m 561.25982,596.09455 c 6.5,6.88823 -9.32397,30.20727 -33.04401,52.52035 0,0 0,0 0,0 0.42206,5.79649 0.73999,11.76209 0.92359,17.82374 0.67139,22.16625 -0.59898,41.47212 -3.60602,56.11046 -2.96053,14.41193 -7.61254,23.93629 -12.83738,23.93629 -5.25434,0 -9.84734,-9.6653 -12.83738,-26.26526 -3.00325,-16.67331 -4.2812,-39.60202 -3.60602,-65.02438 0.18364,-6.91463 0.50149,-13.61258 0.92359,-19.96821 0,0 10e-6,-10e-6 10e-6,-10e-6 31.85453,-30.13352 57.58577,-46.01893 64.08362,-39.13298 z"
         id="path10"
         inkscape:path-effect="#path-effect10"
         inkscape:original-d="M 561.25982,596.09455 512.696,641.92122 v 104.56416"
         transform="matrix(-0.97244576,0,0,1.1182265,1305.8054,-25.748793)" /><path
         style="fill:#999999;fill-opacity:1;stroke:#000000;stroke-width:1.92554;stroke-dasharray:none;stroke-opacity:1"
         d="m 561.25982,596.09455 c 6.5,6.88823 -9.32397,30.20727 -33.04401,52.52035 0,0 0,0 0,0 0.42206,5.79649 0.73999,11.76209 0.92359,17.82374 0.67139,22.16625 -0.59898,41.47212 -3.60602,56.11046 -2.96053,14.41193 -7.61254,23.93629 -12.83738,23.93629 -5.25434,0 -9.84734,-9.6653 -12.83738,-26.26526 -3.00325,-16.67331 -4.2812,-39.60202 -3.60602,-65.02438 0.18364,-6.91463 0.50149,-13.61258 0.92359,-19.96821 0,0 10e-6,-10e-6 10e-6,-10e-6 31.85453,-30.13352 57.58577,-46.01893 64.08362,-39.13298 z"
         id="path10-6"
         inkscape:path-effect="#path-effect10-3"
         inkscape:original-d="M 561.25982,596.09455 512.696,641.92122 v 104.56416"
         transform="matrix(0.97244576,0,0,1.1182265,211.36199,-25.748793)" /><path
         style="fill:#999999;fill-opacity:1;stroke:#000000;stroke-width:3.34618;stroke-dasharray:none;stroke-opacity:1"
         d="m 563.61459,424.40274 c -1.68447,-3.3979 7.15397,-11.72344 23.68441,-23.21992 14.45971,-10.39312 34.68066,-23.55946 57.85517,-39.42116 9.82677,-6.72441 20.43827,-14.11438 30.85506,-21.91319 8.8085,-6.60982 17.77677,-13.63181 25.92878,-21.16187 4.07379,-3.85137 7.9632,-7.60923 11.18154,-11.35129 1.80394,-2.0975 3.38753,-4.17785 4.70468,-6.28342 1.37952,-2.24738 2.432,-4.02378 2.82464,-5.41781 l 0,0 c 0.24068,-1.08495 0.50187,-1.62041 0.419,-1.41122 l 0,0 c -4.0672,-38.05036 -6.69748,-72.34314 -7.71678,-99.97411 l 0,0 c -0.69653,-18.88798 -0.63914,-34.51504 0.20645,-45.78311 l 0,0 c 0.45668,-6.08558 1.14323,-10.8991 2.0648,-14.26694 l 0,0 c 0.47421,-1.733 1.01066,-3.08323 1.61003,-4.02702 l 0,0 c 0.30348,-0.47785 0.62309,-0.85152 0.95891,-1.11792 l 10e-6,0 c 0,0 0,-1e-5 0,-1e-5 0.16891,-0.13399 0.34193,-0.24085 0.51907,-0.32019 0,0 0,0 0,0 0,0 0,0 0,0 0.27391,-0.0629 0.41176,-0.10177 0.48105,-0.12498 0.0687,-0.023 0.0697,-0.0306 0.0697,-0.031 0,0 0,0 0,0 0,0 0,0 0,0 0,0 0,0 0,0 0,-1e-5 0,-1e-5 0,-1e-5 0,0 0,0 0,1e-5 0,0 0,0 0,0 0,0 0,0 0,0 0,0 0,0 0,0 9e-5,3.6e-4 0.003,0.007 0.0752,0.0129 0.0729,0.005 0.21603,0.009 0.49701,0.003 0,0 0,0 0,0 0,0 0,0 0,0 0.19122,0.0333 0.38522,0.0943 0.58192,0.1826 0,0 0,0 0,0 l 0,0 c 0.39107,0.17557 0.79281,0.4591 1.20455,0.84761 l 0,0 c 0.81321,0.76732 1.66541,1.94411 2.55141,3.5073 l 0,0 c 1.72183,3.03786 3.57127,7.53497 5.51012,13.32208 l 0,0 c 3.58957,10.71423 7.48622,25.85218 11.44491,44.33609 l 0,0 c 5.75469,26.86806 11.71255,61.09642 16.93158,98.9046 l 0,0 c 0.67505,6.39942 0.0349,12.21926 -1.62068,17.1749 l 0,0 c -1.81977,5.65417 -4.24137,10.51154 -6.92328,14.57574 -2.39059,3.65629 -4.95123,7.06606 -7.62895,10.25901 -4.79357,5.71593 -9.8612,10.61621 -14.77881,14.87726 -9.9717,8.82209 -20.31584,16.36111 -30.21831,22.92354 -11.79788,7.83858 -23.50578,14.68149 -34.49189,20.60979 -25.63892,13.83689 -48.93947,23.663 -65.8252,29.43 -19.28948,6.25982 -31.27127,8.25776 -32.95616,4.85903 z"
         id="path7"
         inkscape:path-effect="#path-effect8"
         inkscape:original-d="m 563.61459,424.40274 c 0,0 181.74878,-85.07389 175.94828,-132.44458 C 733.76238,244.58747 719.26115,128.5776 719.26115,128.5776"
         sodipodi:nodetypes="csc"
         transform="matrix(-0.60006674,0,0,-0.60006674,1098.936,738.46756)" /><path
         style="fill:#999999;fill-opacity:1;stroke:#000000;stroke-width:3.34618;stroke-dasharray:none;stroke-opacity:1"
         d="m 563.61459,424.40274 c -1.68447,-3.3979 7.15397,-11.72344 23.68441,-23.21992 14.45971,-10.39312 34.68066,-23.55946 57.85517,-39.42116 9.82677,-6.72441 20.43827,-14.11438 30.85506,-21.91319 8.8085,-6.60982 17.77677,-13.63181 25.92878,-21.16187 4.07379,-3.85137 7.9632,-7.60923 11.18154,-11.35129 1.80394,-2.0975 3.38753,-4.17785 4.70468,-6.28342 1.37952,-2.24738 2.432,-4.02378 2.82464,-5.41781 l 0,0 c 0.24068,-1.08495 0.50187,-1.62041 0.419,-1.41122 l 0,0 c -4.0672,-38.05036 -6.69748,-72.34314 -7.71678,-99.97411 l 0,0 c -0.69653,-18.88798 -0.63914,-34.51504 0.20645,-45.78311 l 0,0 c 0.45668,-6.08558 1.14323,-10.8991 2.0648,-14.26694 l 0,0 c 0.47421,-1.733 1.01066,-3.08323 1.61003,-4.02702 l 0,0 c 0.30348,-0.47785 0.62309,-0.85152 0.95891,-1.11792 l 10e-6,0 c 0,0 0,-1e-5 0,-1e-5 0.16891,-0.13399 0.34193,-0.24085 0.51907,-0.32019 0,0 0,0 0,0 0,0 0,0 0,0 0.27391,-0.0629 0.41176,-0.10177 0.48105,-0.12498 0.0687,-0.023 0.0697,-0.0306 0.0697,-0.031 0,0 0,0 0,0 0,0 0,0 0,0 0,0 0,0 0,0 0,-1e-5 0,-1e-5 0,-1e-5 0,0 0,0 0,1e-5 0,0 0,0 0,0 0,0 0,0 0,0 0,0 0,0 0,0 9e-5,3.6e-4 0.003,0.007 0.0752,0.0129 0.0729,0.005 0.21603,0.009 0.49701,0.003 0,0 0,0 0,0 0,0 0,0 0,0 0.19122,0.0333 0.38522,0.0943 0.58192,0.1826 0,0 0,0 0,0 l 0,0 c 0.39107,0.17557 0.79281,0.4591 1.20455,0.84761 l 0,0 c 0.81321,0.76732 1.66541,1.94411 2.55141,3.5073 l 0,0 c 1.72183,3.03786 3.57127,7.53497 5.51012,13.32208 l 0,0 c 3.58957,10.71423 7.48622,25.85218 11.44491,44.33609 l 0,0 c 5.75469,26.86806 11.71255,61.09642 16.93158,98.9046 l 0,0 c 0.67505,6.39942 0.0349,12.21926 -1.62068,17.1749 l 0,0 c -1.81977,5.65417 -4.24137,10.51154 -6.92328,14.57574 -2.39059,3.65629 -4.95123,7.06606 -7.62895,10.25901 -4.79357,5.71593 -9.8612,10.61621 -14.77881,14.87726 -9.9717,8.82209 -20.31584,16.36111 -30.21831,22.92354 -11.79788,7.83858 -23.50578,14.68149 -34.49189,20.60979 -25.63892,13.83689 -48.93947,23.663 -65.8252,29.43 -19.28948,6.25982 -31.27127,8.25776 -32.95616,4.85903 z"
         id="path7-3"
         inkscape:path-effect="#path-effect8-1"
         inkscape:original-d="m 563.61459,424.40274 c 0,0 181.74878,-85.07389 175.94828,-132.44458 C 733.76238,244.58747 719.26115,128.5776 719.26115,128.5776"
         sodipodi:nodetypes="csc"
         transform="matrix(0.60006674,0,0,-0.60006674,420.11385,738.44499)" /><ellipse
         style="fill:#999999;fill-opacity:1;stroke:#000000;stroke-width:2.00793;stroke-dasharray:none;stroke-opacity:1"
         id="path2"
         cx="-759.52496"
         cy="567.03754"
         rx="69.073502"
         ry="114.72363"
         transform="scale(-1,1)" /><circle
         style="fill:#999999;fill-opacity:1;stroke:#000000;stroke-width:2.00793;stroke-dasharray:none;stroke-opacity:1"
         id="path3-3"
         cx="-761.38531"
         cy="-429.36923"
         r="62.012772"
         transform="scale(-1)" /></g><path
       style="fill:#ffffff;fill-opacity:1;stroke:#000000;stroke-width:0.372818;stroke-linecap:square;stroke-miterlimit:3.3;stroke-dasharray:none;stroke-dashoffset:0;marker-start:url(#Diamond);marker-end:url(#marker5)"
       d="M 190.95604,0 79.634442,-52.179592"
       id="path4" /><circle
       style="fill:#6a6a6a;fill-opacity:1;stroke:#000000;stroke-width:0.1;stroke-linecap:round;stroke-linejoin:round;stroke-dasharray:none"
       id="path1"
       cx="78.653137"
       cy="1.0731393"
       r="2.7498357" /><path
       style="fill:none;fill-opacity:1;stroke:#007f0e;stroke-width:0.5;stroke-dasharray:none;stroke-opacity:1;marker-end:url(#Triangle)"
       d="M 146.18752,0.84842568 V 20.273112"
       id="path103" /><path
       style="fill:none;fill-opacity:1;stroke:#4e007f;stroke-width:0.5;stroke-dasharray:none;stroke-opacity:1;marker-end:url(#Triangle)"
       d="M 191.0624,0.07618816 172.55803,-8.7255243"
       id="path8"
       sodipodi:nodetypes="cc" /><path
       style="fill:none;fill-opacity:1;stroke:#007f0e;stroke-width:0.5;stroke-dasharray:none;stroke-opacity:1;marker-end:url(#Triangle)"
       d="M 140.7612,0.84842564 V 11.791481"
       id="path3" /><g
       transform="matrix(0.64969,0,0,0.64969,78.508016,-41.814506)"
       ns6:version="1.11.0"
       ns6:texconverter="typst"
       ns6:pdfconverter="inkscape"
       ns6:text="$F_&quot;balk&quot;$"
       ns6:preamble="/home/sermuns/.config/inkscape/extensions/textext/default_preamble_typst.typ"
       ns6:scale="1.8416408872750551"
       ns6:alignment="middle center"
       ns6:inkscapeversion="1.4"
       ns6:jacobian_sqrt="0.64969"
       style="stroke-width:0"
       id="g46"><g
   style="stroke-width:0"
   id="g84">
        <g
   transform="translate(70.8661,78.3791)"
   style="stroke-width:0"
   id="g77">
            <g
   class="typst-text"
   transform="scale(1,-1)"
   style="stroke-width:0"
   id="g76">
                <g
   style="stroke-width:0"
   id="g75"><path
   d="m 2.189,7.216 c 0,-0.11 0.121,-0.165 0.352,-0.165 0.44,0 0.66,-0.044 0.66,-0.143 0,-0.033 -0.022,-0.11 -0.055,-0.2530003 L 1.716,0.902 C 1.65,0.65999997 1.54,0.517 1.386,0.462 1.309,0.44 1.111,0.429 0.77,0.429 0.528,0.429 0.41799998,0.407 0.41799998,0.176 0.41799998,0.055 0.484,0 0.627,0 L 2.057,0.033 3.685,0 C 3.861,0 3.949,0.088 3.949,0.253 3.949,0.44 3.828,0.429 3.542,0.429 3.058,0.429 2.783,0.451 2.717,0.506 2.684,0.517 2.673,0.561 2.673,0.616 L 3.377,3.531 H 4.4 c 0.506,0 0.858,-0.022 0.858,-0.44 C 5.258,2.948 5.236,2.772 5.181,2.563 5.17,2.53 5.159,2.486 5.148,2.442 5.148,2.321 5.203,2.266 5.324,2.266 5.379,2.277 5.456,2.354 5.533,2.519 L 6.127,4.884 C 6.149,4.972 6.16,5.038 6.16,5.071 6.127,5.17 6.061,5.225 5.984,5.225 5.896,5.225 5.83,5.137 5.786,4.972 5.676,4.554 5.522,4.29 5.346,4.158 5.17,4.026 4.862,3.96 4.422,3.96 H 3.487 l 0.682,2.706 c 0.088,0.374 0.088,0.385 0.55,0.385 h 1.43 C 7.216,7.051 7.7,6.886 7.7,5.907 7.7,5.687 7.689,5.489 7.667,5.324 7.656,5.203 7.645,5.137 7.645,5.126 7.645,5.005 7.7,4.95 7.81,4.95 c 0.11,0 0.176,0.099 0.198,0.308 l 0.22,1.881 C 8.261,7.447 8.184,7.48 7.887,7.48 H 2.563 C 2.31,7.48 2.189,7.469 2.189,7.216 Z"
   style="stroke-width:0"
   id="path75" />
        </g></g>
        </g>
        <g
   transform="translate(77.9391,81.0961)"
   style="stroke-width:0"
   id="g83">
            <g
   class="typst-text"
   transform="scale(1,-1)"
   style="stroke-width:0"
   id="g82">
                <g
   style="stroke-width:0"
   id="g78"><path
   d="m 2.2946,-0.0847 c 0.4774,0 0.8855,0.1694 1.2166,0.5159 0.3311,0.3465 0.5005,0.7546 0.5005,1.2397 0,0.4697 -0.1540001,0.8855 -0.4697,1.232 C 3.2263,3.2494 2.8413,3.4265 2.3716,3.4265 1.9943,3.4265 1.6554999,3.2802 1.3706,2.9799 V 5.3438 L 0.2156,5.2591 V 4.9665 c 0.2772,0 0.4466,-0.0231 0.5082,-0.0693 C 0.7854,4.851 0.8085,4.7432 0.8085,4.5661 V 0 H 1.0472 L 1.3013,0.4466 C 1.5477,0.0924 1.8788,-0.0847 2.2946,-0.0847 Z m -0.0308,0.231 c -0.3157,0 -0.5775,0.1463 -0.77,0.4466 C 1.4245,0.693 1.3937,0.80079997 1.3937,0.9009 V 2.464 c 0,0.1001 0.0231,0.1848 0.077,0.2618 0.2233,0.3157 0.5082,0.4697 0.8701,0.4697 0.3157,0 0.5698,-0.154 0.77,-0.4697 C 3.2494,2.4948 3.3187,2.1483 3.3187,1.6786 3.3187,0.847 3.0261,0.1463 2.2638,0.1463 Z"
   style="stroke-width:0"
   id="path77" />
        </g><g
   transform="translate(4.2812)"
   style="stroke-width:0"
   id="g79"><path
   d="M 3.7191,0.7007 V 1.155 H 3.4726999 V 0.7007 c 0,-0.30030002 -0.0847,-0.4543 -0.2463999,-0.4543 -0.154,0 -0.2464,0.1925 -0.2464,0.3465 v 1.5169 c 0,0.2694999 -0.0308,0.4697 -0.0847,0.6083 C 2.7104,3.1724 2.1791,3.4496 1.6401,3.4496 1.0472,3.4496 0.462,3.1185 0.462,2.5641 c 0,-0.2541 0.1309,-0.385 0.385,-0.385 0.2541,0 0.3773,0.1232 0.3773,0.3773 0,0.2233 -0.1155001,0.3542 -0.3542,0.3773 0.1694,0.1925 0.4235,0.2926 0.7546,0.2926 0.4774,0 0.77,-0.4389 0.77,-0.9394 V 2.0328 C 1.7941,1.9943 1.3398,1.9018999 1.0241,1.7556 0.5082,1.5169 0.2464,1.1858 0.2464,0.7469 c 0,-0.2002 0.077,-0.3696 0.2233,-0.5005 0.2464,-0.2233 0.5852,-0.3311 1.0164,-0.3311 0.4543,0 0.7777,0.1925 0.9779,0.5852 0.0539,-0.2926 0.2695,-0.5467 0.6006,-0.5467 0.4080999,0 0.6545,0.32339998 0.6545,0.7469 z M 1.54,0.13859999 c -0.3542,0 -0.6468,0.26179999 -0.6468,0.61600001 0,0.7161 0.7469,1.0241 1.5015,1.0626 V 1.0857 C 2.3947,0.5698 2.0559,0.13859999 1.54,0.13859999 Z"
   style="stroke-width:0"
   id="path78" />
        </g><g
   transform="translate(8.1312)"
   style="stroke-width:0"
   id="g80"><path
   d="M 1.1087999,0.0231 1.9635,0 V 0.3003 C 1.6863,0.3003 1.5169,0.308 1.4629999,0.3388 1.4090999,0.3696 1.386,0.462 1.386,0.6083 V 5.3438 L 0.2541,5.2591 V 4.9665 C 0.5236,4.9665 0.693,4.9434 0.7469,4.8972 0.8008,4.851 0.8316,4.7432 0.8316,4.5661 V 0.6083 C 0.8316,0.462 0.8085,0.3696 0.7546,0.3388 0.7007,0.308 0.5313,0.3003 0.2541,0.3003 V 0 Z"
   style="stroke-width:0"
   id="path79" />
        </g><g
   transform="translate(10.2718)"
   style="stroke-width:0"
   id="g81"><path
   d="m 3.2494,0.0231 c 0.154,0.0077 0.385,0 0.6853,-0.0231 V 0.3003 C 3.7498999,0.3003 3.6113,0.3234 3.5189,0.3619 3.4265,0.4004 3.3187,0.5082 3.1955,0.6853 L 2.233,2.0482 C 2.2099,2.1175 2.1945,2.1406 2.1945,2.1175 c 0,0.0077 0.077,0.077 0.2387,0.2156 0.2695,0.2387 0.4697,0.3927 0.6006,0.4774 0.2387,0.1463 0.4774,0.2233 0.7238,0.2387 V 3.3418 C 3.5959,3.3264 3.4111,3.3187 3.2031999,3.3187 2.849,3.3187 2.5564,3.3264 2.3177,3.3418 V 3.0492 C 2.464,3.0415 2.541,2.9876 2.541,2.8875 2.541,2.7951 2.4871,2.7027 2.387,2.6103 L 1.3706,1.7248 v 3.619 L 0.2156,5.2591 V 4.9665 c 0.2772,0 0.4466,-0.0231 0.5082,-0.0693 C 0.7854,4.851 0.8085,4.7432 0.8085,4.5661 V 0.6083 C 0.8085,0.462 0.7777,0.3696 0.7238,0.3388 0.6699,0.308 0.5005,0.3003 0.2156,0.3003 V 0 L 1.0703,0.0231 1.9327,0 V 0.3003 C 1.6478,0.3003 1.4861,0.308 1.4322,0.3388 1.3783,0.3696 1.3475,0.462 1.3475,0.6083 v 0.77 L 1.7941,1.771 1.9173,1.5862 C 2.4178,0.8932 2.6719,0.5082 2.6719,0.4389 2.6719,0.3465 2.5795,0.3003 2.3947,0.3003 V 0 Z"
   style="stroke-width:0"
   id="path80" />
        </g></g>
        </g>
    </g>
    <defs
   id="id-8f88ee7b-c077-45f4-93d0-b0a07b45781a"
   style="stroke-width:0">
        <symbol
   id="id-1e79db56-84dc-4adb-a26c-732d9da7a13b"
   overflow="visible"
   style="stroke-width:0">
            <path
   d="m 2.189,7.216 c 0,-0.11 0.121,-0.165 0.352,-0.165 0.44,0 0.66,-0.044 0.66,-0.143 0,-0.033 -0.022,-0.11 -0.055,-0.2530003 L 1.716,0.902 C 1.65,0.65999997 1.54,0.517 1.386,0.462 1.309,0.44 1.111,0.429 0.77,0.429 0.528,0.429 0.41799998,0.407 0.41799998,0.176 0.41799998,0.055 0.484,0 0.627,0 L 2.057,0.033 3.685,0 C 3.861,0 3.949,0.088 3.949,0.253 3.949,0.44 3.828,0.429 3.542,0.429 3.058,0.429 2.783,0.451 2.717,0.506 2.684,0.517 2.673,0.561 2.673,0.616 L 3.377,3.531 H 4.4 c 0.506,0 0.858,-0.022 0.858,-0.44 C 5.258,2.948 5.236,2.772 5.181,2.563 5.17,2.53 5.159,2.486 5.148,2.442 5.148,2.321 5.203,2.266 5.324,2.266 5.379,2.277 5.456,2.354 5.533,2.519 L 6.127,4.884 C 6.149,4.972 6.16,5.038 6.16,5.071 6.127,5.17 6.061,5.225 5.984,5.225 5.896,5.225 5.83,5.137 5.786,4.972 5.676,4.554 5.522,4.29 5.346,4.158 5.17,4.026 4.862,3.96 4.422,3.96 H 3.487 l 0.682,2.706 c 0.088,0.374 0.088,0.385 0.55,0.385 h 1.43 C 7.216,7.051 7.7,6.886 7.7,5.907 7.7,5.687 7.689,5.489 7.667,5.324 7.656,5.203 7.645,5.137 7.645,5.126 7.645,5.005 7.7,4.95 7.81,4.95 c 0.11,0 0.176,0.099 0.198,0.308 l 0.22,1.881 C 8.261,7.447 8.184,7.48 7.887,7.48 H 2.563 C 2.31,7.48 2.189,7.469 2.189,7.216 Z"
   style="stroke-width:0"
   id="path84" />
        </symbol>
        <symbol
   id="id-adebc29e-4d97-40d8-b929-71e5f9bf56f6"
   overflow="visible"
   style="stroke-width:0">
            <path
   d="m 2.2946,-0.0847 c 0.4774,0 0.8855,0.1694 1.2166,0.5159 0.3311,0.3465 0.5005,0.7546 0.5005,1.2397 0,0.4697 -0.1540001,0.8855 -0.4697,1.232 C 3.2263,3.2494 2.8413,3.4265 2.3716,3.4265 1.9943,3.4265 1.6554999,3.2802 1.3706,2.9799 V 5.3438 L 0.2156,5.2591 V 4.9665 c 0.2772,0 0.4466,-0.0231 0.5082,-0.0693 C 0.7854,4.851 0.8085,4.7432 0.8085,4.5661 V 0 H 1.0472 L 1.3013,0.4466 C 1.5477,0.0924 1.8788,-0.0847 2.2946,-0.0847 Z m -0.0308,0.231 c -0.3157,0 -0.5775,0.1463 -0.77,0.4466 C 1.4245,0.693 1.3937,0.80079997 1.3937,0.9009 V 2.464 c 0,0.1001 0.0231,0.1848 0.077,0.2618 0.2233,0.3157 0.5082,0.4697 0.8701,0.4697 0.3157,0 0.5698,-0.154 0.77,-0.4697 C 3.2494,2.4948 3.3187,2.1483 3.3187,1.6786 3.3187,0.847 3.0261,0.1463 2.2638,0.1463 Z"
   style="stroke-width:0"
   id="path85" />
        </symbol>
        <symbol
   id="id-a221d3bf-8685-47ba-9b92-4c0baafbd3ec"
   overflow="visible"
   style="stroke-width:0">
            <path
   d="M 3.7191,0.7007 V 1.155 H 3.4726999 V 0.7007 c 0,-0.30030002 -0.0847,-0.4543 -0.2463999,-0.4543 -0.154,0 -0.2464,0.1925 -0.2464,0.3465 v 1.5169 c 0,0.2694999 -0.0308,0.4697 -0.0847,0.6083 C 2.7104,3.1724 2.1791,3.4496 1.6401,3.4496 1.0472,3.4496 0.462,3.1185 0.462,2.5641 c 0,-0.2541 0.1309,-0.385 0.385,-0.385 0.2541,0 0.3773,0.1232 0.3773,0.3773 0,0.2233 -0.1155001,0.3542 -0.3542,0.3773 0.1694,0.1925 0.4235,0.2926 0.7546,0.2926 0.4774,0 0.77,-0.4389 0.77,-0.9394 V 2.0328 C 1.7941,1.9943 1.3398,1.9018999 1.0241,1.7556 0.5082,1.5169 0.2464,1.1858 0.2464,0.7469 c 0,-0.2002 0.077,-0.3696 0.2233,-0.5005 0.2464,-0.2233 0.5852,-0.3311 1.0164,-0.3311 0.4543,0 0.7777,0.1925 0.9779,0.5852 0.0539,-0.2926 0.2695,-0.5467 0.6006,-0.5467 0.4080999,0 0.6545,0.32339998 0.6545,0.7469 z M 1.54,0.13859999 c -0.3542,0 -0.6468,0.26179999 -0.6468,0.61600001 0,0.7161 0.7469,1.0241 1.5015,1.0626 V 1.0857 C 2.3947,0.5698 2.0559,0.13859999 1.54,0.13859999 Z"
   style="stroke-width:0"
   id="path86" />
        </symbol>
        <symbol
   id="id-789570ca-f55b-42dc-8be2-897c1e1fec1c"
   overflow="visible"
   style="stroke-width:0">
            <path
   d="M 1.1087999,0.0231 1.9635,0 V 0.3003 C 1.6863,0.3003 1.5169,0.308 1.4629999,0.3388 1.4090999,0.3696 1.386,0.462 1.386,0.6083 V 5.3438 L 0.2541,5.2591 V 4.9665 C 0.5236,4.9665 0.693,4.9434 0.7469,4.8972 0.8008,4.851 0.8316,4.7432 0.8316,4.5661 V 0.6083 C 0.8316,0.462 0.8085,0.3696 0.7546,0.3388 0.7007,0.308 0.5313,0.3003 0.2541,0.3003 V 0 Z"
   style="stroke-width:0"
   id="path87" />
        </symbol>
        <symbol
   id="id-8ca7c6aa-8646-4768-9265-62dfce443945"
   overflow="visible"
   style="stroke-width:0">
            <path
   d="m 3.2494,0.0231 c 0.154,0.0077 0.385,0 0.6853,-0.0231 V 0.3003 C 3.7498999,0.3003 3.6113,0.3234 3.5189,0.3619 3.4265,0.4004 3.3187,0.5082 3.1955,0.6853 L 2.233,2.0482 C 2.2099,2.1175 2.1945,2.1406 2.1945,2.1175 c 0,0.0077 0.077,0.077 0.2387,0.2156 0.2695,0.2387 0.4697,0.3927 0.6006,0.4774 0.2387,0.1463 0.4774,0.2233 0.7238,0.2387 V 3.3418 C 3.5959,3.3264 3.4111,3.3187 3.2031999,3.3187 2.849,3.3187 2.5564,3.3264 2.3177,3.3418 V 3.0492 C 2.464,3.0415 2.541,2.9876 2.541,2.8875 2.541,2.7951 2.4871,2.7027 2.387,2.6103 L 1.3706,1.7248 v 3.619 L 0.2156,5.2591 V 4.9665 c 0.2772,0 0.4466,-0.0231 0.5082,-0.0693 C 0.7854,4.851 0.8085,4.7432 0.8085,4.5661 V 0.6083 C 0.8085,0.462 0.7777,0.3696 0.7238,0.3388 0.6699,0.308 0.5005,0.3003 0.2156,0.3003 V 0 L 1.0703,0.0231 1.9327,0 V 0.3003 C 1.6478,0.3003 1.4861,0.308 1.4322,0.3388 1.3783,0.3696 1.3475,0.462 1.3475,0.6083 v 0.77 L 1.7941,1.771 1.9173,1.5862 C 2.4178,0.8932 2.6719,0.5082 2.6719,0.4389 2.6719,0.3465 2.5795,0.3003 2.3947,0.3003 V 0 Z"
   style="stroke-width:0"
   id="path88" />
        </symbol>
    </defs>
</g><g
       transform="matrix(0.64969,0,0,0.64969,102.19774,-30.46225)"
       ns6:version="1.11.0"
       ns6:texconverter="typst"
       ns6:pdfconverter="inkscape"
       ns6:text="$F_&quot;pelle&quot;$"
       ns6:preamble="/home/sermuns/.config/inkscape/extensions/textext/default_preamble_typst.typ"
       ns6:scale="1.8416408872750551"
       ns6:alignment="middle center"
       ns6:inkscapeversion="1.4"
       ns6:jacobian_sqrt="0.64969"
       style="stroke-width:0"
       id="g56"><g
   style="stroke-width:0"
   id="g99">
        <g
   transform="translate(70.8661,78.3791)"
   style="stroke-width:0"
   id="g91">
            <g
   class="typst-text"
   transform="scale(1,-1)"
   style="stroke-width:0"
   id="g90">
                <g
   style="stroke-width:0"
   id="g89"><path
   d="m 2.189,7.216 c 0,-0.11 0.121,-0.165 0.352,-0.165 0.44,0 0.66,-0.044 0.66,-0.143 0,-0.033 -0.022,-0.11 -0.055,-0.2530003 L 1.716,0.902 C 1.65,0.65999997 1.54,0.517 1.386,0.462 1.309,0.44 1.111,0.429 0.77,0.429 0.528,0.429 0.41799998,0.407 0.41799998,0.176 0.41799998,0.055 0.484,0 0.627,0 L 2.057,0.033 3.685,0 C 3.861,0 3.949,0.088 3.949,0.253 3.949,0.44 3.828,0.429 3.542,0.429 3.058,0.429 2.783,0.451 2.717,0.506 2.684,0.517 2.673,0.561 2.673,0.616 L 3.377,3.531 H 4.4 c 0.506,0 0.858,-0.022 0.858,-0.44 C 5.258,2.948 5.236,2.772 5.181,2.563 5.17,2.53 5.159,2.486 5.148,2.442 5.148,2.321 5.203,2.266 5.324,2.266 5.379,2.277 5.456,2.354 5.533,2.519 L 6.127,4.884 C 6.149,4.972 6.16,5.038 6.16,5.071 6.127,5.17 6.061,5.225 5.984,5.225 5.896,5.225 5.83,5.137 5.786,4.972 5.676,4.554 5.522,4.29 5.346,4.158 5.17,4.026 4.862,3.96 4.422,3.96 H 3.487 l 0.682,2.706 c 0.088,0.374 0.088,0.385 0.55,0.385 h 1.43 C 7.216,7.051 7.7,6.886 7.7,5.907 7.7,5.687 7.689,5.489 7.667,5.324 7.656,5.203 7.645,5.137 7.645,5.126 7.645,5.005 7.7,4.95 7.81,4.95 c 0.11,0 0.176,0.099 0.198,0.308 l 0.22,1.881 C 8.261,7.447 8.184,7.48 7.887,7.48 H 2.563 C 2.31,7.48 2.189,7.469 2.189,7.216 Z"
   style="stroke-width:0"
   id="path89" />
        </g></g>
        </g>
        <g
   transform="translate(77.9391,81.0961)"
   style="stroke-width:0"
   id="g98">
            <g
   class="typst-text"
   transform="scale(1,-1)"
   style="stroke-width:0"
   id="g97">
                <g
   style="stroke-width:0"
   id="g92"><path
   d="m 2.2946,-0.1001 c 0.4774,0 0.8855,0.1694 1.2166,0.5159 C 3.8423,0.7623 4.0117,1.1704 4.0117,1.6554999 4.0117,2.1252 3.8576999,2.5256 3.5574,2.8644 3.2417,3.2263 2.8567,3.4034 2.3947,3.4034 2.002,3.4034 1.6632,3.2494 1.3706,2.9491 V 3.4034 L 0.2156,3.3187 V 3.0261 c 0.2849,0 0.4543,-0.0154 0.5082,-0.0539 C 0.7777,2.9337 0.8085,2.8336 0.8085,2.6719 V -0.8855 C 0.8085,-1.0318 0.7777,-1.1242 0.7238,-1.155 0.6699,-1.1858 0.5005,-1.1935 0.2156,-1.1935 v -0.3003 l 0.8778,0.0231 0.8855,-0.0231 v 0.3003 c -0.2849,0 -0.4466,0.0077 -0.5005,0.0385 -0.0539,0.0308 -0.0847,0.1232 -0.0847,0.2695 V 0.3388 C 1.5631,0.1001 1.8942,-0.1001 2.2946,-0.1001 Z M 2.3408,3.1493 C 2.6565,3.1493 2.9029,2.9722 3.0954,2.618 3.2417,2.3177 3.3187,2.002 3.3187,1.6554999 3.3187,1.2936 3.234,0.9625 3.0646,0.6622 2.8644,0.3003 2.5949,0.1232 2.2638,0.1232 1.9404,0.1232 1.6863,0.27719998 1.4938,0.5775 1.4245,0.6776 1.3937,0.7777 1.3937,0.8778 v 1.6863 c 0.2233,0.3927 0.539,0.5852 0.9471,0.5852 z"
   style="stroke-width:0"
   id="path91" />
        </g><g
   transform="translate(4.2812)"
   style="stroke-width:0"
   id="g93"><path
   d="m 3.1955,1.9327 c 0,0.8854999 -0.5159,1.5169 -1.3783,1.5169 -0.462,0 -0.847,-0.1771 -1.1627,-0.539 C 0.3619,2.5718 0.2156,2.1637 0.2156,1.694 0.2156,1.2089 0.3773,0.80079997 0.7007,0.4466 1.0241,0.0924 1.4245,-0.0847 1.9018999,-0.0847 2.3408,-0.0847 2.6796,0.0693 2.9106,0.3696 3.1031,0.6237 3.1955,0.8085 3.1955,0.9317 3.1955,1.0087 3.1493,1.0472 3.0646,1.0472 3.003,1.0472 2.9645,1.0087 2.9414,0.924 2.772,0.4158 2.4409,0.1617 1.9481,0.1617 1.6015999,0.1617 1.3321,0.3234 1.1242,0.6545 0.97789997,0.8932 0.9086,1.2551 0.9009,1.7479 h 2.079 c 0.1694,0 0.2156,0.0154 0.2156,0.1848 z M 2.5102,2.6873 C 2.5949,2.4332 2.6334,2.1868 2.6334,1.9635 H 0.9086 c 0.0231,0.5082 0.154,0.8546999 0.385,1.0318 0.1925,0.154 0.3618999,0.231 0.5236,0.231 0.3465,0 0.5775,-0.1771 0.693,-0.539 z"
   style="stroke-width:0"
   id="path92" />
        </g><g
   transform="translate(7.7)"
   style="stroke-width:0"
   id="g94"><path
   d="M 1.1087999,0.0231 1.9635,0 V 0.3003 C 1.6863,0.3003 1.5169,0.308 1.4629999,0.3388 1.4090999,0.3696 1.386,0.462 1.386,0.6083 V 5.3438 L 0.2541,5.2591 V 4.9665 C 0.5236,4.9665 0.693,4.9434 0.7469,4.8972 0.8008,4.851 0.8316,4.7432 0.8316,4.5661 V 0.6083 C 0.8316,0.462 0.8085,0.3696 0.7546,0.3388 0.7007,0.308 0.5313,0.3003 0.2541,0.3003 V 0 Z"
   style="stroke-width:0"
   id="path93" />
        </g><g
   transform="translate(9.8406)"
   style="stroke-width:0"
   id="g95"><path
   d="M 1.1087999,0.0231 1.9635,0 V 0.3003 C 1.6863,0.3003 1.5169,0.308 1.4629999,0.3388 1.4090999,0.3696 1.386,0.462 1.386,0.6083 V 5.3438 L 0.2541,5.2591 V 4.9665 C 0.5236,4.9665 0.693,4.9434 0.7469,4.8972 0.8008,4.851 0.8316,4.7432 0.8316,4.5661 V 0.6083 C 0.8316,0.462 0.8085,0.3696 0.7546,0.3388 0.7007,0.308 0.5313,0.3003 0.2541,0.3003 V 0 Z"
   style="stroke-width:0"
   id="path94" />
        </g><g
   transform="translate(11.9812)"
   style="stroke-width:0"
   id="g96"><path
   d="m 3.1955,1.9327 c 0,0.8854999 -0.5159,1.5169 -1.3783,1.5169 -0.462,0 -0.847,-0.1771 -1.1627,-0.539 C 0.3619,2.5718 0.2156,2.1637 0.2156,1.694 0.2156,1.2089 0.3773,0.80079997 0.7007,0.4466 1.0241,0.0924 1.4245,-0.0847 1.9018999,-0.0847 2.3408,-0.0847 2.6796,0.0693 2.9106,0.3696 3.1031,0.6237 3.1955,0.8085 3.1955,0.9317 3.1955,1.0087 3.1493,1.0472 3.0646,1.0472 3.003,1.0472 2.9645,1.0087 2.9414,0.924 2.772,0.4158 2.4409,0.1617 1.9481,0.1617 1.6015999,0.1617 1.3321,0.3234 1.1242,0.6545 0.97789997,0.8932 0.9086,1.2551 0.9009,1.7479 h 2.079 c 0.1694,0 0.2156,0.0154 0.2156,0.1848 z M 2.5102,2.6873 C 2.5949,2.4332 2.6334,2.1868 2.6334,1.9635 H 0.9086 c 0.0231,0.5082 0.154,0.8546999 0.385,1.0318 0.1925,0.154 0.3618999,0.231 0.5236,0.231 0.3465,0 0.5775,-0.1771 0.693,-0.539 z"
   style="stroke-width:0"
   id="path95" />
        </g></g>
        </g>
    </g>
    <defs
   id="id-61962665-ccfa-49de-9b2e-a5e8b9aa2efd"
   style="stroke-width:0">
        <symbol
   id="id-97ca0fa3-216d-4c75-bc95-f6651e2acafd"
   overflow="visible"
   style="stroke-width:0">
            <path
   d="m 2.189,7.216 c 0,-0.11 0.121,-0.165 0.352,-0.165 0.44,0 0.66,-0.044 0.66,-0.143 0,-0.033 -0.022,-0.11 -0.055,-0.2530003 L 1.716,0.902 C 1.65,0.65999997 1.54,0.517 1.386,0.462 1.309,0.44 1.111,0.429 0.77,0.429 0.528,0.429 0.41799998,0.407 0.41799998,0.176 0.41799998,0.055 0.484,0 0.627,0 L 2.057,0.033 3.685,0 C 3.861,0 3.949,0.088 3.949,0.253 3.949,0.44 3.828,0.429 3.542,0.429 3.058,0.429 2.783,0.451 2.717,0.506 2.684,0.517 2.673,0.561 2.673,0.616 L 3.377,3.531 H 4.4 c 0.506,0 0.858,-0.022 0.858,-0.44 C 5.258,2.948 5.236,2.772 5.181,2.563 5.17,2.53 5.159,2.486 5.148,2.442 5.148,2.321 5.203,2.266 5.324,2.266 5.379,2.277 5.456,2.354 5.533,2.519 L 6.127,4.884 C 6.149,4.972 6.16,5.038 6.16,5.071 6.127,5.17 6.061,5.225 5.984,5.225 5.896,5.225 5.83,5.137 5.786,4.972 5.676,4.554 5.522,4.29 5.346,4.158 5.17,4.026 4.862,3.96 4.422,3.96 H 3.487 l 0.682,2.706 c 0.088,0.374 0.088,0.385 0.55,0.385 h 1.43 C 7.216,7.051 7.7,6.886 7.7,5.907 7.7,5.687 7.689,5.489 7.667,5.324 7.656,5.203 7.645,5.137 7.645,5.126 7.645,5.005 7.7,4.95 7.81,4.95 c 0.11,0 0.176,0.099 0.198,0.308 l 0.22,1.881 C 8.261,7.447 8.184,7.48 7.887,7.48 H 2.563 C 2.31,7.48 2.189,7.469 2.189,7.216 Z"
   style="stroke-width:0"
   id="path99" />
        </symbol>
        <symbol
   id="id-0ca0f47c-26b9-4a36-9a52-0c717f442aad"
   overflow="visible"
   style="stroke-width:0">
            <path
   d="m 2.2946,-0.1001 c 0.4774,0 0.8855,0.1694 1.2166,0.5159 C 3.8423,0.7623 4.0117,1.1704 4.0117,1.6554999 4.0117,2.1252 3.8576999,2.5256 3.5574,2.8644 3.2417,3.2263 2.8567,3.4034 2.3947,3.4034 2.002,3.4034 1.6632,3.2494 1.3706,2.9491 V 3.4034 L 0.2156,3.3187 V 3.0261 c 0.2849,0 0.4543,-0.0154 0.5082,-0.0539 C 0.7777,2.9337 0.8085,2.8336 0.8085,2.6719 V -0.8855 C 0.8085,-1.0318 0.7777,-1.1242 0.7238,-1.155 0.6699,-1.1858 0.5005,-1.1935 0.2156,-1.1935 v -0.3003 l 0.8778,0.0231 0.8855,-0.0231 v 0.3003 c -0.2849,0 -0.4466,0.0077 -0.5005,0.0385 -0.0539,0.0308 -0.0847,0.1232 -0.0847,0.2695 V 0.3388 C 1.5631,0.1001 1.8942,-0.1001 2.2946,-0.1001 Z M 2.3408,3.1493 C 2.6565,3.1493 2.9029,2.9722 3.0954,2.618 3.2417,2.3177 3.3187,2.002 3.3187,1.6554999 3.3187,1.2936 3.234,0.9625 3.0646,0.6622 2.8644,0.3003 2.5949,0.1232 2.2638,0.1232 1.9404,0.1232 1.6863,0.27719998 1.4938,0.5775 1.4245,0.6776 1.3937,0.7777 1.3937,0.8778 v 1.6863 c 0.2233,0.3927 0.539,0.5852 0.9471,0.5852 z"
   style="stroke-width:0"
   id="path100" />
        </symbol>
        <symbol
   id="id-ead138dd-7453-47f2-803a-0874782af6db"
   overflow="visible"
   style="stroke-width:0">
            <path
   d="m 3.1955,1.9327 c 0,0.8854999 -0.5159,1.5169 -1.3783,1.5169 -0.462,0 -0.847,-0.1771 -1.1627,-0.539 C 0.3619,2.5718 0.2156,2.1637 0.2156,1.694 0.2156,1.2089 0.3773,0.80079997 0.7007,0.4466 1.0241,0.0924 1.4245,-0.0847 1.9018999,-0.0847 2.3408,-0.0847 2.6796,0.0693 2.9106,0.3696 3.1031,0.6237 3.1955,0.8085 3.1955,0.9317 3.1955,1.0087 3.1493,1.0472 3.0646,1.0472 3.003,1.0472 2.9645,1.0087 2.9414,0.924 2.772,0.4158 2.4409,0.1617 1.9481,0.1617 1.6015999,0.1617 1.3321,0.3234 1.1242,0.6545 0.97789997,0.8932 0.9086,1.2551 0.9009,1.7479 h 2.079 c 0.1694,0 0.2156,0.0154 0.2156,0.1848 z M 2.5102,2.6873 C 2.5949,2.4332 2.6334,2.1868 2.6334,1.9635 H 0.9086 c 0.0231,0.5082 0.154,0.8546999 0.385,1.0318 0.1925,0.154 0.3618999,0.231 0.5236,0.231 0.3465,0 0.5775,-0.1771 0.693,-0.539 z"
   style="stroke-width:0"
   id="path101" />
        </symbol>
        <symbol
   id="id-1ae8e1e0-03ca-4722-bfd8-f610748ab69e"
   overflow="visible"
   style="stroke-width:0">
            <path
   d="M 1.1087999,0.0231 1.9635,0 V 0.3003 C 1.6863,0.3003 1.5169,0.308 1.4629999,0.3388 1.4090999,0.3696 1.386,0.462 1.386,0.6083 V 5.3438 L 0.2541,5.2591 V 4.9665 C 0.5236,4.9665 0.693,4.9434 0.7469,4.8972 0.8008,4.851 0.8316,4.7432 0.8316,4.5661 V 0.6083 C 0.8316,0.462 0.8085,0.3696 0.7546,0.3388 0.7007,0.308 0.5313,0.3003 0.2541,0.3003 V 0 Z"
   style="stroke-width:0"
   id="path102" />
        </symbol>
    </defs>
</g><path
       style="fill:none;fill-opacity:1;stroke:#7f0000;stroke-width:0.499999;stroke-dasharray:none;stroke-opacity:1;marker-end:url(#marker106)"
       d="M 191.02672,-0.41771406 V -8.7437516"
       id="path104" /><g
       transform="matrix(0.496528,0,0,0.496528,66.606345,-26.981663)"
       ns6:version="1.11.0"
       ns6:texconverter="typst"
       ns6:pdfconverter="inkscape"
       ns6:text="$2.5 &quot;m &quot;$"
       ns6:preamble="/home/sermuns/.config/inkscape/extensions/textext/default_preamble_typst.typ"
       ns6:scale="1.4074798236903314"
       ns6:alignment="middle center"
       ns6:inkscapeversion="1.4"
       ns6:jacobian_sqrt="0.496528"
       id="g221"><g
   id="g218">
        <g
   transform="translate(70.8661,78.3791)"
   id="g208">
            <g
   class="typst-text"
   transform="scale(1,-1)"
   id="g207">
                <g
   id="g206"><path
   d="M 2.6069999,7.3259997 C 2.046,7.3259997 1.573,7.128 1.166,6.732 0.759,6.336 0.55,5.874 0.55,5.313 0.55,4.939 0.825,4.664 1.166,4.664 1.496,4.664 1.771,4.95 1.771,5.2799997 1.771,5.643 1.507,5.896 1.155,5.896 1.122,5.896 1.1,5.896 1.078,5.885 1.287,6.424 1.771,6.897 2.464,6.897 3.366,6.897 3.872,6.116 3.872,5.17 3.872,4.433 3.498,3.641 2.75,2.805 L 0.682,0.473 C 0.539,0.308 0.55,0.319 0.55,0 H 4.631 L 4.95,1.98 H 4.587 C 4.499,1.419 4.422,1.1 4.356,1.001 4.301,0.946 3.971,0.924 3.366,0.924 H 1.529 l 1.067,1.045 c 0.7479999,0.704 1.694,1.463 2.013,2.046 0.22,0.385 0.33,0.77 0.33,1.155 0,1.298 -1.012,2.1559997 -2.3320001,2.1559997 z"
   id="path206" />
        </g></g>
        </g>
        <g
   transform="translate(76.3661,78.3791)"
   id="g211">
            <g
   class="typst-text"
   transform="scale(1,-1)"
   id="g210">
                <g
   id="g209"><path
   d="M 2.112,0.583 C 2.112,0.902 1.848,1.166 1.529,1.166 1.21,1.166 0.946,0.902 0.946,0.583 0.946,0.264 1.21,0 1.529,0 1.848,0 2.112,0.264 2.112,0.583 Z"
   id="path208" />
        </g></g>
        </g>
        <g
   transform="translate(79.4241,78.3791)"
   id="g214">
            <g
   class="typst-text"
   transform="scale(1,-1)"
   id="g213">
                <g
   id="g212"><path
   d="m 1.298,3.465 c 0.055,0 0.121,0.044 0.176,0.121 0.33,0.495 0.7809999,0.737 1.353,0.737 0.385,0 0.682,-0.22 0.88,-0.671 C 3.828,3.355 3.894,2.904 3.894,2.299 3.894,1.606 3.806,1.122 3.641,0.83599997 3.366,0.385 2.992,0.154 2.519,0.154 c -0.737,0 -1.32,0.528 -1.518,1.1 0.033,-0.011 0.055,0 0.099,0 0.33,0 0.605,0.253 0.605,0.583 0,0.341 -0.275,0.572 -0.605,0.572 -0.385,0 -0.55,-0.209 -0.55,-0.616 0,-1.1 0.891,-2.035 1.991,-2.035 0.671,0 1.243,0.242 1.705,0.726 C 4.708,0.968 4.939,1.551 4.939,2.222 4.939,2.86 4.752,3.41 4.378,3.883 3.971,4.4 3.465,4.653 2.849,4.653 2.332,4.653 1.881,4.488 1.518,4.158 v 1.958 c 0.2969999,-0.088 0.583,-0.132 0.88,-0.132 0.506,0 0.9459999,0.121 1.32,0.374 0.341,0.209 0.572,0.418 0.704,0.616 0.066,0.088 0.099,0.154 0.099,0.187 0,0.11 -0.055,0.1649997 -0.165,0.1649997 C 3.751,7.095 3.234,6.974 2.816,6.974 2.321,6.974 1.848,7.073 1.397,7.282 1.342,7.304 1.298,7.315 1.254,7.315 1.155,7.315 1.1,7.216 1.1,7.007 V 3.795 c 0,-0.231 0,-0.33 0.198,-0.33 z"
   id="path211" />
        </g></g>
        </g>
        <g
   transform="translate(88.5761,78.3791)"
   id="g217">
            <g
   class="typst-text"
   transform="scale(1,-1)"
   id="g216">
                <g
   id="g215"><path
   d="M 3.465,4.5429997 C 3.971,4.5429997 4.224,4.158 4.224,3.377 V 0.869 C 4.224,0.65999997 4.191,0.528 4.114,0.484 4.037,0.44 3.784,0.418 3.377,0.418 V 0 L 4.653,0.033 5.9179997,0 V 0.41799998 C 5.511,0.41799998 5.269,0.44 5.192,0.484 5.115,0.528 5.071,0.65999997 5.071,0.869 v 1.98 c 0,0.88 0.572,1.6939997 1.419,1.6939997 C 7.007,4.5429997 7.2599998,4.158 7.2599998,3.377 V 0.869 c 0,-0.20900003 -0.044,-0.341 -0.1209998,-0.385 C 7.062,0.44 6.809,0.418 6.402,0.418 V 0 L 7.678,0.033 8.943,0 v 0.41799998 c -0.352,0 -0.583,0.011 -0.693,0.044 C 8.14,0.495 8.096,0.572 8.096,0.704 V 2.761 C 8.096,3.2779999 8.074,3.641 8.041,3.85 7.9309998,4.521 7.436,4.862 6.567,4.862 5.874,4.862 5.357,4.5429997 5.005,3.894 4.851,4.5429997 4.367,4.862 3.542,4.862 2.849,4.862 2.321,4.532 1.969,3.872 v 0.99 L 0.352,4.741 V 4.323 C 0.748,4.323 0.99,4.29 1.078,4.224 1.166,4.158 1.199,4.015 1.199,3.762 V 0.869 C 1.199,0.65999997 1.155,0.528 1.078,0.484 1.001,0.44 0.759,0.418 0.352,0.418 V 0 L 1.628,0.033 2.893,0 v 0.41799998 c -0.407,0 -0.66,0.022 -0.737,0.066 C 2.079,0.528 2.035,0.65999997 2.035,0.869 v 1.98 c 0,0.891 0.583,1.6939997 1.43,1.6939997 z"
   id="path214" />
        </g></g>
        </g>
    </g>
    <defs
   id="defs221">
        <symbol
   id="symbol218"
   overflow="visible">
            <path
   d="M 2.6069999,7.3259997 C 2.046,7.3259997 1.573,7.128 1.166,6.732 0.759,6.336 0.55,5.874 0.55,5.313 0.55,4.939 0.825,4.664 1.166,4.664 1.496,4.664 1.771,4.95 1.771,5.2799997 1.771,5.643 1.507,5.896 1.155,5.896 1.122,5.896 1.1,5.896 1.078,5.885 1.287,6.424 1.771,6.897 2.464,6.897 3.366,6.897 3.872,6.116 3.872,5.17 3.872,4.433 3.498,3.641 2.75,2.805 L 0.682,0.473 C 0.539,0.308 0.55,0.319 0.55,0 H 4.631 L 4.95,1.98 H 4.587 C 4.499,1.419 4.422,1.1 4.356,1.001 4.301,0.946 3.971,0.924 3.366,0.924 H 1.529 l 1.067,1.045 c 0.7479999,0.704 1.694,1.463 2.013,2.046 0.22,0.385 0.33,0.77 0.33,1.155 0,1.298 -1.012,2.1559997 -2.3320001,2.1559997 z"
   id="path218" />
        </symbol>
        <symbol
   id="symbol219"
   overflow="visible">
            <path
   d="M 2.112,0.583 C 2.112,0.902 1.848,1.166 1.529,1.166 1.21,1.166 0.946,0.902 0.946,0.583 0.946,0.264 1.21,0 1.529,0 1.848,0 2.112,0.264 2.112,0.583 Z"
   id="path219" />
        </symbol>
        <symbol
   id="symbol220"
   overflow="visible">
            <path
   d="m 1.298,3.465 c 0.055,0 0.121,0.044 0.176,0.121 0.33,0.495 0.7809999,0.737 1.353,0.737 0.385,0 0.682,-0.22 0.88,-0.671 C 3.828,3.355 3.894,2.904 3.894,2.299 3.894,1.606 3.806,1.122 3.641,0.83599997 3.366,0.385 2.992,0.154 2.519,0.154 c -0.737,0 -1.32,0.528 -1.518,1.1 0.033,-0.011 0.055,0 0.099,0 0.33,0 0.605,0.253 0.605,0.583 0,0.341 -0.275,0.572 -0.605,0.572 -0.385,0 -0.55,-0.209 -0.55,-0.616 0,-1.1 0.891,-2.035 1.991,-2.035 0.671,0 1.243,0.242 1.705,0.726 C 4.708,0.968 4.939,1.551 4.939,2.222 4.939,2.86 4.752,3.41 4.378,3.883 3.971,4.4 3.465,4.653 2.849,4.653 2.332,4.653 1.881,4.488 1.518,4.158 v 1.958 c 0.2969999,-0.088 0.583,-0.132 0.88,-0.132 0.506,0 0.9459999,0.121 1.32,0.374 0.341,0.209 0.572,0.418 0.704,0.616 0.066,0.088 0.099,0.154 0.099,0.187 0,0.11 -0.055,0.1649997 -0.165,0.1649997 C 3.751,7.095 3.234,6.974 2.816,6.974 2.321,6.974 1.848,7.073 1.397,7.282 1.342,7.304 1.298,7.315 1.254,7.315 1.155,7.315 1.1,7.216 1.1,7.007 V 3.795 c 0,-0.231 0,-0.33 0.198,-0.33 z"
   id="path220" />
        </symbol>
        <symbol
   id="symbol221"
   overflow="visible">
            <path
   d="M 3.465,4.5429997 C 3.971,4.5429997 4.224,4.158 4.224,3.377 V 0.869 C 4.224,0.65999997 4.191,0.528 4.114,0.484 4.037,0.44 3.784,0.418 3.377,0.418 V 0 L 4.653,0.033 5.9179997,0 V 0.41799998 C 5.511,0.41799998 5.269,0.44 5.192,0.484 5.115,0.528 5.071,0.65999997 5.071,0.869 v 1.98 c 0,0.88 0.572,1.6939997 1.419,1.6939997 C 7.007,4.5429997 7.2599998,4.158 7.2599998,3.377 V 0.869 c 0,-0.20900003 -0.044,-0.341 -0.1209998,-0.385 C 7.062,0.44 6.809,0.418 6.402,0.418 V 0 L 7.678,0.033 8.943,0 v 0.41799998 c -0.352,0 -0.583,0.011 -0.693,0.044 C 8.14,0.495 8.096,0.572 8.096,0.704 V 2.761 C 8.096,3.2779999 8.074,3.641 8.041,3.85 7.9309998,4.521 7.436,4.862 6.567,4.862 5.874,4.862 5.357,4.5429997 5.005,3.894 4.851,4.5429997 4.367,4.862 3.542,4.862 2.849,4.862 2.321,4.532 1.969,3.872 v 0.99 L 0.352,4.741 V 4.323 C 0.748,4.323 0.99,4.29 1.078,4.224 1.166,4.158 1.199,4.015 1.199,3.762 V 0.869 C 1.199,0.65999997 1.155,0.528 1.078,0.484 1.001,0.44 0.759,0.418 0.352,0.418 V 0 L 1.628,0.033 2.893,0 v 0.41799998 c -0.407,0 -0.66,0.022 -0.737,0.066 C 2.079,0.528 2.035,0.65999997 2.035,0.869 v 1.98 c 0,0.891 0.583,1.6939997 1.43,1.6939997 z"
   id="path221" />
        </symbol>
    </defs>
</g><g
       transform="matrix(0.496528,0,0,0.496528,73.6364,-17.448999)"
       ns6:version="1.11.0"
       ns6:texconverter="typst"
       ns6:pdfconverter="inkscape"
       ns6:text="$3 &quot;m &quot;$"
       ns6:preamble="/home/sermuns/.config/inkscape/extensions/textext/default_preamble_typst.typ"
       ns6:scale="1.4074798236903314"
       ns6:alignment="middle center"
       ns6:inkscapeversion="1.4"
       ns6:jacobian_sqrt="0.496528"
       id="g238"><g
   id="g237">
        <g
   transform="translate(70.8661,78.3791)"
   id="g233">
            <g
   class="typst-text"
   transform="scale(1,-1)"
   id="g232">
                <g
   id="g231"><path
   d="M 3.333,3.883 C 4.059,4.158 4.741,4.851 4.741,5.786 4.741,6.259 4.5099998,6.644 4.059,6.941 3.6629999,7.194 3.212,7.3259997 2.706,7.3259997 2.211,7.3259997 1.782,7.194 1.397,6.941 0.968,6.6549997 0.748,6.281 0.748,5.808 c 0,-0.363 0.242,-0.616 0.594,-0.616 0.352,0 0.594,0.253 0.594,0.605 0,0.363 -0.209,0.561 -0.627,0.583 0.286,0.385 0.737,0.583 1.353,0.583 0.66,0 0.99,-0.385 0.99,-1.166 C 3.652,5.335 3.564,4.95 3.399,4.631 3.102,4.103 2.695,4.004 2.013,4.004 1.881,3.9819999 1.8149999,3.927 1.8149999,3.828 1.8149999,3.6629999 1.892,3.6629999 2.112,3.6629999 H 2.585 C 3.41,3.6629999 3.828,3.08 3.828,1.903 3.828,0.968 3.487,0.154 2.651,0.154 1.936,0.154 1.408,0.396 1.089,0.88 1.474,0.869 1.76,1.155 1.76,1.529 c 0,0.374 -0.275,0.649 -0.649,0.649 -0.429,0 -0.649,-0.22 -0.649,-0.671 0,-0.539 0.242,-0.968 0.726,-1.309 0.429,-0.297 0.935,-0.44 1.496,-0.44 0.6269999,0 1.166,0.209 1.639,0.616 0.473,0.407 0.704,0.913 0.704,1.529 0,1.034 -0.814,1.749 -1.694,1.98 z"
   id="path231" />
        </g></g>
        </g>
        <g
   transform="translate(80.0181,78.3791)"
   id="g236">
            <g
   class="typst-text"
   transform="scale(1,-1)"
   id="g235">
                <g
   id="g234"><path
   d="M 3.465,4.5429997 C 3.971,4.5429997 4.224,4.158 4.224,3.377 V 0.869 C 4.224,0.65999997 4.191,0.528 4.114,0.484 4.037,0.44 3.784,0.418 3.377,0.418 V 0 L 4.653,0.033 5.9179997,0 V 0.41799998 C 5.511,0.41799998 5.269,0.44 5.192,0.484 5.115,0.528 5.071,0.65999997 5.071,0.869 v 1.98 c 0,0.88 0.572,1.6939997 1.419,1.6939997 C 7.007,4.5429997 7.2599998,4.158 7.2599998,3.377 V 0.869 c 0,-0.20900003 -0.044,-0.341 -0.1209998,-0.385 C 7.062,0.44 6.809,0.418 6.402,0.418 V 0 L 7.678,0.033 8.943,0 v 0.41799998 c -0.352,0 -0.583,0.011 -0.693,0.044 C 8.14,0.495 8.096,0.572 8.096,0.704 V 2.761 C 8.096,3.2779999 8.074,3.641 8.041,3.85 7.9309998,4.521 7.436,4.862 6.567,4.862 5.874,4.862 5.357,4.5429997 5.005,3.894 4.851,4.5429997 4.367,4.862 3.542,4.862 2.849,4.862 2.321,4.532 1.969,3.872 v 0.99 L 0.352,4.741 V 4.323 C 0.748,4.323 0.99,4.29 1.078,4.224 1.166,4.158 1.199,4.015 1.199,3.762 V 0.869 C 1.199,0.65999997 1.155,0.528 1.078,0.484 1.001,0.44 0.759,0.418 0.352,0.418 V 0 L 1.628,0.033 2.893,0 v 0.41799998 c -0.407,0 -0.66,0.022 -0.737,0.066 C 2.079,0.528 2.035,0.65999997 2.035,0.869 v 1.98 c 0,0.891 0.583,1.6939997 1.43,1.6939997 z"
   id="path233" />
        </g></g>
        </g>
    </g>
    <defs
   id="defs238">
        <symbol
   id="symbol237"
   overflow="visible">
            <path
   d="M 3.333,3.883 C 4.059,4.158 4.741,4.851 4.741,5.786 4.741,6.259 4.5099998,6.644 4.059,6.941 3.6629999,7.194 3.212,7.3259997 2.706,7.3259997 2.211,7.3259997 1.782,7.194 1.397,6.941 0.968,6.6549997 0.748,6.281 0.748,5.808 c 0,-0.363 0.242,-0.616 0.594,-0.616 0.352,0 0.594,0.253 0.594,0.605 0,0.363 -0.209,0.561 -0.627,0.583 0.286,0.385 0.737,0.583 1.353,0.583 0.66,0 0.99,-0.385 0.99,-1.166 C 3.652,5.335 3.564,4.95 3.399,4.631 3.102,4.103 2.695,4.004 2.013,4.004 1.881,3.9819999 1.8149999,3.927 1.8149999,3.828 1.8149999,3.6629999 1.892,3.6629999 2.112,3.6629999 H 2.585 C 3.41,3.6629999 3.828,3.08 3.828,1.903 3.828,0.968 3.487,0.154 2.651,0.154 1.936,0.154 1.408,0.396 1.089,0.88 1.474,0.869 1.76,1.155 1.76,1.529 c 0,0.374 -0.275,0.649 -0.649,0.649 -0.429,0 -0.649,-0.22 -0.649,-0.671 0,-0.539 0.242,-0.968 0.726,-1.309 0.429,-0.297 0.935,-0.44 1.496,-0.44 0.6269999,0 1.166,0.209 1.639,0.616 0.473,0.407 0.704,0.913 0.704,1.529 0,1.034 -0.814,1.749 -1.694,1.98 z"
   id="path237" />
        </symbol>
        <symbol
   id="symbol238"
   overflow="visible">
            <path
   d="M 3.465,4.5429997 C 3.971,4.5429997 4.224,4.158 4.224,3.377 V 0.869 C 4.224,0.65999997 4.191,0.528 4.114,0.484 4.037,0.44 3.784,0.418 3.377,0.418 V 0 L 4.653,0.033 5.9179997,0 V 0.41799998 C 5.511,0.41799998 5.269,0.44 5.192,0.484 5.115,0.528 5.071,0.65999997 5.071,0.869 v 1.98 c 0,0.88 0.572,1.6939997 1.419,1.6939997 C 7.007,4.5429997 7.2599998,4.158 7.2599998,3.377 V 0.869 c 0,-0.20900003 -0.044,-0.341 -0.1209998,-0.385 C 7.062,0.44 6.809,0.418 6.402,0.418 V 0 L 7.678,0.033 8.943,0 v 0.41799998 c -0.352,0 -0.583,0.011 -0.693,0.044 C 8.14,0.495 8.096,0.572 8.096,0.704 V 2.761 C 8.096,3.2779999 8.074,3.641 8.041,3.85 7.9309998,4.521 7.436,4.862 6.567,4.862 5.874,4.862 5.357,4.5429997 5.005,3.894 4.851,4.5429997 4.367,4.862 3.542,4.862 2.849,4.862 2.321,4.532 1.969,3.872 v 0.99 L 0.352,4.741 V 4.323 C 0.748,4.323 0.99,4.29 1.078,4.224 1.166,4.158 1.199,4.015 1.199,3.762 V 0.869 C 1.199,0.65999997 1.155,0.528 1.078,0.484 1.001,0.44 0.759,0.418 0.352,0.418 V 0 L 1.628,0.033 2.893,0 v 0.41799998 c -0.407,0 -0.66,0.022 -0.737,0.066 C 2.079,0.528 2.035,0.65999997 2.035,0.869 v 1.98 c 0,0.891 0.583,1.6939997 1.43,1.6939997 z"
   id="path238" />
        </symbol>
    </defs>
</g><g
       transform="matrix(0.496528,0,0,0.496528,101.496,-7.01398)"
       ns6:version="1.11.0"
       ns6:texconverter="typst"
       ns6:pdfconverter="inkscape"
       ns6:text="$5 &quot;m &quot;$"
       ns6:preamble="/home/sermuns/.config/inkscape/extensions/textext/default_preamble_typst.typ"
       ns6:scale="1.4074798236903314"
       ns6:alignment="middle center"
       ns6:inkscapeversion="1.4"
       ns6:jacobian_sqrt="0.496528"
       id="g204"><g
   id="g245">
        <g
   transform="translate(70.8661,78.3791)"
   id="g241">
            <g
   class="typst-text"
   transform="scale(1,-1)"
   id="g240">
                <g
   id="g239"><path
   d="m 1.298,3.465 c 0.055,0 0.121,0.044 0.176,0.121 0.33,0.495 0.7809999,0.737 1.353,0.737 0.385,0 0.682,-0.22 0.88,-0.671 C 3.828,3.355 3.894,2.904 3.894,2.299 3.894,1.606 3.806,1.122 3.641,0.83599997 3.366,0.385 2.992,0.154 2.519,0.154 c -0.737,0 -1.32,0.528 -1.518,1.1 0.033,-0.011 0.055,0 0.099,0 0.33,0 0.605,0.253 0.605,0.583 0,0.341 -0.275,0.572 -0.605,0.572 -0.385,0 -0.55,-0.209 -0.55,-0.616 0,-1.1 0.891,-2.035 1.991,-2.035 0.671,0 1.243,0.242 1.705,0.726 C 4.708,0.968 4.939,1.551 4.939,2.222 4.939,2.86 4.752,3.41 4.378,3.883 3.971,4.4 3.465,4.653 2.849,4.653 2.332,4.653 1.881,4.488 1.518,4.158 v 1.958 c 0.2969999,-0.088 0.583,-0.132 0.88,-0.132 0.506,0 0.9459999,0.121 1.32,0.374 0.341,0.209 0.572,0.418 0.704,0.616 0.066,0.088 0.099,0.154 0.099,0.187 0,0.11 -0.055,0.1649997 -0.165,0.1649997 C 3.751,7.095 3.234,6.974 2.816,6.974 2.321,6.974 1.848,7.073 1.397,7.282 1.342,7.304 1.298,7.315 1.254,7.315 1.155,7.315 1.1,7.216 1.1,7.007 V 3.795 c 0,-0.231 0,-0.33 0.198,-0.33 z"
   id="path239" />
        </g></g>
        </g>
        <g
   transform="translate(80.0181,78.3791)"
   id="g244">
            <g
   class="typst-text"
   transform="scale(1,-1)"
   id="g243">
                <g
   id="g242"><path
   d="M 3.465,4.5429997 C 3.971,4.5429997 4.224,4.158 4.224,3.377 V 0.869 C 4.224,0.65999997 4.191,0.528 4.114,0.484 4.037,0.44 3.784,0.418 3.377,0.418 V 0 L 4.653,0.033 5.9179997,0 V 0.41799998 C 5.511,0.41799998 5.269,0.44 5.192,0.484 5.115,0.528 5.071,0.65999997 5.071,0.869 v 1.98 c 0,0.88 0.572,1.6939997 1.419,1.6939997 C 7.007,4.5429997 7.2599998,4.158 7.2599998,3.377 V 0.869 c 0,-0.20900003 -0.044,-0.341 -0.1209998,-0.385 C 7.062,0.44 6.809,0.418 6.402,0.418 V 0 L 7.678,0.033 8.943,0 v 0.41799998 c -0.352,0 -0.583,0.011 -0.693,0.044 C 8.14,0.495 8.096,0.572 8.096,0.704 V 2.761 C 8.096,3.2779999 8.074,3.641 8.041,3.85 7.9309998,4.521 7.436,4.862 6.567,4.862 5.874,4.862 5.357,4.5429997 5.005,3.894 4.851,4.5429997 4.367,4.862 3.542,4.862 2.849,4.862 2.321,4.532 1.969,3.872 v 0.99 L 0.352,4.741 V 4.323 C 0.748,4.323 0.99,4.29 1.078,4.224 1.166,4.158 1.199,4.015 1.199,3.762 V 0.869 C 1.199,0.65999997 1.155,0.528 1.078,0.484 1.001,0.44 0.759,0.418 0.352,0.418 V 0 L 1.628,0.033 2.893,0 v 0.41799998 c -0.407,0 -0.66,0.022 -0.737,0.066 C 2.079,0.528 2.035,0.65999997 2.035,0.869 v 1.98 c 0,0.891 0.583,1.6939997 1.43,1.6939997 z"
   id="path241" />
        </g></g>
        </g>
    </g>
    <defs
   id="id-224ec5dc-056f-4d25-85d9-794360d44820">
        <symbol
   id="id-f34d584c-ee8d-4bde-a120-572f5e5de870"
   overflow="visible">
            <path
   d="m 1.298,3.465 c 0.055,0 0.121,0.044 0.176,0.121 0.33,0.495 0.7809999,0.737 1.353,0.737 0.385,0 0.682,-0.22 0.88,-0.671 C 3.828,3.355 3.894,2.904 3.894,2.299 3.894,1.606 3.806,1.122 3.641,0.83599997 3.366,0.385 2.992,0.154 2.519,0.154 c -0.737,0 -1.32,0.528 -1.518,1.1 0.033,-0.011 0.055,0 0.099,0 0.33,0 0.605,0.253 0.605,0.583 0,0.341 -0.275,0.572 -0.605,0.572 -0.385,0 -0.55,-0.209 -0.55,-0.616 0,-1.1 0.891,-2.035 1.991,-2.035 0.671,0 1.243,0.242 1.705,0.726 C 4.708,0.968 4.939,1.551 4.939,2.222 4.939,2.86 4.752,3.41 4.378,3.883 3.971,4.4 3.465,4.653 2.849,4.653 2.332,4.653 1.881,4.488 1.518,4.158 v 1.958 c 0.2969999,-0.088 0.583,-0.132 0.88,-0.132 0.506,0 0.9459999,0.121 1.32,0.374 0.341,0.209 0.572,0.418 0.704,0.616 0.066,0.088 0.099,0.154 0.099,0.187 0,0.11 -0.055,0.1649997 -0.165,0.1649997 C 3.751,7.095 3.234,6.974 2.816,6.974 2.321,6.974 1.848,7.073 1.397,7.282 1.342,7.304 1.298,7.315 1.254,7.315 1.155,7.315 1.1,7.216 1.1,7.007 V 3.795 c 0,-0.231 0,-0.33 0.198,-0.33 z"
   id="path245" />
        </symbol>
        <symbol
   id="id-a34decca-d1bf-485a-ab01-c46e8d27deb9"
   overflow="visible">
            <path
   d="M 3.465,4.5429997 C 3.971,4.5429997 4.224,4.158 4.224,3.377 V 0.869 C 4.224,0.65999997 4.191,0.528 4.114,0.484 4.037,0.44 3.784,0.418 3.377,0.418 V 0 L 4.653,0.033 5.9179997,0 V 0.41799998 C 5.511,0.41799998 5.269,0.44 5.192,0.484 5.115,0.528 5.071,0.65999997 5.071,0.869 v 1.98 c 0,0.88 0.572,1.6939997 1.419,1.6939997 C 7.007,4.5429997 7.2599998,4.158 7.2599998,3.377 V 0.869 c 0,-0.20900003 -0.044,-0.341 -0.1209998,-0.385 C 7.062,0.44 6.809,0.418 6.402,0.418 V 0 L 7.678,0.033 8.943,0 v 0.41799998 c -0.352,0 -0.583,0.011 -0.693,0.044 C 8.14,0.495 8.096,0.572 8.096,0.704 V 2.761 C 8.096,3.2779999 8.074,3.641 8.041,3.85 7.9309998,4.521 7.436,4.862 6.567,4.862 5.874,4.862 5.357,4.5429997 5.005,3.894 4.851,4.5429997 4.367,4.862 3.542,4.862 2.849,4.862 2.321,4.532 1.969,3.872 v 0.99 L 0.352,4.741 V 4.323 C 0.748,4.323 0.99,4.29 1.078,4.224 1.166,4.158 1.199,4.015 1.199,3.762 V 0.869 C 1.199,0.65999997 1.155,0.528 1.078,0.484 1.001,0.44 0.759,0.418 0.352,0.418 V 0 L 1.628,0.033 2.893,0 v 0.41799998 c -0.407,0 -0.66,0.022 -0.737,0.066 C 2.079,0.528 2.035,0.65999997 2.035,0.869 v 1.98 c 0,0.891 0.583,1.6939997 1.43,1.6939997 z"
   id="path246" />
        </symbol>
    </defs>
</g><g
       transform="matrix(0.496528,0,0,0.496528,133.283,-50.6238)"
       ns6:version="1.11.0"
       ns6:texconverter="typst"
       ns6:pdfconverter="inkscape"
       ns6:text="$F_&quot;lina&quot;$"
       ns6:preamble="/home/sermuns/.config/inkscape/extensions/textext/default_preamble_typst.typ"
       ns6:scale="1.4074798236903314"
       ns6:alignment="middle center"
       ns6:inkscapeversion="1.4"
       ns6:jacobian_sqrt="0.496528"
       style="stroke-width:0"
       id="g126"><g
   style="stroke-width:0"
   id="g288">
        <g
   transform="translate(70.8661,78.3791)"
   style="stroke-width:0"
   id="g281">
            <g
   class="typst-text"
   transform="scale(1,-1)"
   style="stroke-width:0"
   id="g280">
                <g
   style="stroke-width:0"
   id="g279"><path
   d="m 2.189,7.216 c 0,-0.11 0.121,-0.165 0.352,-0.165 0.44,0 0.66,-0.044 0.66,-0.143 0,-0.033 -0.022,-0.11 -0.055,-0.2530003 L 1.716,0.902 C 1.65,0.65999997 1.54,0.517 1.386,0.462 1.309,0.44 1.111,0.429 0.77,0.429 0.528,0.429 0.41799998,0.407 0.41799998,0.176 0.41799998,0.055 0.484,0 0.627,0 L 2.057,0.033 3.685,0 C 3.861,0 3.949,0.088 3.949,0.253 3.949,0.44 3.828,0.429 3.542,0.429 3.058,0.429 2.783,0.451 2.717,0.506 2.684,0.517 2.673,0.561 2.673,0.616 L 3.377,3.531 H 4.4 c 0.506,0 0.858,-0.022 0.858,-0.44 C 5.258,2.948 5.236,2.772 5.181,2.563 5.17,2.53 5.159,2.486 5.148,2.442 5.148,2.321 5.203,2.266 5.324,2.266 5.379,2.277 5.456,2.354 5.533,2.519 L 6.127,4.884 C 6.149,4.972 6.16,5.038 6.16,5.071 6.127,5.17 6.061,5.225 5.984,5.225 5.896,5.225 5.83,5.137 5.786,4.972 5.676,4.554 5.522,4.29 5.346,4.158 5.17,4.026 4.862,3.96 4.422,3.96 H 3.487 l 0.682,2.706 c 0.088,0.374 0.088,0.385 0.55,0.385 h 1.43 C 7.216,7.051 7.7,6.886 7.7,5.907 7.7,5.687 7.689,5.489 7.667,5.324 7.656,5.203 7.645,5.137 7.645,5.126 7.645,5.005 7.7,4.95 7.81,4.95 c 0.11,0 0.176,0.099 0.198,0.308 l 0.22,1.881 C 8.261,7.447 8.184,7.48 7.887,7.48 H 2.563 C 2.31,7.48 2.189,7.469 2.189,7.216 Z"
   style="stroke-width:0"
   id="path279" />
        </g></g>
        </g>
        <g
   transform="translate(77.9391,81.0961)"
   style="stroke-width:0"
   id="g287">
            <g
   class="typst-text"
   transform="scale(1,-1)"
   style="stroke-width:0"
   id="g286">
                <g
   style="stroke-width:0"
   id="g282"><path
   d="M 1.1087999,0.0231 1.9635,0 V 0.3003 C 1.6863,0.3003 1.5169,0.308 1.4629999,0.3388 1.4090999,0.3696 1.386,0.462 1.386,0.6083 V 5.3438 L 0.2541,5.2591 V 4.9665 C 0.5236,4.9665 0.693,4.9434 0.7469,4.8972 0.8008,4.851 0.8316,4.7432 0.8316,4.5661 V 0.6083 C 0.8316,0.462 0.8085,0.3696 0.7546,0.3388 0.7007,0.308 0.5313,0.3003 0.2541,0.3003 V 0 Z"
   style="stroke-width:0"
   id="path281" />
        </g><g
   transform="translate(2.1406)"
   style="stroke-width:0"
   id="g283"><path
   d="m 1.4938,4.6277 c 0,0.231 -0.1925,0.4312 -0.4235,0.4312 -0.231,0 -0.4312,-0.2002 -0.4312,-0.4312 0,-0.231 0.1925,-0.4389 0.4235,-0.4389 0.2387,0 0.4312,0.2002 0.4312,0.4389 z M 1.1011,0.0231 1.9018999,0 V 0.3003 C 1.6478,0.3003 1.4938,0.3157 1.4476,0.3465 1.4014,0.3773 1.386,0.462 1.386,0.6006 V 3.4265 L 0.2849,3.3341 V 3.0415 c 0.2541,0 0.4158,-0.0231 0.4697,-0.0616 0.0539,-0.0385 0.077,-0.1463 0.077,-0.3234 V 0.6083 C 0.8316,0.462 0.8085,0.3696 0.7546,0.3388 0.7007,0.308 0.5313,0.3003 0.2541,0.3003 V 0 Z"
   style="stroke-width:0"
   id="path282" />
        </g><g
   transform="translate(4.2812)"
   style="stroke-width:0"
   id="g284"><path
   d="m 2.4178,3.1801 c 0.3464999,0 0.5236,-0.2695 0.5236,-0.8162 V 0.6083 C 2.9414,0.462 2.9183,0.3696 2.8644,0.3388 2.8105,0.308 2.6411,0.2926 2.3562,0.2926 V 0 L 3.2417,0.0231 4.1195,0 v 0.2926 c -0.2464,0 -0.4081,0.0077 -0.4851,0.0308 -0.077,0.0231 -0.1078,0.077 -0.1078,0.1694 v 1.4399 c 0,0.3619 -0.0077,0.616 -0.0308,0.7623 -0.077,0.4697 -0.4235,0.7084 -1.0318,0.7084 -0.4851,0 -0.847,-0.231 -1.0857,-0.693 v 0.693 L 0.2464,3.3187 V 3.0261 C 0.5236,3.0261 0.693,3.003 0.7546,2.9568 0.8162,2.9106 0.8393,2.8105 0.8393,2.6334 V 0.6083 C 0.8393,0.462 0.8085,0.3696 0.7546,0.3388 0.7007,0.308 0.5313,0.2926 0.2464,0.2926 V 0 L 1.1319,0.0231 2.0097,0 V 0.2926 C 1.7248,0.2926 1.5631,0.308 1.5092,0.3388 1.4553,0.3696 1.4245,0.462 1.4245,0.6083 v 1.386 c 0,0.6237 0.3927,1.1858 0.9933,1.1858 z"
   style="stroke-width:0"
   id="path283" />
        </g><g
   transform="translate(8.5624)"
   style="stroke-width:0"
   id="g285"><path
   d="M 3.7191,0.7007 V 1.155 H 3.4726999 V 0.7007 c 0,-0.30030002 -0.0847,-0.4543 -0.2463999,-0.4543 -0.154,0 -0.2464,0.1925 -0.2464,0.3465 v 1.5169 c 0,0.2694999 -0.0308,0.4697 -0.0847,0.6083 C 2.7104,3.1724 2.1791,3.4496 1.6401,3.4496 1.0472,3.4496 0.462,3.1185 0.462,2.5641 c 0,-0.2541 0.1309,-0.385 0.385,-0.385 0.2541,0 0.3773,0.1232 0.3773,0.3773 0,0.2233 -0.1155001,0.3542 -0.3542,0.3773 0.1694,0.1925 0.4235,0.2926 0.7546,0.2926 0.4774,0 0.77,-0.4389 0.77,-0.9394 V 2.0328 C 1.7941,1.9943 1.3398,1.9018999 1.0241,1.7556 0.5082,1.5169 0.2464,1.1858 0.2464,0.7469 c 0,-0.2002 0.077,-0.3696 0.2233,-0.5005 0.2464,-0.2233 0.5852,-0.3311 1.0164,-0.3311 0.4543,0 0.7777,0.1925 0.9779,0.5852 0.0539,-0.2926 0.2695,-0.5467 0.6006,-0.5467 0.4080999,0 0.6545,0.32339998 0.6545,0.7469 z M 1.54,0.13859999 c -0.3542,0 -0.6468,0.26179999 -0.6468,0.61600001 0,0.7161 0.7469,1.0241 1.5015,1.0626 V 1.0857 C 2.3947,0.5698 2.0559,0.13859999 1.54,0.13859999 Z"
   style="stroke-width:0"
   id="path284" />
        </g></g>
        </g>
    </g>
    <defs
   id="id-886edfda-cdf6-400b-a59b-6b8dca54edb9"
   style="stroke-width:0">
        <symbol
   id="id-3b0c5962-eeae-4ae7-b61f-c1ca5dd01ab8"
   overflow="visible"
   style="stroke-width:0">
            <path
   d="m 2.189,7.216 c 0,-0.11 0.121,-0.165 0.352,-0.165 0.44,0 0.66,-0.044 0.66,-0.143 0,-0.033 -0.022,-0.11 -0.055,-0.2530003 L 1.716,0.902 C 1.65,0.65999997 1.54,0.517 1.386,0.462 1.309,0.44 1.111,0.429 0.77,0.429 0.528,0.429 0.41799998,0.407 0.41799998,0.176 0.41799998,0.055 0.484,0 0.627,0 L 2.057,0.033 3.685,0 C 3.861,0 3.949,0.088 3.949,0.253 3.949,0.44 3.828,0.429 3.542,0.429 3.058,0.429 2.783,0.451 2.717,0.506 2.684,0.517 2.673,0.561 2.673,0.616 L 3.377,3.531 H 4.4 c 0.506,0 0.858,-0.022 0.858,-0.44 C 5.258,2.948 5.236,2.772 5.181,2.563 5.17,2.53 5.159,2.486 5.148,2.442 5.148,2.321 5.203,2.266 5.324,2.266 5.379,2.277 5.456,2.354 5.533,2.519 L 6.127,4.884 C 6.149,4.972 6.16,5.038 6.16,5.071 6.127,5.17 6.061,5.225 5.984,5.225 5.896,5.225 5.83,5.137 5.786,4.972 5.676,4.554 5.522,4.29 5.346,4.158 5.17,4.026 4.862,3.96 4.422,3.96 H 3.487 l 0.682,2.706 c 0.088,0.374 0.088,0.385 0.55,0.385 h 1.43 C 7.216,7.051 7.7,6.886 7.7,5.907 7.7,5.687 7.689,5.489 7.667,5.324 7.656,5.203 7.645,5.137 7.645,5.126 7.645,5.005 7.7,4.95 7.81,4.95 c 0.11,0 0.176,0.099 0.198,0.308 l 0.22,1.881 C 8.261,7.447 8.184,7.48 7.887,7.48 H 2.563 C 2.31,7.48 2.189,7.469 2.189,7.216 Z"
   style="stroke-width:0"
   id="path288" />
        </symbol>
        <symbol
   id="id-f896ba67-f673-4102-94ee-27deaeab4ab4"
   overflow="visible"
   style="stroke-width:0">
            <path
   d="M 1.1087999,0.0231 1.9635,0 V 0.3003 C 1.6863,0.3003 1.5169,0.308 1.4629999,0.3388 1.4090999,0.3696 1.386,0.462 1.386,0.6083 V 5.3438 L 0.2541,5.2591 V 4.9665 C 0.5236,4.9665 0.693,4.9434 0.7469,4.8972 0.8008,4.851 0.8316,4.7432 0.8316,4.5661 V 0.6083 C 0.8316,0.462 0.8085,0.3696 0.7546,0.3388 0.7007,0.308 0.5313,0.3003 0.2541,0.3003 V 0 Z"
   style="stroke-width:0"
   id="path289" />
        </symbol>
        <symbol
   id="id-e0b3b6d0-fdb9-48a5-8322-264862678f6e"
   overflow="visible"
   style="stroke-width:0">
            <path
   d="m 1.4938,4.6277 c 0,0.231 -0.1925,0.4312 -0.4235,0.4312 -0.231,0 -0.4312,-0.2002 -0.4312,-0.4312 0,-0.231 0.1925,-0.4389 0.4235,-0.4389 0.2387,0 0.4312,0.2002 0.4312,0.4389 z M 1.1011,0.0231 1.9018999,0 V 0.3003 C 1.6478,0.3003 1.4938,0.3157 1.4476,0.3465 1.4014,0.3773 1.386,0.462 1.386,0.6006 V 3.4265 L 0.2849,3.3341 V 3.0415 c 0.2541,0 0.4158,-0.0231 0.4697,-0.0616 0.0539,-0.0385 0.077,-0.1463 0.077,-0.3234 V 0.6083 C 0.8316,0.462 0.8085,0.3696 0.7546,0.3388 0.7007,0.308 0.5313,0.3003 0.2541,0.3003 V 0 Z"
   style="stroke-width:0"
   id="path290" />
        </symbol>
        <symbol
   id="id-e1ccfabf-c0e5-4e92-b33c-d0b2139af11a"
   overflow="visible"
   style="stroke-width:0">
            <path
   d="m 2.4178,3.1801 c 0.3464999,0 0.5236,-0.2695 0.5236,-0.8162 V 0.6083 C 2.9414,0.462 2.9183,0.3696 2.8644,0.3388 2.8105,0.308 2.6411,0.2926 2.3562,0.2926 V 0 L 3.2417,0.0231 4.1195,0 v 0.2926 c -0.2464,0 -0.4081,0.0077 -0.4851,0.0308 -0.077,0.0231 -0.1078,0.077 -0.1078,0.1694 v 1.4399 c 0,0.3619 -0.0077,0.616 -0.0308,0.7623 -0.077,0.4697 -0.4235,0.7084 -1.0318,0.7084 -0.4851,0 -0.847,-0.231 -1.0857,-0.693 v 0.693 L 0.2464,3.3187 V 3.0261 C 0.5236,3.0261 0.693,3.003 0.7546,2.9568 0.8162,2.9106 0.8393,2.8105 0.8393,2.6334 V 0.6083 C 0.8393,0.462 0.8085,0.3696 0.7546,0.3388 0.7007,0.308 0.5313,0.2926 0.2464,0.2926 V 0 L 1.1319,0.0231 2.0097,0 V 0.2926 C 1.7248,0.2926 1.5631,0.308 1.5092,0.3388 1.4553,0.3696 1.4245,0.462 1.4245,0.6083 v 1.386 c 0,0.6237 0.3927,1.1858 0.9933,1.1858 z"
   style="stroke-width:0"
   id="path291" />
        </symbol>
        <symbol
   id="id-8a2ce967-09c4-4cf6-87b9-888125f449d4"
   overflow="visible"
   style="stroke-width:0">
            <path
   d="M 3.7191,0.7007 V 1.155 H 3.4726999 V 0.7007 c 0,-0.30030002 -0.0847,-0.4543 -0.2463999,-0.4543 -0.154,0 -0.2464,0.1925 -0.2464,0.3465 v 1.5169 c 0,0.2694999 -0.0308,0.4697 -0.0847,0.6083 C 2.7104,3.1724 2.1791,3.4496 1.6401,3.4496 1.0472,3.4496 0.462,3.1185 0.462,2.5641 c 0,-0.2541 0.1309,-0.385 0.385,-0.385 0.2541,0 0.3773,0.1232 0.3773,0.3773 0,0.2233 -0.1155001,0.3542 -0.3542,0.3773 0.1694,0.1925 0.4235,0.2926 0.7546,0.2926 0.4774,0 0.77,-0.4389 0.77,-0.9394 V 2.0328 C 1.7941,1.9943 1.3398,1.9018999 1.0241,1.7556 0.5082,1.5169 0.2464,1.1858 0.2464,0.7469 c 0,-0.2002 0.077,-0.3696 0.2233,-0.5005 0.2464,-0.2233 0.5852,-0.3311 1.0164,-0.3311 0.4543,0 0.7777,0.1925 0.9779,0.5852 0.0539,-0.2926 0.2695,-0.5467 0.6006,-0.5467 0.4080999,0 0.6545,0.32339998 0.6545,0.7469 z M 1.54,0.13859999 c -0.3542,0 -0.6468,0.26179999 -0.6468,0.61600001 0,0.7161 0.7469,1.0241 1.5015,1.0626 V 1.0857 C 2.3947,0.5698 2.0559,0.13859999 1.54,0.13859999 Z"
   style="stroke-width:0"
   id="path292" />
        </symbol>
    </defs>
</g><g
       transform="matrix(0.496528,0,0,0.496528,157.068,-46.5294)"
       ns6:version="1.11.0"
       ns6:texconverter="typst"
       ns6:pdfconverter="inkscape"
       ns6:text="$F_&quot;lina_Y&quot;$"
       ns6:preamble="/home/sermuns/.config/inkscape/extensions/textext/default_preamble_typst.typ"
       ns6:scale="1.4074798236903314"
       ns6:alignment="middle center"
       ns6:inkscapeversion="1.4"
       ns6:jacobian_sqrt="0.496528"
       style="stroke-width:0"
       id="g174"><g
   style="stroke-width:0"
   id="g304">
        <g
   transform="translate(70.8661,78.3791)"
   style="stroke-width:0"
   id="g295">
            <g
   class="typst-text"
   transform="scale(1,-1)"
   style="stroke-width:0"
   id="g294">
                <g
   style="stroke-width:0"
   id="g293"><path
   d="m 2.189,7.216 c 0,-0.11 0.121,-0.165 0.352,-0.165 0.44,0 0.66,-0.044 0.66,-0.143 0,-0.033 -0.022,-0.11 -0.055,-0.2530003 L 1.716,0.902 C 1.65,0.65999997 1.54,0.517 1.386,0.462 1.309,0.44 1.111,0.429 0.77,0.429 0.528,0.429 0.41799998,0.407 0.41799998,0.176 0.41799998,0.055 0.484,0 0.627,0 L 2.057,0.033 3.685,0 C 3.861,0 3.949,0.088 3.949,0.253 3.949,0.44 3.828,0.429 3.542,0.429 3.058,0.429 2.783,0.451 2.717,0.506 2.684,0.517 2.673,0.561 2.673,0.616 L 3.377,3.531 H 4.4 c 0.506,0 0.858,-0.022 0.858,-0.44 C 5.258,2.948 5.236,2.772 5.181,2.563 5.17,2.53 5.159,2.486 5.148,2.442 5.148,2.321 5.203,2.266 5.324,2.266 5.379,2.277 5.456,2.354 5.533,2.519 L 6.127,4.884 C 6.149,4.972 6.16,5.038 6.16,5.071 6.127,5.17 6.061,5.225 5.984,5.225 5.896,5.225 5.83,5.137 5.786,4.972 5.676,4.554 5.522,4.29 5.346,4.158 5.17,4.026 4.862,3.96 4.422,3.96 H 3.487 l 0.682,2.706 c 0.088,0.374 0.088,0.385 0.55,0.385 h 1.43 C 7.216,7.051 7.7,6.886 7.7,5.907 7.7,5.687 7.689,5.489 7.667,5.324 7.656,5.203 7.645,5.137 7.645,5.126 7.645,5.005 7.7,4.95 7.81,4.95 c 0.11,0 0.176,0.099 0.198,0.308 l 0.22,1.881 C 8.261,7.447 8.184,7.48 7.887,7.48 H 2.563 C 2.31,7.48 2.189,7.469 2.189,7.216 Z"
   style="stroke-width:0"
   id="path293" />
        </g></g>
        </g>
        <g
   transform="translate(77.9391,81.0961)"
   style="stroke-width:0"
   id="g303">
            <g
   class="typst-text"
   transform="scale(1,-1)"
   style="stroke-width:0"
   id="g302">
                <g
   style="stroke-width:0"
   id="g296"><path
   d="M 1.1087999,0.0231 1.9635,0 V 0.3003 C 1.6863,0.3003 1.5169,0.308 1.4629999,0.3388 1.4090999,0.3696 1.386,0.462 1.386,0.6083 V 5.3438 L 0.2541,5.2591 V 4.9665 C 0.5236,4.9665 0.693,4.9434 0.7469,4.8972 0.8008,4.851 0.8316,4.7432 0.8316,4.5661 V 0.6083 C 0.8316,0.462 0.8085,0.3696 0.7546,0.3388 0.7007,0.308 0.5313,0.3003 0.2541,0.3003 V 0 Z"
   style="stroke-width:0"
   id="path295" />
        </g><g
   transform="translate(2.1406)"
   style="stroke-width:0"
   id="g297"><path
   d="m 1.4938,4.6277 c 0,0.231 -0.1925,0.4312 -0.4235,0.4312 -0.231,0 -0.4312,-0.2002 -0.4312,-0.4312 0,-0.231 0.1925,-0.4389 0.4235,-0.4389 0.2387,0 0.4312,0.2002 0.4312,0.4389 z M 1.1011,0.0231 1.9018999,0 V 0.3003 C 1.6478,0.3003 1.4938,0.3157 1.4476,0.3465 1.4014,0.3773 1.386,0.462 1.386,0.6006 V 3.4265 L 0.2849,3.3341 V 3.0415 c 0.2541,0 0.4158,-0.0231 0.4697,-0.0616 0.0539,-0.0385 0.077,-0.1463 0.077,-0.3234 V 0.6083 C 0.8316,0.462 0.8085,0.3696 0.7546,0.3388 0.7007,0.308 0.5313,0.3003 0.2541,0.3003 V 0 Z"
   style="stroke-width:0"
   id="path296" />
        </g><g
   transform="translate(4.2812)"
   style="stroke-width:0"
   id="g298"><path
   d="m 2.4178,3.1801 c 0.3464999,0 0.5236,-0.2695 0.5236,-0.8162 V 0.6083 C 2.9414,0.462 2.9183,0.3696 2.8644,0.3388 2.8105,0.308 2.6411,0.2926 2.3562,0.2926 V 0 L 3.2417,0.0231 4.1195,0 v 0.2926 c -0.2464,0 -0.4081,0.0077 -0.4851,0.0308 -0.077,0.0231 -0.1078,0.077 -0.1078,0.1694 v 1.4399 c 0,0.3619 -0.0077,0.616 -0.0308,0.7623 -0.077,0.4697 -0.4235,0.7084 -1.0318,0.7084 -0.4851,0 -0.847,-0.231 -1.0857,-0.693 v 0.693 L 0.2464,3.3187 V 3.0261 C 0.5236,3.0261 0.693,3.003 0.7546,2.9568 0.8162,2.9106 0.8393,2.8105 0.8393,2.6334 V 0.6083 C 0.8393,0.462 0.8085,0.3696 0.7546,0.3388 0.7007,0.308 0.5313,0.2926 0.2464,0.2926 V 0 L 1.1319,0.0231 2.0097,0 V 0.2926 C 1.7248,0.2926 1.5631,0.308 1.5092,0.3388 1.4553,0.3696 1.4245,0.462 1.4245,0.6083 v 1.386 c 0,0.6237 0.3927,1.1858 0.9933,1.1858 z"
   style="stroke-width:0"
   id="path297" />
        </g><g
   transform="translate(8.5624)"
   style="stroke-width:0"
   id="g299"><path
   d="M 3.7191,0.7007 V 1.155 H 3.4726999 V 0.7007 c 0,-0.30030002 -0.0847,-0.4543 -0.2463999,-0.4543 -0.154,0 -0.2464,0.1925 -0.2464,0.3465 v 1.5169 c 0,0.2694999 -0.0308,0.4697 -0.0847,0.6083 C 2.7104,3.1724 2.1791,3.4496 1.6401,3.4496 1.0472,3.4496 0.462,3.1185 0.462,2.5641 c 0,-0.2541 0.1309,-0.385 0.385,-0.385 0.2541,0 0.3773,0.1232 0.3773,0.3773 0,0.2233 -0.1155001,0.3542 -0.3542,0.3773 0.1694,0.1925 0.4235,0.2926 0.7546,0.2926 0.4774,0 0.77,-0.4389 0.77,-0.9394 V 2.0328 C 1.7941,1.9943 1.3398,1.9018999 1.0241,1.7556 0.5082,1.5169 0.2464,1.1858 0.2464,0.7469 c 0,-0.2002 0.077,-0.3696 0.2233,-0.5005 0.2464,-0.2233 0.5852,-0.3311 1.0164,-0.3311 0.4543,0 0.7777,0.1925 0.9779,0.5852 0.0539,-0.2926 0.2695,-0.5467 0.6006,-0.5467 0.4080999,0 0.6545,0.32339998 0.6545,0.7469 z M 1.54,0.13859999 c -0.3542,0 -0.6468,0.26179999 -0.6468,0.61600001 0,0.7161 0.7469,1.0241 1.5015,1.0626 V 1.0857 C 2.3947,0.5698 2.0559,0.13859999 1.54,0.13859999 Z"
   style="stroke-width:0"
   id="path298" />
        </g><g
   transform="translate(12.4124)"
   style="stroke-width:0"
   id="g300"><path
   d="M 0,-1.078 H 2.5641 V -0.77 H 0 Z"
   style="stroke-width:0"
   id="path299" />
        </g><g
   transform="translate(14.9765)"
   style="stroke-width:0"
   id="g301"><path
   d="m 4.4351997,4.697 c 0,-0.0693 -0.0231,-0.1386 -0.077,-0.2156 L 3.1339,2.4871 1.7787,4.6893 C 1.7479,4.7432 1.7325,4.7817 1.7325,4.8048 c 0,0.1001 0.1771,0.154 0.5313,0.154 V 5.2591 C 1.9327,5.236 1.5477,5.2283 1.1087999,5.236 L 0.0847,5.2591 V 4.9588 H 0.2541 C 0.6237,4.9588 0.7777,4.928 0.924,4.697 L 2.5256,2.1021 V 0.6237 C 2.5256,0.4851 2.4948,0.3927 2.4332,0.3542 2.3716,0.3157 2.2175999,0.3003 1.9481,0.3003 H 1.7402 V 0 C 1.9404,0.0154 2.3177,0.0231 2.8798,0.0231 3.4419,0.0231 3.8192,0.0154 4.0194,0 V 0.3003 H 3.8192 C 3.5497,0.3003 3.388,0.3157 3.3264,0.3542 3.2648,0.3927 3.234,0.4928 3.234,0.6391 v 1.463 L 4.7047,4.4814 C 4.8972,4.7971 5.2283,4.9588 5.6826,4.9588 V 5.2591 C 5.3515,5.236 5.0974,5.2283 4.9049,5.236 L 3.9963,5.2591 V 4.9588 c 0.2541,0 0.4388997,-0.0539 0.4388997,-0.2618 z"
   style="stroke-width:0"
   id="path300" />
        </g></g>
        </g>
    </g>
    <defs
   id="id-d006980d-e039-4149-88a1-6d62e4244133"
   style="stroke-width:0">
        <symbol
   id="id-4680e7c6-eb8c-4283-b7cd-1fbfaa3ece5b"
   overflow="visible"
   style="stroke-width:0">
            <path
   d="m 2.189,7.216 c 0,-0.11 0.121,-0.165 0.352,-0.165 0.44,0 0.66,-0.044 0.66,-0.143 0,-0.033 -0.022,-0.11 -0.055,-0.2530003 L 1.716,0.902 C 1.65,0.65999997 1.54,0.517 1.386,0.462 1.309,0.44 1.111,0.429 0.77,0.429 0.528,0.429 0.41799998,0.407 0.41799998,0.176 0.41799998,0.055 0.484,0 0.627,0 L 2.057,0.033 3.685,0 C 3.861,0 3.949,0.088 3.949,0.253 3.949,0.44 3.828,0.429 3.542,0.429 3.058,0.429 2.783,0.451 2.717,0.506 2.684,0.517 2.673,0.561 2.673,0.616 L 3.377,3.531 H 4.4 c 0.506,0 0.858,-0.022 0.858,-0.44 C 5.258,2.948 5.236,2.772 5.181,2.563 5.17,2.53 5.159,2.486 5.148,2.442 5.148,2.321 5.203,2.266 5.324,2.266 5.379,2.277 5.456,2.354 5.533,2.519 L 6.127,4.884 C 6.149,4.972 6.16,5.038 6.16,5.071 6.127,5.17 6.061,5.225 5.984,5.225 5.896,5.225 5.83,5.137 5.786,4.972 5.676,4.554 5.522,4.29 5.346,4.158 5.17,4.026 4.862,3.96 4.422,3.96 H 3.487 l 0.682,2.706 c 0.088,0.374 0.088,0.385 0.55,0.385 h 1.43 C 7.216,7.051 7.7,6.886 7.7,5.907 7.7,5.687 7.689,5.489 7.667,5.324 7.656,5.203 7.645,5.137 7.645,5.126 7.645,5.005 7.7,4.95 7.81,4.95 c 0.11,0 0.176,0.099 0.198,0.308 l 0.22,1.881 C 8.261,7.447 8.184,7.48 7.887,7.48 H 2.563 C 2.31,7.48 2.189,7.469 2.189,7.216 Z"
   style="stroke-width:0"
   id="path304" />
        </symbol>
        <symbol
   id="id-24e7cb20-74db-44bd-9eed-929976346403"
   overflow="visible"
   style="stroke-width:0">
            <path
   d="M 1.1087999,0.0231 1.9635,0 V 0.3003 C 1.6863,0.3003 1.5169,0.308 1.4629999,0.3388 1.4090999,0.3696 1.386,0.462 1.386,0.6083 V 5.3438 L 0.2541,5.2591 V 4.9665 C 0.5236,4.9665 0.693,4.9434 0.7469,4.8972 0.8008,4.851 0.8316,4.7432 0.8316,4.5661 V 0.6083 C 0.8316,0.462 0.8085,0.3696 0.7546,0.3388 0.7007,0.308 0.5313,0.3003 0.2541,0.3003 V 0 Z"
   style="stroke-width:0"
   id="path305" />
        </symbol>
        <symbol
   id="id-87cf6cf9-5445-4339-8739-e95280d8949e"
   overflow="visible"
   style="stroke-width:0">
            <path
   d="m 1.4938,4.6277 c 0,0.231 -0.1925,0.4312 -0.4235,0.4312 -0.231,0 -0.4312,-0.2002 -0.4312,-0.4312 0,-0.231 0.1925,-0.4389 0.4235,-0.4389 0.2387,0 0.4312,0.2002 0.4312,0.4389 z M 1.1011,0.0231 1.9018999,0 V 0.3003 C 1.6478,0.3003 1.4938,0.3157 1.4476,0.3465 1.4014,0.3773 1.386,0.462 1.386,0.6006 V 3.4265 L 0.2849,3.3341 V 3.0415 c 0.2541,0 0.4158,-0.0231 0.4697,-0.0616 0.0539,-0.0385 0.077,-0.1463 0.077,-0.3234 V 0.6083 C 0.8316,0.462 0.8085,0.3696 0.7546,0.3388 0.7007,0.308 0.5313,0.3003 0.2541,0.3003 V 0 Z"
   style="stroke-width:0"
   id="path306" />
        </symbol>
        <symbol
   id="id-7bc59b35-ea25-4767-9b2f-1eece05ffa0c"
   overflow="visible"
   style="stroke-width:0">
            <path
   d="m 2.4178,3.1801 c 0.3464999,0 0.5236,-0.2695 0.5236,-0.8162 V 0.6083 C 2.9414,0.462 2.9183,0.3696 2.8644,0.3388 2.8105,0.308 2.6411,0.2926 2.3562,0.2926 V 0 L 3.2417,0.0231 4.1195,0 v 0.2926 c -0.2464,0 -0.4081,0.0077 -0.4851,0.0308 -0.077,0.0231 -0.1078,0.077 -0.1078,0.1694 v 1.4399 c 0,0.3619 -0.0077,0.616 -0.0308,0.7623 -0.077,0.4697 -0.4235,0.7084 -1.0318,0.7084 -0.4851,0 -0.847,-0.231 -1.0857,-0.693 v 0.693 L 0.2464,3.3187 V 3.0261 C 0.5236,3.0261 0.693,3.003 0.7546,2.9568 0.8162,2.9106 0.8393,2.8105 0.8393,2.6334 V 0.6083 C 0.8393,0.462 0.8085,0.3696 0.7546,0.3388 0.7007,0.308 0.5313,0.2926 0.2464,0.2926 V 0 L 1.1319,0.0231 2.0097,0 V 0.2926 C 1.7248,0.2926 1.5631,0.308 1.5092,0.3388 1.4553,0.3696 1.4245,0.462 1.4245,0.6083 v 1.386 c 0,0.6237 0.3927,1.1858 0.9933,1.1858 z"
   style="stroke-width:0"
   id="path307" />
        </symbol>
        <symbol
   id="id-d635245c-f29e-4288-aced-3670cb5747ab"
   overflow="visible"
   style="stroke-width:0">
            <path
   d="M 3.7191,0.7007 V 1.155 H 3.4726999 V 0.7007 c 0,-0.30030002 -0.0847,-0.4543 -0.2463999,-0.4543 -0.154,0 -0.2464,0.1925 -0.2464,0.3465 v 1.5169 c 0,0.2694999 -0.0308,0.4697 -0.0847,0.6083 C 2.7104,3.1724 2.1791,3.4496 1.6401,3.4496 1.0472,3.4496 0.462,3.1185 0.462,2.5641 c 0,-0.2541 0.1309,-0.385 0.385,-0.385 0.2541,0 0.3773,0.1232 0.3773,0.3773 0,0.2233 -0.1155001,0.3542 -0.3542,0.3773 0.1694,0.1925 0.4235,0.2926 0.7546,0.2926 0.4774,0 0.77,-0.4389 0.77,-0.9394 V 2.0328 C 1.7941,1.9943 1.3398,1.9018999 1.0241,1.7556 0.5082,1.5169 0.2464,1.1858 0.2464,0.7469 c 0,-0.2002 0.077,-0.3696 0.2233,-0.5005 0.2464,-0.2233 0.5852,-0.3311 1.0164,-0.3311 0.4543,0 0.7777,0.1925 0.9779,0.5852 0.0539,-0.2926 0.2695,-0.5467 0.6006,-0.5467 0.4080999,0 0.6545,0.32339998 0.6545,0.7469 z M 1.54,0.13859999 c -0.3542,0 -0.6468,0.26179999 -0.6468,0.61600001 0,0.7161 0.7469,1.0241 1.5015,1.0626 V 1.0857 C 2.3947,0.5698 2.0559,0.13859999 1.54,0.13859999 Z"
   style="stroke-width:0"
   id="path308" />
        </symbol>
        <symbol
   id="id-bb55fcd1-c1e6-4587-9bed-711a4448a0eb"
   overflow="visible"
   style="stroke-width:0">
            <path
   d="M 0,-1.078 H 2.5641 V -0.77 H 0 Z"
   style="stroke-width:0"
   id="path309" />
        </symbol>
        <symbol
   id="id-968ddafa-4a21-42c3-87f3-b8418b319855"
   overflow="visible"
   style="stroke-width:0">
            <path
   d="m 4.4351997,4.697 c 0,-0.0693 -0.0231,-0.1386 -0.077,-0.2156 L 3.1339,2.4871 1.7787,4.6893 C 1.7479,4.7432 1.7325,4.7817 1.7325,4.8048 c 0,0.1001 0.1771,0.154 0.5313,0.154 V 5.2591 C 1.9327,5.236 1.5477,5.2283 1.1087999,5.236 L 0.0847,5.2591 V 4.9588 H 0.2541 C 0.6237,4.9588 0.7777,4.928 0.924,4.697 L 2.5256,2.1021 V 0.6237 C 2.5256,0.4851 2.4948,0.3927 2.4332,0.3542 2.3716,0.3157 2.2175999,0.3003 1.9481,0.3003 H 1.7402 V 0 C 1.9404,0.0154 2.3177,0.0231 2.8798,0.0231 3.4419,0.0231 3.8192,0.0154 4.0194,0 V 0.3003 H 3.8192 C 3.5497,0.3003 3.388,0.3157 3.3264,0.3542 3.2648,0.3927 3.234,0.4928 3.234,0.6391 v 1.463 L 4.7047,4.4814 C 4.8972,4.7971 5.2283,4.9588 5.6826,4.9588 V 5.2591 C 5.3515,5.236 5.0974,5.2283 4.9049,5.236 L 3.9963,5.2591 V 4.9588 c 0.2541,0 0.4388997,-0.0539 0.4388997,-0.2618 z"
   style="stroke-width:0"
   id="path310" />
        </symbol>
    </defs>
</g></g></svg>
