<svg xmlns="http://www.w3.org/2000/svg" xml:lang="en" height="154.5pt" width="117.2pt" viewBox="-112.6 -136.4 117.2 154.5"><path d="M 0.0,-0.0 L -50.625,-6.1997744206834756e-15 M -57.375,-7.0264110101079386e-15 L -108.0,-1.3226185430791413e-14" style="stroke:black;fill:none;stroke-width:2.0;stroke-linecap:round;stroke-linejoin:round;" /><path d="M -50.625,13.499999999999995 L -50.625,-13.500000000000005" style="stroke:black;fill:none;stroke-width:2.0;stroke-linecap:round;stroke-linejoin:round;" /><path d="M -57.375,6.749999999999993 L -57.375,-6.750000000000007" style="stroke:black;fill:none;stroke-width:2.0;stroke-linecap:round;stroke-linejoin:round;" /><path d="M -108.0,-1.3226185430791413e-14 L -108.0,-27.00000000000001 L -108.0,-54.000000000000014" style="stroke:black;fill:none;stroke-width:2.0;stroke-linecap:round;stroke-linejoin:round;" /><path d="M -108.0,-54.000000000000014 L -72.0,-54.000000000000014 L -72.0,-63.000000000000014 L -36.0,-63.000000000000014 L -36.0,-45.000000000000014 L -72.0,-45.000000000000014 L -72.0,-54.000000000000014 M -36.0,-54.000000000000014 L 0.0,-54.000000000000014" style="stroke:black;fill:none;stroke-width:2.0;stroke-linecap:round;stroke-linejoin:round;" /><path d="M -108.0,-54.000000000000014 L -108.0,-81.00000000000001 L -108.0,-108.00000000000001" style="stroke:black;fill:none;stroke-width:2.0;stroke-linecap:round;stroke-linejoin:round;" /><path d="M -108.0,-108.00000000000001 L -72.0,-108.00000000000001 L -72.0,-117.00000000000001 L -36.0,-117.00000000000001 L -36.0,-99.00000000000001 L -72.0,-99.00000000000001 L -72.0,-108.00000000000001 M -36.0,-108.00000000000001 L 0.0,-108.00000000000001" style="stroke:black;fill:none;stroke-width:2.0;stroke-linecap:round;stroke-linejoin:round;" /><path d="M 0.0,-108.00000000000001 L -9.919639073093561e-15,-54.000000000000014 L -1.9839278146187122e-14,-1.5987211554602254e-14" style="stroke:black;fill:none;stroke-width:2.0;stroke-linecap:round;stroke-linejoin:round;" /><g><g><g><path d="M -64.218 -26.9 C -64.218 -26.9 -64.218 -27.054 -64.4 -27.054 C -64.862 -27.054 -65.352 -27.012 -65.828 -27.012 C -66.304 -27.012 -66.822 -27.012 -67.284 -27.012 C -67.368 -27.012 -67.536 -27.012 -67.536 -26.732 C -67.536 -26.578 -67.396 -26.578 -67.284 -26.578 C -66.486 -26.564 -66.332 -26.27 -66.332 -25.962 C -66.332 -25.92 -66.36 -25.71 -66.374 -25.668 L -67.634 -20.67 C -68.11 -18.794 -69.72 -17.576 -71.12 -17.576 C -72.072 -17.576 -72.828 -18.192 -72.828 -19.396 C -72.828 -19.396 -72.828 -19.872 -72.674 -20.488 L -71.316 -25.934 C -71.19 -26.438 -71.162 -26.578 -70.14 -26.578 C -69.776 -26.578 -69.664 -26.578 -69.664 -26.858 C -69.664 -27.012 -69.818 -27.012 -69.86 -27.012 C -69.86 -27.012 -71.652 -26.97 -71.652 -26.97 C -71.652 -26.97 -73.458 -26.97 -73.458 -26.97 C -73.57 -26.97 -73.724 -26.97 -73.724 -26.69 C -73.724 -26.536 -73.598 -26.536 -73.332 -26.536 C -73.332 -26.536 -73.038 -26.536 -72.8 -26.508 C -72.548 -26.48 -72.422 -26.466 -72.422 -26.284 C -72.422 -26.2 -72.576 -25.612 -72.66 -25.29 L -72.968 -24.058 L -73.822 -20.6 C -73.92 -20.208 -73.92 -19.998 -73.92 -19.788 C -73.92 -18.08 -72.646 -17.1 -71.176 -17.1 C -69.412 -17.1 -67.676 -18.682 -67.214 -20.53 L -65.968 -25.5 C -65.828 -26.074 -65.576 -26.494 -64.456 -26.536 C -64.386 -26.536 -64.218 -26.55 -64.218 -26.816 Z " fill="black" /><path d="M -48.927 -22.35 C -48.927 -22.504 -49.053 -22.63 -49.207 -22.63 L -57.971 -22.63 C -58.125 -22.63 -58.251 -22.504 -58.251 -22.35 C -58.251 -22.196 -58.125 -22.07 -57.971 -22.07 L -49.207 -22.07 C -49.053 -22.07 -48.927 -22.196 -48.927 -22.35 Z M -48.927 -19.634 C -48.927 -19.788 -49.053 -19.914 -49.207 -19.914 L -57.971 -19.914 C -58.125 -19.914 -58.251 -19.788 -58.251 -19.634 C -58.251 -19.48 -58.125 -19.354 -57.971 -19.354 L -49.207 -19.354 C -49.053 -19.354 -48.927 -19.48 -48.927 -19.634 Z " fill="black" /><path d="M -35.075 -25.472 C -35.075 -26.284 -35.635 -27.362 -37.721 -27.362 C -39.233 -27.362 -40.101 -26.41 -40.101 -25.5 C -40.101 -25.024 -39.779 -24.828 -39.457 -24.828 C -39.065 -24.828 -38.813 -25.108 -38.813 -25.472 C -38.813 -26.102 -39.401 -26.102 -39.597 -26.102 C -39.163 -26.844 -38.351 -27.054 -37.763 -27.054 C -36.237 -27.054 -36.237 -26.102 -36.237 -25.556 C -36.237 -24.73 -36.461 -24.478 -36.713 -24.226 C -37.637 -23.218 -37.945 -21.93 -37.945 -21.076 L -37.945 -20.446 C -37.945 -20.194 -37.945 -20.11 -37.777 -20.11 C -37.595 -20.11 -37.595 -20.236 -37.595 -20.488 L -37.595 -20.978 C -37.595 -22.742 -36.237 -23.736 -35.747 -24.1 C -35.369 -24.38 -35.075 -24.884 -35.075 -25.472 Z M -37.035 -18.234 C -37.035 -18.64 -37.371 -18.976 -37.777 -18.976 C -38.183 -18.976 -38.519 -18.64 -38.519 -18.234 C -38.519 -17.828 -38.183 -17.492 -37.777 -17.492 C -37.371 -17.492 -37.035 -17.828 -37.035 -18.234 Z " fill="black" /></g></g></g><g><g><g><path d="M -68.778 -77.8 C -68.778 -77.324 -69.002 -76.358 -69.548 -75.812 C -69.912 -75.448 -70.654 -75 -71.914 -75 L -73.482 -75 L -72.572 -78.654 C -72.488 -78.99 -72.446 -79.13 -72.18 -79.172 C -72.054 -79.186 -71.606 -79.186 -71.326 -79.186 C -70.332 -79.186 -68.778 -79.186 -68.778 -77.8 Z M -67.252 -71.36 C -67.252 -71.528 -67.42 -71.528 -67.42 -71.528 C -67.546 -71.528 -67.574 -71.43 -67.602 -71.332 C -67.952 -70.296 -68.554 -70.058 -68.876 -70.058 C -69.338 -70.058 -69.436 -70.366 -69.436 -70.912 C -69.436 -71.346 -69.352 -72.06 -69.296 -72.508 C -69.268 -72.704 -69.24 -72.97 -69.24 -73.166 C -69.24 -74.244 -70.178 -74.678 -70.556 -74.818 C -69.142 -75.126 -67.476 -76.106 -67.476 -77.52 C -67.476 -78.724 -68.736 -79.62 -70.57 -79.62 L -74.56 -79.62 C -74.84 -79.62 -74.966 -79.62 -74.966 -79.34 C -74.966 -79.186 -74.84 -79.186 -74.574 -79.186 C -74.574 -79.186 -74.28 -79.186 -74.042 -79.158 C -73.79 -79.13 -73.664 -79.116 -73.664 -78.934 C -73.664 -78.878 -73.678 -78.836 -73.72 -78.668 L -75.596 -71.15 C -75.736 -70.604 -75.764 -70.492 -76.87 -70.492 C -77.122 -70.492 -77.248 -70.492 -77.248 -70.212 C -77.248 -70.058 -77.052 -70.058 -77.052 -70.058 C -77.052 -70.058 -75.288 -70.1 -75.288 -70.1 C -75.288 -70.1 -73.51 -70.1 -73.51 -70.1 C -73.398 -70.1 -73.23 -70.1 -73.23 -70.38 C -73.23 -70.534 -73.356 -70.534 -73.622 -70.534 C -74.14 -70.534 -74.532 -70.534 -74.532 -70.786 C -74.532 -70.87 -74.504 -70.94 -74.49 -71.024 L -73.566 -74.734 L -71.9 -74.734 C -70.626 -74.734 -70.374 -73.95 -70.374 -73.46 C -70.374 -73.25 -70.486 -72.816 -70.57 -72.494 C -70.668 -72.102 -70.794 -71.584 -70.794 -71.304 C -70.794 -69.792 -69.114 -69.792 -68.932 -69.792 C -67.742 -69.792 -67.252 -71.206 -67.252 -71.402 Z " fill="black" /><path d="M -62.247 -68.384 L -62.58 -68.384 C -62.609 -68.168 -62.707 -67.59 -62.835 -67.492 C -62.913 -67.433 -63.668 -67.433 -63.805 -67.433 L -65.608 -67.433 C -64.579 -68.344 -64.236 -68.619 -63.648 -69.079 C -62.923 -69.658 -62.247 -70.265 -62.247 -71.196 C -62.247 -72.382 -63.285 -73.107 -64.54 -73.107 C -65.755 -73.107 -66.578 -72.255 -66.578 -71.353 C -66.578 -70.853 -66.157 -70.804 -66.059 -70.804 C -65.824 -70.804 -65.539 -70.971 -65.539 -71.324 C -65.539 -71.5 -65.608 -71.843 -66.118 -71.843 C -65.814 -72.539 -65.147 -72.754 -64.687 -72.754 C -63.707 -72.754 -63.197 -71.99 -63.197 -71.196 C -63.197 -70.344 -63.805 -69.667 -64.118 -69.315 L -66.48 -66.982 C -66.578 -66.894 -66.578 -66.874 -66.578 -66.6 L -62.541 -66.6 Z " fill="black" /><path d="M -46.327 -74.916 C -46.327 -75.07 -46.453 -75.196 -46.607 -75.196 L -55.371 -75.196 C -55.525 -75.196 -55.651 -75.07 -55.651 -74.916 C -55.651 -74.762 -55.525 -74.636 -55.371 -74.636 L -46.607 -74.636 C -46.453 -74.636 -46.327 -74.762 -46.327 -74.916 Z M -46.327 -72.2 C -46.327 -72.354 -46.453 -72.48 -46.607 -72.48 L -55.371 -72.48 C -55.525 -72.48 -55.651 -72.354 -55.651 -72.2 C -55.651 -72.046 -55.525 -71.92 -55.371 -71.92 L -46.607 -71.92 C -46.453 -71.92 -46.327 -72.046 -46.327 -72.2 Z " fill="black" /><path d="M -32.476 -78.038 C -32.476 -78.85 -33.036 -79.928 -35.122 -79.928 C -36.634 -79.928 -37.502 -78.976 -37.502 -78.066 C -37.502 -77.59 -37.18 -77.394 -36.858 -77.394 C -36.466 -77.394 -36.214 -77.674 -36.214 -78.038 C -36.214 -78.668 -36.802 -78.668 -36.998 -78.668 C -36.564 -79.41 -35.752 -79.62 -35.164 -79.62 C -33.638 -79.62 -33.638 -78.668 -33.638 -78.122 C -33.638 -77.296 -33.862 -77.044 -34.114 -76.792 C -35.038 -75.784 -35.346 -74.496 -35.346 -73.642 L -35.346 -73.012 C -35.346 -72.76 -35.346 -72.676 -35.178 -72.676 C -34.996 -72.676 -34.996 -72.802 -34.996 -73.054 L -34.996 -73.544 C -34.996 -75.308 -33.638 -76.302 -33.148 -76.666 C -32.77 -76.946 -32.476 -77.45 -32.476 -78.038 Z M -34.436 -70.8 C -34.436 -71.206 -34.772 -71.542 -35.178 -71.542 C -35.584 -71.542 -35.92 -71.206 -35.92 -70.8 C -35.92 -70.394 -35.584 -70.058 -35.178 -70.058 C -34.772 -70.058 -34.436 -70.394 -34.436 -70.8 Z " fill="black" /></g></g></g><g><g><g><path d="M -78.954 -131.8 C -78.954 -131.324 -79.178 -130.358 -79.724 -129.812 C -80.088 -129.448 -80.83 -129 -82.09 -129 L -83.658 -129 L -82.748 -132.654 C -82.664 -132.99 -82.622 -133.13 -82.356 -133.172 C -82.23 -133.186 -81.782 -133.186 -81.502 -133.186 C -80.508 -133.186 -78.954 -133.186 -78.954 -131.8 Z M -77.428 -125.36 C -77.428 -125.528 -77.596 -125.528 -77.596 -125.528 C -77.722 -125.528 -77.75 -125.43 -77.778 -125.332 C -78.128 -124.296 -78.73 -124.058 -79.052 -124.058 C -79.514 -124.058 -79.612 -124.366 -79.612 -124.912 C -79.612 -125.346 -79.528 -126.06 -79.472 -126.508 C -79.444 -126.704 -79.416 -126.97 -79.416 -127.166 C -79.416 -128.244 -80.354 -128.678 -80.732 -128.818 C -79.318 -129.126 -77.652 -130.106 -77.652 -131.52 C -77.652 -132.724 -78.912 -133.62 -80.746 -133.62 L -84.736 -133.62 C -85.016 -133.62 -85.142 -133.62 -85.142 -133.34 C -85.142 -133.186 -85.016 -133.186 -84.75 -133.186 C -84.75 -133.186 -84.456 -133.186 -84.218 -133.158 C -83.966 -133.13 -83.84 -133.116 -83.84 -132.934 C -83.84 -132.878 -83.854 -132.836 -83.896 -132.668 L -85.772 -125.15 C -85.912 -124.604 -85.94 -124.492 -87.046 -124.492 C -87.298 -124.492 -87.424 -124.492 -87.424 -124.212 C -87.424 -124.058 -87.228 -124.058 -87.228 -124.058 C -87.228 -124.058 -85.464 -124.1 -85.464 -124.1 C -85.464 -124.1 -83.686 -124.1 -83.686 -124.1 C -83.574 -124.1 -83.406 -124.1 -83.406 -124.38 C -83.406 -124.534 -83.532 -124.534 -83.798 -124.534 C -84.316 -124.534 -84.708 -124.534 -84.708 -124.786 C -84.708 -124.87 -84.68 -124.94 -84.666 -125.024 L -83.742 -128.734 L -82.076 -128.734 C -80.802 -128.734 -80.55 -127.95 -80.55 -127.46 C -80.55 -127.25 -80.662 -126.816 -80.746 -126.494 C -80.844 -126.102 -80.97 -125.584 -80.97 -125.304 C -80.97 -123.792 -79.29 -123.792 -79.108 -123.792 C -77.918 -123.792 -77.428 -125.206 -77.428 -125.402 Z " fill="black" /><path d="M -72.737 -120.6 L -72.737 -120.953 L -73.109 -120.953 C -74.089 -120.953 -74.089 -121.08 -74.089 -121.404 L -74.089 -126.833 C -74.089 -127.097 -74.109 -127.107 -74.383 -127.107 C -75.01 -126.49 -75.902 -126.48 -76.304 -126.48 L -76.304 -126.127 C -76.069 -126.127 -75.422 -126.127 -74.883 -126.402 L -74.883 -121.404 C -74.883 -121.08 -74.883 -120.953 -75.863 -120.953 L -76.235 -120.953 L -76.235 -120.6 C -76.235 -120.6 -74.491 -120.639 -74.491 -120.639 C -74.491 -120.639 -72.737 -120.639 -72.737 -120.639 Z " fill="black" /><path d="M -56.504 -128.916 C -56.504 -129.07 -56.63 -129.196 -56.784 -129.196 L -65.548 -129.196 C -65.702 -129.196 -65.828 -129.07 -65.828 -128.916 C -65.828 -128.762 -65.702 -128.636 -65.548 -128.636 L -56.784 -128.636 C -56.63 -128.636 -56.504 -128.762 -56.504 -128.916 Z M -56.504 -126.2 C -56.504 -126.354 -56.63 -126.48 -56.784 -126.48 L -65.548 -126.48 C -65.702 -126.48 -65.828 -126.354 -65.828 -126.2 C -65.828 -126.046 -65.702 -125.92 -65.548 -125.92 L -56.784 -125.92 C -56.63 -125.92 -56.504 -126.046 -56.504 -126.2 Z " fill="black" /><path d="M -44.67 -124.058 L -44.67 -124.492 L -45.118 -124.492 C -46.378 -124.492 -46.42 -124.646 -46.42 -125.164 L -46.42 -133.018 C -46.42 -133.354 -46.42 -133.382 -46.742 -133.382 C -47.61 -132.486 -48.842 -132.486 -49.29 -132.486 L -49.29 -132.052 C -49.01 -132.052 -48.184 -132.052 -47.456 -132.416 L -47.456 -125.164 C -47.456 -124.66 -47.498 -124.492 -48.758 -124.492 L -49.206 -124.492 L -49.206 -124.058 C -48.716 -124.1 -47.498 -124.1 -46.938 -124.1 C -46.378 -124.1 -45.16 -124.1 -44.67 -124.1 Z " fill="black" /><path d="M -37.096 -128.538 C -37.096 -129.658 -37.166 -130.778 -37.656 -131.814 C -38.3 -133.158 -39.448 -133.382 -40.036 -133.382 C -40.876 -133.382 -41.898 -133.018 -42.472 -131.716 C -42.92 -130.75 -42.99 -129.658 -42.99 -128.538 C -42.99 -127.488 -42.934 -126.228 -42.36 -125.164 C -41.758 -124.03 -40.736 -123.75 -40.05 -123.75 C -39.294 -123.75 -38.23 -124.044 -37.614 -125.374 C -37.166 -126.34 -37.096 -127.432 -37.096 -128.538 Z M -38.258 -128.706 C -38.258 -127.656 -38.258 -126.704 -38.412 -125.808 C -38.622 -124.478 -39.42 -124.058 -40.05 -124.058 C -40.596 -124.058 -41.422 -124.408 -41.674 -125.752 C -41.828 -126.592 -41.828 -127.88 -41.828 -128.706 C -41.828 -129.602 -41.828 -130.526 -41.716 -131.282 C -41.45 -132.948 -40.4 -133.074 -40.05 -133.074 C -39.588 -133.074 -38.664 -132.822 -38.398 -131.436 C -38.258 -130.652 -38.258 -129.588 -38.258 -128.706 Z " fill="black" /><path d="M -30.096 -128.538 C -30.096 -129.658 -30.166 -130.778 -30.656 -131.814 C -31.3 -133.158 -32.448 -133.382 -33.036 -133.382 C -33.876 -133.382 -34.898 -133.018 -35.472 -131.716 C -35.92 -130.75 -35.99 -129.658 -35.99 -128.538 C -35.99 -127.488 -35.934 -126.228 -35.36 -125.164 C -34.758 -124.03 -33.736 -123.75 -33.05 -123.75 C -32.294 -123.75 -31.23 -124.044 -30.614 -125.374 C -30.166 -126.34 -30.096 -127.432 -30.096 -128.538 Z M -31.258 -128.706 C -31.258 -127.656 -31.258 -126.704 -31.412 -125.808 C -31.622 -124.478 -32.42 -124.058 -33.05 -124.058 C -33.596 -124.058 -34.422 -124.408 -34.674 -125.752 C -34.828 -126.592 -34.828 -127.88 -34.828 -128.706 C -34.828 -129.602 -34.828 -130.526 -34.716 -131.282 C -34.45 -132.948 -33.4 -133.074 -33.05 -133.074 C -32.588 -133.074 -31.664 -132.822 -31.398 -131.436 C -31.258 -130.652 -31.258 -129.588 -31.258 -128.706 Z " fill="black" /><path d="M -20.058 -126.326 L -20.408 -126.326 C -20.478 -125.962 -20.534 -125.64 -20.66 -125.304 C -20.73 -125.08 -20.772 -124.968 -21.584 -124.968 L -22.704 -124.968 C -22.522 -125.752 -22.088 -126.424 -21.458 -127.348 C -20.8 -128.342 -20.226 -129.308 -20.226 -130.414 C -20.226 -132.36 -22.116 -133.928 -24.482 -133.928 C -26.89 -133.928 -28.752 -132.332 -28.752 -130.414 C -28.752 -129.308 -28.178 -128.342 -27.52 -127.348 C -26.904 -126.424 -26.456 -125.752 -26.274 -124.968 L -27.394 -124.968 C -28.206 -124.968 -28.248 -125.08 -28.318 -125.29 C -28.43 -125.612 -28.5 -125.976 -28.57 -126.326 L -28.92 -126.326 L -28.458 -124.058 L -26.218 -124.058 C -25.91 -124.058 -25.868 -124.058 -25.868 -124.352 C -25.868 -125.332 -26.302 -126.564 -26.624 -127.46 C -26.918 -128.272 -27.31 -129.378 -27.31 -130.428 C -27.31 -132.668 -25.77 -133.62 -24.496 -133.62 C -23.152 -133.62 -21.668 -132.612 -21.668 -130.428 C -21.668 -129.378 -22.046 -128.314 -22.452 -127.166 C -22.662 -126.578 -23.11 -125.318 -23.11 -124.352 C -23.11 -124.058 -23.068 -124.058 -22.746 -124.058 L -20.52 -124.058 Z " fill="black" /></g></g></g><path d="M -18.0,-54.000000000000014 L -18.0,-54.000000000000014" style="stroke:black;fill:none;stroke-width:2.0;stroke-linecap:round;stroke-linejoin:round;" /><path d="M -26.8 -54.000000000000014 L -18.0 -59.40000000000001 L -18.000000000000004 -48.600000000000016 Z" style="stroke:black;fill:black;stroke-linecap:butt;stroke-linejoin:miter;" /><g><g><g><path d="M -22.121 -43.032 C -22.121 -43.2 -22.275 -43.2 -22.331 -43.2 C -22.331 -43.2 -24.179 -43.158 -24.179 -43.158 C -24.179 -43.158 -26.041 -43.158 -26.041 -43.158 C -26.139 -43.158 -26.321 -43.158 -26.321 -42.878 C -26.321 -42.724 -26.195 -42.724 -25.929 -42.724 C -25.341 -42.724 -24.963 -42.724 -24.963 -42.458 C -24.963 -42.388 -24.963 -42.36 -24.991 -42.234 L -26.881 -34.688 C -27.007 -34.17 -27.049 -34.03 -28.155 -34.03 C -28.477 -34.03 -28.603 -34.03 -28.603 -33.75 C -28.603 -33.596 -28.435 -33.596 -28.393 -33.596 C -28.393 -33.596 -26.559 -33.638 -26.559 -33.638 C -26.559 -33.638 -24.683 -33.638 -24.683 -33.638 C -24.571 -33.638 -24.403 -33.638 -24.403 -33.904 C -24.403 -34.072 -24.515 -34.072 -24.823 -34.072 C -25.075 -34.072 -25.145 -34.072 -25.425 -34.1 C -25.719 -34.128 -25.775 -34.184 -25.775 -34.338 C -25.775 -34.45 -25.747 -34.562 -25.719 -34.66 L -23.843 -42.122 C -23.717 -42.626 -23.675 -42.766 -22.569 -42.766 C -22.233 -42.766 -22.121 -42.766 -22.121 -43.032 Z " fill="black" /><path d="M -17.872 -31.964 L -18.205 -31.964 C -18.235 -31.748 -18.333 -31.17 -18.46 -31.072 C -18.539 -31.013 -19.293 -31.013 -19.43 -31.013 L -21.234 -31.013 C -20.205 -31.924 -19.862 -32.199 -19.274 -32.659 C -18.548 -33.238 -17.872 -33.845 -17.872 -34.776 C -17.872 -35.962 -18.911 -36.687 -20.165 -36.687 C -21.381 -36.687 -22.204 -35.835 -22.204 -34.933 C -22.204 -34.433 -21.782 -34.384 -21.684 -34.384 C -21.449 -34.384 -21.165 -34.551 -21.165 -34.904 C -21.165 -35.08 -21.234 -35.423 -21.743 -35.423 C -21.439 -36.119 -20.773 -36.334 -20.312 -36.334 C -19.332 -36.334 -18.823 -35.57 -18.823 -34.776 C -18.823 -33.924 -19.43 -33.247 -19.744 -32.895 L -22.106 -30.562 C -22.204 -30.474 -22.204 -30.454 -22.204 -30.18 L -18.166 -30.18 Z " fill="black" /></g></g></g><path d="M -18.0,-108.00000000000001 L -18.0,-108.00000000000001" style="stroke:black;fill:none;stroke-width:2.0;stroke-linecap:round;stroke-linejoin:round;" /><path d="M -26.8 -108.00000000000001 L -18.0 -113.4 L -18.000000000000004 -102.60000000000001 Z" style="stroke:black;fill:black;stroke-linecap:butt;stroke-linejoin:miter;" /><g><g><g><path d="M -22.121 -97.032 C -22.121 -97.2 -22.275 -97.2 -22.331 -97.2 C -22.331 -97.2 -24.179 -97.158 -24.179 -97.158 C -24.179 -97.158 -26.041 -97.158 -26.041 -97.158 C -26.139 -97.158 -26.321 -97.158 -26.321 -96.878 C -26.321 -96.724 -26.195 -96.724 -25.929 -96.724 C -25.341 -96.724 -24.963 -96.724 -24.963 -96.458 C -24.963 -96.388 -24.963 -96.36 -24.991 -96.234 L -26.881 -88.688 C -27.007 -88.17 -27.049 -88.03 -28.155 -88.03 C -28.477 -88.03 -28.603 -88.03 -28.603 -87.75 C -28.603 -87.596 -28.435 -87.596 -28.393 -87.596 C -28.393 -87.596 -26.559 -87.638 -26.559 -87.638 C -26.559 -87.638 -24.683 -87.638 -24.683 -87.638 C -24.571 -87.638 -24.403 -87.638 -24.403 -87.904 C -24.403 -88.072 -24.515 -88.072 -24.823 -88.072 C -25.075 -88.072 -25.145 -88.072 -25.425 -88.1 C -25.719 -88.128 -25.775 -88.184 -25.775 -88.338 C -25.775 -88.45 -25.747 -88.562 -25.719 -88.66 L -23.843 -96.122 C -23.717 -96.626 -23.675 -96.766 -22.569 -96.766 C -22.233 -96.766 -22.121 -96.766 -22.121 -97.032 Z " fill="black" /><path d="M -18.186 -84.18 L -18.186 -84.533 L -18.558 -84.533 C -19.538 -84.533 -19.538 -84.66 -19.538 -84.984 L -19.538 -90.413 C -19.538 -90.677 -19.558 -90.687 -19.832 -90.687 C -20.459 -90.07 -21.351 -90.06 -21.753 -90.06 L -21.753 -89.707 C -21.518 -89.707 -20.871 -89.707 -20.332 -89.982 L -20.332 -84.984 C -20.332 -84.66 -20.332 -84.533 -21.312 -84.533 L -21.684 -84.533 L -21.684 -84.18 C -21.684 -84.18 -19.94 -84.219 -19.94 -84.219 C -19.94 -84.219 -18.186 -84.219 -18.186 -84.219 Z " fill="black" /></g></g></g></svg>