<svg xmlns="http://www.w3.org/2000/svg" xml:lang="en" height="115.29999999999998pt" width="242.89999999999998pt" viewBox="-223.29999999999998 -82.4 242.89999999999998 115.29999999999998"><path d="M 0.0,-0.0 L -104.625,-1.2812867136079182e-14 M -111.375,-1.3639503725503646e-14 L -216.0,-2.6452370861582827e-14" style="stroke:black;fill:none;stroke-width:2.0;stroke-linecap:round;stroke-linejoin:round;" /><path d="M -104.625,13.499999999999988 L -104.625,-13.500000000000012" style="stroke:black;fill:none;stroke-width:2.0;stroke-linecap:round;stroke-linejoin:round;" /><path d="M -111.375,6.749999999999986 L -111.375,-6.750000000000014" style="stroke:black;fill:none;stroke-width:2.0;stroke-linecap:round;stroke-linejoin:round;" /><path d="M -216.0,-2.6452370861582827e-14 L -216.0,-27.00000000000003 L -216.0,-54.00000000000002" style="stroke:black;fill:none;stroke-width:2.0;stroke-linecap:round;stroke-linejoin:round;" /><path d="M -216.0,-54.00000000000002 L -180.0,-54.00000000000002 L -180.0,-63.00000000000002 L -144.0,-63.00000000000002 L -144.0,-45.00000000000002 L -180.0,-45.00000000000002 L -180.0,-54.00000000000002 M -144.0,-54.00000000000002 L -108.0,-54.00000000000002" style="stroke:black;fill:none;stroke-width:2.0;stroke-linecap:round;stroke-linejoin:round;" /><path d="M -108.0,-54.00000000000002 L -72.0,-54.00000000000002 L -72.0,-63.00000000000002 L -36.0,-63.00000000000002 L -36.0,-45.00000000000002 L -72.0,-45.00000000000002 L -72.0,-54.00000000000002 M -36.0,-54.00000000000002 L 0.0,-54.00000000000002" style="stroke:black;fill:none;stroke-width:2.0;stroke-linecap:round;stroke-linejoin:round;" /><path d="M 0.0,-54.00000000000002 L -4.9598195365467806e-15,-27.000000000000025 L -9.919639073093561e-15,-2.398081733190338e-14" style="stroke:black;fill:none;stroke-width:2.0;stroke-linecap:round;stroke-linejoin:round;" /><g><g><g transform="translate(-116.75 26.662)" fill="black"><path d="M 6.286 -2.814 C 6.286 -4.48 5.138 -5.88 3.626 -5.88 C 2.954 -5.88 2.352 -5.656 1.848 -5.166 L 1.848 -7.896 C 2.128 -7.812 2.59 -7.714 3.038 -7.714 C 4.76 -7.714 5.74 -8.988 5.74 -9.17 C 5.74 -9.254 5.698 -9.324 5.6 -9.324 C 5.6 -9.324 5.558 -9.324 5.488 -9.282 C 5.208 -9.156 4.522 -8.876 3.584 -8.876 C 3.024 -8.876 2.38 -8.974 1.722 -9.268 C 1.61 -9.31 1.554 -9.31 1.554 -9.31 C 1.414 -9.31 1.414 -9.198 1.414 -8.974 L 1.414 -4.83 C 1.414 -4.578 1.414 -4.466 1.61 -4.466 C 1.708 -4.466 1.736 -4.508 1.792 -4.592 C 1.946 -4.816 2.464 -5.572 3.598 -5.572 C 4.326 -5.572 4.676 -4.928 4.788 -4.676 C 5.012 -4.158 5.04 -3.612 5.04 -2.912 C 5.04 -2.422 5.04 -1.582 4.704 -0.994 C 4.368 -0.448 3.85 -0.084 3.206 -0.084 C 2.184 -0.084 1.386 -0.826 1.148 -1.652 C 1.19 -1.638 1.232 -1.624 1.386 -1.624 C 1.848 -1.624 2.086 -1.974 2.086 -2.31 C 2.086 -2.646 1.848 -2.996 1.386 -2.996 C 1.19 -2.996 0.7 -2.898 0.7 -2.254 C 0.7 -1.05 1.666 0.308 3.234 0.308 C 4.858 0.308 6.286 -1.036 6.286 -2.814 Z " /><path d="M 17.22 -9.128 L 17.22 -9.562 C 16.786 -9.534 16.226 -9.52 15.862 -9.52 C 15.862 -9.52 14.266 -9.562 14.266 -9.562 L 14.266 -9.128 C 14.994 -9.114 15.288 -8.75 15.288 -8.428 C 15.288 -8.316 15.246 -8.232 15.218 -8.148 L 12.656 -1.4 L 9.982 -8.47 C 9.898 -8.666 9.898 -8.722 9.898 -8.722 C 9.898 -9.128 10.696 -9.128 11.046 -9.128 L 11.046 -9.562 C 10.542 -9.52 9.576 -9.52 9.044 -9.52 C 9.044 -9.52 7.266 -9.562 7.266 -9.562 L 7.266 -9.128 C 8.176 -9.128 8.442 -9.128 8.638 -8.596 L 11.886 0 C 11.984 0.266 12.054 0.308 12.236 0.308 C 12.474 0.308 12.502 0.238 12.572 0.042 L 15.694 -8.19 C 15.89 -8.708 16.268 -9.114 17.22 -9.128 Z " /></g></g></g><g><g><g><path d="M -186.954 -77.8 C -186.954 -77.324 -187.178 -76.358 -187.724 -75.812 C -188.088 -75.448 -188.83 -75 -190.09 -75 L -191.658 -75 L -190.748 -78.654 C -190.664 -78.99 -190.622 -79.13 -190.356 -79.172 C -190.23 -79.186 -189.782 -79.186 -189.502 -79.186 C -188.508 -79.186 -186.954 -79.186 -186.954 -77.8 Z M -185.428 -71.36 C -185.428 -71.528 -185.596 -71.528 -185.596 -71.528 C -185.722 -71.528 -185.75 -71.43 -185.778 -71.332 C -186.128 -70.296 -186.73 -70.058 -187.052 -70.058 C -187.514 -70.058 -187.612 -70.366 -187.612 -70.912 C -187.612 -71.346 -187.528 -72.06 -187.472 -72.508 C -187.444 -72.704 -187.416 -72.97 -187.416 -73.166 C -187.416 -74.244 -188.354 -74.678 -188.732 -74.818 C -187.318 -75.126 -185.652 -76.106 -185.652 -77.52 C -185.652 -78.724 -186.912 -79.62 -188.746 -79.62 L -192.736 -79.62 C -193.016 -79.62 -193.142 -79.62 -193.142 -79.34 C -193.142 -79.186 -193.016 -79.186 -192.75 -79.186 C -192.75 -79.186 -192.456 -79.186 -192.218 -79.158 C -191.966 -79.13 -191.84 -79.116 -191.84 -78.934 C -191.84 -78.878 -191.854 -78.836 -191.896 -78.668 L -193.772 -71.15 C -193.912 -70.604 -193.94 -70.492 -195.046 -70.492 C -195.298 -70.492 -195.424 -70.492 -195.424 -70.212 C -195.424 -70.058 -195.228 -70.058 -195.228 -70.058 C -195.228 -70.058 -193.464 -70.1 -193.464 -70.1 C -193.464 -70.1 -191.686 -70.1 -191.686 -70.1 C -191.574 -70.1 -191.406 -70.1 -191.406 -70.38 C -191.406 -70.534 -191.532 -70.534 -191.798 -70.534 C -192.316 -70.534 -192.708 -70.534 -192.708 -70.786 C -192.708 -70.87 -192.68 -70.94 -192.666 -71.024 L -191.742 -74.734 L -190.076 -74.734 C -188.802 -74.734 -188.55 -73.95 -188.55 -73.46 C -188.55 -73.25 -188.662 -72.816 -188.746 -72.494 C -188.844 -72.102 -188.97 -71.584 -188.97 -71.304 C -188.97 -69.792 -187.29 -69.792 -187.108 -69.792 C -185.918 -69.792 -185.428 -71.206 -185.428 -71.402 Z " fill="black" /><path d="M -180.737 -66.6 L -180.737 -66.953 L -181.109 -66.953 C -182.089 -66.953 -182.089 -67.08 -182.089 -67.404 L -182.089 -72.833 C -182.089 -73.097 -182.109 -73.107 -182.383 -73.107 C -183.01 -72.49 -183.902 -72.48 -184.304 -72.48 L -184.304 -72.127 C -184.069 -72.127 -183.422 -72.127 -182.883 -72.402 L -182.883 -67.404 C -182.883 -67.08 -182.883 -66.953 -183.863 -66.953 L -184.235 -66.953 L -184.235 -66.6 C -184.235 -66.6 -182.491 -66.639 -182.491 -66.639 C -182.491 -66.639 -180.737 -66.639 -180.737 -66.639 Z " fill="black" /><path d="M -164.504 -74.916 C -164.504 -75.07 -164.63 -75.196 -164.784 -75.196 L -173.548 -75.196 C -173.702 -75.196 -173.828 -75.07 -173.828 -74.916 C -173.828 -74.762 -173.702 -74.636 -173.548 -74.636 L -164.784 -74.636 C -164.63 -74.636 -164.504 -74.762 -164.504 -74.916 Z M -164.504 -72.2 C -164.504 -72.354 -164.63 -72.48 -164.784 -72.48 L -173.548 -72.48 C -173.702 -72.48 -173.828 -72.354 -173.828 -72.2 C -173.828 -72.046 -173.702 -71.92 -173.548 -71.92 L -164.784 -71.92 C -164.63 -71.92 -164.504 -72.046 -164.504 -72.2 Z " fill="black" /><path d="M -152.138 -72.452 C -152.138 -73.6 -153.02 -74.692 -154.476 -74.986 C -153.328 -75.364 -152.516 -76.344 -152.516 -77.45 C -152.516 -78.598 -153.748 -79.382 -155.092 -79.382 C -156.506 -79.382 -157.57 -78.542 -157.57 -77.478 C -157.57 -77.016 -157.262 -76.75 -156.856 -76.75 C -156.422 -76.75 -156.142 -77.058 -156.142 -77.464 C -156.142 -78.164 -156.8 -78.164 -157.01 -78.164 C -156.576 -78.85 -155.652 -79.032 -155.148 -79.032 C -154.574 -79.032 -153.804 -78.724 -153.804 -77.464 C -153.804 -77.296 -153.832 -76.484 -154.196 -75.868 C -154.616 -75.196 -155.092 -75.154 -155.442 -75.14 C -155.554 -75.126 -155.89 -75.098 -155.988 -75.098 C -156.1 -75.084 -156.198 -75.07 -156.198 -74.93 C -156.198 -74.776 -156.1 -74.776 -155.862 -74.776 L -155.246 -74.776 C -154.098 -74.776 -153.58 -73.824 -153.58 -72.452 C -153.58 -70.548 -154.546 -70.142 -155.162 -70.142 C -155.764 -70.142 -156.814 -70.38 -157.304 -71.206 C -156.814 -71.136 -156.38 -71.444 -156.38 -71.976 C -156.38 -72.48 -156.758 -72.76 -157.164 -72.76 C -157.5 -72.76 -157.948 -72.564 -157.948 -71.948 C -157.948 -70.674 -156.646 -69.75 -155.12 -69.75 C -153.412 -69.75 -152.138 -71.024 -152.138 -72.452 Z " fill="black" /><path d="M -145.096 -74.538 C -145.096 -75.658 -145.166 -76.778 -145.656 -77.814 C -146.3 -79.158 -147.448 -79.382 -148.036 -79.382 C -148.876 -79.382 -149.898 -79.018 -150.472 -77.716 C -150.92 -76.75 -150.99 -75.658 -150.99 -74.538 C -150.99 -73.488 -150.934 -72.228 -150.36 -71.164 C -149.758 -70.03 -148.736 -69.75 -148.05 -69.75 C -147.294 -69.75 -146.23 -70.044 -145.614 -71.374 C -145.166 -72.34 -145.096 -73.432 -145.096 -74.538 Z M -146.258 -74.706 C -146.258 -73.656 -146.258 -72.704 -146.412 -71.808 C -146.622 -70.478 -147.42 -70.058 -148.05 -70.058 C -148.596 -70.058 -149.422 -70.408 -149.674 -71.752 C -149.828 -72.592 -149.828 -73.88 -149.828 -74.706 C -149.828 -75.602 -149.828 -76.526 -149.716 -77.282 C -149.45 -78.948 -148.4 -79.074 -148.05 -79.074 C -147.588 -79.074 -146.664 -78.822 -146.398 -77.436 C -146.258 -76.652 -146.258 -75.588 -146.258 -74.706 Z " fill="black" /><path d="M -138.096 -74.538 C -138.096 -75.658 -138.166 -76.778 -138.656 -77.814 C -139.3 -79.158 -140.448 -79.382 -141.036 -79.382 C -141.876 -79.382 -142.898 -79.018 -143.472 -77.716 C -143.92 -76.75 -143.99 -75.658 -143.99 -74.538 C -143.99 -73.488 -143.934 -72.228 -143.36 -71.164 C -142.758 -70.03 -141.736 -69.75 -141.05 -69.75 C -140.294 -69.75 -139.23 -70.044 -138.614 -71.374 C -138.166 -72.34 -138.096 -73.432 -138.096 -74.538 Z M -139.258 -74.706 C -139.258 -73.656 -139.258 -72.704 -139.412 -71.808 C -139.622 -70.478 -140.42 -70.058 -141.05 -70.058 C -141.596 -70.058 -142.422 -70.408 -142.674 -71.752 C -142.828 -72.592 -142.828 -73.88 -142.828 -74.706 C -142.828 -75.602 -142.828 -76.526 -142.716 -77.282 C -142.45 -78.948 -141.4 -79.074 -141.05 -79.074 C -140.588 -79.074 -139.664 -78.822 -139.398 -77.436 C -139.258 -76.652 -139.258 -75.588 -139.258 -74.706 Z " fill="black" /><path d="M -128.058 -72.326 L -128.408 -72.326 C -128.478 -71.962 -128.534 -71.64 -128.66 -71.304 C -128.73 -71.08 -128.772 -70.968 -129.584 -70.968 L -130.704 -70.968 C -130.522 -71.752 -130.088 -72.424 -129.458 -73.348 C -128.8 -74.342 -128.226 -75.308 -128.226 -76.414 C -128.226 -78.36 -130.116 -79.928 -132.482 -79.928 C -134.89 -79.928 -136.752 -78.332 -136.752 -76.414 C -136.752 -75.308 -136.178 -74.342 -135.52 -73.348 C -134.904 -72.424 -134.456 -71.752 -134.274 -70.968 L -135.394 -70.968 C -136.206 -70.968 -136.248 -71.08 -136.318 -71.29 C -136.43 -71.612 -136.5 -71.976 -136.57 -72.326 L -136.92 -72.326 L -136.458 -70.058 L -134.218 -70.058 C -133.91 -70.058 -133.868 -70.058 -133.868 -70.352 C -133.868 -71.332 -134.302 -72.564 -134.624 -73.46 C -134.918 -74.272 -135.31 -75.378 -135.31 -76.428 C -135.31 -78.668 -133.77 -79.62 -132.496 -79.62 C -131.152 -79.62 -129.668 -78.612 -129.668 -76.428 C -129.668 -75.378 -130.046 -74.314 -130.452 -73.166 C -130.662 -72.578 -131.11 -71.318 -131.11 -70.352 C -131.11 -70.058 -131.068 -70.058 -130.746 -70.058 L -128.52 -70.058 Z " fill="black" /></g></g></g><g><g><g><path d="M -78.954 -77.8 C -78.954 -77.324 -79.178 -76.358 -79.724 -75.812 C -80.088 -75.448 -80.83 -75 -82.09 -75 L -83.658 -75 L -82.748 -78.654 C -82.664 -78.99 -82.622 -79.13 -82.356 -79.172 C -82.23 -79.186 -81.782 -79.186 -81.502 -79.186 C -80.508 -79.186 -78.954 -79.186 -78.954 -77.8 Z M -77.428 -71.36 C -77.428 -71.528 -77.596 -71.528 -77.596 -71.528 C -77.722 -71.528 -77.75 -71.43 -77.778 -71.332 C -78.128 -70.296 -78.73 -70.058 -79.052 -70.058 C -79.514 -70.058 -79.612 -70.366 -79.612 -70.912 C -79.612 -71.346 -79.528 -72.06 -79.472 -72.508 C -79.444 -72.704 -79.416 -72.97 -79.416 -73.166 C -79.416 -74.244 -80.354 -74.678 -80.732 -74.818 C -79.318 -75.126 -77.652 -76.106 -77.652 -77.52 C -77.652 -78.724 -78.912 -79.62 -80.746 -79.62 L -84.736 -79.62 C -85.016 -79.62 -85.142 -79.62 -85.142 -79.34 C -85.142 -79.186 -85.016 -79.186 -84.75 -79.186 C -84.75 -79.186 -84.456 -79.186 -84.218 -79.158 C -83.966 -79.13 -83.84 -79.116 -83.84 -78.934 C -83.84 -78.878 -83.854 -78.836 -83.896 -78.668 L -85.772 -71.15 C -85.912 -70.604 -85.94 -70.492 -87.046 -70.492 C -87.298 -70.492 -87.424 -70.492 -87.424 -70.212 C -87.424 -70.058 -87.228 -70.058 -87.228 -70.058 C -87.228 -70.058 -85.464 -70.1 -85.464 -70.1 C -85.464 -70.1 -83.686 -70.1 -83.686 -70.1 C -83.574 -70.1 -83.406 -70.1 -83.406 -70.38 C -83.406 -70.534 -83.532 -70.534 -83.798 -70.534 C -84.316 -70.534 -84.708 -70.534 -84.708 -70.786 C -84.708 -70.87 -84.68 -70.94 -84.666 -71.024 L -83.742 -74.734 L -82.076 -74.734 C -80.802 -74.734 -80.55 -73.95 -80.55 -73.46 C -80.55 -73.25 -80.662 -72.816 -80.746 -72.494 C -80.844 -72.102 -80.97 -71.584 -80.97 -71.304 C -80.97 -69.792 -79.29 -69.792 -79.108 -69.792 C -77.918 -69.792 -77.428 -71.206 -77.428 -71.402 Z " fill="black" /><path d="M -72.423 -68.384 L -72.756 -68.384 C -72.786 -68.168 -72.884 -67.59 -73.011 -67.492 C -73.089 -67.433 -73.844 -67.433 -73.981 -67.433 L -75.784 -67.433 C -74.755 -68.344 -74.412 -68.619 -73.824 -69.079 C -73.099 -69.658 -72.423 -70.265 -72.423 -71.196 C -72.423 -72.382 -73.462 -73.107 -74.716 -73.107 C -75.931 -73.107 -76.755 -72.255 -76.755 -71.353 C -76.755 -70.853 -76.333 -70.804 -76.235 -70.804 C -76 -70.804 -75.716 -70.971 -75.716 -71.324 C -75.716 -71.5 -75.784 -71.843 -76.294 -71.843 C -75.99 -72.539 -75.324 -72.754 -74.863 -72.754 C -73.883 -72.754 -73.374 -71.99 -73.374 -71.196 C -73.374 -70.344 -73.981 -69.667 -74.295 -69.315 L -76.657 -66.982 C -76.755 -66.894 -76.755 -66.874 -76.755 -66.6 L -72.717 -66.6 Z " fill="black" /><path d="M -56.504 -74.916 C -56.504 -75.07 -56.63 -75.196 -56.784 -75.196 L -65.548 -75.196 C -65.702 -75.196 -65.828 -75.07 -65.828 -74.916 C -65.828 -74.762 -65.702 -74.636 -65.548 -74.636 L -56.784 -74.636 C -56.63 -74.636 -56.504 -74.762 -56.504 -74.916 Z M -56.504 -72.2 C -56.504 -72.354 -56.63 -72.48 -56.784 -72.48 L -65.548 -72.48 C -65.702 -72.48 -65.828 -72.354 -65.828 -72.2 C -65.828 -72.046 -65.702 -71.92 -65.548 -71.92 L -56.784 -71.92 C -56.63 -71.92 -56.504 -72.046 -56.504 -72.2 Z " fill="black" /><path d="M -44.25 -72.494 L -44.6 -72.494 C -44.67 -72.074 -44.768 -71.458 -44.908 -71.248 C -45.006 -71.136 -45.93 -71.136 -46.238 -71.136 L -48.758 -71.136 L -47.274 -72.578 C -45.09 -74.51 -44.25 -75.266 -44.25 -76.666 C -44.25 -78.262 -45.51 -79.382 -47.218 -79.382 C -48.8 -79.382 -49.836 -78.094 -49.836 -76.848 C -49.836 -76.064 -49.136 -76.064 -49.094 -76.064 C -48.856 -76.064 -48.366 -76.232 -48.366 -76.806 C -48.366 -77.17 -48.618 -77.534 -49.108 -77.534 C -49.22 -77.534 -49.248 -77.534 -49.29 -77.52 C -48.968 -78.43 -48.212 -78.948 -47.4 -78.948 C -46.126 -78.948 -45.524 -77.814 -45.524 -76.666 C -45.524 -75.546 -46.224 -74.44 -46.994 -73.572 L -49.682 -70.576 C -49.836 -70.422 -49.836 -70.394 -49.836 -70.058 L -44.642 -70.058 Z " fill="black" /><path d="M -37.096 -74.538 C -37.096 -75.658 -37.166 -76.778 -37.656 -77.814 C -38.3 -79.158 -39.448 -79.382 -40.036 -79.382 C -40.876 -79.382 -41.898 -79.018 -42.472 -77.716 C -42.92 -76.75 -42.99 -75.658 -42.99 -74.538 C -42.99 -73.488 -42.934 -72.228 -42.36 -71.164 C -41.758 -70.03 -40.736 -69.75 -40.05 -69.75 C -39.294 -69.75 -38.23 -70.044 -37.614 -71.374 C -37.166 -72.34 -37.096 -73.432 -37.096 -74.538 Z M -38.258 -74.706 C -38.258 -73.656 -38.258 -72.704 -38.412 -71.808 C -38.622 -70.478 -39.42 -70.058 -40.05 -70.058 C -40.596 -70.058 -41.422 -70.408 -41.674 -71.752 C -41.828 -72.592 -41.828 -73.88 -41.828 -74.706 C -41.828 -75.602 -41.828 -76.526 -41.716 -77.282 C -41.45 -78.948 -40.4 -79.074 -40.05 -79.074 C -39.588 -79.074 -38.664 -78.822 -38.398 -77.436 C -38.258 -76.652 -38.258 -75.588 -38.258 -74.706 Z " fill="black" /><path d="M -30.096 -74.538 C -30.096 -75.658 -30.166 -76.778 -30.656 -77.814 C -31.3 -79.158 -32.448 -79.382 -33.036 -79.382 C -33.876 -79.382 -34.898 -79.018 -35.472 -77.716 C -35.92 -76.75 -35.99 -75.658 -35.99 -74.538 C -35.99 -73.488 -35.934 -72.228 -35.36 -71.164 C -34.758 -70.03 -33.736 -69.75 -33.05 -69.75 C -32.294 -69.75 -31.23 -70.044 -30.614 -71.374 C -30.166 -72.34 -30.096 -73.432 -30.096 -74.538 Z M -31.258 -74.706 C -31.258 -73.656 -31.258 -72.704 -31.412 -71.808 C -31.622 -70.478 -32.42 -70.058 -33.05 -70.058 C -33.596 -70.058 -34.422 -70.408 -34.674 -71.752 C -34.828 -72.592 -34.828 -73.88 -34.828 -74.706 C -34.828 -75.602 -34.828 -76.526 -34.716 -77.282 C -34.45 -78.948 -33.4 -79.074 -33.05 -79.074 C -32.588 -79.074 -31.664 -78.822 -31.398 -77.436 C -31.258 -76.652 -31.258 -75.588 -31.258 -74.706 Z " fill="black" /><path d="M -20.058 -72.326 L -20.408 -72.326 C -20.478 -71.962 -20.534 -71.64 -20.66 -71.304 C -20.73 -71.08 -20.772 -70.968 -21.584 -70.968 L -22.704 -70.968 C -22.522 -71.752 -22.088 -72.424 -21.458 -73.348 C -20.8 -74.342 -20.226 -75.308 -20.226 -76.414 C -20.226 -78.36 -22.116 -79.928 -24.482 -79.928 C -26.89 -79.928 -28.752 -78.332 -28.752 -76.414 C -28.752 -75.308 -28.178 -74.342 -27.52 -73.348 C -26.904 -72.424 -26.456 -71.752 -26.274 -70.968 L -27.394 -70.968 C -28.206 -70.968 -28.248 -71.08 -28.318 -71.29 C -28.43 -71.612 -28.5 -71.976 -28.57 -72.326 L -28.92 -72.326 L -28.458 -70.058 L -26.218 -70.058 C -25.91 -70.058 -25.868 -70.058 -25.868 -70.352 C -25.868 -71.332 -26.302 -72.564 -26.624 -73.46 C -26.918 -74.272 -27.31 -75.378 -27.31 -76.428 C -27.31 -78.668 -25.77 -79.62 -24.496 -79.62 C -23.152 -79.62 -21.668 -78.612 -21.668 -76.428 C -21.668 -75.378 -22.046 -74.314 -22.452 -73.166 C -22.662 -72.578 -23.11 -71.318 -23.11 -70.352 C -23.11 -70.058 -23.068 -70.058 -22.746 -70.058 L -20.52 -70.058 Z " fill="black" /></g></g></g><circle cx="-216.0" cy="-54.00000000000002" r="2.6999999999999997" style="stroke:black;fill:black;stroke-width:2.0;" /><circle cx="-108.0" cy="-54.00000000000002" r="2.6999999999999997" style="stroke:black;fill:black;stroke-width:2.0;" /><circle cx="0.0" cy="-54.00000000000002" r="2.6999999999999997" style="stroke:black;fill:black;stroke-width:2.0;" /><path d="M -4.9598195365467806e-15,-27.000000000000025 L -6.035282726657977e-15,-27.000000000000025" style="stroke:#400;fill:none;stroke-width:2.0;stroke-linecap:round;stroke-linejoin:round;" /><path d="M -3.542445611692866e-15 -35.800000000000026 L 5.399999999999993 -27.000000000000025 L -5.400000000000006 -27.00000000000003 Z" style="stroke:#400;fill:#400;stroke-linecap:butt;stroke-linejoin:miter;" /><g><g><g><path d="M 17.758 -37.034 C 17.758 -37.202 17.604 -37.202 17.548 -37.202 C 17.548 -37.202 15.7 -37.16 15.7 -37.16 C 15.7 -37.16 13.838 -37.16 13.838 -37.16 C 13.74 -37.16 13.558 -37.16 13.558 -36.88 C 13.558 -36.726 13.684 -36.726 13.95 -36.726 C 14.538 -36.726 14.916 -36.726 14.916 -36.46 C 14.916 -36.39 14.916 -36.362 14.888 -36.236 L 12.998 -28.69 C 12.872 -28.172 12.83 -28.032 11.724 -28.032 C 11.402 -28.032 11.276 -28.032 11.276 -27.752 C 11.276 -27.598 11.444 -27.598 11.486 -27.598 C 11.486 -27.598 13.32 -27.64 13.32 -27.64 C 13.32 -27.64 15.196 -27.64 15.196 -27.64 C 15.308 -27.64 15.476 -27.64 15.476 -27.906 C 15.476 -28.074 15.364 -28.074 15.056 -28.074 C 14.804 -28.074 14.734 -28.074 14.454 -28.102 C 14.16 -28.13 14.104 -28.186 14.104 -28.34 C 14.104 -28.452 14.132 -28.564 14.16 -28.662 L 16.036 -36.124 C 16.162 -36.628 16.204 -36.768 17.31 -36.768 C 17.646 -36.768 17.758 -36.768 17.758 -37.034 Z " fill="#400" /></g></g></g></svg>