<?xml version="1.0" encoding="utf-8" standalone="no"?>
<!DOCTYPE svg PUBLIC "-//W3C//DTD SVG 1.1//EN"
  "http://www.w3.org/Graphics/SVG/1.1/DTD/svg11.dtd">
<svg xmlns:xlink="http://www.w3.org/1999/xlink" width="247.34pt" height="100.66pt" viewBox="0 0 247.34 100.66" xmlns="http://www.w3.org/2000/svg" version="1.1">
 <metadata>
  <rdf:RDF xmlns:dc="http://purl.org/dc/elements/1.1/" xmlns:cc="http://creativecommons.org/ns#" xmlns:rdf="http://www.w3.org/1999/02/22-rdf-syntax-ns#">
   <cc:Work>
    <dc:type rdf:resource="http://purl.org/dc/dcmitype/StillImage"/>
    <dc:date>2024-11-09T17:40:33.347241</dc:date>
    <dc:format>image/svg+xml</dc:format>
    <dc:creator>
     <cc:Agent>
      <dc:title>Matplotlib v3.9.2, https://matplotlib.org/</dc:title>
     </cc:Agent>
    </dc:creator>
   </cc:Work>
  </rdf:RDF>
 </metadata>
 <defs>
  <style type="text/css">*{stroke-linejoin: round; stroke-linecap: butt}</style>
 </defs>
 <g id="figure_1">
  <g id="patch_1">
   <path d="M 0 100.66 
L 247.34 100.66 
L 247.34 0 
L 0 0 
L 0 100.66 
z
" style="fill: none"/>
  </g>
  <g id="axes_1">
   <g id="line2d_1">
    <path d="M 166.68 82.48 
L 89.055 82.48 
M 82.305 82.48 
L 4.68 82.48 
" clip-path="url(#pf4d141e76b)" style="fill: none; stroke: #000000; stroke-width: 2; stroke-linecap: round"/>
   </g>
   <g id="line2d_2">
    <path d="M 89.055 95.98 
L 89.055 68.98 
" clip-path="url(#pf4d141e76b)" style="fill: none; stroke: #000000; stroke-width: 2; stroke-linecap: round"/>
   </g>
   <g id="line2d_3">
    <path d="M 82.305 89.23 
L 82.305 75.73 
" clip-path="url(#pf4d141e76b)" style="fill: none; stroke: #000000; stroke-width: 2; stroke-linecap: round"/>
   </g>
   <g id="line2d_4">
    <path d="M 4.68 82.48 
L 4.68 55.48 
L 4.68 28.48 
" clip-path="url(#pf4d141e76b)" style="fill: none; stroke: #000000; stroke-width: 2; stroke-linecap: round"/>
   </g>
   <g id="line2d_5">
    <path d="M 4.68 28.48 
L 27.18 28.48 
L 27.18 19.48 
L 63.18 19.48 
L 63.18 37.48 
L 27.18 37.48 
L 27.18 28.48 
M 63.18 28.48 
L 85.68 28.48 
" clip-path="url(#pf4d141e76b)" style="fill: none; stroke: #000000; stroke-width: 2; stroke-linecap: round"/>
   </g>
   <g id="line2d_6">
    <path d="M 85.68 28.48 
L 108.18 28.48 
L 108.18 19.48 
L 144.18 19.48 
L 144.18 37.48 
L 108.18 37.48 
L 108.18 28.48 
M 144.18 28.48 
L 166.68 28.48 
" clip-path="url(#pf4d141e76b)" style="fill: none; stroke: #000000; stroke-width: 2; stroke-linecap: round"/>
   </g>
   <g id="line2d_7">
    <path d="M 166.68 28.48 
L 166.68 55.48 
L 166.68 82.48 
" clip-path="url(#pf4d141e76b)" style="fill: none; stroke: #000000; stroke-width: 2; stroke-linecap: round"/>
   </g>
   <g id="text_1">
    <!-- $R_1 = 30 Ω$ -->
    <g transform="translate(16.83 13.163125) scale(0.14 -0.14)">
     <defs>
      <path id="Cmmi10-52" d="M 313 0 
Q 250 0 250 84 
Q 253 100 262 139 
Q 272 178 289 201 
Q 306 225 331 225 
Q 722 225 878 269 
Q 959 297 997 441 
L 1875 3956 
Q 1888 4019 1888 4044 
Q 1888 4113 1813 4122 
Q 1691 4147 1350 4147 
Q 1288 4147 1288 4231 
Q 1291 4247 1300 4286 
Q 1309 4325 1326 4348 
Q 1344 4372 1369 4372 
L 3309 4372 
Q 3541 4372 3791 4319 
Q 4041 4266 4250 4152 
Q 4459 4038 4593 3848 
Q 4728 3659 4728 3406 
Q 4728 3084 4515 2831 
Q 4303 2578 3978 2408 
Q 3653 2238 3347 2169 
Q 3597 2078 3756 1879 
Q 3916 1681 3916 1422 
Q 3916 1388 3914 1370 
Q 3913 1353 3909 1331 
L 3859 763 
Q 3853 638 3847 550 
Q 3841 463 3841 409 
Q 3841 234 3892 129 
Q 3944 25 4097 25 
Q 4297 25 4448 211 
Q 4600 397 4647 616 
Q 4675 672 4709 672 
L 4769 672 
Q 4831 672 4831 588 
Q 4784 403 4682 237 
Q 4581 72 4426 -34 
Q 4272 -141 4091 -141 
Q 3716 -141 3452 26 
Q 3188 194 3188 550 
Q 3188 684 3213 788 
L 3353 1356 
Q 3378 1434 3378 1538 
Q 3378 1803 3198 1954 
Q 3019 2106 2747 2106 
L 1959 2106 
L 1538 416 
Q 1522 363 1522 325 
Q 1522 259 1600 250 
Q 1722 225 2059 225 
Q 2125 225 2125 141 
Q 2103 50 2090 25 
Q 2078 0 2016 0 
L 313 0 
z
M 1997 2272 
L 2706 2272 
Q 3403 2272 3756 2625 
Q 3919 2788 4014 3039 
Q 4109 3291 4109 3541 
Q 4109 3778 3970 3912 
Q 3831 4047 3626 4097 
Q 3422 4147 3175 4147 
L 2747 4147 
Q 2572 4147 2515 4117 
Q 2459 4088 2413 3928 
L 1997 2272 
z
" transform="scale(0.015625)"/>
      <path id="Cmr10-31" d="M 594 0 
L 594 225 
Q 1394 225 1394 428 
L 1394 3788 
Q 1063 3628 556 3628 
L 556 3853 
Q 1341 3853 1741 4263 
L 1831 4263 
Q 1853 4263 1873 4245 
Q 1894 4228 1894 4206 
L 1894 428 
Q 1894 225 2694 225 
L 2694 0 
L 594 0 
z
" transform="scale(0.015625)"/>
      <path id="Cmr10-3d" d="M 481 850 
Q 428 850 393 890 
Q 359 931 359 978 
Q 359 1031 393 1068 
Q 428 1106 481 1106 
L 4500 1106 
Q 4547 1106 4581 1068 
Q 4616 1031 4616 978 
Q 4616 931 4581 890 
Q 4547 850 4500 850 
L 481 850 
z
M 481 2094 
Q 428 2094 393 2131 
Q 359 2169 359 2222 
Q 359 2269 393 2309 
Q 428 2350 481 2350 
L 4500 2350 
Q 4547 2350 4581 2309 
Q 4616 2269 4616 2222 
Q 4616 2169 4581 2131 
Q 4547 2094 4500 2094 
L 481 2094 
z
" transform="scale(0.015625)"/>
      <path id="Cmr10-33" d="M 609 494 
Q 759 275 1012 169 
Q 1266 63 1556 63 
Q 1928 63 2084 380 
Q 2241 697 2241 1100 
Q 2241 1281 2208 1462 
Q 2175 1644 2097 1800 
Q 2019 1956 1883 2050 
Q 1747 2144 1550 2144 
L 1125 2144 
Q 1069 2144 1069 2203 
L 1069 2259 
Q 1069 2309 1125 2309 
L 1478 2338 
Q 1703 2338 1851 2506 
Q 2000 2675 2069 2917 
Q 2138 3159 2138 3378 
Q 2138 3684 1994 3881 
Q 1850 4078 1556 4078 
Q 1313 4078 1091 3986 
Q 869 3894 738 3706 
Q 750 3709 759 3711 
Q 769 3713 781 3713 
Q 925 3713 1022 3613 
Q 1119 3513 1119 3372 
Q 1119 3234 1022 3134 
Q 925 3034 781 3034 
Q 641 3034 541 3134 
Q 441 3234 441 3372 
Q 441 3647 606 3850 
Q 772 4053 1033 4158 
Q 1294 4263 1556 4263 
Q 1750 4263 1965 4205 
Q 2181 4147 2356 4039 
Q 2531 3931 2642 3762 
Q 2753 3594 2753 3378 
Q 2753 3109 2633 2881 
Q 2513 2653 2303 2487 
Q 2094 2322 1844 2241 
Q 2122 2188 2372 2031 
Q 2622 1875 2773 1631 
Q 2925 1388 2925 1106 
Q 2925 753 2731 467 
Q 2538 181 2222 20 
Q 1906 -141 1556 -141 
Q 1256 -141 954 -26 
Q 653 88 461 316 
Q 269 544 269 863 
Q 269 1022 375 1128 
Q 481 1234 641 1234 
Q 744 1234 830 1186 
Q 916 1138 964 1050 
Q 1013 963 1013 863 
Q 1013 706 903 600 
Q 794 494 641 494 
L 609 494 
z
" transform="scale(0.015625)"/>
      <path id="Cmr10-30" d="M 1600 -141 
Q 816 -141 533 504 
Q 250 1150 250 2041 
Q 250 2597 351 3087 
Q 453 3578 754 3920 
Q 1056 4263 1600 4263 
Q 2022 4263 2290 4056 
Q 2559 3850 2700 3523 
Q 2841 3197 2892 2823 
Q 2944 2450 2944 2041 
Q 2944 1491 2842 1011 
Q 2741 531 2444 195 
Q 2147 -141 1600 -141 
z
M 1600 25 
Q 1956 25 2131 390 
Q 2306 756 2347 1200 
Q 2388 1644 2388 2144 
Q 2388 2625 2347 3031 
Q 2306 3438 2132 3767 
Q 1959 4097 1600 4097 
Q 1238 4097 1063 3765 
Q 888 3434 847 3029 
Q 806 2625 806 2144 
Q 806 1788 823 1472 
Q 841 1156 916 820 
Q 991 484 1158 254 
Q 1325 25 1600 25 
z
" transform="scale(0.015625)"/>
      <path id="STIXGeneral-Regular-2126" d="M 4576 0 
L 2746 0 
L 2790 960 
Q 3187 1056 3440 1507 
Q 3693 1958 3693 2490 
Q 3693 3194 3344 3645 
Q 2995 4096 2381 4096 
Q 1965 4096 1657 3849 
Q 1350 3603 1209 3248 
Q 1069 2893 1069 2490 
Q 1069 1990 1315 1532 
Q 1562 1075 1965 960 
L 2022 0 
L 186 0 
L 186 1024 
L 307 1024 
Q 314 742 416 640 
Q 518 538 742 538 
L 1696 538 
L 1683 774 
Q 1005 966 672 1379 
Q 339 1792 339 2477 
Q 339 3206 899 3766 
Q 1459 4326 2381 4326 
Q 3296 4326 3859 3776 
Q 4422 3226 4422 2477 
Q 4422 1158 3059 774 
L 3046 538 
L 4141 538 
Q 4320 538 4381 646 
Q 4442 755 4454 1011 
L 4576 1011 
L 4576 0 
z
" transform="scale(0.015625)"/>
     </defs>
     <use xlink:href="#Cmmi10-52" transform="translate(0 0.6875)"/>
     <use xlink:href="#Cmr10-31" transform="translate(75.878906 -16.31875) scale(0.7)"/>
     <use xlink:href="#Cmr10-3d" transform="translate(134.814844 0.6875)"/>
     <use xlink:href="#Cmr10-33" transform="translate(230.058984 0.6875)"/>
     <use xlink:href="#Cmr10-30" transform="translate(280.058984 0.6875)"/>
     <use xlink:href="#STIXGeneral-Regular-2126" transform="translate(330.058984 0.6875)"/>
    </g>
   </g>
   <g id="text_2">
    <!-- $R_2 = 50 Ω$ -->
    <g transform="translate(97.83 13.163125) scale(0.14 -0.14)">
     <defs>
      <path id="Cmr10-32" d="M 319 0 
L 319 172 
Q 319 188 331 206 
L 1325 1306 
Q 1550 1550 1690 1715 
Q 1831 1881 1968 2097 
Q 2106 2313 2186 2536 
Q 2266 2759 2266 3009 
Q 2266 3272 2169 3511 
Q 2072 3750 1880 3894 
Q 1688 4038 1416 4038 
Q 1138 4038 916 3870 
Q 694 3703 603 3438 
Q 628 3444 672 3444 
Q 816 3444 917 3347 
Q 1019 3250 1019 3097 
Q 1019 2950 917 2848 
Q 816 2747 672 2747 
Q 522 2747 420 2851 
Q 319 2956 319 3097 
Q 319 3338 409 3548 
Q 500 3759 670 3923 
Q 841 4088 1055 4175 
Q 1269 4263 1509 4263 
Q 1875 4263 2190 4108 
Q 2506 3953 2690 3670 
Q 2875 3388 2875 3009 
Q 2875 2731 2753 2481 
Q 2631 2231 2440 2026 
Q 2250 1822 1953 1562 
Q 1656 1303 1563 1216 
L 838 519 
L 1453 519 
Q 1906 519 2211 526 
Q 2516 534 2534 550 
Q 2609 631 2688 1141 
L 2875 1141 
L 2694 0 
L 319 0 
z
" transform="scale(0.015625)"/>
      <path id="Cmr10-35" d="M 556 728 
Q 622 541 758 387 
Q 894 234 1080 148 
Q 1266 63 1466 63 
Q 1928 63 2103 422 
Q 2278 781 2278 1294 
Q 2278 1516 2270 1667 
Q 2263 1819 2228 1959 
Q 2169 2184 2020 2353 
Q 1872 2522 1656 2522 
Q 1441 2522 1286 2456 
Q 1131 2391 1034 2303 
Q 938 2216 863 2119 
Q 788 2022 769 2016 
L 697 2016 
Q 681 2016 657 2036 
Q 634 2056 634 2075 
L 634 4213 
Q 634 4228 654 4245 
Q 675 4263 697 4263 
L 716 4263 
Q 1147 4056 1631 4056 
Q 2106 4056 2547 4263 
L 2566 4263 
Q 2588 4263 2606 4247 
Q 2625 4231 2625 4213 
L 2625 4153 
Q 2625 4122 2613 4122 
Q 2394 3831 2064 3668 
Q 1734 3506 1381 3506 
Q 1125 3506 856 3578 
L 856 2369 
Q 1069 2541 1236 2614 
Q 1403 2688 1663 2688 
Q 2016 2688 2295 2484 
Q 2575 2281 2725 1954 
Q 2875 1628 2875 1288 
Q 2875 903 2686 575 
Q 2497 247 2172 53 
Q 1847 -141 1466 -141 
Q 1150 -141 886 21 
Q 622 184 470 459 
Q 319 734 319 1044 
Q 319 1188 412 1278 
Q 506 1369 647 1369 
Q 788 1369 883 1276 
Q 978 1184 978 1044 
Q 978 906 883 811 
Q 788 716 647 716 
Q 625 716 597 720 
Q 569 725 556 728 
z
" transform="scale(0.015625)"/>
     </defs>
     <use xlink:href="#Cmmi10-52" transform="translate(0 0.6875)"/>
     <use xlink:href="#Cmr10-32" transform="translate(75.878906 -16.31875) scale(0.7)"/>
     <use xlink:href="#Cmr10-3d" transform="translate(134.814844 0.6875)"/>
     <use xlink:href="#Cmr10-35" transform="translate(230.058984 0.6875)"/>
     <use xlink:href="#Cmr10-30" transform="translate(280.058984 0.6875)"/>
     <use xlink:href="#STIXGeneral-Regular-2126" transform="translate(330.058984 0.6875)"/>
    </g>
   </g>
   <g id="line2d_8">
    <path d="M 166.68 55.48 
L 166.68 55.48 
" clip-path="url(#pf4d141e76b)" style="fill: none; stroke: #000000; stroke-width: 2; stroke-linecap: round"/>
   </g>
   <g id="patch_2">
    <path d="M 161.28 55.48 
L 166.68 44.68 
L 172.08 55.48 
z
" clip-path="url(#pf4d141e76b)"/>
   </g>
   <g id="text_3">
    <!-- $I=200$ mA -->
    <g transform="translate(177.48 53.58) scale(0.14 -0.14)">
     <defs>
      <path id="Cmmi10-49" d="M 269 0 
Q 206 0 206 84 
Q 231 225 288 225 
Q 666 225 800 250 
Q 947 284 984 441 
L 1863 3956 
Q 1875 4019 1875 4038 
Q 1875 4078 1854 4095 
Q 1834 4113 1791 4122 
Q 1663 4147 1306 4147 
Q 1241 4147 1241 4231 
Q 1263 4313 1275 4342 
Q 1288 4372 1350 4372 
L 3138 4372 
Q 3200 4372 3200 4288 
Q 3197 4272 3187 4234 
Q 3178 4197 3162 4172 
Q 3147 4147 3116 4147 
Q 2741 4147 2597 4122 
Q 2456 4088 2419 3928 
L 1544 416 
Q 1528 338 1528 331 
Q 1528 316 1533 302 
Q 1538 288 1552 277 
Q 1566 266 1580 261 
Q 1594 256 1613 250 
Q 1734 225 2100 225 
Q 2163 225 2163 141 
Q 2141 50 2128 25 
Q 2116 0 2053 0 
L 269 0 
z
" transform="scale(0.015625)"/>
      <path id="NewCMMath-Book-20" transform="scale(0.015625)"/>
      <path id="NewCMMath-Book-6d" d="M 2016 2643 
C 2310 2643 2458 2419 2458 1965 
L 2458 506 
C 2458 384 2438 307 2394 282 
C 2349 256 2202 243 1965 243 
L 1965 0 
L 2707 19 
L 3443 0 
L 3443 243 
C 3206 243 3066 256 3021 282 
C 2976 307 2950 384 2950 506 
L 2950 1658 
C 2950 2170 3283 2643 3776 2643 
C 4077 2643 4224 2419 4224 1965 
L 4224 506 
C 4224 384 4198 307 4154 282 
C 4109 256 3962 243 3725 243 
L 3725 0 
L 4467 19 
L 5203 0 
L 5203 243 
C 4998 243 4864 250 4800 269 
C 4736 288 4710 333 4710 410 
L 4710 1606 
C 4710 1907 4698 2118 4678 2240 
C 4614 2630 4326 2829 3821 2829 
C 3418 2829 3117 2643 2912 2266 
C 2822 2643 2541 2829 2061 2829 
C 1658 2829 1350 2637 1146 2253 
L 1146 2829 
L 205 2758 
L 205 2515 
C 435 2515 576 2496 627 2458 
C 678 2419 698 2336 698 2189 
L 698 506 
C 698 384 672 307 627 282 
C 582 256 442 243 205 243 
L 205 0 
L 947 19 
L 1683 0 
L 1683 243 
C 1446 243 1299 256 1254 282 
C 1210 307 1184 384 1184 506 
L 1184 1658 
C 1184 2176 1523 2643 2016 2643 
z
" transform="scale(0.015625)"/>
      <path id="NewCMMath-Book-41" d="M 3731 19 
L 4589 0 
L 4589 250 
L 4448 250 
C 4288 250 4179 256 4134 269 
C 4038 301 3974 371 3936 480 
L 2566 4442 
C 2541 4525 2496 4582 2400 4582 
C 2317 4582 2259 4538 2227 4442 
L 915 653 
C 826 390 589 250 205 243 
L 205 0 
L 877 19 
L 1626 0 
L 1626 250 
C 1312 250 1152 346 1152 544 
C 1152 589 1158 614 1165 627 
L 1453 1440 
L 2976 1440 
L 3302 493 
C 3315 454 3322 429 3322 410 
C 3322 301 3149 250 2797 250 
L 2797 0 
C 3066 19 3379 26 3731 19 
z
M 2208 3642 
L 2886 1690 
L 1536 1690 
L 2208 3642 
z
" transform="scale(0.015625)"/>
     </defs>
     <use xlink:href="#Cmmi10-49" transform="translate(0 0.40625)"/>
     <use xlink:href="#Cmr10-3d" transform="translate(61.455078 0.40625)"/>
     <use xlink:href="#Cmr10-32" transform="translate(156.699219 0.40625)"/>
     <use xlink:href="#Cmr10-30" transform="translate(206.699219 0.40625)"/>
     <use xlink:href="#Cmr10-30" transform="translate(256.699219 0.40625)"/>
     <use xlink:href="#NewCMMath-Book-20" transform="translate(306.699219 0.40625)"/>
     <use xlink:href="#NewCMMath-Book-6d" transform="translate(339.899216 0.40625)"/>
     <use xlink:href="#NewCMMath-Book-41" transform="translate(423.199203 0.40625)"/>
    </g>
   </g>
  </g>
 </g>
 <defs>
  <clipPath id="pf4d141e76b">
   <rect x="0" y="-0" width="242.556" height="100.66"/>
  </clipPath>
 </defs>
</svg>
