<?xml version="1.0" encoding="utf-8" standalone="no"?>
<!DOCTYPE svg PUBLIC "-//W3C//DTD SVG 1.1//EN"
  "http://www.w3.org/Graphics/SVG/1.1/DTD/svg11.dtd">
<svg xmlns:xlink="http://www.w3.org/1999/xlink" width="117.36pt" height="94.36pt" viewBox="0 0 117.36 94.36" xmlns="http://www.w3.org/2000/svg" version="1.1">
 <metadata>
  <rdf:RDF xmlns:dc="http://purl.org/dc/elements/1.1/" xmlns:cc="http://creativecommons.org/ns#" xmlns:rdf="http://www.w3.org/1999/02/22-rdf-syntax-ns#">
   <cc:Work>
    <dc:type rdf:resource="http://purl.org/dc/dcmitype/StillImage"/>
    <dc:date>2024-11-10T09:45:49.535517</dc:date>
    <dc:format>image/svg+xml</dc:format>
    <dc:creator>
     <cc:Agent>
      <dc:title>Matplotlib v3.9.2, https://matplotlib.org/</dc:title>
     </cc:Agent>
    </dc:creator>
   </cc:Work>
  </rdf:RDF>
 </metadata>
 <defs>
  <style type="text/css">*{stroke-linejoin: round; stroke-linecap: butt}</style>
 </defs>
 <g id="figure_1">
  <g id="patch_1">
   <path d="M 0 94.36 
L 117.36 94.36 
L 117.36 0 
L 0 0 
L 0 94.36 
z
" style="fill: none"/>
  </g>
  <g id="axes_1">
   <g id="line2d_1">
    <path d="M 112.68 76.18 
L 62.055 76.18 
M 55.305 76.18 
L 4.68 76.18 
" clip-path="url(#pf69079ba3a)" style="fill: none; stroke: #000000; stroke-width: 2; stroke-linecap: round"/>
   </g>
   <g id="line2d_2">
    <path d="M 62.055 89.68 
L 62.055 62.68 
" clip-path="url(#pf69079ba3a)" style="fill: none; stroke: #000000; stroke-width: 2; stroke-linecap: round"/>
   </g>
   <g id="line2d_3">
    <path d="M 55.305 82.93 
L 55.305 69.43 
" clip-path="url(#pf69079ba3a)" style="fill: none; stroke: #000000; stroke-width: 2; stroke-linecap: round"/>
   </g>
   <g id="line2d_4">
    <path d="M 4.68 76.18 
L 4.68 62.68 
L 4.68 49.18 
" clip-path="url(#pf69079ba3a)" style="fill: none; stroke: #000000; stroke-width: 2; stroke-linecap: round"/>
   </g>
   <g id="line2d_5">
    <path d="M 4.68 49.18 
L 40.68 49.18 
L 40.68 40.18 
L 76.68 40.18 
L 76.68 58.18 
L 40.68 58.18 
L 40.68 49.18 
M 76.68 49.18 
L 112.68 49.18 
" clip-path="url(#pf69079ba3a)" style="fill: none; stroke: #000000; stroke-width: 2; stroke-linecap: round"/>
   </g>
   <g id="line2d_6">
    <path d="M 4.68 49.18 
L 4.68 35.68 
L 4.68 22.18 
" clip-path="url(#pf69079ba3a)" style="fill: none; stroke: #000000; stroke-width: 2; stroke-linecap: round"/>
   </g>
   <g id="line2d_7">
    <path d="M 4.68 22.18 
L 31.68 22.18 
L 58.68 22.18 
" clip-path="url(#pf69079ba3a)" style="fill: none; stroke: #000000; stroke-width: 2; stroke-linecap: round"/>
   </g>
   <g id="line2d_8">
    <path d="M 58.68 22.18 
L 85.68 22.18 
L 112.68 22.18 
" clip-path="url(#pf69079ba3a)" style="fill: none; stroke: #000000; stroke-width: 2; stroke-linecap: round"/>
   </g>
   <g id="line2d_9">
    <path d="M 112.68 22.18 
L 112.68 49.18 
L 112.68 76.18 
" clip-path="url(#pf69079ba3a)" style="fill: none; stroke: #000000; stroke-width: 2; stroke-linecap: round"/>
   </g>
   <g id="patch_2">
    <path d="M 58.68 24.88 
C 59.396048 24.88 60.082866 24.595511 60.589188 24.089188 
C 61.095511 23.582866 61.38 22.896048 61.38 22.18 
C 61.38 21.463952 61.095511 20.777134 60.589188 20.270812 
C 60.082866 19.764489 59.396048 19.48 58.68 19.48 
C 57.963952 19.48 57.277134 19.764489 56.770812 20.270812 
C 56.264489 20.777134 55.98 21.463952 55.98 22.18 
C 55.98 22.896048 56.264489 23.582866 56.770812 24.089188 
C 57.277134 24.595511 57.963952 24.88 58.68 24.88 
z
" clip-path="url(#pf69079ba3a)" style="fill: #ff0000; stroke: #ff0000; stroke-width: 2; stroke-linejoin: miter"/>
   </g>
   <g id="text_1">
    <!-- 1 -->
    <g style="fill: #ff0000" transform="translate(55.18 13.163125) scale(0.14 -0.14)">
     <defs>
      <path id="NewCMMath-Book-31" d="M 1722 4262 
C 1459 3994 1075 3859 570 3859 
L 570 3610 
C 902 3610 1178 3661 1389 3763 
L 1389 525 
C 1389 410 1363 333 1306 301 
C 1248 269 1088 250 832 250 
L 608 250 
L 608 0 
C 768 13 1114 19 1645 19 
C 2176 19 2522 13 2682 0 
L 2682 250 
L 2458 250 
C 2195 250 2035 269 1984 301 
C 1933 333 1901 410 1901 525 
L 1901 4070 
C 1901 4224 1888 4262 1722 4262 
z
" transform="scale(0.015625)"/>
     </defs>
     <use xlink:href="#NewCMMath-Book-31"/>
    </g>
   </g>
  </g>
 </g>
 <defs>
  <clipPath id="pf69079ba3a">
   <rect x="0" y="0" width="117.36" height="94.36"/>
  </clipPath>
 </defs>
</svg>
