<?xml version="1.0" encoding="utf-8" standalone="no"?>
<!DOCTYPE svg PUBLIC "-//W3C//DTD SVG 1.1//EN"
  "http://www.w3.org/Graphics/SVG/1.1/DTD/svg11.dtd">
<svg xmlns:xlink="http://www.w3.org/1999/xlink" width="117.36pt" height="139.86pt" viewBox="0 0 117.36 139.86" xmlns="http://www.w3.org/2000/svg" version="1.1">
 <metadata>
  <rdf:RDF xmlns:dc="http://purl.org/dc/elements/1.1/" xmlns:cc="http://creativecommons.org/ns#" xmlns:rdf="http://www.w3.org/1999/02/22-rdf-syntax-ns#">
   <cc:Work>
    <dc:type rdf:resource="http://purl.org/dc/dcmitype/StillImage"/>
    <dc:date>2024-11-10T09:45:48.254715</dc:date>
    <dc:format>image/svg+xml</dc:format>
    <dc:creator>
     <cc:Agent>
      <dc:title>Matplotlib v3.9.2, https://matplotlib.org/</dc:title>
     </cc:Agent>
    </dc:creator>
   </cc:Work>
  </rdf:RDF>
 </metadata>
 <defs>
  <style type="text/css">*{stroke-linejoin: round; stroke-linecap: butt}</style>
 </defs>
 <g id="figure_1">
  <g id="patch_1">
   <path d="M 0 139.86 
L 117.36 139.86 
L 117.36 0 
L 0 0 
L 0 139.86 
z
" style="fill: none"/>
  </g>
  <g id="axes_1">
   <g id="line2d_1">
    <path d="M 112.68 121.68 
L 62.055 121.68 
M 55.305 121.68 
L 4.68 121.68 
" clip-path="url(#pa14d3567da)" style="fill: none; stroke: #000000; stroke-width: 2; stroke-linecap: round"/>
   </g>
   <g id="line2d_2">
    <path d="M 62.055 135.18 
L 62.055 108.18 
" clip-path="url(#pa14d3567da)" style="fill: none; stroke: #000000; stroke-width: 2; stroke-linecap: round"/>
   </g>
   <g id="line2d_3">
    <path d="M 55.305 128.43 
L 55.305 114.93 
" clip-path="url(#pa14d3567da)" style="fill: none; stroke: #000000; stroke-width: 2; stroke-linecap: round"/>
   </g>
   <g id="line2d_4">
    <path d="M 4.68 121.68 
L 4.68 67.68 
L 4.68 13.68 
" clip-path="url(#pa14d3567da)" style="fill: none; stroke: #000000; stroke-width: 2; stroke-linecap: round"/>
   </g>
   <g id="line2d_5">
    <path d="M 4.68 13.68 
L 40.68 13.68 
L 40.68 4.68 
L 76.68 4.68 
L 76.68 22.68 
L 40.68 22.68 
L 40.68 13.68 
M 76.68 13.68 
L 112.68 13.68 
" clip-path="url(#pa14d3567da)" style="fill: none; stroke: #000000; stroke-width: 2; stroke-linecap: round"/>
   </g>
   <g id="line2d_6">
    <path d="M 112.68 13.68 
L 112.68 67.68 
L 112.68 121.68 
" clip-path="url(#pa14d3567da)" style="fill: none; stroke: #000000; stroke-width: 2; stroke-linecap: round"/>
   </g>
   <g id="text_1">
    <!-- 3.3 V -->
    <g transform="translate(42.16 101.863125) scale(0.14 -0.14)">
     <defs>
      <path id="NewCMMath-Book-33" d="M 1939 2259 
C 2362 2419 2758 2822 2758 3366 
C 2758 3642 2624 3866 2362 4038 
C 2131 4186 1869 4262 1574 4262 
C 1286 4262 1037 4186 813 4038 
C 563 3872 435 3654 435 3379 
C 435 3168 576 3021 781 3021 
C 986 3021 1126 3168 1126 3373 
C 1126 3584 1005 3699 762 3712 
C 928 3936 1190 4051 1549 4051 
C 1933 4051 2125 3827 2125 3373 
C 2125 3104 2074 2880 1978 2694 
C 1805 2387 1568 2330 1171 2330 
C 1094 2317 1056 2285 1056 2227 
C 1056 2131 1101 2131 1229 2131 
L 1504 2131 
C 1984 2131 2227 1792 2227 1107 
C 2227 563 2029 90 1542 90 
C 1126 90 819 230 634 512 
C 858 506 1024 672 1024 890 
C 1024 1107 864 1267 646 1267 
C 397 1267 269 1139 269 877 
C 269 563 410 314 691 115 
C 941 -58 1235 -141 1562 -141 
C 1926 -141 2240 -19 2515 218 
C 2790 454 2925 749 2925 1107 
C 2925 1709 2451 2125 1939 2259 
z
" transform="scale(0.015625)"/>
      <path id="NewCMMath-Book-2e" d="M 1229 339 
C 1229 525 1075 678 890 678 
C 704 678 550 525 550 339 
C 550 154 704 0 890 0 
C 1075 0 1229 154 1229 339 
z
" transform="scale(0.015625)"/>
      <path id="NewCMMath-Book-20" transform="scale(0.015625)"/>
      <path id="NewCMMath-Book-56" d="M 3981 3718 
C 4083 3981 4314 4115 4672 4122 
L 4672 4371 
C 4397 4352 4186 4346 4032 4352 
L 3283 4371 
L 3283 4128 
C 3597 4122 3750 4019 3750 3834 
C 3750 3808 3738 3770 3718 3718 
L 2586 730 
L 1395 3859 
C 1376 3923 1363 3962 1363 3968 
C 1363 4070 1536 4122 1882 4122 
L 1882 4371 
C 1613 4352 1306 4346 954 4352 
L 122 4371 
L 122 4122 
C 358 4122 512 4109 582 4090 
C 653 4070 704 4006 742 3898 
L 2214 13 
C 2253 -90 2310 -141 2394 -141 
C 2477 -141 2534 -96 2566 -6 
L 3981 3718 
z
" transform="scale(0.015625)"/>
     </defs>
     <use xlink:href="#NewCMMath-Book-33"/>
     <use xlink:href="#NewCMMath-Book-2e" x="49.999985"/>
     <use xlink:href="#NewCMMath-Book-33" x="77.799973"/>
     <use xlink:href="#NewCMMath-Book-20" x="127.799957"/>
     <use xlink:href="#NewCMMath-Book-56" x="160.999954"/>
    </g>
   </g>
   <g id="line2d_7">
    <path d="M 112.68 67.68 
L 112.68 67.68 
" clip-path="url(#pa14d3567da)" style="fill: none; stroke: #000000; stroke-width: 2; stroke-linecap: round"/>
   </g>
   <g id="patch_2">
    <path d="M 107.28 67.68 
L 112.68 56.88 
L 118.08 67.68 
z
" clip-path="url(#pa14d3567da)"/>
   </g>
   <g id="text_2">
    <!-- 6.6 mA -->
    <g transform="translate(57.178437 65.78) scale(0.14 -0.14)">
     <defs>
      <path id="NewCMMath-Book-36" d="M 2451 3226 
C 2662 3226 2765 3334 2765 3552 
C 2765 4013 2419 4262 1946 4262 
C 1414 4262 992 4013 678 3507 
C 403 3072 269 2579 269 2022 
C 269 1210 416 640 717 301 
C 973 6 1267 -141 1606 -141 
C 1997 -141 2317 6 2566 301 
C 2803 582 2925 922 2925 1312 
C 2925 1702 2810 2035 2579 2310 
C 2336 2605 2022 2758 1645 2758 
C 1312 2758 1056 2573 883 2214 
L 883 2253 
C 883 2976 1062 3590 1446 3872 
C 1613 3994 1786 4051 1958 4051 
C 2189 4051 2355 3987 2464 3853 
C 2246 3853 2138 3731 2138 3539 
C 2138 3360 2272 3226 2451 3226 
z
M 2202 2176 
C 2272 2029 2310 1741 2310 1318 
C 2310 902 2278 627 2208 486 
C 2080 224 1882 90 1606 90 
C 1421 90 1280 154 1178 282 
C 1094 384 1037 474 1011 544 
C 934 742 896 1043 896 1453 
C 896 1632 922 1805 966 1971 
C 1050 2272 1286 2554 1638 2554 
C 1888 2554 2080 2426 2202 2176 
z
" transform="scale(0.015625)"/>
      <path id="NewCMMath-Book-6d" d="M 2016 2643 
C 2310 2643 2458 2419 2458 1965 
L 2458 506 
C 2458 384 2438 307 2394 282 
C 2349 256 2202 243 1965 243 
L 1965 0 
L 2707 19 
L 3443 0 
L 3443 243 
C 3206 243 3066 256 3021 282 
C 2976 307 2950 384 2950 506 
L 2950 1658 
C 2950 2170 3283 2643 3776 2643 
C 4077 2643 4224 2419 4224 1965 
L 4224 506 
C 4224 384 4198 307 4154 282 
C 4109 256 3962 243 3725 243 
L 3725 0 
L 4467 19 
L 5203 0 
L 5203 243 
C 4998 243 4864 250 4800 269 
C 4736 288 4710 333 4710 410 
L 4710 1606 
C 4710 1907 4698 2118 4678 2240 
C 4614 2630 4326 2829 3821 2829 
C 3418 2829 3117 2643 2912 2266 
C 2822 2643 2541 2829 2061 2829 
C 1658 2829 1350 2637 1146 2253 
L 1146 2829 
L 205 2758 
L 205 2515 
C 435 2515 576 2496 627 2458 
C 678 2419 698 2336 698 2189 
L 698 506 
C 698 384 672 307 627 282 
C 582 256 442 243 205 243 
L 205 0 
L 947 19 
L 1683 0 
L 1683 243 
C 1446 243 1299 256 1254 282 
C 1210 307 1184 384 1184 506 
L 1184 1658 
C 1184 2176 1523 2643 2016 2643 
z
" transform="scale(0.015625)"/>
      <path id="NewCMMath-Book-41" d="M 3731 19 
L 4589 0 
L 4589 250 
L 4448 250 
C 4288 250 4179 256 4134 269 
C 4038 301 3974 371 3936 480 
L 2566 4442 
C 2541 4525 2496 4582 2400 4582 
C 2317 4582 2259 4538 2227 4442 
L 915 653 
C 826 390 589 250 205 243 
L 205 0 
L 877 19 
L 1626 0 
L 1626 250 
C 1312 250 1152 346 1152 544 
C 1152 589 1158 614 1165 627 
L 1453 1440 
L 2976 1440 
L 3302 493 
C 3315 454 3322 429 3322 410 
C 3322 301 3149 250 2797 250 
L 2797 0 
C 3066 19 3379 26 3731 19 
z
M 2208 3642 
L 2886 1690 
L 1536 1690 
L 2208 3642 
z
" transform="scale(0.015625)"/>
     </defs>
     <use xlink:href="#NewCMMath-Book-36"/>
     <use xlink:href="#NewCMMath-Book-2e" x="49.999985"/>
     <use xlink:href="#NewCMMath-Book-36" x="77.799973"/>
     <use xlink:href="#NewCMMath-Book-20" x="127.799957"/>
     <use xlink:href="#NewCMMath-Book-6d" x="160.999954"/>
     <use xlink:href="#NewCMMath-Book-41" x="244.299942"/>
    </g>
   </g>
  </g>
 </g>
 <defs>
  <clipPath id="pa14d3567da">
   <rect x="0" y="0" width="117.36" height="139.86"/>
  </clipPath>
 </defs>
</svg>
