<?xml version="1.0" encoding="utf-8" standalone="no"?>
<!DOCTYPE svg PUBLIC "-//W3C//DTD SVG 1.1//EN"
  "http://www.w3.org/Graphics/SVG/1.1/DTD/svg11.dtd">
<svg xmlns:xlink="http://www.w3.org/1999/xlink" width="117.36pt" height="154.66pt" viewBox="0 0 117.36 154.66" xmlns="http://www.w3.org/2000/svg" version="1.1">
 <metadata>
  <rdf:RDF xmlns:dc="http://purl.org/dc/elements/1.1/" xmlns:cc="http://creativecommons.org/ns#" xmlns:rdf="http://www.w3.org/1999/02/22-rdf-syntax-ns#">
   <cc:Work>
    <dc:type rdf:resource="http://purl.org/dc/dcmitype/StillImage"/>
    <dc:date>2024-11-03T18:15:53.234046</dc:date>
    <dc:format>image/svg+xml</dc:format>
    <dc:creator>
     <cc:Agent>
      <dc:title>Matplotlib v3.9.2, https://matplotlib.org/</dc:title>
     </cc:Agent>
    </dc:creator>
   </cc:Work>
  </rdf:RDF>
 </metadata>
 <defs>
  <style type="text/css">*{stroke-linejoin: round; stroke-linecap: butt}</style>
 </defs>
 <g id="figure_1">
  <g id="patch_1">
   <path d="M 0 154.66 
L 117.36 154.66 
L 117.36 0 
L 0 0 
L 0 154.66 
z
" style="fill: none"/>
  </g>
  <g id="axes_1">
   <g id="line2d_1">
    <path d="M 112.68 136.48 
L 62.055 136.48 
M 55.305 136.48 
L 4.68 136.48 
" clip-path="url(#p697b1e5e41)" style="fill: none; stroke: #000000; stroke-width: 2; stroke-linecap: round"/>
   </g>
   <g id="line2d_2">
    <path d="M 62.055 149.98 
L 62.055 122.98 
" clip-path="url(#p697b1e5e41)" style="fill: none; stroke: #000000; stroke-width: 2; stroke-linecap: round"/>
   </g>
   <g id="line2d_3">
    <path d="M 55.305 143.23 
L 55.305 129.73 
" clip-path="url(#p697b1e5e41)" style="fill: none; stroke: #000000; stroke-width: 2; stroke-linecap: round"/>
   </g>
   <g id="line2d_4">
    <path d="M 4.68 136.48 
L 4.68 82.48 
L 4.68 28.48 
" clip-path="url(#p697b1e5e41)" style="fill: none; stroke: #000000; stroke-width: 2; stroke-linecap: round"/>
   </g>
   <g id="line2d_5">
    <path d="M 4.68 28.48 
L 40.68 28.48 
L 40.68 19.48 
L 76.68 19.48 
L 76.68 37.48 
L 40.68 37.48 
L 40.68 28.48 
M 76.68 28.48 
L 112.68 28.48 
" clip-path="url(#p697b1e5e41)" style="fill: none; stroke: #000000; stroke-width: 2; stroke-linecap: round"/>
   </g>
   <g id="line2d_6">
    <path d="M 112.68 28.48 
L 112.68 82.48 
L 112.68 136.48 
" clip-path="url(#p697b1e5e41)" style="fill: none; stroke: #000000; stroke-width: 2; stroke-linecap: round"/>
   </g>
   <g id="text_1">
    <!-- 1 kΩ -->
    <g transform="translate(44.105781 13.163125) scale(0.14 -0.14)">
     <defs>
      <path id="NewCMMath-Book-31" d="M 1722 4262 
C 1459 3994 1075 3859 570 3859 
L 570 3610 
C 902 3610 1178 3661 1389 3763 
L 1389 525 
C 1389 410 1363 333 1306 301 
C 1248 269 1088 250 832 250 
L 608 250 
L 608 0 
C 768 13 1114 19 1645 19 
C 2176 19 2522 13 2682 0 
L 2682 250 
L 2458 250 
C 2195 250 2035 269 1984 301 
C 1933 333 1901 410 1901 525 
L 1901 4070 
C 1901 4224 1888 4262 1722 4262 
z
" transform="scale(0.015625)"/>
      <path id="NewCMMath-Book-20" transform="scale(0.015625)"/>
      <path id="NewCMMath-Book-6b" d="M 2701 19 
C 2829 26 3021 19 3270 0 
L 3270 250 
C 3117 250 3002 269 2925 301 
C 2848 333 2758 422 2656 570 
L 1856 1702 
C 1837 1760 1824 1779 1824 1760 
C 1824 1766 1888 1824 2022 1939 
C 2246 2138 2413 2266 2522 2336 
C 2720 2458 2918 2522 3123 2534 
L 3123 2778 
C 2989 2765 2835 2758 2662 2758 
C 2368 2758 2125 2765 1926 2778 
L 1926 2534 
C 2048 2528 2112 2483 2112 2400 
C 2112 2323 2067 2246 1984 2170 
L 1139 1434 
L 1139 4442 
L 179 4371 
L 179 4128 
C 410 4128 550 4109 602 4070 
C 653 4032 672 3942 672 3795 
L 672 506 
C 672 384 646 307 602 282 
C 557 256 416 250 179 250 
L 179 0 
L 890 19 
L 1606 0 
L 1606 250 
C 1370 250 1235 256 1190 282 
C 1146 307 1120 384 1120 506 
L 1120 1146 
L 1491 1472 
L 1594 1318 
C 2010 742 2221 422 2221 365 
C 2221 288 2144 250 1990 250 
L 1990 0 
L 2701 19 
z
" transform="scale(0.015625)"/>
      <path id="NewCMMath-Book-3a9" d="M 1709 160 
C 1709 467 1594 941 1370 1574 
C 1158 2144 1056 2586 1056 2906 
C 1056 3686 1542 4320 2304 4320 
C 3066 4320 3558 3686 3558 2906 
C 3558 2592 3437 2099 3200 1440 
C 3002 877 2906 448 2906 160 
C 2906 6 2931 0 3091 0 
L 4122 0 
L 4339 1075 
L 4128 1075 
C 4090 870 4051 710 4013 595 
C 3987 525 3930 486 3846 467 
C 3827 461 3750 461 3616 461 
L 3142 461 
C 3206 704 3392 1050 3699 1498 
C 4070 2054 4256 2522 4256 2899 
C 4256 3379 4045 3776 3629 4090 
C 3251 4371 2810 4512 2310 4512 
C 1805 4512 1363 4371 986 4090 
C 570 3782 358 3386 358 2899 
C 358 2528 544 2061 915 1498 
C 1158 1139 1370 826 1472 461 
L 998 461 
C 781 461 653 493 621 550 
C 557 755 512 928 486 1075 
L 275 1075 
L 493 0 
L 1530 0 
C 1677 0 1709 13 1709 160 
z
" transform="scale(0.015625)"/>
     </defs>
     <use xlink:href="#NewCMMath-Book-31"/>
     <use xlink:href="#NewCMMath-Book-20" x="49.999985"/>
     <use xlink:href="#NewCMMath-Book-6b" x="83.199982"/>
     <use xlink:href="#NewCMMath-Book-3a9" x="135.999969"/>
    </g>
   </g>
   <g id="line2d_7">
    <path d="M 112.68 82.48 
L 112.68 82.48 
" clip-path="url(#p697b1e5e41)" style="fill: none; stroke: #000000; stroke-width: 2; stroke-linecap: round"/>
   </g>
   <g id="patch_2">
    <path d="M 107.28 82.48 
L 112.68 71.68 
L 118.08 82.48 
z
" clip-path="url(#p697b1e5e41)"/>
   </g>
   <g id="text_2">
    <!-- 23 mA -->
    <g transform="translate(61.07 80.58) scale(0.14 -0.14)">
     <defs>
      <path id="NewCMMath-Book-32" d="M 1517 4262 
C 1190 4262 915 4147 678 3917 
C 442 3686 320 3418 320 3091 
C 320 2874 480 2714 678 2714 
C 870 2714 1030 2880 1030 3072 
C 1030 3283 877 3430 672 3430 
C 653 3430 640 3430 627 3424 
C 749 3738 1030 4013 1434 4013 
C 1958 4013 2253 3558 2253 3008 
C 2253 2579 2035 2118 1600 1632 
L 397 275 
C 314 179 320 186 320 0 
L 2694 0 
L 2880 1152 
L 2669 1152 
C 2618 826 2573 640 2534 582 
C 2502 550 2310 538 1958 538 
L 890 538 
L 1510 1146 
C 1946 1555 2496 1997 2682 2336 
C 2810 2560 2874 2784 2874 3008 
C 2874 3763 2285 4262 1517 4262 
z
" transform="scale(0.015625)"/>
      <path id="NewCMMath-Book-33" d="M 1939 2259 
C 2362 2419 2758 2822 2758 3366 
C 2758 3642 2624 3866 2362 4038 
C 2131 4186 1869 4262 1574 4262 
C 1286 4262 1037 4186 813 4038 
C 563 3872 435 3654 435 3379 
C 435 3168 576 3021 781 3021 
C 986 3021 1126 3168 1126 3373 
C 1126 3584 1005 3699 762 3712 
C 928 3936 1190 4051 1549 4051 
C 1933 4051 2125 3827 2125 3373 
C 2125 3104 2074 2880 1978 2694 
C 1805 2387 1568 2330 1171 2330 
C 1094 2317 1056 2285 1056 2227 
C 1056 2131 1101 2131 1229 2131 
L 1504 2131 
C 1984 2131 2227 1792 2227 1107 
C 2227 563 2029 90 1542 90 
C 1126 90 819 230 634 512 
C 858 506 1024 672 1024 890 
C 1024 1107 864 1267 646 1267 
C 397 1267 269 1139 269 877 
C 269 563 410 314 691 115 
C 941 -58 1235 -141 1562 -141 
C 1926 -141 2240 -19 2515 218 
C 2790 454 2925 749 2925 1107 
C 2925 1709 2451 2125 1939 2259 
z
" transform="scale(0.015625)"/>
      <path id="NewCMMath-Book-6d" d="M 2016 2643 
C 2310 2643 2458 2419 2458 1965 
L 2458 506 
C 2458 384 2438 307 2394 282 
C 2349 256 2202 243 1965 243 
L 1965 0 
L 2707 19 
L 3443 0 
L 3443 243 
C 3206 243 3066 256 3021 282 
C 2976 307 2950 384 2950 506 
L 2950 1658 
C 2950 2170 3283 2643 3776 2643 
C 4077 2643 4224 2419 4224 1965 
L 4224 506 
C 4224 384 4198 307 4154 282 
C 4109 256 3962 243 3725 243 
L 3725 0 
L 4467 19 
L 5203 0 
L 5203 243 
C 4998 243 4864 250 4800 269 
C 4736 288 4710 333 4710 410 
L 4710 1606 
C 4710 1907 4698 2118 4678 2240 
C 4614 2630 4326 2829 3821 2829 
C 3418 2829 3117 2643 2912 2266 
C 2822 2643 2541 2829 2061 2829 
C 1658 2829 1350 2637 1146 2253 
L 1146 2829 
L 205 2758 
L 205 2515 
C 435 2515 576 2496 627 2458 
C 678 2419 698 2336 698 2189 
L 698 506 
C 698 384 672 307 627 282 
C 582 256 442 243 205 243 
L 205 0 
L 947 19 
L 1683 0 
L 1683 243 
C 1446 243 1299 256 1254 282 
C 1210 307 1184 384 1184 506 
L 1184 1658 
C 1184 2176 1523 2643 2016 2643 
z
" transform="scale(0.015625)"/>
      <path id="NewCMMath-Book-41" d="M 3731 19 
L 4589 0 
L 4589 250 
L 4448 250 
C 4288 250 4179 256 4134 269 
C 4038 301 3974 371 3936 480 
L 2566 4442 
C 2541 4525 2496 4582 2400 4582 
C 2317 4582 2259 4538 2227 4442 
L 915 653 
C 826 390 589 250 205 243 
L 205 0 
L 877 19 
L 1626 0 
L 1626 250 
C 1312 250 1152 346 1152 544 
C 1152 589 1158 614 1165 627 
L 1453 1440 
L 2976 1440 
L 3302 493 
C 3315 454 3322 429 3322 410 
C 3322 301 3149 250 2797 250 
L 2797 0 
C 3066 19 3379 26 3731 19 
z
M 2208 3642 
L 2886 1690 
L 1536 1690 
L 2208 3642 
z
" transform="scale(0.015625)"/>
     </defs>
     <use xlink:href="#NewCMMath-Book-32"/>
     <use xlink:href="#NewCMMath-Book-33" x="49.999985"/>
     <use xlink:href="#NewCMMath-Book-20" x="99.999969"/>
     <use xlink:href="#NewCMMath-Book-6d" x="133.199966"/>
     <use xlink:href="#NewCMMath-Book-41" x="216.499954"/>
    </g>
   </g>
  </g>
 </g>
 <defs>
  <clipPath id="p697b1e5e41">
   <rect x="0" y="0" width="117.36" height="154.66"/>
  </clipPath>
 </defs>
</svg>
