<?xml version="1.0" encoding="utf-8" standalone="no"?>
<!DOCTYPE svg PUBLIC "-//W3C//DTD SVG 1.1//EN"
  "http://www.w3.org/Graphics/SVG/1.1/DTD/svg11.dtd">
<svg xmlns:xlink="http://www.w3.org/1999/xlink" width="225.36pt" height="154.66pt" viewBox="0 0 225.36 154.66" xmlns="http://www.w3.org/2000/svg" version="1.1">
 <metadata>
  <rdf:RDF xmlns:dc="http://purl.org/dc/elements/1.1/" xmlns:cc="http://creativecommons.org/ns#" xmlns:rdf="http://www.w3.org/1999/02/22-rdf-syntax-ns#">
   <cc:Work>
    <dc:type rdf:resource="http://purl.org/dc/dcmitype/StillImage"/>
    <dc:date>2024-11-03T15:43:47.456030</dc:date>
    <dc:format>image/svg+xml</dc:format>
    <dc:creator>
     <cc:Agent>
      <dc:title>Matplotlib v3.9.2, https://matplotlib.org/</dc:title>
     </cc:Agent>
    </dc:creator>
   </cc:Work>
  </rdf:RDF>
 </metadata>
 <defs>
  <style type="text/css">*{stroke-linejoin: round; stroke-linecap: butt}</style>
 </defs>
 <g id="figure_1">
  <g id="patch_1">
   <path d="M 0 154.66 
L 225.36 154.66 
L 225.36 0 
L 0 0 
L 0 154.66 
z
" style="fill: none"/>
  </g>
  <g id="axes_1">
   <g id="line2d_1">
    <path d="M 4.68 32.98 
L 55.305 32.98 
M 62.055 32.98 
L 112.68 32.98 
" clip-path="url(#p8898d0c271)" style="fill: none; stroke: #000000; stroke-width: 2; stroke-linecap: round"/>
   </g>
   <g id="line2d_2">
    <path d="M 55.305 19.48 
L 55.305 46.48 
" clip-path="url(#p8898d0c271)" style="fill: none; stroke: #000000; stroke-width: 2; stroke-linecap: round"/>
   </g>
   <g id="line2d_3">
    <path d="M 62.055 26.23 
L 62.055 39.73 
" clip-path="url(#p8898d0c271)" style="fill: none; stroke: #000000; stroke-width: 2; stroke-linecap: round"/>
   </g>
   <g id="line2d_4">
    <path d="M 112.68 32.98 
L 163.305 32.98 
M 170.055 32.98 
L 220.68 32.98 
" clip-path="url(#p8898d0c271)" style="fill: none; stroke: #000000; stroke-width: 2; stroke-linecap: round"/>
   </g>
   <g id="line2d_5">
    <path d="M 163.305 19.48 
L 163.305 46.48 
" clip-path="url(#p8898d0c271)" style="fill: none; stroke: #000000; stroke-width: 2; stroke-linecap: round"/>
   </g>
   <g id="line2d_6">
    <path d="M 170.055 26.23 
L 170.055 39.73 
" clip-path="url(#p8898d0c271)" style="fill: none; stroke: #000000; stroke-width: 2; stroke-linecap: round"/>
   </g>
   <g id="line2d_7">
    <path d="M 220.68 32.98 
L 220.68 86.98 
L 220.68 140.98 
" clip-path="url(#p8898d0c271)" style="fill: none; stroke: #000000; stroke-width: 2; stroke-linecap: round"/>
   </g>
   <g id="line2d_8">
    <path d="M 220.68 140.98 
L 130.68 140.98 
L 130.68 149.98 
L 94.68 149.98 
L 94.68 131.98 
L 130.68 131.98 
L 130.68 140.98 
M 94.68 140.98 
L 4.68 140.98 
" clip-path="url(#p8898d0c271)" style="fill: none; stroke: #000000; stroke-width: 2; stroke-linecap: round"/>
   </g>
   <g id="line2d_9">
    <path d="M 4.68 140.98 
L 4.68 86.98 
L 4.68 32.98 
" clip-path="url(#p8898d0c271)" style="fill: none; stroke: #000000; stroke-width: 2; stroke-linecap: round"/>
   </g>
   <g id="text_1">
    <!-- 3 V -->
    <g transform="translate(47.605781 13.163125) scale(0.14 -0.14)">
     <defs>
      <path id="NewCMMath-Book-33" d="M 1939 2259 
C 2362 2419 2758 2822 2758 3366 
C 2758 3642 2624 3866 2362 4038 
C 2131 4186 1869 4262 1574 4262 
C 1286 4262 1037 4186 813 4038 
C 563 3872 435 3654 435 3379 
C 435 3168 576 3021 781 3021 
C 986 3021 1126 3168 1126 3373 
C 1126 3584 1005 3699 762 3712 
C 928 3936 1190 4051 1549 4051 
C 1933 4051 2125 3827 2125 3373 
C 2125 3104 2074 2880 1978 2694 
C 1805 2387 1568 2330 1171 2330 
C 1094 2317 1056 2285 1056 2227 
C 1056 2131 1101 2131 1229 2131 
L 1504 2131 
C 1984 2131 2227 1792 2227 1107 
C 2227 563 2029 90 1542 90 
C 1126 90 819 230 634 512 
C 858 506 1024 672 1024 890 
C 1024 1107 864 1267 646 1267 
C 397 1267 269 1139 269 877 
C 269 563 410 314 691 115 
C 941 -58 1235 -141 1562 -141 
C 1926 -141 2240 -19 2515 218 
C 2790 454 2925 749 2925 1107 
C 2925 1709 2451 2125 1939 2259 
z
" transform="scale(0.015625)"/>
      <path id="NewCMMath-Book-20" transform="scale(0.015625)"/>
      <path id="NewCMMath-Book-56" d="M 3981 3718 
C 4083 3981 4314 4115 4672 4122 
L 4672 4371 
C 4397 4352 4186 4346 4032 4352 
L 3283 4371 
L 3283 4128 
C 3597 4122 3750 4019 3750 3834 
C 3750 3808 3738 3770 3718 3718 
L 2586 730 
L 1395 3859 
C 1376 3923 1363 3962 1363 3968 
C 1363 4070 1536 4122 1882 4122 
L 1882 4371 
C 1613 4352 1306 4346 954 4352 
L 122 4371 
L 122 4122 
C 358 4122 512 4109 582 4090 
C 653 4070 704 4006 742 3898 
L 2214 13 
C 2253 -90 2310 -141 2394 -141 
C 2477 -141 2534 -96 2566 -6 
L 3981 3718 
z
" transform="scale(0.015625)"/>
     </defs>
     <use xlink:href="#NewCMMath-Book-33"/>
     <use xlink:href="#NewCMMath-Book-20" x="49.999985"/>
     <use xlink:href="#NewCMMath-Book-56" x="83.199982"/>
    </g>
   </g>
   <g id="text_2">
    <!-- 3 V -->
    <g transform="translate(155.605781 13.163125) scale(0.14 -0.14)">
     <use xlink:href="#NewCMMath-Book-33"/>
     <use xlink:href="#NewCMMath-Book-20" x="49.999985"/>
     <use xlink:href="#NewCMMath-Book-56" x="83.199982"/>
    </g>
   </g>
   <g id="text_3">
    <!-- 1 kΩ -->
    <g transform="translate(98.105781 125.663125) scale(0.14 -0.14)">
     <defs>
      <path id="NewCMMath-Book-31" d="M 1722 4262 
C 1459 3994 1075 3859 570 3859 
L 570 3610 
C 902 3610 1178 3661 1389 3763 
L 1389 525 
C 1389 410 1363 333 1306 301 
C 1248 269 1088 250 832 250 
L 608 250 
L 608 0 
C 768 13 1114 19 1645 19 
C 2176 19 2522 13 2682 0 
L 2682 250 
L 2458 250 
C 2195 250 2035 269 1984 301 
C 1933 333 1901 410 1901 525 
L 1901 4070 
C 1901 4224 1888 4262 1722 4262 
z
" transform="scale(0.015625)"/>
      <path id="NewCMMath-Book-6b" d="M 2701 19 
C 2829 26 3021 19 3270 0 
L 3270 250 
C 3117 250 3002 269 2925 301 
C 2848 333 2758 422 2656 570 
L 1856 1702 
C 1837 1760 1824 1779 1824 1760 
C 1824 1766 1888 1824 2022 1939 
C 2246 2138 2413 2266 2522 2336 
C 2720 2458 2918 2522 3123 2534 
L 3123 2778 
C 2989 2765 2835 2758 2662 2758 
C 2368 2758 2125 2765 1926 2778 
L 1926 2534 
C 2048 2528 2112 2483 2112 2400 
C 2112 2323 2067 2246 1984 2170 
L 1139 1434 
L 1139 4442 
L 179 4371 
L 179 4128 
C 410 4128 550 4109 602 4070 
C 653 4032 672 3942 672 3795 
L 672 506 
C 672 384 646 307 602 282 
C 557 256 416 250 179 250 
L 179 0 
L 890 19 
L 1606 0 
L 1606 250 
C 1370 250 1235 256 1190 282 
C 1146 307 1120 384 1120 506 
L 1120 1146 
L 1491 1472 
L 1594 1318 
C 2010 742 2221 422 2221 365 
C 2221 288 2144 250 1990 250 
L 1990 0 
L 2701 19 
z
" transform="scale(0.015625)"/>
      <path id="NewCMMath-Book-3a9" d="M 1709 160 
C 1709 467 1594 941 1370 1574 
C 1158 2144 1056 2586 1056 2906 
C 1056 3686 1542 4320 2304 4320 
C 3066 4320 3558 3686 3558 2906 
C 3558 2592 3437 2099 3200 1440 
C 3002 877 2906 448 2906 160 
C 2906 6 2931 0 3091 0 
L 4122 0 
L 4339 1075 
L 4128 1075 
C 4090 870 4051 710 4013 595 
C 3987 525 3930 486 3846 467 
C 3827 461 3750 461 3616 461 
L 3142 461 
C 3206 704 3392 1050 3699 1498 
C 4070 2054 4256 2522 4256 2899 
C 4256 3379 4045 3776 3629 4090 
C 3251 4371 2810 4512 2310 4512 
C 1805 4512 1363 4371 986 4090 
C 570 3782 358 3386 358 2899 
C 358 2528 544 2061 915 1498 
C 1158 1139 1370 826 1472 461 
L 998 461 
C 781 461 653 493 621 550 
C 557 755 512 928 486 1075 
L 275 1075 
L 493 0 
L 1530 0 
C 1677 0 1709 13 1709 160 
z
" transform="scale(0.015625)"/>
     </defs>
     <use xlink:href="#NewCMMath-Book-31"/>
     <use xlink:href="#NewCMMath-Book-20" x="49.999985"/>
     <use xlink:href="#NewCMMath-Book-6b" x="83.199982"/>
     <use xlink:href="#NewCMMath-Book-3a9" x="135.999969"/>
    </g>
   </g>
  </g>
 </g>
 <defs>
  <clipPath id="p8898d0c271">
   <rect x="0" y="0" width="225.36" height="154.66"/>
  </clipPath>
 </defs>
</svg>
