<?xml version="1.0" encoding="utf-8" standalone="no"?>
<!DOCTYPE svg PUBLIC "-//W3C//DTD SVG 1.1//EN"
  "http://www.w3.org/Graphics/SVG/1.1/DTD/svg11.dtd">
<svg xmlns:xlink="http://www.w3.org/1999/xlink" width="333.36pt" height="176.26pt" viewBox="0 0 333.36 176.26" xmlns="http://www.w3.org/2000/svg" version="1.1">
 <metadata>
  <rdf:RDF xmlns:dc="http://purl.org/dc/elements/1.1/" xmlns:cc="http://creativecommons.org/ns#" xmlns:rdf="http://www.w3.org/1999/02/22-rdf-syntax-ns#">
   <cc:Work>
    <dc:type rdf:resource="http://purl.org/dc/dcmitype/StillImage"/>
    <dc:date>2024-11-03T15:43:48.063446</dc:date>
    <dc:format>image/svg+xml</dc:format>
    <dc:creator>
     <cc:Agent>
      <dc:title>Matplotlib v3.9.2, https://matplotlib.org/</dc:title>
     </cc:Agent>
    </dc:creator>
   </cc:Work>
  </rdf:RDF>
 </metadata>
 <defs>
  <style type="text/css">*{stroke-linejoin: round; stroke-linecap: butt}</style>
 </defs>
 <g id="figure_1">
  <g id="patch_1">
   <path d="M 0 176.26 
L 333.36 176.26 
L 333.36 0 
L 0 0 
L 0 176.26 
z
" style="fill: none"/>
  </g>
  <g id="axes_1">
   <g id="line2d_1">
    <path d="M 112.68 158.08 
L 62.055 158.08 
M 55.305 158.08 
L 4.68 158.08 
" clip-path="url(#p77ad17cb2c)" style="fill: none; stroke: #000000; stroke-width: 2; stroke-linecap: round"/>
   </g>
   <g id="line2d_2">
    <path d="M 62.055 171.58 
L 62.055 144.58 
" clip-path="url(#p77ad17cb2c)" style="fill: none; stroke: #000000; stroke-width: 2; stroke-linecap: round"/>
   </g>
   <g id="line2d_3">
    <path d="M 55.305 164.83 
L 55.305 151.33 
" clip-path="url(#p77ad17cb2c)" style="fill: none; stroke: #000000; stroke-width: 2; stroke-linecap: round"/>
   </g>
   <g id="line2d_4">
    <path d="M 4.68 158.08 
L 4.68 125.68 
L 4.68 93.28 
" clip-path="url(#p77ad17cb2c)" style="fill: none; stroke: #000000; stroke-width: 2; stroke-linecap: round"/>
   </g>
   <g id="line2d_5">
    <path d="M 4.68 93.28 
L 40.68 93.28 
L 40.68 84.28 
L 76.68 84.28 
L 76.68 102.28 
L 40.68 102.28 
L 40.68 93.28 
M 76.68 93.28 
L 112.68 93.28 
" clip-path="url(#p77ad17cb2c)" style="fill: none; stroke: #000000; stroke-width: 2; stroke-linecap: round"/>
   </g>
   <g id="line2d_6">
    <path d="M 4.68 93.28 
L 4.68 60.88 
L 4.68 28.48 
" clip-path="url(#p77ad17cb2c)" style="fill: none; stroke: #000000; stroke-width: 2; stroke-linecap: round"/>
   </g>
   <g id="line2d_7">
    <path d="M 4.68 28.48 
L 40.68 28.48 
L 40.68 19.48 
L 76.68 19.48 
L 76.68 37.48 
L 40.68 37.48 
L 40.68 28.48 
M 76.68 28.48 
L 112.68 28.48 
" clip-path="url(#p77ad17cb2c)" style="fill: none; stroke: #000000; stroke-width: 2; stroke-linecap: round"/>
   </g>
   <g id="line2d_8">
    <path d="M 112.68 28.48 
L 112.68 93.28 
L 112.68 158.08 
" clip-path="url(#p77ad17cb2c)" style="fill: none; stroke: #000000; stroke-width: 2; stroke-linecap: round"/>
   </g>
   <g id="line2d_9">
    <path d="M 328.68 158.08 
L 278.055 158.08 
M 271.305 158.08 
L 220.68 158.08 
" clip-path="url(#p77ad17cb2c)" style="fill: none; stroke: #000000; stroke-width: 2; stroke-linecap: round"/>
   </g>
   <g id="line2d_10">
    <path d="M 278.055 171.58 
L 278.055 144.58 
" clip-path="url(#p77ad17cb2c)" style="fill: none; stroke: #000000; stroke-width: 2; stroke-linecap: round"/>
   </g>
   <g id="line2d_11">
    <path d="M 271.305 164.83 
L 271.305 151.33 
" clip-path="url(#p77ad17cb2c)" style="fill: none; stroke: #000000; stroke-width: 2; stroke-linecap: round"/>
   </g>
   <g id="line2d_12">
    <path d="M 220.68 158.08 
L 220.68 125.68 
L 220.68 93.28 
" clip-path="url(#p77ad17cb2c)" style="fill: none; stroke: #000000; stroke-width: 2; stroke-linecap: round"/>
   </g>
   <g id="line2d_13">
    <path d="M 220.68 93.28 
L 256.68 93.28 
L 256.68 84.28 
L 292.68 84.28 
L 292.68 102.28 
L 256.68 102.28 
L 256.68 93.28 
M 292.68 93.28 
L 328.68 93.28 
" clip-path="url(#p77ad17cb2c)" style="fill: none; stroke: #000000; stroke-width: 2; stroke-linecap: round"/>
   </g>
   <g id="line2d_14">
    <path d="M 328.68 93.28 
L 328.68 125.68 
L 328.68 158.08 
" clip-path="url(#p77ad17cb2c)" style="fill: none; stroke: #000000; stroke-width: 2; stroke-linecap: round"/>
   </g>
   <g id="text_1">
    <!-- 5 V -->
    <g transform="translate(47.605781 138.263125) scale(0.14 -0.14)">
     <defs>
      <path id="NewCMMath-Book-35" d="M 755 2016 
C 787 2016 826 2042 858 2086 
C 1050 2374 1312 2515 1645 2515 
C 1869 2515 2042 2387 2157 2125 
C 2227 1952 2266 1690 2266 1338 
C 2266 934 2214 653 2118 486 
C 1958 224 1741 90 1466 90 
C 1037 90 698 397 582 730 
C 602 723 614 730 640 730 
C 832 730 992 877 992 1069 
C 992 1267 832 1402 640 1402 
C 416 1402 320 1280 320 1043 
C 320 403 838 -141 1478 -141 
C 1869 -141 2202 0 2470 282 
C 2739 563 2874 902 2874 1293 
C 2874 1664 2765 1984 2547 2259 
C 2310 2560 2016 2707 1658 2707 
C 1357 2707 1094 2611 883 2419 
L 883 3558 
C 1056 3507 1222 3482 1395 3482 
C 1690 3482 1946 3552 2163 3699 
C 2362 3821 2496 3942 2573 4058 
C 2611 4109 2630 4147 2630 4166 
C 2630 4230 2598 4262 2534 4262 
C 2182 4128 1882 4058 1638 4058 
C 1350 4058 1075 4115 813 4237 
C 781 4250 755 4256 730 4256 
C 672 4256 640 4198 640 4077 
L 640 2208 
C 640 2074 640 2016 755 2016 
z
" transform="scale(0.015625)"/>
      <path id="NewCMMath-Book-20" transform="scale(0.015625)"/>
      <path id="NewCMMath-Book-56" d="M 3981 3718 
C 4083 3981 4314 4115 4672 4122 
L 4672 4371 
C 4397 4352 4186 4346 4032 4352 
L 3283 4371 
L 3283 4128 
C 3597 4122 3750 4019 3750 3834 
C 3750 3808 3738 3770 3718 3718 
L 2586 730 
L 1395 3859 
C 1376 3923 1363 3962 1363 3968 
C 1363 4070 1536 4122 1882 4122 
L 1882 4371 
C 1613 4352 1306 4346 954 4352 
L 122 4371 
L 122 4122 
C 358 4122 512 4109 582 4090 
C 653 4070 704 4006 742 3898 
L 2214 13 
C 2253 -90 2310 -141 2394 -141 
C 2477 -141 2534 -96 2566 -6 
L 3981 3718 
z
" transform="scale(0.015625)"/>
     </defs>
     <use xlink:href="#NewCMMath-Book-35"/>
     <use xlink:href="#NewCMMath-Book-20" x="49.999985"/>
     <use xlink:href="#NewCMMath-Book-56" x="83.199982"/>
    </g>
   </g>
   <g id="text_2">
    <!-- 50 Ω -->
    <g transform="translate(44.301562 77.963125) scale(0.14 -0.14)">
     <defs>
      <path id="NewCMMath-Book-30" d="M 1594 -141 
C 2496 -141 2944 589 2944 2048 
C 2944 3027 2739 3680 2336 4000 
C 2112 4173 1862 4262 1600 4262 
C 698 4262 250 3526 250 2048 
C 250 870 563 -141 1594 -141 
z
M 2310 3354 
C 2355 3130 2374 2720 2374 2125 
C 2374 1536 2349 1101 2304 819 
C 2221 307 1984 51 1594 51 
C 1446 51 1299 109 1165 218 
C 992 365 890 666 845 1126 
C 826 1286 819 1619 819 2125 
C 819 2682 838 3072 870 3283 
C 928 3635 1043 3859 1222 3955 
C 1363 4032 1485 4070 1594 4070 
C 2010 4070 2240 3731 2310 3354 
z
" transform="scale(0.015625)"/>
      <path id="NewCMMath-Book-3a9" d="M 1709 160 
C 1709 467 1594 941 1370 1574 
C 1158 2144 1056 2586 1056 2906 
C 1056 3686 1542 4320 2304 4320 
C 3066 4320 3558 3686 3558 2906 
C 3558 2592 3437 2099 3200 1440 
C 3002 877 2906 448 2906 160 
C 2906 6 2931 0 3091 0 
L 4122 0 
L 4339 1075 
L 4128 1075 
C 4090 870 4051 710 4013 595 
C 3987 525 3930 486 3846 467 
C 3827 461 3750 461 3616 461 
L 3142 461 
C 3206 704 3392 1050 3699 1498 
C 4070 2054 4256 2522 4256 2899 
C 4256 3379 4045 3776 3629 4090 
C 3251 4371 2810 4512 2310 4512 
C 1805 4512 1363 4371 986 4090 
C 570 3782 358 3386 358 2899 
C 358 2528 544 2061 915 1498 
C 1158 1139 1370 826 1472 461 
L 998 461 
C 781 461 653 493 621 550 
C 557 755 512 928 486 1075 
L 275 1075 
L 493 0 
L 1530 0 
C 1677 0 1709 13 1709 160 
z
" transform="scale(0.015625)"/>
     </defs>
     <use xlink:href="#NewCMMath-Book-35"/>
     <use xlink:href="#NewCMMath-Book-30" x="49.999985"/>
     <use xlink:href="#NewCMMath-Book-20" x="99.999969"/>
     <use xlink:href="#NewCMMath-Book-3a9" x="133.199966"/>
    </g>
   </g>
   <g id="text_3">
    <!-- 100 Ω -->
    <g transform="translate(40.801562 13.163125) scale(0.14 -0.14)">
     <defs>
      <path id="NewCMMath-Book-31" d="M 1722 4262 
C 1459 3994 1075 3859 570 3859 
L 570 3610 
C 902 3610 1178 3661 1389 3763 
L 1389 525 
C 1389 410 1363 333 1306 301 
C 1248 269 1088 250 832 250 
L 608 250 
L 608 0 
C 768 13 1114 19 1645 19 
C 2176 19 2522 13 2682 0 
L 2682 250 
L 2458 250 
C 2195 250 2035 269 1984 301 
C 1933 333 1901 410 1901 525 
L 1901 4070 
C 1901 4224 1888 4262 1722 4262 
z
" transform="scale(0.015625)"/>
     </defs>
     <use xlink:href="#NewCMMath-Book-31"/>
     <use xlink:href="#NewCMMath-Book-30" x="49.999985"/>
     <use xlink:href="#NewCMMath-Book-30" x="99.999969"/>
     <use xlink:href="#NewCMMath-Book-20" x="149.999954"/>
     <use xlink:href="#NewCMMath-Book-3a9" x="183.199951"/>
    </g>
   </g>
   <g id="text_4">
    <!-- 5 V -->
    <g transform="translate(263.605781 138.263125) scale(0.14 -0.14)">
     <use xlink:href="#NewCMMath-Book-35"/>
     <use xlink:href="#NewCMMath-Book-20" x="49.999985"/>
     <use xlink:href="#NewCMMath-Book-56" x="83.199982"/>
    </g>
   </g>
   <g id="line2d_15">
    <path d="M 112.68 136.48 
L 112.68 136.48 
" clip-path="url(#p77ad17cb2c)" style="fill: none; stroke: #000000; stroke-width: 2; stroke-linecap: round"/>
   </g>
   <g id="patch_2">
    <path d="M 107.28 136.48 
L 112.68 125.68 
L 118.08 136.48 
z
" clip-path="url(#p77ad17cb2c)"/>
   </g>
   <g id="text_5">
    <!-- 150 mA -->
    <g transform="translate(123.48 134.58) scale(0.14 -0.14)">
     <defs>
      <path id="NewCMMath-Book-6d" d="M 2016 2643 
C 2310 2643 2458 2419 2458 1965 
L 2458 506 
C 2458 384 2438 307 2394 282 
C 2349 256 2202 243 1965 243 
L 1965 0 
L 2707 19 
L 3443 0 
L 3443 243 
C 3206 243 3066 256 3021 282 
C 2976 307 2950 384 2950 506 
L 2950 1658 
C 2950 2170 3283 2643 3776 2643 
C 4077 2643 4224 2419 4224 1965 
L 4224 506 
C 4224 384 4198 307 4154 282 
C 4109 256 3962 243 3725 243 
L 3725 0 
L 4467 19 
L 5203 0 
L 5203 243 
C 4998 243 4864 250 4800 269 
C 4736 288 4710 333 4710 410 
L 4710 1606 
C 4710 1907 4698 2118 4678 2240 
C 4614 2630 4326 2829 3821 2829 
C 3418 2829 3117 2643 2912 2266 
C 2822 2643 2541 2829 2061 2829 
C 1658 2829 1350 2637 1146 2253 
L 1146 2829 
L 205 2758 
L 205 2515 
C 435 2515 576 2496 627 2458 
C 678 2419 698 2336 698 2189 
L 698 506 
C 698 384 672 307 627 282 
C 582 256 442 243 205 243 
L 205 0 
L 947 19 
L 1683 0 
L 1683 243 
C 1446 243 1299 256 1254 282 
C 1210 307 1184 384 1184 506 
L 1184 1658 
C 1184 2176 1523 2643 2016 2643 
z
" transform="scale(0.015625)"/>
      <path id="NewCMMath-Book-41" d="M 3731 19 
L 4589 0 
L 4589 250 
L 4448 250 
C 4288 250 4179 256 4134 269 
C 4038 301 3974 371 3936 480 
L 2566 4442 
C 2541 4525 2496 4582 2400 4582 
C 2317 4582 2259 4538 2227 4442 
L 915 653 
C 826 390 589 250 205 243 
L 205 0 
L 877 19 
L 1626 0 
L 1626 250 
C 1312 250 1152 346 1152 544 
C 1152 589 1158 614 1165 627 
L 1453 1440 
L 2976 1440 
L 3302 493 
C 3315 454 3322 429 3322 410 
C 3322 301 3149 250 2797 250 
L 2797 0 
C 3066 19 3379 26 3731 19 
z
M 2208 3642 
L 2886 1690 
L 1536 1690 
L 2208 3642 
z
" transform="scale(0.015625)"/>
     </defs>
     <use xlink:href="#NewCMMath-Book-31"/>
     <use xlink:href="#NewCMMath-Book-35" x="49.999985"/>
     <use xlink:href="#NewCMMath-Book-30" x="99.999969"/>
     <use xlink:href="#NewCMMath-Book-20" x="149.999954"/>
     <use xlink:href="#NewCMMath-Book-6d" x="183.199951"/>
     <use xlink:href="#NewCMMath-Book-41" x="266.499939"/>
    </g>
   </g>
  </g>
 </g>
 <defs>
  <clipPath id="p77ad17cb2c">
   <rect x="0" y="0" width="333.36" height="176.26"/>
  </clipPath>
 </defs>
</svg>
