<?xml version="1.0" encoding="utf-8" standalone="no"?>
<!DOCTYPE svg PUBLIC "-//W3C//DTD SVG 1.1//EN"
  "http://www.w3.org/Graphics/SVG/1.1/DTD/svg11.dtd">
<svg xmlns:xlink="http://www.w3.org/1999/xlink" width="249.16pt" height="346.86pt" viewBox="0 0 249.16 346.86" xmlns="http://www.w3.org/2000/svg" version="1.1">
 <metadata>
  <rdf:RDF xmlns:dc="http://purl.org/dc/elements/1.1/" xmlns:cc="http://creativecommons.org/ns#" xmlns:rdf="http://www.w3.org/1999/02/22-rdf-syntax-ns#">
   <cc:Work>
    <dc:type rdf:resource="http://purl.org/dc/dcmitype/StillImage"/>
    <dc:date>2024-11-03T15:05:40.228631</dc:date>
    <dc:format>image/svg+xml</dc:format>
    <dc:creator>
     <cc:Agent>
      <dc:title>Matplotlib v3.9.2, https://matplotlib.org/</dc:title>
     </cc:Agent>
    </dc:creator>
   </cc:Work>
  </rdf:RDF>
 </metadata>
 <defs>
  <style type="text/css">*{stroke-linejoin: round; stroke-linecap: butt}</style>
 </defs>
 <g id="figure_1">
  <g id="patch_1">
   <path d="M 0 346.86 
L 249.16 346.86 
L 249.16 0 
L 0 0 
L 0 346.86 
z
" style="fill: none"/>
  </g>
  <g id="axes_1">
   <g id="patch_2">
    <path d="M 226.48 184.68 
C 231.253656 184.68 235.832438 182.783406 239.207922 179.407922 
C 242.583406 176.032438 244.48 171.453656 244.48 166.68 
C 244.48 161.906344 242.583406 157.327562 239.207922 153.952078 
C 235.832438 150.576594 231.253656 148.68 226.48 148.68 
C 221.706344 148.68 217.127562 150.576594 213.752078 153.952078 
C 210.376594 157.327562 208.48 161.906344 208.48 166.68 
C 208.48 171.453656 210.376594 176.032438 213.752078 179.407922 
C 217.127562 182.783406 221.706344 184.68 226.48 184.68 
L 226.48 184.68 
z
" clip-path="url(#p6025fa8559)" style="fill: none; stroke: #000000; stroke-width: 2; stroke-linejoin: miter"/>
   </g>
   <g id="patch_3">
    <path d="M 118.48 292.68 
C 123.253656 292.68 127.832438 290.783406 131.207922 287.407922 
C 134.583406 284.032438 136.48 279.453656 136.48 274.68 
C 136.48 269.906344 134.583406 265.327562 131.207922 261.952078 
C 127.832438 258.576594 123.253656 256.68 118.48 256.68 
C 113.706344 256.68 109.127562 258.576594 105.752078 261.952078 
C 102.376594 265.327562 100.48 269.906344 100.48 274.68 
C 100.48 279.453656 102.376594 284.032438 105.752078 287.407922 
C 109.127562 290.783406 113.706344 292.68 118.48 292.68 
L 118.48 292.68 
z
" clip-path="url(#p6025fa8559)" style="fill: none; stroke: #000000; stroke-width: 2; stroke-linejoin: miter"/>
   </g>
   <g id="patch_4">
    <path d="M 118.48 76.68 
C 123.253656 76.68 127.832438 74.783406 131.207922 71.407922 
C 134.583406 68.032438 136.48 63.453656 136.48 58.68 
C 136.48 53.906344 134.583406 49.327562 131.207922 45.952078 
C 127.832438 42.576594 123.253656 40.68 118.48 40.68 
C 113.706344 40.68 109.127562 42.576594 105.752078 45.952078 
C 102.376594 49.327562 100.48 53.906344 100.48 58.68 
C 100.48 63.453656 102.376594 68.032438 105.752078 71.407922 
C 109.127562 74.783406 113.706344 76.68 118.48 76.68 
L 118.48 76.68 
z
" clip-path="url(#p6025fa8559)" style="fill: none; stroke: #000000; stroke-width: 2; stroke-linejoin: miter"/>
   </g>
   <g id="line2d_1">
    <path d="M 10.48 328.68 
L 61.105 328.68 
M 67.855 328.68 
L 118.48 328.68 
" clip-path="url(#p6025fa8559)" style="fill: none; stroke: #000000; stroke-width: 2; stroke-linecap: round"/>
   </g>
   <g id="line2d_2">
    <path d="M 61.105 315.18 
L 61.105 342.18 
" clip-path="url(#p6025fa8559)" style="fill: none; stroke: #000000; stroke-width: 2; stroke-linecap: round"/>
   </g>
   <g id="line2d_3">
    <path d="M 67.855 321.93 
L 67.855 335.43 
" clip-path="url(#p6025fa8559)" style="fill: none; stroke: #000000; stroke-width: 2; stroke-linecap: round"/>
   </g>
   <g id="line2d_4">
    <path d="M 118.48 328.68 
L 118.48 274.68 
L 118.48 220.68 
" clip-path="url(#p6025fa8559)" style="fill: none; stroke: #000000; stroke-width: 2; stroke-linecap: round"/>
   </g>
   <g id="line2d_5">
    <path d="M 118.48 220.68 
L 118.48 184.68 
L 109.48 184.68 
L 109.48 148.68 
L 127.48 148.68 
L 127.48 184.68 
L 118.48 184.68 
M 118.48 148.68 
L 118.48 112.68 
" clip-path="url(#p6025fa8559)" style="fill: none; stroke: #000000; stroke-width: 2; stroke-linecap: round"/>
   </g>
   <g id="line2d_6">
    <path d="M 118.48 112.68 
L 118.48 166.68 
L 118.48 220.68 
" clip-path="url(#p6025fa8559)" style="fill: none; stroke: #000000; stroke-width: 2; stroke-linecap: round"/>
   </g>
   <g id="line2d_7">
    <path d="M 118.48 220.68 
L 172.48 220.68 
L 226.48 220.68 
" clip-path="url(#p6025fa8559)" style="fill: none; stroke: #000000; stroke-width: 2; stroke-linecap: round"/>
   </g>
   <g id="line2d_8">
    <path d="M 226.48 220.68 
L 226.48 184.68 
L 226.48 184.68 
M 226.48 148.68 
L 226.48 148.68 
L 226.48 112.68 
" clip-path="url(#p6025fa8559)" style="fill: none; stroke: #000000; stroke-width: 2; stroke-linecap: round"/>
   </g>
   <g id="line2d_9">
    <path d="M 239.207922 179.407922 
L 213.752078 153.952078 
" clip-path="url(#p6025fa8559)" style="fill: none; stroke: #000000; stroke-width: 2; stroke-linecap: round"/>
   </g>
   <g id="line2d_10">
    <path d="M 213.752078 179.407922 
L 239.207922 153.952078 
" clip-path="url(#p6025fa8559)" style="fill: none; stroke: #000000; stroke-width: 2; stroke-linecap: round"/>
   </g>
   <g id="line2d_11">
    <path d="M 226.48 112.68 
L 226.48 166.68 
L 226.48 220.68 
" clip-path="url(#p6025fa8559)" style="fill: none; stroke: #000000; stroke-width: 2; stroke-linecap: round"/>
   </g>
   <g id="line2d_12">
    <path d="M 226.48 220.68 
L 226.48 256.68 
M 230.08 265.32 
L 242.68 285.48 
M 226.48 292.68 
L 226.48 328.68 
" clip-path="url(#p6025fa8559)" style="fill: none; stroke: #000000; stroke-width: 2; stroke-linecap: round"/>
   </g>
   <g id="line2d_13">
    <path d="M 226.48 328.68 
L 172.48 328.68 
L 118.48 328.68 
" clip-path="url(#p6025fa8559)" style="fill: none; stroke: #000000; stroke-width: 2; stroke-linecap: round"/>
   </g>
   <g id="line2d_14">
    <path d="M 118.48 328.68 
L 118.48 292.68 
L 118.48 292.68 
M 118.48 256.68 
L 118.48 256.68 
L 118.48 220.68 
" clip-path="url(#p6025fa8559)" style="fill: none; stroke: #000000; stroke-width: 2; stroke-linecap: round"/>
   </g>
   <g id="line2d_15">
    <path d="M 118.48 220.68 
L 118.48 166.68 
L 118.48 112.68 
" clip-path="url(#p6025fa8559)" style="fill: none; stroke: #000000; stroke-width: 2; stroke-linecap: round"/>
   </g>
   <g id="line2d_16">
    <path d="M 118.48 112.68 
L 118.48 76.68 
L 118.48 76.68 
M 118.48 40.68 
L 118.48 40.68 
L 118.48 4.68 
" clip-path="url(#p6025fa8559)" style="fill: none; stroke: #000000; stroke-width: 2; stroke-linecap: round"/>
   </g>
   <g id="line2d_17">
    <path d="M 118.48 4.68 
L 64.48 4.68 
L 10.48 4.68 
" clip-path="url(#p6025fa8559)" style="fill: none; stroke: #000000; stroke-width: 2; stroke-linecap: round"/>
   </g>
   <g id="text_1">
    <!-- Batteri -->
    <g transform="translate(40.769688 308.668438) scale(0.14 -0.14)">
     <defs>
      <path id="DejaVuSans-42" d="M 1259 2228 
L 1259 519 
L 2272 519 
Q 2781 519 3026 730 
Q 3272 941 3272 1375 
Q 3272 1813 3026 2020 
Q 2781 2228 2272 2228 
L 1259 2228 
z
M 1259 4147 
L 1259 2741 
L 2194 2741 
Q 2656 2741 2882 2914 
Q 3109 3088 3109 3444 
Q 3109 3797 2882 3972 
Q 2656 4147 2194 4147 
L 1259 4147 
z
M 628 4666 
L 2241 4666 
Q 2963 4666 3353 4366 
Q 3744 4066 3744 3513 
Q 3744 3084 3544 2831 
Q 3344 2578 2956 2516 
Q 3422 2416 3680 2098 
Q 3938 1781 3938 1306 
Q 3938 681 3513 340 
Q 3088 0 2303 0 
L 628 0 
L 628 4666 
z
" transform="scale(0.015625)"/>
      <path id="DejaVuSans-61" d="M 2194 1759 
Q 1497 1759 1228 1600 
Q 959 1441 959 1056 
Q 959 750 1161 570 
Q 1363 391 1709 391 
Q 2188 391 2477 730 
Q 2766 1069 2766 1631 
L 2766 1759 
L 2194 1759 
z
M 3341 1997 
L 3341 0 
L 2766 0 
L 2766 531 
Q 2569 213 2275 61 
Q 1981 -91 1556 -91 
Q 1019 -91 701 211 
Q 384 513 384 1019 
Q 384 1609 779 1909 
Q 1175 2209 1959 2209 
L 2766 2209 
L 2766 2266 
Q 2766 2663 2505 2880 
Q 2244 3097 1772 3097 
Q 1472 3097 1187 3025 
Q 903 2953 641 2809 
L 641 3341 
Q 956 3463 1253 3523 
Q 1550 3584 1831 3584 
Q 2591 3584 2966 3190 
Q 3341 2797 3341 1997 
z
" transform="scale(0.015625)"/>
      <path id="DejaVuSans-74" d="M 1172 4494 
L 1172 3500 
L 2356 3500 
L 2356 3053 
L 1172 3053 
L 1172 1153 
Q 1172 725 1289 603 
Q 1406 481 1766 481 
L 2356 481 
L 2356 0 
L 1766 0 
Q 1100 0 847 248 
Q 594 497 594 1153 
L 594 3053 
L 172 3053 
L 172 3500 
L 594 3500 
L 594 4494 
L 1172 4494 
z
" transform="scale(0.015625)"/>
      <path id="DejaVuSans-65" d="M 3597 1894 
L 3597 1613 
L 953 1613 
Q 991 1019 1311 708 
Q 1631 397 2203 397 
Q 2534 397 2845 478 
Q 3156 559 3463 722 
L 3463 178 
Q 3153 47 2828 -22 
Q 2503 -91 2169 -91 
Q 1331 -91 842 396 
Q 353 884 353 1716 
Q 353 2575 817 3079 
Q 1281 3584 2069 3584 
Q 2775 3584 3186 3129 
Q 3597 2675 3597 1894 
z
M 3022 2063 
Q 3016 2534 2758 2815 
Q 2500 3097 2075 3097 
Q 1594 3097 1305 2825 
Q 1016 2553 972 2059 
L 3022 2063 
z
" transform="scale(0.015625)"/>
      <path id="DejaVuSans-72" d="M 2631 2963 
Q 2534 3019 2420 3045 
Q 2306 3072 2169 3072 
Q 1681 3072 1420 2755 
Q 1159 2438 1159 1844 
L 1159 0 
L 581 0 
L 581 3500 
L 1159 3500 
L 1159 2956 
Q 1341 3275 1631 3429 
Q 1922 3584 2338 3584 
Q 2397 3584 2469 3576 
Q 2541 3569 2628 3553 
L 2631 2963 
z
" transform="scale(0.015625)"/>
      <path id="DejaVuSans-69" d="M 603 3500 
L 1178 3500 
L 1178 0 
L 603 0 
L 603 3500 
z
M 603 4863 
L 1178 4863 
L 1178 4134 
L 603 4134 
L 603 4863 
z
" transform="scale(0.015625)"/>
     </defs>
     <use xlink:href="#DejaVuSans-42"/>
     <use xlink:href="#DejaVuSans-61" x="68.603516"/>
     <use xlink:href="#DejaVuSans-74" x="129.882812"/>
     <use xlink:href="#DejaVuSans-74" x="169.091797"/>
     <use xlink:href="#DejaVuSans-65" x="208.300781"/>
     <use xlink:href="#DejaVuSans-72" x="269.824219"/>
     <use xlink:href="#DejaVuSans-69" x="310.9375"/>
    </g>
   </g>
   <g id="text_2">
    <!-- Resistor -->
    <g transform="translate(49.882188 170.543125) scale(0.14 -0.14)">
     <defs>
      <path id="DejaVuSans-52" d="M 2841 2188 
Q 3044 2119 3236 1894 
Q 3428 1669 3622 1275 
L 4263 0 
L 3584 0 
L 2988 1197 
Q 2756 1666 2539 1819 
Q 2322 1972 1947 1972 
L 1259 1972 
L 1259 0 
L 628 0 
L 628 4666 
L 2053 4666 
Q 2853 4666 3247 4331 
Q 3641 3997 3641 3322 
Q 3641 2881 3436 2590 
Q 3231 2300 2841 2188 
z
M 1259 4147 
L 1259 2491 
L 2053 2491 
Q 2509 2491 2742 2702 
Q 2975 2913 2975 3322 
Q 2975 3731 2742 3939 
Q 2509 4147 2053 4147 
L 1259 4147 
z
" transform="scale(0.015625)"/>
      <path id="DejaVuSans-73" d="M 2834 3397 
L 2834 2853 
Q 2591 2978 2328 3040 
Q 2066 3103 1784 3103 
Q 1356 3103 1142 2972 
Q 928 2841 928 2578 
Q 928 2378 1081 2264 
Q 1234 2150 1697 2047 
L 1894 2003 
Q 2506 1872 2764 1633 
Q 3022 1394 3022 966 
Q 3022 478 2636 193 
Q 2250 -91 1575 -91 
Q 1294 -91 989 -36 
Q 684 19 347 128 
L 347 722 
Q 666 556 975 473 
Q 1284 391 1588 391 
Q 1994 391 2212 530 
Q 2431 669 2431 922 
Q 2431 1156 2273 1281 
Q 2116 1406 1581 1522 
L 1381 1569 
Q 847 1681 609 1914 
Q 372 2147 372 2553 
Q 372 3047 722 3315 
Q 1072 3584 1716 3584 
Q 2034 3584 2315 3537 
Q 2597 3491 2834 3397 
z
" transform="scale(0.015625)"/>
      <path id="DejaVuSans-6f" d="M 1959 3097 
Q 1497 3097 1228 2736 
Q 959 2375 959 1747 
Q 959 1119 1226 758 
Q 1494 397 1959 397 
Q 2419 397 2687 759 
Q 2956 1122 2956 1747 
Q 2956 2369 2687 2733 
Q 2419 3097 1959 3097 
z
M 1959 3584 
Q 2709 3584 3137 3096 
Q 3566 2609 3566 1747 
Q 3566 888 3137 398 
Q 2709 -91 1959 -91 
Q 1206 -91 779 398 
Q 353 888 353 1747 
Q 353 2609 779 3096 
Q 1206 3584 1959 3584 
z
" transform="scale(0.015625)"/>
     </defs>
     <use xlink:href="#DejaVuSans-52"/>
     <use xlink:href="#DejaVuSans-65" x="64.982422"/>
     <use xlink:href="#DejaVuSans-73" x="126.505859"/>
     <use xlink:href="#DejaVuSans-69" x="178.605469"/>
     <use xlink:href="#DejaVuSans-73" x="206.388672"/>
     <use xlink:href="#DejaVuSans-74" x="258.488281"/>
     <use xlink:href="#DejaVuSans-6f" x="297.697266"/>
     <use xlink:href="#DejaVuSans-72" x="358.878906"/>
    </g>
   </g>
   <g id="text_3">
    <!-- Lampa -->
    <g transform="translate(157.395938 170.543125) scale(0.14 -0.14)">
     <defs>
      <path id="DejaVuSans-4c" d="M 628 4666 
L 1259 4666 
L 1259 531 
L 3531 531 
L 3531 0 
L 628 0 
L 628 4666 
z
" transform="scale(0.015625)"/>
      <path id="DejaVuSans-6d" d="M 3328 2828 
Q 3544 3216 3844 3400 
Q 4144 3584 4550 3584 
Q 5097 3584 5394 3201 
Q 5691 2819 5691 2113 
L 5691 0 
L 5113 0 
L 5113 2094 
Q 5113 2597 4934 2840 
Q 4756 3084 4391 3084 
Q 3944 3084 3684 2787 
Q 3425 2491 3425 1978 
L 3425 0 
L 2847 0 
L 2847 2094 
Q 2847 2600 2669 2842 
Q 2491 3084 2119 3084 
Q 1678 3084 1418 2786 
Q 1159 2488 1159 1978 
L 1159 0 
L 581 0 
L 581 3500 
L 1159 3500 
L 1159 2956 
Q 1356 3278 1631 3431 
Q 1906 3584 2284 3584 
Q 2666 3584 2933 3390 
Q 3200 3197 3328 2828 
z
" transform="scale(0.015625)"/>
      <path id="DejaVuSans-70" d="M 1159 525 
L 1159 -1331 
L 581 -1331 
L 581 3500 
L 1159 3500 
L 1159 2969 
Q 1341 3281 1617 3432 
Q 1894 3584 2278 3584 
Q 2916 3584 3314 3078 
Q 3713 2572 3713 1747 
Q 3713 922 3314 415 
Q 2916 -91 2278 -91 
Q 1894 -91 1617 61 
Q 1341 213 1159 525 
z
M 3116 1747 
Q 3116 2381 2855 2742 
Q 2594 3103 2138 3103 
Q 1681 3103 1420 2742 
Q 1159 2381 1159 1747 
Q 1159 1113 1420 752 
Q 1681 391 2138 391 
Q 2594 391 2855 752 
Q 3116 1113 3116 1747 
z
" transform="scale(0.015625)"/>
     </defs>
     <use xlink:href="#DejaVuSans-4c"/>
     <use xlink:href="#DejaVuSans-61" x="55.712891"/>
     <use xlink:href="#DejaVuSans-6d" x="116.992188"/>
     <use xlink:href="#DejaVuSans-70" x="214.404297"/>
     <use xlink:href="#DejaVuSans-61" x="277.880859"/>
    </g>
   </g>
   <g id="patch_5">
    <path d="M 226.48 265.32 
C 227.625677 265.32 228.724585 264.864818 229.534701 264.054701 
C 230.344818 263.244585 230.8 262.145677 230.8 261 
C 230.8 259.854323 230.344818 258.755415 229.534701 257.945299 
C 228.724585 257.135182 227.625677 256.68 226.48 256.68 
C 225.334323 256.68 224.235415 257.135182 223.425299 257.945299 
C 222.615182 258.755415 222.16 259.854323 222.16 261 
C 222.16 262.145677 222.615182 263.244585 223.425299 264.054701 
C 224.235415 264.864818 225.334323 265.32 226.48 265.32 
z
" clip-path="url(#p6025fa8559)" style="fill: #ffffff; stroke: #000000; stroke-width: 2; stroke-linejoin: miter"/>
   </g>
   <g id="patch_6">
    <path d="M 226.48 292.68 
C 227.625677 292.68 228.724585 292.224818 229.534701 291.414701 
C 230.344818 290.604585 230.8 289.505677 230.8 288.36 
C 230.8 287.214323 230.344818 286.115415 229.534701 285.305299 
C 228.724585 284.495182 227.625677 284.04 226.48 284.04 
C 225.334323 284.04 224.235415 284.495182 223.425299 285.305299 
C 222.615182 286.115415 222.16 287.214323 222.16 288.36 
C 222.16 289.505677 222.615182 290.604585 223.425299 291.414701 
C 224.235415 292.224818 225.334323 292.68 226.48 292.68 
z
" clip-path="url(#p6025fa8559)" style="fill: #ffffff; stroke: #000000; stroke-width: 2; stroke-linejoin: miter"/>
   </g>
   <g id="text_4">
    <!-- Brytare -->
    <g transform="translate(166.790625 278.543125) scale(0.14 -0.14)">
     <defs>
      <path id="DejaVuSans-79" d="M 2059 -325 
Q 1816 -950 1584 -1140 
Q 1353 -1331 966 -1331 
L 506 -1331 
L 506 -850 
L 844 -850 
Q 1081 -850 1212 -737 
Q 1344 -625 1503 -206 
L 1606 56 
L 191 3500 
L 800 3500 
L 1894 763 
L 2988 3500 
L 3597 3500 
L 2059 -325 
z
" transform="scale(0.015625)"/>
     </defs>
     <use xlink:href="#DejaVuSans-42"/>
     <use xlink:href="#DejaVuSans-72" x="68.603516"/>
     <use xlink:href="#DejaVuSans-79" x="109.716797"/>
     <use xlink:href="#DejaVuSans-74" x="168.896484"/>
     <use xlink:href="#DejaVuSans-61" x="208.105469"/>
     <use xlink:href="#DejaVuSans-72" x="269.384766"/>
     <use xlink:href="#DejaVuSans-65" x="308.248047"/>
    </g>
   </g>
   <g id="text_5">
    <!-- V -->
    <g transform="translate(113.691563 278.543125) scale(0.14 -0.14)">
     <defs>
      <path id="DejaVuSans-56" d="M 1831 0 
L 50 4666 
L 709 4666 
L 2188 738 
L 3669 4666 
L 4325 4666 
L 2547 0 
L 1831 0 
z
" transform="scale(0.015625)"/>
     </defs>
     <use xlink:href="#DejaVuSans-56"/>
    </g>
   </g>
   <g id="text_6">
    <!-- Voltmeter -->
    <g transform="translate(28.334688 278.543125) scale(0.14 -0.14)">
     <defs>
      <path id="DejaVuSans-6c" d="M 603 4863 
L 1178 4863 
L 1178 0 
L 603 0 
L 603 4863 
z
" transform="scale(0.015625)"/>
     </defs>
     <use xlink:href="#DejaVuSans-56"/>
     <use xlink:href="#DejaVuSans-6f" x="60.658203"/>
     <use xlink:href="#DejaVuSans-6c" x="121.839844"/>
     <use xlink:href="#DejaVuSans-74" x="149.623047"/>
     <use xlink:href="#DejaVuSans-6d" x="188.832031"/>
     <use xlink:href="#DejaVuSans-65" x="286.244141"/>
     <use xlink:href="#DejaVuSans-74" x="347.767578"/>
     <use xlink:href="#DejaVuSans-65" x="386.976562"/>
     <use xlink:href="#DejaVuSans-72" x="448.5"/>
    </g>
   </g>
   <g id="text_7">
    <!-- A -->
    <g transform="translate(113.691563 62.543125) scale(0.14 -0.14)">
     <defs>
      <path id="DejaVuSans-41" d="M 2188 4044 
L 1331 1722 
L 3047 1722 
L 2188 4044 
z
M 1831 4666 
L 2547 4666 
L 4325 0 
L 3669 0 
L 3244 1197 
L 1141 1197 
L 716 0 
L 50 0 
L 1831 4666 
z
" transform="scale(0.015625)"/>
     </defs>
     <use xlink:href="#DejaVuSans-41"/>
    </g>
   </g>
   <g id="text_8">
    <!-- Amperemeter -->
    <g transform="translate(0 62.543125) scale(0.14 -0.14)">
     <use xlink:href="#DejaVuSans-41"/>
     <use xlink:href="#DejaVuSans-6d" x="68.408203"/>
     <use xlink:href="#DejaVuSans-70" x="165.820312"/>
     <use xlink:href="#DejaVuSans-65" x="229.296875"/>
     <use xlink:href="#DejaVuSans-72" x="290.820312"/>
     <use xlink:href="#DejaVuSans-65" x="329.683594"/>
     <use xlink:href="#DejaVuSans-6d" x="391.207031"/>
     <use xlink:href="#DejaVuSans-65" x="488.619141"/>
     <use xlink:href="#DejaVuSans-74" x="550.142578"/>
     <use xlink:href="#DejaVuSans-65" x="589.351562"/>
     <use xlink:href="#DejaVuSans-72" x="650.875"/>
    </g>
   </g>
  </g>
 </g>
 <defs>
  <clipPath id="p6025fa8559">
   <rect x="5.8" y="0" width="243.36" height="346.86"/>
  </clipPath>
 </defs>
</svg>
