<?xml version="1.0" encoding="UTF-8" standalone="no"?>
<!-- Created with Inkscape (http://www.inkscape.org/) -->

<svg
   width="200mm"
   height="200mm"
   viewBox="0 0 755.90552 755.90554"
   version="1.1"
   id="svg1"
   inkscape:version="1.3.2 (091e20e, 2023-11-25, custom)"
   sodipodi:docname="pelle.svg"
   xmlns:inkscape="http://www.inkscape.org/namespaces/inkscape"
   xmlns:sodipodi="http://sodipodi.sourceforge.net/DTD/sodipodi-0.dtd"
   xmlns="http://www.w3.org/2000/svg"
   xmlns:svg="http://www.w3.org/2000/svg">
  <sodipodi:namedview
     id="namedview1"
     pagecolor="#505050"
     bordercolor="#eeeeee"
     borderopacity="1"
     inkscape:showpageshadow="0"
     inkscape:pageopacity="0"
     inkscape:pagecheckerboard="0"
     inkscape:deskcolor="#505050"
     inkscape:document-units="mm"
     inkscape:zoom="0.73142761"
     inkscape:cx="94.336062"
     inkscape:cy="335.64497"
     inkscape:window-width="1920"
     inkscape:window-height="1017"
     inkscape:window-x="-8"
     inkscape:window-y="-8"
     inkscape:window-maximized="1"
     inkscape:current-layer="layer1" />
  <defs
     id="defs1">
    <inkscape:path-effect
       effect="skeletal"
       id="path-effect10"
       is_visible="true"
       lpeversion="1"
       pattern="M 0,18.867925 C 0,8.4528305 8.4528305,0 18.867925,0 29.28302,0 37.735851,8.4528305 37.735851,18.867925 c 0,10.415095 -8.452831,18.867926 -18.867926,18.867926 C 8.4528305,37.735851 0,29.28302 0,18.867925 Z"
       copytype="single_stretched"
       prop_scale="1"
       scale_y_rel="false"
       spacing="0"
       normal_offset="0"
       tang_offset="0"
       prop_units="false"
       vertical_pattern="false"
       hide_knot="false"
       fuse_tolerance="0" />
    <inkscape:path-effect
       effect="skeletal"
       id="path-effect8"
       is_visible="true"
       lpeversion="1"
       pattern="M 0,18.867925 C 0,8.4528305 8.4528305,0 18.867925,0 29.28302,0 37.735851,8.4528305 37.735851,18.867925 c 0,10.415095 -8.452831,18.867926 -18.867926,18.867926 C 8.4528305,37.735851 0,29.28302 0,18.867925 Z"
       copytype="single_stretched"
       prop_scale="1"
       scale_y_rel="false"
       spacing="0"
       normal_offset="0"
       tang_offset="0"
       prop_units="false"
       vertical_pattern="false"
       hide_knot="false"
       fuse_tolerance="0" />
    <inkscape:path-effect
       effect="skeletal"
       id="path-effect7"
       is_visible="true"
       lpeversion="1"
       pattern="M 0,18.867925 C 0,8.4528305 8.4528305,0 18.867925,0 29.28302,0 37.735851,8.4528305 37.735851,18.867925 c 0,10.415095 -8.452831,18.867926 -18.867926,18.867926 C 8.4528305,37.735851 0,29.28302 0,18.867925 Z"
       copytype="single_stretched"
       prop_scale="1"
       scale_y_rel="false"
       spacing="0"
       normal_offset="0"
       tang_offset="0"
       prop_units="false"
       vertical_pattern="false"
       hide_knot="false"
       fuse_tolerance="0" />
    <inkscape:path-effect
       effect="spiro"
       id="path-effect6"
       is_visible="true"
       lpeversion="1" />
    <inkscape:path-effect
       effect="skeletal"
       id="path-effect8-1"
       is_visible="true"
       lpeversion="1"
       pattern="M 0,18.867925 C 0,8.4528305 8.4528305,0 18.867925,0 29.28302,0 37.735851,8.4528305 37.735851,18.867925 c 0,10.415095 -8.452831,18.867926 -18.867926,18.867926 C 8.4528305,37.735851 0,29.28302 0,18.867925 Z"
       copytype="single_stretched"
       prop_scale="1"
       scale_y_rel="false"
       spacing="0"
       normal_offset="0"
       tang_offset="0"
       prop_units="false"
       vertical_pattern="false"
       hide_knot="false"
       fuse_tolerance="0" />
    <inkscape:path-effect
       effect="skeletal"
       id="path-effect10-3"
       is_visible="true"
       lpeversion="1"
       pattern="M 0,18.867925 C 0,8.4528305 8.4528305,0 18.867925,0 29.28302,0 37.735851,8.4528305 37.735851,18.867925 c 0,10.415095 -8.452831,18.867926 -18.867926,18.867926 C 8.4528305,37.735851 0,29.28302 0,18.867925 Z"
       copytype="single_stretched"
       prop_scale="1"
       scale_y_rel="false"
       spacing="0"
       normal_offset="0"
       tang_offset="0"
       prop_units="false"
       vertical_pattern="false"
       hide_knot="false"
       fuse_tolerance="0" />
  </defs>
  <g
     inkscape:label="Layer 1"
     inkscape:groupmode="layer"
     id="layer1"
     transform="translate(-383.43256,-177.11451)">
    <path
       style="fill:#000000;stroke:none;stroke-width:1.00157;stroke-dasharray:none;stroke-opacity:1"
       d="m 563.62324,424.39869 c -0.0528,-0.11252 -0.0971,-0.22878 -0.13299,-0.34859 0,0 0,-10e-6 0,-10e-6 -0.0298,-0.12097 -0.0486,-0.2469 -0.0566,-0.37752 l 0,0 c 0,0 0,0 0,0 -0.016,-0.2603 0.011,-0.54009 0.0802,-0.83818 0,0 0,-10e-6 0,-10e-6 l 0,0 c 0.13763,-0.59226 0.44178,-1.25968 0.90593,-1.99777 l 0,0 c 0.9149,-1.45487 2.45368,-3.19291 4.56084,-5.18941 l 0,0 c 4.0745,-3.86058 10.29549,-8.71309 18.2504,-14.43034 l 0,0 c 14.4594,-10.39295 34.70419,-23.57125 57.92308,-39.4552 l 0,0 c 9.82677,-6.72441 20.43827,-14.11438 30.85506,-21.91319 l 0,0 c 8.8085,-6.60982 17.77676,-13.63181 25.92877,-21.16188 4.0738,-3.85137 7.96321,-7.60923 11.18156,-11.35129 1.80393,-2.09749 3.38752,-4.17784 4.70467,-6.28342 1.37952,-2.24737 2.432,-4.02378 2.82464,-5.41781 l 0,0 c 0.24068,-1.08495 0.50187,-1.62041 0.41899,-1.41122 l 0,0 c -4.06719,-38.05035 -6.69747,-72.34314 -7.71677,-99.9741 l 0,0 c -0.69654,-18.88798 -0.63914,-34.51504 0.20645,-45.78311 l 0,0 c 0.45668,-6.08558 1.14323,-10.89911 2.06479,-14.26694 l 0,0 c 0.47422,-1.733 1.01067,-3.08323 1.61004,-4.02702 l 0,0 c 0.30347,-0.47785 0.62307,-0.85152 0.9589,-1.11792 l 0,0 c 0,-1e-5 0,-1e-5 0,-1e-5 0.16891,-0.13399 0.34193,-0.24085 0.51906,-0.32018 0,0 0,0 0,0 0,0 0,0 0,0 0.2739,-0.0629 0.41176,-0.10178 0.48107,-0.12499 0.0682,-0.0229 0.0697,-0.0305 0.0697,-0.031 0,0 0,0 0,0 0,-1e-5 0,0 0,0 0,0 0,-1e-5 0,0 0,0 0,0 0,0 1.3e-4,4.7e-4 0.003,0.007 0.0752,0.0129 0.0729,0.005 0.21607,0.009 0.49703,0.003 0,0 0,0 0,0 1e-5,0 1e-5,0 1e-5,0 0.19121,0.0333 0.3852,0.0943 0.5819,0.18261 0,0 0,0 0,0 l 0,0 c 0.39106,0.17557 0.7928,0.4591 1.20454,0.84761 l 0,0 c 0.81321,0.76732 1.66541,1.94411 2.55141,3.5073 l 0,0 c 1.72183,3.03786 3.57127,7.53497 5.51011,13.32208 l 0,0 c 3.58957,10.71423 7.48622,25.85218 11.44491,44.33608 l 0,0 c 5.7547,26.86807 11.71255,61.09643 16.93158,98.9046 l 0,0 c 0.67505,6.39943 0.0349,12.21926 -1.62068,17.1749 l 0,0 c -1.81977,5.65418 -4.24137,10.51154 -6.92328,14.57574 -2.39059,3.6563 -4.95123,7.06606 -7.62894,10.25901 -4.79358,5.71593 -9.86121,10.61622 -14.77882,14.87727 -9.9717,8.82208 -20.31584,16.36111 -30.21831,22.92354 l 0,0 c -11.79788,7.83858 -23.50578,14.68149 -34.49189,20.60979 l 0,0 c -25.59389,13.81427 -48.87102,23.62873 -65.75731,29.39597 l 0,0 c -9.43838,3.22512 -17.15844,5.28045 -22.77647,6.14409 l 0,0 c -2.90389,0.44638 -5.2406,0.57456 -6.96348,0.37639 l 0,0 c -0.87325,-0.10046 -1.58698,-0.28384 -2.13573,-0.55255 l 0,0 c 0,0 0,-1e-5 0,-1e-5 -0.27611,-0.13521 -0.51001,-0.29147 -0.70128,-0.46965 0,0 0,-10e-6 0,-10e-6 l -10e-6,0 c -0.0959,-0.0894 -0.1809,-0.18404 -0.25514,-0.28424 0,0 0,0 0,0 -0.0694,-0.10414 -0.13048,-0.21245 -0.18329,-0.32501 z"
       id="path7"
       inkscape:path-effect="#path-effect8"
       inkscape:original-d="m 563.61459,424.40274 c 0,0 181.74878,-85.07389 175.94828,-132.44458 C 733.76238,244.58747 719.26115,128.5776 719.26115,128.5776"
       sodipodi:nodetypes="csc"
       transform="matrix(-0.64145691,0,0,0.64145691,1122.3472,256.05294)" />
    <path
       style="fill:#000000;stroke:none;stroke-width:1.00157;stroke-dasharray:none;stroke-opacity:1"
       d="m 563.61459,424.40274 c -1.68447,-3.3979 7.15397,-11.72344 23.68441,-23.21992 14.45971,-10.39312 34.68066,-23.55946 57.85517,-39.42116 9.82677,-6.72441 20.43827,-14.11438 30.85506,-21.91319 8.8085,-6.60982 17.77677,-13.63181 25.92878,-21.16187 4.07379,-3.85137 7.9632,-7.60923 11.18154,-11.35129 1.80394,-2.0975 3.38753,-4.17785 4.70468,-6.28342 1.37952,-2.24738 2.432,-4.02378 2.82464,-5.41781 l 0,0 c 0.24068,-1.08495 0.50187,-1.62041 0.419,-1.41122 l 0,0 c -4.0672,-38.05036 -6.69748,-72.34314 -7.71678,-99.97411 l 0,0 c -0.69653,-18.88798 -0.63914,-34.51504 0.20645,-45.78311 l 0,0 c 0.45668,-6.08558 1.14323,-10.8991 2.0648,-14.26694 l 0,0 c 0.47421,-1.733 1.01066,-3.08323 1.61003,-4.02702 l 0,0 c 0.30348,-0.47785 0.62309,-0.85152 0.95891,-1.11792 l 10e-6,0 c 0,0 0,-1e-5 0,-1e-5 0.16891,-0.13399 0.34193,-0.24085 0.51907,-0.32019 0,0 0,0 0,0 0,0 0,0 0,0 0.27391,-0.0629 0.41176,-0.10177 0.48105,-0.12498 0.0687,-0.023 0.0697,-0.0306 0.0697,-0.031 0,0 0,0 0,0 0,0 0,0 0,0 0,0 0,0 0,0 0,-1e-5 0,-1e-5 0,-1e-5 0,0 0,0 0,1e-5 0,0 0,0 0,0 0,0 0,0 0,0 0,0 0,0 0,0 9e-5,3.6e-4 0.003,0.007 0.0752,0.0129 0.0729,0.005 0.21603,0.009 0.49701,0.003 0,0 0,0 0,0 0,0 0,0 0,0 0.19122,0.0333 0.38522,0.0943 0.58192,0.1826 0,0 0,0 0,0 l 0,0 c 0.39107,0.17557 0.79281,0.4591 1.20455,0.84761 l 0,0 c 0.81321,0.76732 1.66541,1.94411 2.55141,3.5073 l 0,0 c 1.72183,3.03786 3.57127,7.53497 5.51012,13.32208 l 0,0 c 3.58957,10.71423 7.48622,25.85218 11.44491,44.33609 l 0,0 c 5.75469,26.86806 11.71255,61.09642 16.93158,98.9046 l 0,0 c 0.67505,6.39942 0.0349,12.21926 -1.62068,17.1749 l 0,0 c -1.81977,5.65417 -4.24137,10.51154 -6.92328,14.57574 -2.39059,3.65629 -4.95123,7.06606 -7.62895,10.25901 -4.79357,5.71593 -9.8612,10.61621 -14.77881,14.87726 -9.9717,8.82209 -20.31584,16.36111 -30.21831,22.92354 -11.79788,7.83858 -23.50578,14.68149 -34.49189,20.60979 -25.63892,13.83689 -48.93947,23.663 -65.8252,29.43 -19.28948,6.25982 -31.27127,8.25776 -32.95616,4.85903 z"
       id="path7-3"
       inkscape:path-effect="#path-effect8-1"
       inkscape:original-d="m 563.61459,424.40274 c 0,0 181.74878,-85.07389 175.94828,-132.44458 C 733.76238,244.58747 719.26115,128.5776 719.26115,128.5776"
       sodipodi:nodetypes="csc"
       transform="matrix(0.64145691,0,0,0.64145691,396.70265,256.07707)" />
    <ellipse
       style="fill:#000000;stroke-width:0.62322"
       id="path2"
       cx="-759.52496"
       cy="567.03754"
       rx="69.073502"
       ry="114.72363"
       transform="scale(-1,1)" />
    <circle
       style="fill:#000000;stroke-width:0.641457"
       id="path3"
       cx="-761.38531"
       cy="-429.36923"
       r="62.012772"
       transform="scale(-1)" />
    <rect
       style="fill:#000000;stroke:#000000;stroke-width:0.364382;stroke-dasharray:none;stroke-opacity:1"
       id="rect8"
       width="243.61414"
       height="14.108108"
       x="-883.19238"
       y="-352.88812"
       transform="scale(-1)" />
    <rect
       style="fill:#000000;stroke:#000000;stroke-width:0.920639;stroke-dasharray:none;stroke-opacity:1"
       id="rect9"
       width="53.288498"
       height="88.460358"
       x="-935.85211"
       y="301.60391"
       ry="36.848671"
       transform="scale(-1,1)" />
    <rect
       style="fill:#000000;stroke:#000000;stroke-width:0.920639;stroke-dasharray:none;stroke-opacity:1"
       id="rect9-6"
       width="53.288498"
       height="88.460358"
       x="-640.20703"
       y="301.60391"
       ry="36.848671"
       transform="scale(-1,1)" />
    <path
       style="fill:#000000;stroke:none;stroke-width:1.00157;stroke-dasharray:none;stroke-opacity:1"
       d="m 561.25982,596.09455 c 6.5,6.88823 -9.32397,30.20727 -33.04401,52.52035 0,0 0,0 0,0 0.42206,5.79649 0.73999,11.76209 0.92359,17.82374 0.67139,22.16625 -0.59898,41.47212 -3.60602,56.11046 -2.96053,14.41193 -7.61254,23.93629 -12.83738,23.93629 -5.25434,0 -9.84734,-9.6653 -12.83738,-26.26526 -3.00325,-16.67331 -4.2812,-39.60202 -3.60602,-65.02438 0.18364,-6.91463 0.50149,-13.61258 0.92359,-19.96821 0,0 10e-6,-10e-6 10e-6,-10e-6 31.85453,-30.13352 57.58577,-46.01893 64.08362,-39.13298 z"
       id="path10"
       inkscape:path-effect="#path-effect10"
       inkscape:original-d="M 561.25982,596.09455 512.696,641.92122 v 104.56416"
       transform="matrix(-0.97244576,0,0,1.1182265,1305.8054,-25.748798)" />
    <path
       style="fill:#000000;stroke:none;stroke-width:1.00157;stroke-dasharray:none;stroke-opacity:1"
       d="m 561.25982,596.09455 c 6.5,6.88823 -9.32397,30.20727 -33.04401,52.52035 0,0 0,0 0,0 0.42206,5.79649 0.73999,11.76209 0.92359,17.82374 0.67139,22.16625 -0.59898,41.47212 -3.60602,56.11046 -2.96053,14.41193 -7.61254,23.93629 -12.83738,23.93629 -5.25434,0 -9.84734,-9.6653 -12.83738,-26.26526 -3.00325,-16.67331 -4.2812,-39.60202 -3.60602,-65.02438 0.18364,-6.91463 0.50149,-13.61258 0.92359,-19.96821 0,0 10e-6,-10e-6 10e-6,-10e-6 31.85453,-30.13352 57.58577,-46.01893 64.08362,-39.13298 z"
       id="path10-6"
       inkscape:path-effect="#path-effect10-3"
       inkscape:original-d="M 561.25982,596.09455 512.696,641.92122 v 104.56416"
       transform="matrix(0.97244576,0,0,1.1182265,211.36199,-25.748798)" />
  </g>
</svg>
