<?xml version="1.0" encoding="UTF-8" standalone="no"?>
<!-- Created with Digital by H.Neemann -->
<!-- created: Fri Nov 08 17:03:13 CET 2024 -->

<svg
   xmlns:svg="http://www.w3.org/2000/svg"
   xmlns="http://www.w3.org/2000/svg"
   width="48.9mm"
   height="29.85mm"
   viewBox="307 378 326 199">
<g stroke-linecap="square">
<path d="M 340,400 L 380,400" stroke="#000000" stroke-width="2.8" fill="none"/>
<path d="M 440,400 L 480,400 L 480,440 L 500,440" stroke="#000000" stroke-width="2.8" fill="none"/>
<path d="M 340,560 L 360,560 L 360,540 L 380,540" stroke="#000000" stroke-width="2.8" fill="none"/>
<path d="M 340,480 L 360,480 L 360,500 L 380,500" stroke="#000000" stroke-width="2.8" fill="none"/>
<path d="M 460,520 L 480,520 L 480,480 L 500,480" stroke="#000000" stroke-width="2.8" fill="none"/>
<path d="M 560,460 L 600,460" stroke="#000000" stroke-width="2.8" fill="none"/>
<g>
</g>
<g>
<path d="M 309,385 L 339,385 L 339,415 L 309,415 Z" stroke="#000000" stroke-width="2.8" fill="none"/>
<circle cx="324.0" cy="400.0" r="9.0" stroke="#000000" stroke-width="2.8" fill="none" />
</g>
<g>
<path d="M 309,465 L 339,465 L 339,495 L 309,495 Z" stroke="#000000" stroke-width="2.8" fill="none"/>
<circle cx="324.0" cy="480.0" r="9.0" stroke="#000000" stroke-width="2.8" fill="none" />
</g>
<g>
<path d="M 309,545 L 339,545 L 339,575 L 309,575 Z" stroke="#000000" stroke-width="2.8" fill="none"/>
<circle cx="324.0" cy="560.0" r="9.0" stroke="#000000" stroke-width="2.8" fill="none" />
</g>
<g>
<path d="M 381,380 L 419,380 L 419,420 L 381,420 Z" stroke="#000000" stroke-width="2.8" fill="none"/>
<circle cx="430.0" cy="400.0" r="9.0" stroke="#000000" stroke-width="2.8" fill="none" />
<text text-anchor="middle" x="400.0" y="402.0" fill="#000000" style="font-size:24px">1</text>
</g>
<g>
<path d="M 381,490 L 439,490 L 439,550 L 381,550 Z" stroke="#000000" stroke-width="2.8" fill="none"/>
<circle cx="450.0" cy="520.0" r="9.0" stroke="#000000" stroke-width="2.8" fill="none" />
<text text-anchor="middle" x="410.0" y="512.0" fill="#000000" style="font-size:24px">&amp;</text>
</g>
<g>
<path d="M 501,430 L 559,430 L 559,490 L 501,490 Z" stroke="#000000" stroke-width="2.8" fill="none"/>
<text text-anchor="middle" x="530.0" y="452.0" fill="#000000" style="font-size:24px">≥1</text>
</g>
<g>
<circle cx="616.0" cy="460.0" r="9.0" stroke="#000000" stroke-width="2.8" fill="none" />
<circle cx="616.0" cy="460.0" r="15.0" stroke="#000000" stroke-width="2.8" fill="none" />
</g>
</g>
</svg>