<?xml version="1.0" encoding="utf-8" standalone="no"?>
<!DOCTYPE svg PUBLIC "-//W3C//DTD SVG 1.1//EN"
  "http://www.w3.org/Graphics/SVG/1.1/DTD/svg11.dtd">
<svg xmlns:xlink="http://www.w3.org/1999/xlink" width="333.36pt" height="154.66pt" viewBox="0 0 333.36 154.66" xmlns="http://www.w3.org/2000/svg" version="1.1">
 <metadata>
  <rdf:RDF xmlns:dc="http://purl.org/dc/elements/1.1/" xmlns:cc="http://creativecommons.org/ns#" xmlns:rdf="http://www.w3.org/1999/02/22-rdf-syntax-ns#">
   <cc:Work>
    <dc:type rdf:resource="http://purl.org/dc/dcmitype/StillImage"/>
    <dc:date>2024-11-09T10:03:38.544624</dc:date>
    <dc:format>image/svg+xml</dc:format>
    <dc:creator>
     <cc:Agent>
      <dc:title>Matplotlib v3.9.2, https://matplotlib.org/</dc:title>
     </cc:Agent>
    </dc:creator>
   </cc:Work>
  </rdf:RDF>
 </metadata>
 <defs>
  <style type="text/css">*{stroke-linejoin: round; stroke-linecap: butt}</style>
 </defs>
 <g id="figure_1">
  <g id="patch_1">
   <path d="M 0 154.66 
L 333.36 154.66 
L 333.36 0 
L 0 0 
L 0 154.66 
z
" style="fill: none"/>
  </g>
  <g id="axes_1">
   <g id="line2d_1">
    <path d="M 328.68 136.48 
L 170.055 136.48 
M 163.305 136.48 
L 4.68 136.48 
" clip-path="url(#pda7fc9cc0c)" style="fill: none; stroke: #000000; stroke-width: 2; stroke-linecap: round"/>
   </g>
   <g id="line2d_2">
    <path d="M 170.055 149.98 
L 170.055 122.98 
" clip-path="url(#pda7fc9cc0c)" style="fill: none; stroke: #000000; stroke-width: 2; stroke-linecap: round"/>
   </g>
   <g id="line2d_3">
    <path d="M 163.305 143.23 
L 163.305 129.73 
" clip-path="url(#pda7fc9cc0c)" style="fill: none; stroke: #000000; stroke-width: 2; stroke-linecap: round"/>
   </g>
   <g id="line2d_4">
    <path d="M 4.68 136.48 
L 4.68 82.48 
L 4.68 28.48 
" clip-path="url(#pda7fc9cc0c)" style="fill: none; stroke: #000000; stroke-width: 2; stroke-linecap: round"/>
   </g>
   <g id="line2d_5">
    <path d="M 4.68 28.48 
L 40.68 28.48 
L 40.68 19.48 
L 76.68 19.48 
L 76.68 37.48 
L 40.68 37.48 
L 40.68 28.48 
M 76.68 28.48 
L 112.68 28.48 
" clip-path="url(#pda7fc9cc0c)" style="fill: none; stroke: #000000; stroke-width: 2; stroke-linecap: round"/>
   </g>
   <g id="line2d_6">
    <path d="M 112.68 28.48 
L 148.68 28.48 
L 148.68 19.48 
L 184.68 19.48 
L 184.68 37.48 
L 148.68 37.48 
L 148.68 28.48 
M 184.68 28.48 
L 220.68 28.48 
" clip-path="url(#pda7fc9cc0c)" style="fill: none; stroke: #000000; stroke-width: 2; stroke-linecap: round"/>
   </g>
   <g id="line2d_7">
    <path d="M 220.68 28.48 
L 256.68 28.48 
L 256.68 19.48 
L 292.68 19.48 
L 292.68 37.48 
L 256.68 37.48 
L 256.68 28.48 
M 292.68 28.48 
L 328.68 28.48 
" clip-path="url(#pda7fc9cc0c)" style="fill: none; stroke: #000000; stroke-width: 2; stroke-linecap: round"/>
   </g>
   <g id="line2d_8">
    <path d="M 328.68 28.48 
L 328.68 82.48 
L 328.68 136.48 
" clip-path="url(#pda7fc9cc0c)" style="fill: none; stroke: #000000; stroke-width: 2; stroke-linecap: round"/>
   </g>
   <g id="text_1">
    <!-- 10 V -->
    <g transform="translate(152.105781 116.663125) scale(0.14 -0.14)">
     <defs>
      <path id="NewCMMath-Book-31" d="M 1722 4262 
C 1459 3994 1075 3859 570 3859 
L 570 3610 
C 902 3610 1178 3661 1389 3763 
L 1389 525 
C 1389 410 1363 333 1306 301 
C 1248 269 1088 250 832 250 
L 608 250 
L 608 0 
C 768 13 1114 19 1645 19 
C 2176 19 2522 13 2682 0 
L 2682 250 
L 2458 250 
C 2195 250 2035 269 1984 301 
C 1933 333 1901 410 1901 525 
L 1901 4070 
C 1901 4224 1888 4262 1722 4262 
z
" transform="scale(0.015625)"/>
      <path id="NewCMMath-Book-30" d="M 1594 -141 
C 2496 -141 2944 589 2944 2048 
C 2944 3027 2739 3680 2336 4000 
C 2112 4173 1862 4262 1600 4262 
C 698 4262 250 3526 250 2048 
C 250 870 563 -141 1594 -141 
z
M 2310 3354 
C 2355 3130 2374 2720 2374 2125 
C 2374 1536 2349 1101 2304 819 
C 2221 307 1984 51 1594 51 
C 1446 51 1299 109 1165 218 
C 992 365 890 666 845 1126 
C 826 1286 819 1619 819 2125 
C 819 2682 838 3072 870 3283 
C 928 3635 1043 3859 1222 3955 
C 1363 4032 1485 4070 1594 4070 
C 2010 4070 2240 3731 2310 3354 
z
" transform="scale(0.015625)"/>
      <path id="NewCMMath-Book-20" transform="scale(0.015625)"/>
      <path id="NewCMMath-Book-56" d="M 3981 3718 
C 4083 3981 4314 4115 4672 4122 
L 4672 4371 
C 4397 4352 4186 4346 4032 4352 
L 3283 4371 
L 3283 4128 
C 3597 4122 3750 4019 3750 3834 
C 3750 3808 3738 3770 3718 3718 
L 2586 730 
L 1395 3859 
C 1376 3923 1363 3962 1363 3968 
C 1363 4070 1536 4122 1882 4122 
L 1882 4371 
C 1613 4352 1306 4346 954 4352 
L 122 4371 
L 122 4122 
C 358 4122 512 4109 582 4090 
C 653 4070 704 4006 742 3898 
L 2214 13 
C 2253 -90 2310 -141 2394 -141 
C 2477 -141 2534 -96 2566 -6 
L 3981 3718 
z
" transform="scale(0.015625)"/>
     </defs>
     <use xlink:href="#NewCMMath-Book-31"/>
     <use xlink:href="#NewCMMath-Book-30" x="49.999985"/>
     <use xlink:href="#NewCMMath-Book-20" x="99.999969"/>
     <use xlink:href="#NewCMMath-Book-56" x="133.199966"/>
    </g>
   </g>
   <g id="text_2">
    <!-- 20 Ω -->
    <g transform="translate(44.301563 13.163125) scale(0.14 -0.14)">
     <defs>
      <path id="NewCMMath-Book-32" d="M 1517 4262 
C 1190 4262 915 4147 678 3917 
C 442 3686 320 3418 320 3091 
C 320 2874 480 2714 678 2714 
C 870 2714 1030 2880 1030 3072 
C 1030 3283 877 3430 672 3430 
C 653 3430 640 3430 627 3424 
C 749 3738 1030 4013 1434 4013 
C 1958 4013 2253 3558 2253 3008 
C 2253 2579 2035 2118 1600 1632 
L 397 275 
C 314 179 320 186 320 0 
L 2694 0 
L 2880 1152 
L 2669 1152 
C 2618 826 2573 640 2534 582 
C 2502 550 2310 538 1958 538 
L 890 538 
L 1510 1146 
C 1946 1555 2496 1997 2682 2336 
C 2810 2560 2874 2784 2874 3008 
C 2874 3763 2285 4262 1517 4262 
z
" transform="scale(0.015625)"/>
      <path id="NewCMMath-Book-3a9" d="M 1709 160 
C 1709 467 1594 941 1370 1574 
C 1158 2144 1056 2586 1056 2906 
C 1056 3686 1542 4320 2304 4320 
C 3066 4320 3558 3686 3558 2906 
C 3558 2592 3437 2099 3200 1440 
C 3002 877 2906 448 2906 160 
C 2906 6 2931 0 3091 0 
L 4122 0 
L 4339 1075 
L 4128 1075 
C 4090 870 4051 710 4013 595 
C 3987 525 3930 486 3846 467 
C 3827 461 3750 461 3616 461 
L 3142 461 
C 3206 704 3392 1050 3699 1498 
C 4070 2054 4256 2522 4256 2899 
C 4256 3379 4045 3776 3629 4090 
C 3251 4371 2810 4512 2310 4512 
C 1805 4512 1363 4371 986 4090 
C 570 3782 358 3386 358 2899 
C 358 2528 544 2061 915 1498 
C 1158 1139 1370 826 1472 461 
L 998 461 
C 781 461 653 493 621 550 
C 557 755 512 928 486 1075 
L 275 1075 
L 493 0 
L 1530 0 
C 1677 0 1709 13 1709 160 
z
" transform="scale(0.015625)"/>
     </defs>
     <use xlink:href="#NewCMMath-Book-32"/>
     <use xlink:href="#NewCMMath-Book-30" x="49.999985"/>
     <use xlink:href="#NewCMMath-Book-20" x="99.999969"/>
     <use xlink:href="#NewCMMath-Book-3a9" x="133.199966"/>
    </g>
   </g>
   <g id="text_3">
    <!-- 50 Ω -->
    <g transform="translate(152.301563 13.163125) scale(0.14 -0.14)">
     <defs>
      <path id="NewCMMath-Book-35" d="M 755 2016 
C 787 2016 826 2042 858 2086 
C 1050 2374 1312 2515 1645 2515 
C 1869 2515 2042 2387 2157 2125 
C 2227 1952 2266 1690 2266 1338 
C 2266 934 2214 653 2118 486 
C 1958 224 1741 90 1466 90 
C 1037 90 698 397 582 730 
C 602 723 614 730 640 730 
C 832 730 992 877 992 1069 
C 992 1267 832 1402 640 1402 
C 416 1402 320 1280 320 1043 
C 320 403 838 -141 1478 -141 
C 1869 -141 2202 0 2470 282 
C 2739 563 2874 902 2874 1293 
C 2874 1664 2765 1984 2547 2259 
C 2310 2560 2016 2707 1658 2707 
C 1357 2707 1094 2611 883 2419 
L 883 3558 
C 1056 3507 1222 3482 1395 3482 
C 1690 3482 1946 3552 2163 3699 
C 2362 3821 2496 3942 2573 4058 
C 2611 4109 2630 4147 2630 4166 
C 2630 4230 2598 4262 2534 4262 
C 2182 4128 1882 4058 1638 4058 
C 1350 4058 1075 4115 813 4237 
C 781 4250 755 4256 730 4256 
C 672 4256 640 4198 640 4077 
L 640 2208 
C 640 2074 640 2016 755 2016 
z
" transform="scale(0.015625)"/>
     </defs>
     <use xlink:href="#NewCMMath-Book-35"/>
     <use xlink:href="#NewCMMath-Book-30" x="49.999985"/>
     <use xlink:href="#NewCMMath-Book-20" x="99.999969"/>
     <use xlink:href="#NewCMMath-Book-3a9" x="133.199966"/>
    </g>
   </g>
   <g id="text_4">
    <!-- 30 Ω -->
    <g transform="translate(260.301563 13.163125) scale(0.14 -0.14)">
     <defs>
      <path id="NewCMMath-Book-33" d="M 1939 2259 
C 2362 2419 2758 2822 2758 3366 
C 2758 3642 2624 3866 2362 4038 
C 2131 4186 1869 4262 1574 4262 
C 1286 4262 1037 4186 813 4038 
C 563 3872 435 3654 435 3379 
C 435 3168 576 3021 781 3021 
C 986 3021 1126 3168 1126 3373 
C 1126 3584 1005 3699 762 3712 
C 928 3936 1190 4051 1549 4051 
C 1933 4051 2125 3827 2125 3373 
C 2125 3104 2074 2880 1978 2694 
C 1805 2387 1568 2330 1171 2330 
C 1094 2317 1056 2285 1056 2227 
C 1056 2131 1101 2131 1229 2131 
L 1504 2131 
C 1984 2131 2227 1792 2227 1107 
C 2227 563 2029 90 1542 90 
C 1126 90 819 230 634 512 
C 858 506 1024 672 1024 890 
C 1024 1107 864 1267 646 1267 
C 397 1267 269 1139 269 877 
C 269 563 410 314 691 115 
C 941 -58 1235 -141 1562 -141 
C 1926 -141 2240 -19 2515 218 
C 2790 454 2925 749 2925 1107 
C 2925 1709 2451 2125 1939 2259 
z
" transform="scale(0.015625)"/>
     </defs>
     <use xlink:href="#NewCMMath-Book-33"/>
     <use xlink:href="#NewCMMath-Book-30" x="49.999985"/>
     <use xlink:href="#NewCMMath-Book-20" x="99.999969"/>
     <use xlink:href="#NewCMMath-Book-3a9" x="133.199966"/>
    </g>
   </g>
  </g>
 </g>
 <defs>
  <clipPath id="pda7fc9cc0c">
   <rect x="0" y="0" width="333.36" height="154.66"/>
  </clipPath>
 </defs>
</svg>
