<?xml version="1.0" encoding="utf-8" standalone="no"?>
<!DOCTYPE svg PUBLIC "-//W3C//DTD SVG 1.1//EN"
  "http://www.w3.org/Graphics/SVG/1.1/DTD/svg11.dtd">
<svg xmlns:xlink="http://www.w3.org/1999/xlink" width="147.36pt" height="85.86pt" viewBox="0 0 147.36 85.86" xmlns="http://www.w3.org/2000/svg" version="1.1">
 <metadata>
  <rdf:RDF xmlns:dc="http://purl.org/dc/elements/1.1/" xmlns:cc="http://creativecommons.org/ns#" xmlns:rdf="http://www.w3.org/1999/02/22-rdf-syntax-ns#">
   <cc:Work>
    <dc:type rdf:resource="http://purl.org/dc/dcmitype/StillImage"/>
    <dc:date>2024-11-08T21:49:04.691421</dc:date>
    <dc:format>image/svg+xml</dc:format>
    <dc:creator>
     <cc:Agent>
      <dc:title>Matplotlib v3.9.2, https://matplotlib.org/</dc:title>
     </cc:Agent>
    </dc:creator>
   </cc:Work>
  </rdf:RDF>
 </metadata>
 <defs>
  <style type="text/css">*{stroke-linejoin: round; stroke-linecap: butt}</style>
 </defs>
 <g id="figure_1">
  <g id="patch_1">
   <path d="M 0 85.86 
L 147.36 85.86 
L 147.36 0 
L 0 0 
L 0 85.86 
z
" style="fill: none"/>
  </g>
  <g id="axes_1">
   <g id="line2d_1">
    <path d="M 127.68 67.68 
L 77.055 67.68 
M 70.305 67.68 
L 19.68 67.68 
" clip-path="url(#pc42d274539)" style="fill: none; stroke: #000000; stroke-width: 2; stroke-linecap: round"/>
   </g>
   <g id="line2d_2">
    <path d="M 77.055 81.18 
L 77.055 54.18 
" clip-path="url(#pc42d274539)" style="fill: none; stroke: #000000; stroke-width: 2; stroke-linecap: round"/>
   </g>
   <g id="line2d_3">
    <path d="M 70.305 74.43 
L 70.305 60.93 
" clip-path="url(#pc42d274539)" style="fill: none; stroke: #000000; stroke-width: 2; stroke-linecap: round"/>
   </g>
   <g id="line2d_4">
    <path d="M 19.68 67.68 
L 19.68 40.68 
L 19.68 13.68 
" clip-path="url(#pc42d274539)" style="fill: none; stroke: #000000; stroke-width: 2; stroke-linecap: round"/>
   </g>
   <g id="line2d_5">
    <path d="M 19.68 13.68 
L 55.68 13.68 
L 55.68 4.68 
L 91.68 4.68 
L 91.68 22.68 
L 55.68 22.68 
L 55.68 13.68 
M 91.68 13.68 
L 127.68 13.68 
" clip-path="url(#pc42d274539)" style="fill: none; stroke: #000000; stroke-width: 2; stroke-linecap: round"/>
   </g>
   <g id="line2d_6">
    <path d="M 127.68 13.68 
L 127.68 40.68 
L 127.68 67.68 
" clip-path="url(#pc42d274539)" style="fill: none; stroke: #000000; stroke-width: 2; stroke-linecap: round"/>
   </g>
   <g id="line2d_7">
    <path d="M 19.68 40.68 
L 19.68 40.68 
" clip-path="url(#pc42d274539)" style="fill: none; stroke: #000000; stroke-width: 2; stroke-linecap: round"/>
   </g>
   <g id="patch_2">
    <path d="M 25.08 40.68 
L 19.68 51.48 
L 14.28 40.68 
z
" clip-path="url(#pc42d274539)"/>
   </g>
   <g id="text_1">
    <!-- $I$ -->
    <g transform="translate(2.72 49.58) scale(0.14 -0.14)">
     <defs>
      <path id="Cmmi10-49" d="M 269 0 
Q 206 0 206 84 
Q 231 225 288 225 
Q 666 225 800 250 
Q 947 284 984 441 
L 1863 3956 
Q 1875 4019 1875 4038 
Q 1875 4078 1854 4095 
Q 1834 4113 1791 4122 
Q 1663 4147 1306 4147 
Q 1241 4147 1241 4231 
Q 1263 4313 1275 4342 
Q 1288 4372 1350 4372 
L 3138 4372 
Q 3200 4372 3200 4288 
Q 3197 4272 3187 4234 
Q 3178 4197 3162 4172 
Q 3147 4147 3116 4147 
Q 2741 4147 2597 4122 
Q 2456 4088 2419 3928 
L 1544 416 
Q 1528 338 1528 331 
Q 1528 316 1533 302 
Q 1538 288 1552 277 
Q 1566 266 1580 261 
Q 1594 256 1613 250 
Q 1734 225 2100 225 
Q 2163 225 2163 141 
Q 2141 50 2128 25 
Q 2116 0 2053 0 
L 269 0 
z
" transform="scale(0.015625)"/>
     </defs>
     <use xlink:href="#Cmmi10-49" transform="translate(0 0.6875)"/>
    </g>
   </g>
   <g id="line2d_8">
    <path d="M 127.68 40.68 
L 127.68 40.68 
" clip-path="url(#pc42d274539)" style="fill: none; stroke: #000000; stroke-width: 2; stroke-linecap: round"/>
   </g>
   <g id="patch_3">
    <path d="M 122.28 40.68 
L 127.68 29.88 
L 133.08 40.68 
z
" clip-path="url(#pc42d274539)"/>
   </g>
   <g id="text_2">
    <!-- $I$ -->
    <g transform="translate(138.48 38.78) scale(0.14 -0.14)">
     <use xlink:href="#Cmmi10-49" transform="translate(0 0.6875)"/>
    </g>
   </g>
  </g>
 </g>
 <defs>
  <clipPath id="pc42d274539">
   <rect x="0" y="-0" width="147.36" height="85.86"/>
  </clipPath>
 </defs>
</svg>
