<?xml version="1.0" encoding="utf-8" standalone="no"?>
<!DOCTYPE svg PUBLIC "-//W3C//DTD SVG 1.1//EN"
  "http://www.w3.org/Graphics/SVG/1.1/DTD/svg11.dtd">
<svg xmlns:xlink="http://www.w3.org/1999/xlink" width="139.368pt" height="160.06pt" viewBox="0 0 139.368 160.06" xmlns="http://www.w3.org/2000/svg" version="1.1">
 <metadata>
  <rdf:RDF xmlns:dc="http://purl.org/dc/elements/1.1/" xmlns:cc="http://creativecommons.org/ns#" xmlns:rdf="http://www.w3.org/1999/02/22-rdf-syntax-ns#">
   <cc:Work>
    <dc:type rdf:resource="http://purl.org/dc/dcmitype/StillImage"/>
    <dc:date>2024-11-09T10:03:39.384946</dc:date>
    <dc:format>image/svg+xml</dc:format>
    <dc:creator>
     <cc:Agent>
      <dc:title>Matplotlib v3.9.2, https://matplotlib.org/</dc:title>
     </cc:Agent>
    </dc:creator>
   </cc:Work>
  </rdf:RDF>
 </metadata>
 <defs>
  <style type="text/css">*{stroke-linejoin: round; stroke-linecap: butt}</style>
 </defs>
 <g id="figure_1">
  <g id="patch_1">
   <path d="M 0 160.06 
L 139.368 160.06 
L 139.368 0 
L 0 0 
L 0 160.06 
z
" style="fill: none"/>
  </g>
  <g id="axes_1">
   <g id="line2d_1">
    <path d="M 112.68 141.88 
L 62.055 141.88 
M 55.305 141.88 
L 4.68 141.88 
" clip-path="url(#p5d8d301c50)" style="fill: none; stroke: #000000; stroke-width: 2; stroke-linecap: round"/>
   </g>
   <g id="line2d_2">
    <path d="M 62.055 155.38 
L 62.055 128.38 
" clip-path="url(#p5d8d301c50)" style="fill: none; stroke: #000000; stroke-width: 2; stroke-linecap: round"/>
   </g>
   <g id="line2d_3">
    <path d="M 55.305 148.63 
L 55.305 135.13 
" clip-path="url(#p5d8d301c50)" style="fill: none; stroke: #000000; stroke-width: 2; stroke-linecap: round"/>
   </g>
   <g id="line2d_4">
    <path d="M 4.68 141.88 
L 4.68 98.68 
L 4.68 55.48 
" clip-path="url(#p5d8d301c50)" style="fill: none; stroke: #000000; stroke-width: 2; stroke-linecap: round"/>
   </g>
   <g id="line2d_5">
    <path d="M 4.68 55.48 
L 11.43 55.48 
L 18.18 55.48 
" clip-path="url(#p5d8d301c50)" style="fill: none; stroke: #000000; stroke-width: 2; stroke-linecap: round"/>
   </g>
   <g id="line2d_6">
    <path d="M 18.18 55.48 
L 18.18 41.98 
L 18.18 28.48 
" clip-path="url(#p5d8d301c50)" style="fill: none; stroke: #000000; stroke-width: 2; stroke-linecap: round"/>
   </g>
   <g id="line2d_7">
    <path d="M 18.18 28.48 
L 40.68 28.48 
L 40.68 19.48 
L 76.68 19.48 
L 76.68 37.48 
L 40.68 37.48 
L 40.68 28.48 
M 76.68 28.48 
L 99.18 28.48 
" clip-path="url(#p5d8d301c50)" style="fill: none; stroke: #000000; stroke-width: 2; stroke-linecap: round"/>
   </g>
   <g id="line2d_8">
    <path d="M 99.18 28.48 
L 99.18 41.98 
L 99.18 55.48 
" clip-path="url(#p5d8d301c50)" style="fill: none; stroke: #000000; stroke-width: 2; stroke-linecap: round"/>
   </g>
   <g id="line2d_9">
    <path d="M 18.18 55.48 
L 18.18 68.98 
L 18.18 82.48 
" clip-path="url(#p5d8d301c50)" style="fill: none; stroke: #000000; stroke-width: 2; stroke-linecap: round"/>
   </g>
   <g id="line2d_10">
    <path d="M 18.18 82.48 
L 40.68 82.48 
L 40.68 73.48 
L 76.68 73.48 
L 76.68 91.48 
L 40.68 91.48 
L 40.68 82.48 
M 76.68 82.48 
L 99.18 82.48 
" clip-path="url(#p5d8d301c50)" style="fill: none; stroke: #000000; stroke-width: 2; stroke-linecap: round"/>
   </g>
   <g id="line2d_11">
    <path d="M 99.18 82.48 
L 99.18 68.98 
L 99.18 55.48 
" clip-path="url(#p5d8d301c50)" style="fill: none; stroke: #000000; stroke-width: 2; stroke-linecap: round"/>
   </g>
   <g id="line2d_12">
    <path d="M 99.18 55.48 
L 105.93 55.48 
L 112.68 55.48 
" clip-path="url(#p5d8d301c50)" style="fill: none; stroke: #000000; stroke-width: 2; stroke-linecap: round"/>
   </g>
   <g id="line2d_13">
    <path d="M 112.68 55.48 
L 112.68 98.68 
L 112.68 141.88 
" clip-path="url(#p5d8d301c50)" style="fill: none; stroke: #000000; stroke-width: 2; stroke-linecap: round"/>
   </g>
   <g id="patch_2">
    <path d="M 18.18 58.18 
C 18.896048 58.18 19.582866 57.895511 20.089188 57.389188 
C 20.595511 56.882866 20.88 56.196048 20.88 55.48 
C 20.88 54.763952 20.595511 54.077134 20.089188 53.570812 
C 19.582866 53.064489 18.896048 52.78 18.18 52.78 
C 17.463952 52.78 16.777134 53.064489 16.270812 53.570812 
C 15.764489 54.077134 15.48 54.763952 15.48 55.48 
C 15.48 56.196048 15.764489 56.882866 16.270812 57.389188 
C 16.777134 57.895511 17.463952 58.18 18.18 58.18 
z
" clip-path="url(#p5d8d301c50)" style="stroke: #000000; stroke-width: 2; stroke-linejoin: miter"/>
   </g>
   <g id="text_1">
    <!-- $R_1$ -->
    <g transform="translate(50.42 13.163125) scale(0.14 -0.14)">
     <defs>
      <path id="Cmmi10-52" d="M 313 0 
Q 250 0 250 84 
Q 253 100 262 139 
Q 272 178 289 201 
Q 306 225 331 225 
Q 722 225 878 269 
Q 959 297 997 441 
L 1875 3956 
Q 1888 4019 1888 4044 
Q 1888 4113 1813 4122 
Q 1691 4147 1350 4147 
Q 1288 4147 1288 4231 
Q 1291 4247 1300 4286 
Q 1309 4325 1326 4348 
Q 1344 4372 1369 4372 
L 3309 4372 
Q 3541 4372 3791 4319 
Q 4041 4266 4250 4152 
Q 4459 4038 4593 3848 
Q 4728 3659 4728 3406 
Q 4728 3084 4515 2831 
Q 4303 2578 3978 2408 
Q 3653 2238 3347 2169 
Q 3597 2078 3756 1879 
Q 3916 1681 3916 1422 
Q 3916 1388 3914 1370 
Q 3913 1353 3909 1331 
L 3859 763 
Q 3853 638 3847 550 
Q 3841 463 3841 409 
Q 3841 234 3892 129 
Q 3944 25 4097 25 
Q 4297 25 4448 211 
Q 4600 397 4647 616 
Q 4675 672 4709 672 
L 4769 672 
Q 4831 672 4831 588 
Q 4784 403 4682 237 
Q 4581 72 4426 -34 
Q 4272 -141 4091 -141 
Q 3716 -141 3452 26 
Q 3188 194 3188 550 
Q 3188 684 3213 788 
L 3353 1356 
Q 3378 1434 3378 1538 
Q 3378 1803 3198 1954 
Q 3019 2106 2747 2106 
L 1959 2106 
L 1538 416 
Q 1522 363 1522 325 
Q 1522 259 1600 250 
Q 1722 225 2059 225 
Q 2125 225 2125 141 
Q 2103 50 2090 25 
Q 2078 0 2016 0 
L 313 0 
z
M 1997 2272 
L 2706 2272 
Q 3403 2272 3756 2625 
Q 3919 2788 4014 3039 
Q 4109 3291 4109 3541 
Q 4109 3778 3970 3912 
Q 3831 4047 3626 4097 
Q 3422 4147 3175 4147 
L 2747 4147 
Q 2572 4147 2515 4117 
Q 2459 4088 2413 3928 
L 1997 2272 
z
" transform="scale(0.015625)"/>
      <path id="Cmr10-31" d="M 594 0 
L 594 225 
Q 1394 225 1394 428 
L 1394 3788 
Q 1063 3628 556 3628 
L 556 3853 
Q 1341 3853 1741 4263 
L 1831 4263 
Q 1853 4263 1873 4245 
Q 1894 4228 1894 4206 
L 1894 428 
Q 1894 225 2694 225 
L 2694 0 
L 594 0 
z
" transform="scale(0.015625)"/>
     </defs>
     <use xlink:href="#Cmmi10-52" transform="translate(0 0.6875)"/>
     <use xlink:href="#Cmr10-31" transform="translate(75.878906 -16.31875) scale(0.7)"/>
    </g>
   </g>
   <g id="text_2">
    <!-- $R_2$ -->
    <g transform="translate(50.42 67.163125) scale(0.14 -0.14)">
     <defs>
      <path id="Cmr10-32" d="M 319 0 
L 319 172 
Q 319 188 331 206 
L 1325 1306 
Q 1550 1550 1690 1715 
Q 1831 1881 1968 2097 
Q 2106 2313 2186 2536 
Q 2266 2759 2266 3009 
Q 2266 3272 2169 3511 
Q 2072 3750 1880 3894 
Q 1688 4038 1416 4038 
Q 1138 4038 916 3870 
Q 694 3703 603 3438 
Q 628 3444 672 3444 
Q 816 3444 917 3347 
Q 1019 3250 1019 3097 
Q 1019 2950 917 2848 
Q 816 2747 672 2747 
Q 522 2747 420 2851 
Q 319 2956 319 3097 
Q 319 3338 409 3548 
Q 500 3759 670 3923 
Q 841 4088 1055 4175 
Q 1269 4263 1509 4263 
Q 1875 4263 2190 4108 
Q 2506 3953 2690 3670 
Q 2875 3388 2875 3009 
Q 2875 2731 2753 2481 
Q 2631 2231 2440 2026 
Q 2250 1822 1953 1562 
Q 1656 1303 1563 1216 
L 838 519 
L 1453 519 
Q 1906 519 2211 526 
Q 2516 534 2534 550 
Q 2609 631 2688 1141 
L 2875 1141 
L 2694 0 
L 319 0 
z
" transform="scale(0.015625)"/>
     </defs>
     <use xlink:href="#Cmmi10-52" transform="translate(0 0.6875)"/>
     <use xlink:href="#Cmr10-32" transform="translate(75.878906 -16.31875) scale(0.7)"/>
    </g>
   </g>
   <g id="patch_3">
    <path d="M 99.18 58.18 
C 99.896048 58.18 100.582866 57.895511 101.089188 57.389188 
C 101.595511 56.882866 101.88 56.196048 101.88 55.48 
C 101.88 54.763952 101.595511 54.077134 101.089188 53.570812 
C 100.582866 53.064489 99.896048 52.78 99.18 52.78 
C 98.463952 52.78 97.777134 53.064489 97.270812 53.570812 
C 96.764489 54.077134 96.48 54.763952 96.48 55.48 
C 96.48 56.196048 96.764489 56.882866 97.270812 57.389188 
C 97.777134 57.895511 98.463952 58.18 99.18 58.18 
z
" clip-path="url(#p5d8d301c50)" style="stroke: #000000; stroke-width: 2; stroke-linejoin: miter"/>
   </g>
   <g id="patch_4">
    <path d="M 99.18 31.18 
C 99.896048 31.18 100.582866 30.895511 101.089188 30.389188 
C 101.595511 29.882866 101.88 29.196048 101.88 28.48 
C 101.88 27.763952 101.595511 27.077134 101.089188 26.570812 
C 100.582866 26.064489 99.896048 25.78 99.18 25.78 
C 98.463952 25.78 97.777134 26.064489 97.270812 26.570812 
C 96.764489 27.077134 96.48 27.763952 96.48 28.48 
C 96.48 29.196048 96.764489 29.882866 97.270812 30.389188 
C 97.777134 30.895511 98.463952 31.18 99.18 31.18 
z
" clip-path="url(#p5d8d301c50)" style="fill: #ff0000; stroke: #ff0000; stroke-width: 2; stroke-linejoin: miter"/>
   </g>
   <g id="text_3">
    <!-- $A_2$ -->
    <g style="fill: #ff0000" transform="translate(90.99 19.463125) scale(0.14 -0.14)">
     <defs>
      <path id="Cmmi10-41" d="M 288 0 
Q 225 0 225 84 
Q 250 225 306 225 
Q 566 225 755 328 
Q 944 431 1081 647 
Q 1094 659 1094 659 
L 3378 4513 
Q 3428 4581 3500 4581 
L 3584 4581 
Q 3603 4581 3622 4573 
Q 3641 4566 3655 4548 
Q 3669 4531 3669 4513 
L 4056 378 
Q 4056 350 4084 294 
Q 4147 225 4563 225 
Q 4628 225 4628 141 
Q 4606 56 4592 28 
Q 4578 0 4519 0 
L 2919 0 
Q 2859 0 2859 84 
Q 2894 225 2944 225 
Q 3450 225 3481 397 
L 3384 1453 
L 1806 1453 
L 1294 594 
Q 1247 525 1247 434 
Q 1247 322 1355 273 
Q 1463 225 1594 225 
Q 1656 225 1656 141 
Q 1634 50 1621 25 
Q 1609 0 1550 0 
L 288 0 
z
M 1931 1678 
L 3359 1678 
L 3169 3750 
L 1931 1678 
z
" transform="scale(0.015625)"/>
     </defs>
     <use xlink:href="#Cmmi10-41" transform="translate(0 0.421875)"/>
     <use xlink:href="#Cmr10-32" transform="translate(75 -16.584375) scale(0.7)"/>
    </g>
   </g>
   <g id="patch_5">
    <path d="M 99.18 85.18 
C 99.896048 85.18 100.582866 84.895511 101.089188 84.389188 
C 101.595511 83.882866 101.88 83.196048 101.88 82.48 
C 101.88 81.763952 101.595511 81.077134 101.089188 80.570812 
C 100.582866 80.064489 99.896048 79.78 99.18 79.78 
C 98.463952 79.78 97.777134 80.064489 97.270812 80.570812 
C 96.764489 81.077134 96.48 81.763952 96.48 82.48 
C 96.48 83.196048 96.764489 83.882866 97.270812 84.389188 
C 97.777134 84.895511 98.463952 85.18 99.18 85.18 
z
" clip-path="url(#p5d8d301c50)" style="fill: #ff0000; stroke: #ff0000; stroke-width: 2; stroke-linejoin: miter"/>
   </g>
   <g id="text_4">
    <!-- $A_3$ -->
    <g style="fill: #ff0000" transform="translate(90.99 98.803125) scale(0.14 -0.14)">
     <defs>
      <path id="Cmr10-33" d="M 609 494 
Q 759 275 1012 169 
Q 1266 63 1556 63 
Q 1928 63 2084 380 
Q 2241 697 2241 1100 
Q 2241 1281 2208 1462 
Q 2175 1644 2097 1800 
Q 2019 1956 1883 2050 
Q 1747 2144 1550 2144 
L 1125 2144 
Q 1069 2144 1069 2203 
L 1069 2259 
Q 1069 2309 1125 2309 
L 1478 2338 
Q 1703 2338 1851 2506 
Q 2000 2675 2069 2917 
Q 2138 3159 2138 3378 
Q 2138 3684 1994 3881 
Q 1850 4078 1556 4078 
Q 1313 4078 1091 3986 
Q 869 3894 738 3706 
Q 750 3709 759 3711 
Q 769 3713 781 3713 
Q 925 3713 1022 3613 
Q 1119 3513 1119 3372 
Q 1119 3234 1022 3134 
Q 925 3034 781 3034 
Q 641 3034 541 3134 
Q 441 3234 441 3372 
Q 441 3647 606 3850 
Q 772 4053 1033 4158 
Q 1294 4263 1556 4263 
Q 1750 4263 1965 4205 
Q 2181 4147 2356 4039 
Q 2531 3931 2642 3762 
Q 2753 3594 2753 3378 
Q 2753 3109 2633 2881 
Q 2513 2653 2303 2487 
Q 2094 2322 1844 2241 
Q 2122 2188 2372 2031 
Q 2622 1875 2773 1631 
Q 2925 1388 2925 1106 
Q 2925 753 2731 467 
Q 2538 181 2222 20 
Q 1906 -141 1556 -141 
Q 1256 -141 954 -26 
Q 653 88 461 316 
Q 269 544 269 863 
Q 269 1022 375 1128 
Q 481 1234 641 1234 
Q 744 1234 830 1186 
Q 916 1138 964 1050 
Q 1013 963 1013 863 
Q 1013 706 903 600 
Q 794 494 641 494 
L 609 494 
z
" transform="scale(0.015625)"/>
     </defs>
     <use xlink:href="#Cmmi10-41" transform="translate(0 0.421875)"/>
     <use xlink:href="#Cmr10-33" transform="translate(75 -16.584375) scale(0.7)"/>
    </g>
   </g>
   <g id="patch_6">
    <path d="M 112.68 144.58 
C 113.396048 144.58 114.082866 144.295511 114.589188 143.789188 
C 115.095511 143.282866 115.38 142.596048 115.38 141.88 
C 115.38 141.163952 115.095511 140.477134 114.589188 139.970812 
C 114.082866 139.464489 113.396048 139.18 112.68 139.18 
C 111.963952 139.18 111.277134 139.464489 110.770812 139.970812 
C 110.264489 140.477134 109.98 141.163952 109.98 141.88 
C 109.98 142.596048 110.264489 143.282866 110.770812 143.789188 
C 111.277134 144.295511 111.963952 144.58 112.68 144.58 
z
" clip-path="url(#p5d8d301c50)" style="fill: #ff0000; stroke: #ff0000; stroke-width: 2; stroke-linejoin: miter"/>
   </g>
   <g id="text_5">
    <!-- $A_1$ -->
    <g style="fill: #ff0000" transform="translate(118.98 145.463125) scale(0.14 -0.14)">
     <use xlink:href="#Cmmi10-41" transform="translate(0 0.421875)"/>
     <use xlink:href="#Cmr10-31" transform="translate(75 -16.584375) scale(0.7)"/>
    </g>
   </g>
  </g>
 </g>
 <defs>
  <clipPath id="p5d8d301c50">
   <rect x="0" y="-0" width="139.368" height="160.06"/>
  </clipPath>
 </defs>
</svg>
