<?xml version="1.0" encoding="utf-8" standalone="no"?>
<!DOCTYPE svg PUBLIC "-//W3C//DTD SVG 1.1//EN"
  "http://www.w3.org/Graphics/SVG/1.1/DTD/svg11.dtd">
<svg xmlns:xlink="http://www.w3.org/1999/xlink" width="139.368pt" height="153.76pt" viewBox="0 0 139.368 153.76" xmlns="http://www.w3.org/2000/svg" version="1.1">
 <metadata>
  <rdf:RDF xmlns:dc="http://purl.org/dc/elements/1.1/" xmlns:cc="http://creativecommons.org/ns#" xmlns:rdf="http://www.w3.org/1999/02/22-rdf-syntax-ns#">
   <cc:Work>
    <dc:type rdf:resource="http://purl.org/dc/dcmitype/StillImage"/>
    <dc:date>2024-11-08T21:49:04.940480</dc:date>
    <dc:format>image/svg+xml</dc:format>
    <dc:creator>
     <cc:Agent>
      <dc:title>Matplotlib v3.9.2, https://matplotlib.org/</dc:title>
     </cc:Agent>
    </dc:creator>
   </cc:Work>
  </rdf:RDF>
 </metadata>
 <defs>
  <style type="text/css">*{stroke-linejoin: round; stroke-linecap: butt}</style>
 </defs>
 <g id="figure_1">
  <g id="patch_1">
   <path d="M 0 153.76 
L 139.368 153.76 
L 139.368 0 
L 0 0 
L 0 153.76 
z
" style="fill: none"/>
  </g>
  <g id="axes_1">
   <g id="line2d_1">
    <path d="M 112.68 135.58 
L 62.055 135.58 
M 55.305 135.58 
L 4.68 135.58 
" clip-path="url(#p8cf2ed3d2b)" style="fill: none; stroke: #000000; stroke-width: 2; stroke-linecap: round"/>
   </g>
   <g id="line2d_2">
    <path d="M 62.055 149.08 
L 62.055 122.08 
" clip-path="url(#p8cf2ed3d2b)" style="fill: none; stroke: #000000; stroke-width: 2; stroke-linecap: round"/>
   </g>
   <g id="line2d_3">
    <path d="M 55.305 142.33 
L 55.305 128.83 
" clip-path="url(#p8cf2ed3d2b)" style="fill: none; stroke: #000000; stroke-width: 2; stroke-linecap: round"/>
   </g>
   <g id="line2d_4">
    <path d="M 4.68 135.58 
L 4.68 92.38 
L 4.68 49.18 
" clip-path="url(#p8cf2ed3d2b)" style="fill: none; stroke: #000000; stroke-width: 2; stroke-linecap: round"/>
   </g>
   <g id="line2d_5">
    <path d="M 4.68 49.18 
L 11.43 49.18 
L 18.18 49.18 
" clip-path="url(#p8cf2ed3d2b)" style="fill: none; stroke: #000000; stroke-width: 2; stroke-linecap: round"/>
   </g>
   <g id="line2d_6">
    <path d="M 18.18 49.18 
L 18.18 35.68 
L 18.18 22.18 
" clip-path="url(#p8cf2ed3d2b)" style="fill: none; stroke: #000000; stroke-width: 2; stroke-linecap: round"/>
   </g>
   <g id="line2d_7">
    <path d="M 18.18 22.18 
L 40.68 22.18 
L 40.68 13.18 
L 76.68 13.18 
L 76.68 31.18 
L 40.68 31.18 
L 40.68 22.18 
M 76.68 22.18 
L 99.18 22.18 
" clip-path="url(#p8cf2ed3d2b)" style="fill: none; stroke: #000000; stroke-width: 2; stroke-linecap: round"/>
   </g>
   <g id="line2d_8">
    <path d="M 99.18 22.18 
L 99.18 35.68 
L 99.18 49.18 
" clip-path="url(#p8cf2ed3d2b)" style="fill: none; stroke: #000000; stroke-width: 2; stroke-linecap: round"/>
   </g>
   <g id="line2d_9">
    <path d="M 18.18 49.18 
L 18.18 62.68 
L 18.18 76.18 
" clip-path="url(#p8cf2ed3d2b)" style="fill: none; stroke: #000000; stroke-width: 2; stroke-linecap: round"/>
   </g>
   <g id="line2d_10">
    <path d="M 18.18 76.18 
L 40.68 76.18 
L 40.68 67.18 
L 76.68 67.18 
L 76.68 85.18 
L 40.68 85.18 
L 40.68 76.18 
M 76.68 76.18 
L 99.18 76.18 
" clip-path="url(#p8cf2ed3d2b)" style="fill: none; stroke: #000000; stroke-width: 2; stroke-linecap: round"/>
   </g>
   <g id="line2d_11">
    <path d="M 99.18 76.18 
L 99.18 62.68 
L 99.18 49.18 
" clip-path="url(#p8cf2ed3d2b)" style="fill: none; stroke: #000000; stroke-width: 2; stroke-linecap: round"/>
   </g>
   <g id="line2d_12">
    <path d="M 99.18 49.18 
L 105.93 49.18 
L 112.68 49.18 
" clip-path="url(#p8cf2ed3d2b)" style="fill: none; stroke: #000000; stroke-width: 2; stroke-linecap: round"/>
   </g>
   <g id="line2d_13">
    <path d="M 112.68 49.18 
L 112.68 92.38 
L 112.68 135.58 
" clip-path="url(#p8cf2ed3d2b)" style="fill: none; stroke: #000000; stroke-width: 2; stroke-linecap: round"/>
   </g>
   <g id="patch_2">
    <path d="M 18.18 51.88 
C 18.896048 51.88 19.582866 51.595511 20.089188 51.089188 
C 20.595511 50.582866 20.88 49.896048 20.88 49.18 
C 20.88 48.463952 20.595511 47.777134 20.089188 47.270812 
C 19.582866 46.764489 18.896048 46.48 18.18 46.48 
C 17.463952 46.48 16.777134 46.764489 16.270812 47.270812 
C 15.764489 47.777134 15.48 48.463952 15.48 49.18 
C 15.48 49.896048 15.764489 50.582866 16.270812 51.089188 
C 16.777134 51.595511 17.463952 51.88 18.18 51.88 
z
" clip-path="url(#p8cf2ed3d2b)" style="stroke: #000000; stroke-width: 2; stroke-linejoin: miter"/>
   </g>
   <g id="patch_3">
    <path d="M 99.18 51.88 
C 99.896048 51.88 100.582866 51.595511 101.089188 51.089188 
C 101.595511 50.582866 101.88 49.896048 101.88 49.18 
C 101.88 48.463952 101.595511 47.777134 101.089188 47.270812 
C 100.582866 46.764489 99.896048 46.48 99.18 46.48 
C 98.463952 46.48 97.777134 46.764489 97.270812 47.270812 
C 96.764489 47.777134 96.48 48.463952 96.48 49.18 
C 96.48 49.896048 96.764489 50.582866 97.270812 51.089188 
C 97.777134 51.595511 98.463952 51.88 99.18 51.88 
z
" clip-path="url(#p8cf2ed3d2b)" style="stroke: #000000; stroke-width: 2; stroke-linejoin: miter"/>
   </g>
   <g id="patch_4">
    <path d="M 99.18 24.88 
C 99.896048 24.88 100.582866 24.595511 101.089188 24.089188 
C 101.595511 23.582866 101.88 22.896048 101.88 22.18 
C 101.88 21.463952 101.595511 20.777134 101.089188 20.270812 
C 100.582866 19.764489 99.896048 19.48 99.18 19.48 
C 98.463952 19.48 97.777134 19.764489 97.270812 20.270812 
C 96.764489 20.777134 96.48 21.463952 96.48 22.18 
C 96.48 22.896048 96.764489 23.582866 97.270812 24.089188 
C 97.777134 24.595511 98.463952 24.88 99.18 24.88 
z
" clip-path="url(#p8cf2ed3d2b)" style="fill: #ff0000; stroke: #ff0000; stroke-width: 2; stroke-linejoin: miter"/>
   </g>
   <g id="text_1">
    <!-- $A_2$ -->
    <g style="fill: #ff0000" transform="translate(90.99 13.163125) scale(0.14 -0.14)">
     <defs>
      <path id="Cmmi10-41" d="M 288 0 
Q 225 0 225 84 
Q 250 225 306 225 
Q 566 225 755 328 
Q 944 431 1081 647 
Q 1094 659 1094 659 
L 3378 4513 
Q 3428 4581 3500 4581 
L 3584 4581 
Q 3603 4581 3622 4573 
Q 3641 4566 3655 4548 
Q 3669 4531 3669 4513 
L 4056 378 
Q 4056 350 4084 294 
Q 4147 225 4563 225 
Q 4628 225 4628 141 
Q 4606 56 4592 28 
Q 4578 0 4519 0 
L 2919 0 
Q 2859 0 2859 84 
Q 2894 225 2944 225 
Q 3450 225 3481 397 
L 3384 1453 
L 1806 1453 
L 1294 594 
Q 1247 525 1247 434 
Q 1247 322 1355 273 
Q 1463 225 1594 225 
Q 1656 225 1656 141 
Q 1634 50 1621 25 
Q 1609 0 1550 0 
L 288 0 
z
M 1931 1678 
L 3359 1678 
L 3169 3750 
L 1931 1678 
z
" transform="scale(0.015625)"/>
      <path id="Cmr10-32" d="M 319 0 
L 319 172 
Q 319 188 331 206 
L 1325 1306 
Q 1550 1550 1690 1715 
Q 1831 1881 1968 2097 
Q 2106 2313 2186 2536 
Q 2266 2759 2266 3009 
Q 2266 3272 2169 3511 
Q 2072 3750 1880 3894 
Q 1688 4038 1416 4038 
Q 1138 4038 916 3870 
Q 694 3703 603 3438 
Q 628 3444 672 3444 
Q 816 3444 917 3347 
Q 1019 3250 1019 3097 
Q 1019 2950 917 2848 
Q 816 2747 672 2747 
Q 522 2747 420 2851 
Q 319 2956 319 3097 
Q 319 3338 409 3548 
Q 500 3759 670 3923 
Q 841 4088 1055 4175 
Q 1269 4263 1509 4263 
Q 1875 4263 2190 4108 
Q 2506 3953 2690 3670 
Q 2875 3388 2875 3009 
Q 2875 2731 2753 2481 
Q 2631 2231 2440 2026 
Q 2250 1822 1953 1562 
Q 1656 1303 1563 1216 
L 838 519 
L 1453 519 
Q 1906 519 2211 526 
Q 2516 534 2534 550 
Q 2609 631 2688 1141 
L 2875 1141 
L 2694 0 
L 319 0 
z
" transform="scale(0.015625)"/>
     </defs>
     <use xlink:href="#Cmmi10-41" transform="translate(0 0.421875)"/>
     <use xlink:href="#Cmr10-32" transform="translate(75 -16.584375) scale(0.7)"/>
    </g>
   </g>
   <g id="patch_5">
    <path d="M 99.18 78.88 
C 99.896048 78.88 100.582866 78.595511 101.089188 78.089188 
C 101.595511 77.582866 101.88 76.896048 101.88 76.18 
C 101.88 75.463952 101.595511 74.777134 101.089188 74.270812 
C 100.582866 73.764489 99.896048 73.48 99.18 73.48 
C 98.463952 73.48 97.777134 73.764489 97.270812 74.270812 
C 96.764489 74.777134 96.48 75.463952 96.48 76.18 
C 96.48 76.896048 96.764489 77.582866 97.270812 78.089188 
C 97.777134 78.595511 98.463952 78.88 99.18 78.88 
z
" clip-path="url(#p8cf2ed3d2b)" style="fill: #ff0000; stroke: #ff0000; stroke-width: 2; stroke-linejoin: miter"/>
   </g>
   <g id="text_2">
    <!-- $A_3$ -->
    <g style="fill: #ff0000" transform="translate(90.99 92.503125) scale(0.14 -0.14)">
     <defs>
      <path id="Cmr10-33" d="M 609 494 
Q 759 275 1012 169 
Q 1266 63 1556 63 
Q 1928 63 2084 380 
Q 2241 697 2241 1100 
Q 2241 1281 2208 1462 
Q 2175 1644 2097 1800 
Q 2019 1956 1883 2050 
Q 1747 2144 1550 2144 
L 1125 2144 
Q 1069 2144 1069 2203 
L 1069 2259 
Q 1069 2309 1125 2309 
L 1478 2338 
Q 1703 2338 1851 2506 
Q 2000 2675 2069 2917 
Q 2138 3159 2138 3378 
Q 2138 3684 1994 3881 
Q 1850 4078 1556 4078 
Q 1313 4078 1091 3986 
Q 869 3894 738 3706 
Q 750 3709 759 3711 
Q 769 3713 781 3713 
Q 925 3713 1022 3613 
Q 1119 3513 1119 3372 
Q 1119 3234 1022 3134 
Q 925 3034 781 3034 
Q 641 3034 541 3134 
Q 441 3234 441 3372 
Q 441 3647 606 3850 
Q 772 4053 1033 4158 
Q 1294 4263 1556 4263 
Q 1750 4263 1965 4205 
Q 2181 4147 2356 4039 
Q 2531 3931 2642 3762 
Q 2753 3594 2753 3378 
Q 2753 3109 2633 2881 
Q 2513 2653 2303 2487 
Q 2094 2322 1844 2241 
Q 2122 2188 2372 2031 
Q 2622 1875 2773 1631 
Q 2925 1388 2925 1106 
Q 2925 753 2731 467 
Q 2538 181 2222 20 
Q 1906 -141 1556 -141 
Q 1256 -141 954 -26 
Q 653 88 461 316 
Q 269 544 269 863 
Q 269 1022 375 1128 
Q 481 1234 641 1234 
Q 744 1234 830 1186 
Q 916 1138 964 1050 
Q 1013 963 1013 863 
Q 1013 706 903 600 
Q 794 494 641 494 
L 609 494 
z
" transform="scale(0.015625)"/>
     </defs>
     <use xlink:href="#Cmmi10-41" transform="translate(0 0.421875)"/>
     <use xlink:href="#Cmr10-33" transform="translate(75 -16.584375) scale(0.7)"/>
    </g>
   </g>
   <g id="patch_6">
    <path d="M 112.68 138.28 
C 113.396048 138.28 114.082866 137.995511 114.589188 137.489188 
C 115.095511 136.982866 115.38 136.296048 115.38 135.58 
C 115.38 134.863952 115.095511 134.177134 114.589188 133.670812 
C 114.082866 133.164489 113.396048 132.88 112.68 132.88 
C 111.963952 132.88 111.277134 133.164489 110.770812 133.670812 
C 110.264489 134.177134 109.98 134.863952 109.98 135.58 
C 109.98 136.296048 110.264489 136.982866 110.770812 137.489188 
C 111.277134 137.995511 111.963952 138.28 112.68 138.28 
z
" clip-path="url(#p8cf2ed3d2b)" style="fill: #ff0000; stroke: #ff0000; stroke-width: 2; stroke-linejoin: miter"/>
   </g>
   <g id="text_3">
    <!-- $A_1$ -->
    <g style="fill: #ff0000" transform="translate(118.98 139.163125) scale(0.14 -0.14)">
     <defs>
      <path id="Cmr10-31" d="M 594 0 
L 594 225 
Q 1394 225 1394 428 
L 1394 3788 
Q 1063 3628 556 3628 
L 556 3853 
Q 1341 3853 1741 4263 
L 1831 4263 
Q 1853 4263 1873 4245 
Q 1894 4228 1894 4206 
L 1894 428 
Q 1894 225 2694 225 
L 2694 0 
L 594 0 
z
" transform="scale(0.015625)"/>
     </defs>
     <use xlink:href="#Cmmi10-41" transform="translate(0 0.421875)"/>
     <use xlink:href="#Cmr10-31" transform="translate(75 -16.584375) scale(0.7)"/>
    </g>
   </g>
  </g>
 </g>
 <defs>
  <clipPath id="p8cf2ed3d2b">
   <rect x="0" y="0" width="139.368" height="153.76"/>
  </clipPath>
 </defs>
</svg>
