<?xml version="1.0" encoding="utf-8" standalone="no"?>
<!DOCTYPE svg PUBLIC "-//W3C//DTD SVG 1.1//EN"
  "http://www.w3.org/Graphics/SVG/1.1/DTD/svg11.dtd">
<svg xmlns:xlink="http://www.w3.org/1999/xlink" width="125.214pt" height="157.76pt" viewBox="0 0 125.214 157.76" xmlns="http://www.w3.org/2000/svg" version="1.1">
 <metadata>
  <rdf:RDF xmlns:dc="http://purl.org/dc/elements/1.1/" xmlns:cc="http://creativecommons.org/ns#" xmlns:rdf="http://www.w3.org/1999/02/22-rdf-syntax-ns#">
   <cc:Work>
    <dc:type rdf:resource="http://purl.org/dc/dcmitype/StillImage"/>
    <dc:date>2024-11-08T21:56:25.466299</dc:date>
    <dc:format>image/svg+xml</dc:format>
    <dc:creator>
     <cc:Agent>
      <dc:title>Matplotlib v3.9.2, https://matplotlib.org/</dc:title>
     </cc:Agent>
    </dc:creator>
   </cc:Work>
  </rdf:RDF>
 </metadata>
 <defs>
  <style type="text/css">*{stroke-linejoin: round; stroke-linecap: butt}</style>
 </defs>
 <g id="figure_1">
  <g id="patch_1">
   <path d="M 0 157.76 
L 125.214 157.76 
L 125.214 0 
L 0 0 
L 0 157.76 
z
" style="fill: none"/>
  </g>
  <g id="axes_1">
   <g id="line2d_1">
    <path d="M 120.534 135.58 
L 69.909 135.58 
M 63.159 135.58 
L 12.534 135.58 
" clip-path="url(#p12eba5f560)" style="fill: none; stroke: #000000; stroke-width: 2; stroke-linecap: round"/>
   </g>
   <g id="line2d_2">
    <path d="M 69.909 149.08 
L 69.909 122.08 
" clip-path="url(#p12eba5f560)" style="fill: none; stroke: #000000; stroke-width: 2; stroke-linecap: round"/>
   </g>
   <g id="line2d_3">
    <path d="M 63.159 142.33 
L 63.159 128.83 
" clip-path="url(#p12eba5f560)" style="fill: none; stroke: #000000; stroke-width: 2; stroke-linecap: round"/>
   </g>
   <g id="line2d_4">
    <path d="M 12.534 135.58 
L 12.534 92.38 
L 12.534 49.18 
" clip-path="url(#p12eba5f560)" style="fill: none; stroke: #000000; stroke-width: 2; stroke-linecap: round"/>
   </g>
   <g id="line2d_5">
    <path d="M 12.534 49.18 
L 19.284 49.18 
L 26.034 49.18 
" clip-path="url(#p12eba5f560)" style="fill: none; stroke: #000000; stroke-width: 2; stroke-linecap: round"/>
   </g>
   <g id="line2d_6">
    <path d="M 26.034 49.18 
L 26.034 35.68 
L 26.034 22.18 
" clip-path="url(#p12eba5f560)" style="fill: none; stroke: #000000; stroke-width: 2; stroke-linecap: round"/>
   </g>
   <g id="line2d_7">
    <path d="M 26.034 22.18 
L 48.534 22.18 
L 48.534 13.18 
L 84.534 13.18 
L 84.534 31.18 
L 48.534 31.18 
L 48.534 22.18 
M 84.534 22.18 
L 107.034 22.18 
" clip-path="url(#p12eba5f560)" style="fill: none; stroke: #000000; stroke-width: 2; stroke-linecap: round"/>
   </g>
   <g id="line2d_8">
    <path d="M 107.034 22.18 
L 107.034 35.68 
L 107.034 49.18 
" clip-path="url(#p12eba5f560)" style="fill: none; stroke: #000000; stroke-width: 2; stroke-linecap: round"/>
   </g>
   <g id="line2d_9">
    <path d="M 26.034 49.18 
L 26.034 62.68 
L 26.034 76.18 
" clip-path="url(#p12eba5f560)" style="fill: none; stroke: #000000; stroke-width: 2; stroke-linecap: round"/>
   </g>
   <g id="line2d_10">
    <path d="M 26.034 76.18 
L 48.534 76.18 
L 48.534 67.18 
L 84.534 67.18 
L 84.534 85.18 
L 48.534 85.18 
L 48.534 76.18 
M 84.534 76.18 
L 107.034 76.18 
" clip-path="url(#p12eba5f560)" style="fill: none; stroke: #000000; stroke-width: 2; stroke-linecap: round"/>
   </g>
   <g id="line2d_11">
    <path d="M 107.034 76.18 
L 107.034 62.68 
L 107.034 49.18 
" clip-path="url(#p12eba5f560)" style="fill: none; stroke: #000000; stroke-width: 2; stroke-linecap: round"/>
   </g>
   <g id="line2d_12">
    <path d="M 107.034 49.18 
L 113.784 49.18 
L 120.534 49.18 
" clip-path="url(#p12eba5f560)" style="fill: none; stroke: #000000; stroke-width: 2; stroke-linecap: round"/>
   </g>
   <g id="line2d_13">
    <path d="M 120.534 49.18 
L 120.534 92.38 
L 120.534 135.58 
" clip-path="url(#p12eba5f560)" style="fill: none; stroke: #000000; stroke-width: 2; stroke-linecap: round"/>
   </g>
   <g id="patch_2">
    <path d="M 26.034 51.88 
C 26.750048 51.88 27.436866 51.595511 27.943188 51.089188 
C 28.449511 50.582866 28.734 49.896048 28.734 49.18 
C 28.734 48.463952 28.449511 47.777134 27.943188 47.270812 
C 27.436866 46.764489 26.750048 46.48 26.034 46.48 
C 25.317952 46.48 24.631134 46.764489 24.124812 47.270812 
C 23.618489 47.777134 23.334 48.463952 23.334 49.18 
C 23.334 49.896048 23.618489 50.582866 24.124812 51.089188 
C 24.631134 51.595511 25.317952 51.88 26.034 51.88 
z
" clip-path="url(#p12eba5f560)" style="stroke: #000000; stroke-width: 2; stroke-linejoin: miter"/>
   </g>
   <g id="patch_3">
    <path d="M 107.034 51.88 
C 107.750048 51.88 108.436866 51.595511 108.943188 51.089188 
C 109.449511 50.582866 109.734 49.896048 109.734 49.18 
C 109.734 48.463952 109.449511 47.777134 108.943188 47.270812 
C 108.436866 46.764489 107.750048 46.48 107.034 46.48 
C 106.317952 46.48 105.631134 46.764489 105.124812 47.270812 
C 104.618489 47.777134 104.334 48.463952 104.334 49.18 
C 104.334 49.896048 104.618489 50.582866 105.124812 51.089188 
C 105.631134 51.595511 106.317952 51.88 107.034 51.88 
z
" clip-path="url(#p12eba5f560)" style="stroke: #000000; stroke-width: 2; stroke-linejoin: miter"/>
   </g>
   <g id="patch_4">
    <path d="M 12.534 138.28 
C 13.250048 138.28 13.936866 137.995511 14.443188 137.489188 
C 14.949511 136.982866 15.234 136.296048 15.234 135.58 
C 15.234 134.863952 14.949511 134.177134 14.443188 133.670812 
C 13.936866 133.164489 13.250048 132.88 12.534 132.88 
C 11.817952 132.88 11.131134 133.164489 10.624812 133.670812 
C 10.118489 134.177134 9.834 134.863952 9.834 135.58 
C 9.834 136.296048 10.118489 136.982866 10.624812 137.489188 
C 11.131134 137.995511 11.817952 138.28 12.534 138.28 
z
" clip-path="url(#p12eba5f560)" style="fill: #008000; stroke: #008000; stroke-width: 2; stroke-linejoin: miter"/>
   </g>
   <g id="text_1">
    <!-- $B_3$ -->
    <g style="fill: #008000" transform="translate(4.274 151.596875) scale(0.14 -0.14)">
     <defs>
      <path id="Cmmi10-42" d="M 319 0 
Q 256 0 256 84 
Q 259 100 268 137 
Q 278 175 293 200 
Q 309 225 341 225 
Q 522 225 656 234 
Q 791 244 884 269 
Q 959 297 1006 441 
L 1881 3956 
Q 1894 4019 1894 4044 
Q 1894 4113 1819 4122 
Q 1697 4147 1356 4147 
Q 1294 4147 1294 4231 
Q 1297 4247 1306 4286 
Q 1316 4325 1333 4348 
Q 1350 4372 1375 4372 
L 3669 4372 
Q 3878 4372 4083 4320 
Q 4288 4269 4461 4156 
Q 4634 4044 4736 3876 
Q 4838 3709 4838 3488 
Q 4838 3247 4714 3040 
Q 4591 2834 4395 2681 
Q 4200 2528 3973 2429 
Q 3747 2331 3500 2284 
Q 3675 2284 3854 2215 
Q 4034 2147 4175 2028 
Q 4316 1909 4402 1743 
Q 4488 1578 4488 1388 
Q 4488 1003 4219 684 
Q 3950 366 3542 183 
Q 3134 0 2753 0 
L 319 0 
z
M 1497 275 
Q 1497 225 1716 225 
L 2631 225 
Q 2944 225 3231 398 
Q 3519 572 3692 859 
Q 3866 1147 3866 1459 
Q 3866 1650 3786 1820 
Q 3706 1991 3556 2089 
Q 3406 2188 3213 2188 
L 1966 2188 
L 1522 416 
Q 1497 328 1497 275 
z
M 2009 2356 
L 2981 2356 
Q 3288 2356 3577 2512 
Q 3866 2669 4048 2937 
Q 4231 3206 4231 3506 
Q 4231 3784 4057 3965 
Q 3884 4147 3609 4147 
L 2731 4147 
Q 2559 4147 2500 4115 
Q 2441 4084 2400 3928 
L 2009 2356 
z
" transform="scale(0.015625)"/>
      <path id="Cmr10-33" d="M 609 494 
Q 759 275 1012 169 
Q 1266 63 1556 63 
Q 1928 63 2084 380 
Q 2241 697 2241 1100 
Q 2241 1281 2208 1462 
Q 2175 1644 2097 1800 
Q 2019 1956 1883 2050 
Q 1747 2144 1550 2144 
L 1125 2144 
Q 1069 2144 1069 2203 
L 1069 2259 
Q 1069 2309 1125 2309 
L 1478 2338 
Q 1703 2338 1851 2506 
Q 2000 2675 2069 2917 
Q 2138 3159 2138 3378 
Q 2138 3684 1994 3881 
Q 1850 4078 1556 4078 
Q 1313 4078 1091 3986 
Q 869 3894 738 3706 
Q 750 3709 759 3711 
Q 769 3713 781 3713 
Q 925 3713 1022 3613 
Q 1119 3513 1119 3372 
Q 1119 3234 1022 3134 
Q 925 3034 781 3034 
Q 641 3034 541 3134 
Q 441 3234 441 3372 
Q 441 3647 606 3850 
Q 772 4053 1033 4158 
Q 1294 4263 1556 4263 
Q 1750 4263 1965 4205 
Q 2181 4147 2356 4039 
Q 2531 3931 2642 3762 
Q 2753 3594 2753 3378 
Q 2753 3109 2633 2881 
Q 2513 2653 2303 2487 
Q 2094 2322 1844 2241 
Q 2122 2188 2372 2031 
Q 2622 1875 2773 1631 
Q 2925 1388 2925 1106 
Q 2925 753 2731 467 
Q 2538 181 2222 20 
Q 1906 -141 1556 -141 
Q 1256 -141 954 -26 
Q 653 88 461 316 
Q 269 544 269 863 
Q 269 1022 375 1128 
Q 481 1234 641 1234 
Q 744 1234 830 1186 
Q 916 1138 964 1050 
Q 1013 963 1013 863 
Q 1013 706 903 600 
Q 794 494 641 494 
L 609 494 
z
" transform="scale(0.015625)"/>
     </defs>
     <use xlink:href="#Cmmi10-42" transform="translate(0 0.6875)"/>
     <use xlink:href="#Cmr10-33" transform="translate(75.78125 -16.31875) scale(0.7)"/>
    </g>
   </g>
   <g id="patch_5">
    <path d="M 26.034 24.88 
C 26.750048 24.88 27.436866 24.595511 27.943188 24.089188 
C 28.449511 23.582866 28.734 22.896048 28.734 22.18 
C 28.734 21.463952 28.449511 20.777134 27.943188 20.270812 
C 27.436866 19.764489 26.750048 19.48 26.034 19.48 
C 25.317952 19.48 24.631134 19.764489 24.124812 20.270812 
C 23.618489 20.777134 23.334 21.463952 23.334 22.18 
C 23.334 22.896048 23.618489 23.582866 24.124812 24.089188 
C 24.631134 24.595511 25.317952 24.88 26.034 24.88 
z
" clip-path="url(#p12eba5f560)" style="fill: #008000; stroke: #008000; stroke-width: 2; stroke-linejoin: miter"/>
   </g>
   <g id="text_2">
    <!-- $B_1$ -->
    <g style="fill: #008000" transform="translate(17.774 13.163125) scale(0.14 -0.14)">
     <defs>
      <path id="Cmr10-31" d="M 594 0 
L 594 225 
Q 1394 225 1394 428 
L 1394 3788 
Q 1063 3628 556 3628 
L 556 3853 
Q 1341 3853 1741 4263 
L 1831 4263 
Q 1853 4263 1873 4245 
Q 1894 4228 1894 4206 
L 1894 428 
Q 1894 225 2694 225 
L 2694 0 
L 594 0 
z
" transform="scale(0.015625)"/>
     </defs>
     <use xlink:href="#Cmmi10-42" transform="translate(0 0.6875)"/>
     <use xlink:href="#Cmr10-31" transform="translate(75.78125 -16.31875) scale(0.7)"/>
    </g>
   </g>
   <g id="patch_6">
    <path d="M 26.034 78.88 
C 26.750048 78.88 27.436866 78.595511 27.943188 78.089188 
C 28.449511 77.582866 28.734 76.896048 28.734 76.18 
C 28.734 75.463952 28.449511 74.777134 27.943188 74.270812 
C 27.436866 73.764489 26.750048 73.48 26.034 73.48 
C 25.317952 73.48 24.631134 73.764489 24.124812 74.270812 
C 23.618489 74.777134 23.334 75.463952 23.334 76.18 
C 23.334 76.896048 23.618489 77.582866 24.124812 78.089188 
C 24.631134 78.595511 25.317952 78.88 26.034 78.88 
z
" clip-path="url(#p12eba5f560)" style="fill: #008000; stroke: #008000; stroke-width: 2; stroke-linejoin: miter"/>
   </g>
   <g id="text_3">
    <!-- $B_2$ -->
    <g style="fill: #008000" transform="translate(17.774 92.196875) scale(0.14 -0.14)">
     <defs>
      <path id="Cmr10-32" d="M 319 0 
L 319 172 
Q 319 188 331 206 
L 1325 1306 
Q 1550 1550 1690 1715 
Q 1831 1881 1968 2097 
Q 2106 2313 2186 2536 
Q 2266 2759 2266 3009 
Q 2266 3272 2169 3511 
Q 2072 3750 1880 3894 
Q 1688 4038 1416 4038 
Q 1138 4038 916 3870 
Q 694 3703 603 3438 
Q 628 3444 672 3444 
Q 816 3444 917 3347 
Q 1019 3250 1019 3097 
Q 1019 2950 917 2848 
Q 816 2747 672 2747 
Q 522 2747 420 2851 
Q 319 2956 319 3097 
Q 319 3338 409 3548 
Q 500 3759 670 3923 
Q 841 4088 1055 4175 
Q 1269 4263 1509 4263 
Q 1875 4263 2190 4108 
Q 2506 3953 2690 3670 
Q 2875 3388 2875 3009 
Q 2875 2731 2753 2481 
Q 2631 2231 2440 2026 
Q 2250 1822 1953 1562 
Q 1656 1303 1563 1216 
L 838 519 
L 1453 519 
Q 1906 519 2211 526 
Q 2516 534 2534 550 
Q 2609 631 2688 1141 
L 2875 1141 
L 2694 0 
L 319 0 
z
" transform="scale(0.015625)"/>
     </defs>
     <use xlink:href="#Cmmi10-42" transform="translate(0 0.6875)"/>
     <use xlink:href="#Cmr10-32" transform="translate(75.78125 -16.31875) scale(0.7)"/>
    </g>
   </g>
   <g id="patch_7">
    <path d="M 107.034 51.88 
C 107.750048 51.88 108.436866 51.595511 108.943188 51.089188 
C 109.449511 50.582866 109.734 49.896048 109.734 49.18 
C 109.734 48.463952 109.449511 47.777134 108.943188 47.270812 
C 108.436866 46.764489 107.750048 46.48 107.034 46.48 
C 106.317952 46.48 105.631134 46.764489 105.124812 47.270812 
C 104.618489 47.777134 104.334 48.463952 104.334 49.18 
C 104.334 49.896048 104.618489 50.582866 105.124812 51.089188 
C 105.631134 51.595511 106.317952 51.88 107.034 51.88 
z
" clip-path="url(#p12eba5f560)" style="fill: #ff0000; stroke: #ff0000; stroke-width: 2; stroke-linejoin: miter"/>
   </g>
   <g id="text_4">
    <!-- $A$ -->
    <g style="fill: #ff0000" transform="translate(90.234 52.68) scale(0.14 -0.14)">
     <defs>
      <path id="Cmmi10-41" d="M 288 0 
Q 225 0 225 84 
Q 250 225 306 225 
Q 566 225 755 328 
Q 944 431 1081 647 
Q 1094 659 1094 659 
L 3378 4513 
Q 3428 4581 3500 4581 
L 3584 4581 
Q 3603 4581 3622 4573 
Q 3641 4566 3655 4548 
Q 3669 4531 3669 4513 
L 4056 378 
Q 4056 350 4084 294 
Q 4147 225 4563 225 
Q 4628 225 4628 141 
Q 4606 56 4592 28 
Q 4578 0 4519 0 
L 2919 0 
Q 2859 0 2859 84 
Q 2894 225 2944 225 
Q 3450 225 3481 397 
L 3384 1453 
L 1806 1453 
L 1294 594 
Q 1247 525 1247 434 
Q 1247 322 1355 273 
Q 1463 225 1594 225 
Q 1656 225 1656 141 
Q 1634 50 1621 25 
Q 1609 0 1550 0 
L 288 0 
z
M 1931 1678 
L 3359 1678 
L 3169 3750 
L 1931 1678 
z
" transform="scale(0.015625)"/>
     </defs>
     <use xlink:href="#Cmmi10-41" transform="translate(0 0.421875)"/>
    </g>
   </g>
  </g>
 </g>
 <defs>
  <clipPath id="p12eba5f560">
   <rect x="0" y="0" width="125.214" height="157.76"/>
  </clipPath>
 </defs>
</svg>
