<?xml version="1.0" encoding="utf-8" standalone="no"?>
<!DOCTYPE svg PUBLIC "-//W3C//DTD SVG 1.1//EN"
  "http://www.w3.org/Graphics/SVG/1.1/DTD/svg11.dtd">
<svg xmlns:xlink="http://www.w3.org/1999/xlink" width="117.36pt" height="139.86pt" viewBox="0 0 117.36 139.86" xmlns="http://www.w3.org/2000/svg" version="1.1">
 <metadata>
  <rdf:RDF xmlns:dc="http://purl.org/dc/elements/1.1/" xmlns:cc="http://creativecommons.org/ns#" xmlns:rdf="http://www.w3.org/1999/02/22-rdf-syntax-ns#">
   <cc:Work>
    <dc:type rdf:resource="http://purl.org/dc/dcmitype/StillImage"/>
    <dc:date>2024-11-08T21:56:24.883569</dc:date>
    <dc:format>image/svg+xml</dc:format>
    <dc:creator>
     <cc:Agent>
      <dc:title>Matplotlib v3.9.2, https://matplotlib.org/</dc:title>
     </cc:Agent>
    </dc:creator>
   </cc:Work>
  </rdf:RDF>
 </metadata>
 <defs>
  <style type="text/css">*{stroke-linejoin: round; stroke-linecap: butt}</style>
 </defs>
 <g id="figure_1">
  <g id="patch_1">
   <path d="M 0 139.86 
L 117.36 139.86 
L 117.36 0 
L 0 0 
L 0 139.86 
z
" style="fill: none"/>
  </g>
  <g id="axes_1">
   <g id="line2d_1">
    <path d="M 112.68 121.68 
L 62.055 121.68 
M 55.305 121.68 
L 4.68 121.68 
" clip-path="url(#p1022982ea7)" style="fill: none; stroke: #000000; stroke-width: 2; stroke-linecap: round"/>
   </g>
   <g id="line2d_2">
    <path d="M 62.055 135.18 
L 62.055 108.18 
" clip-path="url(#p1022982ea7)" style="fill: none; stroke: #000000; stroke-width: 2; stroke-linecap: round"/>
   </g>
   <g id="line2d_3">
    <path d="M 55.305 128.43 
L 55.305 114.93 
" clip-path="url(#p1022982ea7)" style="fill: none; stroke: #000000; stroke-width: 2; stroke-linecap: round"/>
   </g>
   <g id="line2d_4">
    <path d="M 4.68 121.68 
L 4.68 94.68 
L 4.68 67.68 
" clip-path="url(#p1022982ea7)" style="fill: none; stroke: #000000; stroke-width: 2; stroke-linecap: round"/>
   </g>
   <g id="line2d_5">
    <path d="M 4.68 67.68 
L 40.68 67.68 
L 40.68 58.68 
L 76.68 58.68 
L 76.68 76.68 
L 40.68 76.68 
L 40.68 67.68 
M 76.68 67.68 
L 112.68 67.68 
" clip-path="url(#p1022982ea7)" style="fill: none; stroke: #000000; stroke-width: 2; stroke-linecap: round"/>
   </g>
   <g id="line2d_6">
    <path d="M 4.68 67.68 
L 4.68 40.68 
L 4.68 13.68 
" clip-path="url(#p1022982ea7)" style="fill: none; stroke: #000000; stroke-width: 2; stroke-linecap: round"/>
   </g>
   <g id="line2d_7">
    <path d="M 4.68 13.68 
L 40.68 13.68 
L 40.68 4.68 
L 76.68 4.68 
L 76.68 22.68 
L 40.68 22.68 
L 40.68 13.68 
M 76.68 13.68 
L 112.68 13.68 
" clip-path="url(#p1022982ea7)" style="fill: none; stroke: #000000; stroke-width: 2; stroke-linecap: round"/>
   </g>
   <g id="line2d_8">
    <path d="M 112.68 13.68 
L 112.68 67.68 
L 112.68 121.68 
" clip-path="url(#p1022982ea7)" style="fill: none; stroke: #000000; stroke-width: 2; stroke-linecap: round"/>
   </g>
  </g>
 </g>
 <defs>
  <clipPath id="p1022982ea7">
   <rect x="0" y="0" width="117.36" height="139.86"/>
  </clipPath>
 </defs>
</svg>
