<?xml version="1.0" encoding="UTF-8" standalone="no"?>
<!-- Created with Inkscape (http://www.inkscape.org/) -->

<svg
   width="210mm"
   height="297mm"
   viewBox="0 0 210 297"
   version="1.1"
   id="svg1"
   inkscape:version="1.3.2 (091e20e, 2023-11-25, custom)"
   sodipodi:docname="kofot.svg"
   xml:space="preserve"
   xmlns:inkscape="http://www.inkscape.org/namespaces/inkscape"
   xmlns:sodipodi="http://sodipodi.sourceforge.net/DTD/sodipodi-0.dtd"
   xmlns="http://www.w3.org/2000/svg"
   xmlns:svg="http://www.w3.org/2000/svg"><sodipodi:namedview
     id="namedview1"
     pagecolor="#505050"
     bordercolor="#eeeeee"
     borderopacity="1"
     inkscape:showpageshadow="0"
     inkscape:pageopacity="0"
     inkscape:pagecheckerboard="0"
     inkscape:deskcolor="#505050"
     inkscape:document-units="mm"
     showborder="false"
     inkscape:zoom="1.4627806"
     inkscape:cx="150.3985"
     inkscape:cy="318.22955"
     inkscape:window-width="1920"
     inkscape:window-height="1017"
     inkscape:window-x="-8"
     inkscape:window-y="-8"
     inkscape:window-maximized="1"
     inkscape:current-layer="svg1" /><defs
     id="defs1"><rect
       x="130.03435"
       y="222.84697"
       width="82.06889"
       height="25.062149"
       id="rect11" /><marker
       style="overflow:visible"
       id="marker11"
       refX="0"
       refY="0"
       orient="auto"
       inkscape:stockid="Stop"
       markerWidth="1"
       markerHeight="1"
       viewBox="0 0 1 1"
       inkscape:isstock="true"
       inkscape:collect="always"
       preserveAspectRatio="xMidYMid"><path
         style="fill:none;stroke:context-stroke;stroke-width:1"
         d="M 0,4 V -4"
         id="path11" /></marker><marker
       style="overflow:visible"
       id="Stop"
       refX="0"
       refY="0"
       orient="auto"
       inkscape:stockid="Stop"
       markerWidth="1"
       markerHeight="1"
       viewBox="0 0 1 1"
       inkscape:isstock="true"
       inkscape:collect="always"
       preserveAspectRatio="xMidYMid"><path
         style="fill:none;stroke:context-stroke;stroke-width:1"
         d="M 0,4 V -4"
         id="path23" /></marker><inkscape:path-effect
       effect="skeletal"
       id="path-effect10"
       is_visible="true"
       lpeversion="1"
       pattern="M 0,18.867925 C 0,8.4528305 8.4528305,0 18.867925,0 29.28302,0 37.735851,8.4528305 37.735851,18.867925 c 0,10.415095 -8.452831,18.867926 -18.867926,18.867926 C 8.4528305,37.735851 0,29.28302 0,18.867925 Z"
       copytype="single_stretched"
       prop_scale="1"
       scale_y_rel="false"
       spacing="0"
       normal_offset="0"
       tang_offset="0"
       prop_units="false"
       vertical_pattern="false"
       hide_knot="false"
       fuse_tolerance="0" /><inkscape:path-effect
       effect="skeletal"
       id="path-effect8"
       is_visible="true"
       lpeversion="1"
       pattern="M 0,18.867925 C 0,8.4528305 8.4528305,0 18.867925,0 29.28302,0 37.735851,8.4528305 37.735851,18.867925 c 0,10.415095 -8.452831,18.867926 -18.867926,18.867926 C 8.4528305,37.735851 0,29.28302 0,18.867925 Z"
       copytype="single_stretched"
       prop_scale="1"
       scale_y_rel="false"
       spacing="0"
       normal_offset="0"
       tang_offset="0"
       prop_units="false"
       vertical_pattern="false"
       hide_knot="false"
       fuse_tolerance="0" /><inkscape:path-effect
       effect="skeletal"
       id="path-effect7"
       is_visible="true"
       lpeversion="1"
       pattern="M 0,18.867925 C 0,8.4528305 8.4528305,0 18.867925,0 29.28302,0 37.735851,8.4528305 37.735851,18.867925 c 0,10.415095 -8.452831,18.867926 -18.867926,18.867926 C 8.4528305,37.735851 0,29.28302 0,18.867925 Z"
       copytype="single_stretched"
       prop_scale="1"
       scale_y_rel="false"
       spacing="0"
       normal_offset="0"
       tang_offset="0"
       prop_units="false"
       vertical_pattern="false"
       hide_knot="false"
       fuse_tolerance="0" /><inkscape:path-effect
       effect="spiro"
       id="path-effect6"
       is_visible="true"
       lpeversion="1" /><inkscape:path-effect
       effect="skeletal"
       id="path-effect8-1"
       is_visible="true"
       lpeversion="1"
       pattern="M 0,18.867925 C 0,8.4528305 8.4528305,0 18.867925,0 29.28302,0 37.735851,8.4528305 37.735851,18.867925 c 0,10.415095 -8.452831,18.867926 -18.867926,18.867926 C 8.4528305,37.735851 0,29.28302 0,18.867925 Z"
       copytype="single_stretched"
       prop_scale="1"
       scale_y_rel="false"
       spacing="0"
       normal_offset="0"
       tang_offset="0"
       prop_units="false"
       vertical_pattern="false"
       hide_knot="false"
       fuse_tolerance="0" /><inkscape:path-effect
       effect="skeletal"
       id="path-effect10-3"
       is_visible="true"
       lpeversion="1"
       pattern="M 0,18.867925 C 0,8.4528305 8.4528305,0 18.867925,0 29.28302,0 37.735851,8.4528305 37.735851,18.867925 c 0,10.415095 -8.452831,18.867926 -18.867926,18.867926 C 8.4528305,37.735851 0,29.28302 0,18.867925 Z"
       copytype="single_stretched"
       prop_scale="1"
       scale_y_rel="false"
       spacing="0"
       normal_offset="0"
       tang_offset="0"
       prop_units="false"
       vertical_pattern="false"
       hide_knot="false"
       fuse_tolerance="0" /><inkscape:path-effect
       effect="skeletal"
       id="path-effect10-8"
       is_visible="true"
       lpeversion="1"
       pattern="M 0,18.867925 C 0,8.4528305 8.4528305,0 18.867925,0 29.28302,0 37.735851,8.4528305 37.735851,18.867925 c 0,10.415095 -8.452831,18.867926 -18.867926,18.867926 C 8.4528305,37.735851 0,29.28302 0,18.867925 Z"
       copytype="single_stretched"
       prop_scale="1"
       scale_y_rel="false"
       spacing="0"
       normal_offset="0"
       tang_offset="0"
       prop_units="false"
       vertical_pattern="false"
       hide_knot="false"
       fuse_tolerance="0" /><inkscape:path-effect
       effect="skeletal"
       id="path-effect10-3-2"
       is_visible="true"
       lpeversion="1"
       pattern="M 0,18.867925 C 0,8.4528305 8.4528305,0 18.867925,0 29.28302,0 37.735851,8.4528305 37.735851,18.867925 c 0,10.415095 -8.452831,18.867926 -18.867926,18.867926 C 8.4528305,37.735851 0,29.28302 0,18.867925 Z"
       copytype="single_stretched"
       prop_scale="1"
       scale_y_rel="false"
       spacing="0"
       normal_offset="0"
       tang_offset="0"
       prop_units="false"
       vertical_pattern="false"
       hide_knot="false"
       fuse_tolerance="0" /><inkscape:path-effect
       effect="skeletal"
       id="path-effect8-6"
       is_visible="true"
       lpeversion="1"
       pattern="M 0,18.867925 C 0,8.4528305 8.4528305,0 18.867925,0 29.28302,0 37.735851,8.4528305 37.735851,18.867925 c 0,10.415095 -8.452831,18.867926 -18.867926,18.867926 C 8.4528305,37.735851 0,29.28302 0,18.867925 Z"
       copytype="single_stretched"
       prop_scale="1"
       scale_y_rel="false"
       spacing="0"
       normal_offset="0"
       tang_offset="0"
       prop_units="false"
       vertical_pattern="false"
       hide_knot="false"
       fuse_tolerance="0" /><inkscape:path-effect
       effect="skeletal"
       id="path-effect8-1-5"
       is_visible="true"
       lpeversion="1"
       pattern="M 0,18.867925 C 0,8.4528305 8.4528305,0 18.867925,0 29.28302,0 37.735851,8.4528305 37.735851,18.867925 c 0,10.415095 -8.452831,18.867926 -18.867926,18.867926 C 8.4528305,37.735851 0,29.28302 0,18.867925 Z"
       copytype="single_stretched"
       prop_scale="1"
       scale_y_rel="false"
       spacing="0"
       normal_offset="0"
       tang_offset="0"
       prop_units="false"
       vertical_pattern="false"
       hide_knot="false"
       fuse_tolerance="0" /></defs><g
     inkscape:label="pelle"
     id="layer1-2"
     transform="matrix(0.24995716,0,0,0.26458333,-180.79165,-20.75907)"
     style="stroke-width:2.0576829;stroke-dasharray:none"><path
       style="fill:#999999;fill-opacity:1;stroke:#000000;stroke-width:1.97324434;stroke-dasharray:none;stroke-opacity:1"
       d="m 561.25982,596.09455 c 6.5,6.88823 -9.32397,30.20727 -33.04401,52.52035 0,0 0,0 0,0 0.42206,5.79649 0.73999,11.76209 0.92359,17.82374 0.67139,22.16625 -0.59898,41.47212 -3.60602,56.11046 -2.96053,14.41193 -7.61254,23.93629 -12.83738,23.93629 -5.25434,0 -9.84734,-9.6653 -12.83738,-26.26526 -3.00325,-16.67331 -4.2812,-39.60202 -3.60602,-65.02438 0.18364,-6.91463 0.50149,-13.61258 0.92359,-19.96821 0,0 10e-6,-10e-6 10e-6,-10e-6 31.85453,-30.13352 57.58577,-46.01893 64.08362,-39.13298 z"
       id="path10"
       inkscape:path-effect="#path-effect10"
       inkscape:original-d="M 561.25982,596.09455 512.696,641.92122 v 104.56416"
       transform="matrix(-0.97244576,0,0,1.1182265,1305.8054,-25.748793)" /><path
       style="fill:#999999;fill-opacity:1;stroke:#000000;stroke-width:1.97324434;stroke-dasharray:none;stroke-opacity:1"
       d="m 537.35781,593.54557 c 8.42719,-1.17235 18.2225,21.03115 24.89101,55.40958 0,0 0,10e-6 0,10e-6 -1.84413,7.79314 -4.13529,16.13525 -6.84829,24.74887 -13.88242,44.07602 -32.64719,76.04612 -42.70453,72.78136 -10.0698,-3.26881 -6.87905,-38.84945 6.24771,-78.01959 2.65044,-7.90889 5.52741,-15.48746 8.51349,-22.5742 0,0 0,0 0,0 -2.10164,-28.17992 1.5395,-51.18288 9.90061,-52.34603 z"
       id="path10-6"
       inkscape:path-effect="#path-effect10-3"
       inkscape:original-d="m 537.35781,593.54557 7.4952,53.87781 -32.15701,99.062"
       transform="matrix(0.97244576,0,0,1.1182265,211.36199,-25.748793)"
       sodipodi:nodetypes="ccc" /><path
       style="fill:#999999;fill-opacity:1;stroke:#000000;stroke-width:3.42909008;stroke-dasharray:none;stroke-opacity:1"
       d="m 563.6146,424.40274 c -0.0464,-0.0966 -0.0876,-0.19542 -0.12374,-0.2964 -0.0353,-0.0985 -0.0658,-0.19916 -0.0916,-0.30179 0,0 0,0 0,0 -0.0514,-0.20448 -0.0843,-0.41777 -0.0986,-0.63844 0,0 0,0 0,0 l 0,0 c -0.029,-0.4383 0.0134,-0.91066 0.12595,-1.4115 l 0,0 c 0.22251,-0.99014 0.71591,-2.10738 1.45957,-3.33538 l 0,0 c 1.44829,-2.39177 3.85271,-5.24414 7.02951,-8.49606 l 0,0 c 6.07573,-6.22095 14.50334,-13.4923 24.67969,-22.55336 l 0,0 c 8.53046,-7.6239 18.77498,-16.81404 27.50632,-26.63263 l 0,0 c 3.81044,-4.28942 7.46529,-8.73382 10.50243,-13.31394 1.18859,-1.81825 2.3087,-3.62768 3.3066,-5.41492 1.27021,-2.27493 2.31873,-4.47133 3.08799,-6.61486 0.87526,-1.99264 1.3359,-4.97537 1.84738,-8.48792 0.54378,-4.29191 0.6996,-8.93467 0.7511,-13.61226 0.13747,-11.11118 -0.64844,-23.27396 -1.14983,-32.89803 -2.66481,-25.62402 -1.52847,-43.13357 4.08644,-44.691 0,0 0,0 0,0 0,0 0,0 0,0 0,0 1e-5,0 1e-5,0 0,0 0,0 0,0 0,0 0,0 0,0 0,0 0,0 0,0 0,0 0,0 0,0 0,0 0,0 0,0 0.0126,-0.003 0.0271,-0.007 0.0145,-0.004 -0.0126,0.003 0.002,-5.1e-4 0.0145,-0.004 0,0 0,-1e-5 0,-1e-5 0,0 0,0 0,0 0,0 10e-6,0 10e-6,0 0,0 0,0 0,0 0,0 0,0 0,0 0,0 0,0 0,0 0,0 0,0 0,0 0,0 10e-6,0 10e-6,0 5.64336,-1.50594 14.60266,13.36986 24.26946,38.5226 3.37368,10.21492 6.62603,22.88839 8.21993,37.06973 0.63742,5.66921 0.96378,11.89539 0.63632,18.55176 -0.18834,5.27894 -1.06784,11.37927 -3.22687,18.02092 -1.51209,4.34541 -3.36165,8.46924 -5.4859,12.35761 -1.6711,3.05889 -3.48158,5.91609 -5.37861,8.57309 -4.77215,6.74572 -10.02117,12.56397 -15.30678,17.56979 l 0,0 c -12.22125,11.57759 -25.13376,20.0292 -36.38781,26.04859 l 0,0 c -13.01218,6.99629 -24.65965,11.2744 -33.29101,13.2528 l 0,0 c -4.65391,1.06795 -8.49742,1.48998 -11.37537,1.29386 l 0,0 c -1.47601,-0.10063 -2.69276,-0.35971 -3.63491,-0.78108 l 0,0 c -0.47626,-0.21302 -0.88015,-0.46466 -1.21144,-0.75857 l 0,0 c 0,0 0,0 0,0 -0.1661,-0.14774 -0.31332,-0.305 -0.44203,-0.47291 0,0 0,0 0,0 -0.0645,-0.0841 -0.12417,-0.17071 -0.17913,-0.25987 -0.0563,-0.0914 -0.10766,-0.18534 -0.15402,-0.28193 z"
       id="path7-3"
       inkscape:path-effect="#path-effect8-1"
       inkscape:original-d="m 563.61459,424.40274 c 0,0 79.28656,-37.75232 95.11554,-82.77533 10.66081,-30.32298 -12.18188,-105.92712 -12.18188,-105.92712"
       sodipodi:nodetypes="csc"
       transform="matrix(0,-0.60006674,-0.60006674,0,1040.5105,930.49054)" /><ellipse
       style="fill:#999999;fill-opacity:1;stroke:#000000;stroke-width:2.0576829;stroke-dasharray:none;stroke-opacity:1"
       id="path2"
       cx="-759.52496"
       cy="567.03754"
       rx="69.073502"
       ry="114.72363"
       transform="scale(-1,1)" /><circle
       style="fill:#999999;fill-opacity:1;stroke:#000000;stroke-width:2.0576829;stroke-dasharray:none;stroke-opacity:1"
       id="path3"
       cx="-761.38531"
       cy="-429.36923"
       r="62.012772"
       transform="scale(-1)" /><g
       id="g9"
       style="fill:#ffffff;fill-opacity:1;stroke:#000000;stroke-opacity:1;stroke-width:2.0576829;stroke-dasharray:none"
       inkscape:label="kofot"
       transform="rotate(-20.401395,886.04421,499.96775)"><rect
         style="fill:#ffffff;fill-opacity:1;stroke:#000000;stroke-width:2.0576829;stroke-linecap:square;stroke-miterlimit:3.3;stroke-dasharray:none;stroke-dashoffset:0;stroke-opacity:1"
         id="rect1"
         width="162.41278"
         height="9.7937679"
         x="866.78326"
         y="538.0022"
         ry="1.6288307"
         inkscape:transform-center-x="-18.175355"
         inkscape:transform-center-y="0.40631842"
         inkscape:label="rect11" /><rect
         style="fill:#ffffff;fill-opacity:1;stroke:#000000;stroke-width:2.0576829;stroke-linecap:square;stroke-miterlimit:3.3;stroke-dasharray:none;stroke-dashoffset:0;stroke-opacity:1"
         id="rect9"
         width="10.420298"
         height="32.442173"
         x="932.85315"
         y="675.82263"
         ry="2.0508885"
         transform="rotate(-8.03865,-3.3616267e-4,1.9351911e-4)"
         inkscape:transform-center-x="-1.3513057"
         inkscape:transform-center-y="2.7775738" /></g><path
       style="fill:#999999;fill-opacity:1;stroke:#000000;stroke-width:3.42909006;stroke-dasharray:none;stroke-opacity:1"
       d="m 609.76614,437.48777 c 0.096,-0.0402 0.18969,-0.0853 0.28125,-0.13517 0.0892,-0.0485 0.17632,-0.10162 0.26139,-0.15916 0,0 0,0 0,0 0.16959,-0.11471 0.33128,-0.24738 0.4847,-0.39749 0,0 0,-1e-5 0,-1e-5 l 0,0 c 0.30513,-0.29824 0.57951,-0.66637 0.82227,-1.10154 l 0,0 c 0.47987,-0.86021 0.84137,-1.98613 1.08834,-3.36082 l 0,0 c 0.48117,-2.67795 0.53628,-6.31281 0.21905,-10.79044 l 0,0 c -0.59631,-8.41776 -2.48436,-19.68737 -5.19066,-33.36678 l 0,0 c -2.91512,-14.74566 -5.35573,-25.73894 -8.27085,-40.4846 l 0,0 c 0,-10e-6 0,-10e-6 0,-10e-6 -2.26239,-11.67878 -4.72524,-24.57376 -5.66405,-36.66628 l 0,0 c -0.0632,-0.64632 0.21595,-2.00804 0.50979,-4.10545 l 0,0 c 0.4234,-2.44493 1.2266,-5.20069 2.22834,-8.35897 1.91829,-6.00168 4.54435,-12.16809 7.62183,-18.78802 0.85556,-1.84038 1.73762,-3.69804 2.63215,-5.56461 4.92502,-10.16522 10.38309,-20.25895 15.71736,-29.90332 l 0,0 c 6.07631,-10.97326 12.39292,-21.9732 18.06774,-31.88814 l 0,0 c 13.27532,-23.18948 24.2049,-42.48154 31.58305,-57.87925 l 0,0 c 3.92756,-8.19637 6.71044,-15.02078 8.08828,-20.17719 l 0,0 c 0.70879,-2.65246 1.04593,-4.87074 0.98048,-6.61035 l 0,0 c -0.0331,-0.88042 -0.17039,-1.64025 -0.41436,-2.27255 l 0,0 c 0,0 0,-1e-5 0,-1e-5 -0.43277,-0.56548 -0.66203,-0.91342 -0.8035,-1.13869 0,0 0,0 0,0 l 0,0 c -0.14762,-0.17399 -0.21545,-0.2705 -0.24624,-0.32358 -0.0154,-0.0265 -0.0215,-0.0422 -0.0237,-0.0512 0.002,-0.009 -0.003,-0.0139 -4.6e-4,-0.0115 0.003,0.002 -0.003,-0.002 -0.006,-0.005 -0.0147,0.007 -0.0313,0.004 -0.0607,-0.005 -0.0586,-0.0181 -0.16793,-0.0627 -0.37056,-0.16756 l 0,0 c 0,0 0,0 0,0 -0.25059,-0.0864 -0.64447,-0.23107 -1.29261,-0.52338 0,0 0,0 0,0 l 0,0 c -0.67424,-0.0917 -1.44762,-0.0457 -2.31707,0.13312 l 0,0 c -1.71885,0.35355 -3.80526,1.22855 -6.22403,2.59692 l 0,0 c -4.70487,2.66174 -10.64771,7.18651 -17.52591,13.3873 l 0,0 c -12.58968,11.34707 -28.65194,28.62584 -45.33629,50.3791 l 0,0 c -7.34755,9.57903 -14.92807,20.19312 -22.3062,31.67977 l 0,0 c -6.40375,9.95715 -12.80741,20.83151 -18.64526,32.53974 -1.05414,2.09383 -2.09879,4.24133 -3.12301,6.44218 -3.67778,7.90276 -6.947,16.18347 -9.50871,24.96047 -1.37735,4.68997 -2.50657,9.78375 -3.20266,15.2723 l 0,0 c -0.64685,4.56975 -0.73949,9.87706 -0.002,15.76777 l 0,0 c 2.46971,15.68384 6.75946,29.89172 11.08763,41.96406 0,0 0,10e-6 0,10e-6 l 0,0 c 5.46931,15.40216 11.57708,29.0387 17.27607,40.15248 l 0,0 c 6.56501,12.81198 12.87276,22.85134 18.18636,29.52142 l 0,0 c 2.85158,3.57978 5.43165,6.21337 7.66724,7.82416 l 0,0 c 1.14701,0.82641 2.19999,1.38313 3.1527,1.65871 l 0,0 c 0.48183,0.13937 0.93648,0.20712 1.36455,0.20124 l 0,0 c 0,0 0,0 0,0 0.21509,-0.003 0.42296,-0.0245 0.62401,-0.0647 0,0 0,0 0,0 0.10076,-0.0202 0.19972,-0.045 0.2969,-0.0745 0.0998,-0.0303 0.19762,-0.0656 0.29358,-0.10587 z"
       id="path7"
       inkscape:path-effect="#path-effect8"
       inkscape:original-d="m 609.76614,437.48778 c 0,0 -32.1583,-76.39894 -37.9588,-123.76963 -5.80049,-47.37069 107.931,-189.76549 107.931,-189.76549"
       sodipodi:nodetypes="csc"
       transform="matrix(0.20439703,-0.56418255,-0.56418255,-0.20439703,835.83817,953.76432)"
       inkscape:transform-center-x="-16.93506"
       inkscape:transform-center-y="-6.1968708" /></g><g
     id="g5"
     inkscape:label="dörr"
     transform="translate(9.3014276,-3.4490844)"
     style="stroke-width:0.52916667;stroke-dasharray:none"><rect
       style="fill:#dddddd;fill-opacity:1;stroke:#000000;stroke-width:2.00000003;stroke-linecap:square;stroke-miterlimit:3.3;stroke-dasharray:none;stroke-dashoffset:0;stroke-opacity:1"
       id="rect2"
       width="283.27185"
       height="556.87573"
       x="999.3371"
       y="253.18756"
       ry="2.0508885"
       transform="matrix(0.26458333,0,0,0.26458333,-196.10969,-20.75907)" /><g
       id="g8"
       inkscape:label="handtag"
       style="stroke-width:0.52916667;stroke-dasharray:none"><circle
         style="fill:#bdbdbd;fill-opacity:1;stroke:#000000;stroke-width:0.52916667;stroke-linecap:square;stroke-miterlimit:3.3;stroke-dasharray:none;stroke-dashoffset:0;stroke-opacity:1"
         id="path6"
         cx="76.691833"
         cy="124.99963"
         r="4.8601751" /><ellipse
         style="fill:#bdbdbd;fill-opacity:1;stroke:#000000;stroke-width:0.52916667;stroke-linecap:square;stroke-miterlimit:3.3;stroke-dasharray:none;stroke-dashoffset:0;stroke-opacity:1"
         id="path5"
         cx="85.715546"
         cy="122.88297"
         rx="12.326719"
         ry="2.4222126" /><ellipse
         style="fill:#000000;fill-opacity:1;stroke:#000000;stroke-width:0.52916667;stroke-linecap:square;stroke-miterlimit:3.3;stroke-dasharray:none;stroke-dashoffset:0;stroke-opacity:1"
         id="path8"
         cx="76.691833"
         cy="127.03442"
         rx="0.55955964"
         ry="1.1670815" /></g></g><path
     style="fill:none;fill-opacity:1;stroke:#000000;stroke-width:0.52916673;stroke-linecap:square;stroke-miterlimit:3.3;stroke-dasharray:2.11666692,4.23333384;stroke-dashoffset:0;stroke-opacity:1;marker-end:url(#Stop);marker-start:url(#marker11)"
     d="M 37.793124,118.65525 75.842903,103.67553"
     id="path9" /><text
     xml:space="preserve"
     style="font-style:normal;font-variant:normal;font-weight:normal;font-stretch:normal;font-size:8.46667px;font-family:'Open Sans';-inkscape-font-specification:'Open Sans';font-variant-caps:small-caps;text-align:center;writing-mode:lr-tb;text-anchor:middle;fill:#000000;fill-opacity:1;stroke:none;stroke-width:0.529167;stroke-linecap:square;stroke-miterlimit:3.3;stroke-dasharray:none;stroke-dashoffset:0;stroke-opacity:1"
     x="12.546978"
     y="119.50197"
     id="text11"
     transform="rotate(-21.093385)"><tspan
       sodipodi:role="line"
       id="tspan11"
       style="font-size:8.46667px;stroke-width:0.529167"
       x="12.546978"
       y="119.50197">65 cm</tspan></text></svg>
