<?xml version="1.0" encoding="UTF-8" standalone="no"?>
<!-- Created with Inkscape (http://www.inkscape.org/) -->

<svg
   width="404.21555mm"
   height="181.70308mm"
   viewBox="0 0 404.21555 181.70309"
   version="1.1"
   id="svg1"
   inkscape:version="1.4 (unknown)"
   sodipodi:docname="ex_gungbrada.svg"
   xml:space="preserve"
   xmlns:inkscape="http://www.inkscape.org/namespaces/inkscape"
   xmlns:sodipodi="http://sodipodi.sourceforge.net/DTD/sodipodi-0.dtd"
   xmlns="http://www.w3.org/2000/svg"
   xmlns:svg="http://www.w3.org/2000/svg"
   xmlns:ns4="http://www.iki.fi/pav/software/textext/"><sodipodi:namedview
     id="namedview1"
     pagecolor="#6a6a6a"
     bordercolor="#eeeeee"
     borderopacity="1"
     inkscape:showpageshadow="false"
     inkscape:pageopacity="0"
     inkscape:pagecheckerboard="0"
     inkscape:deskcolor="#6a6a6a"
     inkscape:document-units="mm"
     inkscape:zoom="0.70710678"
     inkscape:cx="696.50018"
     inkscape:cy="363.45289"
     inkscape:window-width="2560"
     inkscape:window-height="1403"
     inkscape:window-x="0"
     inkscape:window-y="0"
     inkscape:window-maximized="1"
     inkscape:current-layer="svg1"
     showborder="true"
     borderlayer="false" /><defs
     id="defs1"><marker
       style="overflow:visible"
       id="Triangle"
       refX="0"
       refY="0"
       orient="auto-start-reverse"
       inkscape:stockid="Triangle arrow"
       markerWidth="1"
       markerHeight="1"
       viewBox="0 0 1 1"
       inkscape:isstock="true"
       inkscape:collect="always"
       preserveAspectRatio="xMidYMid"><path
         transform="scale(0.5)"
         style="fill:context-stroke;fill-rule:evenodd;stroke:context-stroke;stroke-width:1pt"
         d="M 5.77,0 -2.88,5 V -5 Z"
         id="path135" /></marker><marker
       style="overflow:visible"
       id="Stop"
       refX="0"
       refY="0"
       orient="auto"
       inkscape:stockid="Stop"
       markerWidth="1"
       markerHeight="1"
       viewBox="0 0 1 1"
       inkscape:isstock="true"
       inkscape:collect="always"
       preserveAspectRatio="xMidYMid"><path
         style="fill:none;stroke:context-stroke;stroke-width:1"
         d="M 0,4 V -4"
         id="path23" /></marker><inkscape:path-effect
       effect="skeletal"
       id="path-effect10"
       is_visible="true"
       lpeversion="1"
       pattern="M 0,18.867925 C 0,8.4528305 8.4528305,0 18.867925,0 29.28302,0 37.735851,8.4528305 37.735851,18.867925 c 0,10.415095 -8.452831,18.867926 -18.867926,18.867926 C 8.4528305,37.735851 0,29.28302 0,18.867925 Z"
       copytype="single_stretched"
       prop_scale="1"
       scale_y_rel="false"
       spacing="0"
       normal_offset="0"
       tang_offset="0"
       prop_units="false"
       vertical_pattern="false"
       hide_knot="false"
       fuse_tolerance="0" /><inkscape:path-effect
       effect="skeletal"
       id="path-effect8"
       is_visible="true"
       lpeversion="1"
       pattern="M 0,18.867925 C 0,8.4528305 8.4528305,0 18.867925,0 29.28302,0 37.735851,8.4528305 37.735851,18.867925 c 0,10.415095 -8.452831,18.867926 -18.867926,18.867926 C 8.4528305,37.735851 0,29.28302 0,18.867925 Z"
       copytype="single_stretched"
       prop_scale="1"
       scale_y_rel="false"
       spacing="0"
       normal_offset="0"
       tang_offset="0"
       prop_units="false"
       vertical_pattern="false"
       hide_knot="false"
       fuse_tolerance="0" /><inkscape:path-effect
       effect="skeletal"
       id="path-effect7"
       is_visible="true"
       lpeversion="1"
       pattern="M 0,18.867925 C 0,8.4528305 8.4528305,0 18.867925,0 29.28302,0 37.735851,8.4528305 37.735851,18.867925 c 0,10.415095 -8.452831,18.867926 -18.867926,18.867926 C 8.4528305,37.735851 0,29.28302 0,18.867925 Z"
       copytype="single_stretched"
       prop_scale="1"
       scale_y_rel="false"
       spacing="0"
       normal_offset="0"
       tang_offset="0"
       prop_units="false"
       vertical_pattern="false"
       hide_knot="false"
       fuse_tolerance="0" /><inkscape:path-effect
       effect="spiro"
       id="path-effect6"
       is_visible="true"
       lpeversion="1" /><inkscape:path-effect
       effect="skeletal"
       id="path-effect8-1"
       is_visible="true"
       lpeversion="1"
       pattern="M 0,18.867925 C 0,8.4528305 8.4528305,0 18.867925,0 29.28302,0 37.735851,8.4528305 37.735851,18.867925 c 0,10.415095 -8.452831,18.867926 -18.867926,18.867926 C 8.4528305,37.735851 0,29.28302 0,18.867925 Z"
       copytype="single_stretched"
       prop_scale="1"
       scale_y_rel="false"
       spacing="0"
       normal_offset="0"
       tang_offset="0"
       prop_units="false"
       vertical_pattern="false"
       hide_knot="false"
       fuse_tolerance="0" /><inkscape:path-effect
       effect="skeletal"
       id="path-effect10-3"
       is_visible="true"
       lpeversion="1"
       pattern="M 0,18.867925 C 0,8.4528305 8.4528305,0 18.867925,0 29.28302,0 37.735851,8.4528305 37.735851,18.867925 c 0,10.415095 -8.452831,18.867926 -18.867926,18.867926 C 8.4528305,37.735851 0,29.28302 0,18.867925 Z"
       copytype="single_stretched"
       prop_scale="1"
       scale_y_rel="false"
       spacing="0"
       normal_offset="0"
       tang_offset="0"
       prop_units="false"
       vertical_pattern="false"
       hide_knot="false"
       fuse_tolerance="0" /><inkscape:path-effect
       effect="skeletal"
       id="path-effect10-8"
       is_visible="true"
       lpeversion="1"
       pattern="M 0,18.867925 C 0,8.4528305 8.4528305,0 18.867925,0 29.28302,0 37.735851,8.4528305 37.735851,18.867925 c 0,10.415095 -8.452831,18.867926 -18.867926,18.867926 C 8.4528305,37.735851 0,29.28302 0,18.867925 Z"
       copytype="single_stretched"
       prop_scale="1"
       scale_y_rel="false"
       spacing="0"
       normal_offset="0"
       tang_offset="0"
       prop_units="false"
       vertical_pattern="false"
       hide_knot="false"
       fuse_tolerance="0" /><inkscape:path-effect
       effect="skeletal"
       id="path-effect10-3-2"
       is_visible="true"
       lpeversion="1"
       pattern="M 0,18.867925 C 0,8.4528305 8.4528305,0 18.867925,0 29.28302,0 37.735851,8.4528305 37.735851,18.867925 c 0,10.415095 -8.452831,18.867926 -18.867926,18.867926 C 8.4528305,37.735851 0,29.28302 0,18.867925 Z"
       copytype="single_stretched"
       prop_scale="1"
       scale_y_rel="false"
       spacing="0"
       normal_offset="0"
       tang_offset="0"
       prop_units="false"
       vertical_pattern="false"
       hide_knot="false"
       fuse_tolerance="0" /><inkscape:path-effect
       effect="skeletal"
       id="path-effect8-6"
       is_visible="true"
       lpeversion="1"
       pattern="M 0,18.867925 C 0,8.4528305 8.4528305,0 18.867925,0 29.28302,0 37.735851,8.4528305 37.735851,18.867925 c 0,10.415095 -8.452831,18.867926 -18.867926,18.867926 C 8.4528305,37.735851 0,29.28302 0,18.867925 Z"
       copytype="single_stretched"
       prop_scale="1"
       scale_y_rel="false"
       spacing="0"
       normal_offset="0"
       tang_offset="0"
       prop_units="false"
       vertical_pattern="false"
       hide_knot="false"
       fuse_tolerance="0" /><inkscape:path-effect
       effect="skeletal"
       id="path-effect8-1-5"
       is_visible="true"
       lpeversion="1"
       pattern="M 0,18.867925 C 0,8.4528305 8.4528305,0 18.867925,0 29.28302,0 37.735851,8.4528305 37.735851,18.867925 c 0,10.415095 -8.452831,18.867926 -18.867926,18.867926 C 8.4528305,37.735851 0,29.28302 0,18.867925 Z"
       copytype="single_stretched"
       prop_scale="1"
       scale_y_rel="false"
       spacing="0"
       normal_offset="0"
       tang_offset="0"
       prop_units="false"
       vertical_pattern="false"
       hide_knot="false"
       fuse_tolerance="0" /><marker
       style="overflow:visible"
       id="Stop-1"
       refX="0"
       refY="0"
       orient="auto"
       inkscape:stockid="Stop"
       markerWidth="1"
       markerHeight="1"
       viewBox="0 0 1 1"
       inkscape:isstock="true"
       inkscape:collect="always"
       preserveAspectRatio="xMidYMid"><path
         style="fill:none;stroke:context-stroke;stroke-width:1"
         d="M 0,4 V -4"
         id="path23-7" /></marker></defs><path
     sodipodi:type="star"
     style="fill:#ffffff;fill-opacity:1;stroke:#000000;stroke-width:0.743245;stroke-linecap:square;stroke-miterlimit:3.6;stroke-dasharray:none;stroke-dashoffset:0;stroke-opacity:1"
     id="path5"
     inkscape:flatsided="true"
     sodipodi:sides="3"
     sodipodi:cx="112.2532"
     sodipodi:cy="237.97678"
     sodipodi:r1="20.250566"
     sodipodi:r2="10.125283"
     sodipodi:arg1="0.52359878"
     sodipodi:arg2="1.5707963"
     inkscape:rounded="0"
     inkscape:randomized="0"
     d="m 129.7907,248.10206 -35.075008,0 17.537508,-30.37585 z"
     inkscape:transform-center-x="1.0948211e-06"
     inkscape:transform-center-y="-3.604438"
     transform="matrix(0.7119676,0,0,0.7119676,92.506145,-65.14491)" /><path
     style="fill:#f8f8f8;fill-opacity:1;stroke:#050505;stroke-width:1.31974;stroke-linecap:square;stroke-miterlimit:3.6;stroke-dasharray:2.63948, 5.27895;stroke-dashoffset:0;stroke-opacity:1;marker-start:url(#Stop);marker-end:url(#Stop)"
     d="m 172.04635,119.03145 172.52206,0.63342"
     id="path4" /><path
     style="fill:#f8f8f8;fill-opacity:1;stroke:#050505;stroke-width:1.01585;stroke-linecap:square;stroke-miterlimit:3.6;stroke-dasharray:2.0317, 4.0634;stroke-dashoffset:0;stroke-opacity:1;marker-start:url(#Stop-1);marker-end:url(#Stop-1)"
     d="m 79.11443,118.36059 93.12654,0.7083"
     id="path4-6" /><rect
     style="fill:#ffffff;fill-opacity:1;stroke:#000000;stroke-width:0.529167;stroke-linecap:square;stroke-miterlimit:3.6;stroke-dasharray:none;stroke-dashoffset:9.00057"
     id="rect1"
     width="344.3244"
     height="8.066184"
     x="0.2645835"
     y="81.964912" /><g
     inkscape:label="pelle"
     id="layer1-2"
     transform="matrix(0.26458333,0,0,0.26458333,-121.8872,-96.931812)"
     style="stroke-width:2;stroke-dasharray:none"><path
       style="fill:#999999;fill-opacity:1;stroke:#000000;stroke-width:1.91793;stroke-dasharray:none;stroke-opacity:1"
       d="m 561.25982,596.09455 c 6.5,6.88823 -9.32397,30.20727 -33.04401,52.52035 0,0 0,0 0,0 0.42206,5.79649 0.73999,11.76209 0.92359,17.82374 0.67139,22.16625 -0.59898,41.47212 -3.60602,56.11046 -2.96053,14.41193 -7.61254,23.93629 -12.83738,23.93629 -5.25434,0 -9.84734,-9.6653 -12.83738,-26.26526 -3.00325,-16.67331 -4.2812,-39.60202 -3.60602,-65.02438 0.18364,-6.91463 0.50149,-13.61258 0.92359,-19.96821 0,0 10e-6,-10e-6 10e-6,-10e-6 31.85453,-30.13352 57.58577,-46.01893 64.08362,-39.13298 z"
       id="path10"
       inkscape:path-effect="#path-effect10"
       inkscape:original-d="M 561.25982,596.09455 512.696,641.92122 v 104.56416"
       transform="matrix(-0.97244576,0,0,1.1182265,1305.8054,-25.748793)" /><path
       style="fill:#999999;fill-opacity:1;stroke:#000000;stroke-width:1.91793;stroke-dasharray:none;stroke-opacity:1"
       d="m 561.25982,596.09455 c 6.5,6.88823 -9.32397,30.20727 -33.04401,52.52035 0,0 0,0 0,0 0.42206,5.79649 0.73999,11.76209 0.92359,17.82374 0.67139,22.16625 -0.59898,41.47212 -3.60602,56.11046 -2.96053,14.41193 -7.61254,23.93629 -12.83738,23.93629 -5.25434,0 -9.84734,-9.6653 -12.83738,-26.26526 -3.00325,-16.67331 -4.2812,-39.60202 -3.60602,-65.02438 0.18364,-6.91463 0.50149,-13.61258 0.92359,-19.96821 0,0 10e-6,-10e-6 10e-6,-10e-6 31.85453,-30.13352 57.58577,-46.01893 64.08362,-39.13298 z"
       id="path10-6"
       inkscape:path-effect="#path-effect10-3"
       inkscape:original-d="M 561.25982,596.09455 512.696,641.92122 v 104.56416"
       transform="matrix(0.97244576,0,0,1.1182265,211.36199,-25.748793)" /><path
       style="fill:#999999;fill-opacity:1;stroke:#000000;stroke-width:3.33296;stroke-dasharray:none;stroke-opacity:1"
       d="m 563.61459,424.40274 c -1.68447,-3.3979 7.15397,-11.72344 23.68441,-23.21992 14.45971,-10.39312 34.68066,-23.55946 57.85517,-39.42116 9.82677,-6.72441 20.43827,-14.11438 30.85506,-21.91319 8.8085,-6.60982 17.77677,-13.63181 25.92878,-21.16187 4.07379,-3.85137 7.9632,-7.60923 11.18154,-11.35129 1.80394,-2.0975 3.38753,-4.17785 4.70468,-6.28342 1.37952,-2.24738 2.432,-4.02378 2.82464,-5.41781 l 0,0 c 0.24068,-1.08495 0.50187,-1.62041 0.419,-1.41122 l 0,0 c -4.0672,-38.05036 -6.69748,-72.34314 -7.71678,-99.97411 l 0,0 c -0.69653,-18.88798 -0.63914,-34.51504 0.20645,-45.78311 l 0,0 c 0.45668,-6.08558 1.14323,-10.8991 2.0648,-14.26694 l 0,0 c 0.47421,-1.733 1.01066,-3.08323 1.61003,-4.02702 l 0,0 c 0.30348,-0.47785 0.62309,-0.85152 0.95891,-1.11792 l 10e-6,0 c 0,0 0,-1e-5 0,-1e-5 0.16891,-0.13399 0.34193,-0.24085 0.51907,-0.32019 0,0 0,0 0,0 0,0 0,0 0,0 0.27391,-0.0629 0.41176,-0.10177 0.48105,-0.12498 0.0687,-0.023 0.0697,-0.0306 0.0697,-0.031 0,0 0,0 0,0 0,0 0,0 0,0 0,0 0,0 0,0 0,-1e-5 0,-1e-5 0,-1e-5 0,0 0,0 0,1e-5 0,0 0,0 0,0 0,0 0,0 0,0 0,0 0,0 0,0 9e-5,3.6e-4 0.003,0.007 0.0752,0.0129 0.0729,0.005 0.21603,0.009 0.49701,0.003 0,0 0,0 0,0 0,0 0,0 0,0 0.19122,0.0333 0.38522,0.0943 0.58192,0.1826 0,0 0,0 0,0 l 0,0 c 0.39107,0.17557 0.79281,0.4591 1.20455,0.84761 l 0,0 c 0.81321,0.76732 1.66541,1.94411 2.55141,3.5073 l 0,0 c 1.72183,3.03786 3.57127,7.53497 5.51012,13.32208 l 0,0 c 3.58957,10.71423 7.48622,25.85218 11.44491,44.33609 l 0,0 c 5.75469,26.86806 11.71255,61.09642 16.93158,98.9046 l 0,0 c 0.67505,6.39942 0.0349,12.21926 -1.62068,17.1749 l 0,0 c -1.81977,5.65417 -4.24137,10.51154 -6.92328,14.57574 -2.39059,3.65629 -4.95123,7.06606 -7.62895,10.25901 -4.79357,5.71593 -9.8612,10.61621 -14.77881,14.87726 -9.9717,8.82209 -20.31584,16.36111 -30.21831,22.92354 -11.79788,7.83858 -23.50578,14.68149 -34.49189,20.60979 -25.63892,13.83689 -48.93947,23.663 -65.8252,29.43 -19.28948,6.25982 -31.27127,8.25776 -32.95616,4.85903 z"
       id="path7"
       inkscape:path-effect="#path-effect8"
       inkscape:original-d="m 563.61459,424.40274 c 0,0 181.74878,-85.07389 175.94828,-132.44458 C 733.76238,244.58747 719.26115,128.5776 719.26115,128.5776"
       sodipodi:nodetypes="csc"
       transform="matrix(-0.60006674,0,0,-0.60006674,1098.936,738.46756)" /><path
       style="fill:#999999;fill-opacity:1;stroke:#000000;stroke-width:3.33296;stroke-dasharray:none;stroke-opacity:1"
       d="m 563.61459,424.40274 c -1.68447,-3.3979 7.15397,-11.72344 23.68441,-23.21992 14.45971,-10.39312 34.68066,-23.55946 57.85517,-39.42116 9.82677,-6.72441 20.43827,-14.11438 30.85506,-21.91319 8.8085,-6.60982 17.77677,-13.63181 25.92878,-21.16187 4.07379,-3.85137 7.9632,-7.60923 11.18154,-11.35129 1.80394,-2.0975 3.38753,-4.17785 4.70468,-6.28342 1.37952,-2.24738 2.432,-4.02378 2.82464,-5.41781 l 0,0 c 0.24068,-1.08495 0.50187,-1.62041 0.419,-1.41122 l 0,0 c -4.0672,-38.05036 -6.69748,-72.34314 -7.71678,-99.97411 l 0,0 c -0.69653,-18.88798 -0.63914,-34.51504 0.20645,-45.78311 l 0,0 c 0.45668,-6.08558 1.14323,-10.8991 2.0648,-14.26694 l 0,0 c 0.47421,-1.733 1.01066,-3.08323 1.61003,-4.02702 l 0,0 c 0.30348,-0.47785 0.62309,-0.85152 0.95891,-1.11792 l 10e-6,0 c 0,0 0,-1e-5 0,-1e-5 0.16891,-0.13399 0.34193,-0.24085 0.51907,-0.32019 0,0 0,0 0,0 0,0 0,0 0,0 0.27391,-0.0629 0.41176,-0.10177 0.48105,-0.12498 0.0687,-0.023 0.0697,-0.0306 0.0697,-0.031 0,0 0,0 0,0 0,0 0,0 0,0 0,0 0,0 0,0 0,-1e-5 0,-1e-5 0,-1e-5 0,0 0,0 0,1e-5 0,0 0,0 0,0 0,0 0,0 0,0 0,0 0,0 0,0 9e-5,3.6e-4 0.003,0.007 0.0752,0.0129 0.0729,0.005 0.21603,0.009 0.49701,0.003 0,0 0,0 0,0 0,0 0,0 0,0 0.19122,0.0333 0.38522,0.0943 0.58192,0.1826 0,0 0,0 0,0 l 0,0 c 0.39107,0.17557 0.79281,0.4591 1.20455,0.84761 l 0,0 c 0.81321,0.76732 1.66541,1.94411 2.55141,3.5073 l 0,0 c 1.72183,3.03786 3.57127,7.53497 5.51012,13.32208 l 0,0 c 3.58957,10.71423 7.48622,25.85218 11.44491,44.33609 l 0,0 c 5.75469,26.86806 11.71255,61.09642 16.93158,98.9046 l 0,0 c 0.67505,6.39942 0.0349,12.21926 -1.62068,17.1749 l 0,0 c -1.81977,5.65417 -4.24137,10.51154 -6.92328,14.57574 -2.39059,3.65629 -4.95123,7.06606 -7.62895,10.25901 -4.79357,5.71593 -9.8612,10.61621 -14.77881,14.87726 -9.9717,8.82209 -20.31584,16.36111 -30.21831,22.92354 -11.79788,7.83858 -23.50578,14.68149 -34.49189,20.60979 -25.63892,13.83689 -48.93947,23.663 -65.8252,29.43 -19.28948,6.25982 -31.27127,8.25776 -32.95616,4.85903 z"
       id="path7-3"
       inkscape:path-effect="#path-effect8-1"
       inkscape:original-d="m 563.61459,424.40274 c 0,0 181.74878,-85.07389 175.94828,-132.44458 C 733.76238,244.58747 719.26115,128.5776 719.26115,128.5776"
       sodipodi:nodetypes="csc"
       transform="matrix(0.60006674,0,0,-0.60006674,420.11385,738.44499)" /><ellipse
       style="fill:#999999;fill-opacity:1;stroke:#000000;stroke-width:2;stroke-dasharray:none;stroke-opacity:1"
       id="path2"
       cx="-759.52496"
       cy="567.03754"
       rx="69.073502"
       ry="114.72363"
       transform="scale(-1,1)" /><circle
       style="fill:#999999;fill-opacity:1;stroke:#000000;stroke-width:2;stroke-dasharray:none;stroke-opacity:1"
       id="path3"
       cx="-761.38531"
       cy="-429.36923"
       r="62.012772"
       transform="scale(-1)" /></g><g
     inkscape:label="syster"
     id="layer1-2-9"
     transform="matrix(0.16916134,0,0,0.16916134,216.10673,-29.329628)"
     style="stroke-width:3.12818;stroke-dasharray:none"><rect
       style="fill:#bd9061;fill-opacity:1;stroke:#050505;stroke-width:3.54425;stroke-linecap:square;stroke-miterlimit:3.6;stroke-dasharray:none;stroke-dashoffset:9.00057;stroke-opacity:1"
       id="rect2"
       width="180.25116"
       height="239.19907"
       x="671.25977"
       y="344.78088"
       ry="90.12558" /><path
       style="fill:#999999;fill-opacity:1;stroke:#000000;stroke-width:2.99981;stroke-dasharray:none;stroke-opacity:1"
       d="m 561.25982,596.09455 c 6.5,6.88823 -9.32397,30.20727 -33.04401,52.52035 0,0 0,0 0,0 0.42206,5.79649 0.73999,11.76209 0.92359,17.82374 0.67139,22.16625 -0.59898,41.47212 -3.60602,56.11046 -2.96053,14.41193 -7.61254,23.93629 -12.83738,23.93629 -5.25434,0 -9.84734,-9.6653 -12.83738,-26.26526 -3.00325,-16.67331 -4.2812,-39.60202 -3.60602,-65.02438 0.18364,-6.91463 0.50149,-13.61258 0.92359,-19.96821 0,0 10e-6,-10e-6 10e-6,-10e-6 31.85453,-30.13352 57.58577,-46.01893 64.08362,-39.13298 z"
       id="path10-69"
       inkscape:path-effect="#path-effect10-8"
       inkscape:original-d="M 561.25982,596.09455 512.696,641.92122 v 104.56416"
       transform="matrix(-0.97244576,0,0,1.1182265,1305.8054,-25.748793)" /><path
       style="fill:#999999;fill-opacity:1;stroke:#000000;stroke-width:2.99981;stroke-dasharray:none;stroke-opacity:1"
       d="m 561.25982,596.09455 c 6.5,6.88823 -9.32397,30.20727 -33.04401,52.52035 0,0 0,0 0,0 0.42206,5.79649 0.73999,11.76209 0.92359,17.82374 0.67139,22.16625 -0.59898,41.47212 -3.60602,56.11046 -2.96053,14.41193 -7.61254,23.93629 -12.83738,23.93629 -5.25434,0 -9.84734,-9.6653 -12.83738,-26.26526 -3.00325,-16.67331 -4.2812,-39.60202 -3.60602,-65.02438 0.18364,-6.91463 0.50149,-13.61258 0.92359,-19.96821 0,0 10e-6,-10e-6 10e-6,-10e-6 31.85453,-30.13352 57.58577,-46.01893 64.08362,-39.13298 z"
       id="path10-6-5"
       inkscape:path-effect="#path-effect10-3-2"
       inkscape:original-d="M 561.25982,596.09455 512.696,641.92122 v 104.56416"
       transform="matrix(0.97244576,0,0,1.1182265,211.36199,-25.748793)" /><path
       style="fill:#999999;fill-opacity:1;stroke:#000000;stroke-width:5.21305;stroke-dasharray:none;stroke-opacity:1"
       d="m 563.61459,424.40274 c -1.68447,-3.3979 7.15397,-11.72344 23.68441,-23.21992 14.45971,-10.39312 34.68066,-23.55946 57.85517,-39.42116 9.82677,-6.72441 20.43827,-14.11438 30.85506,-21.91319 8.8085,-6.60982 17.77677,-13.63181 25.92878,-21.16187 4.07379,-3.85137 7.9632,-7.60923 11.18154,-11.35129 1.80394,-2.0975 3.38753,-4.17785 4.70468,-6.28342 1.37952,-2.24738 2.432,-4.02378 2.82464,-5.41781 l 0,0 c 0.24068,-1.08495 0.50187,-1.62041 0.419,-1.41122 l 0,0 c -4.0672,-38.05036 -6.69748,-72.34314 -7.71678,-99.97411 l 0,0 c -0.69653,-18.88798 -0.63914,-34.51504 0.20645,-45.78311 l 0,0 c 0.45668,-6.08558 1.14323,-10.8991 2.0648,-14.26694 l 0,0 c 0.47421,-1.733 1.01066,-3.08323 1.61003,-4.02702 l 0,0 c 0.30348,-0.47785 0.62309,-0.85152 0.95891,-1.11792 l 10e-6,0 c 0,0 0,-1e-5 0,-1e-5 0.16891,-0.13399 0.34193,-0.24085 0.51907,-0.32019 0,0 0,0 0,0 0,0 0,0 0,0 0.27391,-0.0629 0.41176,-0.10177 0.48105,-0.12498 0.0687,-0.023 0.0697,-0.0306 0.0697,-0.031 0,0 0,0 0,0 0,0 0,0 0,0 0,0 0,0 0,0 0,-1e-5 0,-1e-5 0,-1e-5 0,0 0,0 0,1e-5 0,0 0,0 0,0 0,0 0,0 0,0 0,0 0,0 0,0 9e-5,3.6e-4 0.003,0.007 0.0752,0.0129 0.0729,0.005 0.21603,0.009 0.49701,0.003 0,0 0,0 0,0 0,0 0,0 0,0 0.19122,0.0333 0.38522,0.0943 0.58192,0.1826 0,0 0,0 0,0 l 0,0 c 0.39107,0.17557 0.79281,0.4591 1.20455,0.84761 l 0,0 c 0.81321,0.76732 1.66541,1.94411 2.55141,3.5073 l 0,0 c 1.72183,3.03786 3.57127,7.53497 5.51012,13.32208 l 0,0 c 3.58957,10.71423 7.48622,25.85218 11.44491,44.33609 l 0,0 c 5.75469,26.86806 11.71255,61.09642 16.93158,98.9046 l 0,0 c 0.67505,6.39942 0.0349,12.21926 -1.62068,17.1749 l 0,0 c -1.81977,5.65417 -4.24137,10.51154 -6.92328,14.57574 -2.39059,3.65629 -4.95123,7.06606 -7.62895,10.25901 -4.79357,5.71593 -9.8612,10.61621 -14.77881,14.87726 -9.9717,8.82209 -20.31584,16.36111 -30.21831,22.92354 -11.79788,7.83858 -23.50578,14.68149 -34.49189,20.60979 -25.63892,13.83689 -48.93947,23.663 -65.8252,29.43 -19.28948,6.25982 -31.27127,8.25776 -32.95616,4.85903 z"
       id="path7-6"
       inkscape:path-effect="#path-effect8-6"
       inkscape:original-d="m 563.61459,424.40274 c 0,0 181.74878,-85.07389 175.94828,-132.44458 C 733.76238,244.58747 719.26115,128.5776 719.26115,128.5776"
       sodipodi:nodetypes="csc"
       transform="matrix(-0.60006674,0,0,-0.60006674,1098.936,738.46756)" /><path
       style="fill:#999999;fill-opacity:1;stroke:#000000;stroke-width:5.21305;stroke-dasharray:none;stroke-opacity:1"
       d="m 563.61459,424.40274 c -1.68447,-3.3979 7.15397,-11.72344 23.68441,-23.21992 14.45971,-10.39312 34.68066,-23.55946 57.85517,-39.42116 9.82677,-6.72441 20.43827,-14.11438 30.85506,-21.91319 8.8085,-6.60982 17.77677,-13.63181 25.92878,-21.16187 4.07379,-3.85137 7.9632,-7.60923 11.18154,-11.35129 1.80394,-2.0975 3.38753,-4.17785 4.70468,-6.28342 1.37952,-2.24738 2.432,-4.02378 2.82464,-5.41781 l 0,0 c 0.24068,-1.08495 0.50187,-1.62041 0.419,-1.41122 l 0,0 c -4.0672,-38.05036 -6.69748,-72.34314 -7.71678,-99.97411 l 0,0 c -0.69653,-18.88798 -0.63914,-34.51504 0.20645,-45.78311 l 0,0 c 0.45668,-6.08558 1.14323,-10.8991 2.0648,-14.26694 l 0,0 c 0.47421,-1.733 1.01066,-3.08323 1.61003,-4.02702 l 0,0 c 0.30348,-0.47785 0.62309,-0.85152 0.95891,-1.11792 l 10e-6,0 c 0,0 0,-1e-5 0,-1e-5 0.16891,-0.13399 0.34193,-0.24085 0.51907,-0.32019 0,0 0,0 0,0 0,0 0,0 0,0 0.27391,-0.0629 0.41176,-0.10177 0.48105,-0.12498 0.0687,-0.023 0.0697,-0.0306 0.0697,-0.031 0,0 0,0 0,0 0,0 0,0 0,0 0,0 0,0 0,0 0,-1e-5 0,-1e-5 0,-1e-5 0,0 0,0 0,1e-5 0,0 0,0 0,0 0,0 0,0 0,0 0,0 0,0 0,0 9e-5,3.6e-4 0.003,0.007 0.0752,0.0129 0.0729,0.005 0.21603,0.009 0.49701,0.003 0,0 0,0 0,0 0,0 0,0 0,0 0.19122,0.0333 0.38522,0.0943 0.58192,0.1826 0,0 0,0 0,0 l 0,0 c 0.39107,0.17557 0.79281,0.4591 1.20455,0.84761 l 0,0 c 0.81321,0.76732 1.66541,1.94411 2.55141,3.5073 l 0,0 c 1.72183,3.03786 3.57127,7.53497 5.51012,13.32208 l 0,0 c 3.58957,10.71423 7.48622,25.85218 11.44491,44.33609 l 0,0 c 5.75469,26.86806 11.71255,61.09642 16.93158,98.9046 l 0,0 c 0.67505,6.39942 0.0349,12.21926 -1.62068,17.1749 l 0,0 c -1.81977,5.65417 -4.24137,10.51154 -6.92328,14.57574 -2.39059,3.65629 -4.95123,7.06606 -7.62895,10.25901 -4.79357,5.71593 -9.8612,10.61621 -14.77881,14.87726 -9.9717,8.82209 -20.31584,16.36111 -30.21831,22.92354 -11.79788,7.83858 -23.50578,14.68149 -34.49189,20.60979 -25.63892,13.83689 -48.93947,23.663 -65.8252,29.43 -19.28948,6.25982 -31.27127,8.25776 -32.95616,4.85903 z"
       id="path7-3-0"
       inkscape:path-effect="#path-effect8-1-5"
       inkscape:original-d="m 563.61459,424.40274 c 0,0 181.74878,-85.07389 175.94828,-132.44458 C 733.76238,244.58747 719.26115,128.5776 719.26115,128.5776"
       sodipodi:nodetypes="csc"
       transform="matrix(0.60006674,0,0,-0.60006674,420.11385,738.44499)" /><ellipse
       style="fill:#999999;fill-opacity:1;stroke:#000000;stroke-width:3.12818;stroke-dasharray:none;stroke-opacity:1"
       id="path2-1"
       cx="-759.52496"
       cy="567.03754"
       rx="69.073502"
       ry="114.72363"
       transform="scale(-1,1)" /><circle
       style="fill:#999999;fill-opacity:1;stroke:#000000;stroke-width:3.12818;stroke-dasharray:none;stroke-opacity:1"
       id="path3-0"
       cx="-761.38531"
       cy="-429.36923"
       r="62.012772"
       transform="scale(-1)" /><path
       style="fill:none;fill-opacity:1;stroke:#09008c;stroke-width:13.5965;stroke-dasharray:none;stroke-opacity:1;marker-end:url(#Triangle)"
       d="m 759.52507,681.76119 v 274.1169"
       id="path25" /><path
       style="fill:none;fill-opacity:1;stroke:#8c0000;stroke-width:13.5965;stroke-dasharray:none;stroke-opacity:1;marker-end:url(#Triangle)"
       d="m -809.25588,681.7612 v 517.4799"
       id="path24" /></g><g
     transform="matrix(1.36781,0,0,1.36781,134.41997,36.521328)"
     ns4:version="1.11.0"
     ns4:texconverter="typst"
     ns4:pdfconverter="inkscape"
     ns4:text="$1.5$ m"
     ns4:preamble="/home/sermuns/.config/inkscape/extensions/textext/default_preamble_typst.typ"
     ns4:scale="3.877242618106545"
     ns4:alignment="middle center"
     ns4:inkscapeversion="1.4"
     ns4:jacobian_sqrt="1.36781"
     id="g18"><g
   id="g15">
        <g
   transform="translate(70.8661,78.3791)"
   id="g3">
            <g
   class="typst-text"
   transform="scale(1,-1)"
   id="g2">
                <g
   id="g1"><path
   d="M 2.9589999,7.3259997 C 2.508,6.864 1.848,6.633 0.979,6.633 V 6.204 c 0.572,0 1.045,0.088 1.408,0.264 V 0.902 C 2.387,0.704 2.343,0.572 2.244,0.517 2.145,0.462 1.87,0.429 1.43,0.429 H 1.045 V 0 C 1.3199999,0.022 1.914,0.033 2.827,0.033 3.74,0.033 4.334,0.022 4.609,0 V 0.429 H 4.224 C 3.773,0.429 3.498,0.462 3.41,0.517 3.322,0.572 3.267,0.704 3.267,0.902 v 6.094 c 0,0.2639998 -0.022,0.3299997 -0.3080001,0.3299997 z"
   id="path1" />
        </g></g>
        </g>
        <g
   transform="translate(76.3661,78.3791)"
   id="g8">
            <g
   class="typst-text"
   transform="scale(1,-1)"
   id="g7">
                <g
   id="g6"><path
   d="M 2.112,0.583 C 2.112,0.902 1.848,1.166 1.529,1.166 1.21,1.166 0.946,0.902 0.946,0.583 0.946,0.264 1.21,0 1.529,0 1.848,0 2.112,0.264 2.112,0.583 Z"
   id="path6" />
        </g></g>
        </g>
        <g
   transform="translate(79.4241,78.3791)"
   id="g11">
            <g
   class="typst-text"
   transform="scale(1,-1)"
   id="g10">
                <g
   id="g9"><path
   d="m 1.298,3.465 c 0.055,0 0.121,0.044 0.176,0.121 0.33,0.495 0.7809999,0.737 1.353,0.737 0.385,0 0.682,-0.22 0.88,-0.671 C 3.828,3.355 3.894,2.904 3.894,2.299 3.894,1.606 3.806,1.122 3.641,0.83599997 3.366,0.385 2.992,0.154 2.519,0.154 c -0.737,0 -1.32,0.528 -1.518,1.1 0.033,-0.011 0.055,0 0.099,0 0.33,0 0.605,0.253 0.605,0.583 0,0.341 -0.275,0.572 -0.605,0.572 -0.385,0 -0.55,-0.209 -0.55,-0.616 0,-1.1 0.891,-2.035 1.991,-2.035 0.671,0 1.243,0.242 1.705,0.726 C 4.708,0.968 4.939,1.551 4.939,2.222 4.939,2.86 4.752,3.41 4.378,3.883 3.971,4.4 3.465,4.653 2.849,4.653 2.332,4.653 1.881,4.488 1.518,4.158 v 1.958 c 0.2969999,-0.088 0.583,-0.132 0.88,-0.132 0.506,0 0.9459999,0.121 1.32,0.374 0.341,0.209 0.572,0.418 0.704,0.616 0.066,0.088 0.099,0.154 0.099,0.187 0,0.11 -0.055,0.1649997 -0.165,0.1649997 C 3.751,7.095 3.234,6.974 2.816,6.974 2.321,6.974 1.848,7.073 1.397,7.282 1.342,7.304 1.298,7.315 1.254,7.315 1.155,7.315 1.1,7.216 1.1,7.007 V 3.795 c 0,-0.231 0,-0.33 0.198,-0.33 z"
   id="path8" />
        </g></g>
        </g>
        <g
   transform="translate(84.9241,78.3791)"
   id="g14">
            <g
   class="typst-text"
   transform="scale(1,-1)"
   id="g13">
                <g
   transform="translate(2.75)"
   id="g12"><path
   d="M 1.87,3.938 C 1.859,4.268 1.837,4.664 1.782,4.774 1.76,4.829 1.738,4.862 1.65,4.862 1.342,4.741 1.056,4.642 0.297,4.5429997 0.275,4.4769998 0.297,4.301 0.319,4.235 0.913,4.18 1.034,4.125 1.034,3.487 V 1.342 C 1.034,0.44 0.891,0.385 0.286,0.341 0.22,0.275 0.22,0.044 0.286,-0.022 0.616,-0.011 1.034,0 1.474,0 c 0.44,0 0.7809999,-0.011 1.111,-0.022 0.066,0.066 0.066,0.297 0,0.363 C 2.024,0.396 1.903,0.44 1.903,1.342 v 1.804 c 0,0.231 0.099,0.363 0.187,0.462 C 2.53,4.037 2.937,4.257 3.2779999,4.257 3.696,4.257 4.004,3.993 4.004,3.256 V 1.342 C 4.004,0.44 3.916,0.385 3.322,0.341 3.267,0.275 3.267,0.044 3.322,-0.022 3.597,-0.011 4.004,0 4.444,0 c 0.44,0 0.8029997,-0.011 1.078,-0.022 0.055,0.066 0.055,0.297 0,0.363 C 4.972,0.385 4.873,0.44 4.873,1.342 v 1.749 c 0,0.154 0,0.308 -0.011,0.44 0.528,0.583 1.0229998,0.726 1.452,0.726 0.418,0 0.66,-0.242 0.66,-0.9790001 V 1.342 C 6.974,0.44 6.864,0.385 6.292,0.341 6.237,0.275 6.237,0.044 6.292,-0.022 6.567,-0.011 6.974,0 7.414,0 c 0.44,0 0.825,-0.011 1.133,-0.022 0.055,0.066 0.055,0.297 0,0.363 C 7.942,0.385 7.843,0.44 7.843,1.342 V 3.08 C 7.843,4.059 7.678,4.829 6.71,4.829 6.149,4.829 5.467,4.62 4.895,4.015 4.862,3.9819999 4.796,3.927 4.774,4.026 4.675,4.4769998 4.246,4.829 3.674,4.829 3.036,4.829 2.464,4.455 2.002,3.938 1.947,3.883 1.881,3.806 1.87,3.938 Z"
   id="path11" />
        </g></g>
        </g>
    </g>
    <defs
   id="id-2b309599-44b4-456b-b318-2132446856c2">
        <symbol
   id="id-1770bc59-e49b-41d7-bfd5-0badc2e2a060"
   overflow="visible">
            <path
   d="M 2.9589999,7.3259997 C 2.508,6.864 1.848,6.633 0.979,6.633 V 6.204 c 0.572,0 1.045,0.088 1.408,0.264 V 0.902 C 2.387,0.704 2.343,0.572 2.244,0.517 2.145,0.462 1.87,0.429 1.43,0.429 H 1.045 V 0 C 1.3199999,0.022 1.914,0.033 2.827,0.033 3.74,0.033 4.334,0.022 4.609,0 V 0.429 H 4.224 C 3.773,0.429 3.498,0.462 3.41,0.517 3.322,0.572 3.267,0.704 3.267,0.902 v 6.094 c 0,0.2639998 -0.022,0.3299997 -0.3080001,0.3299997 z"
   id="path15" />
        </symbol>
        <symbol
   id="id-f0bda200-9185-467b-9a35-14fd5e340c39"
   overflow="visible">
            <path
   d="M 2.112,0.583 C 2.112,0.902 1.848,1.166 1.529,1.166 1.21,1.166 0.946,0.902 0.946,0.583 0.946,0.264 1.21,0 1.529,0 1.848,0 2.112,0.264 2.112,0.583 Z"
   id="path16" />
        </symbol>
        <symbol
   id="id-9bdf1601-1803-47d6-8f86-82d3d8c4441c"
   overflow="visible">
            <path
   d="m 1.298,3.465 c 0.055,0 0.121,0.044 0.176,0.121 0.33,0.495 0.7809999,0.737 1.353,0.737 0.385,0 0.682,-0.22 0.88,-0.671 C 3.828,3.355 3.894,2.904 3.894,2.299 3.894,1.606 3.806,1.122 3.641,0.83599997 3.366,0.385 2.992,0.154 2.519,0.154 c -0.737,0 -1.32,0.528 -1.518,1.1 0.033,-0.011 0.055,0 0.099,0 0.33,0 0.605,0.253 0.605,0.583 0,0.341 -0.275,0.572 -0.605,0.572 -0.385,0 -0.55,-0.209 -0.55,-0.616 0,-1.1 0.891,-2.035 1.991,-2.035 0.671,0 1.243,0.242 1.705,0.726 C 4.708,0.968 4.939,1.551 4.939,2.222 4.939,2.86 4.752,3.41 4.378,3.883 3.971,4.4 3.465,4.653 2.849,4.653 2.332,4.653 1.881,4.488 1.518,4.158 v 1.958 c 0.2969999,-0.088 0.583,-0.132 0.88,-0.132 0.506,0 0.9459999,0.121 1.32,0.374 0.341,0.209 0.572,0.418 0.704,0.616 0.066,0.088 0.099,0.154 0.099,0.187 0,0.11 -0.055,0.1649997 -0.165,0.1649997 C 3.751,7.095 3.234,6.974 2.816,6.974 2.321,6.974 1.848,7.073 1.397,7.282 1.342,7.304 1.298,7.315 1.254,7.315 1.155,7.315 1.1,7.216 1.1,7.007 V 3.795 c 0,-0.231 0,-0.33 0.198,-0.33 z"
   id="path17" />
        </symbol>
        <symbol
   id="id-9bd62e25-297b-4bf0-b9ea-eb2f4dd90311"
   overflow="visible">
            <path
   d="M 1.87,3.938 C 1.859,4.268 1.837,4.664 1.782,4.774 1.76,4.829 1.738,4.862 1.65,4.862 1.342,4.741 1.056,4.642 0.297,4.5429997 0.275,4.4769998 0.297,4.301 0.319,4.235 0.913,4.18 1.034,4.125 1.034,3.487 V 1.342 C 1.034,0.44 0.891,0.385 0.286,0.341 0.22,0.275 0.22,0.044 0.286,-0.022 0.616,-0.011 1.034,0 1.474,0 c 0.44,0 0.7809999,-0.011 1.111,-0.022 0.066,0.066 0.066,0.297 0,0.363 C 2.024,0.396 1.903,0.44 1.903,1.342 v 1.804 c 0,0.231 0.099,0.363 0.187,0.462 C 2.53,4.037 2.937,4.257 3.2779999,4.257 3.696,4.257 4.004,3.993 4.004,3.256 V 1.342 C 4.004,0.44 3.916,0.385 3.322,0.341 3.267,0.275 3.267,0.044 3.322,-0.022 3.597,-0.011 4.004,0 4.444,0 c 0.44,0 0.8029997,-0.011 1.078,-0.022 0.055,0.066 0.055,0.297 0,0.363 C 4.972,0.385 4.873,0.44 4.873,1.342 v 1.749 c 0,0.154 0,0.308 -0.011,0.44 0.528,0.583 1.0229998,0.726 1.452,0.726 0.418,0 0.66,-0.242 0.66,-0.9790001 V 1.342 C 6.974,0.44 6.864,0.385 6.292,0.341 6.237,0.275 6.237,0.044 6.292,-0.022 6.567,-0.011 6.974,0 7.414,0 c 0.44,0 0.825,-0.011 1.133,-0.022 0.055,0.066 0.055,0.297 0,0.363 C 7.942,0.385 7.843,0.44 7.843,1.342 V 3.08 C 7.843,4.059 7.678,4.829 6.71,4.829 6.149,4.829 5.467,4.62 4.895,4.015 4.862,3.9819999 4.796,3.927 4.774,4.026 4.675,4.4769998 4.246,4.829 3.674,4.829 3.036,4.829 2.464,4.455 2.002,3.938 1.947,3.883 1.881,3.806 1.87,3.938 Z"
   id="path18" />
        </symbol>
    </defs>
</g><g
     transform="matrix(1.36781,0,0,1.36781,25.384731,26.632663)"
     ns4:version="1.11.0"
     ns4:texconverter="typst"
     ns4:pdfconverter="inkscape"
     ns4:text="$l$"
     ns4:preamble="/home/sermuns/.config/inkscape/extensions/textext/default_preamble_typst.typ"
     ns4:scale="3.877242618106545"
     ns4:alignment="middle center"
     ns4:inkscapeversion="1.4"
     ns4:jacobian_sqrt="1.36781"
     id="g23"><g
   id="g22">
        <g
   transform="translate(70.8661,78.3791)"
   id="g21">
            <g
   class="typst-text"
   transform="scale(1,-1)"
   id="g20">
                <g
   id="g19"><path
   d="M 1.903,6.952 0.539,1.309 C 0.506,1.155 0.484,1.023 0.484,0.924 c 0,-0.583 0.429,-1.045 1.012,-1.045 0.539,0 0.924,0.572 1.155,1.716 0,0.099 -0.055,0.154 -0.176,0.154 C 2.387,1.749 2.321,1.672 2.288,1.518 2.068,0.649 1.8149999,0.20899999 1.518,0.20899999 1.331,0.20899999 1.243,0.363 1.243,0.65999997 1.243,0.825 1.265,1.001 1.309,1.177 L 2.838,7.469 V 7.513 C 2.805,7.59 2.739,7.634 2.662,7.634 2.31,7.634 1.496,7.535 1.364,7.524 1.199,7.502 1.122,7.414 1.122,7.249 1.122,7.15 1.221,7.095 1.43,7.095 c 0.187,0 0.473,0 0.473,-0.143 z"
   id="path19" />
        </g></g>
        </g>
    </g>
    <defs
   id="id-df227019-8d49-40a5-a54a-64a44b74e7ae">
        <symbol
   id="id-1656006e-af0c-4973-b8ae-2bafcb6cba60"
   overflow="visible">
            <path
   d="M 1.903,6.952 0.539,1.309 C 0.506,1.155 0.484,1.023 0.484,0.924 c 0,-0.583 0.429,-1.045 1.012,-1.045 0.539,0 0.924,0.572 1.155,1.716 0,0.099 -0.055,0.154 -0.176,0.154 C 2.387,1.749 2.321,1.672 2.288,1.518 2.068,0.649 1.8149999,0.20899999 1.518,0.20899999 1.331,0.20899999 1.243,0.363 1.243,0.65999997 1.243,0.825 1.265,1.001 1.309,1.177 L 2.838,7.469 V 7.513 C 2.805,7.59 2.739,7.634 2.662,7.634 2.31,7.634 1.496,7.535 1.364,7.524 1.199,7.502 1.122,7.414 1.122,7.249 1.122,7.15 1.221,7.095 1.43,7.095 c 0.187,0 0.473,0 0.473,-0.143 z"
   id="path22" />
        </symbol>
    </defs>
</g><g
     transform="matrix(1.36781,0,0,1.36781,254.1646,27.452326)"
     ns4:version="1.11.0"
     ns4:texconverter="typst"
     ns4:pdfconverter="inkscape"
     ns4:text="$F_&quot;lillasyster&quot;$"
     ns4:preamble="/home/sermuns/.config/inkscape/extensions/textext/default_preamble_typst.typ"
     ns4:scale="3.877242618106545"
     ns4:alignment="middle center"
     ns4:inkscapeversion="1.4"
     ns4:jacobian_sqrt="1.36781"
     id="g39"><g
   id="g70">
        <g
   transform="translate(70.8661,78.3791)"
   id="g56">
            <g
   class="typst-text"
   transform="scale(1,-1)"
   id="g55">
                <g
   id="g54"><path
   d="m 2.189,7.216 c 0,-0.11 0.121,-0.165 0.352,-0.165 0.44,0 0.66,-0.044 0.66,-0.143 0,-0.033 -0.022,-0.11 -0.055,-0.2530003 L 1.716,0.902 C 1.65,0.65999997 1.54,0.517 1.386,0.462 1.309,0.44 1.111,0.429 0.77,0.429 0.528,0.429 0.41799998,0.407 0.41799998,0.176 0.41799998,0.055 0.484,0 0.627,0 L 2.057,0.033 3.685,0 C 3.861,0 3.949,0.088 3.949,0.253 3.949,0.44 3.828,0.429 3.542,0.429 3.058,0.429 2.783,0.451 2.717,0.506 2.684,0.517 2.673,0.561 2.673,0.616 L 3.377,3.531 H 4.4 c 0.506,0 0.858,-0.022 0.858,-0.44 C 5.258,2.948 5.236,2.772 5.181,2.563 5.17,2.53 5.159,2.486 5.148,2.442 5.148,2.321 5.203,2.266 5.324,2.266 5.379,2.277 5.456,2.354 5.533,2.519 L 6.127,4.884 C 6.149,4.972 6.16,5.038 6.16,5.071 6.127,5.17 6.061,5.225 5.984,5.225 5.896,5.225 5.83,5.137 5.786,4.972 5.676,4.554 5.522,4.29 5.346,4.158 5.17,4.026 4.862,3.96 4.422,3.96 H 3.487 l 0.682,2.706 c 0.088,0.374 0.088,0.385 0.55,0.385 h 1.43 C 7.216,7.051 7.7,6.886 7.7,5.907 7.7,5.687 7.689,5.489 7.667,5.324 7.656,5.203 7.645,5.137 7.645,5.126 7.645,5.005 7.7,4.95 7.81,4.95 c 0.11,0 0.176,0.099 0.198,0.308 l 0.22,1.881 C 8.261,7.447 8.184,7.48 7.887,7.48 H 2.563 C 2.31,7.48 2.189,7.469 2.189,7.216 Z"
   id="path54" />
        </g></g>
        </g>
        <g
   transform="translate(77.9391,81.0961)"
   id="g69">
            <g
   class="typst-text"
   transform="scale(1,-1)"
   id="g68">
                <g
   id="g57"><path
   d="M 1.1087999,0.0231 1.9635,0 V 0.3003 C 1.6863,0.3003 1.5169,0.308 1.4629999,0.3388 1.4090999,0.3696 1.386,0.462 1.386,0.6083 V 5.3438 L 0.2541,5.2591 V 4.9665 C 0.5236,4.9665 0.693,4.9434 0.7469,4.8972 0.8008,4.851 0.8316,4.7432 0.8316,4.5661 V 0.6083 C 0.8316,0.462 0.8085,0.3696 0.7546,0.3388 0.7007,0.308 0.5313,0.3003 0.2541,0.3003 V 0 Z"
   id="path56" />
        </g><g
   transform="translate(2.1406)"
   id="g58"><path
   d="m 1.4938,4.6277 c 0,0.231 -0.1925,0.4312 -0.4235,0.4312 -0.231,0 -0.4312,-0.2002 -0.4312,-0.4312 0,-0.231 0.1925,-0.4389 0.4235,-0.4389 0.2387,0 0.4312,0.2002 0.4312,0.4389 z M 1.1011,0.0231 1.9018999,0 V 0.3003 C 1.6478,0.3003 1.4938,0.3157 1.4476,0.3465 1.4014,0.3773 1.386,0.462 1.386,0.6006 V 3.4265 L 0.2849,3.3341 V 3.0415 c 0.2541,0 0.4158,-0.0231 0.4697,-0.0616 0.0539,-0.0385 0.077,-0.1463 0.077,-0.3234 V 0.6083 C 0.8316,0.462 0.8085,0.3696 0.7546,0.3388 0.7007,0.308 0.5313,0.3003 0.2541,0.3003 V 0 Z"
   id="path57" />
        </g><g
   transform="translate(4.2812)"
   id="g59"><path
   d="M 1.1087999,0.0231 1.9635,0 V 0.3003 C 1.6863,0.3003 1.5169,0.308 1.4629999,0.3388 1.4090999,0.3696 1.386,0.462 1.386,0.6083 V 5.3438 L 0.2541,5.2591 V 4.9665 C 0.5236,4.9665 0.693,4.9434 0.7469,4.8972 0.8008,4.851 0.8316,4.7432 0.8316,4.5661 V 0.6083 C 0.8316,0.462 0.8085,0.3696 0.7546,0.3388 0.7007,0.308 0.5313,0.3003 0.2541,0.3003 V 0 Z"
   id="path58" />
        </g><g
   transform="translate(6.4218)"
   id="g60"><path
   d="M 1.1087999,0.0231 1.9635,0 V 0.3003 C 1.6863,0.3003 1.5169,0.308 1.4629999,0.3388 1.4090999,0.3696 1.386,0.462 1.386,0.6083 V 5.3438 L 0.2541,5.2591 V 4.9665 C 0.5236,4.9665 0.693,4.9434 0.7469,4.8972 0.8008,4.851 0.8316,4.7432 0.8316,4.5661 V 0.6083 C 0.8316,0.462 0.8085,0.3696 0.7546,0.3388 0.7007,0.308 0.5313,0.3003 0.2541,0.3003 V 0 Z"
   id="path59" />
        </g><g
   transform="translate(8.5624)"
   id="g61"><path
   d="M 3.7191,0.7007 V 1.155 H 3.4726999 V 0.7007 c 0,-0.30030002 -0.0847,-0.4543 -0.2463999,-0.4543 -0.154,0 -0.2464,0.1925 -0.2464,0.3465 v 1.5169 c 0,0.2694999 -0.0308,0.4697 -0.0847,0.6083 C 2.7104,3.1724 2.1791,3.4496 1.6401,3.4496 1.0472,3.4496 0.462,3.1185 0.462,2.5641 c 0,-0.2541 0.1309,-0.385 0.385,-0.385 0.2541,0 0.3773,0.1232 0.3773,0.3773 0,0.2233 -0.1155001,0.3542 -0.3542,0.3773 0.1694,0.1925 0.4235,0.2926 0.7546,0.2926 0.4774,0 0.77,-0.4389 0.77,-0.9394 V 2.0328 C 1.7941,1.9943 1.3398,1.9018999 1.0241,1.7556 0.5082,1.5169 0.2464,1.1858 0.2464,0.7469 c 0,-0.2002 0.077,-0.3696 0.2233,-0.5005 0.2464,-0.2233 0.5852,-0.3311 1.0164,-0.3311 0.4543,0 0.7777,0.1925 0.9779,0.5852 0.0539,-0.2926 0.2695,-0.5467 0.6006,-0.5467 0.4080999,0 0.6545,0.32339998 0.6545,0.7469 z M 1.54,0.13859999 c -0.3542,0 -0.6468,0.26179999 -0.6468,0.61600001 0,0.7161 0.7469,1.0241 1.5015,1.0626 V 1.0857 C 2.3947,0.5698 2.0559,0.13859999 1.54,0.13859999 Z"
   id="path60" />
        </g><g
   transform="translate(12.4124)"
   id="g62"><path
   d="M 2.772,1.001 C 2.772,1.5862 2.3716,1.9557999 1.5785,2.1098 1.2166,2.1791 0.9856,2.2638 0.8624,2.3485 0.7392,2.4332 0.6776,2.5564 0.6776,2.7027 c 0,0.3619 0.2695,0.539 0.8085,0.539 0.5236,0 0.8085,-0.2926 0.847,-0.8855 0.0077,-0.0616 0.0462,-0.0924 0.1232,-0.0924 0.0847,0 0.1309,0.0693 0.1309,0.2079 V 3.234 c 0,0.1463 -0.0385,0.2156 -0.1155,0.2156 C 2.387,3.4496 2.2714999,3.3109999 2.1945,3.2494 2.002,3.3803 1.7633,3.4496 1.4861,3.4496 0.80079997,3.4496 0.2541,3.1416 0.2541,2.4871 0.2541,2.2253 0.3619,2.002 0.5852,1.8249 0.85469997,1.6015999 1.1087999,1.5554 1.5939,1.4707 2.0944,1.3706 2.3485,1.1473 2.3485,0.80079997 2.3485,0.3619 2.079,0.13859999 1.5323,0.13859999 1.001,0.13859999 0.6622,0.4928 0.5159,1.1935 0.4928,1.2936 0.4543,1.3475 0.385,1.3475 0.3003,1.3475 0.2541,1.2705 0.2541,1.1242 V 0.1309 c 0,-0.1463 0.0385,-0.2156 0.1155,-0.2156 0.0231,0 0.0616,0.0231 0.1232,0.077 0.1386,0.1232 0.077,0.1001 0.2156,0.2387 0.2233,-0.2079 0.5005,-0.3157 0.8239,-0.3157 0.7315,0 1.2397,0.3773 1.2397,1.0857 z"
   id="path61" />
        </g><g
   transform="translate(15.4462)"
   id="g63"><path
   d="m 0.8701,-1.5785 c 0.4235,0 0.7623,0.2926 1.001,0.8855 L 3.2031999,2.5564 C 3.3341,2.8644 3.5651,3.0184 3.9115999,3.0184 V 3.3187 C 3.6575,3.2956 3.4573,3.2879 3.3109999,3.2956 L 2.6257,3.3187 V 3.0261 C 2.8644,3.0184 2.9799,2.9183 2.9799,2.7258 2.9799,2.6796 2.9645,2.6257 2.9337,2.5564 L 2.2022,0.7546 1.386,2.7258 C 1.3629,2.7874 1.3475,2.8336 1.3398,2.8567 c 0,0.1078 0.1463,0.1617 0.4312,0.1617 V 3.3187 L 0.9086,3.2956 c -0.1848,-0.0077 -0.4389,0 -0.7623,0.0231 V 3.0184 c 0.40809997,0 0.5082,0.0154 0.616,-0.2464 L 1.8942,0.0077 1.7093999,-0.4235 C 1.5015,-0.9163 1.3552,-1.3475 0.8701,-1.3475 c -0.1078,0 -0.2002,0.0308 -0.2849,0.0847 0.1771,0.0385 0.2618,0.1540001 0.2618,0.3388 0,0.231 -0.11550003,0.3465 -0.3542,0.3465 -0.231,0 -0.3465,-0.1155 -0.3465,-0.3542 0,-0.3773 0.3465,-0.6468 0.7238,-0.6468 z"
   id="path62" />
        </g><g
   transform="translate(19.5118)"
   id="g64"><path
   d="M 2.772,1.001 C 2.772,1.5862 2.3716,1.9557999 1.5785,2.1098 1.2166,2.1791 0.9856,2.2638 0.8624,2.3485 0.7392,2.4332 0.6776,2.5564 0.6776,2.7027 c 0,0.3619 0.2695,0.539 0.8085,0.539 0.5236,0 0.8085,-0.2926 0.847,-0.8855 0.0077,-0.0616 0.0462,-0.0924 0.1232,-0.0924 0.0847,0 0.1309,0.0693 0.1309,0.2079 V 3.234 c 0,0.1463 -0.0385,0.2156 -0.1155,0.2156 C 2.387,3.4496 2.2714999,3.3109999 2.1945,3.2494 2.002,3.3803 1.7633,3.4496 1.4861,3.4496 0.80079997,3.4496 0.2541,3.1416 0.2541,2.4871 0.2541,2.2253 0.3619,2.002 0.5852,1.8249 0.85469997,1.6015999 1.1087999,1.5554 1.5939,1.4707 2.0944,1.3706 2.3485,1.1473 2.3485,0.80079997 2.3485,0.3619 2.079,0.13859999 1.5323,0.13859999 1.001,0.13859999 0.6622,0.4928 0.5159,1.1935 0.4928,1.2936 0.4543,1.3475 0.385,1.3475 0.3003,1.3475 0.2541,1.2705 0.2541,1.1242 V 0.1309 c 0,-0.1463 0.0385,-0.2156 0.1155,-0.2156 0.0231,0 0.0616,0.0231 0.1232,0.077 0.1386,0.1232 0.077,0.1001 0.2156,0.2387 0.2233,-0.2079 0.5005,-0.3157 0.8239,-0.3157 0.7315,0 1.2397,0.3773 1.2397,1.0857 z"
   id="path63" />
        </g><g
   transform="translate(22.5456)"
   id="g65"><path
   d="m 2.5564,0.9702 v 0.462 H 2.31 V 0.9856 c 0,-0.385 -0.1386,-0.8162 -0.4774,-0.8162 -0.3157,0 -0.4697,0.2618 -0.4697,0.7854 V 3.0415 H 2.4332 V 3.3341 H 1.3629 V 4.7355 H 1.1165 C 1.1087999,4.4814 1.0857,4.2581 1.0318,4.0579 0.9009,3.5497 0.6006,3.2879 0.1463,3.2648 V 3.0415 H 0.7854 V 0.9702 c 0,-0.4543 0.1386,-0.7469 0.4081,-0.8932 0.2079,-0.1078 0.4004,-0.1617 0.5929,-0.1617 0.5082,0 0.77,0.5082 0.77,1.0549 z"
   id="path64" />
        </g><g
   transform="translate(25.5409)"
   id="g66"><path
   d="m 3.1955,1.9327 c 0,0.8854999 -0.5159,1.5169 -1.3783,1.5169 -0.462,0 -0.847,-0.1771 -1.1627,-0.539 C 0.3619,2.5718 0.2156,2.1637 0.2156,1.694 0.2156,1.2089 0.3773,0.80079997 0.7007,0.4466 1.0241,0.0924 1.4245,-0.0847 1.9018999,-0.0847 2.3408,-0.0847 2.6796,0.0693 2.9106,0.3696 3.1031,0.6237 3.1955,0.8085 3.1955,0.9317 3.1955,1.0087 3.1493,1.0472 3.0646,1.0472 3.003,1.0472 2.9645,1.0087 2.9414,0.924 2.772,0.4158 2.4409,0.1617 1.9481,0.1617 1.6015999,0.1617 1.3321,0.3234 1.1242,0.6545 0.97789997,0.8932 0.9086,1.2551 0.9009,1.7479 h 2.079 c 0.1694,0 0.2156,0.0154 0.2156,0.1848 z M 2.5102,2.6873 C 2.5949,2.4332 2.6334,2.1868 2.6334,1.9635 H 0.9086 c 0.0231,0.5082 0.154,0.8546999 0.385,1.0318 0.1925,0.154 0.3618999,0.231 0.5236,0.231 0.3465,0 0.5775,-0.1771 0.693,-0.539 z"
   id="path65" />
        </g><g
   transform="translate(28.9597)"
   id="g67"><path
   d="m 2.8028,2.9106 c 0,0.3003 -0.2849,0.4928 -0.5852001,0.4928 C 1.8249,3.4034 1.5246,3.1724 1.3244,2.7027 V 3.4034 L 0.2156,3.3187 V 3.0261 C 0.4851,3.0261 0.6468,3.003 0.7084,2.9568 0.77,2.9106 0.8008,2.8105 0.8008,2.6334 V 0.6083 C 0.8008,0.462 0.7777,0.3696 0.7238,0.3388 0.6699,0.308 0.5005,0.2926 0.2156,0.2926 V 0 L 1.1011,0.0231 C 1.4245,0.0308 1.7556,0.0231 2.0867,0 V 0.2926 H 1.9018999 C 1.6478,0.2926 1.4861,0.3157 1.4322,0.3542 1.3783,0.3927 1.3552,0.4851 1.3552,0.6237 v 1.1627 c 0,0.3311 0.0616,0.6314 0.1771,0.8855 0.154,0.3311 0.3773,0.5005 0.6776,0.5082 -0.077,-0.077 -0.1155,-0.1694 -0.1155,-0.2772 0,-0.2387 0.1155,-0.3542 0.3542,-0.3542 0.2079,0 0.3542,0.1617 0.3542,0.3619 z"
   id="path66" />
        </g></g>
        </g>
    </g>
    <defs
   id="id-649f7271-3463-4d7e-a9d5-4d767ad7fc3f">
        <symbol
   id="id-8e6b504c-d1bd-40c6-becc-450e56f95415"
   overflow="visible">
            <path
   d="m 2.189,7.216 c 0,-0.11 0.121,-0.165 0.352,-0.165 0.44,0 0.66,-0.044 0.66,-0.143 0,-0.033 -0.022,-0.11 -0.055,-0.2530003 L 1.716,0.902 C 1.65,0.65999997 1.54,0.517 1.386,0.462 1.309,0.44 1.111,0.429 0.77,0.429 0.528,0.429 0.41799998,0.407 0.41799998,0.176 0.41799998,0.055 0.484,0 0.627,0 L 2.057,0.033 3.685,0 C 3.861,0 3.949,0.088 3.949,0.253 3.949,0.44 3.828,0.429 3.542,0.429 3.058,0.429 2.783,0.451 2.717,0.506 2.684,0.517 2.673,0.561 2.673,0.616 L 3.377,3.531 H 4.4 c 0.506,0 0.858,-0.022 0.858,-0.44 C 5.258,2.948 5.236,2.772 5.181,2.563 5.17,2.53 5.159,2.486 5.148,2.442 5.148,2.321 5.203,2.266 5.324,2.266 5.379,2.277 5.456,2.354 5.533,2.519 L 6.127,4.884 C 6.149,4.972 6.16,5.038 6.16,5.071 6.127,5.17 6.061,5.225 5.984,5.225 5.896,5.225 5.83,5.137 5.786,4.972 5.676,4.554 5.522,4.29 5.346,4.158 5.17,4.026 4.862,3.96 4.422,3.96 H 3.487 l 0.682,2.706 c 0.088,0.374 0.088,0.385 0.55,0.385 h 1.43 C 7.216,7.051 7.7,6.886 7.7,5.907 7.7,5.687 7.689,5.489 7.667,5.324 7.656,5.203 7.645,5.137 7.645,5.126 7.645,5.005 7.7,4.95 7.81,4.95 c 0.11,0 0.176,0.099 0.198,0.308 l 0.22,1.881 C 8.261,7.447 8.184,7.48 7.887,7.48 H 2.563 C 2.31,7.48 2.189,7.469 2.189,7.216 Z"
   id="path70" />
        </symbol>
        <symbol
   id="id-574996aa-3b6e-49f0-a1b9-bc62e8f55975"
   overflow="visible">
            <path
   d="M 1.1087999,0.0231 1.9635,0 V 0.3003 C 1.6863,0.3003 1.5169,0.308 1.4629999,0.3388 1.4090999,0.3696 1.386,0.462 1.386,0.6083 V 5.3438 L 0.2541,5.2591 V 4.9665 C 0.5236,4.9665 0.693,4.9434 0.7469,4.8972 0.8008,4.851 0.8316,4.7432 0.8316,4.5661 V 0.6083 C 0.8316,0.462 0.8085,0.3696 0.7546,0.3388 0.7007,0.308 0.5313,0.3003 0.2541,0.3003 V 0 Z"
   id="path71" />
        </symbol>
        <symbol
   id="id-c2f22cde-5e11-4de8-9af1-97360eeb0f7e"
   overflow="visible">
            <path
   d="m 1.4938,4.6277 c 0,0.231 -0.1925,0.4312 -0.4235,0.4312 -0.231,0 -0.4312,-0.2002 -0.4312,-0.4312 0,-0.231 0.1925,-0.4389 0.4235,-0.4389 0.2387,0 0.4312,0.2002 0.4312,0.4389 z M 1.1011,0.0231 1.9018999,0 V 0.3003 C 1.6478,0.3003 1.4938,0.3157 1.4476,0.3465 1.4014,0.3773 1.386,0.462 1.386,0.6006 V 3.4265 L 0.2849,3.3341 V 3.0415 c 0.2541,0 0.4158,-0.0231 0.4697,-0.0616 0.0539,-0.0385 0.077,-0.1463 0.077,-0.3234 V 0.6083 C 0.8316,0.462 0.8085,0.3696 0.7546,0.3388 0.7007,0.308 0.5313,0.3003 0.2541,0.3003 V 0 Z"
   id="path72" />
        </symbol>
        <symbol
   id="id-259d613b-bb82-4bd4-9a8b-f0e109943c26"
   overflow="visible">
            <path
   d="M 3.7191,0.7007 V 1.155 H 3.4726999 V 0.7007 c 0,-0.30030002 -0.0847,-0.4543 -0.2463999,-0.4543 -0.154,0 -0.2464,0.1925 -0.2464,0.3465 v 1.5169 c 0,0.2694999 -0.0308,0.4697 -0.0847,0.6083 C 2.7104,3.1724 2.1791,3.4496 1.6401,3.4496 1.0472,3.4496 0.462,3.1185 0.462,2.5641 c 0,-0.2541 0.1309,-0.385 0.385,-0.385 0.2541,0 0.3773,0.1232 0.3773,0.3773 0,0.2233 -0.1155001,0.3542 -0.3542,0.3773 0.1694,0.1925 0.4235,0.2926 0.7546,0.2926 0.4774,0 0.77,-0.4389 0.77,-0.9394 V 2.0328 C 1.7941,1.9943 1.3398,1.9018999 1.0241,1.7556 0.5082,1.5169 0.2464,1.1858 0.2464,0.7469 c 0,-0.2002 0.077,-0.3696 0.2233,-0.5005 0.2464,-0.2233 0.5852,-0.3311 1.0164,-0.3311 0.4543,0 0.7777,0.1925 0.9779,0.5852 0.0539,-0.2926 0.2695,-0.5467 0.6006,-0.5467 0.4080999,0 0.6545,0.32339998 0.6545,0.7469 z M 1.54,0.13859999 c -0.3542,0 -0.6468,0.26179999 -0.6468,0.61600001 0,0.7161 0.7469,1.0241 1.5015,1.0626 V 1.0857 C 2.3947,0.5698 2.0559,0.13859999 1.54,0.13859999 Z"
   id="path73" />
        </symbol>
        <symbol
   id="id-e5d9d039-9e08-489f-b8dc-9c8ff8c8a3b6"
   overflow="visible">
            <path
   d="M 2.772,1.001 C 2.772,1.5862 2.3716,1.9557999 1.5785,2.1098 1.2166,2.1791 0.9856,2.2638 0.8624,2.3485 0.7392,2.4332 0.6776,2.5564 0.6776,2.7027 c 0,0.3619 0.2695,0.539 0.8085,0.539 0.5236,0 0.8085,-0.2926 0.847,-0.8855 0.0077,-0.0616 0.0462,-0.0924 0.1232,-0.0924 0.0847,0 0.1309,0.0693 0.1309,0.2079 V 3.234 c 0,0.1463 -0.0385,0.2156 -0.1155,0.2156 C 2.387,3.4496 2.2714999,3.3109999 2.1945,3.2494 2.002,3.3803 1.7633,3.4496 1.4861,3.4496 0.80079997,3.4496 0.2541,3.1416 0.2541,2.4871 0.2541,2.2253 0.3619,2.002 0.5852,1.8249 0.85469997,1.6015999 1.1087999,1.5554 1.5939,1.4707 2.0944,1.3706 2.3485,1.1473 2.3485,0.80079997 2.3485,0.3619 2.079,0.13859999 1.5323,0.13859999 1.001,0.13859999 0.6622,0.4928 0.5159,1.1935 0.4928,1.2936 0.4543,1.3475 0.385,1.3475 0.3003,1.3475 0.2541,1.2705 0.2541,1.1242 V 0.1309 c 0,-0.1463 0.0385,-0.2156 0.1155,-0.2156 0.0231,0 0.0616,0.0231 0.1232,0.077 0.1386,0.1232 0.077,0.1001 0.2156,0.2387 0.2233,-0.2079 0.5005,-0.3157 0.8239,-0.3157 0.7315,0 1.2397,0.3773 1.2397,1.0857 z"
   id="path74" />
        </symbol>
        <symbol
   id="id-c74b5516-2015-4caa-8d98-c24627ec9fca"
   overflow="visible">
            <path
   d="m 0.8701,-1.5785 c 0.4235,0 0.7623,0.2926 1.001,0.8855 L 3.2031999,2.5564 C 3.3341,2.8644 3.5651,3.0184 3.9115999,3.0184 V 3.3187 C 3.6575,3.2956 3.4573,3.2879 3.3109999,3.2956 L 2.6257,3.3187 V 3.0261 C 2.8644,3.0184 2.9799,2.9183 2.9799,2.7258 2.9799,2.6796 2.9645,2.6257 2.9337,2.5564 L 2.2022,0.7546 1.386,2.7258 C 1.3629,2.7874 1.3475,2.8336 1.3398,2.8567 c 0,0.1078 0.1463,0.1617 0.4312,0.1617 V 3.3187 L 0.9086,3.2956 c -0.1848,-0.0077 -0.4389,0 -0.7623,0.0231 V 3.0184 c 0.40809997,0 0.5082,0.0154 0.616,-0.2464 L 1.8942,0.0077 1.7093999,-0.4235 C 1.5015,-0.9163 1.3552,-1.3475 0.8701,-1.3475 c -0.1078,0 -0.2002,0.0308 -0.2849,0.0847 0.1771,0.0385 0.2618,0.1540001 0.2618,0.3388 0,0.231 -0.11550003,0.3465 -0.3542,0.3465 -0.231,0 -0.3465,-0.1155 -0.3465,-0.3542 0,-0.3773 0.3465,-0.6468 0.7238,-0.6468 z"
   id="path75" />
        </symbol>
        <symbol
   id="id-dee030ca-609b-4663-b643-94f7bf71df4d"
   overflow="visible">
            <path
   d="m 2.5564,0.9702 v 0.462 H 2.31 V 0.9856 c 0,-0.385 -0.1386,-0.8162 -0.4774,-0.8162 -0.3157,0 -0.4697,0.2618 -0.4697,0.7854 V 3.0415 H 2.4332 V 3.3341 H 1.3629 V 4.7355 H 1.1165 C 1.1087999,4.4814 1.0857,4.2581 1.0318,4.0579 0.9009,3.5497 0.6006,3.2879 0.1463,3.2648 V 3.0415 H 0.7854 V 0.9702 c 0,-0.4543 0.1386,-0.7469 0.4081,-0.8932 0.2079,-0.1078 0.4004,-0.1617 0.5929,-0.1617 0.5082,0 0.77,0.5082 0.77,1.0549 z"
   id="path76" />
        </symbol>
        <symbol
   id="id-2dc7a43d-6f5f-4383-a891-fe3888b9996a"
   overflow="visible">
            <path
   d="m 3.1955,1.9327 c 0,0.8854999 -0.5159,1.5169 -1.3783,1.5169 -0.462,0 -0.847,-0.1771 -1.1627,-0.539 C 0.3619,2.5718 0.2156,2.1637 0.2156,1.694 0.2156,1.2089 0.3773,0.80079997 0.7007,0.4466 1.0241,0.0924 1.4245,-0.0847 1.9018999,-0.0847 2.3408,-0.0847 2.6796,0.0693 2.9106,0.3696 3.1031,0.6237 3.1955,0.8085 3.1955,0.9317 3.1955,1.0087 3.1493,1.0472 3.0646,1.0472 3.003,1.0472 2.9645,1.0087 2.9414,0.924 2.772,0.4158 2.4409,0.1617 1.9481,0.1617 1.6015999,0.1617 1.3321,0.3234 1.1242,0.6545 0.97789997,0.8932 0.9086,1.2551 0.9009,1.7479 h 2.079 c 0.1694,0 0.2156,0.0154 0.2156,0.1848 z M 2.5102,2.6873 C 2.5949,2.4332 2.6334,2.1868 2.6334,1.9635 H 0.9086 c 0.0231,0.5082 0.154,0.8546999 0.385,1.0318 0.1925,0.154 0.3618999,0.231 0.5236,0.231 0.3465,0 0.5775,-0.1771 0.693,-0.539 z"
   id="path77" />
        </symbol>
        <symbol
   id="id-30b17ac1-56e2-42f8-8139-f923e322a0f3"
   overflow="visible">
            <path
   d="m 2.8028,2.9106 c 0,0.3003 -0.2849,0.4928 -0.5852001,0.4928 C 1.8249,3.4034 1.5246,3.1724 1.3244,2.7027 V 3.4034 L 0.2156,3.3187 V 3.0261 C 0.4851,3.0261 0.6468,3.003 0.7084,2.9568 0.77,2.9106 0.8008,2.8105 0.8008,2.6334 V 0.6083 C 0.8008,0.462 0.7777,0.3696 0.7238,0.3388 0.6699,0.308 0.5005,0.2926 0.2156,0.2926 V 0 L 1.1011,0.0231 C 1.4245,0.0308 1.7556,0.0231 2.0867,0 V 0.2926 H 1.9018999 C 1.6478,0.2926 1.4861,0.3157 1.4322,0.3542 1.3783,0.3927 1.3552,0.4851 1.3552,0.6237 v 1.1627 c 0,0.3311 0.0616,0.6314 0.1771,0.8855 0.154,0.3311 0.3773,0.5005 0.6776,0.5082 -0.077,-0.077 -0.1155,-0.1694 -0.1155,-0.2772 0,-0.2387 0.1155,-0.3542 0.3542,-0.3542 0.2079,0 0.3542,0.1617 0.3542,0.3619 z"
   id="path78" />
        </symbol>
    </defs>
</g><g
     transform="matrix(1.36781 0 0 1.36781 -11.8708 69.6994)"
     ns4:version="1.11.0"
     ns4:texconverter="typst"
     ns4:pdfconverter="inkscape"
     ns4:text="$F_&quot;Pelle&quot;$"
     ns4:preamble="/home/sermuns/.config/inkscape/extensions/textext/default_preamble_typst.typ"
     ns4:scale="3.877242618106545"
     ns4:alignment="middle center"
     ns4:inkscapeversion="1.4"
     ns4:jacobian_sqrt="1.36781"
     id="g53"><g
   id="g89">
        <g
   transform="translate(70.8661, 78.3791)"
   id="g81">
            <g
   class="typst-text"
   transform="scale(1, -1)"
   id="g80">
                <g
   id="g79"><path
   d="M 2.189 7.216 C 2.189 7.106 2.31 7.051 2.541 7.051 C 2.981 7.051 3.201 7.007 3.201 6.908 C 3.201 6.875 3.179 6.798 3.146 6.6549997 L 1.716 0.902 C 1.65 0.65999997 1.54 0.517 1.386 0.462 C 1.309 0.44 1.111 0.429 0.77 0.429 C 0.528 0.429 0.41799998 0.407 0.41799998 0.176 C 0.41799998 0.055 0.484 0 0.627 0 L 2.057 0.033 L 3.685 0 C 3.861 0 3.949 0.088 3.949 0.253 C 3.949 0.44 3.828 0.429 3.542 0.429 C 3.058 0.429 2.783 0.451 2.717 0.506 C 2.684 0.517 2.673 0.561 2.673 0.616 L 3.377 3.531 L 4.4 3.531 C 4.906 3.531 5.258 3.509 5.258 3.091 C 5.258 2.948 5.236 2.772 5.1809998 2.563 C 5.17 2.53 5.159 2.486 5.148 2.442 C 5.148 2.321 5.203 2.266 5.324 2.266 C 5.379 2.277 5.456 2.354 5.533 2.519 L 6.127 4.884 C 6.149 4.972 6.16 5.038 6.16 5.071 C 6.127 5.17 6.061 5.225 5.984 5.225 C 5.896 5.225 5.83 5.137 5.786 4.972 C 5.676 4.554 5.522 4.29 5.346 4.158 C 5.17 4.026 4.862 3.96 4.422 3.96 L 3.487 3.96 L 4.169 6.666 C 4.257 7.04 4.257 7.051 4.719 7.051 L 6.149 7.051 C 7.216 7.051 7.7 6.886 7.7 5.907 C 7.7 5.687 7.689 5.489 7.667 5.324 C 7.656 5.203 7.645 5.137 7.645 5.126 C 7.645 5.005 7.7 4.95 7.81 4.95 C 7.92 4.95 7.986 5.049 8.008 5.258 L 8.228 7.139 C 8.261 7.447 8.184 7.48 7.887 7.48 L 2.563 7.48 C 2.31 7.48 2.189 7.469 2.189 7.216 Z "
   id="path79" />
        </g></g>
        </g>
        <g
   transform="translate(77.9391, 81.0961)"
   id="g88">
            <g
   class="typst-text"
   transform="scale(1, -1)"
   id="g87">
                <g
   id="g82"><path
   d="M 3.0415 2.4024 C 3.4804 2.4024 3.8731 2.5256 4.2196 2.772 C 4.6123 3.0492 4.8048 3.3957 4.8048 3.8115 C 4.8048 4.2504 4.6046 4.6123 4.2042 4.8895 C 3.85 5.1359 3.4419 5.2591 2.9799 5.2591 L 0.2695 5.2591 L 0.2695 4.9588 L 0.4851 4.9588 C 0.7546 4.9588 0.9163 4.9357 0.9702 4.8972 C 1.0241 4.8587 1.0549 4.774 1.0549 4.6354 L 1.0549 0.6237 C 1.0549 0.4851 1.0241 0.3927 0.9702 0.3542 C 0.9163 0.3157 0.7546 0.3003 0.4851 0.3003 L 0.2695 0.3003 L 0.2695 0 C 0.4697 0.0154 0.85469997 0.0231 1.4168 0.0231 C 1.9866 0.0231 2.3716 0.0154 2.5718 0 L 2.5718 0.3003 L 2.3562 0.3003 C 2.0867 0.3003 1.925 0.3157 1.8711 0.3542 C 1.8172 0.3927 1.7864 0.4851 1.7864 0.6237 L 1.7864 2.4024 Z M 2.1098 4.9588 L 2.7874 4.9588 C 3.0107 4.9588 3.2031999 4.928 3.3648999 4.8741 C 3.8037999 4.7124 3.9578 4.389 3.9578 3.8115 C 3.9578 3.5959 3.9347 3.4111 3.8808 3.2570999 C 3.7498999 2.8720999 3.3341 2.6642 2.7874 2.6642 L 1.7633 2.6642 L 1.7633 4.6893 C 1.7633 4.9665 1.8095 4.9588 2.1098 4.9588 Z "
   id="path81" />
        </g><g
   transform="translate(5.2437, 0)"
   id="g83"><path
   d="M 3.1955 1.9327 C 3.1955 2.8181999 2.6796 3.4496 1.8172 3.4496 C 1.3552 3.4496 0.9702 3.2725 0.6545 2.9106 C 0.3619 2.5718 0.2156 2.1637 0.2156 1.694 C 0.2156 1.2089 0.3773 0.80079997 0.7007 0.4466 C 1.0241 0.0924 1.4245 -0.0847 1.9018999 -0.0847 C 2.3408 -0.0847 2.6796 0.069299996 2.9106 0.3696 C 3.1031 0.6237 3.1955 0.8085 3.1955 0.9317 C 3.1955 1.0087 3.1493 1.0472 3.0646 1.0472 C 3.003 1.0472 2.9645 1.0087 2.9414 0.924 C 2.772 0.4158 2.4409 0.1617 1.9481 0.1617 C 1.6015999 0.1617 1.3321 0.3234 1.1242 0.6545 C 0.97789997 0.8932 0.9086 1.2551 0.9009 1.7479 L 2.9799 1.7479 C 3.1493 1.7479 3.1955 1.7633 3.1955 1.9327 Z M 2.5102 2.6873 C 2.5949 2.4332 2.6334 2.1868 2.6334 1.9635 L 0.9086 1.9635 C 0.9317 2.4717 1.0626 2.8181999 1.2936 2.9953 C 1.4861 3.1493 1.6554999 3.2263 1.8172 3.2263 C 2.1637 3.2263 2.3947 3.0492 2.5102 2.6873 Z "
   id="path82" />
        </g><g
   transform="translate(8.6625, 0)"
   id="g84"><path
   d="M 1.1087999 0.0231 L 1.9635 0 L 1.9635 0.3003 C 1.6863 0.3003 1.5169 0.308 1.4629999 0.3388 C 1.4090999 0.3696 1.386 0.462 1.386 0.6083 L 1.386 5.3438 L 0.2541 5.2591 L 0.2541 4.9665 C 0.5236 4.9665 0.693 4.9434 0.7469 4.8972 C 0.80079997 4.851 0.8316 4.7432 0.8316 4.5661 L 0.8316 0.6083 C 0.8316 0.462 0.8085 0.3696 0.7546 0.3388 C 0.7007 0.308 0.5313 0.3003 0.2541 0.3003 L 0.2541 0 Z "
   id="path83" />
        </g><g
   transform="translate(10.8031, 0)"
   id="g85"><path
   d="M 1.1087999 0.0231 L 1.9635 0 L 1.9635 0.3003 C 1.6863 0.3003 1.5169 0.308 1.4629999 0.3388 C 1.4090999 0.3696 1.386 0.462 1.386 0.6083 L 1.386 5.3438 L 0.2541 5.2591 L 0.2541 4.9665 C 0.5236 4.9665 0.693 4.9434 0.7469 4.8972 C 0.80079997 4.851 0.8316 4.7432 0.8316 4.5661 L 0.8316 0.6083 C 0.8316 0.462 0.8085 0.3696 0.7546 0.3388 C 0.7007 0.308 0.5313 0.3003 0.2541 0.3003 L 0.2541 0 Z "
   id="path84" />
        </g><g
   transform="translate(12.9437, 0)"
   id="g86"><path
   d="M 3.1955 1.9327 C 3.1955 2.8181999 2.6796 3.4496 1.8172 3.4496 C 1.3552 3.4496 0.9702 3.2725 0.6545 2.9106 C 0.3619 2.5718 0.2156 2.1637 0.2156 1.694 C 0.2156 1.2089 0.3773 0.80079997 0.7007 0.4466 C 1.0241 0.0924 1.4245 -0.0847 1.9018999 -0.0847 C 2.3408 -0.0847 2.6796 0.069299996 2.9106 0.3696 C 3.1031 0.6237 3.1955 0.8085 3.1955 0.9317 C 3.1955 1.0087 3.1493 1.0472 3.0646 1.0472 C 3.003 1.0472 2.9645 1.0087 2.9414 0.924 C 2.772 0.4158 2.4409 0.1617 1.9481 0.1617 C 1.6015999 0.1617 1.3321 0.3234 1.1242 0.6545 C 0.97789997 0.8932 0.9086 1.2551 0.9009 1.7479 L 2.9799 1.7479 C 3.1493 1.7479 3.1955 1.7633 3.1955 1.9327 Z M 2.5102 2.6873 C 2.5949 2.4332 2.6334 2.1868 2.6334 1.9635 L 0.9086 1.9635 C 0.9317 2.4717 1.0626 2.8181999 1.2936 2.9953 C 1.4861 3.1493 1.6554999 3.2263 1.8172 3.2263 C 2.1637 3.2263 2.3947 3.0492 2.5102 2.6873 Z "
   id="path85" />
        </g></g>
        </g>
    </g>
    <defs
   id="id-f369c5b7-681d-4d4c-bad3-35cfe5f510d7">
        <symbol
   id="id-162ff3c5-8399-4830-9b7e-0e5e3b78cf65"
   overflow="visible">
            <path
   d="M 2.189 7.216 C 2.189 7.106 2.31 7.051 2.541 7.051 C 2.981 7.051 3.201 7.007 3.201 6.908 C 3.201 6.875 3.179 6.798 3.146 6.6549997 L 1.716 0.902 C 1.65 0.65999997 1.54 0.517 1.386 0.462 C 1.309 0.44 1.111 0.429 0.77 0.429 C 0.528 0.429 0.41799998 0.407 0.41799998 0.176 C 0.41799998 0.055 0.484 0 0.627 0 L 2.057 0.033 L 3.685 0 C 3.861 0 3.949 0.088 3.949 0.253 C 3.949 0.44 3.828 0.429 3.542 0.429 C 3.058 0.429 2.783 0.451 2.717 0.506 C 2.684 0.517 2.673 0.561 2.673 0.616 L 3.377 3.531 L 4.4 3.531 C 4.906 3.531 5.258 3.509 5.258 3.091 C 5.258 2.948 5.236 2.772 5.1809998 2.563 C 5.17 2.53 5.159 2.486 5.148 2.442 C 5.148 2.321 5.203 2.266 5.324 2.266 C 5.379 2.277 5.456 2.354 5.533 2.519 L 6.127 4.884 C 6.149 4.972 6.16 5.038 6.16 5.071 C 6.127 5.17 6.061 5.225 5.984 5.225 C 5.896 5.225 5.83 5.137 5.786 4.972 C 5.676 4.554 5.522 4.29 5.346 4.158 C 5.17 4.026 4.862 3.96 4.422 3.96 L 3.487 3.96 L 4.169 6.666 C 4.257 7.04 4.257 7.051 4.719 7.051 L 6.149 7.051 C 7.216 7.051 7.7 6.886 7.7 5.907 C 7.7 5.687 7.689 5.489 7.667 5.324 C 7.656 5.203 7.645 5.137 7.645 5.126 C 7.645 5.005 7.7 4.95 7.81 4.95 C 7.92 4.95 7.986 5.049 8.008 5.258 L 8.228 7.139 C 8.261 7.447 8.184 7.48 7.887 7.48 L 2.563 7.48 C 2.31 7.48 2.189 7.469 2.189 7.216 Z "
   id="path89" />
        </symbol>
        <symbol
   id="id-ec2ac7f1-006b-465d-8928-fa695b5f1342"
   overflow="visible">
            <path
   d="M 3.0415 2.4024 C 3.4804 2.4024 3.8731 2.5256 4.2196 2.772 C 4.6123 3.0492 4.8048 3.3957 4.8048 3.8115 C 4.8048 4.2504 4.6046 4.6123 4.2042 4.8895 C 3.85 5.1359 3.4419 5.2591 2.9799 5.2591 L 0.2695 5.2591 L 0.2695 4.9588 L 0.4851 4.9588 C 0.7546 4.9588 0.9163 4.9357 0.9702 4.8972 C 1.0241 4.8587 1.0549 4.774 1.0549 4.6354 L 1.0549 0.6237 C 1.0549 0.4851 1.0241 0.3927 0.9702 0.3542 C 0.9163 0.3157 0.7546 0.3003 0.4851 0.3003 L 0.2695 0.3003 L 0.2695 0 C 0.4697 0.0154 0.85469997 0.0231 1.4168 0.0231 C 1.9866 0.0231 2.3716 0.0154 2.5718 0 L 2.5718 0.3003 L 2.3562 0.3003 C 2.0867 0.3003 1.925 0.3157 1.8711 0.3542 C 1.8172 0.3927 1.7864 0.4851 1.7864 0.6237 L 1.7864 2.4024 Z M 2.1098 4.9588 L 2.7874 4.9588 C 3.0107 4.9588 3.2031999 4.928 3.3648999 4.8741 C 3.8037999 4.7124 3.9578 4.389 3.9578 3.8115 C 3.9578 3.5959 3.9347 3.4111 3.8808 3.2570999 C 3.7498999 2.8720999 3.3341 2.6642 2.7874 2.6642 L 1.7633 2.6642 L 1.7633 4.6893 C 1.7633 4.9665 1.8095 4.9588 2.1098 4.9588 Z "
   id="path90" />
        </symbol>
        <symbol
   id="id-f4482f3c-d6bc-480b-b7dc-5f897b73ce71"
   overflow="visible">
            <path
   d="M 3.1955 1.9327 C 3.1955 2.8181999 2.6796 3.4496 1.8172 3.4496 C 1.3552 3.4496 0.9702 3.2725 0.6545 2.9106 C 0.3619 2.5718 0.2156 2.1637 0.2156 1.694 C 0.2156 1.2089 0.3773 0.80079997 0.7007 0.4466 C 1.0241 0.0924 1.4245 -0.0847 1.9018999 -0.0847 C 2.3408 -0.0847 2.6796 0.069299996 2.9106 0.3696 C 3.1031 0.6237 3.1955 0.8085 3.1955 0.9317 C 3.1955 1.0087 3.1493 1.0472 3.0646 1.0472 C 3.003 1.0472 2.9645 1.0087 2.9414 0.924 C 2.772 0.4158 2.4409 0.1617 1.9481 0.1617 C 1.6015999 0.1617 1.3321 0.3234 1.1242 0.6545 C 0.97789997 0.8932 0.9086 1.2551 0.9009 1.7479 L 2.9799 1.7479 C 3.1493 1.7479 3.1955 1.7633 3.1955 1.9327 Z M 2.5102 2.6873 C 2.5949 2.4332 2.6334 2.1868 2.6334 1.9635 L 0.9086 1.9635 C 0.9317 2.4717 1.0626 2.8181999 1.2936 2.9953 C 1.4861 3.1493 1.6554999 3.2263 1.8172 3.2263 C 2.1637 3.2263 2.3947 3.0492 2.5102 2.6873 Z "
   id="path91" />
        </symbol>
        <symbol
   id="id-2dbe8f14-00b2-4dde-b2cf-802f65f343a3"
   overflow="visible">
            <path
   d="M 1.1087999 0.0231 L 1.9635 0 L 1.9635 0.3003 C 1.6863 0.3003 1.5169 0.308 1.4629999 0.3388 C 1.4090999 0.3696 1.386 0.462 1.386 0.6083 L 1.386 5.3438 L 0.2541 5.2591 L 0.2541 4.9665 C 0.5236 4.9665 0.693 4.9434 0.7469 4.8972 C 0.80079997 4.851 0.8316 4.7432 0.8316 4.5661 L 0.8316 0.6083 C 0.8316 0.462 0.8085 0.3696 0.7546 0.3388 C 0.7007 0.308 0.5313 0.3003 0.2541 0.3003 L 0.2541 0 Z "
   id="path92" />
        </symbol>
    </defs>
</g></svg>
