<?xml version="1.0" encoding="UTF-8" standalone="no"?>
<!-- Created with Inkscape (http://www.inkscape.org/) -->

<svg
   width="266.56268mm"
   height="117.70762mm"
   viewBox="0 0 1007.481 444.8792"
   version="1.1"
   id="svg1"
   inkscape:version="1.4 (unknown)"
   sodipodi:docname="mekaniker.svg"
   xml:space="preserve"
   xmlns:inkscape="http://www.inkscape.org/namespaces/inkscape"
   xmlns:sodipodi="http://sodipodi.sourceforge.net/DTD/sodipodi-0.dtd"
   xmlns="http://www.w3.org/2000/svg"
   xmlns:svg="http://www.w3.org/2000/svg"
   xmlns:ns2="http://www.iki.fi/pav/software/textext/"><sodipodi:namedview
     id="namedview1"
     pagecolor="#505050"
     bordercolor="#eeeeee"
     borderopacity="1"
     inkscape:showpageshadow="0"
     inkscape:pageopacity="0"
     inkscape:pagecheckerboard="0"
     inkscape:deskcolor="#505050"
     inkscape:document-units="mm"
     inkscape:zoom="1.4142136"
     inkscape:cx="399.16178"
     inkscape:cy="318.90516"
     inkscape:window-width="2560"
     inkscape:window-height="1403"
     inkscape:window-x="0"
     inkscape:window-y="0"
     inkscape:window-maximized="1"
     inkscape:current-layer="g67" /><defs
     id="defs1"><marker
       style="overflow:visible"
       id="Triangle"
       refX="0"
       refY="0"
       orient="auto-start-reverse"
       inkscape:stockid="Triangle arrow"
       markerWidth="1"
       markerHeight="1"
       viewBox="0 0 1 1"
       inkscape:isstock="true"
       inkscape:collect="always"
       preserveAspectRatio="xMidYMid"><path
         transform="scale(0.5)"
         style="fill:context-stroke;fill-rule:evenodd;stroke:context-stroke;stroke-width:1pt"
         d="M 5.77,0 -2.88,5 V -5 Z"
         id="path135" /></marker><marker
       style="overflow:visible"
       id="marker9"
       refX="0"
       refY="0"
       orient="auto"
       inkscape:stockid="Stop"
       markerWidth="1"
       markerHeight="1"
       viewBox="0 0 1 1"
       inkscape:isstock="true"
       inkscape:collect="always"
       preserveAspectRatio="xMidYMid"><path
         style="fill:none;stroke:context-stroke;stroke-width:1"
         d="M 0,4 V -4"
         id="path9" /></marker><marker
       style="overflow:visible"
       id="Stop"
       refX="0"
       refY="0"
       orient="auto"
       inkscape:stockid="Stop"
       markerWidth="1"
       markerHeight="1"
       viewBox="0 0 1 1"
       inkscape:isstock="true"
       inkscape:collect="always"
       preserveAspectRatio="xMidYMid"><path
         style="fill:none;stroke:context-stroke;stroke-width:1"
         d="M 0,4 V -4"
         id="path23" /></marker><inkscape:path-effect
       effect="skeletal"
       id="path-effect112"
       is_visible="true"
       lpeversion="1"
       pattern="M 0,18.867925 C 0,8.4528305 8.4528305,0 18.867925,0 29.28302,0 37.735851,8.4528305 37.735851,18.867925 c 0,10.415095 -8.452831,18.867926 -18.867926,18.867926 C 8.4528305,37.735851 0,29.28302 0,18.867925 Z"
       copytype="single_stretched"
       prop_scale="1.2021984"
       scale_y_rel="false"
       spacing="0"
       normal_offset="0"
       tang_offset="0"
       prop_units="false"
       vertical_pattern="false"
       hide_knot="false"
       fuse_tolerance="0" /><inkscape:path-effect
       effect="skeletal"
       id="path-effect110"
       is_visible="true"
       lpeversion="1"
       pattern="M 0,18.867925 C 0,8.4528305 8.4528305,0 18.867925,0 29.28302,0 37.735851,8.4528305 37.735851,18.867925 c 0,10.415095 -8.452831,18.867926 -18.867926,18.867926 C 8.4528305,37.735851 0,29.28302 0,18.867925 Z"
       copytype="single_stretched"
       prop_scale="1"
       scale_y_rel="false"
       spacing="0"
       normal_offset="0"
       tang_offset="0"
       prop_units="false"
       vertical_pattern="false"
       hide_knot="false"
       fuse_tolerance="0" /><inkscape:path-effect
       effect="skeletal"
       id="path-effect108"
       is_visible="true"
       lpeversion="1"
       pattern="M 0,18.867925 C 0,8.4528305 8.4528305,0 18.867925,0 29.28302,0 37.735851,8.4528305 37.735851,18.867925 c 0,10.415095 -8.452831,18.867926 -18.867926,18.867926 C 8.4528305,37.735851 0,29.28302 0,18.867925 Z"
       copytype="single_stretched"
       prop_scale="1"
       scale_y_rel="false"
       spacing="0"
       normal_offset="0"
       tang_offset="0"
       prop_units="false"
       vertical_pattern="false"
       hide_knot="false"
       fuse_tolerance="0" /><inkscape:path-effect
       effect="skeletal"
       id="path-effect106"
       is_visible="true"
       lpeversion="1"
       pattern="M 0,18.867925 C 0,8.4528305 8.4528305,0 18.867925,0 29.28302,0 37.735851,8.4528305 37.735851,18.867925 c 0,10.415095 -8.452831,18.867926 -18.867926,18.867926 C 8.4528305,37.735851 0,29.28302 0,18.867925 Z"
       copytype="single_stretched"
       prop_scale="1"
       scale_y_rel="false"
       spacing="0"
       normal_offset="0"
       tang_offset="0"
       prop_units="false"
       vertical_pattern="false"
       hide_knot="false"
       fuse_tolerance="0" /><inkscape:path-effect
       effect="skeletal"
       id="path-effect93"
       is_visible="true"
       lpeversion="1"
       pattern="M 0,18.867925 C 0,8.4528305 8.4528305,0 18.867925,0 29.28302,0 37.735851,8.4528305 37.735851,18.867925 c 0,10.415095 -8.452831,18.867926 -18.867926,18.867926 C 8.4528305,37.735851 0,29.28302 0,18.867925 Z"
       copytype="single_stretched"
       prop_scale="1.2021984"
       scale_y_rel="false"
       spacing="0"
       normal_offset="0"
       tang_offset="0"
       prop_units="false"
       vertical_pattern="false"
       hide_knot="false"
       fuse_tolerance="0" /><inkscape:path-effect
       effect="skeletal"
       id="path-effect91"
       is_visible="true"
       lpeversion="1"
       pattern="M 0,18.867925 C 0,8.4528305 8.4528305,0 18.867925,0 29.28302,0 37.735851,8.4528305 37.735851,18.867925 c 0,10.415095 -8.452831,18.867926 -18.867926,18.867926 C 8.4528305,37.735851 0,29.28302 0,18.867925 Z"
       copytype="single_stretched"
       prop_scale="1"
       scale_y_rel="false"
       spacing="0"
       normal_offset="0"
       tang_offset="0"
       prop_units="false"
       vertical_pattern="false"
       hide_knot="false"
       fuse_tolerance="0" /><inkscape:path-effect
       effect="skeletal"
       id="path-effect89"
       is_visible="true"
       lpeversion="1"
       pattern="M 0,18.867925 C 0,8.4528305 8.4528305,0 18.867925,0 29.28302,0 37.735851,8.4528305 37.735851,18.867925 c 0,10.415095 -8.452831,18.867926 -18.867926,18.867926 C 8.4528305,37.735851 0,29.28302 0,18.867925 Z"
       copytype="single_stretched"
       prop_scale="1"
       scale_y_rel="false"
       spacing="0"
       normal_offset="0"
       tang_offset="0"
       prop_units="false"
       vertical_pattern="false"
       hide_knot="false"
       fuse_tolerance="0" /><inkscape:path-effect
       effect="skeletal"
       id="path-effect87"
       is_visible="true"
       lpeversion="1"
       pattern="M 0,18.867925 C 0,8.4528305 8.4528305,0 18.867925,0 29.28302,0 37.735851,8.4528305 37.735851,18.867925 c 0,10.415095 -8.452831,18.867926 -18.867926,18.867926 C 8.4528305,37.735851 0,29.28302 0,18.867925 Z"
       copytype="single_stretched"
       prop_scale="1"
       scale_y_rel="false"
       spacing="0"
       normal_offset="0"
       tang_offset="0"
       prop_units="false"
       vertical_pattern="false"
       hide_knot="false"
       fuse_tolerance="0" /><inkscape:path-effect
       effect="skeletal"
       id="path-effect74"
       is_visible="true"
       lpeversion="1"
       pattern="M 0,18.867925 C 0,8.4528305 8.4528305,0 18.867925,0 29.28302,0 37.735851,8.4528305 37.735851,18.867925 c 0,10.415095 -8.452831,18.867926 -18.867926,18.867926 C 8.4528305,37.735851 0,29.28302 0,18.867925 Z"
       copytype="single_stretched"
       prop_scale="1.2021984"
       scale_y_rel="false"
       spacing="0"
       normal_offset="0"
       tang_offset="0"
       prop_units="false"
       vertical_pattern="false"
       hide_knot="false"
       fuse_tolerance="0" /><inkscape:path-effect
       effect="skeletal"
       id="path-effect72"
       is_visible="true"
       lpeversion="1"
       pattern="M 0,18.867925 C 0,8.4528305 8.4528305,0 18.867925,0 29.28302,0 37.735851,8.4528305 37.735851,18.867925 c 0,10.415095 -8.452831,18.867926 -18.867926,18.867926 C 8.4528305,37.735851 0,29.28302 0,18.867925 Z"
       copytype="single_stretched"
       prop_scale="1"
       scale_y_rel="false"
       spacing="0"
       normal_offset="0"
       tang_offset="0"
       prop_units="false"
       vertical_pattern="false"
       hide_knot="false"
       fuse_tolerance="0" /><inkscape:path-effect
       effect="skeletal"
       id="path-effect70"
       is_visible="true"
       lpeversion="1"
       pattern="M 0,18.867925 C 0,8.4528305 8.4528305,0 18.867925,0 29.28302,0 37.735851,8.4528305 37.735851,18.867925 c 0,10.415095 -8.452831,18.867926 -18.867926,18.867926 C 8.4528305,37.735851 0,29.28302 0,18.867925 Z"
       copytype="single_stretched"
       prop_scale="1"
       scale_y_rel="false"
       spacing="0"
       normal_offset="0"
       tang_offset="0"
       prop_units="false"
       vertical_pattern="false"
       hide_knot="false"
       fuse_tolerance="0" /><inkscape:path-effect
       effect="skeletal"
       id="path-effect68"
       is_visible="true"
       lpeversion="1"
       pattern="M 0,18.867925 C 0,8.4528305 8.4528305,0 18.867925,0 29.28302,0 37.735851,8.4528305 37.735851,18.867925 c 0,10.415095 -8.452831,18.867926 -18.867926,18.867926 C 8.4528305,37.735851 0,29.28302 0,18.867925 Z"
       copytype="single_stretched"
       prop_scale="1"
       scale_y_rel="false"
       spacing="0"
       normal_offset="0"
       tang_offset="0"
       prop_units="false"
       vertical_pattern="false"
       hide_knot="false"
       fuse_tolerance="0" /><inkscape:path-effect
       effect="skeletal"
       id="path-effect48"
       is_visible="true"
       lpeversion="1"
       pattern="M 0,18.867925 C 0,8.4528305 8.4528305,0 18.867925,0 29.28302,0 37.735851,8.4528305 37.735851,18.867925 c 0,10.415095 -8.452831,18.867926 -18.867926,18.867926 C 8.4528305,37.735851 0,29.28302 0,18.867925 Z"
       copytype="single_stretched"
       prop_scale="1.2021984"
       scale_y_rel="false"
       spacing="0"
       normal_offset="0"
       tang_offset="0"
       prop_units="false"
       vertical_pattern="false"
       hide_knot="false"
       fuse_tolerance="0" /><inkscape:path-effect
       effect="skeletal"
       id="path-effect46"
       is_visible="true"
       lpeversion="1"
       pattern="M 0,18.867925 C 0,8.4528305 8.4528305,0 18.867925,0 29.28302,0 37.735851,8.4528305 37.735851,18.867925 c 0,10.415095 -8.452831,18.867926 -18.867926,18.867926 C 8.4528305,37.735851 0,29.28302 0,18.867925 Z"
       copytype="single_stretched"
       prop_scale="1"
       scale_y_rel="false"
       spacing="0"
       normal_offset="0"
       tang_offset="0"
       prop_units="false"
       vertical_pattern="false"
       hide_knot="false"
       fuse_tolerance="0" /><inkscape:path-effect
       effect="skeletal"
       id="path-effect44"
       is_visible="true"
       lpeversion="1"
       pattern="M 0,18.867925 C 0,8.4528305 8.4528305,0 18.867925,0 29.28302,0 37.735851,8.4528305 37.735851,18.867925 c 0,10.415095 -8.452831,18.867926 -18.867926,18.867926 C 8.4528305,37.735851 0,29.28302 0,18.867925 Z"
       copytype="single_stretched"
       prop_scale="1"
       scale_y_rel="false"
       spacing="0"
       normal_offset="0"
       tang_offset="0"
       prop_units="false"
       vertical_pattern="false"
       hide_knot="false"
       fuse_tolerance="0" /><inkscape:path-effect
       effect="skeletal"
       id="path-effect42"
       is_visible="true"
       lpeversion="1"
       pattern="M 0,18.867925 C 0,8.4528305 8.4528305,0 18.867925,0 29.28302,0 37.735851,8.4528305 37.735851,18.867925 c 0,10.415095 -8.452831,18.867926 -18.867926,18.867926 C 8.4528305,37.735851 0,29.28302 0,18.867925 Z"
       copytype="single_stretched"
       prop_scale="1"
       scale_y_rel="false"
       spacing="0"
       normal_offset="0"
       tang_offset="0"
       prop_units="false"
       vertical_pattern="false"
       hide_knot="false"
       fuse_tolerance="0" /><inkscape:path-effect
       effect="skeletal"
       id="path-effect18"
       is_visible="true"
       lpeversion="1"
       pattern="M 0,18.867925 C 0,8.4528305 8.4528305,0 18.867925,0 29.28302,0 37.735851,8.4528305 37.735851,18.867925 c 0,10.415095 -8.452831,18.867926 -18.867926,18.867926 C 8.4528305,37.735851 0,29.28302 0,18.867925 Z"
       copytype="single_stretched"
       prop_scale="1"
       scale_y_rel="false"
       spacing="0"
       normal_offset="0"
       tang_offset="0"
       prop_units="false"
       vertical_pattern="false"
       hide_knot="false"
       fuse_tolerance="0" /><inkscape:path-effect
       effect="skeletal"
       id="path-effect16"
       is_visible="true"
       lpeversion="1"
       pattern="M 0,18.867925 C 0,8.4528305 8.4528305,0 18.867925,0 29.28302,0 37.735851,8.4528305 37.735851,18.867925 c 0,10.415095 -8.452831,18.867926 -18.867926,18.867926 C 8.4528305,37.735851 0,29.28302 0,18.867925 Z"
       copytype="single_stretched"
       prop_scale="1"
       scale_y_rel="false"
       spacing="0"
       normal_offset="0"
       tang_offset="0"
       prop_units="false"
       vertical_pattern="false"
       hide_knot="false"
       fuse_tolerance="0" /><inkscape:path-effect
       effect="skeletal"
       id="path-effect14"
       is_visible="true"
       lpeversion="1"
       pattern="M 0,18.867925 C 0,8.4528305 8.4528305,0 18.867925,0 29.28302,0 37.735851,8.4528305 37.735851,18.867925 c 0,10.415095 -8.452831,18.867926 -18.867926,18.867926 C 8.4528305,37.735851 0,29.28302 0,18.867925 Z"
       copytype="single_stretched"
       prop_scale="1"
       scale_y_rel="false"
       spacing="0"
       normal_offset="0"
       tang_offset="0"
       prop_units="false"
       vertical_pattern="false"
       hide_knot="false"
       fuse_tolerance="0" /><inkscape:path-effect
       effect="skeletal"
       id="path-effect12"
       is_visible="true"
       lpeversion="1"
       pattern="M 0,18.867925 C 0,8.4528305 8.4528305,0 18.867925,0 29.28302,0 37.735851,8.4528305 37.735851,18.867925 c 0,10.415095 -8.452831,18.867926 -18.867926,18.867926 C 8.4528305,37.735851 0,29.28302 0,18.867925 Z"
       copytype="single_stretched"
       prop_scale="1"
       scale_y_rel="false"
       spacing="0"
       normal_offset="0"
       tang_offset="0"
       prop_units="false"
       vertical_pattern="false"
       hide_knot="false"
       fuse_tolerance="0" /><inkscape:path-effect
       effect="skeletal"
       id="path-effect10"
       is_visible="true"
       lpeversion="1"
       pattern="M 0,18.867925 C 0,8.4528305 8.4528305,0 18.867925,0 29.28302,0 37.735851,8.4528305 37.735851,18.867925 c 0,10.415095 -8.452831,18.867926 -18.867926,18.867926 C 8.4528305,37.735851 0,29.28302 0,18.867925 Z"
       copytype="single_stretched"
       prop_scale="1"
       scale_y_rel="false"
       spacing="0"
       normal_offset="0"
       tang_offset="0"
       prop_units="false"
       vertical_pattern="false"
       hide_knot="false"
       fuse_tolerance="0" /><inkscape:path-effect
       effect="skeletal"
       id="path-effect8"
       is_visible="true"
       lpeversion="1"
       pattern="M 0,18.867925 C 0,8.4528305 8.4528305,0 18.867925,0 29.28302,0 37.735851,8.4528305 37.735851,18.867925 c 0,10.415095 -8.452831,18.867926 -18.867926,18.867926 C 8.4528305,37.735851 0,29.28302 0,18.867925 Z"
       copytype="single_stretched"
       prop_scale="1.2021984"
       scale_y_rel="false"
       spacing="0"
       normal_offset="0"
       tang_offset="0"
       prop_units="false"
       vertical_pattern="false"
       hide_knot="false"
       fuse_tolerance="0" /><inkscape:path-effect
       effect="skeletal"
       id="path-effect7"
       is_visible="true"
       lpeversion="1"
       pattern="M 0,18.867925 C 0,8.4528305 8.4528305,0 18.867925,0 29.28302,0 37.735851,8.4528305 37.735851,18.867925 c 0,10.415095 -8.452831,18.867926 -18.867926,18.867926 C 8.4528305,37.735851 0,29.28302 0,18.867925 Z"
       copytype="single_stretched"
       prop_scale="1"
       scale_y_rel="false"
       spacing="0"
       normal_offset="0"
       tang_offset="0"
       prop_units="false"
       vertical_pattern="false"
       hide_knot="false"
       fuse_tolerance="0" /><inkscape:path-effect
       effect="spiro"
       id="path-effect6"
       is_visible="true"
       lpeversion="1" /><inkscape:path-effect
       effect="skeletal"
       id="path-effect8-1"
       is_visible="true"
       lpeversion="1"
       pattern="M 0,18.867925 C 0,8.4528305 8.4528305,0 18.867925,0 29.28302,0 37.735851,8.4528305 37.735851,18.867925 c 0,10.415095 -8.452831,18.867926 -18.867926,18.867926 C 8.4528305,37.735851 0,29.28302 0,18.867925 Z"
       copytype="single_stretched"
       prop_scale="1"
       scale_y_rel="false"
       spacing="0"
       normal_offset="0"
       tang_offset="0"
       prop_units="false"
       vertical_pattern="false"
       hide_knot="false"
       fuse_tolerance="0" /><inkscape:path-effect
       effect="skeletal"
       id="path-effect10-3"
       is_visible="true"
       lpeversion="1"
       pattern="M 0,18.867925 C 0,8.4528305 8.4528305,0 18.867925,0 29.28302,0 37.735851,8.4528305 37.735851,18.867925 c 0,10.415095 -8.452831,18.867926 -18.867926,18.867926 C 8.4528305,37.735851 0,29.28302 0,18.867925 Z"
       copytype="single_stretched"
       prop_scale="1"
       scale_y_rel="false"
       spacing="0"
       normal_offset="0"
       tang_offset="0"
       prop_units="false"
       vertical_pattern="false"
       hide_knot="false"
       fuse_tolerance="0" /></defs><g
     id="g105"
     transform="translate(614.57274)"
     inkscape:label="kort"><g
       inkscape:label="Layer 1"
       inkscape:groupmode="layer"
       id="g96"
       transform="translate(-689.45146,-366.35646)"><path
         style="fill:#999999;fill-opacity:1;stroke:#000000;stroke-width:1.91793;stroke-dasharray:none;stroke-opacity:1"
         d="m 540.69312,592.51746 c 8.07266,4.1951 2.4463,29.51228 -10.79544,56.8642 0,0 0,0 0,0 1.22719,5.82627 2.34147,11.87535 3.30035,18.07059 6.2288,40.24372 3.52019,75.79578 -7.13367,77.24459 -5.19107,0.70593 -10.99991,-7.59779 -16.21191,-22.35633 -5.21898,-14.77834 -9.69836,-35.60729 -12.47149,-58.86506 -0.82845,-6.94804 -1.45295,-13.68476 -1.88664,-20.07193 0,0 0,-10e-6 0,-10e-6 18.93961,-34.47914 37.08693,-55.10152 45.1988,-50.88605 z"
         id="path93"
         inkscape:path-effect="#path-effect106"
         inkscape:original-d="m 540.69312,592.51746 -27.99712,53.87513 13.36836,98.30424"
         transform="matrix(-0.97244576,0,0,1.1182265,1305.8054,-25.748793)"
         sodipodi:nodetypes="ccc" /><path
         style="fill:#999999;fill-opacity:1;stroke:#000000;stroke-width:1.91793;stroke-dasharray:none;stroke-opacity:1"
         d="m 541.34841,589.10529 c 7.47204,4.8849 -0.86684,29.65886 -16.97472,56.06089 0,0 0,0 0,0 0.83545,6.81364 1.51518,13.91501 1.99043,21.18681 2.79331,42.74052 -2.92316,79.62238 -13.66812,80.13241 -5.23271,0.24838 -10.31203,-8.95768 -14.23829,-24.80161 -3.93265,-15.86972 -6.60551,-37.94663 -7.37312,-62.40859 -0.25379,-8.08747 -0.28136,-15.88572 -0.11664,-23.2031 0,0 1e-5,-10e-6 1e-5,-10e-6 22.74502,-32.94178 42.86889,-51.87754 50.38045,-46.9668 z"
         id="path94"
         inkscape:path-effect="#path-effect108"
         inkscape:original-d="m 541.34841,589.10529 -33.67759,51.51385 5.02518,105.86624"
         transform="matrix(-0.96831688,-0.08951634,-0.10293587,1.1134787,1301.8204,24.824621)"
         sodipodi:nodetypes="ccc" /><path
         style="fill:#999999;fill-opacity:1;stroke:#000000;stroke-width:3.1179;stroke-dasharray:none;stroke-opacity:1"
         d="m 563.61459,424.40274 c -5.78163,-6.55792 17.37883,-36.78958 53.93646,-71.86968 0,0 0,-10e-6 0,-10e-6 6.96165,-6.73795 14.37514,-13.63344 22.15302,-20.61211 8.71063,-7.81557 17.3257,-15.23951 25.51274,-22.04907 6.27946,-5.22523 12.69484,-10.3861 18.27518,-14.83705 2.15152,-1.71831 4.18378,-3.31788 6.08296,-4.84643 1.32398,-1.12008 2.35541,-1.84588 2.90537,-2.26087 10.18586,-10.11207 20.89803,-16.16356 28.23965,-19.39292 10.17992,-4.13074 16.83464,-5.05808 18.88239,-2.24519 0,0 0,0 0,0 0,0 10e-6,0 10e-6,0 0.0197,0.0275 0.0169,0.0236 0.0141,0.0197 -0.0112,-0.0157 0.003,0.004 0.0141,0.0197 0,0 1e-5,10e-6 1e-5,10e-6 0,0 0,0 0,0 1.99957,2.83994 -0.84116,9.04844 -7.20174,17.3073 -3.76064,5.27052 -12.06859,15.60523 -16.49045,23.25165 -1.53764,2.18194 -2.91244,3.88734 -4.0123,5.24345 -1.84193,2.28445 -3.71645,4.48109 -5.63101,6.66657 -5.13095,5.85846 -10.6586,11.70262 -16.64845,17.73551 -7.6532,7.70795 -15.94161,15.57894 -24.77256,23.50267 -7.84143,7.03587 -15.61959,13.67267 -23.1392,19.81166 0,0 -10e-6,10e-6 -10e-6,10e-6 -39.43453,31.91595 -72.33828,51.11341 -78.12026,44.55511 z"
         id="path95"
         inkscape:path-effect="#path-effect110"
         inkscape:original-d="m 563.61459,424.40274 c 0,0 129.18451,-112.87807 140.59476,-126.9951 12.46563,-15.42276 35.40714,-31.09855 35.40714,-31.09855"
         sodipodi:nodetypes="csc"
         transform="matrix(0.02850757,0.64082313,-0.64082313,0.02850757,1031.744,109.93372)"
         inkscape:transform-center-x="-81.770598"
         inkscape:transform-center-y="28.716494" /><ellipse
         style="fill:#999999;fill-opacity:1;stroke:#000000;stroke-width:2;stroke-dasharray:none;stroke-opacity:1"
         id="ellipse95"
         cx="-759.52496"
         cy="567.03754"
         rx="69.073502"
         ry="114.72363"
         transform="scale(-1,1)" /><circle
         style="fill:#999999;fill-opacity:1;stroke:#000000;stroke-width:2;stroke-dasharray:none;stroke-opacity:1"
         id="circle95"
         cx="-761.38531"
         cy="-429.36923"
         r="62.012772"
         transform="scale(-1)" /><path
         style="fill:#999999;fill-opacity:1;stroke:#000000;stroke-width:3.1179;stroke-dasharray:none;stroke-opacity:1"
         d="m 559.82326,410.08621 c -2.90078,-3.28172 1.82368,-12.92024 12.35444,-26.8574 9.48035,-12.86843 22.96912,-28.77544 39.40678,-47.92743 7.03724,-8.19665 14.94865,-17.37733 22.62686,-26.53653 6.78008,-8.09364 13.81295,-16.63916 20.43051,-25.35094 3.99284,-5.28813 7.88642,-10.58309 11.31435,-15.84744 1.24932,-1.91861 2.42934,-3.82135 3.53334,-5.718 1.696,-2.92192 3.14555,-5.57841 4.22267,-8.06486 0,0 0,-1e-5 0,-1e-5 v 0 c 0.88181,-2.15138 1.54775,-3.73074 1.74787,-4.81864 l 0,0 c 1.03755,-4.33492 1.12656,-9.49885 0.8698,-14.935 v 0 c -0.35007,-6.27015 -1.51867,-12.80832 -2.97001,-19.25631 l 0,0 c -3.42979,-15.17237 -9.10449,-30.46087 -13.86225,-42.93957 l 0,0 c -5.97393,-15.5785 -10.85793,-27.203 -14.20181,-37.19988 l 0,0 c -1.72337,-5.15012 -2.85628,-9.40638 -3.23784,-12.6329 l 0,0 c -0.19707,-1.66594 -0.19138,-3.06838 0.0313,-4.18301 l 0,0 c 0.1129,-0.5653 0.284,-1.05984 0.51236,-1.4782 l 10e-6,0 c 0,0 0,-1e-5 0,-1e-5 0.11546,-0.20985 0.24639,-0.40221 0.39145,-0.57497 0,0 0,0 0,0 0,0 0,0 0,0 0.24921,-0.22066 0.37176,-0.33762 0.43187,-0.39942 0.0589,-0.0606 0.0576,-0.068 0.0574,-0.0685 0,0 0,0 0,0 0,0 0,0 0,0 0,0 0,0 0,0 0,0 0,0 0,0 0,0 0,0 0,0 0,0 0,0 0,0 0,0 0,0 0,0 0,0 0,0 0,0 0,0 0,0 0,0 0,0 0,0 0,0 0,-2e-5 10e-6,0 10e-6,0 -10e-6,0 -2e-5,-2e-5 0,-1e-5 0,0 0,0 0,0 0,0 0,0 0,0 0,0 0,0 0,0 0,0 0,0 0,0 0,0 0,0 0,0 0,0 0,0 0,0 0,0 0,0 0,0 0,0 0,0 0,0 0,0 0,0 0,0 0,0 0,0 0,0 4e-4,3.5e-4 0.007,0.004 0.0815,-0.0366 0.0759,-0.041 0.22173,-0.12701 0.50191,-0.30661 0,0 0,0 0,0 1e-5,0 1e-5,-1e-5 1e-5,-1e-5 0.20736,-0.0914 0.42883,-0.16078 0.66609,-0.20929 0,0 0,0 0,0 l 0,0 c 0.47045,-0.0978 0.99601,-0.11175 1.57786,-0.045 l 0,0 c 1.14817,0.13183 2.50284,0.58314 4.05103,1.34437 l 0,0 c 3.00126,1.47579 6.70548,4.11916 10.94929,7.89126 l 0,0 c 7.73331,6.87033 17.5636,17.79354 27.50155,32.3335 l 0,0 c 8.36048,12.17092 17.44963,27.92751 24.16324,46.6831 l 0,0 c 2.83521,7.91285 5.24108,16.7408 6.6198,26.37949 1.24327,8.36911 1.46009,17.70891 -0.11233,27.67231 -0.98532,5.40377 -2.45934,10.13862 -4.16861,14.18163 0,0 -10e-6,1e-5 -10e-6,1e-5 -1.99302,4.85306 -4.24386,9.30237 -6.61026,13.38988 -1.51672,2.62524 -3.09288,5.18925 -4.71979,7.69764 -4.47678,6.90236 -9.22411,13.20776 -13.92383,18.97873 -7.86605,9.71431 -16.01866,18.58463 -23.95498,26.61578 -9.1081,9.22518 -18.18046,17.61581 -26.80506,25.09316 -19.59818,16.99282 -37.57226,29.94945 -51.20552,38.07326 -15.22164,8.82456 -25.3695,12.33482 -28.27098,9.05232 z"
         id="path96"
         inkscape:path-effect="#path-effect112"
         inkscape:original-d="m 559.82326,410.08621 c 0,0 129.07478,-110.15368 137.64793,-157.10183 C 707.26021,199.37788 643.4823,115.2972 643.4823,115.2972"
         sodipodi:nodetypes="csc"
         transform="matrix(-0.16421105,0.62008201,-0.62008201,-0.16421105,1056.4902,213.97302)" /></g><g
       id="g97"
       transform="translate(12.72792,9.1923877)" /><g
       id="g104"
       transform="translate(-4.4999976,19.500001)"><circle
         style="fill:#3b3b3b;fill-opacity:1;stroke:#000000;stroke-width:1.72261;stroke-opacity:1"
         id="circle97"
         cx="314.96344"
         cy="239.5"
         r="81.58358" /><circle
         style="fill:#ffffff;fill-opacity:1;stroke:#000000;stroke-width:1.88976;stroke-opacity:1"
         id="circle98"
         cx="313.72708"
         cy="240.81958"
         r="73" /><circle
         style="fill:#3b3b3b;fill-opacity:1;stroke:#000000;stroke-width:1.88976;stroke-opacity:1"
         id="circle99"
         cx="313.46341"
         cy="238.5"
         r="22.5" /><path
         sodipodi:type="star"
         style="fill:#3b3b3b;fill-opacity:1;stroke:#000000;stroke-width:1.88976;stroke-opacity:1"
         id="path99"
         inkscape:flatsided="true"
         sodipodi:sides="6"
         sodipodi:cx="339"
         sodipodi:cy="114"
         sodipodi:r1="15.6285"
         sodipodi:r2="13.534678"
         sodipodi:arg1="0"
         sodipodi:arg2="0.52359878"
         inkscape:rounded="0"
         inkscape:randomized="0"
         d="m 354.6285,114 -7.81425,13.53468 h -15.6285 L 323.3715,114 l 7.81425,-13.53468 h 15.6285 z"
         transform="matrix(0.70094894,0,0,0.70094894,75.378308,109.09182)" /><path
         sodipodi:type="star"
         style="fill:#3b3b3b;fill-opacity:1;stroke:#000000;stroke-width:1.88976;stroke-opacity:1"
         id="path100"
         inkscape:flatsided="true"
         sodipodi:sides="6"
         sodipodi:cx="339"
         sodipodi:cy="114"
         sodipodi:r1="15.6285"
         sodipodi:r2="13.534678"
         sodipodi:arg1="0"
         sodipodi:arg2="0.52359878"
         inkscape:rounded="0"
         inkscape:randomized="0"
         d="m 354.6285,114 -7.81425,13.53468 h -15.6285 L 323.3715,114 l 7.81425,-13.53468 h 15.6285 z"
         transform="matrix(0.70094894,0,0,0.70094894,120.87831,129.59182)" /><path
         sodipodi:type="star"
         style="fill:#3b3b3b;fill-opacity:1;stroke:#000000;stroke-width:1.88976;stroke-opacity:1"
         id="path101"
         inkscape:flatsided="true"
         sodipodi:sides="6"
         sodipodi:cx="339"
         sodipodi:cy="114"
         sodipodi:r1="15.6285"
         sodipodi:r2="13.534678"
         sodipodi:arg1="0"
         sodipodi:arg2="0.52359878"
         inkscape:rounded="0"
         inkscape:randomized="0"
         d="m 354.6285,114 -7.81425,13.53468 h -15.6285 L 323.3715,114 l 7.81425,-13.53468 h 15.6285 z"
         transform="matrix(0.70094894,0,0,0.70094894,122.87831,183.09182)" /><path
         sodipodi:type="star"
         style="fill:#3b3b3b;fill-opacity:1;stroke:#000000;stroke-width:1.88976;stroke-opacity:1"
         id="path102"
         inkscape:flatsided="true"
         sodipodi:sides="6"
         sodipodi:cx="339"
         sodipodi:cy="114"
         sodipodi:r1="15.6285"
         sodipodi:r2="13.534678"
         sodipodi:arg1="0"
         sodipodi:arg2="0.52359878"
         inkscape:rounded="0"
         inkscape:randomized="0"
         d="m 354.6285,114 -7.81425,13.53468 h -15.6285 L 323.3715,114 l 7.81425,-13.53468 h 15.6285 z"
         transform="matrix(0.70094894,0,0,0.70094894,78.378308,210.59182)" /><path
         sodipodi:type="star"
         style="fill:#3b3b3b;fill-opacity:1;stroke:#000000;stroke-width:1.88976;stroke-opacity:1"
         id="path103"
         inkscape:flatsided="true"
         sodipodi:sides="6"
         sodipodi:cx="339"
         sodipodi:cy="114"
         sodipodi:r1="15.6285"
         sodipodi:r2="13.534678"
         sodipodi:arg1="0"
         sodipodi:arg2="0.52359878"
         inkscape:rounded="0"
         inkscape:randomized="0"
         d="m 354.6285,114 -7.81425,13.53468 h -15.6285 L 323.3715,114 l 7.81425,-13.53468 h 15.6285 z"
         transform="matrix(0.70094894,0,0,0.70094894,32.378306,186.09182)" /><path
         sodipodi:type="star"
         style="fill:#3b3b3b;fill-opacity:1;stroke:#000000;stroke-width:1.88976;stroke-opacity:1"
         id="path104"
         inkscape:flatsided="true"
         sodipodi:sides="6"
         sodipodi:cx="339"
         sodipodi:cy="114"
         sodipodi:r1="15.6285"
         sodipodi:r2="13.534678"
         sodipodi:arg1="0"
         sodipodi:arg2="0.52359878"
         inkscape:rounded="0"
         inkscape:randomized="0"
         d="m 354.6285,114 -7.81425,13.53468 h -15.6285 L 323.3715,114 l 7.81425,-13.53468 h 15.6285 z"
         transform="matrix(0.70094894,0,0,0.70094894,31.171199,131.53116)" /></g><rect
       style="fill:#c8ffee;fill-opacity:1;stroke:#000000;stroke-width:1.24438;stroke-dasharray:none;stroke-opacity:1"
       id="rect104"
       width="89.513359"
       height="14.86373"
       x="-272.39841"
       y="-237.94502"
       transform="scale(-1)" /></g><g
     id="g67"
     inkscape:label="lång"><g
       inkscape:label="Layer 1"
       inkscape:groupmode="layer"
       id="g58"
       transform="translate(-689.45146,-366.35646)"><path
         style="fill:#999999;fill-opacity:1;stroke:#000000;stroke-width:1.91793;stroke-dasharray:none;stroke-opacity:1"
         d="m 540.69312,592.51746 c 8.07266,4.1951 2.4463,29.51228 -10.79544,56.8642 0,0 0,0 0,0 1.22719,5.82627 2.34147,11.87535 3.30035,18.07059 6.2288,40.24372 3.52019,75.79578 -7.13367,77.24459 -5.19107,0.70593 -10.99991,-7.59779 -16.21191,-22.35633 -5.21898,-14.77834 -9.69836,-35.60729 -12.47149,-58.86506 -0.82845,-6.94804 -1.45295,-13.68476 -1.88664,-20.07193 0,0 0,-10e-6 0,-10e-6 18.93961,-34.47914 37.08693,-55.10152 45.1988,-50.88605 z"
         id="path55"
         inkscape:path-effect="#path-effect68"
         inkscape:original-d="m 540.69312,592.51746 -27.99712,53.87513 13.36836,98.30424"
         transform="matrix(-0.97244576,0,0,1.1182265,1305.8054,-25.748793)"
         sodipodi:nodetypes="ccc" /><path
         style="fill:#999999;fill-opacity:1;stroke:#000000;stroke-width:1.91793;stroke-dasharray:none;stroke-opacity:1"
         d="m 541.34841,589.10529 c 7.47204,4.8849 -0.86684,29.65886 -16.97472,56.06089 0,0 0,0 0,0 0.83545,6.81364 1.51518,13.91501 1.99043,21.18681 2.79331,42.74052 -2.92316,79.62238 -13.66812,80.13241 -5.23271,0.24838 -10.31203,-8.95768 -14.23829,-24.80161 -3.93265,-15.86972 -6.60551,-37.94663 -7.37312,-62.40859 -0.25379,-8.08747 -0.28136,-15.88572 -0.11664,-23.2031 0,0 1e-5,-10e-6 1e-5,-10e-6 22.74502,-32.94178 42.86889,-51.87754 50.38045,-46.9668 z"
         id="path56"
         inkscape:path-effect="#path-effect70"
         inkscape:original-d="m 541.34841,589.10529 -33.67759,51.51385 5.02518,105.86624"
         transform="matrix(-0.96831688,-0.08951634,-0.10293587,1.1134787,1301.8204,24.824621)"
         sodipodi:nodetypes="ccc" /><path
         style="fill:#999999;fill-opacity:1;stroke:#000000;stroke-width:3.1179;stroke-dasharray:none;stroke-opacity:1"
         d="m 563.61459,424.40274 c -5.78163,-6.55792 17.37883,-36.78958 53.93646,-71.86968 0,0 0,-10e-6 0,-10e-6 6.96165,-6.73795 14.37514,-13.63344 22.15302,-20.61211 8.71063,-7.81557 17.3257,-15.23951 25.51274,-22.04907 6.27946,-5.22523 12.69484,-10.3861 18.27518,-14.83705 2.15152,-1.71831 4.18378,-3.31788 6.08296,-4.84643 1.32398,-1.12008 2.35541,-1.84588 2.90537,-2.26087 10.18586,-10.11207 20.89803,-16.16356 28.23965,-19.39292 10.17992,-4.13074 16.83464,-5.05808 18.88239,-2.24519 0,0 0,0 0,0 0,0 10e-6,0 10e-6,0 0.0197,0.0275 0.0169,0.0236 0.0141,0.0197 -0.0112,-0.0157 0.003,0.004 0.0141,0.0197 0,0 1e-5,10e-6 1e-5,10e-6 0,0 0,0 0,0 1.99957,2.83994 -0.84116,9.04844 -7.20174,17.3073 -3.76064,5.27052 -12.06859,15.60523 -16.49045,23.25165 -1.53764,2.18194 -2.91244,3.88734 -4.0123,5.24345 -1.84193,2.28445 -3.71645,4.48109 -5.63101,6.66657 -5.13095,5.85846 -10.6586,11.70262 -16.64845,17.73551 -7.6532,7.70795 -15.94161,15.57894 -24.77256,23.50267 -7.84143,7.03587 -15.61959,13.67267 -23.1392,19.81166 0,0 -10e-6,10e-6 -10e-6,10e-6 -39.43453,31.91595 -72.33828,51.11341 -78.12026,44.55511 z"
         id="path57"
         inkscape:path-effect="#path-effect72"
         inkscape:original-d="m 563.61459,424.40274 c 0,0 129.18451,-112.87807 140.59476,-126.9951 12.46563,-15.42276 35.40714,-31.09855 35.40714,-31.09855"
         sodipodi:nodetypes="csc"
         transform="matrix(0.02850757,0.64082313,-0.64082313,0.02850757,1031.744,109.93372)"
         inkscape:transform-center-x="-81.770598"
         inkscape:transform-center-y="28.716494" /><ellipse
         style="fill:#999999;fill-opacity:1;stroke:#000000;stroke-width:2;stroke-dasharray:none;stroke-opacity:1"
         id="ellipse57"
         cx="-759.52496"
         cy="567.03754"
         rx="69.073502"
         ry="114.72363"
         transform="scale(-1,1)" /><circle
         style="fill:#999999;fill-opacity:1;stroke:#000000;stroke-width:2;stroke-dasharray:none;stroke-opacity:1"
         id="circle57"
         cx="-761.38531"
         cy="-429.36923"
         r="62.012772"
         transform="scale(-1)" /><path
         style="fill:#999999;fill-opacity:1;stroke:#000000;stroke-width:3.1179;stroke-dasharray:none;stroke-opacity:1"
         d="m 559.82326,410.08621 c -2.90078,-3.28172 1.82368,-12.92024 12.35444,-26.8574 9.48035,-12.86843 22.96912,-28.77544 39.40678,-47.92743 7.03724,-8.19665 14.94865,-17.37733 22.62686,-26.53653 6.78008,-8.09364 13.81295,-16.63916 20.43051,-25.35094 3.99284,-5.28813 7.88642,-10.58309 11.31435,-15.84744 1.24932,-1.91861 2.42934,-3.82135 3.53334,-5.718 1.696,-2.92192 3.14555,-5.57841 4.22267,-8.06486 0,0 0,-1e-5 0,-1e-5 v 0 c 0.88181,-2.15138 1.54775,-3.73074 1.74787,-4.81864 l 0,0 c 1.03755,-4.33492 1.12656,-9.49885 0.8698,-14.935 v 0 c -0.35007,-6.27015 -1.51867,-12.80832 -2.97001,-19.25631 l 0,0 c -3.42979,-15.17237 -9.10449,-30.46087 -13.86225,-42.93957 l 0,0 c -5.97393,-15.5785 -10.85793,-27.203 -14.20181,-37.19988 l 0,0 c -1.72337,-5.15012 -2.85628,-9.40638 -3.23784,-12.6329 l 0,0 c -0.19707,-1.66594 -0.19138,-3.06838 0.0313,-4.18301 l 0,0 c 0.1129,-0.5653 0.284,-1.05984 0.51236,-1.4782 l 10e-6,0 c 0,0 0,-1e-5 0,-1e-5 0.11546,-0.20985 0.24639,-0.40221 0.39145,-0.57497 0,0 0,0 0,0 0,0 0,0 0,0 0.24921,-0.22066 0.37176,-0.33762 0.43187,-0.39942 0.0589,-0.0606 0.0576,-0.068 0.0574,-0.0685 0,0 0,0 0,0 0,0 0,0 0,0 0,0 0,0 0,0 0,0 0,0 0,0 0,0 0,0 0,0 0,0 0,0 0,0 0,0 0,0 0,0 0,0 0,0 0,0 0,0 0,0 0,0 0,0 0,0 0,0 0,-2e-5 10e-6,0 10e-6,0 -10e-6,0 -2e-5,-2e-5 0,-1e-5 0,0 0,0 0,0 0,0 0,0 0,0 0,0 0,0 0,0 0,0 0,0 0,0 0,0 0,0 0,0 0,0 0,0 0,0 0,0 0,0 0,0 0,0 0,0 0,0 0,0 0,0 0,0 0,0 0,0 0,0 4e-4,3.5e-4 0.007,0.004 0.0815,-0.0366 0.0759,-0.041 0.22173,-0.12701 0.50191,-0.30661 0,0 0,0 0,0 1e-5,0 1e-5,-1e-5 1e-5,-1e-5 0.20736,-0.0914 0.42883,-0.16078 0.66609,-0.20929 0,0 0,0 0,0 l 0,0 c 0.47045,-0.0978 0.99601,-0.11175 1.57786,-0.045 l 0,0 c 1.14817,0.13183 2.50284,0.58314 4.05103,1.34437 l 0,0 c 3.00126,1.47579 6.70548,4.11916 10.94929,7.89126 l 0,0 c 7.73331,6.87033 17.5636,17.79354 27.50155,32.3335 l 0,0 c 8.36048,12.17092 17.44963,27.92751 24.16324,46.6831 l 0,0 c 2.83521,7.91285 5.24108,16.7408 6.6198,26.37949 1.24327,8.36911 1.46009,17.70891 -0.11233,27.67231 -0.98532,5.40377 -2.45934,10.13862 -4.16861,14.18163 0,0 -10e-6,1e-5 -10e-6,1e-5 -1.99302,4.85306 -4.24386,9.30237 -6.61026,13.38988 -1.51672,2.62524 -3.09288,5.18925 -4.71979,7.69764 -4.47678,6.90236 -9.22411,13.20776 -13.92383,18.97873 -7.86605,9.71431 -16.01866,18.58463 -23.95498,26.61578 -9.1081,9.22518 -18.18046,17.61581 -26.80506,25.09316 -19.59818,16.99282 -37.57226,29.94945 -51.20552,38.07326 -15.22164,8.82456 -25.3695,12.33482 -28.27098,9.05232 z"
         id="path58"
         inkscape:path-effect="#path-effect74"
         inkscape:original-d="m 559.82326,410.08621 c 0,0 129.07478,-110.15368 137.64793,-157.10183 C 707.26021,199.37788 643.4823,115.2972 643.4823,115.2972"
         sodipodi:nodetypes="csc"
         transform="matrix(-0.16421105,0.62008201,-0.62008201,-0.16421105,1056.4902,213.97302)" /></g><g
       id="g59"
       transform="translate(12.72792,9.1923877)" /><g
       id="g66"
       transform="translate(136.92136,19.500001)"><circle
         style="fill:#3b3b3b;fill-opacity:1;stroke:#000000;stroke-width:1.72261;stroke-opacity:1"
         id="circle59"
         cx="314.96344"
         cy="239.5"
         r="81.58358" /><circle
         style="fill:#ffffff;fill-opacity:1;stroke:#000000;stroke-width:1.88976;stroke-opacity:1"
         id="circle60"
         cx="313.72708"
         cy="240.81958"
         r="73" /><circle
         style="fill:#3b3b3b;fill-opacity:1;stroke:#000000;stroke-width:1.88976;stroke-opacity:1"
         id="circle61"
         cx="313.46341"
         cy="238.5"
         r="22.5" /><path
         sodipodi:type="star"
         style="fill:#3b3b3b;fill-opacity:1;stroke:#000000;stroke-width:1.88976;stroke-opacity:1"
         id="path61"
         inkscape:flatsided="true"
         sodipodi:sides="6"
         sodipodi:cx="339"
         sodipodi:cy="114"
         sodipodi:r1="15.6285"
         sodipodi:r2="13.534678"
         sodipodi:arg1="0"
         sodipodi:arg2="0.52359878"
         inkscape:rounded="0"
         inkscape:randomized="0"
         d="m 354.6285,114 -7.81425,13.53468 h -15.6285 L 323.3715,114 l 7.81425,-13.53468 h 15.6285 z"
         transform="matrix(0.70094894,0,0,0.70094894,75.378308,109.09182)" /><path
         sodipodi:type="star"
         style="fill:#3b3b3b;fill-opacity:1;stroke:#000000;stroke-width:1.88976;stroke-opacity:1"
         id="path62"
         inkscape:flatsided="true"
         sodipodi:sides="6"
         sodipodi:cx="339"
         sodipodi:cy="114"
         sodipodi:r1="15.6285"
         sodipodi:r2="13.534678"
         sodipodi:arg1="0"
         sodipodi:arg2="0.52359878"
         inkscape:rounded="0"
         inkscape:randomized="0"
         d="m 354.6285,114 -7.81425,13.53468 h -15.6285 L 323.3715,114 l 7.81425,-13.53468 h 15.6285 z"
         transform="matrix(0.70094894,0,0,0.70094894,120.87831,129.59182)" /><path
         sodipodi:type="star"
         style="fill:#3b3b3b;fill-opacity:1;stroke:#000000;stroke-width:1.88976;stroke-opacity:1"
         id="path63"
         inkscape:flatsided="true"
         sodipodi:sides="6"
         sodipodi:cx="339"
         sodipodi:cy="114"
         sodipodi:r1="15.6285"
         sodipodi:r2="13.534678"
         sodipodi:arg1="0"
         sodipodi:arg2="0.52359878"
         inkscape:rounded="0"
         inkscape:randomized="0"
         d="m 354.6285,114 -7.81425,13.53468 h -15.6285 L 323.3715,114 l 7.81425,-13.53468 h 15.6285 z"
         transform="matrix(0.70094894,0,0,0.70094894,122.87831,183.09182)" /><path
         sodipodi:type="star"
         style="fill:#3b3b3b;fill-opacity:1;stroke:#000000;stroke-width:1.88976;stroke-opacity:1"
         id="path64"
         inkscape:flatsided="true"
         sodipodi:sides="6"
         sodipodi:cx="339"
         sodipodi:cy="114"
         sodipodi:r1="15.6285"
         sodipodi:r2="13.534678"
         sodipodi:arg1="0"
         sodipodi:arg2="0.52359878"
         inkscape:rounded="0"
         inkscape:randomized="0"
         d="m 354.6285,114 -7.81425,13.53468 h -15.6285 L 323.3715,114 l 7.81425,-13.53468 h 15.6285 z"
         transform="matrix(0.70094894,0,0,0.70094894,78.378308,210.59182)" /><path
         sodipodi:type="star"
         style="fill:#3b3b3b;fill-opacity:1;stroke:#000000;stroke-width:1.88976;stroke-opacity:1"
         id="path65"
         inkscape:flatsided="true"
         sodipodi:sides="6"
         sodipodi:cx="339"
         sodipodi:cy="114"
         sodipodi:r1="15.6285"
         sodipodi:r2="13.534678"
         sodipodi:arg1="0"
         sodipodi:arg2="0.52359878"
         inkscape:rounded="0"
         inkscape:randomized="0"
         d="m 354.6285,114 -7.81425,13.53468 h -15.6285 L 323.3715,114 l 7.81425,-13.53468 h 15.6285 z"
         transform="matrix(0.70094894,0,0,0.70094894,32.378306,186.09182)" /><path
         sodipodi:type="star"
         style="fill:#3b3b3b;fill-opacity:1;stroke:#000000;stroke-width:1.88976;stroke-opacity:1"
         id="path66"
         inkscape:flatsided="true"
         sodipodi:sides="6"
         sodipodi:cx="339"
         sodipodi:cy="114"
         sodipodi:r1="15.6285"
         sodipodi:r2="13.534678"
         sodipodi:arg1="0"
         sodipodi:arg2="0.52359878"
         inkscape:rounded="0"
         inkscape:randomized="0"
         d="m 354.6285,114 -7.81425,13.53468 h -15.6285 L 323.3715,114 l 7.81425,-13.53468 h 15.6285 z"
         transform="matrix(0.70094894,0,0,0.70094894,31.171199,131.53116)" /></g><rect
       style="fill:#c8ffee;fill-opacity:1;stroke:#000000;stroke-width:1.95345;stroke-dasharray:none;stroke-opacity:1"
       id="rect66"
       width="231.63986"
       height="14.154663"
       x="-414.87946"
       y="-237.59048"
       transform="scale(-1)" /><path
       style="fill:#3b3b3b;stroke:#000000;stroke-width:1.91898;stroke-dasharray:7.67591, 1.91898;stroke-dashoffset:0;marker-start:url(#Stop);marker-end:url(#marker9)"
       d="M 182.20597,178.89802 H 411.88506"
       id="path60" /><path
       style="fill:#3b3b3b;stroke:#000000;stroke-width:1.91898;stroke-dasharray:7.6759, 1.91898;stroke-dashoffset:0;marker-start:url(#Stop);marker-end:url(#marker9)"
       d="m 796.06932,178.89802 h 87.36135"
       id="path59" /><g
       transform="matrix(5.1696439,0,0,5.1696439,-118.54901,-258.81408)"
       ns2:version="1.11.0"
       ns2:texconverter="typst"
       ns2:pdfconverter="inkscape"
       ns2:text="$2$ m"
       ns2:preamble="/home/sermuns/.config/inkscape/extensions/textext/default_preamble_typst.typ"
       ns2:scale="5.0"
       ns2:alignment="middle center"
       ns2:inkscapeversion="1.4"
       ns2:jacobian_sqrt="6.66665"
       id="g76"><g
   id="g75">
        <g
   transform="translate(70.8661,78.3791)"
   id="g71">
            <g
   class="typst-text"
   transform="scale(1,-1)"
   id="g70">
                <g
   id="g69"><path
   d="M 2.6069999,7.3259997 C 2.046,7.3259997 1.573,7.128 1.166,6.732 0.759,6.336 0.55,5.874 0.55,5.313 0.55,4.939 0.825,4.664 1.166,4.664 1.496,4.664 1.771,4.95 1.771,5.2799997 1.771,5.643 1.507,5.896 1.155,5.896 1.122,5.896 1.1,5.896 1.078,5.885 1.287,6.424 1.771,6.897 2.464,6.897 3.366,6.897 3.872,6.116 3.872,5.17 3.872,4.433 3.498,3.641 2.75,2.805 L 0.682,0.473 C 0.539,0.308 0.55,0.319 0.55,0 H 4.631 L 4.95,1.98 H 4.587 C 4.499,1.419 4.422,1.1 4.356,1.001 4.301,0.946 3.971,0.924 3.366,0.924 H 1.529 l 1.067,1.045 c 0.7479999,0.704 1.694,1.463 2.013,2.046 0.22,0.385 0.33,0.77 0.33,1.155 0,1.298 -1.012,2.1559997 -2.3320001,2.1559997 z"
   id="path69" />
        </g></g>
        </g>
        <g
   transform="translate(76.3661,78.3791)"
   id="g74">
            <g
   class="typst-text"
   transform="scale(1,-1)"
   id="g73">
                <g
   transform="translate(2.75)"
   id="g72"><path
   d="M 1.87,3.938 C 1.859,4.268 1.837,4.664 1.782,4.774 1.76,4.829 1.738,4.862 1.65,4.862 1.342,4.741 1.056,4.642 0.297,4.5429997 0.275,4.4769998 0.297,4.301 0.319,4.235 0.913,4.18 1.034,4.125 1.034,3.487 V 1.342 C 1.034,0.44 0.891,0.385 0.286,0.341 0.22,0.275 0.22,0.044 0.286,-0.022 0.616,-0.011 1.034,0 1.474,0 c 0.44,0 0.7809999,-0.011 1.111,-0.022 0.066,0.066 0.066,0.297 0,0.363 C 2.024,0.396 1.903,0.44 1.903,1.342 v 1.804 c 0,0.231 0.099,0.363 0.187,0.462 C 2.53,4.037 2.937,4.257 3.2779999,4.257 3.696,4.257 4.004,3.993 4.004,3.256 V 1.342 C 4.004,0.44 3.916,0.385 3.322,0.341 3.267,0.275 3.267,0.044 3.322,-0.022 3.597,-0.011 4.004,0 4.444,0 c 0.44,0 0.8029997,-0.011 1.078,-0.022 0.055,0.066 0.055,0.297 0,0.363 C 4.972,0.385 4.873,0.44 4.873,1.342 v 1.749 c 0,0.154 0,0.308 -0.011,0.44 0.528,0.583 1.0229998,0.726 1.452,0.726 0.418,0 0.66,-0.242 0.66,-0.9790001 V 1.342 C 6.974,0.44 6.864,0.385 6.292,0.341 6.237,0.275 6.237,0.044 6.292,-0.022 6.567,-0.011 6.974,0 7.414,0 c 0.44,0 0.825,-0.011 1.133,-0.022 0.055,0.066 0.055,0.297 0,0.363 C 7.942,0.385 7.843,0.44 7.843,1.342 V 3.08 C 7.843,4.059 7.678,4.829 6.71,4.829 6.149,4.829 5.467,4.62 4.895,4.015 4.862,3.9819999 4.796,3.927 4.774,4.026 4.675,4.4769998 4.246,4.829 3.674,4.829 3.036,4.829 2.464,4.455 2.002,3.938 1.947,3.883 1.881,3.806 1.87,3.938 Z"
   id="path71" />
        </g></g>
        </g>
    </g>
    <defs
   id="defs76">
        <symbol
   id="symbol75"
   overflow="visible">
            <path
   d="M 2.6069999,7.3259997 C 2.046,7.3259997 1.573,7.128 1.166,6.732 0.759,6.336 0.55,5.874 0.55,5.313 0.55,4.939 0.825,4.664 1.166,4.664 1.496,4.664 1.771,4.95 1.771,5.2799997 1.771,5.643 1.507,5.896 1.155,5.896 1.122,5.896 1.1,5.896 1.078,5.885 1.287,6.424 1.771,6.897 2.464,6.897 3.366,6.897 3.872,6.116 3.872,5.17 3.872,4.433 3.498,3.641 2.75,2.805 L 0.682,0.473 C 0.539,0.308 0.55,0.319 0.55,0 H 4.631 L 4.95,1.98 H 4.587 C 4.499,1.419 4.422,1.1 4.356,1.001 4.301,0.946 3.971,0.924 3.366,0.924 H 1.529 l 1.067,1.045 c 0.7479999,0.704 1.694,1.463 2.013,2.046 0.22,0.385 0.33,0.77 0.33,1.155 0,1.298 -1.012,2.1559997 -2.3320001,2.1559997 z"
   id="path75" />
        </symbol>
        <symbol
   id="symbol76"
   overflow="visible">
            <path
   d="M 1.87,3.938 C 1.859,4.268 1.837,4.664 1.782,4.774 1.76,4.829 1.738,4.862 1.65,4.862 1.342,4.741 1.056,4.642 0.297,4.5429997 0.275,4.4769998 0.297,4.301 0.319,4.235 0.913,4.18 1.034,4.125 1.034,3.487 V 1.342 C 1.034,0.44 0.891,0.385 0.286,0.341 0.22,0.275 0.22,0.044 0.286,-0.022 0.616,-0.011 1.034,0 1.474,0 c 0.44,0 0.7809999,-0.011 1.111,-0.022 0.066,0.066 0.066,0.297 0,0.363 C 2.024,0.396 1.903,0.44 1.903,1.342 v 1.804 c 0,0.231 0.099,0.363 0.187,0.462 C 2.53,4.037 2.937,4.257 3.2779999,4.257 3.696,4.257 4.004,3.993 4.004,3.256 V 1.342 C 4.004,0.44 3.916,0.385 3.322,0.341 3.267,0.275 3.267,0.044 3.322,-0.022 3.597,-0.011 4.004,0 4.444,0 c 0.44,0 0.8029997,-0.011 1.078,-0.022 0.055,0.066 0.055,0.297 0,0.363 C 4.972,0.385 4.873,0.44 4.873,1.342 v 1.749 c 0,0.154 0,0.308 -0.011,0.44 0.528,0.583 1.0229998,0.726 1.452,0.726 0.418,0 0.66,-0.242 0.66,-0.9790001 V 1.342 C 6.974,0.44 6.864,0.385 6.292,0.341 6.237,0.275 6.237,0.044 6.292,-0.022 6.567,-0.011 6.974,0 7.414,0 c 0.44,0 0.825,-0.011 1.133,-0.022 0.055,0.066 0.055,0.297 0,0.363 C 7.942,0.385 7.843,0.44 7.843,1.342 V 3.08 C 7.843,4.059 7.678,4.829 6.71,4.829 6.149,4.829 5.467,4.62 4.895,4.015 4.862,3.9819999 4.796,3.927 4.774,4.026 4.675,4.4769998 4.246,4.829 3.674,4.829 3.036,4.829 2.464,4.455 2.002,3.938 1.947,3.883 1.881,3.806 1.87,3.938 Z"
   id="path76" />
        </symbol>
    </defs>
</g><g
       transform="matrix(5.16964 0 0 5.16964 400.95 -259.383)"
       ns2:version="1.11.0"
       ns2:texconverter="typst"
       ns2:pdfconverter="inkscape"
       ns2:text="$50$ cm"
       ns2:preamble="/home/sermuns/.config/inkscape/extensions/textext/default_preamble_typst.typ"
       ns2:scale="3.877242618106545"
       ns2:alignment="middle center"
       ns2:inkscapeversion="1.4"
       ns2:jacobian_sqrt="5.16964"
       id="g32"><g
   id="g51">
        <g
   transform="translate(70.8661, 78.3791)"
   id="g43">
            <g
   class="typst-text"
   transform="scale(1, -1)"
   id="g42">
                <g
   id="g41"><path
   d="M 1.298 3.465 C 1.353 3.465 1.419 3.509 1.474 3.586 C 1.804 4.081 2.2549999 4.323 2.827 4.323 C 3.212 4.323 3.509 4.103 3.707 3.652 C 3.828 3.355 3.894 2.904 3.894 2.299 C 3.894 1.606 3.806 1.122 3.641 0.83599997 C 3.366 0.385 2.992 0.154 2.519 0.154 C 1.782 0.154 1.199 0.682 1.001 1.254 C 1.034 1.243 1.056 1.254 1.1 1.254 C 1.43 1.254 1.705 1.507 1.705 1.837 C 1.705 2.178 1.43 2.409 1.1 2.409 C 0.715 2.409 0.55 2.2 0.55 1.793 C 0.55 0.693 1.441 -0.242 2.541 -0.242 C 3.212 -0.242 3.784 0 4.246 0.484 C 4.708 0.968 4.939 1.551 4.939 2.222 C 4.939 2.86 4.752 3.41 4.378 3.883 C 3.971 4.4 3.465 4.653 2.849 4.653 C 2.332 4.653 1.881 4.488 1.518 4.158 L 1.518 6.116 C 1.8149999 6.028 2.101 5.984 2.398 5.984 C 2.904 5.984 3.3439999 6.105 3.718 6.358 C 4.059 6.567 4.29 6.776 4.422 6.974 C 4.488 7.062 4.521 7.128 4.521 7.161 C 4.521 7.271 4.466 7.3259997 4.356 7.3259997 C 3.751 7.095 3.234 6.974 2.816 6.974 C 2.321 6.974 1.848 7.073 1.397 7.282 C 1.342 7.304 1.298 7.315 1.254 7.315 C 1.155 7.315 1.1 7.216 1.1 7.007 L 1.1 3.795 C 1.1 3.564 1.1 3.465 1.298 3.465 Z "
   id="path41" />
        </g></g>
        </g>
        <g
   transform="translate(76.3661, 78.3791)"
   id="g46">
            <g
   class="typst-text"
   transform="scale(1, -1)"
   id="g45">
                <g
   id="g44"><path
   d="M 2.739 -0.242 C 4.29 -0.242 5.06 1.012 5.06 3.52 C 5.06 5.203 4.708 6.325 4.015 6.875 C 3.6299999 7.172 3.201 7.3259997 2.75 7.3259997 C 1.199 7.3259997 0.429 6.061 0.429 3.52 C 0.429 1.496 0.968 -0.242 2.739 -0.242 Z M 3.971 5.764 C 4.048 5.379 4.081 4.675 4.081 3.652 C 4.081 2.6399999 4.037 1.892 3.96 1.408 C 3.817 0.528 3.41 0.088 2.739 0.088 C 2.486 0.088 2.233 0.187 2.002 0.374 C 1.705 0.627 1.529 1.144 1.452 1.936 C 1.419 2.211 1.408 2.783 1.408 3.652 C 1.408 4.609 1.441 5.2799997 1.496 5.643 C 1.595 6.248 1.793 6.633 2.101 6.798 C 2.343 6.93 2.552 6.996 2.739 6.996 C 3.454 6.996 3.85 6.413 3.971 5.764 Z "
   id="path43" />
        </g></g>
        </g>
        <g
   transform="translate(81.8661, 78.3791)"
   id="g50">
            <g
   class="typst-text"
   transform="scale(1, -1)"
   id="g49">
                <g
   transform="translate(2.75, 0)"
   id="g47"><path
   d="M 4.378 1.001 C 4.334 1.1 4.246 1.144 4.147 1.155 C 3.773 0.671 3.3 0.429 2.827 0.429 C 2.024 0.429 1.353 1.243 1.353 2.53 C 1.353 3.74 1.881 4.466 2.6069999 4.466 C 3.256 4.466 3.3439999 4.081 3.388 3.696 C 3.421 3.399 3.575 3.3 3.806 3.3 C 4.037 3.3 4.345 3.443 4.345 3.784 C 4.345 4.389 3.718 4.829 2.662 4.829 C 1.573 4.829 0.407 3.85 0.407 2.288 C 0.407 0.869 1.199 -0.11 2.585 -0.11 C 3.245 -0.11 3.828 0.099 4.378 1.001 Z "
   id="path46" />
        </g><g
   transform="translate(7.458, 0)"
   id="g48"><path
   d="M 1.87 3.938 C 1.859 4.268 1.837 4.664 1.782 4.774 C 1.76 4.829 1.738 4.862 1.65 4.862 C 1.342 4.741 1.056 4.642 0.297 4.5429997 C 0.275 4.4769998 0.297 4.301 0.319 4.235 C 0.913 4.18 1.034 4.125 1.034 3.487 L 1.034 1.342 C 1.034 0.44 0.891 0.385 0.286 0.341 C 0.22 0.275 0.22 0.044 0.286 -0.022 C 0.616 -0.011 1.034 0 1.474 0 C 1.914 0 2.2549999 -0.011 2.585 -0.022 C 2.651 0.044 2.651 0.275 2.585 0.341 C 2.024 0.396 1.903 0.44 1.903 1.342 L 1.903 3.146 C 1.903 3.377 2.002 3.509 2.09 3.608 C 2.53 4.037 2.937 4.257 3.2779999 4.257 C 3.696 4.257 4.004 3.993 4.004 3.256 L 4.004 1.342 C 4.004 0.44 3.916 0.385 3.322 0.341 C 3.267 0.275 3.267 0.044 3.322 -0.022 C 3.597 -0.011 4.004 0 4.444 0 C 4.884 0 5.2469997 -0.011 5.522 -0.022 C 5.577 0.044 5.577 0.275 5.522 0.341 C 4.972 0.385 4.873 0.44 4.873 1.342 L 4.873 3.091 C 4.873 3.245 4.873 3.399 4.862 3.531 C 5.39 4.114 5.8849998 4.257 6.314 4.257 C 6.732 4.257 6.974 4.015 6.974 3.2779999 L 6.974 1.342 C 6.974 0.44 6.864 0.385 6.292 0.341 C 6.237 0.275 6.237 0.044 6.292 -0.022 C 6.567 -0.011 6.974 0 7.414 0 C 7.854 0 8.239 -0.011 8.547 -0.022 C 8.602 0.044 8.602 0.275 8.547 0.341 C 7.942 0.385 7.843 0.44 7.843 1.342 L 7.843 3.08 C 7.843 4.059 7.678 4.829 6.71 4.829 C 6.149 4.829 5.467 4.62 4.895 4.015 C 4.862 3.9819999 4.796 3.927 4.774 4.026 C 4.675 4.4769998 4.246 4.829 3.674 4.829 C 3.036 4.829 2.464 4.455 2.002 3.938 C 1.947 3.883 1.881 3.806 1.87 3.938 Z "
   id="path47" />
        </g></g>
        </g>
    </g>
    <defs
   id="id-476ac9d7-22d1-4d73-8ffb-f9389c6f44fa">
        <symbol
   id="id-712189a7-d613-46a7-b069-7cec7d170b1b"
   overflow="visible">
            <path
   d="M 1.298 3.465 C 1.353 3.465 1.419 3.509 1.474 3.586 C 1.804 4.081 2.2549999 4.323 2.827 4.323 C 3.212 4.323 3.509 4.103 3.707 3.652 C 3.828 3.355 3.894 2.904 3.894 2.299 C 3.894 1.606 3.806 1.122 3.641 0.83599997 C 3.366 0.385 2.992 0.154 2.519 0.154 C 1.782 0.154 1.199 0.682 1.001 1.254 C 1.034 1.243 1.056 1.254 1.1 1.254 C 1.43 1.254 1.705 1.507 1.705 1.837 C 1.705 2.178 1.43 2.409 1.1 2.409 C 0.715 2.409 0.55 2.2 0.55 1.793 C 0.55 0.693 1.441 -0.242 2.541 -0.242 C 3.212 -0.242 3.784 0 4.246 0.484 C 4.708 0.968 4.939 1.551 4.939 2.222 C 4.939 2.86 4.752 3.41 4.378 3.883 C 3.971 4.4 3.465 4.653 2.849 4.653 C 2.332 4.653 1.881 4.488 1.518 4.158 L 1.518 6.116 C 1.8149999 6.028 2.101 5.984 2.398 5.984 C 2.904 5.984 3.3439999 6.105 3.718 6.358 C 4.059 6.567 4.29 6.776 4.422 6.974 C 4.488 7.062 4.521 7.128 4.521 7.161 C 4.521 7.271 4.466 7.3259997 4.356 7.3259997 C 3.751 7.095 3.234 6.974 2.816 6.974 C 2.321 6.974 1.848 7.073 1.397 7.282 C 1.342 7.304 1.298 7.315 1.254 7.315 C 1.155 7.315 1.1 7.216 1.1 7.007 L 1.1 3.795 C 1.1 3.564 1.1 3.465 1.298 3.465 Z "
   id="path51" />
        </symbol>
        <symbol
   id="id-c56b510e-8cd8-43c5-98e8-51c7ccd3e974"
   overflow="visible">
            <path
   d="M 2.739 -0.242 C 4.29 -0.242 5.06 1.012 5.06 3.52 C 5.06 5.203 4.708 6.325 4.015 6.875 C 3.6299999 7.172 3.201 7.3259997 2.75 7.3259997 C 1.199 7.3259997 0.429 6.061 0.429 3.52 C 0.429 1.496 0.968 -0.242 2.739 -0.242 Z M 3.971 5.764 C 4.048 5.379 4.081 4.675 4.081 3.652 C 4.081 2.6399999 4.037 1.892 3.96 1.408 C 3.817 0.528 3.41 0.088 2.739 0.088 C 2.486 0.088 2.233 0.187 2.002 0.374 C 1.705 0.627 1.529 1.144 1.452 1.936 C 1.419 2.211 1.408 2.783 1.408 3.652 C 1.408 4.609 1.441 5.2799997 1.496 5.643 C 1.595 6.248 1.793 6.633 2.101 6.798 C 2.343 6.93 2.552 6.996 2.739 6.996 C 3.454 6.996 3.85 6.413 3.971 5.764 Z "
   id="path52" />
        </symbol>
        <symbol
   id="id-47837263-34ac-4c92-949a-10d1e7a5a401"
   overflow="visible">
            <path
   d="M 4.378 1.001 C 4.334 1.1 4.246 1.144 4.147 1.155 C 3.773 0.671 3.3 0.429 2.827 0.429 C 2.024 0.429 1.353 1.243 1.353 2.53 C 1.353 3.74 1.881 4.466 2.6069999 4.466 C 3.256 4.466 3.3439999 4.081 3.388 3.696 C 3.421 3.399 3.575 3.3 3.806 3.3 C 4.037 3.3 4.345 3.443 4.345 3.784 C 4.345 4.389 3.718 4.829 2.662 4.829 C 1.573 4.829 0.407 3.85 0.407 2.288 C 0.407 0.869 1.199 -0.11 2.585 -0.11 C 3.245 -0.11 3.828 0.099 4.378 1.001 Z "
   id="path53" />
        </symbol>
        <symbol
   id="id-d129082a-25f0-4a71-84f6-9583a707189a"
   overflow="visible">
            <path
   d="M 1.87 3.938 C 1.859 4.268 1.837 4.664 1.782 4.774 C 1.76 4.829 1.738 4.862 1.65 4.862 C 1.342 4.741 1.056 4.642 0.297 4.5429997 C 0.275 4.4769998 0.297 4.301 0.319 4.235 C 0.913 4.18 1.034 4.125 1.034 3.487 L 1.034 1.342 C 1.034 0.44 0.891 0.385 0.286 0.341 C 0.22 0.275 0.22 0.044 0.286 -0.022 C 0.616 -0.011 1.034 0 1.474 0 C 1.914 0 2.2549999 -0.011 2.585 -0.022 C 2.651 0.044 2.651 0.275 2.585 0.341 C 2.024 0.396 1.903 0.44 1.903 1.342 L 1.903 3.146 C 1.903 3.377 2.002 3.509 2.09 3.608 C 2.53 4.037 2.937 4.257 3.2779999 4.257 C 3.696 4.257 4.004 3.993 4.004 3.256 L 4.004 1.342 C 4.004 0.44 3.916 0.385 3.322 0.341 C 3.267 0.275 3.267 0.044 3.322 -0.022 C 3.597 -0.011 4.004 0 4.444 0 C 4.884 0 5.2469997 -0.011 5.522 -0.022 C 5.577 0.044 5.577 0.275 5.522 0.341 C 4.972 0.385 4.873 0.44 4.873 1.342 L 4.873 3.091 C 4.873 3.245 4.873 3.399 4.862 3.531 C 5.39 4.114 5.8849998 4.257 6.314 4.257 C 6.732 4.257 6.974 4.015 6.974 3.2779999 L 6.974 1.342 C 6.974 0.44 6.864 0.385 6.292 0.341 C 6.237 0.275 6.237 0.044 6.292 -0.022 C 6.567 -0.011 6.974 0 7.414 0 C 7.854 0 8.239 -0.011 8.547 -0.022 C 8.602 0.044 8.602 0.275 8.547 0.341 C 7.942 0.385 7.843 0.44 7.843 1.342 L 7.843 3.08 C 7.843 4.059 7.678 4.829 6.71 4.829 C 6.149 4.829 5.467 4.62 4.895 4.015 C 4.862 3.9819999 4.796 3.927 4.774 4.026 C 4.675 4.4769998 4.246 4.829 3.674 4.829 C 3.036 4.829 2.464 4.455 2.002 3.938 C 1.947 3.883 1.881 3.806 1.87 3.938 Z "
   id="path54" />
        </symbol>
    </defs>
</g><g
       transform="matrix(3.6746996,0,0,3.6746996,499.90181,73.11131)"
       ns2:version="1.11.0"
       ns2:texconverter="typst"
       ns2:pdfconverter="inkscape"
       ns2:text="$1000$ N"
       ns2:preamble="/home/sermuns/.config/inkscape/extensions/textext/default_preamble_typst.typ"
       ns2:scale="3.877242618106545"
       ns2:alignment="middle center"
       ns2:inkscapeversion="1.4"
       ns2:jacobian_sqrt="5.16964"
       id="g146"
       style="stroke-width:1.40682"><g
   id="g144"
   style="stroke-width:1.40682">
        <g
   transform="translate(70.8661,70.8661)"
   id="g143"
   style="stroke-width:1.40682">
            <g
   class="typst-group"
   id="g142"
   style="stroke-width:1.40682">
                <g
   id="g141"
   style="stroke-width:1.40682">
                    <g
   transform="translate(0,7.513)"
   id="g128"
   style="stroke-width:1.40682">
                        <g
   class="typst-text"
   transform="scale(1,-1)"
   id="g127"
   style="stroke-width:1.40682">
                            <g
   id="g126"
   style="stroke-width:1.40682"><path
   d="M 2.9589999,7.3259997 C 2.508,6.864 1.848,6.633 0.979,6.633 V 6.204 c 0.572,0 1.045,0.088 1.408,0.264 V 0.902 C 2.387,0.704 2.343,0.572 2.244,0.517 2.145,0.462 1.87,0.429 1.43,0.429 H 1.045 V 0 C 1.3199999,0.022 1.914,0.033 2.827,0.033 3.74,0.033 4.334,0.022 4.609,0 V 0.429 H 4.224 C 3.773,0.429 3.498,0.462 3.41,0.517 3.322,0.572 3.267,0.704 3.267,0.902 v 6.094 c 0,0.2639998 -0.022,0.3299997 -0.3080001,0.3299997 z"
   id="path126"
   style="stroke-width:1.40682" />
        </g></g>
                    </g>
                    <g
   transform="translate(5.5,7.513)"
   id="g131"
   style="stroke-width:1.40682">
                        <g
   class="typst-text"
   transform="scale(1,-1)"
   id="g130"
   style="stroke-width:1.40682">
                            <g
   id="g129"
   style="stroke-width:1.40682"><path
   d="M 2.739,-0.242 C 4.29,-0.242 5.06,1.012 5.06,3.52 5.06,5.203 4.708,6.325 4.015,6.875 3.6299999,7.172 3.201,7.3259997 2.75,7.3259997 1.199,7.3259997 0.429,6.061 0.429,3.52 c 0,-2.024 0.539,-3.762 2.31,-3.762 z M 3.971,5.764 C 4.048,5.379 4.081,4.675 4.081,3.652 4.081,2.6399999 4.037,1.892 3.96,1.408 3.817,0.528 3.41,0.088 2.739,0.088 2.486,0.088 2.233,0.187 2.002,0.374 1.705,0.627 1.529,1.144 1.452,1.936 1.419,2.211 1.408,2.783 1.408,3.652 c 0,0.957 0.033,1.6279997 0.088,1.991 0.099,0.605 0.297,0.99 0.605,1.155 0.242,0.132 0.451,0.198 0.638,0.198 0.715,0 1.111,-0.583 1.232,-1.232 z"
   id="path128"
   style="stroke-width:1.40682" />
        </g></g>
                    </g>
                    <g
   transform="translate(11,7.513)"
   id="g134"
   style="stroke-width:1.40682">
                        <g
   class="typst-text"
   transform="scale(1,-1)"
   id="g133"
   style="stroke-width:1.40682">
                            <g
   id="g132"
   style="stroke-width:1.40682"><path
   d="M 2.739,-0.242 C 4.29,-0.242 5.06,1.012 5.06,3.52 5.06,5.203 4.708,6.325 4.015,6.875 3.6299999,7.172 3.201,7.3259997 2.75,7.3259997 1.199,7.3259997 0.429,6.061 0.429,3.52 c 0,-2.024 0.539,-3.762 2.31,-3.762 z M 3.971,5.764 C 4.048,5.379 4.081,4.675 4.081,3.652 4.081,2.6399999 4.037,1.892 3.96,1.408 3.817,0.528 3.41,0.088 2.739,0.088 2.486,0.088 2.233,0.187 2.002,0.374 1.705,0.627 1.529,1.144 1.452,1.936 1.419,2.211 1.408,2.783 1.408,3.652 c 0,0.957 0.033,1.6279997 0.088,1.991 0.099,0.605 0.297,0.99 0.605,1.155 0.242,0.132 0.451,0.198 0.638,0.198 0.715,0 1.111,-0.583 1.232,-1.232 z"
   id="path131"
   style="stroke-width:1.40682" />
        </g></g>
                    </g>
                    <g
   transform="translate(16.5,7.513)"
   id="g137"
   style="stroke-width:1.40682">
                        <g
   class="typst-text"
   transform="scale(1,-1)"
   id="g136"
   style="stroke-width:1.40682">
                            <g
   id="g135"
   style="stroke-width:1.40682"><path
   d="M 2.739,-0.242 C 4.29,-0.242 5.06,1.012 5.06,3.52 5.06,5.203 4.708,6.325 4.015,6.875 3.6299999,7.172 3.201,7.3259997 2.75,7.3259997 1.199,7.3259997 0.429,6.061 0.429,3.52 c 0,-2.024 0.539,-3.762 2.31,-3.762 z M 3.971,5.764 C 4.048,5.379 4.081,4.675 4.081,3.652 4.081,2.6399999 4.037,1.892 3.96,1.408 3.817,0.528 3.41,0.088 2.739,0.088 2.486,0.088 2.233,0.187 2.002,0.374 1.705,0.627 1.529,1.144 1.452,1.936 1.419,2.211 1.408,2.783 1.408,3.652 c 0,0.957 0.033,1.6279997 0.088,1.991 0.099,0.605 0.297,0.99 0.605,1.155 0.242,0.132 0.451,0.198 0.638,0.198 0.715,0 1.111,-0.583 1.232,-1.232 z"
   id="path134"
   style="stroke-width:1.40682" />
        </g></g>
                    </g>
                    <g
   transform="translate(22,7.513)"
   id="g140"
   style="stroke-width:1.40682">
                        <g
   class="typst-text"
   transform="scale(1,-1)"
   id="g139"
   style="stroke-width:1.40682">
                            <g
   transform="translate(2.75)"
   id="g138"
   style="stroke-width:1.40682"><path
   d="M 6.116,5.632 V 2.035 c 0,-0.209 0,-0.33 -0.077,-0.33 -0.044,0 -0.209,0.198 -0.528,0.605 L 1.738,7.095 0.253,7.117 C 0.187,7.051 0.187,6.82 0.253,6.754 0.726,6.721 1.056,6.336 1.122,6.05 V 1.4629999 C 1.122,0.484 0.935,0.41799998 0.16499999,0.341 0.099,0.275 0.099,0.044 0.16499999,-0.022 0.638,-0.011 1.133,0 1.397,0 1.65,0 2.156,-0.011 2.618,-0.022 2.684,0.044 2.684,0.275 2.618,0.341 1.848,0.418 1.661,0.462 1.661,1.4629999 V 4.829 c 0,0.374 0,0.539 0.088,0.539 0.066,0 0.187,-0.1210003 0.374,-0.363 L 5.962,0.154 c 0.121,-0.165 0.264,-0.264 0.44,-0.264 0.1539998,0 0.2529997,0.132 0.2529997,0.341 v 5.401 c 0,0.979 0.1870003,1.045 0.9570003,1.122 0.066,0.066 0.066,0.297 0,0.363 C 7.161,7.106 6.644,7.095 6.38,7.095 6.149,7.095 5.643,7.106 5.159,7.117 5.093,7.051 5.093,6.82 5.159,6.754 5.929,6.677 6.116,6.633 6.116,5.632 Z"
   id="path137"
   style="stroke-width:1.40682" />
        </g></g>
                    </g>
                </g>
            </g>
        </g>
    </g>
    <defs
   id="defs146">
        <symbol
   id="symbol144"
   overflow="visible">
            <path
   d="M 2.9589999,7.3259997 C 2.508,6.864 1.848,6.633 0.979,6.633 V 6.204 c 0.572,0 1.045,0.088 1.408,0.264 V 0.902 C 2.387,0.704 2.343,0.572 2.244,0.517 2.145,0.462 1.87,0.429 1.43,0.429 H 1.045 V 0 C 1.3199999,0.022 1.914,0.033 2.827,0.033 3.74,0.033 4.334,0.022 4.609,0 V 0.429 H 4.224 C 3.773,0.429 3.498,0.462 3.41,0.517 3.322,0.572 3.267,0.704 3.267,0.902 v 6.094 c 0,0.2639998 -0.022,0.3299997 -0.3080001,0.3299997 z"
   id="path144" />
        </symbol>
        <symbol
   id="symbol145"
   overflow="visible">
            <path
   d="M 2.739,-0.242 C 4.29,-0.242 5.06,1.012 5.06,3.52 5.06,5.203 4.708,6.325 4.015,6.875 3.6299999,7.172 3.201,7.3259997 2.75,7.3259997 1.199,7.3259997 0.429,6.061 0.429,3.52 c 0,-2.024 0.539,-3.762 2.31,-3.762 z M 3.971,5.764 C 4.048,5.379 4.081,4.675 4.081,3.652 4.081,2.6399999 4.037,1.892 3.96,1.408 3.817,0.528 3.41,0.088 2.739,0.088 2.486,0.088 2.233,0.187 2.002,0.374 1.705,0.627 1.529,1.144 1.452,1.936 1.419,2.211 1.408,2.783 1.408,3.652 c 0,0.957 0.033,1.6279997 0.088,1.991 0.099,0.605 0.297,0.99 0.605,1.155 0.242,0.132 0.451,0.198 0.638,0.198 0.715,0 1.111,-0.583 1.232,-1.232 z"
   id="path145" />
        </symbol>
        <symbol
   id="symbol146"
   overflow="visible">
            <path
   d="M 6.116,5.632 V 2.035 c 0,-0.209 0,-0.33 -0.077,-0.33 -0.044,0 -0.209,0.198 -0.528,0.605 L 1.738,7.095 0.253,7.117 C 0.187,7.051 0.187,6.82 0.253,6.754 0.726,6.721 1.056,6.336 1.122,6.05 V 1.4629999 C 1.122,0.484 0.935,0.41799998 0.16499999,0.341 0.099,0.275 0.099,0.044 0.16499999,-0.022 0.638,-0.011 1.133,0 1.397,0 1.65,0 2.156,-0.011 2.618,-0.022 2.684,0.044 2.684,0.275 2.618,0.341 1.848,0.418 1.661,0.462 1.661,1.4629999 V 4.829 c 0,0.374 0,0.539 0.088,0.539 0.066,0 0.187,-0.1210003 0.374,-0.363 L 5.962,0.154 c 0.121,-0.165 0.264,-0.264 0.44,-0.264 0.1539998,0 0.2529997,0.132 0.2529997,0.341 v 5.401 c 0,0.979 0.1870003,1.045 0.9570003,1.122 0.066,0.066 0.066,0.297 0,0.363 C 7.161,7.106 6.644,7.095 6.38,7.095 6.149,7.095 5.643,7.106 5.159,7.117 5.093,7.051 5.093,6.82 5.159,6.754 5.929,6.677 6.116,6.633 6.116,5.632 Z"
   id="path146" />
        </symbol>
    </defs>
</g><g
       transform="matrix(3.6746996,0,0,3.6746996,-96.896321,73.11131)"
       ns2:version="1.11.0"
       ns2:texconverter="typst"
       ns2:pdfconverter="inkscape"
       ns2:text="$1000$ N"
       ns2:preamble="/home/sermuns/.config/inkscape/extensions/textext/default_preamble_typst.typ"
       ns2:scale="3.877242618106545"
       ns2:alignment="middle center"
       ns2:inkscapeversion="1.4"
       ns2:jacobian_sqrt="5.16964"
       id="g40"
       style="stroke-width:1.40682"><g
   id="g95"
   style="stroke-width:1.40682">
        <g
   transform="translate(70.8661,70.8661)"
   id="g94"
   style="stroke-width:1.40682">
            <g
   class="typst-group"
   id="g93"
   style="stroke-width:1.40682">
                <g
   id="g92"
   style="stroke-width:1.40682">
                    <g
   transform="translate(0,7.513)"
   id="g79"
   style="stroke-width:1.40682">
                        <g
   class="typst-text"
   transform="scale(1,-1)"
   id="g78"
   style="stroke-width:1.40682">
                            <g
   id="g77"
   style="stroke-width:1.40682"><path
   d="M 2.9589999,7.3259997 C 2.508,6.864 1.848,6.633 0.979,6.633 V 6.204 c 0.572,0 1.045,0.088 1.408,0.264 V 0.902 C 2.387,0.704 2.343,0.572 2.244,0.517 2.145,0.462 1.87,0.429 1.43,0.429 H 1.045 V 0 C 1.3199999,0.022 1.914,0.033 2.827,0.033 3.74,0.033 4.334,0.022 4.609,0 V 0.429 H 4.224 C 3.773,0.429 3.498,0.462 3.41,0.517 3.322,0.572 3.267,0.704 3.267,0.902 v 6.094 c 0,0.2639998 -0.022,0.3299997 -0.3080001,0.3299997 z"
   id="path77"
   style="stroke-width:1.40682" />
        </g></g>
                    </g>
                    <g
   transform="translate(5.5,7.513)"
   id="g82"
   style="stroke-width:1.40682">
                        <g
   class="typst-text"
   transform="scale(1,-1)"
   id="g81"
   style="stroke-width:1.40682">
                            <g
   id="g80"
   style="stroke-width:1.40682"><path
   d="M 2.739,-0.242 C 4.29,-0.242 5.06,1.012 5.06,3.52 5.06,5.203 4.708,6.325 4.015,6.875 3.6299999,7.172 3.201,7.3259997 2.75,7.3259997 1.199,7.3259997 0.429,6.061 0.429,3.52 c 0,-2.024 0.539,-3.762 2.31,-3.762 z M 3.971,5.764 C 4.048,5.379 4.081,4.675 4.081,3.652 4.081,2.6399999 4.037,1.892 3.96,1.408 3.817,0.528 3.41,0.088 2.739,0.088 2.486,0.088 2.233,0.187 2.002,0.374 1.705,0.627 1.529,1.144 1.452,1.936 1.419,2.211 1.408,2.783 1.408,3.652 c 0,0.957 0.033,1.6279997 0.088,1.991 0.099,0.605 0.297,0.99 0.605,1.155 0.242,0.132 0.451,0.198 0.638,0.198 0.715,0 1.111,-0.583 1.232,-1.232 z"
   id="path79"
   style="stroke-width:1.40682" />
        </g></g>
                    </g>
                    <g
   transform="translate(11,7.513)"
   id="g85"
   style="stroke-width:1.40682">
                        <g
   class="typst-text"
   transform="scale(1,-1)"
   id="g84"
   style="stroke-width:1.40682">
                            <g
   id="g83"
   style="stroke-width:1.40682"><path
   d="M 2.739,-0.242 C 4.29,-0.242 5.06,1.012 5.06,3.52 5.06,5.203 4.708,6.325 4.015,6.875 3.6299999,7.172 3.201,7.3259997 2.75,7.3259997 1.199,7.3259997 0.429,6.061 0.429,3.52 c 0,-2.024 0.539,-3.762 2.31,-3.762 z M 3.971,5.764 C 4.048,5.379 4.081,4.675 4.081,3.652 4.081,2.6399999 4.037,1.892 3.96,1.408 3.817,0.528 3.41,0.088 2.739,0.088 2.486,0.088 2.233,0.187 2.002,0.374 1.705,0.627 1.529,1.144 1.452,1.936 1.419,2.211 1.408,2.783 1.408,3.652 c 0,0.957 0.033,1.6279997 0.088,1.991 0.099,0.605 0.297,0.99 0.605,1.155 0.242,0.132 0.451,0.198 0.638,0.198 0.715,0 1.111,-0.583 1.232,-1.232 z"
   id="path82"
   style="stroke-width:1.40682" />
        </g></g>
                    </g>
                    <g
   transform="translate(16.5,7.513)"
   id="g88"
   style="stroke-width:1.40682">
                        <g
   class="typst-text"
   transform="scale(1,-1)"
   id="g87"
   style="stroke-width:1.40682">
                            <g
   id="g86"
   style="stroke-width:1.40682"><path
   d="M 2.739,-0.242 C 4.29,-0.242 5.06,1.012 5.06,3.52 5.06,5.203 4.708,6.325 4.015,6.875 3.6299999,7.172 3.201,7.3259997 2.75,7.3259997 1.199,7.3259997 0.429,6.061 0.429,3.52 c 0,-2.024 0.539,-3.762 2.31,-3.762 z M 3.971,5.764 C 4.048,5.379 4.081,4.675 4.081,3.652 4.081,2.6399999 4.037,1.892 3.96,1.408 3.817,0.528 3.41,0.088 2.739,0.088 2.486,0.088 2.233,0.187 2.002,0.374 1.705,0.627 1.529,1.144 1.452,1.936 1.419,2.211 1.408,2.783 1.408,3.652 c 0,0.957 0.033,1.6279997 0.088,1.991 0.099,0.605 0.297,0.99 0.605,1.155 0.242,0.132 0.451,0.198 0.638,0.198 0.715,0 1.111,-0.583 1.232,-1.232 z"
   id="path85"
   style="stroke-width:1.40682" />
        </g></g>
                    </g>
                    <g
   transform="translate(22,7.513)"
   id="g91"
   style="stroke-width:1.40682">
                        <g
   class="typst-text"
   transform="scale(1,-1)"
   id="g90"
   style="stroke-width:1.40682">
                            <g
   transform="translate(2.75)"
   id="g89"
   style="stroke-width:1.40682"><path
   d="M 6.116,5.632 V 2.035 c 0,-0.209 0,-0.33 -0.077,-0.33 -0.044,0 -0.209,0.198 -0.528,0.605 L 1.738,7.095 0.253,7.117 C 0.187,7.051 0.187,6.82 0.253,6.754 0.726,6.721 1.056,6.336 1.122,6.05 V 1.4629999 C 1.122,0.484 0.935,0.41799998 0.16499999,0.341 0.099,0.275 0.099,0.044 0.16499999,-0.022 0.638,-0.011 1.133,0 1.397,0 1.65,0 2.156,-0.011 2.618,-0.022 2.684,0.044 2.684,0.275 2.618,0.341 1.848,0.418 1.661,0.462 1.661,1.4629999 V 4.829 c 0,0.374 0,0.539 0.088,0.539 0.066,0 0.187,-0.1210003 0.374,-0.363 L 5.962,0.154 c 0.121,-0.165 0.264,-0.264 0.44,-0.264 0.1539998,0 0.2529997,0.132 0.2529997,0.341 v 5.401 c 0,0.979 0.1870003,1.045 0.9570003,1.122 0.066,0.066 0.066,0.297 0,0.363 C 7.161,7.106 6.644,7.095 6.38,7.095 6.149,7.095 5.643,7.106 5.159,7.117 5.093,7.051 5.093,6.82 5.159,6.754 5.929,6.677 6.116,6.633 6.116,5.632 Z"
   id="path88"
   style="stroke-width:1.40682" />
        </g></g>
                    </g>
                </g>
            </g>
        </g>
    </g>
    <defs
   id="id-5db508ff-4282-4ef5-a97d-0799fbf9637d">
        <symbol
   id="id-c37c3e26-8a45-4ed5-98b0-ab752730c8ab"
   overflow="visible">
            <path
   d="M 2.9589999,7.3259997 C 2.508,6.864 1.848,6.633 0.979,6.633 V 6.204 c 0.572,0 1.045,0.088 1.408,0.264 V 0.902 C 2.387,0.704 2.343,0.572 2.244,0.517 2.145,0.462 1.87,0.429 1.43,0.429 H 1.045 V 0 C 1.3199999,0.022 1.914,0.033 2.827,0.033 3.74,0.033 4.334,0.022 4.609,0 V 0.429 H 4.224 C 3.773,0.429 3.498,0.462 3.41,0.517 3.322,0.572 3.267,0.704 3.267,0.902 v 6.094 c 0,0.2639998 -0.022,0.3299997 -0.3080001,0.3299997 z"
   id="path97" />
        </symbol>
        <symbol
   id="id-9c5d8599-3499-4dcf-a995-e9e2557585e6"
   overflow="visible">
            <path
   d="M 2.739,-0.242 C 4.29,-0.242 5.06,1.012 5.06,3.52 5.06,5.203 4.708,6.325 4.015,6.875 3.6299999,7.172 3.201,7.3259997 2.75,7.3259997 1.199,7.3259997 0.429,6.061 0.429,3.52 c 0,-2.024 0.539,-3.762 2.31,-3.762 z M 3.971,5.764 C 4.048,5.379 4.081,4.675 4.081,3.652 4.081,2.6399999 4.037,1.892 3.96,1.408 3.817,0.528 3.41,0.088 2.739,0.088 2.486,0.088 2.233,0.187 2.002,0.374 1.705,0.627 1.529,1.144 1.452,1.936 1.419,2.211 1.408,2.783 1.408,3.652 c 0,0.957 0.033,1.6279997 0.088,1.991 0.099,0.605 0.297,0.99 0.605,1.155 0.242,0.132 0.451,0.198 0.638,0.198 0.715,0 1.111,-0.583 1.232,-1.232 z"
   id="path98" />
        </symbol>
        <symbol
   id="id-24ff30f1-6235-4549-a300-73cfae4dfa9a"
   overflow="visible">
            <path
   d="M 6.116,5.632 V 2.035 c 0,-0.209 0,-0.33 -0.077,-0.33 -0.044,0 -0.209,0.198 -0.528,0.605 L 1.738,7.095 0.253,7.117 C 0.187,7.051 0.187,6.82 0.253,6.754 0.726,6.721 1.056,6.336 1.122,6.05 V 1.4629999 C 1.122,0.484 0.935,0.41799998 0.16499999,0.341 0.099,0.275 0.099,0.044 0.16499999,-0.022 0.638,-0.011 1.133,0 1.397,0 1.65,0 2.156,-0.011 2.618,-0.022 2.684,0.044 2.684,0.275 2.618,0.341 1.848,0.418 1.661,0.462 1.661,1.4629999 V 4.829 c 0,0.374 0,0.539 0.088,0.539 0.066,0 0.187,-0.1210003 0.374,-0.363 L 5.962,0.154 c 0.121,-0.165 0.264,-0.264 0.44,-0.264 0.1539998,0 0.2529997,0.132 0.2529997,0.341 v 5.401 c 0,0.979 0.1870003,1.045 0.9570003,1.122 0.066,0.066 0.066,0.297 0,0.363 C 7.161,7.106 6.644,7.095 6.38,7.095 6.149,7.095 5.643,7.106 5.159,7.117 5.093,7.051 5.093,6.82 5.159,6.754 5.929,6.677 6.116,6.633 6.116,5.632 Z"
   id="path105" />
        </symbol>
    </defs>
</g></g><path
     style="fill:#3b3b3b;stroke:#e3a300;stroke-width:3.77953;stroke-dasharray:none;stroke-dashoffset:0;stroke-opacity:1;marker-end:url(#Triangle)"
     d="m 188.79751,229.1026 v 87.68124"
     id="path68" /><path
     style="fill:#3b3b3b;stroke:#e3a300;stroke-width:3.77953;stroke-dasharray:none;stroke-dashoffset:0;stroke-opacity:1;marker-end:url(#Triangle)"
     d="m 802.5662,229.1026 v 87.68124"
     id="path67" /></svg>
