<?xml version="1.0" encoding="UTF-8" standalone="no"?>
<!-- Created with Inkscape (http://www.inkscape.org/) -->

<svg
   width="157.69844mm"
   height="115.60349mm"
   viewBox="0 0 596.02559 436.92658"
   version="1.1"
   id="svg1"
   inkscape:version="1.4 (unknown)"
   sodipodi:docname="moment.svg"
   xml:space="preserve"
   xmlns:inkscape="http://www.inkscape.org/namespaces/inkscape"
   xmlns:sodipodi="http://sodipodi.sourceforge.net/DTD/sodipodi-0.dtd"
   xmlns="http://www.w3.org/2000/svg"
   xmlns:svg="http://www.w3.org/2000/svg"
   xmlns:ns2="http://www.iki.fi/pav/software/textext/"><sodipodi:namedview
     id="namedview1"
     pagecolor="#505050"
     bordercolor="#eeeeee"
     borderopacity="1"
     inkscape:showpageshadow="0"
     inkscape:pageopacity="0"
     inkscape:pagecheckerboard="false"
     inkscape:deskcolor="#505050"
     inkscape:document-units="mm"
     inkscape:zoom="1.4142136"
     inkscape:cx="146.01755"
     inkscape:cy="127.98632"
     inkscape:window-width="2560"
     inkscape:window-height="1403"
     inkscape:window-x="0"
     inkscape:window-y="0"
     inkscape:window-maximized="1"
     inkscape:current-layer="svg1"
     showborder="true" /><defs
     id="defs1"><marker
       style="overflow:visible"
       id="ArrowWide"
       refX="0"
       refY="0"
       orient="auto-start-reverse"
       inkscape:stockid="Wide arrow"
       markerWidth="0.80000001"
       markerHeight="0.80000001"
       viewBox="0 0 1 1"
       inkscape:isstock="true"
       inkscape:collect="always"
       preserveAspectRatio="xMidYMid"><path
         style="fill:none;stroke:context-stroke;stroke-width:1;stroke-linecap:butt"
         d="M 3,-3 0,0 3,3"
         transform="rotate(180,0.125,0)"
         sodipodi:nodetypes="ccc"
         id="path27" /></marker><marker
       style="overflow:visible"
       id="marker6"
       refX="0"
       refY="0"
       orient="auto"
       inkscape:stockid="Stop"
       markerWidth="1"
       markerHeight="1"
       viewBox="0 0 1 1"
       inkscape:isstock="true"
       inkscape:collect="always"
       preserveAspectRatio="xMidYMid"><path
         style="fill:none;stroke:context-stroke;stroke-width:1"
         d="M 0,4 V -4"
         id="path6" /></marker><marker
       style="overflow:visible"
       id="Stop"
       refX="0"
       refY="0"
       orient="auto"
       inkscape:stockid="Stop"
       markerWidth="1"
       markerHeight="1"
       viewBox="0 0 1 1"
       inkscape:isstock="true"
       inkscape:collect="always"
       preserveAspectRatio="xMidYMid"><path
         style="fill:none;stroke:context-stroke;stroke-width:1"
         d="M 0,4 V -4"
         id="path23" /></marker><marker
       style="overflow:visible"
       id="Triangle"
       refX="0"
       refY="0"
       orient="auto-start-reverse"
       inkscape:stockid="Triangle arrow"
       markerWidth="0.40000001"
       markerHeight="0.40000001"
       viewBox="0 0 1 1"
       inkscape:isstock="true"
       inkscape:collect="always"
       preserveAspectRatio="xMidYMid"
       markerUnits="strokeWidth"><path
         transform="scale(0.5)"
         style="fill:context-stroke;fill-rule:evenodd;stroke:context-stroke;stroke-width:1pt"
         d="M 5.77,0 -2.88,5 V -5 Z"
         id="path135" /></marker><inkscape:path-effect
       effect="skeletal"
       id="path-effect112"
       is_visible="true"
       lpeversion="1"
       pattern="M 0,18.867925 C 0,8.4528305 8.4528305,0 18.867925,0 29.28302,0 37.735851,8.4528305 37.735851,18.867925 c 0,10.415095 -8.452831,18.867926 -18.867926,18.867926 C 8.4528305,37.735851 0,29.28302 0,18.867925 Z"
       copytype="single_stretched"
       prop_scale="1.2021984"
       scale_y_rel="false"
       spacing="0"
       normal_offset="0"
       tang_offset="0"
       prop_units="false"
       vertical_pattern="false"
       hide_knot="false"
       fuse_tolerance="0" /><inkscape:path-effect
       effect="skeletal"
       id="path-effect110"
       is_visible="true"
       lpeversion="1"
       pattern="M 0,18.867925 C 0,8.4528305 8.4528305,0 18.867925,0 29.28302,0 37.735851,8.4528305 37.735851,18.867925 c 0,10.415095 -8.452831,18.867926 -18.867926,18.867926 C 8.4528305,37.735851 0,29.28302 0,18.867925 Z"
       copytype="single_stretched"
       prop_scale="1"
       scale_y_rel="false"
       spacing="0"
       normal_offset="0"
       tang_offset="0"
       prop_units="false"
       vertical_pattern="false"
       hide_knot="false"
       fuse_tolerance="0" /><inkscape:path-effect
       effect="skeletal"
       id="path-effect108"
       is_visible="true"
       lpeversion="1"
       pattern="M 0,18.867925 C 0,8.4528305 8.4528305,0 18.867925,0 29.28302,0 37.735851,8.4528305 37.735851,18.867925 c 0,10.415095 -8.452831,18.867926 -18.867926,18.867926 C 8.4528305,37.735851 0,29.28302 0,18.867925 Z"
       copytype="single_stretched"
       prop_scale="1"
       scale_y_rel="false"
       spacing="0"
       normal_offset="0"
       tang_offset="0"
       prop_units="false"
       vertical_pattern="false"
       hide_knot="false"
       fuse_tolerance="0" /><inkscape:path-effect
       effect="skeletal"
       id="path-effect106"
       is_visible="true"
       lpeversion="1"
       pattern="M 0,18.867925 C 0,8.4528305 8.4528305,0 18.867925,0 29.28302,0 37.735851,8.4528305 37.735851,18.867925 c 0,10.415095 -8.452831,18.867926 -18.867926,18.867926 C 8.4528305,37.735851 0,29.28302 0,18.867925 Z"
       copytype="single_stretched"
       prop_scale="1"
       scale_y_rel="false"
       spacing="0"
       normal_offset="0"
       tang_offset="0"
       prop_units="false"
       vertical_pattern="false"
       hide_knot="false"
       fuse_tolerance="0" /><inkscape:path-effect
       effect="skeletal"
       id="path-effect93"
       is_visible="true"
       lpeversion="1"
       pattern="M 0,18.867925 C 0,8.4528305 8.4528305,0 18.867925,0 29.28302,0 37.735851,8.4528305 37.735851,18.867925 c 0,10.415095 -8.452831,18.867926 -18.867926,18.867926 C 8.4528305,37.735851 0,29.28302 0,18.867925 Z"
       copytype="single_stretched"
       prop_scale="1.2021984"
       scale_y_rel="false"
       spacing="0"
       normal_offset="0"
       tang_offset="0"
       prop_units="false"
       vertical_pattern="false"
       hide_knot="false"
       fuse_tolerance="0" /><inkscape:path-effect
       effect="skeletal"
       id="path-effect91"
       is_visible="true"
       lpeversion="1"
       pattern="M 0,18.867925 C 0,8.4528305 8.4528305,0 18.867925,0 29.28302,0 37.735851,8.4528305 37.735851,18.867925 c 0,10.415095 -8.452831,18.867926 -18.867926,18.867926 C 8.4528305,37.735851 0,29.28302 0,18.867925 Z"
       copytype="single_stretched"
       prop_scale="1"
       scale_y_rel="false"
       spacing="0"
       normal_offset="0"
       tang_offset="0"
       prop_units="false"
       vertical_pattern="false"
       hide_knot="false"
       fuse_tolerance="0" /><inkscape:path-effect
       effect="skeletal"
       id="path-effect89"
       is_visible="true"
       lpeversion="1"
       pattern="M 0,18.867925 C 0,8.4528305 8.4528305,0 18.867925,0 29.28302,0 37.735851,8.4528305 37.735851,18.867925 c 0,10.415095 -8.452831,18.867926 -18.867926,18.867926 C 8.4528305,37.735851 0,29.28302 0,18.867925 Z"
       copytype="single_stretched"
       prop_scale="1"
       scale_y_rel="false"
       spacing="0"
       normal_offset="0"
       tang_offset="0"
       prop_units="false"
       vertical_pattern="false"
       hide_knot="false"
       fuse_tolerance="0" /><inkscape:path-effect
       effect="skeletal"
       id="path-effect87"
       is_visible="true"
       lpeversion="1"
       pattern="M 0,18.867925 C 0,8.4528305 8.4528305,0 18.867925,0 29.28302,0 37.735851,8.4528305 37.735851,18.867925 c 0,10.415095 -8.452831,18.867926 -18.867926,18.867926 C 8.4528305,37.735851 0,29.28302 0,18.867925 Z"
       copytype="single_stretched"
       prop_scale="1"
       scale_y_rel="false"
       spacing="0"
       normal_offset="0"
       tang_offset="0"
       prop_units="false"
       vertical_pattern="false"
       hide_knot="false"
       fuse_tolerance="0" /><inkscape:path-effect
       effect="skeletal"
       id="path-effect74"
       is_visible="true"
       lpeversion="1"
       pattern="M 0,18.867925 C 0,8.4528305 8.4528305,0 18.867925,0 29.28302,0 37.735851,8.4528305 37.735851,18.867925 c 0,10.415095 -8.452831,18.867926 -18.867926,18.867926 C 8.4528305,37.735851 0,29.28302 0,18.867925 Z"
       copytype="single_stretched"
       prop_scale="1.2021984"
       scale_y_rel="false"
       spacing="0"
       normal_offset="0"
       tang_offset="0"
       prop_units="false"
       vertical_pattern="false"
       hide_knot="false"
       fuse_tolerance="0" /><inkscape:path-effect
       effect="skeletal"
       id="path-effect72"
       is_visible="true"
       lpeversion="1"
       pattern="M 0,18.867925 C 0,8.4528305 8.4528305,0 18.867925,0 29.28302,0 37.735851,8.4528305 37.735851,18.867925 c 0,10.415095 -8.452831,18.867926 -18.867926,18.867926 C 8.4528305,37.735851 0,29.28302 0,18.867925 Z"
       copytype="single_stretched"
       prop_scale="1"
       scale_y_rel="false"
       spacing="0"
       normal_offset="0"
       tang_offset="0"
       prop_units="false"
       vertical_pattern="false"
       hide_knot="false"
       fuse_tolerance="0" /><inkscape:path-effect
       effect="skeletal"
       id="path-effect70"
       is_visible="true"
       lpeversion="1"
       pattern="M 0,18.867925 C 0,8.4528305 8.4528305,0 18.867925,0 29.28302,0 37.735851,8.4528305 37.735851,18.867925 c 0,10.415095 -8.452831,18.867926 -18.867926,18.867926 C 8.4528305,37.735851 0,29.28302 0,18.867925 Z"
       copytype="single_stretched"
       prop_scale="1"
       scale_y_rel="false"
       spacing="0"
       normal_offset="0"
       tang_offset="0"
       prop_units="false"
       vertical_pattern="false"
       hide_knot="false"
       fuse_tolerance="0" /><inkscape:path-effect
       effect="skeletal"
       id="path-effect68"
       is_visible="true"
       lpeversion="1"
       pattern="M 0,18.867925 C 0,8.4528305 8.4528305,0 18.867925,0 29.28302,0 37.735851,8.4528305 37.735851,18.867925 c 0,10.415095 -8.452831,18.867926 -18.867926,18.867926 C 8.4528305,37.735851 0,29.28302 0,18.867925 Z"
       copytype="single_stretched"
       prop_scale="1"
       scale_y_rel="false"
       spacing="0"
       normal_offset="0"
       tang_offset="0"
       prop_units="false"
       vertical_pattern="false"
       hide_knot="false"
       fuse_tolerance="0" /><inkscape:path-effect
       effect="skeletal"
       id="path-effect48"
       is_visible="true"
       lpeversion="1"
       pattern="M 0,18.867925 C 0,8.4528305 8.4528305,0 18.867925,0 29.28302,0 37.735851,8.4528305 37.735851,18.867925 c 0,10.415095 -8.452831,18.867926 -18.867926,18.867926 C 8.4528305,37.735851 0,29.28302 0,18.867925 Z"
       copytype="single_stretched"
       prop_scale="1.2021984"
       scale_y_rel="false"
       spacing="0"
       normal_offset="0"
       tang_offset="0"
       prop_units="false"
       vertical_pattern="false"
       hide_knot="false"
       fuse_tolerance="0" /><inkscape:path-effect
       effect="skeletal"
       id="path-effect46"
       is_visible="true"
       lpeversion="1"
       pattern="M 0,18.867925 C 0,8.4528305 8.4528305,0 18.867925,0 29.28302,0 37.735851,8.4528305 37.735851,18.867925 c 0,10.415095 -8.452831,18.867926 -18.867926,18.867926 C 8.4528305,37.735851 0,29.28302 0,18.867925 Z"
       copytype="single_stretched"
       prop_scale="1"
       scale_y_rel="false"
       spacing="0"
       normal_offset="0"
       tang_offset="0"
       prop_units="false"
       vertical_pattern="false"
       hide_knot="false"
       fuse_tolerance="0" /><inkscape:path-effect
       effect="skeletal"
       id="path-effect44"
       is_visible="true"
       lpeversion="1"
       pattern="M 0,18.867925 C 0,8.4528305 8.4528305,0 18.867925,0 29.28302,0 37.735851,8.4528305 37.735851,18.867925 c 0,10.415095 -8.452831,18.867926 -18.867926,18.867926 C 8.4528305,37.735851 0,29.28302 0,18.867925 Z"
       copytype="single_stretched"
       prop_scale="1"
       scale_y_rel="false"
       spacing="0"
       normal_offset="0"
       tang_offset="0"
       prop_units="false"
       vertical_pattern="false"
       hide_knot="false"
       fuse_tolerance="0" /><inkscape:path-effect
       effect="skeletal"
       id="path-effect42"
       is_visible="true"
       lpeversion="1"
       pattern="M 0,18.867925 C 0,8.4528305 8.4528305,0 18.867925,0 29.28302,0 37.735851,8.4528305 37.735851,18.867925 c 0,10.415095 -8.452831,18.867926 -18.867926,18.867926 C 8.4528305,37.735851 0,29.28302 0,18.867925 Z"
       copytype="single_stretched"
       prop_scale="1"
       scale_y_rel="false"
       spacing="0"
       normal_offset="0"
       tang_offset="0"
       prop_units="false"
       vertical_pattern="false"
       hide_knot="false"
       fuse_tolerance="0" /><inkscape:path-effect
       effect="skeletal"
       id="path-effect18"
       is_visible="true"
       lpeversion="1"
       pattern="M 0,18.867925 C 0,8.4528305 8.4528305,0 18.867925,0 29.28302,0 37.735851,8.4528305 37.735851,18.867925 c 0,10.415095 -8.452831,18.867926 -18.867926,18.867926 C 8.4528305,37.735851 0,29.28302 0,18.867925 Z"
       copytype="single_stretched"
       prop_scale="1"
       scale_y_rel="false"
       spacing="0"
       normal_offset="0"
       tang_offset="0"
       prop_units="false"
       vertical_pattern="false"
       hide_knot="false"
       fuse_tolerance="0" /><inkscape:path-effect
       effect="skeletal"
       id="path-effect16"
       is_visible="true"
       lpeversion="1"
       pattern="M 0,18.867925 C 0,8.4528305 8.4528305,0 18.867925,0 29.28302,0 37.735851,8.4528305 37.735851,18.867925 c 0,10.415095 -8.452831,18.867926 -18.867926,18.867926 C 8.4528305,37.735851 0,29.28302 0,18.867925 Z"
       copytype="single_stretched"
       prop_scale="1"
       scale_y_rel="false"
       spacing="0"
       normal_offset="0"
       tang_offset="0"
       prop_units="false"
       vertical_pattern="false"
       hide_knot="false"
       fuse_tolerance="0" /><inkscape:path-effect
       effect="skeletal"
       id="path-effect14"
       is_visible="true"
       lpeversion="1"
       pattern="M 0,18.867925 C 0,8.4528305 8.4528305,0 18.867925,0 29.28302,0 37.735851,8.4528305 37.735851,18.867925 c 0,10.415095 -8.452831,18.867926 -18.867926,18.867926 C 8.4528305,37.735851 0,29.28302 0,18.867925 Z"
       copytype="single_stretched"
       prop_scale="1"
       scale_y_rel="false"
       spacing="0"
       normal_offset="0"
       tang_offset="0"
       prop_units="false"
       vertical_pattern="false"
       hide_knot="false"
       fuse_tolerance="0" /><inkscape:path-effect
       effect="skeletal"
       id="path-effect12"
       is_visible="true"
       lpeversion="1"
       pattern="M 0,18.867925 C 0,8.4528305 8.4528305,0 18.867925,0 29.28302,0 37.735851,8.4528305 37.735851,18.867925 c 0,10.415095 -8.452831,18.867926 -18.867926,18.867926 C 8.4528305,37.735851 0,29.28302 0,18.867925 Z"
       copytype="single_stretched"
       prop_scale="1"
       scale_y_rel="false"
       spacing="0"
       normal_offset="0"
       tang_offset="0"
       prop_units="false"
       vertical_pattern="false"
       hide_knot="false"
       fuse_tolerance="0" /><inkscape:path-effect
       effect="skeletal"
       id="path-effect10"
       is_visible="true"
       lpeversion="1"
       pattern="M 0,18.867925 C 0,8.4528305 8.4528305,0 18.867925,0 29.28302,0 37.735851,8.4528305 37.735851,18.867925 c 0,10.415095 -8.452831,18.867926 -18.867926,18.867926 C 8.4528305,37.735851 0,29.28302 0,18.867925 Z"
       copytype="single_stretched"
       prop_scale="1"
       scale_y_rel="false"
       spacing="0"
       normal_offset="0"
       tang_offset="0"
       prop_units="false"
       vertical_pattern="false"
       hide_knot="false"
       fuse_tolerance="0" /><inkscape:path-effect
       effect="skeletal"
       id="path-effect8"
       is_visible="true"
       lpeversion="1"
       pattern="M 0,18.867925 C 0,8.4528305 8.4528305,0 18.867925,0 29.28302,0 37.735851,8.4528305 37.735851,18.867925 c 0,10.415095 -8.452831,18.867926 -18.867926,18.867926 C 8.4528305,37.735851 0,29.28302 0,18.867925 Z"
       copytype="single_stretched"
       prop_scale="1.2021984"
       scale_y_rel="false"
       spacing="0"
       normal_offset="0"
       tang_offset="0"
       prop_units="false"
       vertical_pattern="false"
       hide_knot="false"
       fuse_tolerance="0" /><inkscape:path-effect
       effect="skeletal"
       id="path-effect7"
       is_visible="true"
       lpeversion="1"
       pattern="M 0,18.867925 C 0,8.4528305 8.4528305,0 18.867925,0 29.28302,0 37.735851,8.4528305 37.735851,18.867925 c 0,10.415095 -8.452831,18.867926 -18.867926,18.867926 C 8.4528305,37.735851 0,29.28302 0,18.867925 Z"
       copytype="single_stretched"
       prop_scale="1"
       scale_y_rel="false"
       spacing="0"
       normal_offset="0"
       tang_offset="0"
       prop_units="false"
       vertical_pattern="false"
       hide_knot="false"
       fuse_tolerance="0" /><inkscape:path-effect
       effect="spiro"
       id="path-effect6"
       is_visible="true"
       lpeversion="1" /><inkscape:path-effect
       effect="skeletal"
       id="path-effect8-1"
       is_visible="true"
       lpeversion="1"
       pattern="M 0,18.867925 C 0,8.4528305 8.4528305,0 18.867925,0 29.28302,0 37.735851,8.4528305 37.735851,18.867925 c 0,10.415095 -8.452831,18.867926 -18.867926,18.867926 C 8.4528305,37.735851 0,29.28302 0,18.867925 Z"
       copytype="single_stretched"
       prop_scale="1"
       scale_y_rel="false"
       spacing="0"
       normal_offset="0"
       tang_offset="0"
       prop_units="false"
       vertical_pattern="false"
       hide_knot="false"
       fuse_tolerance="0" /><inkscape:path-effect
       effect="skeletal"
       id="path-effect10-3"
       is_visible="true"
       lpeversion="1"
       pattern="M 0,18.867925 C 0,8.4528305 8.4528305,0 18.867925,0 29.28302,0 37.735851,8.4528305 37.735851,18.867925 c 0,10.415095 -8.452831,18.867926 -18.867926,18.867926 C 8.4528305,37.735851 0,29.28302 0,18.867925 Z"
       copytype="single_stretched"
       prop_scale="1"
       scale_y_rel="false"
       spacing="0"
       normal_offset="0"
       tang_offset="0"
       prop_units="false"
       vertical_pattern="false"
       hide_knot="false"
       fuse_tolerance="0" /></defs><path
     style="fill:#000000;fill-opacity:1;stroke:#000000;stroke-width:7.55906;stroke-dasharray:none;stroke-dashoffset:0;stroke-opacity:1"
     d="M 218.25671,222.28192 H 576.54075"
     id="path1" /><path
     style="opacity:1;fill:#000000;fill-opacity:1;stroke:#8a0000;stroke-width:18.8976;stroke-dasharray:none;stroke-opacity:1;marker-end:url(#Triangle)"
     d="M 572.76122,222.28191 V 67.72263"
     id="path3" /><path
     style="fill:#000000;fill-opacity:1;stroke:#000000;stroke-width:3.77953;stroke-dasharray:30.2362, 3.77953;stroke-dashoffset:0;stroke-opacity:1;marker-start:url(#Stop);marker-end:url(#marker6)"
     d="M 220.15076,241.17959 H 572.79599"
     id="path4" /><g
     transform="matrix(5.16964,0,0,5.16964,21.860479,-109.42899)"
     ns2:version="1.11.0"
     ns2:texconverter="typst"
     ns2:pdfconverter="inkscape"
     ns2:text="$l$"
     ns2:preamble="/home/sermuns/.config/inkscape/extensions/textext/default_preamble_typst.typ"
     ns2:scale="3.877242618106545"
     ns2:alignment="middle center"
     ns2:inkscapeversion="1.4"
     ns2:jacobian_sqrt="5.16964"
     id="g15"><g
   id="g14">
        <g
   transform="translate(70.8661,78.3791)"
   id="g13">
            <g
   class="typst-text"
   transform="scale(1,-1)"
   id="g12">
                <g
   id="g11"><path
   d="M 1.903,6.952 0.539,1.309 C 0.506,1.155 0.484,1.023 0.484,0.924 c 0,-0.583 0.429,-1.045 1.012,-1.045 0.539,0 0.924,0.572 1.155,1.716 0,0.099 -0.055,0.154 -0.176,0.154 C 2.387,1.749 2.321,1.672 2.288,1.518 2.068,0.649 1.8149999,0.20899999 1.518,0.20899999 1.331,0.20899999 1.243,0.363 1.243,0.65999997 1.243,0.825 1.265,1.001 1.309,1.177 L 2.838,7.469 V 7.513 C 2.805,7.59 2.739,7.634 2.662,7.634 2.31,7.634 1.496,7.535 1.364,7.524 1.199,7.502 1.122,7.414 1.122,7.249 1.122,7.15 1.221,7.095 1.43,7.095 c 0.187,0 0.473,0 0.473,-0.143 z"
   id="path11" />
        </g></g>
        </g>
    </g>
    <defs
   id="id-1aa94f83-0ced-4ddc-ad5a-f3b27f4da545">
        <symbol
   id="id-672d5f65-fed3-46a9-a813-0a086cf7d69d"
   overflow="visible">
            <path
   d="M 1.903,6.952 0.539,1.309 C 0.506,1.155 0.484,1.023 0.484,0.924 c 0,-0.583 0.429,-1.045 1.012,-1.045 0.539,0 0.924,0.572 1.155,1.716 0,0.099 -0.055,0.154 -0.176,0.154 C 2.387,1.749 2.321,1.672 2.288,1.518 2.068,0.649 1.8149999,0.20899999 1.518,0.20899999 1.331,0.20899999 1.243,0.363 1.243,0.65999997 1.243,0.825 1.265,1.001 1.309,1.177 L 2.838,7.469 V 7.513 C 2.805,7.59 2.739,7.634 2.662,7.634 2.31,7.634 1.496,7.535 1.364,7.524 1.199,7.502 1.122,7.414 1.122,7.249 1.122,7.15 1.221,7.095 1.43,7.095 c 0.187,0 0.473,0 0.473,-0.143 z"
   id="path14" />
        </symbol>
    </defs>
</g><g
     transform="matrix(5.16964,0,0,5.16964,109.83963,-325.64291)"
     ns2:version="1.11.0"
     ns2:texconverter="typst"
     ns2:pdfconverter="inkscape"
     ns2:text="$F_perp$"
     ns2:preamble="/home/sermuns/.config/inkscape/extensions/textext/default_preamble_typst.typ"
     ns2:scale="3.877242618106545"
     ns2:alignment="middle center"
     ns2:inkscapeversion="1.4"
     ns2:jacobian_sqrt="5.16964"
     id="g24"><g
   id="g22">
        <g
   transform="translate(70.8661,78.3791)"
   id="g18">
            <g
   class="typst-text"
   transform="scale(1,-1)"
   id="g17">
                <g
   id="g16"><path
   d="m 2.189,7.216 c 0,-0.11 0.121,-0.165 0.352,-0.165 0.44,0 0.66,-0.044 0.66,-0.143 0,-0.033 -0.022,-0.11 -0.055,-0.2530003 L 1.716,0.902 C 1.65,0.65999997 1.54,0.517 1.386,0.462 1.309,0.44 1.111,0.429 0.77,0.429 0.528,0.429 0.41799998,0.407 0.41799998,0.176 0.41799998,0.055 0.484,0 0.627,0 L 2.057,0.033 3.685,0 C 3.861,0 3.949,0.088 3.949,0.253 3.949,0.44 3.828,0.429 3.542,0.429 3.058,0.429 2.783,0.451 2.717,0.506 2.684,0.517 2.673,0.561 2.673,0.616 L 3.377,3.531 H 4.4 c 0.506,0 0.858,-0.022 0.858,-0.44 C 5.258,2.948 5.236,2.772 5.181,2.563 5.17,2.53 5.159,2.486 5.148,2.442 5.148,2.321 5.203,2.266 5.324,2.266 5.379,2.277 5.456,2.354 5.533,2.519 L 6.127,4.884 C 6.149,4.972 6.16,5.038 6.16,5.071 6.127,5.17 6.061,5.225 5.984,5.225 5.896,5.225 5.83,5.137 5.786,4.972 5.676,4.554 5.522,4.29 5.346,4.158 5.17,4.026 4.862,3.96 4.422,3.96 H 3.487 l 0.682,2.706 c 0.088,0.374 0.088,0.385 0.55,0.385 h 1.43 C 7.216,7.051 7.7,6.886 7.7,5.907 7.7,5.687 7.689,5.489 7.667,5.324 7.656,5.203 7.645,5.137 7.645,5.126 7.645,5.005 7.7,4.95 7.81,4.95 c 0.11,0 0.176,0.099 0.198,0.308 l 0.22,1.881 C 8.261,7.447 8.184,7.48 7.887,7.48 H 2.563 C 2.31,7.48 2.189,7.469 2.189,7.216 Z"
   id="path15" />
        </g></g>
        </g>
        <g
   transform="translate(77.9391,81.0961)"
   id="g21">
            <g
   class="typst-text"
   transform="scale(1,-1)"
   id="g20">
                <g
   id="g19"><path
   d="M 5.3515,0.4081 H 3.2031999 v 4.6508 c 0,0.1232 -0.0847,0.2079 -0.2078999,0.2079 -0.1232001,0 -0.2079,-0.0847 -0.2079,-0.2079 V 0.4081 H 0.6391 C 0.5159,0.4081 0.4312,0.3234 0.4312,0.2079 0.4312,0.0847 0.5159,0 0.6391,0 h 4.7124 c 0.1463,0 0.2079,0.0847 0.2079,0.2079 0,0.0924 -0.0847,0.2002 -0.2079,0.2002 z"
   id="path18" />
        </g></g>
        </g>
    </g>
    <defs
   id="id-82066eb1-c103-4acc-b8af-4c0721ddab69">
        <symbol
   id="id-dc7f8bb3-ef8c-4fc5-8243-0437ef99c8b2"
   overflow="visible">
            <path
   d="m 2.189,7.216 c 0,-0.11 0.121,-0.165 0.352,-0.165 0.44,0 0.66,-0.044 0.66,-0.143 0,-0.033 -0.022,-0.11 -0.055,-0.2530003 L 1.716,0.902 C 1.65,0.65999997 1.54,0.517 1.386,0.462 1.309,0.44 1.111,0.429 0.77,0.429 0.528,0.429 0.41799998,0.407 0.41799998,0.176 0.41799998,0.055 0.484,0 0.627,0 L 2.057,0.033 3.685,0 C 3.861,0 3.949,0.088 3.949,0.253 3.949,0.44 3.828,0.429 3.542,0.429 3.058,0.429 2.783,0.451 2.717,0.506 2.684,0.517 2.673,0.561 2.673,0.616 L 3.377,3.531 H 4.4 c 0.506,0 0.858,-0.022 0.858,-0.44 C 5.258,2.948 5.236,2.772 5.181,2.563 5.17,2.53 5.159,2.486 5.148,2.442 5.148,2.321 5.203,2.266 5.324,2.266 5.379,2.277 5.456,2.354 5.533,2.519 L 6.127,4.884 C 6.149,4.972 6.16,5.038 6.16,5.071 6.127,5.17 6.061,5.225 5.984,5.225 5.896,5.225 5.83,5.137 5.786,4.972 5.676,4.554 5.522,4.29 5.346,4.158 5.17,4.026 4.862,3.96 4.422,3.96 H 3.487 l 0.682,2.706 c 0.088,0.374 0.088,0.385 0.55,0.385 h 1.43 C 7.216,7.051 7.7,6.886 7.7,5.907 7.7,5.687 7.689,5.489 7.667,5.324 7.656,5.203 7.645,5.137 7.645,5.126 7.645,5.005 7.7,4.95 7.81,4.95 c 0.11,0 0.176,0.099 0.198,0.308 l 0.22,1.881 C 8.261,7.447 8.184,7.48 7.887,7.48 H 2.563 C 2.31,7.48 2.189,7.469 2.189,7.216 Z"
   id="path22" />
        </symbol>
        <symbol
   id="id-7c942a0e-862b-4f7f-b21c-4a3a6afe7d26"
   overflow="visible">
            <path
   d="M 5.3515,0.4081 H 3.2031999 v 4.6508 c 0,0.1232 -0.0847,0.2079 -0.2078999,0.2079 -0.1232001,0 -0.2079,-0.0847 -0.2079,-0.2079 V 0.4081 H 0.6391 C 0.5159,0.4081 0.4312,0.3234 0.4312,0.2079 0.4312,0.0847 0.5159,0 0.6391,0 h 4.7124 c 0.1463,0 0.2079,0.0847 0.2079,0.2079 0,0.0924 -0.0847,0.2002 -0.2079,0.2002 z"
   id="path24" />
        </symbol>
    </defs>
</g><circle
     style="opacity:1;fill:#5c6dc5;fill-opacity:1;stroke:none;stroke-width:3.77952;stroke-dasharray:none;stroke-dashoffset:0;stroke-opacity:1"
     id="path25"
     cx="219.94421"
     cy="222.28191"
     r="8.0295515" /><text
     xml:space="preserve"
     style="font-style:normal;font-variant:normal;font-weight:normal;font-stretch:normal;font-size:46.6667px;font-family:'Atkinson Hyperlegible';-inkscape-font-specification:'Atkinson Hyperlegible';text-align:start;writing-mode:lr-tb;direction:ltr;text-anchor:start;opacity:1;fill:#000000;fill-opacity:1;stroke:none;stroke-width:3.77953;stroke-dasharray:none;stroke-dashoffset:0;stroke-opacity:1"
     x="-3.5465901"
     y="33.366608"
     id="text28"><tspan
       sodipodi:role="line"
       id="tspan28"
       x="-3.5465901"
       y="33.366608">Rotationspunkt</tspan></text><text
     xml:space="preserve"
     style="font-style:normal;font-variant:normal;font-weight:normal;font-stretch:normal;font-size:46.6667px;font-family:'Atkinson Hyperlegible';-inkscape-font-specification:'Atkinson Hyperlegible';text-align:start;writing-mode:lr-tb;direction:ltr;text-anchor:start;opacity:1;fill:#000000;fill-opacity:1;stroke:none;stroke-width:3.77953;stroke-dasharray:none;stroke-dashoffset:0;stroke-opacity:1"
     x="183.4534"
     y="436.36661"
     id="text29"><tspan
       sodipodi:role="line"
       id="tspan29"
       x="183.4534"
       y="436.36661">Momentarm</tspan></text><path
     style="opacity:1;fill:#76b1ff;fill-opacity:1;stroke:#000000;stroke-width:3.77953;stroke-dasharray:none;stroke-dashoffset:0;stroke-opacity:1;marker-end:url(#ArrowWide)"
     d="M 155.67776,57.143361 209.41788,195.7363"
     id="path29"
     sodipodi:nodetypes="cc" /><path
     style="opacity:1;fill:#76b1ff;fill-opacity:1;stroke:#000000;stroke-width:3.77953;stroke-dasharray:none;stroke-dashoffset:0;stroke-opacity:1;marker-end:url(#ArrowWide)"
     d="M 315.17776,402.14336 338.26102,258.43731"
     id="path26"
     sodipodi:nodetypes="cc" /><path
     style="opacity:1;fill:none;fill-opacity:1;stroke:#000000;stroke-width:3.77953;stroke-dasharray:none;stroke-dashoffset:0;stroke-opacity:1"
     d="M 540.125,222.28192 V 195.37499 H 563.25"
     id="path28"
     sodipodi:nodetypes="ccc" /><g
     transform="matrix(5.16964,0,0,5.16964,-215.19183,-157.37684)"
     ns2:version="1.11.0"
     ns2:texconverter="typst"
     ns2:pdfconverter="inkscape"
     ns2:text="$O$"
     ns2:preamble="/home/sermuns/.config/inkscape/extensions/textext/default_preamble_typst.typ"
     ns2:scale="3.877242618106545"
     ns2:alignment="middle center"
     ns2:inkscapeversion="1.4"
     ns2:jacobian_sqrt="5.16964"
     id="g6"><g
   id="g5">
        <g
   transform="translate(70.8661,78.3791)"
   id="g4">
            <g
   class="typst-text"
   transform="scale(1,-1)"
   id="g3">
                <g
   id="g2"><path
   d="M 7.722,2.893 C 7.9969997,3.52 8.14,4.147 8.14,4.785 8.14,5.643 7.887,6.347 7.37,6.908 6.853,7.469 6.171,7.755 5.324,7.755 4.741,7.755 4.158,7.612 3.575,7.3259997 2.387,6.743 1.518,5.819 0.957,4.565 0.682,3.949 0.539,3.333 0.539,2.706 c 0,-0.869 0.253,-1.573 0.77,-2.123 0.517,-0.55 1.199,-0.825 2.057,-0.825 0.572,0 1.1439998,0.143 1.727,0.418 1.199,0.583 2.068,1.4959999 2.629,2.717 z M 7.084,5.2139997 C 7.084,3.751 6.424,2.288 5.72,1.419 5.236,0.814 4.4,0.132 3.432,0.132 c -1.1770001,0 -1.7930001,1.023 -1.7930001,2.266 0,0.385 0.077,0.902 0.2200001,1.529 0.297,1.298 1.045,2.442 2.024,3.036 0.473,0.286 0.935,0.429 1.375,0.429 1.188,0 1.826,-0.946 1.826,-2.1780003 z"
   id="path2" />
        </g></g>
        </g>
    </g>
    <defs
   id="id-b2669eaa-5d6f-4297-961e-678e11bbabc8">
        <symbol
   id="id-2d85e764-6d60-4c22-a102-2112d9e2a559"
   overflow="visible">
            <path
   d="M 7.722,2.893 C 7.9969997,3.52 8.14,4.147 8.14,4.785 8.14,5.643 7.887,6.347 7.37,6.908 6.853,7.469 6.171,7.755 5.324,7.755 4.741,7.755 4.158,7.612 3.575,7.3259997 2.387,6.743 1.518,5.819 0.957,4.565 0.682,3.949 0.539,3.333 0.539,2.706 c 0,-0.869 0.253,-1.573 0.77,-2.123 0.517,-0.55 1.199,-0.825 2.057,-0.825 0.572,0 1.1439998,0.143 1.727,0.418 1.199,0.583 2.068,1.4959999 2.629,2.717 z M 7.084,5.2139997 C 7.084,3.751 6.424,2.288 5.72,1.419 5.236,0.814 4.4,0.132 3.432,0.132 c -1.1770001,0 -1.7930001,1.023 -1.7930001,2.266 0,0.385 0.077,0.902 0.2200001,1.529 0.297,1.298 1.045,2.442 2.024,3.036 0.473,0.286 0.935,0.429 1.375,0.429 1.188,0 1.826,-0.946 1.826,-2.1780003 z"
   id="path5" />
        </symbol>
    </defs>
</g></svg>
