<?xml version="1.0" encoding="UTF-8" standalone="no"?>
<!-- Created with Inkscape (http://www.inkscape.org/) -->

<svg
   width="249.77763mm"
   height="78.757729mm"
   viewBox="0 0 249.77763 78.757729"
   version="1.1"
   id="svg1"
   inkscape:version="1.4.1 (93de688d07, 2025-03-30)"
   sodipodi:docname="bro.svg"
   xmlns:inkscape="http://www.inkscape.org/namespaces/inkscape"
   xmlns:sodipodi="http://sodipodi.sourceforge.net/DTD/sodipodi-0.dtd"
   xmlns="http://www.w3.org/2000/svg"
   xmlns:svg="http://www.w3.org/2000/svg"
   xmlns:ns4="http://www.iki.fi/pav/software/textext/">
  <sodipodi:namedview
     id="namedview1"
     pagecolor="#505050"
     bordercolor="#eeeeee"
     borderopacity="1"
     inkscape:showpageshadow="0"
     inkscape:pageopacity="0"
     inkscape:pagecheckerboard="0"
     inkscape:deskcolor="#505050"
     inkscape:document-units="mm"
     showborder="false"
     inkscape:zoom="1.0343421"
     inkscape:cx="344.18013"
     inkscape:cy="172.09007"
     inkscape:window-width="1920"
     inkscape:window-height="1011"
     inkscape:window-x="0"
     inkscape:window-y="0"
     inkscape:window-maximized="1"
     inkscape:current-layer="layer1" />
  <defs
     id="defs1">
    <marker
       style="overflow:visible"
       id="Triangle"
       refX="0"
       refY="0"
       orient="auto-start-reverse"
       inkscape:stockid="Triangle arrow"
       markerWidth="1"
       markerHeight="1"
       viewBox="0 0 1 1"
       inkscape:isstock="true"
       inkscape:collect="always"
       preserveAspectRatio="xMidYMid">
      <path
         transform="scale(0.5)"
         style="fill:context-stroke;fill-rule:evenodd;stroke:context-stroke;stroke-width:1pt"
         d="M 5.77,0 -2.88,5 V -5 Z"
         id="path135" />
    </marker>
    <marker
       style="overflow:visible"
       id="Stop"
       refX="0"
       refY="0"
       orient="auto"
       inkscape:stockid="Stop"
       markerWidth="1"
       markerHeight="1"
       viewBox="0 0 1 1"
       inkscape:isstock="true"
       inkscape:collect="always"
       preserveAspectRatio="xMidYMid">
      <path
         style="fill:none;stroke:context-stroke;stroke-width:1"
         d="M 0,4 V -4"
         id="path23" />
    </marker>
    <marker
       style="overflow:visible"
       id="Stop-0"
       refX="0"
       refY="0"
       orient="auto"
       inkscape:stockid="Stop"
       markerWidth="1"
       markerHeight="1"
       viewBox="0 0 1 1"
       inkscape:isstock="true"
       inkscape:collect="always"
       preserveAspectRatio="xMidYMid">
      <path
         style="fill:none;stroke:context-stroke;stroke-width:1"
         d="M 0,4 V -4"
         id="path23-8" />
    </marker>
  </defs>
  <g
     inkscape:label="Layer 1"
     inkscape:groupmode="layer"
     id="layer1"
     transform="translate(-23.6112, -86.3165)">
    <rect
       style="fill:#b8b8b8;fill-opacity:1;stroke:#000000;stroke-width:0.529167;stroke-linecap:square;stroke-miterlimit:3.6"
       id="rect1"
       width="249.24847"
       height="17.002436"
       x="23.875761"
       y="112.50548"
       rx="0"
       ry="0.54263091" />
    <path
       sodipodi:type="star"
       style="fill:#b8b8b8;fill-opacity:1;stroke:#000000;stroke-width:0.529167;stroke-linecap:square;stroke-miterlimit:3.6"
       id="path2"
       inkscape:flatsided="true"
       sodipodi:sides="3"
       sodipodi:cx="95.864792"
       sodipodi:cy="168.57735"
       sodipodi:r1="22.164627"
       sodipodi:r2="11.082314"
       sodipodi:arg1="0.52359878"
       sodipodi:arg2="1.5707963"
       inkscape:rounded="0"
       inkscape:randomized="0"
       d="m 115.05992,179.65966 -38.390258,0 19.19513,-33.24694 z"
       inkscape:transform-center-x="1.0126222e-06"
       inkscape:transform-center-y="-4.0423464"
       transform="matrix(0.72951296,0,0,0.72951296,-12.305412,22.554805)" />
    <path
       sodipodi:type="star"
       style="fill:#b8b8b8;fill-opacity:1;stroke:#000000;stroke-width:0.529167;stroke-linecap:square;stroke-miterlimit:3.6"
       id="path1"
       inkscape:flatsided="true"
       sodipodi:sides="3"
       sodipodi:cx="95.864792"
       sodipodi:cy="168.57735"
       sodipodi:r1="22.164627"
       sodipodi:r2="11.082314"
       sodipodi:arg1="0.52359878"
       sodipodi:arg2="1.5707963"
       inkscape:rounded="0"
       inkscape:randomized="0"
       d="m 115.05992,179.65966 -38.390258,0 19.19513,-33.24694 z"
       inkscape:transform-center-y="-4.0423464"
       transform="matrix(0.72951296,0,0,0.72951296,119.527,23.578)" />
    <path
       style="fill:#f8f8f8;fill-opacity:1;stroke:#050505;stroke-width:1;stroke-linecap:square;stroke-miterlimit:3.6;stroke-dasharray:2.00001, 4;stroke-dashoffset:0;stroke-opacity:1;marker-start:url(#Stop);marker-end:url(#Stop)"
       d="m 148.52059,105.87112 h 39.7624"
       id="path4-2"
       sodipodi:nodetypes="cc" />
    <path
       style="fill:#f8f8f8;fill-opacity:1;stroke:#050505;stroke-width:1;stroke-linecap:square;stroke-miterlimit:3.6;stroke-dasharray:1.99999, 3.99997;stroke-dashoffset:0;stroke-opacity:1;marker-start:url(#Stop-0);marker-end:url(#Stop-0)"
       d="M 58.301179,105.87112 H 148.52059"
       id="path4-2-2"
       sodipodi:nodetypes="cc" />
    <path
       style="fill:#000000;fill-opacity:1;stroke:#000000;stroke-width:1;stroke-linecap:square;stroke-miterlimit:3.6;stroke-dasharray:none;stroke-dashoffset:0;marker-end:url(#Triangle)"
       d="m 148.5,121.00669 v 40.51645"
       id="path3" />
    <g
       transform="matrix(1.36781 0 0 1.36781 61.8028 -10.9303)"
       ns4:version="1.11.1"
       ns4:texconverter="typst"
       ns4:pdfconverter="inkscape"
       ns4:text="$3$ m"
       ns4:preamble="/home/sermuns/.config/inkscape/extensions/textext/default_preamble_typst.typ"
       ns4:scale="3.877242618106545"
       ns4:alignment="middle center"
       ns4:inkscapeversion="1.4"
       ns4:jacobian_sqrt="1.36781"
       id="g35">
      <g
         id="g10">
        <g
           transform="translate(70.8661, 78.3791)"
           id="g6">
          <g
             class="typst-text"
             transform="scale(1, -1)"
             id="g5">
            <g
               id="g4">
              <path
                 d="M 3.333 3.883 C 4.059 4.158 4.741 4.851 4.741 5.786 C 4.741 6.259 4.5099998 6.644 4.059 6.941 C 3.6629999 7.194 3.212 7.3259997 2.706 7.3259997 C 2.211 7.3259997 1.782 7.194 1.397 6.941 C 0.968 6.6549997 0.748 6.281 0.748 5.808 C 0.748 5.445 0.99 5.192 1.342 5.192 C 1.694 5.192 1.936 5.445 1.936 5.797 C 1.936 6.16 1.727 6.358 1.309 6.38 C 1.595 6.765 2.046 6.963 2.662 6.963 C 3.322 6.963 3.652 6.578 3.652 5.797 C 3.652 5.335 3.564 4.95 3.399 4.631 C 3.102 4.103 2.695 4.004 2.013 4.004 C 1.881 3.9819999 1.8149999 3.927 1.8149999 3.828 C 1.8149999 3.6629999 1.892 3.6629999 2.112 3.6629999 L 2.585 3.6629999 C 3.41 3.6629999 3.828 3.08 3.828 1.903 C 3.828 0.968 3.487 0.154 2.651 0.154 C 1.936 0.154 1.408 0.396 1.089 0.88 C 1.474 0.869 1.76 1.155 1.76 1.529 C 1.76 1.903 1.485 2.178 1.111 2.178 C 0.682 2.178 0.462 1.958 0.462 1.507 C 0.462 0.968 0.704 0.539 1.188 0.198 C 1.617 -0.099 2.123 -0.242 2.684 -0.242 C 3.3109999 -0.242 3.85 -0.033 4.323 0.374 C 4.796 0.781 5.027 1.287 5.027 1.903 C 5.027 2.937 4.213 3.652 3.333 3.883 Z "
                 id="path4" />
            </g>
          </g>
        </g>
        <g
           transform="translate(76.3661, 78.3791)"
           id="g9">
          <g
             class="typst-text"
             transform="scale(1, -1)"
             id="g8">
            <g
               transform="translate(2.75, 0)"
               id="g7">
              <path
                 d="M 1.87 3.938 Q 1.87 3.839 1.9195 3.8665 Q 1.969 3.894 2.002 3.938 Q 2.343 4.323 2.772 4.576 Q 3.201 4.829 3.674 4.829 Q 4.103 4.829 4.4 4.5925 Q 4.697 4.356 4.774 4.026 Q 4.796 3.949 4.8345 3.971 Q 4.873 3.993 4.895 4.015 Q 5.324 4.466 5.808 4.6475 Q 6.292 4.829 6.71 4.829 Q 7.194 4.829 7.436 4.598 Q 7.678 4.367 7.7605 3.971 Q 7.843 3.575 7.843 3.08 L 7.843 1.342 Q 7.843 0.891 7.8925 0.6875 Q 7.942 0.484 8.096 0.4235 Q 8.25 0.363 8.547 0.341 Q 8.591 0.297 8.591 0.16499999 Q 8.591 0.033 8.547 -0.022 Q 8.316 -0.011 8.03 -0.0055 Q 7.744 0 7.414 0 Q 7.084 0 6.7925 -0.0055 Q 6.501 -0.011 6.292 -0.022 Q 6.248 0.033 6.248 0.16499999 Q 6.248 0.297 6.292 0.341 Q 6.578 0.363 6.7265 0.4235 Q 6.875 0.484 6.9245 0.6875 Q 6.974 0.891 6.974 1.342 L 6.974 3.2779999 Q 6.974 3.828 6.8035 4.0425 Q 6.633 4.257 6.314 4.257 Q 5.995 4.257 5.6265 4.114 Q 5.258 3.971 4.862 3.531 Q 4.873 3.432 4.873 3.322 Q 4.873 3.212 4.873 3.091 L 4.873 1.342 Q 4.873 0.891 4.9225 0.6875 Q 4.972 0.484 5.1095 0.4235 Q 5.2469997 0.363 5.522 0.341 Q 5.566 0.297 5.566 0.16499999 Q 5.566 0.033 5.522 -0.022 Q 5.313 -0.011 5.0435 -0.0055 Q 4.774 0 4.444 0 Q 4.114 0 3.8225 -0.0055 Q 3.531 -0.011 3.322 -0.022 Q 3.2779999 0.033 3.2779999 0.16499999 Q 3.2779999 0.297 3.322 0.341 Q 3.619 0.363 3.7675 0.4235 Q 3.916 0.484 3.96 0.6875 Q 4.004 0.891 4.004 1.342 L 4.004 3.256 Q 4.004 3.806 3.8005 4.0315 Q 3.597 4.257 3.2779999 4.257 Q 2.75 4.257 2.09 3.608 Q 2.024 3.531 1.9635 3.4265 Q 1.903 3.322 1.903 3.146 L 1.903 1.342 Q 1.903 0.891 1.958 0.6875 Q 2.013 0.484 2.156 0.429 Q 2.299 0.374 2.585 0.341 Q 2.629 0.297 2.629 0.16499999 Q 2.629 0.033 2.585 -0.022 Q 2.332 -0.011 2.068 -0.0055 Q 1.804 0 1.474 0 Q 1.144 0 0.8415 -0.0055 Q 0.539 -0.011 0.286 -0.022 Q 0.242 0.033 0.242 0.16499999 Q 0.242 0.297 0.286 0.341 Q 0.594 0.363 0.7535 0.4235 Q 0.913 0.484 0.9735 0.6875 Q 1.034 0.891 1.034 1.342 L 1.034 3.487 Q 1.034 3.806 0.979 3.9545 Q 0.924 4.103 0.77 4.158 Q 0.616 4.213 0.319 4.235 Q 0.308 4.29 0.297 4.3945 Q 0.286 4.499 0.297 4.5429997 Q 0.869 4.62 1.144 4.697 Q 1.419 4.774 1.65 4.862 Q 1.716 4.862 1.738 4.8345 Q 1.76 4.807 1.782 4.774 Q 1.826 4.686 1.8425 4.433 Q 1.859 4.18 1.87 3.938 Z "
                 id="path6" />
            </g>
          </g>
        </g>
      </g>
      <defs
         id="id-02b6b5a7-a176-494d-b366-c5a703aa1fd6">
        <symbol
           id="id-97ffd607-4b2d-4e5c-ba6e-71fa835dc7a9"
           overflow="visible">
          <path
             d="M 3.333 3.883 C 4.059 4.158 4.741 4.851 4.741 5.786 C 4.741 6.259 4.5099998 6.644 4.059 6.941 C 3.6629999 7.194 3.212 7.3259997 2.706 7.3259997 C 2.211 7.3259997 1.782 7.194 1.397 6.941 C 0.968 6.6549997 0.748 6.281 0.748 5.808 C 0.748 5.445 0.99 5.192 1.342 5.192 C 1.694 5.192 1.936 5.445 1.936 5.797 C 1.936 6.16 1.727 6.358 1.309 6.38 C 1.595 6.765 2.046 6.963 2.662 6.963 C 3.322 6.963 3.652 6.578 3.652 5.797 C 3.652 5.335 3.564 4.95 3.399 4.631 C 3.102 4.103 2.695 4.004 2.013 4.004 C 1.881 3.9819999 1.8149999 3.927 1.8149999 3.828 C 1.8149999 3.6629999 1.892 3.6629999 2.112 3.6629999 L 2.585 3.6629999 C 3.41 3.6629999 3.828 3.08 3.828 1.903 C 3.828 0.968 3.487 0.154 2.651 0.154 C 1.936 0.154 1.408 0.396 1.089 0.88 C 1.474 0.869 1.76 1.155 1.76 1.529 C 1.76 1.903 1.485 2.178 1.111 2.178 C 0.682 2.178 0.462 1.958 0.462 1.507 C 0.462 0.968 0.704 0.539 1.188 0.198 C 1.617 -0.099 2.123 -0.242 2.684 -0.242 C 3.3109999 -0.242 3.85 -0.033 4.323 0.374 C 4.796 0.781 5.027 1.287 5.027 1.903 C 5.027 2.937 4.213 3.652 3.333 3.883 Z "
             id="path10" />
        </symbol>
        <symbol
           id="id-31e31af9-81b6-435c-bacb-4dd8ea6a00b2"
           overflow="visible">
          <path
             d="M 1.87 3.938 Q 1.87 3.839 1.9195 3.8665 Q 1.969 3.894 2.002 3.938 Q 2.343 4.323 2.772 4.576 Q 3.201 4.829 3.674 4.829 Q 4.103 4.829 4.4 4.5925 Q 4.697 4.356 4.774 4.026 Q 4.796 3.949 4.8345 3.971 Q 4.873 3.993 4.895 4.015 Q 5.324 4.466 5.808 4.6475 Q 6.292 4.829 6.71 4.829 Q 7.194 4.829 7.436 4.598 Q 7.678 4.367 7.7605 3.971 Q 7.843 3.575 7.843 3.08 L 7.843 1.342 Q 7.843 0.891 7.8925 0.6875 Q 7.942 0.484 8.096 0.4235 Q 8.25 0.363 8.547 0.341 Q 8.591 0.297 8.591 0.16499999 Q 8.591 0.033 8.547 -0.022 Q 8.316 -0.011 8.03 -0.0055 Q 7.744 0 7.414 0 Q 7.084 0 6.7925 -0.0055 Q 6.501 -0.011 6.292 -0.022 Q 6.248 0.033 6.248 0.16499999 Q 6.248 0.297 6.292 0.341 Q 6.578 0.363 6.7265 0.4235 Q 6.875 0.484 6.9245 0.6875 Q 6.974 0.891 6.974 1.342 L 6.974 3.2779999 Q 6.974 3.828 6.8035 4.0425 Q 6.633 4.257 6.314 4.257 Q 5.995 4.257 5.6265 4.114 Q 5.258 3.971 4.862 3.531 Q 4.873 3.432 4.873 3.322 Q 4.873 3.212 4.873 3.091 L 4.873 1.342 Q 4.873 0.891 4.9225 0.6875 Q 4.972 0.484 5.1095 0.4235 Q 5.2469997 0.363 5.522 0.341 Q 5.566 0.297 5.566 0.16499999 Q 5.566 0.033 5.522 -0.022 Q 5.313 -0.011 5.0435 -0.0055 Q 4.774 0 4.444 0 Q 4.114 0 3.8225 -0.0055 Q 3.531 -0.011 3.322 -0.022 Q 3.2779999 0.033 3.2779999 0.16499999 Q 3.2779999 0.297 3.322 0.341 Q 3.619 0.363 3.7675 0.4235 Q 3.916 0.484 3.96 0.6875 Q 4.004 0.891 4.004 1.342 L 4.004 3.256 Q 4.004 3.806 3.8005 4.0315 Q 3.597 4.257 3.2779999 4.257 Q 2.75 4.257 2.09 3.608 Q 2.024 3.531 1.9635 3.4265 Q 1.903 3.322 1.903 3.146 L 1.903 1.342 Q 1.903 0.891 1.958 0.6875 Q 2.013 0.484 2.156 0.429 Q 2.299 0.374 2.585 0.341 Q 2.629 0.297 2.629 0.16499999 Q 2.629 0.033 2.585 -0.022 Q 2.332 -0.011 2.068 -0.0055 Q 1.804 0 1.474 0 Q 1.144 0 0.8415 -0.0055 Q 0.539 -0.011 0.286 -0.022 Q 0.242 0.033 0.242 0.16499999 Q 0.242 0.297 0.286 0.341 Q 0.594 0.363 0.7535 0.4235 Q 0.913 0.484 0.9735 0.6875 Q 1.034 0.891 1.034 1.342 L 1.034 3.487 Q 1.034 3.806 0.979 3.9545 Q 0.924 4.103 0.77 4.158 Q 0.616 4.213 0.319 4.235 Q 0.308 4.29 0.297 4.3945 Q 0.286 4.499 0.297 4.5429997 Q 0.869 4.62 1.144 4.697 Q 1.419 4.774 1.65 4.862 Q 1.716 4.862 1.738 4.8345 Q 1.76 4.807 1.782 4.774 Q 1.826 4.686 1.8425 4.433 Q 1.859 4.18 1.87 3.938 Z "
             id="path11" />
        </symbol>
      </defs>
    </g>
    <g
       transform="matrix(1.36781 0 0 1.36781 -6.55576 -10.9303)"
       ns4:version="1.11.1"
       ns4:texconverter="typst"
       ns4:pdfconverter="inkscape"
       ns4:text="$5$ m"
       ns4:preamble="/home/sermuns/.config/inkscape/extensions/textext/default_preamble_typst.typ"
       ns4:scale="3.877242618106545"
       ns4:alignment="middle center"
       ns4:inkscapeversion="1.4"
       ns4:jacobian_sqrt="1.36781"
       id="g19">
      <g
         id="g18">
        <g
           transform="translate(70.8661, 78.3791)"
           id="g14">
          <g
             class="typst-text"
             transform="scale(1, -1)"
             id="g13">
            <g
               id="g12">
              <path
                 d="M 1.298 3.465 C 1.353 3.465 1.419 3.509 1.474 3.586 C 1.804 4.081 2.2549999 4.323 2.827 4.323 C 3.212 4.323 3.509 4.103 3.707 3.652 C 3.828 3.355 3.894 2.904 3.894 2.299 C 3.894 1.606 3.806 1.122 3.641 0.83599997 C 3.366 0.385 2.992 0.154 2.519 0.154 C 1.782 0.154 1.199 0.682 1.001 1.254 C 1.034 1.243 1.056 1.254 1.1 1.254 C 1.43 1.254 1.705 1.507 1.705 1.837 C 1.705 2.178 1.43 2.409 1.1 2.409 C 0.715 2.409 0.55 2.2 0.55 1.793 C 0.55 0.693 1.441 -0.242 2.541 -0.242 C 3.212 -0.242 3.784 0 4.246 0.484 C 4.708 0.968 4.939 1.551 4.939 2.222 C 4.939 2.86 4.752 3.41 4.378 3.883 C 3.971 4.4 3.465 4.653 2.849 4.653 C 2.332 4.653 1.881 4.488 1.518 4.158 L 1.518 6.116 C 1.8149999 6.028 2.101 5.984 2.398 5.984 C 2.904 5.984 3.3439999 6.105 3.718 6.358 C 4.059 6.567 4.29 6.776 4.422 6.974 C 4.488 7.062 4.521 7.128 4.521 7.161 C 4.521 7.271 4.466 7.3259997 4.356 7.3259997 C 3.751 7.095 3.234 6.974 2.816 6.974 C 2.321 6.974 1.848 7.073 1.397 7.282 C 1.342 7.304 1.298 7.315 1.254 7.315 C 1.155 7.315 1.1 7.216 1.1 7.007 L 1.1 3.795 C 1.1 3.564 1.1 3.465 1.298 3.465 Z "
                 id="path12" />
            </g>
          </g>
        </g>
        <g
           transform="translate(76.3661, 78.3791)"
           id="g17">
          <g
             class="typst-text"
             transform="scale(1, -1)"
             id="g16">
            <g
               transform="translate(2.75, 0)"
               id="g15">
              <path
                 d="M 1.87 3.938 Q 1.87 3.839 1.9195 3.8665 Q 1.969 3.894 2.002 3.938 Q 2.343 4.323 2.772 4.576 Q 3.201 4.829 3.674 4.829 Q 4.103 4.829 4.4 4.5925 Q 4.697 4.356 4.774 4.026 Q 4.796 3.949 4.8345 3.971 Q 4.873 3.993 4.895 4.015 Q 5.324 4.466 5.808 4.6475 Q 6.292 4.829 6.71 4.829 Q 7.194 4.829 7.436 4.598 Q 7.678 4.367 7.7605 3.971 Q 7.843 3.575 7.843 3.08 L 7.843 1.342 Q 7.843 0.891 7.8925 0.6875 Q 7.942 0.484 8.096 0.4235 Q 8.25 0.363 8.547 0.341 Q 8.591 0.297 8.591 0.16499999 Q 8.591 0.033 8.547 -0.022 Q 8.316 -0.011 8.03 -0.0055 Q 7.744 0 7.414 0 Q 7.084 0 6.7925 -0.0055 Q 6.501 -0.011 6.292 -0.022 Q 6.248 0.033 6.248 0.16499999 Q 6.248 0.297 6.292 0.341 Q 6.578 0.363 6.7265 0.4235 Q 6.875 0.484 6.9245 0.6875 Q 6.974 0.891 6.974 1.342 L 6.974 3.2779999 Q 6.974 3.828 6.8035 4.0425 Q 6.633 4.257 6.314 4.257 Q 5.995 4.257 5.6265 4.114 Q 5.258 3.971 4.862 3.531 Q 4.873 3.432 4.873 3.322 Q 4.873 3.212 4.873 3.091 L 4.873 1.342 Q 4.873 0.891 4.9225 0.6875 Q 4.972 0.484 5.1095 0.4235 Q 5.2469997 0.363 5.522 0.341 Q 5.566 0.297 5.566 0.16499999 Q 5.566 0.033 5.522 -0.022 Q 5.313 -0.011 5.0435 -0.0055 Q 4.774 0 4.444 0 Q 4.114 0 3.8225 -0.0055 Q 3.531 -0.011 3.322 -0.022 Q 3.2779999 0.033 3.2779999 0.16499999 Q 3.2779999 0.297 3.322 0.341 Q 3.619 0.363 3.7675 0.4235 Q 3.916 0.484 3.96 0.6875 Q 4.004 0.891 4.004 1.342 L 4.004 3.256 Q 4.004 3.806 3.8005 4.0315 Q 3.597 4.257 3.2779999 4.257 Q 2.75 4.257 2.09 3.608 Q 2.024 3.531 1.9635 3.4265 Q 1.903 3.322 1.903 3.146 L 1.903 1.342 Q 1.903 0.891 1.958 0.6875 Q 2.013 0.484 2.156 0.429 Q 2.299 0.374 2.585 0.341 Q 2.629 0.297 2.629 0.16499999 Q 2.629 0.033 2.585 -0.022 Q 2.332 -0.011 2.068 -0.0055 Q 1.804 0 1.474 0 Q 1.144 0 0.8415 -0.0055 Q 0.539 -0.011 0.286 -0.022 Q 0.242 0.033 0.242 0.16499999 Q 0.242 0.297 0.286 0.341 Q 0.594 0.363 0.7535 0.4235 Q 0.913 0.484 0.9735 0.6875 Q 1.034 0.891 1.034 1.342 L 1.034 3.487 Q 1.034 3.806 0.979 3.9545 Q 0.924 4.103 0.77 4.158 Q 0.616 4.213 0.319 4.235 Q 0.308 4.29 0.297 4.3945 Q 0.286 4.499 0.297 4.5429997 Q 0.869 4.62 1.144 4.697 Q 1.419 4.774 1.65 4.862 Q 1.716 4.862 1.738 4.8345 Q 1.76 4.807 1.782 4.774 Q 1.826 4.686 1.8425 4.433 Q 1.859 4.18 1.87 3.938 Z "
                 id="path14" />
            </g>
          </g>
        </g>
      </g>
      <defs
         id="id-97b943fc-fa88-47f3-ade7-3fde0a71322a">
        <symbol
           id="id-227f17ef-ac24-4dea-bcd0-3ba67e9e945d"
           overflow="visible">
          <path
             d="M 1.298 3.465 C 1.353 3.465 1.419 3.509 1.474 3.586 C 1.804 4.081 2.2549999 4.323 2.827 4.323 C 3.212 4.323 3.509 4.103 3.707 3.652 C 3.828 3.355 3.894 2.904 3.894 2.299 C 3.894 1.606 3.806 1.122 3.641 0.83599997 C 3.366 0.385 2.992 0.154 2.519 0.154 C 1.782 0.154 1.199 0.682 1.001 1.254 C 1.034 1.243 1.056 1.254 1.1 1.254 C 1.43 1.254 1.705 1.507 1.705 1.837 C 1.705 2.178 1.43 2.409 1.1 2.409 C 0.715 2.409 0.55 2.2 0.55 1.793 C 0.55 0.693 1.441 -0.242 2.541 -0.242 C 3.212 -0.242 3.784 0 4.246 0.484 C 4.708 0.968 4.939 1.551 4.939 2.222 C 4.939 2.86 4.752 3.41 4.378 3.883 C 3.971 4.4 3.465 4.653 2.849 4.653 C 2.332 4.653 1.881 4.488 1.518 4.158 L 1.518 6.116 C 1.8149999 6.028 2.101 5.984 2.398 5.984 C 2.904 5.984 3.3439999 6.105 3.718 6.358 C 4.059 6.567 4.29 6.776 4.422 6.974 C 4.488 7.062 4.521 7.128 4.521 7.161 C 4.521 7.271 4.466 7.3259997 4.356 7.3259997 C 3.751 7.095 3.234 6.974 2.816 6.974 C 2.321 6.974 1.848 7.073 1.397 7.282 C 1.342 7.304 1.298 7.315 1.254 7.315 C 1.155 7.315 1.1 7.216 1.1 7.007 L 1.1 3.795 C 1.1 3.564 1.1 3.465 1.298 3.465 Z "
             id="path18" />
        </symbol>
        <symbol
           id="id-c558c8d9-ac46-4ca2-9edc-38f998948141"
           overflow="visible">
          <path
             d="M 1.87 3.938 Q 1.87 3.839 1.9195 3.8665 Q 1.969 3.894 2.002 3.938 Q 2.343 4.323 2.772 4.576 Q 3.201 4.829 3.674 4.829 Q 4.103 4.829 4.4 4.5925 Q 4.697 4.356 4.774 4.026 Q 4.796 3.949 4.8345 3.971 Q 4.873 3.993 4.895 4.015 Q 5.324 4.466 5.808 4.6475 Q 6.292 4.829 6.71 4.829 Q 7.194 4.829 7.436 4.598 Q 7.678 4.367 7.7605 3.971 Q 7.843 3.575 7.843 3.08 L 7.843 1.342 Q 7.843 0.891 7.8925 0.6875 Q 7.942 0.484 8.096 0.4235 Q 8.25 0.363 8.547 0.341 Q 8.591 0.297 8.591 0.16499999 Q 8.591 0.033 8.547 -0.022 Q 8.316 -0.011 8.03 -0.0055 Q 7.744 0 7.414 0 Q 7.084 0 6.7925 -0.0055 Q 6.501 -0.011 6.292 -0.022 Q 6.248 0.033 6.248 0.16499999 Q 6.248 0.297 6.292 0.341 Q 6.578 0.363 6.7265 0.4235 Q 6.875 0.484 6.9245 0.6875 Q 6.974 0.891 6.974 1.342 L 6.974 3.2779999 Q 6.974 3.828 6.8035 4.0425 Q 6.633 4.257 6.314 4.257 Q 5.995 4.257 5.6265 4.114 Q 5.258 3.971 4.862 3.531 Q 4.873 3.432 4.873 3.322 Q 4.873 3.212 4.873 3.091 L 4.873 1.342 Q 4.873 0.891 4.9225 0.6875 Q 4.972 0.484 5.1095 0.4235 Q 5.2469997 0.363 5.522 0.341 Q 5.566 0.297 5.566 0.16499999 Q 5.566 0.033 5.522 -0.022 Q 5.313 -0.011 5.0435 -0.0055 Q 4.774 0 4.444 0 Q 4.114 0 3.8225 -0.0055 Q 3.531 -0.011 3.322 -0.022 Q 3.2779999 0.033 3.2779999 0.16499999 Q 3.2779999 0.297 3.322 0.341 Q 3.619 0.363 3.7675 0.4235 Q 3.916 0.484 3.96 0.6875 Q 4.004 0.891 4.004 1.342 L 4.004 3.256 Q 4.004 3.806 3.8005 4.0315 Q 3.597 4.257 3.2779999 4.257 Q 2.75 4.257 2.09 3.608 Q 2.024 3.531 1.9635 3.4265 Q 1.903 3.322 1.903 3.146 L 1.903 1.342 Q 1.903 0.891 1.958 0.6875 Q 2.013 0.484 2.156 0.429 Q 2.299 0.374 2.585 0.341 Q 2.629 0.297 2.629 0.16499999 Q 2.629 0.033 2.585 -0.022 Q 2.332 -0.011 2.068 -0.0055 Q 1.804 0 1.474 0 Q 1.144 0 0.8415 -0.0055 Q 0.539 -0.011 0.286 -0.022 Q 0.242 0.033 0.242 0.16499999 Q 0.242 0.297 0.286 0.341 Q 0.594 0.363 0.7535 0.4235 Q 0.913 0.484 0.9735 0.6875 Q 1.034 0.891 1.034 1.342 L 1.034 3.487 Q 1.034 3.806 0.979 3.9545 Q 0.924 4.103 0.77 4.158 Q 0.616 4.213 0.319 4.235 Q 0.308 4.29 0.297 4.3945 Q 0.286 4.499 0.297 4.5429997 Q 0.869 4.62 1.144 4.697 Q 1.419 4.774 1.65 4.862 Q 1.716 4.862 1.738 4.8345 Q 1.76 4.807 1.782 4.774 Q 1.826 4.686 1.8425 4.433 Q 1.859 4.18 1.87 3.938 Z "
             id="path19" />
        </symbol>
      </defs>
    </g>
  </g>
</svg>
