<svg xmlns="http://www.w3.org/2000/svg" viewbox="0 0 473 248" width="473" height="248"><defs></defs><g transform="matrix(1,0,0,1,179.792181828,105.303943045)">
<g>
	<path d="M-96.245310,-105.303943C-96.245310,-105.303943 3.754690,-105.303943 3.754690,-105.303943 C3.754690,-105.303943 3.754690,-5.303943 3.754690,-5.303943 C3.754690,-5.303943 -96.245310,-5.303943 -96.245310,-5.303943 C-96.245310,-5.303943 -96.245310,-105.303943 -96.245310,-105.303943 ZM-96.245310,-105.303943C-96.245310,-105.303943 3.754690,-105.303943 3.754690,-105.303943 C3.754690,-105.303943 3.754690,-5.303943 3.754690,-5.303943 C3.754690,-5.303943 -96.245310,-5.303943 -96.245310,-5.303943 C-96.245310,-5.303943 -96.245310,-105.303943 -96.245310,-105.303943 Z" fill="none" stroke="#000000" stroke-width="2"/>
	<path d="M-166.852193,-70.517100Q-169.909158,-70.517100 -172.445790,-71.632416 Q-174.982421,-72.747731 -176.478383,-74.847149 Q-177.974345,-76.946567 -177.974345,-79.898872 Q-177.974345,-83.769674 -175.275109,-86.000305 Q-172.575873,-88.230936 -167.665215,-89.444662 Q-162.754558,-90.658387 -156.185333,-91.380062 Q-156.055249,-95.513290 -157.811379,-97.743922 Q-159.567508,-99.974553 -163.470018,-99.974553 Q-166.396900,-99.974553 -168.250592,-98.629613 Q-170.104284,-97.284674 -170.624619,-94.922829 Q-175.893006,-96.497392 -175.893006,-96.497392 Q-174.592170,-100.236980 -171.242516,-102.303594 Q-167.892862,-104.370208 -163.535059,-104.370208 Q-156.835751,-104.370208 -153.746265,-101.188278 Q-150.656778,-98.006349 -150.656778,-91.183242 Q-150.656778,-83.572853 -150.656778,-83.572853 Q-150.656778,-79.505232 -150.331569,-76.552926 Q-150.006359,-73.600620 -149.551067,-71.304382 Q-154.559287,-71.304382 -154.559287,-71.304382 C-154.559287,-71.304382 -155.860124,-75.765644 -155.860124,-75.765644 Q-157.291044,-73.338193 -159.957759,-71.927646 Q-162.624474,-70.517100 -166.852193,-70.517100 Q-166.852193,-70.517100 -166.852193,-70.517100 ZM-165.681440,-74.912756Q-163.144808,-74.912756 -160.868345,-75.831251 Q-158.591881,-76.749746 -157.160960,-78.947574 Q-155.730040,-81.145402 -155.730040,-84.950596 Q-155.730040,-86.984407 -155.730040,-86.984407 Q-160.673219,-86.459552 -164.315561,-85.705074 Q-167.957904,-84.950596 -169.941679,-83.605657 Q-171.925455,-82.260717 -171.925455,-80.030086 Q-171.925455,-77.733848 -170.266888,-76.323302 Q-168.608322,-74.912756 -165.681440,-74.912756 Q-165.681440,-74.912756 -165.681440,-74.912756 ZM-166.852193,-70.517100Q-169.909158,-70.517100 -172.445790,-71.632416 Q-174.982421,-72.747731 -176.478383,-74.847149 Q-177.974345,-76.946567 -177.974345,-79.898872 Q-177.974345,-83.769674 -175.275109,-86.000305 Q-172.575873,-88.230936 -167.665215,-89.444662 Q-162.754558,-90.658387 -156.185333,-91.380062 Q-156.055249,-95.513290 -157.811379,-97.743922 Q-159.567508,-99.974553 -163.470018,-99.974553 Q-166.396900,-99.974553 -168.250592,-98.629613 Q-170.104284,-97.284674 -170.624619,-94.922829 Q-175.893006,-96.497392 -175.893006,-96.497392 Q-174.592170,-100.236980 -171.242516,-102.303594 Q-167.892862,-104.370208 -163.535059,-104.370208 Q-156.835751,-104.370208 -153.746265,-101.188278 Q-150.656778,-98.006349 -150.656778,-91.183242 Q-150.656778,-83.572853 -150.656778,-83.572853 Q-150.656778,-79.505232 -150.331569,-76.552926 Q-150.006359,-73.600620 -149.551067,-71.304382 Q-154.559287,-71.304382 -154.559287,-71.304382 C-154.559287,-71.304382 -155.860124,-75.765644 -155.860124,-75.765644 Q-157.291044,-73.338193 -159.957759,-71.927646 Q-162.624474,-70.517100 -166.852193,-70.517100 Q-166.852193,-70.517100 -166.852193,-70.517100 ZM-165.681440,-74.912756Q-163.144808,-74.912756 -160.868345,-75.831251 Q-158.591881,-76.749746 -157.160960,-78.947574 Q-155.730040,-81.145402 -155.730040,-84.950596 Q-155.730040,-86.984407 -155.730040,-86.984407 Q-160.673219,-86.459552 -164.315561,-85.705074 Q-167.957904,-84.950596 -169.941679,-83.605657 Q-171.925455,-82.260717 -171.925455,-80.030086 Q-171.925455,-77.733848 -170.266888,-76.323302 Q-168.608322,-74.912756 -165.681440,-74.912756 Q-165.681440,-74.912756 -165.681440,-74.912756 Z" fill="#000000"/>
	<path d="M268.346155,42.479479C268.346155,42.479479 268.346155,37.624576 268.346155,37.624576 C268.346155,37.624576 270.557577,37.624576 270.557577,37.624576 Q272.899083,37.624576 274.134878,37.263739 Q275.370673,36.902901 276.118654,35.689175 Q276.866635,34.475450 277.582095,31.982391 Q265.939608,-0.558581 265.939608,-0.558581 C265.939608,-0.558581 271.988498,-0.558581 271.988498,-0.558581 C271.988498,-0.558581 279.923601,24.503216 279.923601,24.503216 C279.923601,24.503216 287.858703,-0.558581 287.858703,-0.558581 C287.858703,-0.558581 293.842551,-0.558581 293.842551,-0.558581 C293.842551,-0.558581 282.395190,33.360134 282.395190,33.360134 Q281.224437,36.837294 280.021163,38.838302 Q278.817889,40.839309 276.801593,41.659394 Q274.785296,42.479479 271.142954,42.479479 Q268.346155,42.479479 268.346155,42.479479 C268.346155,42.479479 268.346155,42.479479 268.346155,42.479479 ZM268.346155,42.479479C268.346155,42.479479 268.346155,37.624576 268.346155,37.624576 C268.346155,37.624576 270.557577,37.624576 270.557577,37.624576 Q272.899083,37.624576 274.134878,37.263739 Q275.370673,36.902901 276.118654,35.689175 Q276.866635,34.475450 277.582095,31.982391 Q265.939608,-0.558581 265.939608,-0.558581 C265.939608,-0.558581 271.988498,-0.558581 271.988498,-0.558581 C271.988498,-0.558581 279.923601,24.503216 279.923601,24.503216 C279.923601,24.503216 287.858703,-0.558581 287.858703,-0.558581 C287.858703,-0.558581 293.842551,-0.558581 293.842551,-0.558581 C293.842551,-0.558581 282.395190,33.360134 282.395190,33.360134 Q281.224437,36.837294 280.021163,38.838302 Q278.817889,40.839309 276.801593,41.659394 Q274.785296,42.479479 271.142954,42.479479 Q268.346155,42.479479 268.346155,42.479479 C268.346155,42.479479 268.346155,42.479479 268.346155,42.479479 Z" fill="#000000"/>
	<path d="M82.530120,-34.219606C82.530120,-34.219606 182.530120,-34.219606 182.530120,-34.219606 C182.530120,-34.219606 182.530120,65.780394 182.530120,65.780394 C182.530120,65.780394 82.530120,65.780394 82.530120,65.780394 C82.530120,65.780394 82.530120,-34.219606 82.530120,-34.219606 ZM82.530120,-34.219606C82.530120,-34.219606 182.530120,-34.219606 182.530120,-34.219606 C182.530120,-34.219606 182.530120,65.780394 182.530120,65.780394 C182.530120,65.780394 82.530120,65.780394 82.530120,65.780394 C82.530120,65.780394 82.530120,-34.219606 82.530120,-34.219606 Z" fill="none" stroke="#000000" stroke-width="2"/>
	<path d="M-73.237668,-39.951952C-73.237668,-39.951952 -73.237668,-45.856564 -73.237668,-45.856564 C-73.237668,-45.856564 -49.302276,-53.204526 -49.302276,-53.204526 C-49.302276,-53.204526 -73.237668,-60.552487 -73.237668,-60.552487 C-73.237668,-60.552487 -73.237668,-66.522706 -73.237668,-66.522706 C-73.237668,-66.522706 -42.472884,-55.500763 -42.472884,-55.500763 C-42.472884,-55.500763 -42.472884,-50.908288 -42.472884,-50.908288 C-42.472884,-50.908288 -73.237668,-39.951952 -73.237668,-39.951952 C-73.237668,-39.951952 -73.237668,-39.951952 -73.237668,-39.951952 ZM-73.237668,-33.391272C-73.237668,-33.391272 -73.237668,-38.639816 -73.237668,-38.639816 C-73.237668,-38.639816 -42.472884,-38.639816 -42.472884,-38.639816 C-42.472884,-38.639816 -42.472884,-33.391272 -42.472884,-33.391272 C-42.472884,-33.391272 -73.237668,-33.391272 -73.237668,-33.391272 C-73.237668,-33.391272 -73.237668,-33.391272 -73.237668,-33.391272 ZM-24.716466,-33.391272C-24.716466,-33.391272 -24.716466,-66.457099 -24.716466,-66.457099 C-24.716466,-66.457099 -36.293911,-66.457099 -36.293911,-66.457099 C-36.293911,-66.457099 -36.293911,-70.852754 -36.293911,-70.852754 Q-33.171903,-70.852754 -30.472667,-71.312002 Q-27.773431,-71.771249 -25.789656,-73.148992 Q-23.805880,-74.526735 -22.895294,-77.216614 Q-19.252952,-77.216614 -19.252952,-77.216614 C-19.252952,-77.216614 -19.252952,-33.391272 -19.252952,-33.391272 C-19.252952,-33.391272 -24.716466,-33.391272 -24.716466,-33.391272 C-24.716466,-33.391272 -24.716466,-33.391272 -24.716466,-33.391272 ZM-73.237668,-39.951952C-73.237668,-39.951952 -73.237668,-45.856564 -73.237668,-45.856564 C-73.237668,-45.856564 -49.302276,-53.204526 -49.302276,-53.204526 C-49.302276,-53.204526 -73.237668,-60.552487 -73.237668,-60.552487 C-73.237668,-60.552487 -73.237668,-66.522706 -73.237668,-66.522706 C-73.237668,-66.522706 -42.472884,-55.500763 -42.472884,-55.500763 C-42.472884,-55.500763 -42.472884,-50.908288 -42.472884,-50.908288 C-42.472884,-50.908288 -73.237668,-39.951952 -73.237668,-39.951952 C-73.237668,-39.951952 -73.237668,-39.951952 -73.237668,-39.951952 ZM-73.237668,-33.391272C-73.237668,-33.391272 -73.237668,-38.639816 -73.237668,-38.639816 C-73.237668,-38.639816 -42.472884,-38.639816 -42.472884,-38.639816 C-42.472884,-38.639816 -42.472884,-33.391272 -42.472884,-33.391272 C-42.472884,-33.391272 -73.237668,-33.391272 -73.237668,-33.391272 C-73.237668,-33.391272 -73.237668,-33.391272 -73.237668,-33.391272 ZM-24.716466,-33.391272C-24.716466,-33.391272 -24.716466,-66.457099 -24.716466,-66.457099 C-24.716466,-66.457099 -36.293911,-66.457099 -36.293911,-66.457099 C-36.293911,-66.457099 -36.293911,-70.852754 -36.293911,-70.852754 Q-33.171903,-70.852754 -30.472667,-71.312002 Q-27.773431,-71.771249 -25.789656,-73.148992 Q-23.805880,-74.526735 -22.895294,-77.216614 Q-19.252952,-77.216614 -19.252952,-77.216614 C-19.252952,-77.216614 -19.252952,-33.391272 -19.252952,-33.391272 C-19.252952,-33.391272 -24.716466,-33.391272 -24.716466,-33.391272 C-24.716466,-33.391272 -24.716466,-33.391272 -24.716466,-33.391272 Z" fill="#000000"/>
	<path d="M-162.722037,-5.303943Q-166.494463,-5.303943 -169.096136,-6.845703 Q-171.697809,-8.387463 -173.193771,-11.011734 Q-174.624691,-6.091225 -174.624691,-6.091225 C-174.624691,-6.091225 -178.657284,-6.091225 -178.657284,-6.091225 C-178.657284,-6.091225 -178.657284,-49.916566 -178.657284,-49.916566 C-178.657284,-49.916566 -173.193771,-49.916566 -173.193771,-49.916566 C-173.193771,-49.916566 -173.193771,-33.514866 -173.193771,-33.514866 Q-171.697809,-36.073531 -169.096136,-37.615291 Q-166.494463,-39.157051 -162.722037,-39.157051 Q-159.014652,-39.157051 -155.860124,-37.156043 Q-152.705595,-35.155036 -150.786861,-31.382645 Q-148.868128,-27.610254 -148.868128,-22.230497 Q-148.868128,-16.850740 -150.786861,-13.078349 Q-152.705595,-9.305958 -155.860124,-7.304950 Q-159.014652,-5.303943 -162.722037,-5.303943 Q-162.722037,-5.303943 -162.722037,-5.303943 ZM-164.152957,-10.027633Q-159.990280,-10.027633 -157.486170,-13.242366 Q-154.982059,-16.457099 -154.982059,-22.230497 Q-154.982059,-28.069502 -157.486170,-31.251432 Q-159.990280,-34.433361 -164.152957,-34.433361 Q-168.315634,-34.433361 -170.819744,-31.251432 Q-173.323854,-28.069502 -173.323854,-22.230497 Q-173.323854,-16.457099 -170.819744,-13.242366 Q-168.315634,-10.027633 -164.152957,-10.027633 Q-164.152957,-10.027633 -164.152957,-10.027633 ZM-162.722037,-5.303943Q-166.494463,-5.303943 -169.096136,-6.845703 Q-171.697809,-8.387463 -173.193771,-11.011734 Q-174.624691,-6.091225 -174.624691,-6.091225 C-174.624691,-6.091225 -178.657284,-6.091225 -178.657284,-6.091225 C-178.657284,-6.091225 -178.657284,-49.916566 -178.657284,-49.916566 C-178.657284,-49.916566 -173.193771,-49.916566 -173.193771,-49.916566 C-173.193771,-49.916566 -173.193771,-33.514866 -173.193771,-33.514866 Q-171.697809,-36.073531 -169.096136,-37.615291 Q-166.494463,-39.157051 -162.722037,-39.157051 Q-159.014652,-39.157051 -155.860124,-37.156043 Q-152.705595,-35.155036 -150.786861,-31.382645 Q-148.868128,-27.610254 -148.868128,-22.230497 Q-148.868128,-16.850740 -150.786861,-13.078349 Q-152.705595,-9.305958 -155.860124,-7.304950 Q-159.014652,-5.303943 -162.722037,-5.303943 Q-162.722037,-5.303943 -162.722037,-5.303943 ZM-164.152957,-10.027633Q-159.990280,-10.027633 -157.486170,-13.242366 Q-154.982059,-16.457099 -154.982059,-22.230497 Q-154.982059,-28.069502 -157.486170,-31.251432 Q-159.990280,-34.433361 -164.152957,-34.433361 Q-168.315634,-34.433361 -170.819744,-31.251432 Q-173.323854,-28.069502 -173.323854,-22.230497 Q-173.323854,-16.457099 -170.819744,-13.242366 Q-168.315634,-10.027633 -164.152957,-10.027633 Q-164.152957,-10.027633 -164.152957,-10.027633 Z" fill="#000000"/>
	<path d="" fill="none" stroke="#000000" stroke-width="5"/>
	<path d="M-142.512706,-87.443654C-142.512706,-87.443654 -96.245310,-87.443654 -96.245310,-87.443654 " fill="#ffffff" stroke="#000000" stroke-width="5"/>
	<path d="M-142.512706,-27.610254C-142.512706,-27.610254 -96.245310,-27.610254 -96.245310,-27.610254 " fill="#ffffff" stroke="#000000" stroke-width="5"/>
	<path d="M-162.003242,78.278080Q-166.621212,78.278080 -170.003387,76.080253 Q-173.385562,73.882425 -175.206733,70.077231 Q-177.027904,66.272036 -177.027904,61.351527 Q-177.027904,56.496623 -175.109170,52.658626 Q-173.190436,48.820628 -169.678178,46.622800 Q-166.165919,44.424973 -161.417866,44.424973 Q-157.060063,44.424973 -153.938056,46.589997 Q-150.816048,48.755021 -149.255044,51.772934 Q-154.263265,53.609924 -154.263265,53.609924 Q-155.303934,51.641720 -157.320231,50.460798 Q-159.336527,49.279876 -161.808117,49.279876 Q-164.214664,49.279876 -166.361045,50.559208 Q-168.507425,51.838541 -169.808261,54.495616 Q-171.109098,57.152691 -171.109098,61.285920 Q-171.109098,65.353541 -169.775741,68.076223 Q-168.442383,70.798905 -166.328524,72.111041 Q-164.214664,73.423177 -161.808117,73.423177 Q-159.141402,73.423177 -157.157626,72.209452 Q-155.173850,70.995726 -154.133181,69.158735 Q-149.124961,70.995726 -149.124961,70.995726 Q-150.946132,74.144852 -154.328307,76.211466 Q-157.710482,78.278080 -162.003242,78.278080 Q-162.003242,78.278080 -162.003242,78.278080 ZM-162.003242,78.278080Q-166.621212,78.278080 -170.003387,76.080253 Q-173.385562,73.882425 -175.206733,70.077231 Q-177.027904,66.272036 -177.027904,61.351527 Q-177.027904,56.496623 -175.109170,52.658626 Q-173.190436,48.820628 -169.678178,46.622800 Q-166.165919,44.424973 -161.417866,44.424973 Q-157.060063,44.424973 -153.938056,46.589997 Q-150.816048,48.755021 -149.255044,51.772934 Q-154.263265,53.609924 -154.263265,53.609924 Q-155.303934,51.641720 -157.320231,50.460798 Q-159.336527,49.279876 -161.808117,49.279876 Q-164.214664,49.279876 -166.361045,50.559208 Q-168.507425,51.838541 -169.808261,54.495616 Q-171.109098,57.152691 -171.109098,61.285920 Q-171.109098,65.353541 -169.775741,68.076223 Q-168.442383,70.798905 -166.328524,72.111041 Q-164.214664,73.423177 -161.808117,73.423177 Q-159.141402,73.423177 -157.157626,72.209452 Q-155.173850,70.995726 -154.133181,69.158735 Q-149.124961,70.995726 -149.124961,70.995726 Q-150.946132,74.144852 -154.328307,76.211466 Q-157.710482,78.278080 -162.003242,78.278080 Q-162.003242,78.278080 -162.003242,78.278080 Z" fill="#000000"/>
	<path d="M-141.566265,61.351527C-141.566265,61.351527 -95.298870,61.351527 -95.298870,61.351527 " fill="#ffffff" stroke="#000000" stroke-width="5"/>
	<path d="M-141.566265,121.184926C-141.566265,121.184926 -95.298870,121.184926 -95.298870,121.184926 " fill="#ffffff" stroke="#000000" stroke-width="5"/>
	<path d="M-165.938273,143.491238Q-169.580615,143.491238 -172.767665,141.490230 Q-175.954714,139.489223 -177.873448,135.716832 Q-179.792182,131.944441 -179.792182,126.564684 Q-179.792182,121.184926 -177.873448,117.412535 Q-175.954714,113.640145 -172.767665,111.639137 Q-169.580615,109.638130 -165.938273,109.638130 Q-162.100805,109.638130 -159.499132,111.179890 Q-156.897459,112.721649 -155.466539,115.280315 Q-155.466539,98.878615 -155.466539,98.878615 C-155.466539,98.878615 -150.003025,98.878615 -150.003025,98.878615 C-150.003025,98.878615 -150.003025,130.435485 -150.003025,130.435485 Q-150.003025,132.075655 -149.872942,135.257585 Q-149.742858,138.439514 -148.897314,142.703956 Q-154.035618,142.703956 -154.035618,142.703956 C-154.035618,142.703956 -155.466539,137.783446 -155.466539,137.783446 Q-156.897459,140.407718 -159.499132,141.949478 Q-162.100805,143.491238 -165.938273,143.491238 Q-165.938273,143.491238 -165.938273,143.491238 ZM-164.507353,138.767548Q-160.344676,138.767548 -157.840565,135.552815 Q-155.336455,132.338082 -155.336455,126.564684 Q-155.336455,120.725679 -157.840565,117.543749 Q-160.344676,114.361819 -164.507353,114.361819 Q-168.670029,114.361819 -171.174140,117.543749 Q-173.678250,120.725679 -173.678250,126.564684 Q-173.678250,132.338082 -171.174140,135.552815 Q-168.670029,138.767548 -164.507353,138.767548 Q-164.507353,138.767548 -164.507353,138.767548 ZM-165.938273,143.491238Q-169.580615,143.491238 -172.767665,141.490230 Q-175.954714,139.489223 -177.873448,135.716832 Q-179.792182,131.944441 -179.792182,126.564684 Q-179.792182,121.184926 -177.873448,117.412535 Q-175.954714,113.640145 -172.767665,111.639137 Q-169.580615,109.638130 -165.938273,109.638130 Q-162.100805,109.638130 -159.499132,111.179890 Q-156.897459,112.721649 -155.466539,115.280315 Q-155.466539,98.878615 -155.466539,98.878615 C-155.466539,98.878615 -150.003025,98.878615 -150.003025,98.878615 C-150.003025,98.878615 -150.003025,130.435485 -150.003025,130.435485 Q-150.003025,132.075655 -149.872942,135.257585 Q-149.742858,138.439514 -148.897314,142.703956 Q-154.035618,142.703956 -154.035618,142.703956 C-154.035618,142.703956 -155.466539,137.783446 -155.466539,137.783446 Q-156.897459,140.407718 -159.499132,141.949478 Q-162.100805,143.491238 -165.938273,143.491238 Q-165.938273,143.491238 -165.938273,143.491238 ZM-164.507353,138.767548Q-160.344676,138.767548 -157.840565,135.552815 Q-155.336455,132.338082 -155.336455,126.564684 Q-155.336455,120.725679 -157.840565,117.543749 Q-160.344676,114.361819 -164.507353,114.361819 Q-168.670029,114.361819 -171.174140,117.543749 Q-173.678250,120.725679 -173.678250,126.564684 Q-173.678250,132.338082 -171.174140,135.552815 Q-168.670029,138.767548 -164.507353,138.767548 Q-164.507353,138.767548 -164.507353,138.767548 Z" fill="#000000"/>
	<path d="M-96.245310,38.971988C-96.245310,38.971988 3.754690,38.971988 3.754690,38.971988 C3.754690,38.971988 3.754690,138.971988 3.754690,138.971988 C3.754690,138.971988 -96.245310,138.971988 -96.245310,138.971988 C-96.245310,138.971988 -96.245310,38.971988 -96.245310,38.971988 ZM-96.245310,38.971988C-96.245310,38.971988 3.754690,38.971988 3.754690,38.971988 C3.754690,38.971988 3.754690,138.971988 3.754690,138.971988 C3.754690,138.971988 -96.245310,138.971988 -96.245310,138.971988 C-96.245310,138.971988 -96.245310,38.971988 -96.245310,38.971988 Z" fill="none" stroke="#000000" stroke-width="2"/>
	<path d="M126.806440,40.382944Q122.318554,40.382944 119.033941,38.677167 Q115.749329,36.971390 113.960679,34.084691 Q112.172029,31.197992 112.172029,27.589618 Q112.172029,22.537895 115.228995,19.224751 Q118.285960,15.911608 123.294181,14.205831 Q121.082759,11.712773 119.781922,9.285321 Q118.481086,6.857870 118.481086,4.299205 Q118.481086,0.034763 121.830740,-2.491099 Q125.180394,-5.016961 130.318698,-5.016961 Q132.985413,-5.016961 135.587086,-4.131269 Q138.188759,-3.245577 139.912368,-1.178963 Q141.635976,0.887651 141.635976,4.430418 Q141.635976,8.563647 139.099345,11.319132 Q136.562714,14.074618 132.530120,15.780394 Q141.375809,25.227773 141.375809,25.227773 Q142.221353,23.193962 142.806729,20.864921 Q143.392106,18.535880 143.587231,15.911608 Q149.245870,15.911608 149.245870,15.911608 Q148.985703,19.454375 147.977554,22.898732 Q146.969406,26.343089 145.213277,29.295395 Q154.904509,39.595662 154.904509,39.595662 C154.904509,39.595662 147.164531,39.595662 147.164531,39.595662 C147.164531,39.595662 141.831102,33.887871 141.831102,33.887871 Q139.034303,36.905783 135.261877,38.644363 Q131.489451,40.382944 126.806440,40.382944 Q126.806440,40.382944 126.806440,40.382944 ZM129.212987,12.368841Q132.400037,11.187918 134.351292,9.285321 Q136.302546,7.382724 136.302546,4.758452 Q136.302546,2.068574 134.578938,0.953258 Q132.855330,-0.162058 130.448782,-0.162058 Q128.042234,-0.162058 126.188542,0.887651 Q124.334850,1.937360 124.334850,4.167991 Q124.334850,5.939375 125.408040,7.677955 Q126.481231,9.416535 127.684504,10.663064 Q128.887778,11.909593 129.212987,12.368841 Q129.212987,12.368841 129.212987,12.368841 ZM126.806440,35.528041Q130.253657,35.528041 133.180539,34.150298 Q136.107421,32.772555 138.318843,30.213890 Q126.546272,17.682991 126.546272,17.682991 Q122.643763,19.060734 120.334778,21.356972 Q118.025793,23.653210 118.025793,27.327191 Q118.025793,29.820249 119.261588,31.690043 Q120.497383,33.559837 122.513679,34.543939 Q124.529976,35.528041 126.806440,35.528041 Q126.806440,35.528041 126.806440,35.528041 ZM126.806440,40.382944Q122.318554,40.382944 119.033941,38.677167 Q115.749329,36.971390 113.960679,34.084691 Q112.172029,31.197992 112.172029,27.589618 Q112.172029,22.537895 115.228995,19.224751 Q118.285960,15.911608 123.294181,14.205831 Q121.082759,11.712773 119.781922,9.285321 Q118.481086,6.857870 118.481086,4.299205 Q118.481086,0.034763 121.830740,-2.491099 Q125.180394,-5.016961 130.318698,-5.016961 Q132.985413,-5.016961 135.587086,-4.131269 Q138.188759,-3.245577 139.912368,-1.178963 Q141.635976,0.887651 141.635976,4.430418 Q141.635976,8.563647 139.099345,11.319132 Q136.562714,14.074618 132.530120,15.780394 Q141.375809,25.227773 141.375809,25.227773 Q142.221353,23.193962 142.806729,20.864921 Q143.392106,18.535880 143.587231,15.911608 Q149.245870,15.911608 149.245870,15.911608 Q148.985703,19.454375 147.977554,22.898732 Q146.969406,26.343089 145.213277,29.295395 Q154.904509,39.595662 154.904509,39.595662 C154.904509,39.595662 147.164531,39.595662 147.164531,39.595662 C147.164531,39.595662 141.831102,33.887871 141.831102,33.887871 Q139.034303,36.905783 135.261877,38.644363 Q131.489451,40.382944 126.806440,40.382944 Q126.806440,40.382944 126.806440,40.382944 ZM129.212987,12.368841Q132.400037,11.187918 134.351292,9.285321 Q136.302546,7.382724 136.302546,4.758452 Q136.302546,2.068574 134.578938,0.953258 Q132.855330,-0.162058 130.448782,-0.162058 Q128.042234,-0.162058 126.188542,0.887651 Q124.334850,1.937360 124.334850,4.167991 Q124.334850,5.939375 125.408040,7.677955 Q126.481231,9.416535 127.684504,10.663064 Q128.887778,11.909593 129.212987,12.368841 Q129.212987,12.368841 129.212987,12.368841 ZM126.806440,35.528041Q130.253657,35.528041 133.180539,34.150298 Q136.107421,32.772555 138.318843,30.213890 Q126.546272,17.682991 126.546272,17.682991 Q122.643763,19.060734 120.334778,21.356972 Q118.025793,23.653210 118.025793,27.327191 Q118.025793,29.820249 119.261588,31.690043 Q120.497383,33.559837 122.513679,34.543939 Q124.529976,35.528041 126.806440,35.528041 Q126.806440,35.528041 126.806440,35.528041 Z" fill="#000000"/>
	<path d="M3.754690,-55.303943C3.754690,-55.303943 47.590361,-55.303943 47.590361,-55.303943 C47.590361,-55.303943 47.590361,-5.303943 47.590361,-5.303943 C47.590361,-5.303943 82.530120,-5.303943 82.530120,-5.303943 " fill="none" stroke="#000000" stroke-width="5"/>
	<path d="M2.808249,91.272036C2.808249,91.272036 46.643921,91.272036 46.643921,91.272036 C46.643921,91.272036 46.643921,41.272036 46.643921,41.272036 C46.643921,41.272036 81.583680,41.272036 81.583680,41.272036 " fill="none" stroke="#000000" stroke-width="5"/>
	<path d="M-73.237668,104.323979C-73.237668,104.323979 -73.237668,98.419367 -73.237668,98.419367 C-73.237668,98.419367 -49.302276,91.071406 -49.302276,91.071406 C-49.302276,91.071406 -73.237668,83.723445 -73.237668,83.723445 C-73.237668,83.723445 -73.237668,77.753226 -73.237668,77.753226 C-73.237668,77.753226 -42.472884,88.775168 -42.472884,88.775168 C-42.472884,88.775168 -42.472884,93.367644 -42.472884,93.367644 C-42.472884,93.367644 -73.237668,104.323979 -73.237668,104.323979 C-73.237668,104.323979 -73.237668,104.323979 -73.237668,104.323979 ZM-73.237668,110.884659C-73.237668,110.884659 -73.237668,105.636115 -73.237668,105.636115 C-73.237668,105.636115 -42.472884,105.636115 -42.472884,105.636115 C-42.472884,105.636115 -42.472884,110.884659 -42.472884,110.884659 C-42.472884,110.884659 -73.237668,110.884659 -73.237668,110.884659 C-73.237668,110.884659 -73.237668,110.884659 -73.237668,110.884659 ZM-24.716466,110.884659C-24.716466,110.884659 -24.716466,77.818833 -24.716466,77.818833 C-24.716466,77.818833 -36.293911,77.818833 -36.293911,77.818833 C-36.293911,77.818833 -36.293911,73.423177 -36.293911,73.423177 Q-33.171903,73.423177 -30.472667,72.963930 Q-27.773431,72.504682 -25.789656,71.126939 Q-23.805880,69.749197 -22.895294,67.059318 Q-19.252952,67.059318 -19.252952,67.059318 C-19.252952,67.059318 -19.252952,110.884659 -19.252952,110.884659 C-19.252952,110.884659 -24.716466,110.884659 -24.716466,110.884659 C-24.716466,110.884659 -24.716466,110.884659 -24.716466,110.884659 ZM-73.237668,104.323979C-73.237668,104.323979 -73.237668,98.419367 -73.237668,98.419367 C-73.237668,98.419367 -49.302276,91.071406 -49.302276,91.071406 C-49.302276,91.071406 -73.237668,83.723445 -73.237668,83.723445 C-73.237668,83.723445 -73.237668,77.753226 -73.237668,77.753226 C-73.237668,77.753226 -42.472884,88.775168 -42.472884,88.775168 C-42.472884,88.775168 -42.472884,93.367644 -42.472884,93.367644 C-42.472884,93.367644 -73.237668,104.323979 -73.237668,104.323979 C-73.237668,104.323979 -73.237668,104.323979 -73.237668,104.323979 ZM-73.237668,110.884659C-73.237668,110.884659 -73.237668,105.636115 -73.237668,105.636115 C-73.237668,105.636115 -42.472884,105.636115 -42.472884,105.636115 C-42.472884,105.636115 -42.472884,110.884659 -42.472884,110.884659 C-42.472884,110.884659 -73.237668,110.884659 -73.237668,110.884659 C-73.237668,110.884659 -73.237668,110.884659 -73.237668,110.884659 ZM-24.716466,110.884659C-24.716466,110.884659 -24.716466,77.818833 -24.716466,77.818833 C-24.716466,77.818833 -36.293911,77.818833 -36.293911,77.818833 C-36.293911,77.818833 -36.293911,73.423177 -36.293911,73.423177 Q-33.171903,73.423177 -30.472667,72.963930 Q-27.773431,72.504682 -25.789656,71.126939 Q-23.805880,69.749197 -22.895294,67.059318 Q-19.252952,67.059318 -19.252952,67.059318 C-19.252952,67.059318 -19.252952,110.884659 -19.252952,110.884659 C-19.252952,110.884659 -24.716466,110.884659 -24.716466,110.884659 C-24.716466,110.884659 -24.716466,110.884659 -24.716466,110.884659 Z" fill="#000000"/>
	<path d="" fill="#ffffff" stroke="#000000" stroke-width="5"/>
	<path d="M182.299201,15.777512C182.299201,15.777512 262.881522,15.777512 262.881522,15.777512 " fill="none" stroke="#000000" stroke-width="5"/>
</g></g></svg>